<?xml version="1.0" encoding="UTF-8" standalone="no"?>
<!DOCTYPE svg PUBLIC "-//W3C//DTD SVG 1.1//EN"
 "http://www.w3.org/Graphics/SVG/1.1/DTD/svg11.dtd">
<!-- Generated by graphviz version 2.40.1 (20161225.0304)
 -->
<!-- Title: orphans Pages: 1 -->
<svg width="233pt" height="254pt"
 viewBox="0.00 0.00 233.00 254.00" xmlns="http://www.w3.org/2000/svg" xmlns:xlink="http://www.w3.org/1999/xlink">
<g id="graph0" class="graph" transform="scale(1 1) rotate(0) translate(4 250)">
<title>orphans</title>
<polygon fill="#ffffff" stroke="transparent" points="-4,4 -4,-250 229,-250 229,4 -4,4"/>
<!-- schema_migrations -->
<g id="node1" class="node">
<title>schema_migrations</title>
<g id="a_node1"><a xlink:href="../../tables/schema_migrations.html" xlink:title="schema_migrations" target="_top">
<polygon fill="#ffffff" stroke="transparent" points="8,-4 8,-94 216,-94 216,-4 8,-4"/>
<polygon fill="#f5f5f5" stroke="transparent" points="10,-69 10,-92 214,-92 214,-69 10,-69"/>
<polygon fill="none" stroke="#000000" points="10,-69 10,-92 214,-92 214,-69 10,-69"/>
<text text-anchor="start" x="15" y="-77.6" font-family="Helvetica,sans-Serif" font-weight="bold" font-size="11.00" fill="#000000">schema_migrations</text>
<text text-anchor="start" x="179.0437" y="-77.1" font-family="Helvetica,sans-Serif" font-size="11.00" fill="#000000">[table]</text>
<polygon fill="none" stroke="#000000" points="10,-47 10,-69 172,-69 172,-47 10,-47"/>
<image xlink:href="../../images/primaryKeys.png" width="11px" height="12px" preserveAspectRatio="xMinYMin meet" x="15" y="-64"/>
<text text-anchor="start" x="30" y="-54.1" font-family="Helvetica,sans-Serif" font-size="11.00" fill="#000000">version</text>
<polygon fill="none" stroke="#000000" points="172,-47 172,-69 214,-69 214,-47 172,-47"/>
<text text-anchor="start" x="174.9644" y="-54.7" font-family="Helvetica,sans-Serif" font-size="11.00" fill="#000000">int8[19]</text>
<polygon fill="none" stroke="#000000" points="10,-25 10,-47 172,-47 172,-25 10,-25"/>
<text text-anchor="start" x="30" y="-32.1" font-family="Helvetica,sans-Serif" font-size="11.00" fill="#000000">dirty</text>
<polygon fill="none" stroke="#000000" points="172,-25 172,-47 214,-47 214,-25 172,-25"/>
<text text-anchor="start" x="175" y="-32.7" font-family="Helvetica,sans-Serif" font-size="11.00" fill="#000000">bool[1]</text>
<polygon fill="#ffffff" stroke="transparent" points="10,-6 10,-25 214,-25 214,-6 10,-6"/>
<polygon fill="none" stroke="#000000" points="10,-6 10,-25 214,-25 214,-6 10,-6"/>
<polygon fill="#ffffff" stroke="transparent" points="11,-7 11,-24 82,-24 82,-7 11,-7"/>
<text text-anchor="start" x="13" y="-12.1" font-family="Helvetica,sans-Serif" font-size="11.00" fill="#000000">&lt; 0</text>
<polygon fill="#ffffff" stroke="transparent" points="82,-7 82,-24 143,-24 143,-7 82,-7"/>
<text text-anchor="start" x="109.4431" y="-12.1" font-family="Helvetica,sans-Serif" font-size="11.00" fill="#000000"> &#160;</text>
<polygon fill="#ffffff" stroke="transparent" points="143,-7 143,-24 213,-24 213,-7 143,-7"/>
<text text-anchor="start" x="195.4053" y="-12.1" font-family="Helvetica,sans-Serif" font-size="11.00" fill="#000000">0 &gt;</text>
<polygon fill="#000000" stroke="#000000" points="82,-7 82,-24 82,-24 82,-7 82,-7"/>
<polygon fill="#000000" stroke="#000000" points="143,-7 143,-24 143,-24 143,-7 143,-7"/>
<polygon fill="none" stroke="#000000" stroke-width="2" points="9,-5 9,-93 215,-93 215,-5 9,-5"/>
</a>
</g>
</g>
<!-- 自動採番 -->
<g id="node2" class="node">
<title>自動採番</title>
<g id="a_node2"><a xlink:href="../../tables/_____3c51b554.html" xlink:title="自動採番" target="_top">
<polygon fill="#ffffff" stroke="transparent" points="62,-130 62,-242 217,-242 217,-130 62,-130"/>
<polygon fill="#f5f5f5" stroke="transparent" points="64.5,-217 64.5,-240 215.5,-240 215.5,-217 64.5,-217"/>
<polygon fill="none" stroke="#000000" points="64.5,-217 64.5,-240 215.5,-240 215.5,-217 64.5,-217"/>
<text text-anchor="start" x="62.2221" y="-225.6" font-family="Helvetica,sans-Serif" font-weight="bold" font-size="11.00" fill="#000000">自動採番</text>
<text text-anchor="start" x="180.5437" y="-225.1" font-family="Helvetica,sans-Serif" font-size="11.00" fill="#000000">[table]</text>
<polygon fill="none" stroke="#000000" points="64.5,-195 64.5,-217 131.5,-217 131.5,-195 64.5,-195"/>
<image xlink:href="../../images/primaryKeys.png" width="11px" height="12px" preserveAspectRatio="xMinYMin meet" x="69.5" y="-212"/>
<text text-anchor="start" x="75.8495" y="-202.1" font-family="Helvetica,sans-Serif" font-size="11.00" fill="#000000">伝票種別</text>
<polygon fill="none" stroke="#000000" points="131.5,-195 131.5,-217 215.5,-217 215.5,-195 131.5,-195"/>
<text text-anchor="start" x="134.5" y="-202.7" font-family="Helvetica,sans-Serif" font-size="11.00" fill="#000000">varchar[2]</text>
<polygon fill="none" stroke="#000000" points="64.5,-173 64.5,-195 131.5,-195 131.5,-173 64.5,-173"/>
<image xlink:href="../../images/primaryKeys.png" width="11px" height="12px" preserveAspectRatio="xMinYMin meet" x="69.5" y="-190"/>
<text text-anchor="start" x="84.5" y="-180.1" font-family="Helvetica,sans-Serif" font-size="11.00" fill="#000000">年月</text>
<polygon fill="none" stroke="#000000" points="131.5,-173 131.5,-195 215.5,-195 215.5,-173 131.5,-173"/>
<text text-anchor="start" x="134.3807" y="-180.7" font-family="Helvetica,sans-Serif" font-size="11.00" fill="#000000">timestamp[29,6]</text>
<polygon fill="none" stroke="#000000" points="64.5,-151 64.5,-173 131.5,-173 131.5,-151 64.5,-151"/>
<text text-anchor="start" x="70.2599" y="-158.1" font-family="Helvetica,sans-Serif" font-size="11.00" fill="#000000">最終伝票番号</text>
<polygon fill="none" stroke="#000000" points="131.5,-151 131.5,-173 215.5,-173 215.5,-151 131.5,-151"/>
<text text-anchor="start" x="134.5" y="-158.7" font-family="Helvetica,sans-Serif" font-size="11.00" fill="#000000">int4[10]</text>
<polygon fill="#ffffff" stroke="transparent" points="64.5,-132 64.5,-151 215.5,-151 215.5,-132 64.5,-132"/>
<polygon fill="none" stroke="#000000" points="64.5,-132 64.5,-151 215.5,-151 215.5,-132 64.5,-132"/>
<polygon fill="#ffffff" stroke="transparent" points="65.5,-133 65.5,-150 118.5,-150 118.5,-133 65.5,-133"/>
<text text-anchor="start" x="67.5" y="-138.1" font-family="Helvetica,sans-Serif" font-size="11.00" fill="#000000">&lt; 0</text>
<polygon fill="#ffffff" stroke="transparent" points="118.5,-133 118.5,-150 162.5,-150 162.5,-133 118.5,-133"/>
<text text-anchor="start" x="137.4431" y="-138.1" font-family="Helvetica,sans-Serif" font-size="11.00" fill="#000000"> &#160;</text>
<polygon fill="#ffffff" stroke="transparent" points="162.5,-133 162.5,-150 214.5,-150 214.5,-133 162.5,-133"/>
<text text-anchor="start" x="196.9053" y="-138.1" font-family="Helvetica,sans-Serif" font-size="11.00" fill="#000000">0 &gt;</text>
<polygon fill="#000000" stroke="#000000" points="118.5,-133 118.5,-150 118.5,-150 118.5,-133 118.5,-133"/>
<polygon fill="#000000" stroke="#000000" points="162.5,-133 162.5,-150 162.5,-150 162.5,-133 162.5,-133"/>
<polygon fill="none" stroke="#000000" stroke-width="2" points="63,-131 63,-241 216,-241 216,-131 63,-131"/>
</a>
</g>
</g>
</g>
</svg>
