<?xml version="1.0" encoding="UTF-8" standalone="no"?>
<!DOCTYPE svg PUBLIC "-//W3C//DTD SVG 1.1//EN"
 "http://www.w3.org/Graphics/SVG/1.1/DTD/svg11.dtd">
<!-- Generated by graphviz version 2.40.1 (20161225.0304)
 -->
<!-- Title: twoDegreesRelationshipsDiagram Pages: 1 -->
<svg width="493pt" height="393pt"
 viewBox="0.00 0.00 493.00 392.70" xmlns="http://www.w3.org/2000/svg" xmlns:xlink="http://www.w3.org/1999/xlink">
<g id="graph0" class="graph" transform="scale(1 1) rotate(0) translate(4 388.7)">
<title>twoDegreesRelationshipsDiagram</title>
<polygon fill="#ffffff" stroke="transparent" points="-4,4 -4,-388.7 489,-388.7 489,4 -4,4"/>
<text text-anchor="middle" x="72.4936" y="-7.3" font-family="Helvetica,sans-Serif" font-size="11.00" fill="#000000">Generated by SchemaSpy</text>
<!-- 与信残高 -->
<g id="node1" class="node">
<title>与信残高</title>
<g id="a_node1"><a xlink:href="../../tables/_____24b4cb80.html" xlink:title="与信残高" target="_top">
<polygon fill="#ffffff" stroke="transparent" points="399.5,-319.7 399.5,-380.7 469.5,-380.7 469.5,-319.7 399.5,-319.7"/>
<polygon fill="#f5f5f5" stroke="transparent" points="399.5,-357.2 399.5,-380.2 469.5,-380.2 469.5,-357.2 399.5,-357.2"/>
<polygon fill="none" stroke="#000000" points="399.5,-357.2 399.5,-380.2 469.5,-380.2 469.5,-357.2 399.5,-357.2"/>
<text text-anchor="start" x="392.3321" y="-365.8" font-family="Helvetica,sans-Serif" font-weight="bold" font-size="11.00" fill="#000000">与信残高</text>
<text text-anchor="start" x="435.0219" y="-365.3" font-family="Helvetica,sans-Serif" font-size="11.00" fill="#000000">[table]</text>
<polygon fill="none" stroke="#000000" points="399.5,-338.2 399.5,-357.2 469.5,-357.2 469.5,-338.2 399.5,-338.2"/>
<text text-anchor="start" x="402.5" y="-344.3" font-family="Helvetica,sans-Serif" font-size="11.00" fill="#000000">...</text>
<polygon fill="#ffffff" stroke="transparent" points="399.5,-319.2 399.5,-338.2 469.5,-338.2 469.5,-319.2 399.5,-319.2"/>
<polygon fill="none" stroke="#000000" points="399.5,-319.2 399.5,-338.2 469.5,-338.2 469.5,-319.2 399.5,-319.2"/>
<polygon fill="#ffffff" stroke="transparent" points="400.5,-320.2 400.5,-337.2 429.5,-337.2 429.5,-320.2 400.5,-320.2"/>
<text text-anchor="start" x="402.5" y="-325.3" font-family="Helvetica,sans-Serif" font-size="11.00" fill="#000000">&lt; 1</text>
<polygon fill="#ffffff" stroke="transparent" points="429.5,-320.2 429.5,-337.2 449.5,-337.2 449.5,-320.2 429.5,-320.2"/>
<text text-anchor="start" x="436.4431" y="-325.3" font-family="Helvetica,sans-Serif" font-size="11.00" fill="#000000"> &#160;</text>
<polygon fill="#ffffff" stroke="transparent" points="449.5,-320.2 449.5,-337.2 468.5,-337.2 468.5,-320.2 449.5,-320.2"/>
<text text-anchor="start" x="460.3862" y="-325.3" font-family="Helvetica,sans-Serif" font-size="11.00" fill="#000000"> &#160;</text>
<polygon fill="#000000" stroke="#000000" points="429.5,-320.2 429.5,-337.2 429.5,-337.2 429.5,-320.2 429.5,-320.2"/>
<polygon fill="#000000" stroke="#000000" points="449.5,-320.2 449.5,-337.2 449.5,-337.2 449.5,-320.2 449.5,-320.2"/>
</a>
</g>
</g>
<!-- 取引先マスタ -->
<g id="node2" class="node">
<title>取引先マスタ</title>
<g id="a_node2"><a xlink:href="../../tables/_______70f9c0bb.html" xlink:title="取引先マスタ" target="_top">
<polygon fill="#ffffff" stroke="transparent" points="244,-131.7 244,-258.7 343,-258.7 343,-131.7 244,-131.7"/>
<polygon fill="#f5f5f5" stroke="transparent" points="244.5,-235.2 244.5,-258.2 343.5,-258.2 343.5,-235.2 244.5,-235.2"/>
<polygon fill="none" stroke="#000000" points="244.5,-235.2 244.5,-258.2 343.5,-258.2 343.5,-235.2 244.5,-235.2"/>
<text text-anchor="start" x="235.3644" y="-243.8" font-family="Helvetica,sans-Serif" font-weight="bold" font-size="11.00" fill="#000000">取引先マスタ</text>
<text text-anchor="start" x="308.5437" y="-243.3" font-family="Helvetica,sans-Serif" font-size="11.00" fill="#000000">[table]</text>
<polygon fill="none" stroke="#000000" points="244.5,-213.2 244.5,-235.2 343.5,-235.2 343.5,-213.2 244.5,-213.2"/>
<image xlink:href="../../images/primaryKeys.png" width="11px" height="12px" preserveAspectRatio="xMinYMin meet" x="249.5" y="-230.2"/>
<text text-anchor="start" x="262.9978" y="-220.3" font-family="Helvetica,sans-Serif" font-size="11.00" fill="#000000">取引先コード</text>
<polygon fill="#ffffff" stroke="transparent" points="244.5,-191.2 244.5,-213.2 343.5,-213.2 343.5,-191.2 244.5,-191.2"/>
<polygon fill="none" stroke="#000000" points="244.5,-191.2 244.5,-213.2 343.5,-213.2 343.5,-191.2 244.5,-191.2"/>
<text text-anchor="start" x="264.5" y="-198.3" font-family="Helvetica,sans-Serif" font-size="11.00" fill="#000000">取引先名</text>
<polygon fill="#ffffff" stroke="transparent" points="244.5,-169.2 244.5,-191.2 343.5,-191.2 343.5,-169.2 244.5,-169.2"/>
<polygon fill="none" stroke="#000000" points="244.5,-169.2 244.5,-191.2 343.5,-191.2 343.5,-169.2 244.5,-169.2"/>
<image xlink:href="../../images/foreignKeys.png" width="11px" height="12px" preserveAspectRatio="xMinYMin meet" x="249.5" y="-186.2"/>
<text text-anchor="start" x="237.1319" y="-176.3" font-family="Helvetica,sans-Serif" font-size="11.00" fill="#000000">取引先グループコード</text>
<polygon fill="none" stroke="#000000" points="244.5,-150.2 244.5,-169.2 343.5,-169.2 343.5,-150.2 244.5,-150.2"/>
<text text-anchor="start" x="247.5" y="-156.3" font-family="Helvetica,sans-Serif" font-size="11.00" fill="#000000">...</text>
<polygon fill="#ffffff" stroke="transparent" points="244.5,-131.2 244.5,-150.2 343.5,-150.2 343.5,-131.2 244.5,-131.2"/>
<polygon fill="none" stroke="#000000" points="244.5,-131.2 244.5,-150.2 343.5,-150.2 343.5,-131.2 244.5,-131.2"/>
<polygon fill="#ffffff" stroke="transparent" points="245.5,-132.2 245.5,-149.2 281.5,-149.2 281.5,-132.2 245.5,-132.2"/>
<text text-anchor="start" x="247.5" y="-137.3" font-family="Helvetica,sans-Serif" font-size="11.00" fill="#000000">&lt; 1</text>
<polygon fill="#ffffff" stroke="transparent" points="281.5,-132.2 281.5,-149.2 307.5,-149.2 307.5,-132.2 281.5,-132.2"/>
<text text-anchor="start" x="291.4431" y="-137.3" font-family="Helvetica,sans-Serif" font-size="11.00" fill="#000000"> &#160;</text>
<polygon fill="#ffffff" stroke="transparent" points="307.5,-132.2 307.5,-149.2 342.5,-149.2 342.5,-132.2 307.5,-132.2"/>
<text text-anchor="start" x="324.9053" y="-137.3" font-family="Helvetica,sans-Serif" font-size="11.00" fill="#000000">4 &gt;</text>
<polygon fill="#000000" stroke="#000000" points="281.5,-132.2 281.5,-149.2 281.5,-149.2 281.5,-132.2 281.5,-132.2"/>
<polygon fill="#000000" stroke="#000000" points="307.5,-132.2 307.5,-149.2 307.5,-149.2 307.5,-132.2 307.5,-132.2"/>
</a>
</g>
</g>
<!-- 与信残高&#45;&gt;取引先マスタ -->
<g id="edge1" class="edge">
<title>与信残高:w&#45;&gt;取引先マスタ:e</title>
<path fill="none" stroke="#000000" d="M389.1041,-345.6448C347.404,-331.4065 399.5771,-224.2 343.5,-224.2"/>
<polygon fill="#000000" stroke="#000000" points="399.3006,-343.1257 398.117,-351.0376 396.5346,-350.8009 397.7182,-342.8889 399.3006,-343.1257"/>
<polyline fill="none" stroke="#000000" points="399.5,-347.2 395.544,-346.6082 "/>
<ellipse fill="none" stroke="#000000" cx="392.3792" cy="-346.1347" rx="3.2" ry="3.2"/>
</g>
<!-- 取引先グループマスタ -->
<g id="node4" class="node">
<title>取引先グループマスタ</title>
<g id="a_node4"><a xlink:href="../../tables/___________d6a542a5.html" xlink:title="取引先グループマスタ" target="_top">
<polygon fill="#ffffff" stroke="transparent" points="8,-38.2 8,-216.2 195,-216.2 195,-38.2 8,-38.2"/>
<polygon fill="#f5f5f5" stroke="transparent" points="10.5,-191.2 10.5,-214.2 193.5,-214.2 193.5,-191.2 10.5,-191.2"/>
<polygon fill="none" stroke="#000000" points="10.5,-191.2 10.5,-214.2 193.5,-214.2 193.5,-191.2 10.5,-191.2"/>
<text text-anchor="start" x="-8.5016" y="-199.8" font-family="Helvetica,sans-Serif" font-weight="bold" font-size="11.00" fill="#000000">取引先グループマスタ</text>
<text text-anchor="start" x="158.5437" y="-199.3" font-family="Helvetica,sans-Serif" font-size="11.00" fill="#000000">[table]</text>
<polygon fill="none" stroke="#000000" points="10.5,-169.2 10.5,-191.2 109.5,-191.2 109.5,-169.2 10.5,-169.2"/>
<image xlink:href="../../images/primaryKeys.png" width="11px" height="12px" preserveAspectRatio="xMinYMin meet" x="15.5" y="-186.2"/>
<text text-anchor="start" x="3.1319" y="-176.3" font-family="Helvetica,sans-Serif" font-size="11.00" fill="#000000">取引先グループコード</text>
<polygon fill="none" stroke="#000000" points="109.5,-169.2 109.5,-191.2 193.5,-191.2 193.5,-169.2 109.5,-169.2"/>
<text text-anchor="start" x="112.5" y="-176.9" font-family="Helvetica,sans-Serif" font-size="11.00" fill="#000000">varchar[4]</text>
<polygon fill="none" stroke="#000000" points="10.5,-147.2 10.5,-169.2 109.5,-169.2 109.5,-147.2 10.5,-147.2"/>
<text text-anchor="start" x="19.3211" y="-154.3" font-family="Helvetica,sans-Serif" font-size="11.00" fill="#000000">取引先グループ名</text>
<polygon fill="none" stroke="#000000" points="109.5,-147.2 109.5,-169.2 193.5,-169.2 193.5,-147.2 109.5,-147.2"/>
<text text-anchor="start" x="112.5" y="-154.9" font-family="Helvetica,sans-Serif" font-size="11.00" fill="#000000">varchar[40]</text>
<polygon fill="none" stroke="#000000" points="10.5,-125.2 10.5,-147.2 109.5,-147.2 109.5,-125.2 10.5,-125.2"/>
<text text-anchor="start" x="30.5" y="-132.3" font-family="Helvetica,sans-Serif" font-size="11.00" fill="#000000">作成日時</text>
<polygon fill="none" stroke="#000000" points="109.5,-125.2 109.5,-147.2 193.5,-147.2 193.5,-125.2 109.5,-125.2"/>
<text text-anchor="start" x="112.3807" y="-132.9" font-family="Helvetica,sans-Serif" font-size="11.00" fill="#000000">timestamp[29,6]</text>
<polygon fill="none" stroke="#000000" points="10.5,-103.2 10.5,-125.2 109.5,-125.2 109.5,-103.2 10.5,-103.2"/>
<text text-anchor="start" x="30.5" y="-110.3" font-family="Helvetica,sans-Serif" font-size="11.00" fill="#000000">作成者名</text>
<polygon fill="none" stroke="#000000" points="109.5,-103.2 109.5,-125.2 193.5,-125.2 193.5,-103.2 109.5,-103.2"/>
<text text-anchor="start" x="112.5" y="-110.9" font-family="Helvetica,sans-Serif" font-size="11.00" fill="#000000">varchar[12]</text>
<polygon fill="none" stroke="#000000" points="10.5,-81.2 10.5,-103.2 109.5,-103.2 109.5,-81.2 10.5,-81.2"/>
<text text-anchor="start" x="30.5" y="-88.3" font-family="Helvetica,sans-Serif" font-size="11.00" fill="#000000">更新日時</text>
<polygon fill="none" stroke="#000000" points="109.5,-81.2 109.5,-103.2 193.5,-103.2 193.5,-81.2 109.5,-81.2"/>
<text text-anchor="start" x="112.3807" y="-88.9" font-family="Helvetica,sans-Serif" font-size="11.00" fill="#000000">timestamp[29,6]</text>
<polygon fill="none" stroke="#000000" points="10.5,-59.2 10.5,-81.2 109.5,-81.2 109.5,-59.2 10.5,-59.2"/>
<text text-anchor="start" x="30.5" y="-66.3" font-family="Helvetica,sans-Serif" font-size="11.00" fill="#000000">更新者名</text>
<polygon fill="none" stroke="#000000" points="109.5,-59.2 109.5,-81.2 193.5,-81.2 193.5,-59.2 109.5,-59.2"/>
<text text-anchor="start" x="112.5" y="-66.9" font-family="Helvetica,sans-Serif" font-size="11.00" fill="#000000">varchar[12]</text>
<polygon fill="#ffffff" stroke="transparent" points="10.5,-40.2 10.5,-59.2 193.5,-59.2 193.5,-40.2 10.5,-40.2"/>
<polygon fill="none" stroke="#000000" points="10.5,-40.2 10.5,-59.2 193.5,-59.2 193.5,-40.2 10.5,-40.2"/>
<polygon fill="#ffffff" stroke="transparent" points="11.5,-41.2 11.5,-58.2 75.5,-58.2 75.5,-41.2 11.5,-41.2"/>
<text text-anchor="start" x="13.5" y="-46.3" font-family="Helvetica,sans-Serif" font-size="11.00" fill="#000000">&lt; 0</text>
<polygon fill="#ffffff" stroke="transparent" points="75.5,-41.2 75.5,-58.2 129.5,-58.2 129.5,-41.2 75.5,-41.2"/>
<text text-anchor="start" x="99.4431" y="-46.3" font-family="Helvetica,sans-Serif" font-size="11.00" fill="#000000"> &#160;</text>
<polygon fill="#ffffff" stroke="transparent" points="129.5,-41.2 129.5,-58.2 192.5,-58.2 192.5,-41.2 129.5,-41.2"/>
<text text-anchor="start" x="174.9053" y="-46.3" font-family="Helvetica,sans-Serif" font-size="11.00" fill="#000000">1 &gt;</text>
<polygon fill="#000000" stroke="#000000" points="75.5,-41.2 75.5,-58.2 75.5,-58.2 75.5,-41.2 75.5,-41.2"/>
<polygon fill="#000000" stroke="#000000" points="129.5,-41.2 129.5,-58.2 129.5,-58.2 129.5,-41.2 129.5,-41.2"/>
<polygon fill="none" stroke="#000000" stroke-width="2" points="9,-39.2 9,-215.2 194,-215.2 194,-39.2 9,-39.2"/>
</a>
</g>
</g>
<!-- 取引先マスタ&#45;&gt;取引先グループマスタ -->
<g id="edge3" class="edge">
<title>取引先マスタ:w&#45;&gt;取引先グループマスタ:e</title>
<path fill="none" stroke="#000000" d="M229.776,-180.2C217.7815,-180.2 210.3229,-180.2 193.5,-180.2"/>
<polygon fill="#000000" stroke="#000000" points="236.5,-180.2001 244.5,-183.8 240.5,-180.2 244.5,-180.2 244.5,-180.2 244.5,-180.2 240.5,-180.2 244.5,-176.6 236.5,-180.2001 236.5,-180.2001"/>
<ellipse fill="none" stroke="#000000" cx="233.3" cy="-180.2001" rx="3.2" ry="3.2"/>
</g>
<!-- 仕入先マスタ -->
<g id="node3" class="node">
<title>仕入先マスタ</title>
<g id="a_node3"><a xlink:href="../../tables/_______2628176c.html" xlink:title="仕入先マスタ" target="_top">
<polygon fill="#ffffff" stroke="transparent" points="392,-237.7 392,-298.7 477,-298.7 477,-237.7 392,-237.7"/>
<polygon fill="#f5f5f5" stroke="transparent" points="392.5,-275.2 392.5,-298.2 477.5,-298.2 477.5,-275.2 392.5,-275.2"/>
<polygon fill="none" stroke="#000000" points="392.5,-275.2 392.5,-298.2 477.5,-298.2 477.5,-275.2 392.5,-275.2"/>
<text text-anchor="start" x="384.2779" y="-283.8" font-family="Helvetica,sans-Serif" font-weight="bold" font-size="11.00" fill="#000000">仕入先マスタ</text>
<text text-anchor="start" x="443.0219" y="-283.3" font-family="Helvetica,sans-Serif" font-size="11.00" fill="#000000">[table]</text>
<polygon fill="none" stroke="#000000" points="392.5,-256.2 392.5,-275.2 477.5,-275.2 477.5,-256.2 392.5,-256.2"/>
<text text-anchor="start" x="395.5" y="-262.3" font-family="Helvetica,sans-Serif" font-size="11.00" fill="#000000">...</text>
<polygon fill="#ffffff" stroke="transparent" points="392.5,-237.2 392.5,-256.2 477.5,-256.2 477.5,-237.2 392.5,-237.2"/>
<polygon fill="none" stroke="#000000" points="392.5,-237.2 392.5,-256.2 477.5,-256.2 477.5,-237.2 392.5,-237.2"/>
<polygon fill="#ffffff" stroke="transparent" points="393.5,-238.2 393.5,-255.2 427.5,-255.2 427.5,-238.2 393.5,-238.2"/>
<text text-anchor="start" x="395.5" y="-243.3" font-family="Helvetica,sans-Serif" font-size="11.00" fill="#000000">&lt; 1</text>
<polygon fill="#ffffff" stroke="transparent" points="427.5,-238.2 427.5,-255.2 452.5,-255.2 452.5,-238.2 427.5,-238.2"/>
<text text-anchor="start" x="436.9431" y="-243.3" font-family="Helvetica,sans-Serif" font-size="11.00" fill="#000000"> &#160;</text>
<polygon fill="#ffffff" stroke="transparent" points="452.5,-238.2 452.5,-255.2 476.5,-255.2 476.5,-238.2 452.5,-238.2"/>
<text text-anchor="start" x="468.3862" y="-243.3" font-family="Helvetica,sans-Serif" font-size="11.00" fill="#000000"> &#160;</text>
<polygon fill="#000000" stroke="#000000" points="427.5,-238.2 427.5,-255.2 427.5,-255.2 427.5,-238.2 427.5,-238.2"/>
<polygon fill="#000000" stroke="#000000" points="452.5,-238.2 452.5,-255.2 452.5,-255.2 452.5,-238.2 452.5,-238.2"/>
</a>
</g>
</g>
<!-- 仕入先マスタ&#45;&gt;取引先マスタ -->
<g id="edge2" class="edge">
<title>仕入先マスタ:w&#45;&gt;取引先マスタ:e</title>
<path fill="none" stroke="#000000" d="M378.6819,-260.4968C365.7811,-249.7274 365.9061,-224.2 343.5,-224.2"/>
<polygon fill="#000000" stroke="#000000" points="384.9267,-262.6222 391.34,-268.608 388.7133,-263.9111 392.5,-265.2 392.5,-265.2 392.5,-265.2 388.7133,-263.9111 393.66,-261.792 384.9267,-262.6222 384.9267,-262.6222"/>
<ellipse fill="none" stroke="#000000" cx="381.8973" cy="-261.5911" rx="3.2" ry="3.2"/>
</g>
<!-- 売上 -->
<g id="node5" class="node">
<title>売上</title>
<g id="a_node5"><a xlink:href="../../tables/___b1358.html" xlink:title="売上" target="_top">
<polygon fill="#ffffff" stroke="transparent" points="407.5,-155.7 407.5,-216.7 461.5,-216.7 461.5,-155.7 407.5,-155.7"/>
<polygon fill="#f5f5f5" stroke="transparent" points="407.5,-193.2 407.5,-216.2 461.5,-216.2 461.5,-193.2 407.5,-193.2"/>
<polygon fill="none" stroke="#000000" points="407.5,-193.2 407.5,-216.2 461.5,-216.2 461.5,-193.2 407.5,-193.2"/>
<text text-anchor="start" x="406.0793" y="-201.8" font-family="Helvetica,sans-Serif" font-weight="bold" font-size="11.00" fill="#000000">売上</text>
<text text-anchor="start" x="427.0219" y="-201.3" font-family="Helvetica,sans-Serif" font-size="11.00" fill="#000000">[table]</text>
<polygon fill="none" stroke="#000000" points="407.5,-174.2 407.5,-193.2 461.5,-193.2 461.5,-174.2 407.5,-174.2"/>
<text text-anchor="start" x="410.5" y="-180.3" font-family="Helvetica,sans-Serif" font-size="11.00" fill="#000000">...</text>
<polygon fill="#ffffff" stroke="transparent" points="407.5,-155.2 407.5,-174.2 461.5,-174.2 461.5,-155.2 407.5,-155.2"/>
<polygon fill="none" stroke="#000000" points="407.5,-155.2 407.5,-174.2 461.5,-174.2 461.5,-155.2 407.5,-155.2"/>
<polygon fill="#ffffff" stroke="transparent" points="408.5,-156.2 408.5,-173.2 429.5,-173.2 429.5,-156.2 408.5,-156.2"/>
<text text-anchor="start" x="410.5" y="-161.3" font-family="Helvetica,sans-Serif" font-size="11.00" fill="#000000">&lt; 4</text>
<polygon fill="#ffffff" stroke="transparent" points="429.5,-156.2 429.5,-173.2 440.5,-173.2 440.5,-156.2 429.5,-156.2"/>
<text text-anchor="start" x="431.9431" y="-161.3" font-family="Helvetica,sans-Serif" font-size="11.00" fill="#000000"> &#160;</text>
<polygon fill="#ffffff" stroke="transparent" points="440.5,-156.2 440.5,-173.2 460.5,-173.2 460.5,-156.2 440.5,-156.2"/>
<text text-anchor="start" x="442.9053" y="-161.3" font-family="Helvetica,sans-Serif" font-size="11.00" fill="#000000">1 &gt;</text>
<polygon fill="#000000" stroke="#000000" points="429.5,-156.2 429.5,-173.2 429.5,-173.2 429.5,-156.2 429.5,-156.2"/>
<polygon fill="#000000" stroke="#000000" points="440.5,-156.2 440.5,-173.2 440.5,-173.2 440.5,-156.2 440.5,-156.2"/>
</a>
</g>
</g>
<!-- 売上&#45;&gt;取引先マスタ -->
<g id="edge4" class="edge">
<title>売上:w&#45;&gt;取引先マスタ:e</title>
<path fill="none" stroke="#000000" d="M393.2844,-186.2817C373.8622,-195.8167 371.6066,-224.2 343.5,-224.2"/>
<polygon fill="#000000" stroke="#000000" points="399.6816,-184.8949 408.2627,-186.7183 403.5908,-184.0475 407.5,-183.2 407.5,-183.2 407.5,-183.2 403.5908,-184.0475 406.7373,-179.6817 399.6816,-184.8949 399.6816,-184.8949"/>
<ellipse fill="none" stroke="#000000" cx="396.5542" cy="-185.5729" rx="3.2" ry="3.2"/>
</g>
<!-- 顧客マスタ -->
<g id="node6" class="node">
<title>顧客マスタ</title>
<g id="a_node6"><a xlink:href="../../tables/______8e04fe89.html" xlink:title="顧客マスタ" target="_top">
<polygon fill="#ffffff" stroke="transparent" points="395.5,-73.7 395.5,-134.7 473.5,-134.7 473.5,-73.7 395.5,-73.7"/>
<polygon fill="#f5f5f5" stroke="transparent" points="395.5,-111.2 395.5,-134.2 473.5,-134.2 473.5,-111.2 395.5,-111.2"/>
<polygon fill="none" stroke="#000000" points="395.5,-111.2 395.5,-134.2 473.5,-134.2 473.5,-111.2 395.5,-111.2"/>
<text text-anchor="start" x="384.0892" y="-119.8" font-family="Helvetica,sans-Serif" font-weight="bold" font-size="11.00" fill="#000000">顧客マスタ</text>
<text text-anchor="start" x="439.0219" y="-119.3" font-family="Helvetica,sans-Serif" font-size="11.00" fill="#000000">[table]</text>
<polygon fill="none" stroke="#000000" points="395.5,-92.2 395.5,-111.2 473.5,-111.2 473.5,-92.2 395.5,-92.2"/>
<text text-anchor="start" x="398.5" y="-98.3" font-family="Helvetica,sans-Serif" font-size="11.00" fill="#000000">...</text>
<polygon fill="#ffffff" stroke="transparent" points="395.5,-73.2 395.5,-92.2 473.5,-92.2 473.5,-73.2 395.5,-73.2"/>
<polygon fill="none" stroke="#000000" points="395.5,-73.2 395.5,-92.2 473.5,-92.2 473.5,-73.2 395.5,-73.2"/>
<polygon fill="#ffffff" stroke="transparent" points="396.5,-74.2 396.5,-91.2 425.5,-91.2 425.5,-74.2 396.5,-74.2"/>
<text text-anchor="start" x="398.5" y="-79.3" font-family="Helvetica,sans-Serif" font-size="11.00" fill="#000000">&lt; 1</text>
<polygon fill="#ffffff" stroke="transparent" points="425.5,-74.2 425.5,-91.2 444.5,-91.2 444.5,-74.2 425.5,-74.2"/>
<text text-anchor="start" x="431.9431" y="-79.3" font-family="Helvetica,sans-Serif" font-size="11.00" fill="#000000"> &#160;</text>
<polygon fill="#ffffff" stroke="transparent" points="444.5,-74.2 444.5,-91.2 472.5,-91.2 472.5,-74.2 444.5,-74.2"/>
<text text-anchor="start" x="454.9053" y="-79.3" font-family="Helvetica,sans-Serif" font-size="11.00" fill="#000000">2 &gt;</text>
<polygon fill="#000000" stroke="#000000" points="425.5,-74.2 425.5,-91.2 425.5,-91.2 425.5,-74.2 425.5,-74.2"/>
<polygon fill="#000000" stroke="#000000" points="444.5,-74.2 444.5,-91.2 444.5,-91.2 444.5,-74.2 444.5,-74.2"/>
</a>
</g>
</g>
<!-- 顧客マスタ&#45;&gt;取引先マスタ -->
<g id="edge5" class="edge">
<title>顧客マスタ:w&#45;&gt;取引先マスタ:e</title>
<path fill="none" stroke="#000000" d="M381.053,-104.7485C348.3975,-124.9156 396.8234,-224.2 343.5,-224.2"/>
<polygon fill="#000000" stroke="#000000" points="387.7309,-103.1083 396.3587,-104.6961 391.6155,-102.1541 395.5,-101.2 395.5,-101.2 395.5,-101.2 391.6155,-102.1541 394.6413,-97.7039 387.7309,-103.1083 387.7309,-103.1083"/>
<ellipse fill="none" stroke="#000000" cx="384.6233" cy="-103.8716" rx="3.2" ry="3.2"/>
</g>
</g>
</svg>
