<?xml version="1.0" encoding="UTF-8" standalone="no"?>
<!DOCTYPE svg PUBLIC "-//W3C//DTD SVG 1.1//EN"
 "http://www.w3.org/Graphics/SVG/1.1/DTD/svg11.dtd">
<!-- Generated by graphviz version 2.40.1 (20161225.0304)
 -->
<!-- Title: oneDegreeRelationshipsDiagram Pages: 1 -->
<svg width="327pt" height="272pt"
 viewBox="0.00 0.00 327.00 272.20" xmlns="http://www.w3.org/2000/svg" xmlns:xlink="http://www.w3.org/1999/xlink">
<g id="graph0" class="graph" transform="scale(1 1) rotate(0) translate(4 268.2)">
<title>oneDegreeRelationshipsDiagram</title>
<polygon fill="#ffffff" stroke="transparent" points="-4,4 -4,-268.2 323,-268.2 323,4 -4,4"/>
<text text-anchor="middle" x="72.4936" y="-7.3" font-family="Helvetica,sans-Serif" font-size="11.00" fill="#000000">Generated by SchemaSpy</text>
<!-- 与信残高 -->
<g id="node1" class="node">
<title>与信残高</title>
<g id="a_node1"><a xlink:href="../../tables/_____24b4cb80.html" xlink:title="与信残高" target="_top">
<polygon fill="#ffffff" stroke="transparent" points="156,-38.2 156,-260.2 311,-260.2 311,-38.2 156,-38.2"/>
<polygon fill="#f5f5f5" stroke="transparent" points="158.5,-235.2 158.5,-258.2 309.5,-258.2 309.5,-235.2 158.5,-235.2"/>
<polygon fill="none" stroke="#000000" points="158.5,-235.2 158.5,-258.2 309.5,-258.2 309.5,-235.2 158.5,-235.2"/>
<text text-anchor="start" x="151.3321" y="-243.8" font-family="Helvetica,sans-Serif" font-weight="bold" font-size="11.00" fill="#000000">与信残高</text>
<text text-anchor="start" x="274.5437" y="-243.3" font-family="Helvetica,sans-Serif" font-size="11.00" fill="#000000">[table]</text>
<polygon fill="none" stroke="#000000" points="158.5,-213.2 158.5,-235.2 225.5,-235.2 225.5,-213.2 158.5,-213.2"/>
<image xlink:href="../../images/primaryKeys.png" width="11px" height="12px" preserveAspectRatio="xMinYMin meet" x="163.5" y="-230.2"/>
<text text-anchor="start" x="160.9978" y="-220.3" font-family="Helvetica,sans-Serif" font-size="11.00" fill="#000000">取引先コード</text>
<polygon fill="none" stroke="#000000" points="225.5,-213.2 225.5,-235.2 309.5,-235.2 309.5,-213.2 225.5,-213.2"/>
<text text-anchor="start" x="228.5" y="-220.9" font-family="Helvetica,sans-Serif" font-size="11.00" fill="#000000">varchar[8]</text>
<polygon fill="none" stroke="#000000" points="158.5,-191.2 158.5,-213.2 225.5,-213.2 225.5,-191.2 158.5,-191.2"/>
<text text-anchor="start" x="172.6001" y="-198.3" font-family="Helvetica,sans-Serif" font-size="11.00" fill="#000000">受注残高</text>
<polygon fill="none" stroke="#000000" points="225.5,-191.2 225.5,-213.2 309.5,-213.2 309.5,-191.2 225.5,-191.2"/>
<text text-anchor="start" x="228.5" y="-198.9" font-family="Helvetica,sans-Serif" font-size="11.00" fill="#000000">int4[10]</text>
<polygon fill="none" stroke="#000000" points="158.5,-169.2 158.5,-191.2 225.5,-191.2 225.5,-169.2 158.5,-169.2"/>
<text text-anchor="start" x="172.6001" y="-176.3" font-family="Helvetica,sans-Serif" font-size="11.00" fill="#000000">売掛残高</text>
<polygon fill="none" stroke="#000000" points="225.5,-169.2 225.5,-191.2 309.5,-191.2 309.5,-169.2 225.5,-169.2"/>
<text text-anchor="start" x="228.5" y="-176.9" font-family="Helvetica,sans-Serif" font-size="11.00" fill="#000000">int4[10]</text>
<polygon fill="none" stroke="#000000" points="158.5,-147.2 158.5,-169.2 225.5,-169.2 225.5,-147.2 158.5,-147.2"/>
<text text-anchor="start" x="172.2041" y="-154.3" font-family="Helvetica,sans-Serif" font-size="11.00" fill="#000000">買掛残高</text>
<polygon fill="none" stroke="#000000" points="225.5,-147.2 225.5,-169.2 309.5,-169.2 309.5,-147.2 225.5,-147.2"/>
<text text-anchor="start" x="228.5" y="-154.9" font-family="Helvetica,sans-Serif" font-size="11.00" fill="#000000">int4[10]</text>
<polygon fill="none" stroke="#000000" points="158.5,-125.2 158.5,-147.2 225.5,-147.2 225.5,-125.2 158.5,-125.2"/>
<text text-anchor="start" x="175.6581" y="-132.3" font-family="Helvetica,sans-Serif" font-size="11.00" fill="#000000">作成日時</text>
<polygon fill="none" stroke="#000000" points="225.5,-125.2 225.5,-147.2 309.5,-147.2 309.5,-125.2 225.5,-125.2"/>
<text text-anchor="start" x="228.3807" y="-132.9" font-family="Helvetica,sans-Serif" font-size="11.00" fill="#000000">timestamp[29,6]</text>
<polygon fill="none" stroke="#000000" points="158.5,-103.2 158.5,-125.2 225.5,-125.2 225.5,-103.2 158.5,-103.2"/>
<text text-anchor="start" x="175.6581" y="-110.3" font-family="Helvetica,sans-Serif" font-size="11.00" fill="#000000">作成者名</text>
<polygon fill="none" stroke="#000000" points="225.5,-103.2 225.5,-125.2 309.5,-125.2 309.5,-103.2 225.5,-103.2"/>
<text text-anchor="start" x="228.5" y="-110.9" font-family="Helvetica,sans-Serif" font-size="11.00" fill="#000000">varchar[12]</text>
<polygon fill="none" stroke="#000000" points="158.5,-81.2 158.5,-103.2 225.5,-103.2 225.5,-81.2 158.5,-81.2"/>
<text text-anchor="start" x="178.5" y="-88.3" font-family="Helvetica,sans-Serif" font-size="11.00" fill="#000000">更新日時</text>
<polygon fill="none" stroke="#000000" points="225.5,-81.2 225.5,-103.2 309.5,-103.2 309.5,-81.2 225.5,-81.2"/>
<text text-anchor="start" x="228.3807" y="-88.9" font-family="Helvetica,sans-Serif" font-size="11.00" fill="#000000">timestamp[29,6]</text>
<polygon fill="none" stroke="#000000" points="158.5,-59.2 158.5,-81.2 225.5,-81.2 225.5,-59.2 158.5,-59.2"/>
<text text-anchor="start" x="178.5" y="-66.3" font-family="Helvetica,sans-Serif" font-size="11.00" fill="#000000">更新者名</text>
<polygon fill="none" stroke="#000000" points="225.5,-59.2 225.5,-81.2 309.5,-81.2 309.5,-59.2 225.5,-59.2"/>
<text text-anchor="start" x="228.5" y="-66.9" font-family="Helvetica,sans-Serif" font-size="11.00" fill="#000000">varchar[12]</text>
<polygon fill="#ffffff" stroke="transparent" points="158.5,-40.2 158.5,-59.2 309.5,-59.2 309.5,-40.2 158.5,-40.2"/>
<polygon fill="none" stroke="#000000" points="158.5,-40.2 158.5,-59.2 309.5,-59.2 309.5,-40.2 158.5,-40.2"/>
<polygon fill="#ffffff" stroke="transparent" points="159.5,-41.2 159.5,-58.2 212.5,-58.2 212.5,-41.2 159.5,-41.2"/>
<text text-anchor="start" x="161.5" y="-46.3" font-family="Helvetica,sans-Serif" font-size="11.00" fill="#000000">&lt; 1</text>
<polygon fill="#ffffff" stroke="transparent" points="212.5,-41.2 212.5,-58.2 256.5,-58.2 256.5,-41.2 212.5,-41.2"/>
<text text-anchor="start" x="231.4431" y="-46.3" font-family="Helvetica,sans-Serif" font-size="11.00" fill="#000000"> &#160;</text>
<polygon fill="#ffffff" stroke="transparent" points="256.5,-41.2 256.5,-58.2 308.5,-58.2 308.5,-41.2 256.5,-41.2"/>
<text text-anchor="start" x="290.9053" y="-46.3" font-family="Helvetica,sans-Serif" font-size="11.00" fill="#000000">0 &gt;</text>
<polygon fill="#000000" stroke="#000000" points="212.5,-41.2 212.5,-58.2 212.5,-58.2 212.5,-41.2 212.5,-41.2"/>
<polygon fill="#000000" stroke="#000000" points="256.5,-41.2 256.5,-58.2 256.5,-58.2 256.5,-41.2 256.5,-41.2"/>
<polygon fill="none" stroke="#000000" stroke-width="2" points="157,-39.2 157,-259.2 310,-259.2 310,-39.2 157,-39.2"/>
</a>
</g>
</g>
<!-- 取引先マスタ -->
<g id="node2" class="node">
<title>取引先マスタ</title>
<g id="a_node2"><a xlink:href="../../tables/_______70f9c0bb.html" xlink:title="取引先マスタ" target="_top">
<polygon fill="#ffffff" stroke="transparent" points="8,-131.7 8,-258.7 107,-258.7 107,-131.7 8,-131.7"/>
<polygon fill="#f5f5f5" stroke="transparent" points="8.5,-235.2 8.5,-258.2 107.5,-258.2 107.5,-235.2 8.5,-235.2"/>
<polygon fill="none" stroke="#000000" points="8.5,-235.2 8.5,-258.2 107.5,-258.2 107.5,-235.2 8.5,-235.2"/>
<text text-anchor="start" x="-.6356" y="-243.8" font-family="Helvetica,sans-Serif" font-weight="bold" font-size="11.00" fill="#000000">取引先マスタ</text>
<text text-anchor="start" x="72.5437" y="-243.3" font-family="Helvetica,sans-Serif" font-size="11.00" fill="#000000">[table]</text>
<polygon fill="none" stroke="#000000" points="8.5,-213.2 8.5,-235.2 107.5,-235.2 107.5,-213.2 8.5,-213.2"/>
<image xlink:href="../../images/primaryKeys.png" width="11px" height="12px" preserveAspectRatio="xMinYMin meet" x="13.5" y="-230.2"/>
<text text-anchor="start" x="26.9978" y="-220.3" font-family="Helvetica,sans-Serif" font-size="11.00" fill="#000000">取引先コード</text>
<polygon fill="#ffffff" stroke="transparent" points="8.5,-191.2 8.5,-213.2 107.5,-213.2 107.5,-191.2 8.5,-191.2"/>
<polygon fill="none" stroke="#000000" points="8.5,-191.2 8.5,-213.2 107.5,-213.2 107.5,-191.2 8.5,-191.2"/>
<text text-anchor="start" x="28.5" y="-198.3" font-family="Helvetica,sans-Serif" font-size="11.00" fill="#000000">取引先名</text>
<polygon fill="#ffffff" stroke="transparent" points="8.5,-169.2 8.5,-191.2 107.5,-191.2 107.5,-169.2 8.5,-169.2"/>
<polygon fill="none" stroke="#000000" points="8.5,-169.2 8.5,-191.2 107.5,-191.2 107.5,-169.2 8.5,-169.2"/>
<image xlink:href="../../images/foreignKeys.png" width="11px" height="12px" preserveAspectRatio="xMinYMin meet" x="13.5" y="-186.2"/>
<text text-anchor="start" x="1.1319" y="-176.3" font-family="Helvetica,sans-Serif" font-size="11.00" fill="#000000">取引先グループコード</text>
<polygon fill="none" stroke="#000000" points="8.5,-150.2 8.5,-169.2 107.5,-169.2 107.5,-150.2 8.5,-150.2"/>
<text text-anchor="start" x="11.5" y="-156.3" font-family="Helvetica,sans-Serif" font-size="11.00" fill="#000000">...</text>
<polygon fill="#ffffff" stroke="transparent" points="8.5,-131.2 8.5,-150.2 107.5,-150.2 107.5,-131.2 8.5,-131.2"/>
<polygon fill="none" stroke="#000000" points="8.5,-131.2 8.5,-150.2 107.5,-150.2 107.5,-131.2 8.5,-131.2"/>
<polygon fill="#ffffff" stroke="transparent" points="9.5,-132.2 9.5,-149.2 45.5,-149.2 45.5,-132.2 9.5,-132.2"/>
<text text-anchor="start" x="11.5" y="-137.3" font-family="Helvetica,sans-Serif" font-size="11.00" fill="#000000">&lt; 1</text>
<polygon fill="#ffffff" stroke="transparent" points="45.5,-132.2 45.5,-149.2 71.5,-149.2 71.5,-132.2 45.5,-132.2"/>
<text text-anchor="start" x="55.4431" y="-137.3" font-family="Helvetica,sans-Serif" font-size="11.00" fill="#000000"> &#160;</text>
<polygon fill="#ffffff" stroke="transparent" points="71.5,-132.2 71.5,-149.2 106.5,-149.2 106.5,-132.2 71.5,-132.2"/>
<text text-anchor="start" x="88.9053" y="-137.3" font-family="Helvetica,sans-Serif" font-size="11.00" fill="#000000">4 &gt;</text>
<polygon fill="#000000" stroke="#000000" points="45.5,-132.2 45.5,-149.2 45.5,-149.2 45.5,-132.2 45.5,-132.2"/>
<polygon fill="#000000" stroke="#000000" points="71.5,-132.2 71.5,-149.2 71.5,-149.2 71.5,-132.2 71.5,-132.2"/>
</a>
</g>
</g>
<!-- 与信残高&#45;&gt;取引先マスタ -->
<g id="edge1" class="edge">
<title>与信残高:w&#45;&gt;取引先マスタ:e</title>
<path fill="none" stroke="#000000" d="M147.7307,-224.2C133.248,-224.2 126.0937,-224.2 107.5,-224.2"/>
<polygon fill="#000000" stroke="#000000" points="157.7,-220.2 157.7,-228.2 156.1,-228.2 156.1,-220.2 157.7,-220.2"/>
<polyline fill="none" stroke="#000000" points="158.5,-224.2 154.5,-224.2 "/>
<ellipse fill="none" stroke="#000000" cx="151.3" cy="-224.2001" rx="3.2" ry="3.2"/>
</g>
</g>
</svg>
