<?xml version="1.0" encoding="UTF-8" standalone="no"?>
<!DOCTYPE svg PUBLIC "-//W3C//DTD SVG 1.1//EN"
 "http://www.w3.org/Graphics/SVG/1.1/DTD/svg11.dtd">
<!-- Generated by graphviz version 2.40.1 (20161225.0304)
 -->
<!-- Title: twoDegreesRelationshipsDiagramImplied Pages: 1 -->
<svg width="545pt" height="649pt"
 viewBox="0.00 0.00 545.00 649.13" xmlns="http://www.w3.org/2000/svg" xmlns:xlink="http://www.w3.org/1999/xlink">
<g id="graph0" class="graph" transform="scale(1 1) rotate(0) translate(4 645.1336)">
<title>twoDegreesRelationshipsDiagramImplied</title>
<polygon fill="#ffffff" stroke="transparent" points="-4,4 -4,-645.1336 541,-645.1336 541,4 -4,4"/>
<text text-anchor="middle" x="72.4936" y="-7.3" font-family="Helvetica,sans-Serif" font-size="11.00" fill="#000000">Generated by SchemaSpy</text>
<!-- 受注 -->
<g id="node1" class="node">
<title>受注</title>
<g id="a_node1"><a xlink:href="../../tables/___a93f1.html" xlink:title="受注" target="_top">
<polygon fill="#ffffff" stroke="transparent" points="337.5,-120.2 337.5,-357.2 404.5,-357.2 404.5,-120.2 337.5,-120.2"/>
<polygon fill="#f5f5f5" stroke="transparent" points="338,-333.7 338,-356.7 405,-356.7 405,-333.7 338,-333.7"/>
<polygon fill="none" stroke="#000000" points="338,-333.7 338,-356.7 405,-356.7 405,-333.7 338,-333.7"/>
<text text-anchor="start" x="336.2713" y="-342.3" font-family="Helvetica,sans-Serif" font-weight="bold" font-size="11.00" fill="#000000">受注</text>
<text text-anchor="start" x="370.0437" y="-341.8" font-family="Helvetica,sans-Serif" font-size="11.00" fill="#000000">[table]</text>
<polygon fill="none" stroke="#000000" points="338,-311.7 338,-333.7 405,-333.7 405,-311.7 338,-311.7"/>
<image xlink:href="../../images/primaryKeys.png" width="11px" height="12px" preserveAspectRatio="xMinYMin meet" x="343" y="-328.7"/>
<text text-anchor="start" x="356.9021" y="-318.8" font-family="Helvetica,sans-Serif" font-size="11.00" fill="#000000">受注番号</text>
<polygon fill="#ffffff" stroke="transparent" points="338,-289.7 338,-311.7 405,-311.7 405,-289.7 338,-289.7"/>
<polygon fill="none" stroke="#000000" points="338,-289.7 338,-311.7 405,-311.7 405,-289.7 338,-289.7"/>
<text text-anchor="start" x="358" y="-296.8" font-family="Helvetica,sans-Serif" font-size="11.00" fill="#000000">受注日</text>
<polygon fill="none" stroke="#000000" points="338,-267.7 338,-289.7 405,-289.7 405,-267.7 338,-267.7"/>
<image xlink:href="../../images/foreignKeys.png" width="11px" height="12px" preserveAspectRatio="xMinYMin meet" x="343" y="-284.7"/>
<text text-anchor="start" x="342.0257" y="-274.8" font-family="Helvetica,sans-Serif" font-size="11.00" fill="#000000">部門コード</text>
<polygon fill="none" stroke="#000000" points="338,-245.7 338,-267.7 405,-267.7 405,-245.7 338,-245.7"/>
<image xlink:href="../../images/foreignKeys.png" width="11px" height="12px" preserveAspectRatio="xMinYMin meet" x="343" y="-262.7"/>
<text text-anchor="start" x="358" y="-252.8" font-family="Helvetica,sans-Serif" font-size="11.00" fill="#000000">開始日</text>
<polygon fill="#ffffff" stroke="transparent" points="338,-223.7 338,-245.7 405,-245.7 405,-223.7 338,-223.7"/>
<polygon fill="none" stroke="#000000" points="338,-223.7 338,-245.7 405,-245.7 405,-223.7 338,-223.7"/>
<image xlink:href="../../images/foreignKeys.png" width="11px" height="12px" preserveAspectRatio="xMinYMin meet" x="343" y="-240.7"/>
<text text-anchor="start" x="341.7227" y="-230.8" font-family="Helvetica,sans-Serif" font-size="11.00" fill="#000000">顧客コード</text>
<polygon fill="#ffffff" stroke="transparent" points="338,-201.7 338,-223.7 405,-223.7 405,-201.7 338,-201.7"/>
<polygon fill="none" stroke="#000000" points="338,-201.7 338,-223.7 405,-223.7 405,-201.7 338,-201.7"/>
<image xlink:href="../../images/foreignKeys.png" width="11px" height="12px" preserveAspectRatio="xMinYMin meet" x="343" y="-218.7"/>
<text text-anchor="start" x="353.0241" y="-208.8" font-family="Helvetica,sans-Serif" font-size="11.00" fill="#000000">顧客枝番</text>
<polygon fill="#ffffff" stroke="transparent" points="338,-179.7 338,-201.7 405,-201.7 405,-179.7 338,-179.7"/>
<polygon fill="none" stroke="#000000" points="338,-179.7 338,-201.7 405,-201.7 405,-179.7 338,-179.7"/>
<image xlink:href="../../images/foreignKeys.png" width="11px" height="12px" preserveAspectRatio="xMinYMin meet" x="343" y="-196.7"/>
<text text-anchor="start" x="349.3627" y="-186.8" font-family="Helvetica,sans-Serif" font-size="11.00" fill="#000000">社員コード</text>
<polygon fill="none" stroke="#000000" points="338,-157.7 338,-179.7 405,-179.7 405,-157.7 338,-157.7"/>
<image xlink:href="../../images/foreignKeys.png" width="11px" height="12px" preserveAspectRatio="xMinYMin meet" x="343" y="-174.7"/>
<text text-anchor="start" x="347.2232" y="-164.8" font-family="Helvetica,sans-Serif" font-size="11.00" fill="#000000">倉庫コード</text>
<polygon fill="none" stroke="#000000" points="338,-138.7 338,-157.7 405,-157.7 405,-138.7 338,-138.7"/>
<text text-anchor="start" x="341" y="-144.8" font-family="Helvetica,sans-Serif" font-size="11.00" fill="#000000">...</text>
<polygon fill="#ffffff" stroke="transparent" points="338,-119.7 338,-138.7 405,-138.7 405,-119.7 338,-119.7"/>
<polygon fill="none" stroke="#000000" points="338,-119.7 338,-138.7 405,-138.7 405,-119.7 338,-119.7"/>
<polygon fill="#ffffff" stroke="transparent" points="339,-120.7 339,-137.7 364,-137.7 364,-120.7 339,-120.7"/>
<text text-anchor="start" x="341" y="-125.8" font-family="Helvetica,sans-Serif" font-size="11.00" fill="#000000">&lt; 6</text>
<polygon fill="#ffffff" stroke="transparent" points="364,-120.7 364,-137.7 380,-137.7 380,-120.7 364,-120.7"/>
<text text-anchor="start" x="368.9431" y="-125.8" font-family="Helvetica,sans-Serif" font-size="11.00" fill="#000000"> &#160;</text>
<polygon fill="#ffffff" stroke="transparent" points="380,-120.7 380,-137.7 404,-137.7 404,-120.7 380,-120.7"/>
<text text-anchor="start" x="386.4053" y="-125.8" font-family="Helvetica,sans-Serif" font-size="11.00" fill="#000000">2 &gt;</text>
<polygon fill="#000000" stroke="#000000" points="364,-120.7 364,-137.7 364,-137.7 364,-120.7 364,-120.7"/>
<polygon fill="#000000" stroke="#000000" points="380,-120.7 380,-137.7 380,-137.7 380,-120.7 380,-120.7"/>
</a>
</g>
</g>
<!-- 倉庫マスタ -->
<g id="node2" class="node">
<title>倉庫マスタ</title>
<g id="a_node2"><a xlink:href="../../tables/______939d4982.html" xlink:title="倉庫マスタ" target="_top">
<polygon fill="#ffffff" stroke="transparent" points="135,-260.7 135,-570.7 283,-570.7 283,-260.7 135,-260.7"/>
<polygon fill="#f5f5f5" stroke="transparent" points="137,-545.7 137,-568.7 281,-568.7 281,-545.7 137,-545.7"/>
<polygon fill="none" stroke="#000000" points="137,-545.7 137,-568.7 281,-568.7 281,-545.7 137,-545.7"/>
<text text-anchor="start" x="131.0898" y="-554.3" font-family="Helvetica,sans-Serif" font-weight="bold" font-size="11.00" fill="#000000">倉庫マスタ</text>
<text text-anchor="start" x="246.0437" y="-553.8" font-family="Helvetica,sans-Serif" font-size="11.00" fill="#000000">[table]</text>
<polygon fill="none" stroke="#000000" points="137,-523.7 137,-545.7 197,-545.7 197,-523.7 137,-523.7"/>
<image xlink:href="../../images/primaryKeys.png" width="11px" height="12px" preserveAspectRatio="xMinYMin meet" x="142" y="-540.7"/>
<text text-anchor="start" x="142.7232" y="-530.8" font-family="Helvetica,sans-Serif" font-size="11.00" fill="#000000">倉庫コード</text>
<polygon fill="none" stroke="#000000" points="197,-523.7 197,-545.7 281,-545.7 281,-523.7 197,-523.7"/>
<text text-anchor="start" x="200" y="-531.4" font-family="Helvetica,sans-Serif" font-size="11.00" fill="#000000">varchar[3]</text>
<polygon fill="#ffffff" stroke="transparent" points="137,-501.7 137,-523.7 197,-523.7 197,-501.7 137,-501.7"/>
<polygon fill="none" stroke="#000000" points="137,-501.7 137,-523.7 197,-523.7 197,-501.7 137,-501.7"/>
<text text-anchor="start" x="157" y="-508.8" font-family="Helvetica,sans-Serif" font-size="11.00" fill="#000000">倉庫名</text>
<polygon fill="none" stroke="#000000" points="197,-501.7 197,-523.7 281,-523.7 281,-501.7 197,-501.7"/>
<text text-anchor="start" x="200" y="-509.4" font-family="Helvetica,sans-Serif" font-size="11.00" fill="#000000">varchar[40]</text>
<polygon fill="none" stroke="#000000" points="137,-479.7 137,-501.7 197,-501.7 197,-479.7 137,-479.7"/>
<text text-anchor="start" x="150.8786" y="-486.8" font-family="Helvetica,sans-Serif" font-size="11.00" fill="#000000">郵便番号</text>
<polygon fill="none" stroke="#000000" points="197,-479.7 197,-501.7 281,-501.7 281,-479.7 197,-479.7"/>
<text text-anchor="start" x="200" y="-487.4" font-family="Helvetica,sans-Serif" font-size="11.00" fill="#000000">varchar[8]</text>
<polygon fill="none" stroke="#000000" points="137,-457.7 137,-479.7 197,-479.7 197,-457.7 137,-457.7"/>
<text text-anchor="start" x="146.3846" y="-464.8" font-family="Helvetica,sans-Serif" font-size="11.00" fill="#000000">都道府県</text>
<polygon fill="none" stroke="#000000" points="197,-457.7 197,-479.7 281,-479.7 281,-457.7 197,-457.7"/>
<text text-anchor="start" x="200" y="-465.4" font-family="Helvetica,sans-Serif" font-size="11.00" fill="#000000">varchar[4]</text>
<polygon fill="none" stroke="#000000" points="137,-435.7 137,-457.7 197,-457.7 197,-435.7 137,-435.7"/>
<text text-anchor="start" x="152.8009" y="-442.8" font-family="Helvetica,sans-Serif" font-size="11.00" fill="#000000">住所１</text>
<polygon fill="none" stroke="#000000" points="197,-435.7 197,-457.7 281,-457.7 281,-435.7 197,-435.7"/>
<text text-anchor="start" x="200" y="-443.4" font-family="Helvetica,sans-Serif" font-size="11.00" fill="#000000">varchar[40]</text>
<polygon fill="none" stroke="#000000" points="137,-413.7 137,-435.7 197,-435.7 197,-413.7 137,-413.7"/>
<text text-anchor="start" x="152.8009" y="-420.8" font-family="Helvetica,sans-Serif" font-size="11.00" fill="#000000">住所２</text>
<polygon fill="none" stroke="#000000" points="197,-413.7 197,-435.7 281,-435.7 281,-413.7 197,-413.7"/>
<text text-anchor="start" x="200" y="-421.4" font-family="Helvetica,sans-Serif" font-size="11.00" fill="#000000">varchar[40]</text>
<polygon fill="none" stroke="#000000" points="137,-391.7 137,-413.7 197,-413.7 197,-391.7 137,-391.7"/>
<text text-anchor="start" x="148.6016" y="-398.8" font-family="Helvetica,sans-Serif" font-size="11.00" fill="#000000">電話番号</text>
<polygon fill="none" stroke="#000000" points="197,-391.7 197,-413.7 281,-413.7 281,-391.7 197,-391.7"/>
<text text-anchor="start" x="200" y="-399.4" font-family="Helvetica,sans-Serif" font-size="11.00" fill="#000000">varchar[15]</text>
<polygon fill="none" stroke="#000000" points="137,-369.7 137,-391.7 197,-391.7 197,-369.7 137,-369.7"/>
<text text-anchor="start" x="157" y="-376.8" font-family="Helvetica,sans-Serif" font-size="11.00" fill="#000000">fax番号</text>
<polygon fill="none" stroke="#000000" points="197,-369.7 197,-391.7 281,-391.7 281,-369.7 197,-369.7"/>
<text text-anchor="start" x="200" y="-377.4" font-family="Helvetica,sans-Serif" font-size="11.00" fill="#000000">varchar[15]</text>
<polygon fill="none" stroke="#000000" points="137,-347.7 137,-369.7 197,-369.7 197,-347.7 137,-347.7"/>
<text text-anchor="start" x="150.6581" y="-354.8" font-family="Helvetica,sans-Serif" font-size="11.00" fill="#000000">作成日時</text>
<polygon fill="none" stroke="#000000" points="197,-347.7 197,-369.7 281,-369.7 281,-347.7 197,-347.7"/>
<text text-anchor="start" x="199.8807" y="-355.4" font-family="Helvetica,sans-Serif" font-size="11.00" fill="#000000">timestamp[29,6]</text>
<polygon fill="none" stroke="#000000" points="137,-325.7 137,-347.7 197,-347.7 197,-325.7 137,-325.7"/>
<text text-anchor="start" x="150.6581" y="-332.8" font-family="Helvetica,sans-Serif" font-size="11.00" fill="#000000">作成者名</text>
<polygon fill="none" stroke="#000000" points="197,-325.7 197,-347.7 281,-347.7 281,-325.7 197,-325.7"/>
<text text-anchor="start" x="200" y="-333.4" font-family="Helvetica,sans-Serif" font-size="11.00" fill="#000000">varchar[12]</text>
<polygon fill="none" stroke="#000000" points="137,-303.7 137,-325.7 197,-325.7 197,-303.7 137,-303.7"/>
<text text-anchor="start" x="154.6296" y="-310.8" font-family="Helvetica,sans-Serif" font-size="11.00" fill="#000000">更新日時</text>
<polygon fill="none" stroke="#000000" points="197,-303.7 197,-325.7 281,-325.7 281,-303.7 197,-303.7"/>
<text text-anchor="start" x="199.8807" y="-311.4" font-family="Helvetica,sans-Serif" font-size="11.00" fill="#000000">timestamp[29,6]</text>
<polygon fill="none" stroke="#000000" points="137,-281.7 137,-303.7 197,-303.7 197,-281.7 137,-281.7"/>
<text text-anchor="start" x="154.6296" y="-288.8" font-family="Helvetica,sans-Serif" font-size="11.00" fill="#000000">更新者名</text>
<polygon fill="none" stroke="#000000" points="197,-281.7 197,-303.7 281,-303.7 281,-281.7 197,-281.7"/>
<text text-anchor="start" x="200" y="-289.4" font-family="Helvetica,sans-Serif" font-size="11.00" fill="#000000">varchar[12]</text>
<polygon fill="#ffffff" stroke="transparent" points="137,-262.7 137,-281.7 281,-281.7 281,-262.7 137,-262.7"/>
<polygon fill="none" stroke="#000000" points="137,-262.7 137,-281.7 281,-281.7 281,-262.7 137,-262.7"/>
<polygon fill="#ffffff" stroke="transparent" points="138,-263.7 138,-280.7 189,-280.7 189,-263.7 138,-263.7"/>
<text text-anchor="start" x="140" y="-268.8" font-family="Helvetica,sans-Serif" font-size="11.00" fill="#000000">&lt; 0</text>
<polygon fill="#ffffff" stroke="transparent" points="189,-263.7 189,-280.7 230,-280.7 230,-263.7 189,-263.7"/>
<text text-anchor="start" x="206.4431" y="-268.8" font-family="Helvetica,sans-Serif" font-size="11.00" fill="#000000"> &#160;</text>
<polygon fill="#ffffff" stroke="transparent" points="230,-263.7 230,-280.7 280,-280.7 280,-263.7 230,-263.7"/>
<text text-anchor="start" x="262.4053" y="-268.8" font-family="Helvetica,sans-Serif" font-size="11.00" fill="#000000">2 &gt;</text>
<polygon fill="#000000" stroke="#000000" points="189,-263.7 189,-280.7 189,-280.7 189,-263.7 189,-263.7"/>
<polygon fill="#000000" stroke="#000000" points="230,-263.7 230,-280.7 230,-280.7 230,-263.7 230,-263.7"/>
<polygon fill="none" stroke="#000000" stroke-width="2" points="136,-261.7 136,-569.7 282,-569.7 282,-261.7 136,-261.7"/>
</a>
</g>
</g>
<!-- 受注&#45;&gt;倉庫マスタ -->
<g id="edge1" class="edge">
<title>受注:w&#45;&gt;倉庫マスタ:e</title>
<path fill="none" stroke="#000000" stroke-dasharray="5,2" d="M324.0031,-173.3276C269.1429,-215.6954 357.8476,-534.7 281,-534.7"/>
<polygon fill="#000000" stroke="#000000" points="330.4044,-171.2113 339.1301,-172.118 334.2022,-169.9556 338,-168.7 338,-168.7 338,-168.7 334.2022,-169.9556 336.8699,-165.282 330.4044,-171.2113 330.4044,-171.2113"/>
<ellipse fill="none" stroke="#000000" cx="327.3661" cy="-172.2158" rx="3.2" ry="3.2"/>
</g>
<!-- 社員マスタ -->
<g id="node3" class="node">
<title>社員マスタ</title>
<g id="a_node3"><a xlink:href="../../tables/______d3d8a641.html" xlink:title="社員マスタ" target="_top">
<polygon fill="#ffffff" stroke="transparent" points="170,-96.2 170,-157.2 248,-157.2 248,-96.2 170,-96.2"/>
<polygon fill="#f5f5f5" stroke="transparent" points="170,-133.7 170,-156.7 248,-156.7 248,-133.7 170,-133.7"/>
<polygon fill="none" stroke="#000000" points="170,-133.7 170,-156.7 248,-156.7 248,-133.7 170,-133.7"/>
<text text-anchor="start" x="166.2293" y="-142.3" font-family="Helvetica,sans-Serif" font-weight="bold" font-size="11.00" fill="#000000">社員マスタ</text>
<text text-anchor="start" x="213.5219" y="-141.8" font-family="Helvetica,sans-Serif" font-size="11.00" fill="#000000">[table]</text>
<polygon fill="none" stroke="#000000" points="170,-114.7 170,-133.7 248,-133.7 248,-114.7 170,-114.7"/>
<text text-anchor="start" x="173" y="-120.8" font-family="Helvetica,sans-Serif" font-size="11.00" fill="#000000">...</text>
<polygon fill="#ffffff" stroke="transparent" points="170,-95.7 170,-114.7 248,-114.7 248,-95.7 170,-95.7"/>
<polygon fill="none" stroke="#000000" points="170,-95.7 170,-114.7 248,-114.7 248,-95.7 170,-95.7"/>
<polygon fill="#ffffff" stroke="transparent" points="171,-96.7 171,-113.7 200,-113.7 200,-96.7 171,-96.7"/>
<text text-anchor="start" x="173" y="-101.8" font-family="Helvetica,sans-Serif" font-size="11.00" fill="#000000">&lt; 1</text>
<polygon fill="#ffffff" stroke="transparent" points="200,-96.7 200,-113.7 219,-113.7 219,-96.7 200,-96.7"/>
<text text-anchor="start" x="206.4431" y="-101.8" font-family="Helvetica,sans-Serif" font-size="11.00" fill="#000000"> &#160;</text>
<polygon fill="#ffffff" stroke="transparent" points="219,-96.7 219,-113.7 247,-113.7 247,-96.7 219,-96.7"/>
<text text-anchor="start" x="229.4053" y="-101.8" font-family="Helvetica,sans-Serif" font-size="11.00" fill="#000000">1 &gt;</text>
<polygon fill="#000000" stroke="#000000" points="200,-96.7 200,-113.7 200,-113.7 200,-96.7 200,-96.7"/>
<polygon fill="#000000" stroke="#000000" points="219,-96.7 219,-113.7 219,-113.7 219,-96.7 219,-96.7"/>
</a>
</g>
</g>
<!-- 受注&#45;&gt;社員マスタ -->
<g id="edge2" class="edge">
<title>受注:w&#45;&gt;社員マスタ:e</title>
<path fill="none" stroke="#000000" d="M323.6204,-188.4708C289.5493,-176.8453 292.4128,-123.7 248,-123.7"/>
<polygon fill="#000000" stroke="#000000" points="330.0944,-189.4744 337.4485,-194.2575 334.0472,-190.0872 338,-190.7 338,-190.7 338,-190.7 334.0472,-190.0872 338.5515,-187.1425 330.0944,-189.4744 330.0944,-189.4744"/>
<ellipse fill="none" stroke="#000000" cx="326.9322" cy="-188.9841" rx="3.2" ry="3.2"/>
</g>
<!-- 部門マスタ -->
<g id="node4" class="node">
<title>部門マスタ</title>
<g id="a_node4"><a xlink:href="../../tables/______3eb0dfec.html" xlink:title="部門マスタ" target="_top">
<polygon fill="#ffffff" stroke="transparent" points="8,-96.2 8,-157.2 86,-157.2 86,-96.2 8,-96.2"/>
<polygon fill="#f5f5f5" stroke="transparent" points="8,-133.7 8,-156.7 86,-156.7 86,-133.7 8,-133.7"/>
<polygon fill="none" stroke="#000000" points="8,-133.7 8,-156.7 86,-156.7 86,-133.7 8,-133.7"/>
<text text-anchor="start" x="-3.1077" y="-142.3" font-family="Helvetica,sans-Serif" font-weight="bold" font-size="11.00" fill="#000000">部門マスタ</text>
<text text-anchor="start" x="51.5219" y="-141.8" font-family="Helvetica,sans-Serif" font-size="11.00" fill="#000000">[table]</text>
<polygon fill="none" stroke="#000000" points="8,-114.7 8,-133.7 86,-133.7 86,-114.7 8,-114.7"/>
<text text-anchor="start" x="11" y="-120.8" font-family="Helvetica,sans-Serif" font-size="11.00" fill="#000000">...</text>
<polygon fill="#ffffff" stroke="transparent" points="8,-95.7 8,-114.7 86,-114.7 86,-95.7 8,-95.7"/>
<polygon fill="none" stroke="#000000" points="8,-95.7 8,-114.7 86,-114.7 86,-95.7 8,-95.7"/>
<polygon fill="#ffffff" stroke="transparent" points="9,-96.7 9,-113.7 32,-113.7 32,-96.7 9,-96.7"/>
<text text-anchor="start" x="11" y="-101.8" font-family="Helvetica,sans-Serif" font-size="11.00" fill="#000000"> &#160;</text>
<polygon fill="#ffffff" stroke="transparent" points="32,-96.7 32,-113.7 54,-113.7 54,-96.7 32,-96.7"/>
<text text-anchor="start" x="39.9431" y="-101.8" font-family="Helvetica,sans-Serif" font-size="11.00" fill="#000000"> &#160;</text>
<polygon fill="#ffffff" stroke="transparent" points="54,-96.7 54,-113.7 85,-113.7 85,-96.7 54,-96.7"/>
<text text-anchor="start" x="67.4053" y="-101.8" font-family="Helvetica,sans-Serif" font-size="11.00" fill="#000000">5 &gt;</text>
<polygon fill="#000000" stroke="#000000" points="32,-96.7 32,-113.7 32,-113.7 32,-96.7 32,-96.7"/>
<polygon fill="#000000" stroke="#000000" points="54,-96.7 54,-113.7 54,-113.7 54,-96.7 54,-96.7"/>
</a>
</g>
</g>
<!-- 受注&#45;&gt;部門マスタ -->
<g id="edge3" class="edge">
<title>受注:w&#45;&gt;部門マスタ:e</title>
<path fill="none" stroke="#000000" d="M324.1405,-283.0876C276.1532,-318.7096 342.219,-560.3358 291,-604.7 235.9051,-652.4215 180.6843,-654.003 127,-604.7 87.4942,-568.4184 139.6382,-123.7 86,-123.7"/>
<polygon fill="#000000" stroke="#000000" points="330.3731,-281.1145 339.0865,-282.1321 334.1865,-279.9073 338,-278.7 338,-278.7 338,-278.7 334.1865,-279.9073 336.9135,-275.2679 330.3731,-281.1145 330.3731,-281.1145"/>
<ellipse fill="none" stroke="#000000" cx="327.3223" cy="-282.0803" rx="3.2" ry="3.2"/>
</g>
<!-- 受注&#45;&gt;部門マスタ -->
<g id="edge4" class="edge">
<title>受注:w&#45;&gt;部門マスタ:e</title>
<path fill="none" stroke="#000000" d="M324.1801,-261.0742C276.3202,-296.5881 342.0747,-537.4802 291,-581.7 263.4473,-605.5547 153.8945,-606.2944 127,-581.7 51.592,-512.7409 188.1848,-123.7 86,-123.7"/>
<polygon fill="#000000" stroke="#000000" points="330.3729,-259.1141 339.0864,-260.1322 334.1865,-257.9071 338,-256.7 338,-256.7 338,-256.7 334.1865,-257.9071 336.9136,-253.2678 330.3729,-259.1141 330.3729,-259.1141"/>
<ellipse fill="none" stroke="#000000" cx="327.3221" cy="-260.0798" rx="3.2" ry="3.2"/>
</g>
<!-- 顧客マスタ -->
<g id="node5" class="node">
<title>顧客マスタ</title>
<g id="a_node5"><a xlink:href="../../tables/______8e04fe89.html" xlink:title="顧客マスタ" target="_top">
<polygon fill="#ffffff" stroke="transparent" points="170,-178.2 170,-239.2 248,-239.2 248,-178.2 170,-178.2"/>
<polygon fill="#f5f5f5" stroke="transparent" points="170,-215.7 170,-238.7 248,-238.7 248,-215.7 170,-215.7"/>
<polygon fill="none" stroke="#000000" points="170,-215.7 170,-238.7 248,-238.7 248,-215.7 170,-215.7"/>
<text text-anchor="start" x="158.5892" y="-224.3" font-family="Helvetica,sans-Serif" font-weight="bold" font-size="11.00" fill="#000000">顧客マスタ</text>
<text text-anchor="start" x="213.5219" y="-223.8" font-family="Helvetica,sans-Serif" font-size="11.00" fill="#000000">[table]</text>
<polygon fill="none" stroke="#000000" points="170,-196.7 170,-215.7 248,-215.7 248,-196.7 170,-196.7"/>
<text text-anchor="start" x="173" y="-202.8" font-family="Helvetica,sans-Serif" font-size="11.00" fill="#000000">...</text>
<polygon fill="#ffffff" stroke="transparent" points="170,-177.7 170,-196.7 248,-196.7 248,-177.7 170,-177.7"/>
<polygon fill="none" stroke="#000000" points="170,-177.7 170,-196.7 248,-196.7 248,-177.7 170,-177.7"/>
<polygon fill="#ffffff" stroke="transparent" points="171,-178.7 171,-195.7 200,-195.7 200,-178.7 171,-178.7"/>
<text text-anchor="start" x="173" y="-183.8" font-family="Helvetica,sans-Serif" font-size="11.00" fill="#000000">&lt; 1</text>
<polygon fill="#ffffff" stroke="transparent" points="200,-178.7 200,-195.7 219,-195.7 219,-178.7 200,-178.7"/>
<text text-anchor="start" x="206.4431" y="-183.8" font-family="Helvetica,sans-Serif" font-size="11.00" fill="#000000"> &#160;</text>
<polygon fill="#ffffff" stroke="transparent" points="219,-178.7 219,-195.7 247,-195.7 247,-178.7 219,-178.7"/>
<text text-anchor="start" x="229.4053" y="-183.8" font-family="Helvetica,sans-Serif" font-size="11.00" fill="#000000">2 &gt;</text>
<polygon fill="#000000" stroke="#000000" points="200,-178.7 200,-195.7 200,-195.7 200,-178.7 200,-178.7"/>
<polygon fill="#000000" stroke="#000000" points="219,-178.7 219,-195.7 219,-195.7 219,-178.7 219,-178.7"/>
</a>
</g>
</g>
<!-- 受注&#45;&gt;顧客マスタ -->
<g id="edge5" class="edge">
<title>受注:w&#45;&gt;顧客マスタ:e</title>
<path fill="none" stroke="#000000" d="M323.3919,-233.3786C293.8414,-227.7053 284.608,-205.7 248,-205.7"/>
<polygon fill="#000000" stroke="#000000" points="330.0325,-233.9792 337.6757,-238.2854 334.0163,-234.3396 338,-234.7 338,-234.7 338,-234.7 334.0163,-234.3396 338.3243,-231.1146 330.0325,-233.9792 330.0325,-233.9792"/>
<ellipse fill="none" stroke="#000000" cx="326.8455" cy="-233.6909" rx="3.2" ry="3.2"/>
</g>
<!-- 受注&#45;&gt;顧客マスタ -->
<g id="edge6" class="edge">
<title>受注:w&#45;&gt;顧客マスタ:e</title>
<path fill="none" stroke="#000000" d="M323.4788,-212.3624C294.7516,-210.9641 282.7923,-205.7 248,-205.7"/>
<polygon fill="#000000" stroke="#000000" points="330.0022,-212.514 337.9163,-216.299 334.0011,-212.607 338,-212.7 338,-212.7 338,-212.7 334.0011,-212.607 338.0837,-209.101 330.0022,-212.514 330.0022,-212.514"/>
<ellipse fill="none" stroke="#000000" cx="326.803" cy="-212.4396" rx="3.2" ry="3.2"/>
</g>
<!-- 社員マスタ&#45;&gt;部門マスタ -->
<g id="edge14" class="edge">
<title>社員マスタ:w&#45;&gt;部門マスタ:e</title>
<path fill="none" stroke="#000000" d="M155.3981,-123.7C129.3839,-123.7 117.9375,-123.7 86,-123.7"/>
<polygon fill="#000000" stroke="#000000" points="162,-123.7001 170,-127.3 166,-123.7 170,-123.7 170,-123.7 170,-123.7 166,-123.7 170,-120.1 162,-123.7001 162,-123.7001"/>
<ellipse fill="none" stroke="#000000" cx="158.8" cy="-123.7001" rx="3.2" ry="3.2"/>
</g>
<!-- 受注明細 -->
<g id="node6" class="node">
<title>受注明細</title>
<g id="a_node6"><a xlink:href="../../tables/_____27c23493.html" xlink:title="受注明細" target="_top">
<polygon fill="#ffffff" stroke="transparent" points="459,-298.2 459,-359.2 529,-359.2 529,-298.2 459,-298.2"/>
<polygon fill="#f5f5f5" stroke="transparent" points="459,-335.7 459,-358.7 529,-358.7 529,-335.7 459,-335.7"/>
<polygon fill="none" stroke="#000000" points="459,-335.7 459,-358.7 529,-358.7 529,-335.7 459,-335.7"/>
<text text-anchor="start" x="456.1006" y="-344.3" font-family="Helvetica,sans-Serif" font-weight="bold" font-size="11.00" fill="#000000">受注明細</text>
<text text-anchor="start" x="494.5219" y="-343.8" font-family="Helvetica,sans-Serif" font-size="11.00" fill="#000000">[table]</text>
<polygon fill="none" stroke="#000000" points="459,-316.7 459,-335.7 529,-335.7 529,-316.7 459,-316.7"/>
<text text-anchor="start" x="462" y="-322.8" font-family="Helvetica,sans-Serif" font-size="11.00" fill="#000000">...</text>
<polygon fill="#ffffff" stroke="transparent" points="459,-297.7 459,-316.7 529,-316.7 529,-297.7 459,-297.7"/>
<polygon fill="none" stroke="#000000" points="459,-297.7 459,-316.7 529,-316.7 529,-297.7 459,-297.7"/>
<polygon fill="#ffffff" stroke="transparent" points="460,-298.7 460,-315.7 489,-315.7 489,-298.7 460,-298.7"/>
<text text-anchor="start" x="462" y="-303.8" font-family="Helvetica,sans-Serif" font-size="11.00" fill="#000000">&lt; 2</text>
<polygon fill="#ffffff" stroke="transparent" points="489,-298.7 489,-315.7 509,-315.7 509,-298.7 489,-298.7"/>
<text text-anchor="start" x="495.9431" y="-303.8" font-family="Helvetica,sans-Serif" font-size="11.00" fill="#000000"> &#160;</text>
<polygon fill="#ffffff" stroke="transparent" points="509,-298.7 509,-315.7 528,-315.7 528,-298.7 509,-298.7"/>
<text text-anchor="start" x="519.8862" y="-303.8" font-family="Helvetica,sans-Serif" font-size="11.00" fill="#000000"> &#160;</text>
<polygon fill="#000000" stroke="#000000" points="489,-298.7 489,-315.7 489,-315.7 489,-298.7 489,-298.7"/>
<polygon fill="#000000" stroke="#000000" points="509,-298.7 509,-315.7 509,-315.7 509,-298.7 509,-298.7"/>
</a>
</g>
</g>
<!-- 受注明細&#45;&gt;受注 -->
<g id="edge7" class="edge">
<title>受注明細:w&#45;&gt;受注:e</title>
<path fill="none" stroke="#000000" d="M444.208,-325.2573C431.0303,-324.4228 423.2155,-322.7 405,-322.7"/>
<polygon fill="#000000" stroke="#000000" points="451.0036,-325.4607 458.8923,-329.2984 455.0018,-325.5803 459,-325.7 459,-325.7 459,-325.7 455.0018,-325.5803 459.1077,-322.1016 451.0036,-325.4607 451.0036,-325.4607"/>
<ellipse fill="none" stroke="#000000" cx="447.805" cy="-325.3649" rx="3.2" ry="3.2"/>
</g>
<!-- 商品マスタ -->
<g id="node7" class="node">
<title>商品マスタ</title>
<g id="a_node7"><a xlink:href="../../tables/______d8ecb269.html" xlink:title="商品マスタ" target="_top">
<polygon fill="#ffffff" stroke="transparent" points="332,-415.2 332,-476.2 410,-476.2 410,-415.2 332,-415.2"/>
<polygon fill="#f5f5f5" stroke="transparent" points="332,-452.7 332,-475.7 410,-475.7 410,-452.7 332,-452.7"/>
<polygon fill="none" stroke="#000000" points="332,-452.7 332,-475.7 410,-475.7 410,-452.7 332,-452.7"/>
<text text-anchor="start" x="327.9213" y="-461.3" font-family="Helvetica,sans-Serif" font-weight="bold" font-size="11.00" fill="#000000">商品マスタ</text>
<text text-anchor="start" x="375.5219" y="-460.8" font-family="Helvetica,sans-Serif" font-size="11.00" fill="#000000">[table]</text>
<polygon fill="none" stroke="#000000" points="332,-433.7 332,-452.7 410,-452.7 410,-433.7 332,-433.7"/>
<text text-anchor="start" x="335" y="-439.8" font-family="Helvetica,sans-Serif" font-size="11.00" fill="#000000">...</text>
<polygon fill="#ffffff" stroke="transparent" points="332,-414.7 332,-433.7 410,-433.7 410,-414.7 332,-414.7"/>
<polygon fill="none" stroke="#000000" points="332,-414.7 332,-433.7 410,-433.7 410,-414.7 332,-414.7"/>
<polygon fill="#ffffff" stroke="transparent" points="333,-415.7 333,-432.7 362,-432.7 362,-415.7 333,-415.7"/>
<text text-anchor="start" x="335" y="-420.8" font-family="Helvetica,sans-Serif" font-size="11.00" fill="#000000">&lt; 1</text>
<polygon fill="#ffffff" stroke="transparent" points="362,-415.7 362,-432.7 381,-432.7 381,-415.7 362,-415.7"/>
<text text-anchor="start" x="368.4431" y="-420.8" font-family="Helvetica,sans-Serif" font-size="11.00" fill="#000000"> &#160;</text>
<polygon fill="#ffffff" stroke="transparent" points="381,-415.7 381,-432.7 409,-432.7 409,-415.7 381,-415.7"/>
<text text-anchor="start" x="391.4053" y="-420.8" font-family="Helvetica,sans-Serif" font-size="11.00" fill="#000000">6 &gt;</text>
<polygon fill="#000000" stroke="#000000" points="362,-415.7 362,-432.7 362,-432.7 362,-415.7 362,-415.7"/>
<polygon fill="#000000" stroke="#000000" points="381,-415.7 381,-432.7 381,-432.7 381,-415.7 381,-415.7"/>
</a>
</g>
</g>
<!-- 受注明細&#45;&gt;商品マスタ -->
<g id="edge8" class="edge">
<title>受注明細:w&#45;&gt;商品マスタ:e</title>
<path fill="none" stroke="#000000" d="M444.8892,-329.3299C414.7353,-349.0782 460.4302,-442.7 410,-442.7"/>
<polygon fill="#000000" stroke="#000000" points="451.2522,-327.6931 459.8969,-329.1865 455.1261,-326.6965 459,-325.7 459,-325.7 459,-325.7 455.1261,-326.6965 458.1031,-322.2135 451.2522,-327.6931 451.2522,-327.6931"/>
<ellipse fill="none" stroke="#000000" cx="448.1531" cy="-328.4903" rx="3.2" ry="3.2"/>
</g>
<!-- 在庫 -->
<g id="node8" class="node">
<title>在庫</title>
<g id="a_node8"><a xlink:href="../../tables/___aec83.html" xlink:title="在庫" target="_top">
<polygon fill="#ffffff" stroke="transparent" points="464,-394.2 464,-565.2 524,-565.2 524,-394.2 464,-394.2"/>
<polygon fill="#f5f5f5" stroke="transparent" points="464,-541.7 464,-564.7 524,-564.7 524,-541.7 464,-541.7"/>
<polygon fill="none" stroke="#000000" points="464,-541.7 464,-564.7 524,-564.7 524,-541.7 464,-541.7"/>
<text text-anchor="start" x="461.9688" y="-550.3" font-family="Helvetica,sans-Serif" font-weight="bold" font-size="11.00" fill="#000000">在庫</text>
<text text-anchor="start" x="489.0437" y="-549.8" font-family="Helvetica,sans-Serif" font-size="11.00" fill="#000000">[table]</text>
<polygon fill="none" stroke="#000000" points="464,-519.7 464,-541.7 524,-541.7 524,-519.7 464,-519.7"/>
<image xlink:href="../../images/primaryKeys.png" width="11px" height="12px" preserveAspectRatio="xMinYMin meet" x="469" y="-536.7"/>
<text text-anchor="start" x="469.7232" y="-526.8" font-family="Helvetica,sans-Serif" font-size="11.00" fill="#000000">倉庫コード</text>
<polygon fill="none" stroke="#000000" points="464,-497.7 464,-519.7 524,-519.7 524,-497.7 464,-497.7"/>
<image xlink:href="../../images/primaryKeys.png" width="11px" height="12px" preserveAspectRatio="xMinYMin meet" x="469" y="-514.7"/>
<text text-anchor="start" x="471.5547" y="-504.8" font-family="Helvetica,sans-Serif" font-size="11.00" fill="#000000">商品コード</text>
<polygon fill="none" stroke="#000000" points="464,-475.7 464,-497.7 524,-497.7 524,-475.7 464,-475.7"/>
<image xlink:href="../../images/primaryKeys.png" width="11px" height="12px" preserveAspectRatio="xMinYMin meet" x="469" y="-492.7"/>
<text text-anchor="start" x="476.0543" y="-482.8" font-family="Helvetica,sans-Serif" font-size="11.00" fill="#000000">ロット番号</text>
<polygon fill="none" stroke="#000000" points="464,-453.7 464,-475.7 524,-475.7 524,-453.7 464,-453.7"/>
<image xlink:href="../../images/primaryKeys.png" width="11px" height="12px" preserveAspectRatio="xMinYMin meet" x="469" y="-470.7"/>
<text text-anchor="start" x="479.4956" y="-460.8" font-family="Helvetica,sans-Serif" font-size="11.00" fill="#000000">在庫区分</text>
<polygon fill="none" stroke="#000000" points="464,-431.7 464,-453.7 524,-453.7 524,-431.7 464,-431.7"/>
<image xlink:href="../../images/primaryKeys.png" width="11px" height="12px" preserveAspectRatio="xMinYMin meet" x="469" y="-448.7"/>
<text text-anchor="start" x="479.4956" y="-438.8" font-family="Helvetica,sans-Serif" font-size="11.00" fill="#000000">品質区分</text>
<polygon fill="none" stroke="#000000" points="464,-412.7 464,-431.7 524,-431.7 524,-412.7 464,-412.7"/>
<text text-anchor="start" x="467" y="-418.8" font-family="Helvetica,sans-Serif" font-size="11.00" fill="#000000">...</text>
<polygon fill="#ffffff" stroke="transparent" points="464,-393.7 464,-412.7 524,-412.7 524,-393.7 464,-393.7"/>
<polygon fill="none" stroke="#000000" points="464,-393.7 464,-412.7 524,-412.7 524,-393.7 464,-393.7"/>
<polygon fill="#ffffff" stroke="transparent" points="465,-394.7 465,-411.7 491,-411.7 491,-394.7 465,-394.7"/>
<text text-anchor="start" x="467" y="-399.8" font-family="Helvetica,sans-Serif" font-size="11.00" fill="#000000">&lt; 2</text>
<polygon fill="#ffffff" stroke="transparent" points="491,-394.7 491,-411.7 507,-411.7 507,-394.7 491,-394.7"/>
<text text-anchor="start" x="495.9431" y="-399.8" font-family="Helvetica,sans-Serif" font-size="11.00" fill="#000000"> &#160;</text>
<polygon fill="#ffffff" stroke="transparent" points="507,-394.7 507,-411.7 523,-411.7 523,-394.7 507,-394.7"/>
<text text-anchor="start" x="514.8862" y="-399.8" font-family="Helvetica,sans-Serif" font-size="11.00" fill="#000000"> &#160;</text>
<polygon fill="#000000" stroke="#000000" points="491,-394.7 491,-411.7 491,-411.7 491,-394.7 491,-394.7"/>
<polygon fill="#000000" stroke="#000000" points="507,-394.7 507,-411.7 507,-411.7 507,-394.7 507,-394.7"/>
</a>
</g>
</g>
<!-- 在庫&#45;&gt;倉庫マスタ -->
<g id="edge9" class="edge">
<title>在庫:w&#45;&gt;倉庫マスタ:e</title>
<path fill="none" stroke="#000000" d="M449.4321,-530.7449C379.8719,-531.1844 357.2682,-534.7 281,-534.7"/>
<polygon fill="#000000" stroke="#000000" points="456,-530.7247 464.0111,-534.3 460,-530.7124 464,-530.7 464,-530.7 464,-530.7 460,-530.7124 463.9889,-527.1 456,-530.7247 456,-530.7247"/>
<ellipse fill="none" stroke="#000000" cx="452.8001" cy="-530.7346" rx="3.2" ry="3.2"/>
</g>
<!-- 在庫&#45;&gt;商品マスタ -->
<g id="edge10" class="edge">
<title>在庫:w&#45;&gt;商品マスタ:e</title>
<path fill="none" stroke="#000000" d="M450.1513,-504.3696C431.4548,-489.6863 441.9785,-442.7 410,-442.7"/>
<polygon fill="#000000" stroke="#000000" points="456.3646,-506.3124 462.9256,-512.1359 460.1823,-507.5062 464,-508.7 464,-508.7 464,-508.7 460.1823,-507.5062 465.0744,-505.2641 456.3646,-506.3124 456.3646,-506.3124"/>
<ellipse fill="none" stroke="#000000" cx="453.3104" cy="-505.3573" rx="3.2" ry="3.2"/>
</g>
<!-- 売上 -->
<g id="node9" class="node">
<title>売上</title>
<g id="a_node9"><a xlink:href="../../tables/___b1358.html" xlink:title="売上" target="_top">
<polygon fill="#ffffff" stroke="transparent" points="467,-38.2 467,-99.2 521,-99.2 521,-38.2 467,-38.2"/>
<polygon fill="#f5f5f5" stroke="transparent" points="467,-75.7 467,-98.7 521,-98.7 521,-75.7 467,-75.7"/>
<polygon fill="none" stroke="#000000" points="467,-75.7 467,-98.7 521,-98.7 521,-75.7 467,-75.7"/>
<text text-anchor="start" x="465.5793" y="-84.3" font-family="Helvetica,sans-Serif" font-weight="bold" font-size="11.00" fill="#000000">売上</text>
<text text-anchor="start" x="486.5219" y="-83.8" font-family="Helvetica,sans-Serif" font-size="11.00" fill="#000000">[table]</text>
<polygon fill="none" stroke="#000000" points="467,-56.7 467,-75.7 521,-75.7 521,-56.7 467,-56.7"/>
<text text-anchor="start" x="470" y="-62.8" font-family="Helvetica,sans-Serif" font-size="11.00" fill="#000000">...</text>
<polygon fill="#ffffff" stroke="transparent" points="467,-37.7 467,-56.7 521,-56.7 521,-37.7 467,-37.7"/>
<polygon fill="none" stroke="#000000" points="467,-37.7 467,-56.7 521,-56.7 521,-37.7 467,-37.7"/>
<polygon fill="#ffffff" stroke="transparent" points="468,-38.7 468,-55.7 489,-55.7 489,-38.7 468,-38.7"/>
<text text-anchor="start" x="470" y="-43.8" font-family="Helvetica,sans-Serif" font-size="11.00" fill="#000000">&lt; 4</text>
<polygon fill="#ffffff" stroke="transparent" points="489,-38.7 489,-55.7 500,-55.7 500,-38.7 489,-38.7"/>
<text text-anchor="start" x="491.4431" y="-43.8" font-family="Helvetica,sans-Serif" font-size="11.00" fill="#000000"> &#160;</text>
<polygon fill="#ffffff" stroke="transparent" points="500,-38.7 500,-55.7 520,-55.7 520,-38.7 500,-38.7"/>
<text text-anchor="start" x="502.4053" y="-43.8" font-family="Helvetica,sans-Serif" font-size="11.00" fill="#000000">1 &gt;</text>
<polygon fill="#000000" stroke="#000000" points="489,-38.7 489,-55.7 489,-55.7 489,-38.7 489,-38.7"/>
<polygon fill="#000000" stroke="#000000" points="500,-38.7 500,-55.7 500,-55.7 500,-38.7 500,-38.7"/>
</a>
</g>
</g>
<!-- 売上&#45;&gt;受注 -->
<g id="edge11" class="edge">
<title>売上:w&#45;&gt;受注:e</title>
<path fill="none" stroke="#000000" d="M452.6007,-67.2745C364.7697,-88.7504 517.106,-322.7 405,-322.7"/>
<polygon fill="#000000" stroke="#000000" points="459.0474,-66.5697 467.3913,-69.2787 463.0237,-66.1348 467,-65.7 467,-65.7 467,-65.7 463.0237,-66.1348 466.6087,-62.1213 459.0474,-66.5697 459.0474,-66.5697"/>
<ellipse fill="none" stroke="#000000" cx="455.8664" cy="-66.9175" rx="3.2" ry="3.2"/>
</g>
<!-- 売上&#45;&gt;部門マスタ -->
<g id="edge12" class="edge">
<title>売上:w&#45;&gt;部門マスタ:e</title>
<path fill="none" stroke="#000000" d="M452.2522,-65.5748C312.249,-63.1939 261.6166,-28.2926 127,-85.7 104.1461,-95.446 110.8452,-123.7 86,-123.7"/>
<polygon fill="#000000" stroke="#000000" points="459.0003,-65.632 466.9694,-69.2999 463.0001,-65.666 467,-65.7 467,-65.7 467,-65.7 463.0001,-65.666 467.0306,-62.1001 459.0003,-65.632 459.0003,-65.632"/>
<ellipse fill="none" stroke="#000000" cx="455.8004" cy="-65.6049" rx="3.2" ry="3.2"/>
</g>
<!-- 売上&#45;&gt;部門マスタ -->
<g id="edge13" class="edge">
<title>売上:w&#45;&gt;部門マスタ:e</title>
<path fill="none" stroke="#000000" d="M452.2458,-65.5973C312.2291,-63.6472 262.9333,-35.1852 127,-89.7 105.0284,-98.5115 109.6727,-123.7 86,-123.7"/>
<polygon fill="#000000" stroke="#000000" points="459.0002,-65.6443 466.9749,-69.2999 463.0001,-65.6721 467,-65.7 467,-65.7 467,-65.7 463.0001,-65.6721 467.0251,-62.1001 459.0002,-65.6443 459.0002,-65.6443"/>
<ellipse fill="none" stroke="#000000" cx="455.8003" cy="-65.622" rx="3.2" ry="3.2"/>
</g>
</g>
</svg>
