<?xml version="1.0" encoding="UTF-8" standalone="no"?>
<!DOCTYPE svg PUBLIC "-//W3C//DTD SVG 1.1//EN"
 "http://www.w3.org/Graphics/SVG/1.1/DTD/svg11.dtd">
<!-- Generated by graphviz version 2.40.1 (20161225.0304)
 -->
<!-- Title: oneDegreeRelationshipsDiagram Pages: 1 -->
<svg width="281pt" height="360pt"
 viewBox="0.00 0.00 281.00 360.20" xmlns="http://www.w3.org/2000/svg" xmlns:xlink="http://www.w3.org/1999/xlink">
<g id="graph0" class="graph" transform="scale(1 1) rotate(0) translate(4 356.2)">
<title>oneDegreeRelationshipsDiagram</title>
<polygon fill="#ffffff" stroke="transparent" points="-4,4 -4,-356.2 277,-356.2 277,4 -4,4"/>
<text text-anchor="middle" x="72.4936" y="-7.3" font-family="Helvetica,sans-Serif" font-size="11.00" fill="#000000">Generated by SchemaSpy</text>
<!-- 在庫 -->
<g id="node1" class="node">
<title>在庫</title>
<g id="a_node1"><a xlink:href="../../tables/___aec83.html" xlink:title="在庫" target="_top">
<polygon fill="#ffffff" stroke="transparent" points="205,-175.7 205,-346.7 265,-346.7 265,-175.7 205,-175.7"/>
<polygon fill="#f5f5f5" stroke="transparent" points="205,-323.2 205,-346.2 265,-346.2 265,-323.2 205,-323.2"/>
<polygon fill="none" stroke="#000000" points="205,-323.2 205,-346.2 265,-346.2 265,-323.2 205,-323.2"/>
<text text-anchor="start" x="202.9688" y="-331.8" font-family="Helvetica,sans-Serif" font-weight="bold" font-size="11.00" fill="#000000">在庫</text>
<text text-anchor="start" x="230.0437" y="-331.3" font-family="Helvetica,sans-Serif" font-size="11.00" fill="#000000">[table]</text>
<polygon fill="none" stroke="#000000" points="205,-301.2 205,-323.2 265,-323.2 265,-301.2 205,-301.2"/>
<image xlink:href="../../images/primaryKeys.png" width="11px" height="12px" preserveAspectRatio="xMinYMin meet" x="210" y="-318.2"/>
<text text-anchor="start" x="210.7232" y="-308.3" font-family="Helvetica,sans-Serif" font-size="11.00" fill="#000000">倉庫コード</text>
<polygon fill="none" stroke="#000000" points="205,-279.2 205,-301.2 265,-301.2 265,-279.2 205,-279.2"/>
<image xlink:href="../../images/primaryKeys.png" width="11px" height="12px" preserveAspectRatio="xMinYMin meet" x="210" y="-296.2"/>
<text text-anchor="start" x="212.5547" y="-286.3" font-family="Helvetica,sans-Serif" font-size="11.00" fill="#000000">商品コード</text>
<polygon fill="none" stroke="#000000" points="205,-257.2 205,-279.2 265,-279.2 265,-257.2 205,-257.2"/>
<image xlink:href="../../images/primaryKeys.png" width="11px" height="12px" preserveAspectRatio="xMinYMin meet" x="210" y="-274.2"/>
<text text-anchor="start" x="217.0543" y="-264.3" font-family="Helvetica,sans-Serif" font-size="11.00" fill="#000000">ロット番号</text>
<polygon fill="none" stroke="#000000" points="205,-235.2 205,-257.2 265,-257.2 265,-235.2 205,-235.2"/>
<image xlink:href="../../images/primaryKeys.png" width="11px" height="12px" preserveAspectRatio="xMinYMin meet" x="210" y="-252.2"/>
<text text-anchor="start" x="220.4956" y="-242.3" font-family="Helvetica,sans-Serif" font-size="11.00" fill="#000000">在庫区分</text>
<polygon fill="none" stroke="#000000" points="205,-213.2 205,-235.2 265,-235.2 265,-213.2 205,-213.2"/>
<image xlink:href="../../images/primaryKeys.png" width="11px" height="12px" preserveAspectRatio="xMinYMin meet" x="210" y="-230.2"/>
<text text-anchor="start" x="220.4956" y="-220.3" font-family="Helvetica,sans-Serif" font-size="11.00" fill="#000000">品質区分</text>
<polygon fill="none" stroke="#000000" points="205,-194.2 205,-213.2 265,-213.2 265,-194.2 205,-194.2"/>
<text text-anchor="start" x="208" y="-200.3" font-family="Helvetica,sans-Serif" font-size="11.00" fill="#000000">...</text>
<polygon fill="#ffffff" stroke="transparent" points="205,-175.2 205,-194.2 265,-194.2 265,-175.2 205,-175.2"/>
<polygon fill="none" stroke="#000000" points="205,-175.2 205,-194.2 265,-194.2 265,-175.2 205,-175.2"/>
<polygon fill="#ffffff" stroke="transparent" points="206,-176.2 206,-193.2 232,-193.2 232,-176.2 206,-176.2"/>
<text text-anchor="start" x="208" y="-181.3" font-family="Helvetica,sans-Serif" font-size="11.00" fill="#000000">&lt; 2</text>
<polygon fill="#ffffff" stroke="transparent" points="232,-176.2 232,-193.2 248,-193.2 248,-176.2 232,-176.2"/>
<text text-anchor="start" x="236.9431" y="-181.3" font-family="Helvetica,sans-Serif" font-size="11.00" fill="#000000"> &#160;</text>
<polygon fill="#ffffff" stroke="transparent" points="248,-176.2 248,-193.2 264,-193.2 264,-176.2 248,-176.2"/>
<text text-anchor="start" x="255.8862" y="-181.3" font-family="Helvetica,sans-Serif" font-size="11.00" fill="#000000"> &#160;</text>
<polygon fill="#000000" stroke="#000000" points="232,-176.2 232,-193.2 232,-193.2 232,-176.2 232,-176.2"/>
<polygon fill="#000000" stroke="#000000" points="248,-176.2 248,-193.2 248,-193.2 248,-176.2 248,-176.2"/>
</a>
</g>
</g>
<!-- 倉庫マスタ -->
<g id="node2" class="node">
<title>倉庫マスタ</title>
<g id="a_node2"><a xlink:href="../../tables/______939d4982.html" xlink:title="倉庫マスタ" target="_top">
<polygon fill="#ffffff" stroke="transparent" points="8,-38.2 8,-348.2 156,-348.2 156,-38.2 8,-38.2"/>
<polygon fill="#f5f5f5" stroke="transparent" points="10,-323.2 10,-346.2 154,-346.2 154,-323.2 10,-323.2"/>
<polygon fill="none" stroke="#000000" points="10,-323.2 10,-346.2 154,-346.2 154,-323.2 10,-323.2"/>
<text text-anchor="start" x="4.0898" y="-331.8" font-family="Helvetica,sans-Serif" font-weight="bold" font-size="11.00" fill="#000000">倉庫マスタ</text>
<text text-anchor="start" x="119.0437" y="-331.3" font-family="Helvetica,sans-Serif" font-size="11.00" fill="#000000">[table]</text>
<polygon fill="none" stroke="#000000" points="10,-301.2 10,-323.2 70,-323.2 70,-301.2 10,-301.2"/>
<image xlink:href="../../images/primaryKeys.png" width="11px" height="12px" preserveAspectRatio="xMinYMin meet" x="15" y="-318.2"/>
<text text-anchor="start" x="15.7232" y="-308.3" font-family="Helvetica,sans-Serif" font-size="11.00" fill="#000000">倉庫コード</text>
<polygon fill="none" stroke="#000000" points="70,-301.2 70,-323.2 154,-323.2 154,-301.2 70,-301.2"/>
<text text-anchor="start" x="73" y="-308.9" font-family="Helvetica,sans-Serif" font-size="11.00" fill="#000000">varchar[3]</text>
<polygon fill="#ffffff" stroke="transparent" points="10,-279.2 10,-301.2 70,-301.2 70,-279.2 10,-279.2"/>
<polygon fill="none" stroke="#000000" points="10,-279.2 10,-301.2 70,-301.2 70,-279.2 10,-279.2"/>
<text text-anchor="start" x="30" y="-286.3" font-family="Helvetica,sans-Serif" font-size="11.00" fill="#000000">倉庫名</text>
<polygon fill="none" stroke="#000000" points="70,-279.2 70,-301.2 154,-301.2 154,-279.2 70,-279.2"/>
<text text-anchor="start" x="73" y="-286.9" font-family="Helvetica,sans-Serif" font-size="11.00" fill="#000000">varchar[40]</text>
<polygon fill="none" stroke="#000000" points="10,-257.2 10,-279.2 70,-279.2 70,-257.2 10,-257.2"/>
<text text-anchor="start" x="23.8786" y="-264.3" font-family="Helvetica,sans-Serif" font-size="11.00" fill="#000000">郵便番号</text>
<polygon fill="none" stroke="#000000" points="70,-257.2 70,-279.2 154,-279.2 154,-257.2 70,-257.2"/>
<text text-anchor="start" x="73" y="-264.9" font-family="Helvetica,sans-Serif" font-size="11.00" fill="#000000">varchar[8]</text>
<polygon fill="none" stroke="#000000" points="10,-235.2 10,-257.2 70,-257.2 70,-235.2 10,-235.2"/>
<text text-anchor="start" x="19.3846" y="-242.3" font-family="Helvetica,sans-Serif" font-size="11.00" fill="#000000">都道府県</text>
<polygon fill="none" stroke="#000000" points="70,-235.2 70,-257.2 154,-257.2 154,-235.2 70,-235.2"/>
<text text-anchor="start" x="73" y="-242.9" font-family="Helvetica,sans-Serif" font-size="11.00" fill="#000000">varchar[4]</text>
<polygon fill="none" stroke="#000000" points="10,-213.2 10,-235.2 70,-235.2 70,-213.2 10,-213.2"/>
<text text-anchor="start" x="25.8009" y="-220.3" font-family="Helvetica,sans-Serif" font-size="11.00" fill="#000000">住所１</text>
<polygon fill="none" stroke="#000000" points="70,-213.2 70,-235.2 154,-235.2 154,-213.2 70,-213.2"/>
<text text-anchor="start" x="73" y="-220.9" font-family="Helvetica,sans-Serif" font-size="11.00" fill="#000000">varchar[40]</text>
<polygon fill="none" stroke="#000000" points="10,-191.2 10,-213.2 70,-213.2 70,-191.2 10,-191.2"/>
<text text-anchor="start" x="25.8009" y="-198.3" font-family="Helvetica,sans-Serif" font-size="11.00" fill="#000000">住所２</text>
<polygon fill="none" stroke="#000000" points="70,-191.2 70,-213.2 154,-213.2 154,-191.2 70,-191.2"/>
<text text-anchor="start" x="73" y="-198.9" font-family="Helvetica,sans-Serif" font-size="11.00" fill="#000000">varchar[40]</text>
<polygon fill="none" stroke="#000000" points="10,-169.2 10,-191.2 70,-191.2 70,-169.2 10,-169.2"/>
<text text-anchor="start" x="21.6016" y="-176.3" font-family="Helvetica,sans-Serif" font-size="11.00" fill="#000000">電話番号</text>
<polygon fill="none" stroke="#000000" points="70,-169.2 70,-191.2 154,-191.2 154,-169.2 70,-169.2"/>
<text text-anchor="start" x="73" y="-176.9" font-family="Helvetica,sans-Serif" font-size="11.00" fill="#000000">varchar[15]</text>
<polygon fill="none" stroke="#000000" points="10,-147.2 10,-169.2 70,-169.2 70,-147.2 10,-147.2"/>
<text text-anchor="start" x="30" y="-154.3" font-family="Helvetica,sans-Serif" font-size="11.00" fill="#000000">fax番号</text>
<polygon fill="none" stroke="#000000" points="70,-147.2 70,-169.2 154,-169.2 154,-147.2 70,-147.2"/>
<text text-anchor="start" x="73" y="-154.9" font-family="Helvetica,sans-Serif" font-size="11.00" fill="#000000">varchar[15]</text>
<polygon fill="none" stroke="#000000" points="10,-125.2 10,-147.2 70,-147.2 70,-125.2 10,-125.2"/>
<text text-anchor="start" x="23.6581" y="-132.3" font-family="Helvetica,sans-Serif" font-size="11.00" fill="#000000">作成日時</text>
<polygon fill="none" stroke="#000000" points="70,-125.2 70,-147.2 154,-147.2 154,-125.2 70,-125.2"/>
<text text-anchor="start" x="72.8807" y="-132.9" font-family="Helvetica,sans-Serif" font-size="11.00" fill="#000000">timestamp[29,6]</text>
<polygon fill="none" stroke="#000000" points="10,-103.2 10,-125.2 70,-125.2 70,-103.2 10,-103.2"/>
<text text-anchor="start" x="23.6581" y="-110.3" font-family="Helvetica,sans-Serif" font-size="11.00" fill="#000000">作成者名</text>
<polygon fill="none" stroke="#000000" points="70,-103.2 70,-125.2 154,-125.2 154,-103.2 70,-103.2"/>
<text text-anchor="start" x="73" y="-110.9" font-family="Helvetica,sans-Serif" font-size="11.00" fill="#000000">varchar[12]</text>
<polygon fill="none" stroke="#000000" points="10,-81.2 10,-103.2 70,-103.2 70,-81.2 10,-81.2"/>
<text text-anchor="start" x="27.6296" y="-88.3" font-family="Helvetica,sans-Serif" font-size="11.00" fill="#000000">更新日時</text>
<polygon fill="none" stroke="#000000" points="70,-81.2 70,-103.2 154,-103.2 154,-81.2 70,-81.2"/>
<text text-anchor="start" x="72.8807" y="-88.9" font-family="Helvetica,sans-Serif" font-size="11.00" fill="#000000">timestamp[29,6]</text>
<polygon fill="none" stroke="#000000" points="10,-59.2 10,-81.2 70,-81.2 70,-59.2 10,-59.2"/>
<text text-anchor="start" x="27.6296" y="-66.3" font-family="Helvetica,sans-Serif" font-size="11.00" fill="#000000">更新者名</text>
<polygon fill="none" stroke="#000000" points="70,-59.2 70,-81.2 154,-81.2 154,-59.2 70,-59.2"/>
<text text-anchor="start" x="73" y="-66.9" font-family="Helvetica,sans-Serif" font-size="11.00" fill="#000000">varchar[12]</text>
<polygon fill="#ffffff" stroke="transparent" points="10,-40.2 10,-59.2 154,-59.2 154,-40.2 10,-40.2"/>
<polygon fill="none" stroke="#000000" points="10,-40.2 10,-59.2 154,-59.2 154,-40.2 10,-40.2"/>
<polygon fill="#ffffff" stroke="transparent" points="11,-41.2 11,-58.2 62,-58.2 62,-41.2 11,-41.2"/>
<text text-anchor="start" x="13" y="-46.3" font-family="Helvetica,sans-Serif" font-size="11.00" fill="#000000">&lt; 0</text>
<polygon fill="#ffffff" stroke="transparent" points="62,-41.2 62,-58.2 103,-58.2 103,-41.2 62,-41.2"/>
<text text-anchor="start" x="79.4431" y="-46.3" font-family="Helvetica,sans-Serif" font-size="11.00" fill="#000000"> &#160;</text>
<polygon fill="#ffffff" stroke="transparent" points="103,-41.2 103,-58.2 153,-58.2 153,-41.2 103,-41.2"/>
<text text-anchor="start" x="135.4053" y="-46.3" font-family="Helvetica,sans-Serif" font-size="11.00" fill="#000000">1 &gt;</text>
<polygon fill="#000000" stroke="#000000" points="62,-41.2 62,-58.2 62,-58.2 62,-41.2 62,-41.2"/>
<polygon fill="#000000" stroke="#000000" points="103,-41.2 103,-58.2 103,-58.2 103,-41.2 103,-41.2"/>
<polygon fill="none" stroke="#000000" stroke-width="2" points="9,-39.2 9,-347.2 155,-347.2 155,-39.2 9,-39.2"/>
</a>
</g>
</g>
<!-- 在庫&#45;&gt;倉庫マスタ -->
<g id="edge1" class="edge">
<title>在庫:w&#45;&gt;倉庫マスタ:e</title>
<path fill="none" stroke="#000000" d="M190.276,-312.2C178.2815,-312.2 170.8229,-312.2 154,-312.2"/>
<polygon fill="#000000" stroke="#000000" points="197,-312.2001 205,-315.8 201,-312.2 205,-312.2 205,-312.2 205,-312.2 201,-312.2 205,-308.6 197,-312.2001 197,-312.2001"/>
<ellipse fill="none" stroke="#000000" cx="193.8" cy="-312.2001" rx="3.2" ry="3.2"/>
</g>
</g>
</svg>
