<?xml version="1.0" encoding="UTF-8" standalone="no"?>
<!DOCTYPE svg PUBLIC "-//W3C//DTD SVG 1.1//EN"
 "http://www.w3.org/Graphics/SVG/1.1/DTD/svg11.dtd">
<!-- Generated by graphviz version 2.40.1 (20161225.0304)
 -->
<!-- Title: twoDegreesRelationshipsDiagram Pages: 1 -->
<svg width="461pt" height="579pt"
 viewBox="0.00 0.00 461.00 578.70" xmlns="http://www.w3.org/2000/svg" xmlns:xlink="http://www.w3.org/1999/xlink">
<g id="graph0" class="graph" transform="scale(1 1) rotate(0) translate(4 574.7)">
<title>twoDegreesRelationshipsDiagram</title>
<polygon fill="#ffffff" stroke="transparent" points="-4,4 -4,-574.7 457,-574.7 457,4 -4,4"/>
<text text-anchor="middle" x="72.4936" y="-7.3" font-family="Helvetica,sans-Serif" font-size="11.00" fill="#000000">Generated by SchemaSpy</text>
<!-- 代替商品 -->
<g id="node1" class="node">
<title>代替商品</title>
<g id="a_node1"><a xlink:href="../../tables/_____25696db7.html" xlink:title="代替商品" target="_top">
<polygon fill="#ffffff" stroke="transparent" points="328.5,-505.7 328.5,-566.7 398.5,-566.7 398.5,-505.7 328.5,-505.7"/>
<polygon fill="#f5f5f5" stroke="transparent" points="328.5,-543.2 328.5,-566.2 398.5,-566.2 398.5,-543.2 328.5,-543.2"/>
<polygon fill="none" stroke="#000000" points="328.5,-543.2 328.5,-566.2 398.5,-566.2 398.5,-543.2 328.5,-543.2"/>
<text text-anchor="start" x="323.7691" y="-551.8" font-family="Helvetica,sans-Serif" font-weight="bold" font-size="11.00" fill="#000000">代替商品</text>
<text text-anchor="start" x="364.0219" y="-551.3" font-family="Helvetica,sans-Serif" font-size="11.00" fill="#000000">[table]</text>
<polygon fill="none" stroke="#000000" points="328.5,-524.2 328.5,-543.2 398.5,-543.2 398.5,-524.2 328.5,-524.2"/>
<text text-anchor="start" x="331.5" y="-530.3" font-family="Helvetica,sans-Serif" font-size="11.00" fill="#000000">...</text>
<polygon fill="#ffffff" stroke="transparent" points="328.5,-505.2 328.5,-524.2 398.5,-524.2 398.5,-505.2 328.5,-505.2"/>
<polygon fill="none" stroke="#000000" points="328.5,-505.2 328.5,-524.2 398.5,-524.2 398.5,-505.2 328.5,-505.2"/>
<polygon fill="#ffffff" stroke="transparent" points="329.5,-506.2 329.5,-523.2 358.5,-523.2 358.5,-506.2 329.5,-506.2"/>
<text text-anchor="start" x="331.5" y="-511.3" font-family="Helvetica,sans-Serif" font-size="11.00" fill="#000000">&lt; 2</text>
<polygon fill="#ffffff" stroke="transparent" points="358.5,-506.2 358.5,-523.2 378.5,-523.2 378.5,-506.2 358.5,-506.2"/>
<text text-anchor="start" x="365.4431" y="-511.3" font-family="Helvetica,sans-Serif" font-size="11.00" fill="#000000"> &#160;</text>
<polygon fill="#ffffff" stroke="transparent" points="378.5,-506.2 378.5,-523.2 397.5,-523.2 397.5,-506.2 378.5,-506.2"/>
<text text-anchor="start" x="389.3862" y="-511.3" font-family="Helvetica,sans-Serif" font-size="11.00" fill="#000000"> &#160;</text>
<polygon fill="#000000" stroke="#000000" points="358.5,-506.2 358.5,-523.2 358.5,-523.2 358.5,-506.2 358.5,-506.2"/>
<polygon fill="#000000" stroke="#000000" points="378.5,-506.2 378.5,-523.2 378.5,-523.2 378.5,-506.2 378.5,-506.2"/>
</a>
</g>
</g>
<!-- 商品マスタ -->
<g id="node2" class="node">
<title>商品マスタ</title>
<g id="a_node2"><a xlink:href="../../tables/______d8ecb269.html" xlink:title="商品マスタ" target="_top">
<polygon fill="#ffffff" stroke="transparent" points="150,-273.7 150,-444.7 233,-444.7 233,-273.7 150,-273.7"/>
<polygon fill="#f5f5f5" stroke="transparent" points="150.5,-421.2 150.5,-444.2 233.5,-444.2 233.5,-421.2 150.5,-421.2"/>
<polygon fill="none" stroke="#000000" points="150.5,-421.2 150.5,-444.2 233.5,-444.2 233.5,-421.2 150.5,-421.2"/>
<text text-anchor="start" x="146.4212" y="-429.8" font-family="Helvetica,sans-Serif" font-weight="bold" font-size="11.00" fill="#000000">商品マスタ</text>
<text text-anchor="start" x="198.5437" y="-429.3" font-family="Helvetica,sans-Serif" font-size="11.00" fill="#000000">[table]</text>
<polygon fill="none" stroke="#000000" points="150.5,-399.2 150.5,-421.2 233.5,-421.2 233.5,-399.2 150.5,-399.2"/>
<image xlink:href="../../images/primaryKeys.png" width="11px" height="12px" preserveAspectRatio="xMinYMin meet" x="155.5" y="-416.2"/>
<text text-anchor="start" x="169.5547" y="-406.3" font-family="Helvetica,sans-Serif" font-size="11.00" fill="#000000">商品コード</text>
<polygon fill="#ffffff" stroke="transparent" points="150.5,-377.2 150.5,-399.2 233.5,-399.2 233.5,-377.2 150.5,-377.2"/>
<polygon fill="none" stroke="#000000" points="150.5,-377.2 150.5,-399.2 233.5,-399.2 233.5,-377.2 150.5,-377.2"/>
<text text-anchor="start" x="170.5" y="-384.3" font-family="Helvetica,sans-Serif" font-size="11.00" fill="#000000">商品略称</text>
<polygon fill="#ffffff" stroke="transparent" points="150.5,-355.2 150.5,-377.2 233.5,-377.2 233.5,-355.2 150.5,-355.2"/>
<polygon fill="none" stroke="#000000" points="150.5,-355.2 150.5,-377.2 233.5,-377.2 233.5,-355.2 150.5,-355.2"/>
<image xlink:href="../../images/foreignKeys.png" width="11px" height="12px" preserveAspectRatio="xMinYMin meet" x="155.5" y="-372.2"/>
<text text-anchor="start" x="157.3315" y="-362.3" font-family="Helvetica,sans-Serif" font-size="11.00" fill="#000000">商品分類コード</text>
<polygon fill="#ffffff" stroke="transparent" points="150.5,-333.2 150.5,-355.2 233.5,-355.2 233.5,-333.2 150.5,-333.2"/>
<polygon fill="none" stroke="#000000" points="150.5,-333.2 150.5,-355.2 233.5,-355.2 233.5,-333.2 150.5,-333.2"/>
<text text-anchor="start" x="161.9114" y="-340.3" font-family="Helvetica,sans-Serif" font-size="11.00" fill="#000000">仕入先コード</text>
<polygon fill="#ffffff" stroke="transparent" points="150.5,-311.2 150.5,-333.2 233.5,-333.2 233.5,-311.2 150.5,-311.2"/>
<polygon fill="none" stroke="#000000" points="150.5,-311.2 150.5,-333.2 233.5,-333.2 233.5,-311.2 150.5,-311.2"/>
<text text-anchor="start" x="170.5" y="-318.3" font-family="Helvetica,sans-Serif" font-size="11.00" fill="#000000">仕入先枝番</text>
<polygon fill="none" stroke="#000000" points="150.5,-292.2 150.5,-311.2 233.5,-311.2 233.5,-292.2 150.5,-292.2"/>
<text text-anchor="start" x="153.5" y="-298.3" font-family="Helvetica,sans-Serif" font-size="11.00" fill="#000000">...</text>
<polygon fill="#ffffff" stroke="transparent" points="150.5,-273.2 150.5,-292.2 233.5,-292.2 233.5,-273.2 150.5,-273.2"/>
<polygon fill="none" stroke="#000000" points="150.5,-273.2 150.5,-292.2 233.5,-292.2 233.5,-273.2 150.5,-273.2"/>
<polygon fill="#ffffff" stroke="transparent" points="151.5,-274.2 151.5,-291.2 181.5,-291.2 181.5,-274.2 151.5,-274.2"/>
<text text-anchor="start" x="153.5" y="-279.3" font-family="Helvetica,sans-Serif" font-size="11.00" fill="#000000">&lt; 1</text>
<polygon fill="#ffffff" stroke="transparent" points="181.5,-274.2 181.5,-291.2 202.5,-291.2 202.5,-274.2 181.5,-274.2"/>
<text text-anchor="start" x="188.9431" y="-279.3" font-family="Helvetica,sans-Serif" font-size="11.00" fill="#000000"> &#160;</text>
<polygon fill="#ffffff" stroke="transparent" points="202.5,-274.2 202.5,-291.2 232.5,-291.2 232.5,-274.2 202.5,-274.2"/>
<text text-anchor="start" x="214.9053" y="-279.3" font-family="Helvetica,sans-Serif" font-size="11.00" fill="#000000">6 &gt;</text>
<polygon fill="#000000" stroke="#000000" points="181.5,-274.2 181.5,-291.2 181.5,-291.2 181.5,-274.2 181.5,-274.2"/>
<polygon fill="#000000" stroke="#000000" points="202.5,-274.2 202.5,-291.2 202.5,-291.2 202.5,-274.2 202.5,-274.2"/>
</a>
</g>
</g>
<!-- 代替商品&#45;&gt;商品マスタ -->
<g id="edge1" class="edge">
<title>代替商品:w&#45;&gt;商品マスタ:e</title>
<path fill="none" stroke="#000000" d="M314.6594,-529.0617C296.4332,-521.4102 289.6655,-507.6753 274,-489.2 246.9366,-457.2824 275.3469,-404.2 233.5,-410.2"/>
<polygon fill="#000000" stroke="#000000" points="320.8353,-530.9082 327.4687,-536.6491 324.6676,-532.0541 328.5,-533.2 328.5,-533.2 328.5,-533.2 324.6676,-532.0541 329.5313,-529.7509 320.8353,-530.9082 320.8353,-530.9082"/>
<ellipse fill="none" stroke="#000000" cx="317.7694" cy="-529.9915" rx="3.2" ry="3.2"/>
</g>
<!-- 代替商品&#45;&gt;商品マスタ -->
<g id="edge2" class="edge">
<title>代替商品:w&#45;&gt;商品マスタ:e</title>
<path fill="none" stroke="#000000" d="M314.1418,-534.8685C296.3035,-534.1482 289.5163,-520.4994 274,-502.2 246.9366,-470.2824 275.3469,-417.2 233.5,-410.2"/>
<polygon fill="#000000" stroke="#000000" points="320.5535,-534.1235 328.9156,-536.7759 324.5267,-533.6617 328.5,-533.2 328.5,-533.2 328.5,-533.2 324.5267,-533.6617 328.0844,-529.6241 320.5535,-534.1235 320.5535,-534.1235"/>
<ellipse fill="none" stroke="#000000" cx="317.3749" cy="-534.4929" rx="3.2" ry="3.2"/>
</g>
<!-- 商品分類マスタ -->
<g id="node4" class="node">
<title>商品分類マスタ</title>
<g id="a_node4"><a xlink:href="../../tables/________52e8cf11.html" xlink:title="商品分類マスタ" target="_top">
<polygon fill="#ffffff" stroke="transparent" points="8,-338.7 8,-399.7 101,-399.7 101,-338.7 8,-338.7"/>
<polygon fill="#f5f5f5" stroke="transparent" points="8.5,-376.2 8.5,-399.2 101.5,-399.2 101.5,-376.2 8.5,-376.2"/>
<polygon fill="none" stroke="#000000" points="8.5,-376.2 8.5,-399.2 101.5,-399.2 101.5,-376.2 8.5,-376.2"/>
<text text-anchor="start" x="-.3019" y="-384.8" font-family="Helvetica,sans-Serif" font-weight="bold" font-size="11.00" fill="#000000">商品分類マスタ</text>
<text text-anchor="start" x="67.0219" y="-384.3" font-family="Helvetica,sans-Serif" font-size="11.00" fill="#000000">[table]</text>
<polygon fill="none" stroke="#000000" points="8.5,-357.2 8.5,-376.2 101.5,-376.2 101.5,-357.2 8.5,-357.2"/>
<text text-anchor="start" x="11.5" y="-363.3" font-family="Helvetica,sans-Serif" font-size="11.00" fill="#000000">...</text>
<polygon fill="#ffffff" stroke="transparent" points="8.5,-338.2 8.5,-357.2 101.5,-357.2 101.5,-338.2 8.5,-338.2"/>
<polygon fill="none" stroke="#000000" points="8.5,-338.2 8.5,-357.2 101.5,-357.2 101.5,-338.2 8.5,-338.2"/>
<polygon fill="#ffffff" stroke="transparent" points="9.5,-339.2 9.5,-356.2 37.5,-356.2 37.5,-339.2 9.5,-339.2"/>
<text text-anchor="start" x="11.5" y="-344.3" font-family="Helvetica,sans-Serif" font-size="11.00" fill="#000000"> &#160;</text>
<polygon fill="#ffffff" stroke="transparent" points="37.5,-339.2 37.5,-356.2 64.5,-356.2 64.5,-339.2 37.5,-339.2"/>
<text text-anchor="start" x="47.9431" y="-344.3" font-family="Helvetica,sans-Serif" font-size="11.00" fill="#000000"> &#160;</text>
<polygon fill="#ffffff" stroke="transparent" points="64.5,-339.2 64.5,-356.2 100.5,-356.2 100.5,-339.2 64.5,-339.2"/>
<text text-anchor="start" x="82.9053" y="-344.3" font-family="Helvetica,sans-Serif" font-size="11.00" fill="#000000">1 &gt;</text>
<polygon fill="#000000" stroke="#000000" points="37.5,-339.2 37.5,-356.2 37.5,-356.2 37.5,-339.2 37.5,-339.2"/>
<polygon fill="#000000" stroke="#000000" points="64.5,-339.2 64.5,-356.2 64.5,-356.2 64.5,-339.2 64.5,-339.2"/>
</a>
</g>
</g>
<!-- 商品マスタ&#45;&gt;商品分類マスタ -->
<g id="edge4" class="edge">
<title>商品マスタ:w&#45;&gt;商品分類マスタ:e</title>
<path fill="none" stroke="#000000" d="M135.9909,-366.2C124.6774,-366.2 117.4931,-366.2 101.5,-366.2"/>
<polygon fill="#000000" stroke="#000000" points="142.5,-366.2001 150.5,-369.8 146.5,-366.2 150.5,-366.2 150.5,-366.2 150.5,-366.2 146.5,-366.2 150.5,-362.6 142.5,-366.2001 142.5,-366.2001"/>
<ellipse fill="none" stroke="#000000" cx="139.3" cy="-366.2001" rx="3.2" ry="3.2"/>
</g>
<!-- 受注明細 -->
<g id="node3" class="node">
<title>受注明細</title>
<g id="a_node3"><a xlink:href="../../tables/_____27c23493.html" xlink:title="受注明細" target="_top">
<polygon fill="#ffffff" stroke="transparent" points="328.5,-423.7 328.5,-484.7 398.5,-484.7 398.5,-423.7 328.5,-423.7"/>
<polygon fill="#f5f5f5" stroke="transparent" points="328.5,-461.2 328.5,-484.2 398.5,-484.2 398.5,-461.2 328.5,-461.2"/>
<polygon fill="none" stroke="#000000" points="328.5,-461.2 328.5,-484.2 398.5,-484.2 398.5,-461.2 328.5,-461.2"/>
<text text-anchor="start" x="325.6006" y="-469.8" font-family="Helvetica,sans-Serif" font-weight="bold" font-size="11.00" fill="#000000">受注明細</text>
<text text-anchor="start" x="364.0219" y="-469.3" font-family="Helvetica,sans-Serif" font-size="11.00" fill="#000000">[table]</text>
<polygon fill="none" stroke="#000000" points="328.5,-442.2 328.5,-461.2 398.5,-461.2 398.5,-442.2 328.5,-442.2"/>
<text text-anchor="start" x="331.5" y="-448.3" font-family="Helvetica,sans-Serif" font-size="11.00" fill="#000000">...</text>
<polygon fill="#ffffff" stroke="transparent" points="328.5,-423.2 328.5,-442.2 398.5,-442.2 398.5,-423.2 328.5,-423.2"/>
<polygon fill="none" stroke="#000000" points="328.5,-423.2 328.5,-442.2 398.5,-442.2 398.5,-423.2 328.5,-423.2"/>
<polygon fill="#ffffff" stroke="transparent" points="329.5,-424.2 329.5,-441.2 358.5,-441.2 358.5,-424.2 329.5,-424.2"/>
<text text-anchor="start" x="331.5" y="-429.3" font-family="Helvetica,sans-Serif" font-size="11.00" fill="#000000">&lt; 2</text>
<polygon fill="#ffffff" stroke="transparent" points="358.5,-424.2 358.5,-441.2 378.5,-441.2 378.5,-424.2 358.5,-424.2"/>
<text text-anchor="start" x="365.4431" y="-429.3" font-family="Helvetica,sans-Serif" font-size="11.00" fill="#000000"> &#160;</text>
<polygon fill="#ffffff" stroke="transparent" points="378.5,-424.2 378.5,-441.2 397.5,-441.2 397.5,-424.2 378.5,-424.2"/>
<text text-anchor="start" x="389.3862" y="-429.3" font-family="Helvetica,sans-Serif" font-size="11.00" fill="#000000"> &#160;</text>
<polygon fill="#000000" stroke="#000000" points="358.5,-424.2 358.5,-441.2 358.5,-441.2 358.5,-424.2 358.5,-424.2"/>
<polygon fill="#000000" stroke="#000000" points="378.5,-424.2 378.5,-441.2 378.5,-441.2 378.5,-424.2 378.5,-424.2"/>
</a>
</g>
</g>
<!-- 受注明細&#45;&gt;商品マスタ -->
<g id="edge3" class="edge">
<title>受注明細:w&#45;&gt;商品マスタ:e</title>
<path fill="none" stroke="#000000" d="M313.9645,-449.6428C281.214,-442.1537 274.0975,-410.2 233.5,-410.2"/>
<polygon fill="#000000" stroke="#000000" points="320.5455,-450.3478 328.1165,-454.7795 324.5228,-450.7739 328.5,-451.2 328.5,-451.2 328.5,-451.2 324.5228,-450.7739 328.8835,-447.6205 320.5455,-450.3478 320.5455,-450.3478"/>
<ellipse fill="none" stroke="#000000" cx="317.3637" cy="-450.0069" rx="3.2" ry="3.2"/>
</g>
<!-- 在庫 -->
<g id="node5" class="node">
<title>在庫</title>
<g id="a_node5"><a xlink:href="../../tables/___aec83.html" xlink:title="在庫" target="_top">
<polygon fill="#ffffff" stroke="transparent" points="336.5,-341.7 336.5,-402.7 390.5,-402.7 390.5,-341.7 336.5,-341.7"/>
<polygon fill="#f5f5f5" stroke="transparent" points="336.5,-379.2 336.5,-402.2 390.5,-402.2 390.5,-379.2 336.5,-379.2"/>
<polygon fill="none" stroke="#000000" points="336.5,-379.2 336.5,-402.2 390.5,-402.2 390.5,-379.2 336.5,-379.2"/>
<text text-anchor="start" x="334.4688" y="-387.8" font-family="Helvetica,sans-Serif" font-weight="bold" font-size="11.00" fill="#000000">在庫</text>
<text text-anchor="start" x="356.0219" y="-387.3" font-family="Helvetica,sans-Serif" font-size="11.00" fill="#000000">[table]</text>
<polygon fill="none" stroke="#000000" points="336.5,-360.2 336.5,-379.2 390.5,-379.2 390.5,-360.2 336.5,-360.2"/>
<text text-anchor="start" x="339.5" y="-366.3" font-family="Helvetica,sans-Serif" font-size="11.00" fill="#000000">...</text>
<polygon fill="#ffffff" stroke="transparent" points="336.5,-341.2 336.5,-360.2 390.5,-360.2 390.5,-341.2 336.5,-341.2"/>
<polygon fill="none" stroke="#000000" points="336.5,-341.2 336.5,-360.2 390.5,-360.2 390.5,-341.2 336.5,-341.2"/>
<polygon fill="#ffffff" stroke="transparent" points="337.5,-342.2 337.5,-359.2 361.5,-359.2 361.5,-342.2 337.5,-342.2"/>
<text text-anchor="start" x="339.5" y="-347.3" font-family="Helvetica,sans-Serif" font-size="11.00" fill="#000000">&lt; 2</text>
<polygon fill="#ffffff" stroke="transparent" points="361.5,-342.2 361.5,-359.2 375.5,-359.2 375.5,-342.2 361.5,-342.2"/>
<text text-anchor="start" x="365.4431" y="-347.3" font-family="Helvetica,sans-Serif" font-size="11.00" fill="#000000"> &#160;</text>
<polygon fill="#ffffff" stroke="transparent" points="375.5,-342.2 375.5,-359.2 389.5,-359.2 389.5,-342.2 375.5,-342.2"/>
<text text-anchor="start" x="381.3862" y="-347.3" font-family="Helvetica,sans-Serif" font-size="11.00" fill="#000000"> &#160;</text>
<polygon fill="#000000" stroke="#000000" points="361.5,-342.2 361.5,-359.2 361.5,-359.2 361.5,-342.2 361.5,-342.2"/>
<polygon fill="#000000" stroke="#000000" points="375.5,-342.2 375.5,-359.2 375.5,-359.2 375.5,-342.2 375.5,-342.2"/>
</a>
</g>
</g>
<!-- 在庫&#45;&gt;商品マスタ -->
<g id="edge5" class="edge">
<title>在庫:w&#45;&gt;商品マスタ:e</title>
<path fill="none" stroke="#000000" d="M321.8239,-370.5641C285.7176,-377.6783 277.3822,-410.2 233.5,-410.2"/>
<polygon fill="#000000" stroke="#000000" points="328.5343,-369.9405 336.8332,-372.7845 332.5172,-369.5702 336.5,-369.2 336.5,-369.2 336.5,-369.2 332.5172,-369.5702 336.1668,-365.6155 328.5343,-369.9405 328.5343,-369.9405"/>
<ellipse fill="none" stroke="#000000" cx="325.3481" cy="-370.2366" rx="3.2" ry="3.2"/>
</g>
<!-- 売上明細 -->
<g id="node6" class="node">
<title>売上明細</title>
<g id="a_node6"><a xlink:href="../../tables/_____29a0763a.html" xlink:title="売上明細" target="_top">
<polygon fill="#ffffff" stroke="transparent" points="328.5,-259.7 328.5,-320.7 398.5,-320.7 398.5,-259.7 328.5,-259.7"/>
<polygon fill="#f5f5f5" stroke="transparent" points="328.5,-297.2 328.5,-320.2 398.5,-320.2 398.5,-297.2 328.5,-297.2"/>
<polygon fill="none" stroke="#000000" points="328.5,-297.2 328.5,-320.2 398.5,-320.2 398.5,-297.2 328.5,-297.2"/>
<text text-anchor="start" x="325.9086" y="-305.8" font-family="Helvetica,sans-Serif" font-weight="bold" font-size="11.00" fill="#000000">売上明細</text>
<text text-anchor="start" x="364.0219" y="-305.3" font-family="Helvetica,sans-Serif" font-size="11.00" fill="#000000">[table]</text>
<polygon fill="none" stroke="#000000" points="328.5,-278.2 328.5,-297.2 398.5,-297.2 398.5,-278.2 328.5,-278.2"/>
<text text-anchor="start" x="331.5" y="-284.3" font-family="Helvetica,sans-Serif" font-size="11.00" fill="#000000">...</text>
<polygon fill="#ffffff" stroke="transparent" points="328.5,-259.2 328.5,-278.2 398.5,-278.2 398.5,-259.2 328.5,-259.2"/>
<polygon fill="none" stroke="#000000" points="328.5,-259.2 328.5,-278.2 398.5,-278.2 398.5,-259.2 328.5,-259.2"/>
<polygon fill="#ffffff" stroke="transparent" points="329.5,-260.2 329.5,-277.2 358.5,-277.2 358.5,-260.2 329.5,-260.2"/>
<text text-anchor="start" x="331.5" y="-265.3" font-family="Helvetica,sans-Serif" font-size="11.00" fill="#000000">&lt; 2</text>
<polygon fill="#ffffff" stroke="transparent" points="358.5,-260.2 358.5,-277.2 378.5,-277.2 378.5,-260.2 358.5,-260.2"/>
<text text-anchor="start" x="365.4431" y="-265.3" font-family="Helvetica,sans-Serif" font-size="11.00" fill="#000000"> &#160;</text>
<polygon fill="#ffffff" stroke="transparent" points="378.5,-260.2 378.5,-277.2 397.5,-277.2 397.5,-260.2 378.5,-260.2"/>
<text text-anchor="start" x="389.3862" y="-265.3" font-family="Helvetica,sans-Serif" font-size="11.00" fill="#000000"> &#160;</text>
<polygon fill="#000000" stroke="#000000" points="358.5,-260.2 358.5,-277.2 358.5,-277.2 358.5,-260.2 358.5,-260.2"/>
<polygon fill="#000000" stroke="#000000" points="378.5,-260.2 378.5,-277.2 378.5,-277.2 378.5,-260.2 378.5,-260.2"/>
</a>
</g>
</g>
<!-- 売上明細&#45;&gt;商品マスタ -->
<g id="edge6" class="edge">
<title>売上明細:w&#45;&gt;商品マスタ:e</title>
<path fill="none" stroke="#000000" d="M314.1213,-289.0322C295.515,-294.4711 290.1103,-311.3858 274,-331.2 249.1087,-361.814 272.9562,-410.2 233.5,-410.2"/>
<polygon fill="#000000" stroke="#000000" points="320.5642,-288.2112 328.9551,-290.7711 324.5321,-287.7056 328.5,-287.2 328.5,-287.2 328.5,-287.2 324.5321,-287.7056 328.0449,-283.6289 320.5642,-288.2112 320.5642,-288.2112"/>
<ellipse fill="none" stroke="#000000" cx="317.3898" cy="-288.6157" rx="3.2" ry="3.2"/>
</g>
<!-- 顧客別販売単価 -->
<g id="node7" class="node">
<title>顧客別販売単価</title>
<g id="a_node7"><a xlink:href="../../tables/________201bd2dc.html" xlink:title="顧客別販売単価" target="_top">
<polygon fill="#ffffff" stroke="transparent" points="282,-38.2 282,-238.2 445,-238.2 445,-38.2 282,-38.2"/>
<polygon fill="#f5f5f5" stroke="transparent" points="284.5,-213.2 284.5,-236.2 443.5,-236.2 443.5,-213.2 284.5,-213.2"/>
<polygon fill="none" stroke="#000000" points="284.5,-213.2 284.5,-236.2 443.5,-236.2 443.5,-213.2 284.5,-213.2"/>
<text text-anchor="start" x="267.6015" y="-221.8" font-family="Helvetica,sans-Serif" font-weight="bold" font-size="11.00" fill="#000000">顧客別販売単価</text>
<text text-anchor="start" x="408.5437" y="-221.3" font-family="Helvetica,sans-Serif" font-size="11.00" fill="#000000">[table]</text>
<polygon fill="none" stroke="#000000" points="284.5,-191.2 284.5,-213.2 359.5,-213.2 359.5,-191.2 284.5,-191.2"/>
<image xlink:href="../../images/primaryKeys.png" width="11px" height="12px" preserveAspectRatio="xMinYMin meet" x="289.5" y="-208.2"/>
<text text-anchor="start" x="299.5547" y="-198.3" font-family="Helvetica,sans-Serif" font-size="11.00" fill="#000000">商品コード</text>
<polygon fill="none" stroke="#000000" points="359.5,-191.2 359.5,-213.2 443.5,-213.2 443.5,-191.2 359.5,-191.2"/>
<text text-anchor="start" x="362.5" y="-198.9" font-family="Helvetica,sans-Serif" font-size="11.00" fill="#000000">varchar[16]</text>
<polygon fill="none" stroke="#000000" points="284.5,-169.2 284.5,-191.2 359.5,-191.2 359.5,-169.2 284.5,-169.2"/>
<image xlink:href="../../images/primaryKeys.png" width="11px" height="12px" preserveAspectRatio="xMinYMin meet" x="289.5" y="-186.2"/>
<text text-anchor="start" x="290.9978" y="-176.3" font-family="Helvetica,sans-Serif" font-size="11.00" fill="#000000">取引先コード</text>
<polygon fill="none" stroke="#000000" points="359.5,-169.2 359.5,-191.2 443.5,-191.2 443.5,-169.2 359.5,-169.2"/>
<text text-anchor="start" x="362.5" y="-176.9" font-family="Helvetica,sans-Serif" font-size="11.00" fill="#000000">varchar[8]</text>
<polygon fill="none" stroke="#000000" points="284.5,-147.2 284.5,-169.2 359.5,-169.2 359.5,-147.2 284.5,-147.2"/>
<text text-anchor="start" x="304.5" y="-154.3" font-family="Helvetica,sans-Serif" font-size="11.00" fill="#000000">販売単価</text>
<polygon fill="none" stroke="#000000" points="359.5,-147.2 359.5,-169.2 443.5,-169.2 443.5,-147.2 359.5,-147.2"/>
<text text-anchor="start" x="362.5" y="-154.9" font-family="Helvetica,sans-Serif" font-size="11.00" fill="#000000">int4[10]</text>
<polygon fill="none" stroke="#000000" points="284.5,-125.2 284.5,-147.2 359.5,-147.2 359.5,-125.2 284.5,-125.2"/>
<text text-anchor="start" x="304.5" y="-132.3" font-family="Helvetica,sans-Serif" font-size="11.00" fill="#000000">作成日時</text>
<polygon fill="none" stroke="#000000" points="359.5,-125.2 359.5,-147.2 443.5,-147.2 443.5,-125.2 359.5,-125.2"/>
<text text-anchor="start" x="362.3807" y="-132.9" font-family="Helvetica,sans-Serif" font-size="11.00" fill="#000000">timestamp[29,6]</text>
<polygon fill="none" stroke="#000000" points="284.5,-103.2 284.5,-125.2 359.5,-125.2 359.5,-103.2 284.5,-103.2"/>
<text text-anchor="start" x="304.5" y="-110.3" font-family="Helvetica,sans-Serif" font-size="11.00" fill="#000000">作成者名</text>
<polygon fill="none" stroke="#000000" points="359.5,-103.2 359.5,-125.2 443.5,-125.2 443.5,-103.2 359.5,-103.2"/>
<text text-anchor="start" x="362.5" y="-110.9" font-family="Helvetica,sans-Serif" font-size="11.00" fill="#000000">varchar[12]</text>
<polygon fill="none" stroke="#000000" points="284.5,-81.2 284.5,-103.2 359.5,-103.2 359.5,-81.2 284.5,-81.2"/>
<text text-anchor="start" x="304.5" y="-88.3" font-family="Helvetica,sans-Serif" font-size="11.00" fill="#000000">更新日時</text>
<polygon fill="none" stroke="#000000" points="359.5,-81.2 359.5,-103.2 443.5,-103.2 443.5,-81.2 359.5,-81.2"/>
<text text-anchor="start" x="362.3807" y="-88.9" font-family="Helvetica,sans-Serif" font-size="11.00" fill="#000000">timestamp[29,6]</text>
<polygon fill="none" stroke="#000000" points="284.5,-59.2 284.5,-81.2 359.5,-81.2 359.5,-59.2 284.5,-59.2"/>
<text text-anchor="start" x="304.5" y="-66.3" font-family="Helvetica,sans-Serif" font-size="11.00" fill="#000000">更新者名</text>
<polygon fill="none" stroke="#000000" points="359.5,-59.2 359.5,-81.2 443.5,-81.2 443.5,-59.2 359.5,-59.2"/>
<text text-anchor="start" x="362.5" y="-66.9" font-family="Helvetica,sans-Serif" font-size="11.00" fill="#000000">varchar[12]</text>
<polygon fill="#ffffff" stroke="transparent" points="284.5,-40.2 284.5,-59.2 443.5,-59.2 443.5,-40.2 284.5,-40.2"/>
<polygon fill="none" stroke="#000000" points="284.5,-40.2 284.5,-59.2 443.5,-59.2 443.5,-40.2 284.5,-40.2"/>
<polygon fill="#ffffff" stroke="transparent" points="285.5,-41.2 285.5,-58.2 341.5,-58.2 341.5,-41.2 285.5,-41.2"/>
<text text-anchor="start" x="287.5" y="-46.3" font-family="Helvetica,sans-Serif" font-size="11.00" fill="#000000">&lt; 1</text>
<polygon fill="#ffffff" stroke="transparent" points="341.5,-41.2 341.5,-58.2 387.5,-58.2 387.5,-41.2 341.5,-41.2"/>
<text text-anchor="start" x="361.4431" y="-46.3" font-family="Helvetica,sans-Serif" font-size="11.00" fill="#000000"> &#160;</text>
<polygon fill="#ffffff" stroke="transparent" points="387.5,-41.2 387.5,-58.2 442.5,-58.2 442.5,-41.2 387.5,-41.2"/>
<text text-anchor="start" x="424.9053" y="-46.3" font-family="Helvetica,sans-Serif" font-size="11.00" fill="#000000">0 &gt;</text>
<polygon fill="#000000" stroke="#000000" points="341.5,-41.2 341.5,-58.2 341.5,-58.2 341.5,-41.2 341.5,-41.2"/>
<polygon fill="#000000" stroke="#000000" points="387.5,-41.2 387.5,-58.2 387.5,-58.2 387.5,-41.2 387.5,-41.2"/>
<polygon fill="none" stroke="#000000" stroke-width="2" points="283,-39.2 283,-237.2 444,-237.2 444,-39.2 283,-39.2"/>
</a>
</g>
</g>
<!-- 顧客別販売単価&#45;&gt;商品マスタ -->
<g id="edge7" class="edge">
<title>顧客別販売単価:w&#45;&gt;商品マスタ:e</title>
<path fill="none" stroke="#000000" d="M270.0901,-204.2586C204.8439,-225.8609 323.1056,-410.2 233.5,-410.2"/>
<polygon fill="#000000" stroke="#000000" points="276.5804,-203.3315 285.0092,-205.7638 280.5402,-202.7657 284.5,-202.2 284.5,-202.2 284.5,-202.2 280.5402,-202.7657 283.9908,-198.6362 276.5804,-203.3315 276.5804,-203.3315"/>
<ellipse fill="none" stroke="#000000" cx="273.4126" cy="-203.7841" rx="3.2" ry="3.2"/>
</g>
</g>
</svg>
