<?xml version="1.0" encoding="UTF-8" standalone="no"?>
<!DOCTYPE svg PUBLIC "-//W3C//DTD SVG 1.1//EN"
 "http://www.w3.org/Graphics/SVG/1.1/DTD/svg11.dtd">
<!-- Generated by graphviz version 2.40.1 (20161225.0304)
 -->
<!-- Title: twoDegreesRelationshipsDiagram Pages: 1 -->
<svg width="281pt" height="443pt"
 viewBox="0.00 0.00 281.00 442.70" xmlns="http://www.w3.org/2000/svg" xmlns:xlink="http://www.w3.org/1999/xlink">
<g id="graph0" class="graph" transform="scale(1 1) rotate(0) translate(4 438.7)">
<title>twoDegreesRelationshipsDiagram</title>
<polygon fill="#ffffff" stroke="transparent" points="-4,4 -4,-438.7 277,-438.7 277,4 -4,4"/>
<text text-anchor="middle" x="72.4936" y="-7.3" font-family="Helvetica,sans-Serif" font-size="11.00" fill="#000000">Generated by SchemaSpy</text>
<!-- 在庫 -->
<g id="node1" class="node">
<title>在庫</title>
<g id="a_node1"><a xlink:href="../../tables/___aec83.html" xlink:title="在庫" target="_top">
<polygon fill="#ffffff" stroke="transparent" points="205,-104.2 205,-275.2 265,-275.2 265,-104.2 205,-104.2"/>
<polygon fill="#f5f5f5" stroke="transparent" points="205,-251.7 205,-274.7 265,-274.7 265,-251.7 205,-251.7"/>
<polygon fill="none" stroke="#000000" points="205,-251.7 205,-274.7 265,-274.7 265,-251.7 205,-251.7"/>
<text text-anchor="start" x="202.9688" y="-260.3" font-family="Helvetica,sans-Serif" font-weight="bold" font-size="11.00" fill="#000000">在庫</text>
<text text-anchor="start" x="230.0437" y="-259.8" font-family="Helvetica,sans-Serif" font-size="11.00" fill="#000000">[table]</text>
<polygon fill="none" stroke="#000000" points="205,-229.7 205,-251.7 265,-251.7 265,-229.7 205,-229.7"/>
<image xlink:href="../../images/primaryKeys.png" width="11px" height="12px" preserveAspectRatio="xMinYMin meet" x="210" y="-246.7"/>
<text text-anchor="start" x="210.7232" y="-236.8" font-family="Helvetica,sans-Serif" font-size="11.00" fill="#000000">倉庫コード</text>
<polygon fill="none" stroke="#000000" points="205,-207.7 205,-229.7 265,-229.7 265,-207.7 205,-207.7"/>
<image xlink:href="../../images/primaryKeys.png" width="11px" height="12px" preserveAspectRatio="xMinYMin meet" x="210" y="-224.7"/>
<text text-anchor="start" x="212.5547" y="-214.8" font-family="Helvetica,sans-Serif" font-size="11.00" fill="#000000">商品コード</text>
<polygon fill="none" stroke="#000000" points="205,-185.7 205,-207.7 265,-207.7 265,-185.7 205,-185.7"/>
<image xlink:href="../../images/primaryKeys.png" width="11px" height="12px" preserveAspectRatio="xMinYMin meet" x="210" y="-202.7"/>
<text text-anchor="start" x="217.0543" y="-192.8" font-family="Helvetica,sans-Serif" font-size="11.00" fill="#000000">ロット番号</text>
<polygon fill="none" stroke="#000000" points="205,-163.7 205,-185.7 265,-185.7 265,-163.7 205,-163.7"/>
<image xlink:href="../../images/primaryKeys.png" width="11px" height="12px" preserveAspectRatio="xMinYMin meet" x="210" y="-180.7"/>
<text text-anchor="start" x="220.4956" y="-170.8" font-family="Helvetica,sans-Serif" font-size="11.00" fill="#000000">在庫区分</text>
<polygon fill="none" stroke="#000000" points="205,-141.7 205,-163.7 265,-163.7 265,-141.7 205,-141.7"/>
<image xlink:href="../../images/primaryKeys.png" width="11px" height="12px" preserveAspectRatio="xMinYMin meet" x="210" y="-158.7"/>
<text text-anchor="start" x="220.4956" y="-148.8" font-family="Helvetica,sans-Serif" font-size="11.00" fill="#000000">品質区分</text>
<polygon fill="none" stroke="#000000" points="205,-122.7 205,-141.7 265,-141.7 265,-122.7 205,-122.7"/>
<text text-anchor="start" x="208" y="-128.8" font-family="Helvetica,sans-Serif" font-size="11.00" fill="#000000">...</text>
<polygon fill="#ffffff" stroke="transparent" points="205,-103.7 205,-122.7 265,-122.7 265,-103.7 205,-103.7"/>
<polygon fill="none" stroke="#000000" points="205,-103.7 205,-122.7 265,-122.7 265,-103.7 205,-103.7"/>
<polygon fill="#ffffff" stroke="transparent" points="206,-104.7 206,-121.7 232,-121.7 232,-104.7 206,-104.7"/>
<text text-anchor="start" x="208" y="-109.8" font-family="Helvetica,sans-Serif" font-size="11.00" fill="#000000">&lt; 2</text>
<polygon fill="#ffffff" stroke="transparent" points="232,-104.7 232,-121.7 248,-121.7 248,-104.7 232,-104.7"/>
<text text-anchor="start" x="236.9431" y="-109.8" font-family="Helvetica,sans-Serif" font-size="11.00" fill="#000000"> &#160;</text>
<polygon fill="#ffffff" stroke="transparent" points="248,-104.7 248,-121.7 264,-121.7 264,-104.7 248,-104.7"/>
<text text-anchor="start" x="255.8862" y="-109.8" font-family="Helvetica,sans-Serif" font-size="11.00" fill="#000000"> &#160;</text>
<polygon fill="#000000" stroke="#000000" points="232,-104.7 232,-121.7 232,-121.7 232,-104.7 232,-104.7"/>
<polygon fill="#000000" stroke="#000000" points="248,-104.7 248,-121.7 248,-121.7 248,-104.7 248,-104.7"/>
</a>
</g>
</g>
<!-- 倉庫マスタ -->
<g id="node2" class="node">
<title>倉庫マスタ</title>
<g id="a_node2"><a xlink:href="../../tables/______939d4982.html" xlink:title="倉庫マスタ" target="_top">
<polygon fill="#ffffff" stroke="transparent" points="8,-120.7 8,-430.7 156,-430.7 156,-120.7 8,-120.7"/>
<polygon fill="#f5f5f5" stroke="transparent" points="10,-405.7 10,-428.7 154,-428.7 154,-405.7 10,-405.7"/>
<polygon fill="none" stroke="#000000" points="10,-405.7 10,-428.7 154,-428.7 154,-405.7 10,-405.7"/>
<text text-anchor="start" x="4.0898" y="-414.3" font-family="Helvetica,sans-Serif" font-weight="bold" font-size="11.00" fill="#000000">倉庫マスタ</text>
<text text-anchor="start" x="119.0437" y="-413.8" font-family="Helvetica,sans-Serif" font-size="11.00" fill="#000000">[table]</text>
<polygon fill="none" stroke="#000000" points="10,-383.7 10,-405.7 70,-405.7 70,-383.7 10,-383.7"/>
<image xlink:href="../../images/primaryKeys.png" width="11px" height="12px" preserveAspectRatio="xMinYMin meet" x="15" y="-400.7"/>
<text text-anchor="start" x="15.7232" y="-390.8" font-family="Helvetica,sans-Serif" font-size="11.00" fill="#000000">倉庫コード</text>
<polygon fill="none" stroke="#000000" points="70,-383.7 70,-405.7 154,-405.7 154,-383.7 70,-383.7"/>
<text text-anchor="start" x="73" y="-391.4" font-family="Helvetica,sans-Serif" font-size="11.00" fill="#000000">varchar[3]</text>
<polygon fill="#ffffff" stroke="transparent" points="10,-361.7 10,-383.7 70,-383.7 70,-361.7 10,-361.7"/>
<polygon fill="none" stroke="#000000" points="10,-361.7 10,-383.7 70,-383.7 70,-361.7 10,-361.7"/>
<text text-anchor="start" x="30" y="-368.8" font-family="Helvetica,sans-Serif" font-size="11.00" fill="#000000">倉庫名</text>
<polygon fill="none" stroke="#000000" points="70,-361.7 70,-383.7 154,-383.7 154,-361.7 70,-361.7"/>
<text text-anchor="start" x="73" y="-369.4" font-family="Helvetica,sans-Serif" font-size="11.00" fill="#000000">varchar[40]</text>
<polygon fill="none" stroke="#000000" points="10,-339.7 10,-361.7 70,-361.7 70,-339.7 10,-339.7"/>
<text text-anchor="start" x="23.8786" y="-346.8" font-family="Helvetica,sans-Serif" font-size="11.00" fill="#000000">郵便番号</text>
<polygon fill="none" stroke="#000000" points="70,-339.7 70,-361.7 154,-361.7 154,-339.7 70,-339.7"/>
<text text-anchor="start" x="73" y="-347.4" font-family="Helvetica,sans-Serif" font-size="11.00" fill="#000000">varchar[8]</text>
<polygon fill="none" stroke="#000000" points="10,-317.7 10,-339.7 70,-339.7 70,-317.7 10,-317.7"/>
<text text-anchor="start" x="19.3846" y="-324.8" font-family="Helvetica,sans-Serif" font-size="11.00" fill="#000000">都道府県</text>
<polygon fill="none" stroke="#000000" points="70,-317.7 70,-339.7 154,-339.7 154,-317.7 70,-317.7"/>
<text text-anchor="start" x="73" y="-325.4" font-family="Helvetica,sans-Serif" font-size="11.00" fill="#000000">varchar[4]</text>
<polygon fill="none" stroke="#000000" points="10,-295.7 10,-317.7 70,-317.7 70,-295.7 10,-295.7"/>
<text text-anchor="start" x="25.8009" y="-302.8" font-family="Helvetica,sans-Serif" font-size="11.00" fill="#000000">住所１</text>
<polygon fill="none" stroke="#000000" points="70,-295.7 70,-317.7 154,-317.7 154,-295.7 70,-295.7"/>
<text text-anchor="start" x="73" y="-303.4" font-family="Helvetica,sans-Serif" font-size="11.00" fill="#000000">varchar[40]</text>
<polygon fill="none" stroke="#000000" points="10,-273.7 10,-295.7 70,-295.7 70,-273.7 10,-273.7"/>
<text text-anchor="start" x="25.8009" y="-280.8" font-family="Helvetica,sans-Serif" font-size="11.00" fill="#000000">住所２</text>
<polygon fill="none" stroke="#000000" points="70,-273.7 70,-295.7 154,-295.7 154,-273.7 70,-273.7"/>
<text text-anchor="start" x="73" y="-281.4" font-family="Helvetica,sans-Serif" font-size="11.00" fill="#000000">varchar[40]</text>
<polygon fill="none" stroke="#000000" points="10,-251.7 10,-273.7 70,-273.7 70,-251.7 10,-251.7"/>
<text text-anchor="start" x="21.6016" y="-258.8" font-family="Helvetica,sans-Serif" font-size="11.00" fill="#000000">電話番号</text>
<polygon fill="none" stroke="#000000" points="70,-251.7 70,-273.7 154,-273.7 154,-251.7 70,-251.7"/>
<text text-anchor="start" x="73" y="-259.4" font-family="Helvetica,sans-Serif" font-size="11.00" fill="#000000">varchar[15]</text>
<polygon fill="none" stroke="#000000" points="10,-229.7 10,-251.7 70,-251.7 70,-229.7 10,-229.7"/>
<text text-anchor="start" x="30" y="-236.8" font-family="Helvetica,sans-Serif" font-size="11.00" fill="#000000">fax番号</text>
<polygon fill="none" stroke="#000000" points="70,-229.7 70,-251.7 154,-251.7 154,-229.7 70,-229.7"/>
<text text-anchor="start" x="73" y="-237.4" font-family="Helvetica,sans-Serif" font-size="11.00" fill="#000000">varchar[15]</text>
<polygon fill="none" stroke="#000000" points="10,-207.7 10,-229.7 70,-229.7 70,-207.7 10,-207.7"/>
<text text-anchor="start" x="23.6581" y="-214.8" font-family="Helvetica,sans-Serif" font-size="11.00" fill="#000000">作成日時</text>
<polygon fill="none" stroke="#000000" points="70,-207.7 70,-229.7 154,-229.7 154,-207.7 70,-207.7"/>
<text text-anchor="start" x="72.8807" y="-215.4" font-family="Helvetica,sans-Serif" font-size="11.00" fill="#000000">timestamp[29,6]</text>
<polygon fill="none" stroke="#000000" points="10,-185.7 10,-207.7 70,-207.7 70,-185.7 10,-185.7"/>
<text text-anchor="start" x="23.6581" y="-192.8" font-family="Helvetica,sans-Serif" font-size="11.00" fill="#000000">作成者名</text>
<polygon fill="none" stroke="#000000" points="70,-185.7 70,-207.7 154,-207.7 154,-185.7 70,-185.7"/>
<text text-anchor="start" x="73" y="-193.4" font-family="Helvetica,sans-Serif" font-size="11.00" fill="#000000">varchar[12]</text>
<polygon fill="none" stroke="#000000" points="10,-163.7 10,-185.7 70,-185.7 70,-163.7 10,-163.7"/>
<text text-anchor="start" x="27.6296" y="-170.8" font-family="Helvetica,sans-Serif" font-size="11.00" fill="#000000">更新日時</text>
<polygon fill="none" stroke="#000000" points="70,-163.7 70,-185.7 154,-185.7 154,-163.7 70,-163.7"/>
<text text-anchor="start" x="72.8807" y="-171.4" font-family="Helvetica,sans-Serif" font-size="11.00" fill="#000000">timestamp[29,6]</text>
<polygon fill="none" stroke="#000000" points="10,-141.7 10,-163.7 70,-163.7 70,-141.7 10,-141.7"/>
<text text-anchor="start" x="27.6296" y="-148.8" font-family="Helvetica,sans-Serif" font-size="11.00" fill="#000000">更新者名</text>
<polygon fill="none" stroke="#000000" points="70,-141.7 70,-163.7 154,-163.7 154,-141.7 70,-141.7"/>
<text text-anchor="start" x="73" y="-149.4" font-family="Helvetica,sans-Serif" font-size="11.00" fill="#000000">varchar[12]</text>
<polygon fill="#ffffff" stroke="transparent" points="10,-122.7 10,-141.7 154,-141.7 154,-122.7 10,-122.7"/>
<polygon fill="none" stroke="#000000" points="10,-122.7 10,-141.7 154,-141.7 154,-122.7 10,-122.7"/>
<polygon fill="#ffffff" stroke="transparent" points="11,-123.7 11,-140.7 62,-140.7 62,-123.7 11,-123.7"/>
<text text-anchor="start" x="13" y="-128.8" font-family="Helvetica,sans-Serif" font-size="11.00" fill="#000000">&lt; 0</text>
<polygon fill="#ffffff" stroke="transparent" points="62,-123.7 62,-140.7 103,-140.7 103,-123.7 62,-123.7"/>
<text text-anchor="start" x="79.4431" y="-128.8" font-family="Helvetica,sans-Serif" font-size="11.00" fill="#000000"> &#160;</text>
<polygon fill="#ffffff" stroke="transparent" points="103,-123.7 103,-140.7 153,-140.7 153,-123.7 103,-123.7"/>
<text text-anchor="start" x="135.4053" y="-128.8" font-family="Helvetica,sans-Serif" font-size="11.00" fill="#000000">1 &gt;</text>
<polygon fill="#000000" stroke="#000000" points="62,-123.7 62,-140.7 62,-140.7 62,-123.7 62,-123.7"/>
<polygon fill="#000000" stroke="#000000" points="103,-123.7 103,-140.7 103,-140.7 103,-123.7 103,-123.7"/>
<polygon fill="none" stroke="#000000" stroke-width="2" points="9,-121.7 9,-429.7 155,-429.7 155,-121.7 9,-121.7"/>
</a>
</g>
</g>
<!-- 在庫&#45;&gt;倉庫マスタ -->
<g id="edge1" class="edge">
<title>在庫:w&#45;&gt;倉庫マスタ:e</title>
<path fill="none" stroke="#000000" d="M190.6893,-243.5044C146.7665,-264.3765 220.3264,-394.7 154,-394.7"/>
<polygon fill="#000000" stroke="#000000" points="197.1493,-242.2385 205.6923,-244.2328 201.0747,-241.4693 205,-240.7 205,-240.7 205,-240.7 201.0747,-241.4693 204.3077,-237.1672 197.1493,-242.2385 197.1493,-242.2385"/>
<ellipse fill="none" stroke="#000000" cx="194.0091" cy="-242.8539" rx="3.2" ry="3.2"/>
</g>
<!-- 商品マスタ -->
<g id="node3" class="node">
<title>商品マスタ</title>
<g id="a_node3"><a xlink:href="../../tables/______d8ecb269.html" xlink:title="商品マスタ" target="_top">
<polygon fill="#ffffff" stroke="transparent" points="43,-38.2 43,-99.2 121,-99.2 121,-38.2 43,-38.2"/>
<polygon fill="#f5f5f5" stroke="transparent" points="43,-75.7 43,-98.7 121,-98.7 121,-75.7 43,-75.7"/>
<polygon fill="none" stroke="#000000" points="43,-75.7 43,-98.7 121,-98.7 121,-75.7 43,-75.7"/>
<text text-anchor="start" x="38.9213" y="-84.3" font-family="Helvetica,sans-Serif" font-weight="bold" font-size="11.00" fill="#000000">商品マスタ</text>
<text text-anchor="start" x="86.5219" y="-83.8" font-family="Helvetica,sans-Serif" font-size="11.00" fill="#000000">[table]</text>
<polygon fill="none" stroke="#000000" points="43,-56.7 43,-75.7 121,-75.7 121,-56.7 43,-56.7"/>
<text text-anchor="start" x="46" y="-62.8" font-family="Helvetica,sans-Serif" font-size="11.00" fill="#000000">...</text>
<polygon fill="#ffffff" stroke="transparent" points="43,-37.7 43,-56.7 121,-56.7 121,-37.7 43,-37.7"/>
<polygon fill="none" stroke="#000000" points="43,-37.7 43,-56.7 121,-56.7 121,-37.7 43,-37.7"/>
<polygon fill="#ffffff" stroke="transparent" points="44,-38.7 44,-55.7 73,-55.7 73,-38.7 44,-38.7"/>
<text text-anchor="start" x="46" y="-43.8" font-family="Helvetica,sans-Serif" font-size="11.00" fill="#000000">&lt; 1</text>
<polygon fill="#ffffff" stroke="transparent" points="73,-38.7 73,-55.7 92,-55.7 92,-38.7 73,-38.7"/>
<text text-anchor="start" x="79.4431" y="-43.8" font-family="Helvetica,sans-Serif" font-size="11.00" fill="#000000"> &#160;</text>
<polygon fill="#ffffff" stroke="transparent" points="92,-38.7 92,-55.7 120,-55.7 120,-38.7 92,-38.7"/>
<text text-anchor="start" x="102.4053" y="-43.8" font-family="Helvetica,sans-Serif" font-size="11.00" fill="#000000">6 &gt;</text>
<polygon fill="#000000" stroke="#000000" points="73,-38.7 73,-55.7 73,-55.7 73,-38.7 73,-38.7"/>
<polygon fill="#000000" stroke="#000000" points="92,-38.7 92,-55.7 92,-55.7 92,-38.7 92,-38.7"/>
</a>
</g>
</g>
<!-- 在庫&#45;&gt;商品マスタ -->
<g id="edge2" class="edge">
<title>在庫:w&#45;&gt;商品マスタ:e</title>
<path fill="none" stroke="#000000" d="M190.7567,-216.3386C161.371,-204.3411 188.2889,-149.2058 164,-110.7 149.2415,-87.303 148.6629,-65.7 121,-65.7"/>
<polygon fill="#000000" stroke="#000000" points="197.1077,-217.3915 204.4112,-222.2515 201.0539,-218.0458 205,-218.7 205,-218.7 205,-218.7 201.0539,-218.0458 205.5888,-215.1485 197.1077,-217.3915 197.1077,-217.3915"/>
<ellipse fill="none" stroke="#000000" cx="193.9508" cy="-216.8681" rx="3.2" ry="3.2"/>
</g>
</g>
</svg>
