<?xml version="1.0" encoding="UTF-8" standalone="no"?>
<!DOCTYPE svg PUBLIC "-//W3C//DTD SVG 1.1//EN"
 "http://www.w3.org/Graphics/SVG/1.1/DTD/svg11.dtd">
<!-- Generated by graphviz version 2.40.1 (20161225.0304)
 -->
<!-- Title: twoDegreesRelationshipsDiagram Pages: 1 -->
<svg width="479pt" height="920pt"
 viewBox="0.00 0.00 479.00 920.20" xmlns="http://www.w3.org/2000/svg" xmlns:xlink="http://www.w3.org/1999/xlink">
<g id="graph0" class="graph" transform="scale(1 1) rotate(0) translate(4 916.2)">
<title>twoDegreesRelationshipsDiagram</title>
<polygon fill="#ffffff" stroke="transparent" points="-4,4 -4,-916.2 475,-916.2 475,4 -4,4"/>
<text text-anchor="middle" x="72.4936" y="-7.3" font-family="Helvetica,sans-Serif" font-size="11.00" fill="#000000">Generated by SchemaSpy</text>
<!-- 代替商品 -->
<g id="node1" class="node">
<title>代替商品</title>
<g id="a_node1"><a xlink:href="../../tables/_____25696db7.html" xlink:title="代替商品" target="_top">
<polygon fill="#ffffff" stroke="transparent" points="379,-677.2 379,-782.2 454,-782.2 454,-677.2 379,-677.2"/>
<polygon fill="#f5f5f5" stroke="transparent" points="379.5,-758.7 379.5,-781.7 454.5,-781.7 454.5,-758.7 379.5,-758.7"/>
<polygon fill="none" stroke="#000000" points="379.5,-758.7 379.5,-781.7 454.5,-781.7 454.5,-758.7 379.5,-758.7"/>
<text text-anchor="start" x="374.7691" y="-767.3" font-family="Helvetica,sans-Serif" font-weight="bold" font-size="11.00" fill="#000000">代替商品</text>
<text text-anchor="start" x="419.5437" y="-766.8" font-family="Helvetica,sans-Serif" font-size="11.00" fill="#000000">[table]</text>
<polygon fill="none" stroke="#000000" points="379.5,-736.7 379.5,-758.7 454.5,-758.7 454.5,-736.7 379.5,-736.7"/>
<image xlink:href="../../images/primaryKeys.png" width="11px" height="12px" preserveAspectRatio="xMinYMin meet" x="384.5" y="-753.7"/>
<text text-anchor="start" x="394.5547" y="-743.8" font-family="Helvetica,sans-Serif" font-size="11.00" fill="#000000">商品コード</text>
<polygon fill="none" stroke="#000000" points="379.5,-714.7 379.5,-736.7 454.5,-736.7 454.5,-714.7 379.5,-714.7"/>
<image xlink:href="../../images/primaryKeys.png" width="11px" height="12px" preserveAspectRatio="xMinYMin meet" x="384.5" y="-731.7"/>
<text text-anchor="start" x="380.4945" y="-721.8" font-family="Helvetica,sans-Serif" font-size="11.00" fill="#000000">代替商品コード</text>
<polygon fill="none" stroke="#000000" points="379.5,-695.7 379.5,-714.7 454.5,-714.7 454.5,-695.7 379.5,-695.7"/>
<text text-anchor="start" x="382.5" y="-701.8" font-family="Helvetica,sans-Serif" font-size="11.00" fill="#000000">...</text>
<polygon fill="#ffffff" stroke="transparent" points="379.5,-676.7 379.5,-695.7 454.5,-695.7 454.5,-676.7 379.5,-676.7"/>
<polygon fill="none" stroke="#000000" points="379.5,-676.7 379.5,-695.7 454.5,-695.7 454.5,-676.7 379.5,-676.7"/>
<polygon fill="#ffffff" stroke="transparent" points="380.5,-677.7 380.5,-694.7 411.5,-694.7 411.5,-677.7 380.5,-677.7"/>
<text text-anchor="start" x="382.5" y="-682.8" font-family="Helvetica,sans-Serif" font-size="11.00" fill="#000000">&lt; 2</text>
<polygon fill="#ffffff" stroke="transparent" points="411.5,-677.7 411.5,-694.7 432.5,-694.7 432.5,-677.7 411.5,-677.7"/>
<text text-anchor="start" x="418.9431" y="-682.8" font-family="Helvetica,sans-Serif" font-size="11.00" fill="#000000"> &#160;</text>
<polygon fill="#ffffff" stroke="transparent" points="432.5,-677.7 432.5,-694.7 453.5,-694.7 453.5,-677.7 432.5,-677.7"/>
<text text-anchor="start" x="445.3862" y="-682.8" font-family="Helvetica,sans-Serif" font-size="11.00" fill="#000000"> &#160;</text>
<polygon fill="#000000" stroke="#000000" points="411.5,-677.7 411.5,-694.7 411.5,-694.7 411.5,-677.7 411.5,-677.7"/>
<polygon fill="#000000" stroke="#000000" points="432.5,-677.7 432.5,-694.7 432.5,-694.7 432.5,-677.7 432.5,-677.7"/>
</a>
</g>
</g>
<!-- 商品マスタ -->
<g id="node2" class="node">
<title>商品マスタ</title>
<g id="a_node2"><a xlink:href="../../tables/______d8ecb269.html" xlink:title="商品マスタ" target="_top">
<polygon fill="#ffffff" stroke="transparent" points="150,-297.7 150,-783.7 321,-783.7 321,-297.7 150,-297.7"/>
<polygon fill="#f5f5f5" stroke="transparent" points="152.5,-758.7 152.5,-781.7 319.5,-781.7 319.5,-758.7 152.5,-758.7"/>
<polygon fill="none" stroke="#000000" points="152.5,-758.7 152.5,-781.7 319.5,-781.7 319.5,-758.7 152.5,-758.7"/>
<text text-anchor="start" x="148.4212" y="-767.3" font-family="Helvetica,sans-Serif" font-weight="bold" font-size="11.00" fill="#000000">商品マスタ</text>
<text text-anchor="start" x="284.5437" y="-766.8" font-family="Helvetica,sans-Serif" font-size="11.00" fill="#000000">[table]</text>
<polygon fill="none" stroke="#000000" points="152.5,-736.7 152.5,-758.7 235.5,-758.7 235.5,-736.7 152.5,-736.7"/>
<image xlink:href="../../images/primaryKeys.png" width="11px" height="12px" preserveAspectRatio="xMinYMin meet" x="157.5" y="-753.7"/>
<text text-anchor="start" x="171.5547" y="-743.8" font-family="Helvetica,sans-Serif" font-size="11.00" fill="#000000">商品コード</text>
<polygon fill="none" stroke="#000000" points="235.5,-736.7 235.5,-758.7 319.5,-758.7 319.5,-736.7 235.5,-736.7"/>
<text text-anchor="start" x="238.5" y="-744.4" font-family="Helvetica,sans-Serif" font-size="11.00" fill="#000000">varchar[16]</text>
<polygon fill="none" stroke="#000000" points="152.5,-714.7 152.5,-736.7 235.5,-736.7 235.5,-714.7 152.5,-714.7"/>
<text text-anchor="start" x="172.5" y="-721.8" font-family="Helvetica,sans-Serif" font-size="11.00" fill="#000000">商品正式名</text>
<polygon fill="none" stroke="#000000" points="235.5,-714.7 235.5,-736.7 319.5,-736.7 319.5,-714.7 235.5,-714.7"/>
<text text-anchor="start" x="238.5" y="-722.4" font-family="Helvetica,sans-Serif" font-size="11.00" fill="#000000">varchar[40]</text>
<polygon fill="#ffffff" stroke="transparent" points="152.5,-692.7 152.5,-714.7 235.5,-714.7 235.5,-692.7 152.5,-692.7"/>
<polygon fill="none" stroke="#000000" points="152.5,-692.7 152.5,-714.7 235.5,-714.7 235.5,-692.7 152.5,-692.7"/>
<text text-anchor="start" x="172.5" y="-699.8" font-family="Helvetica,sans-Serif" font-size="11.00" fill="#000000">商品略称</text>
<polygon fill="none" stroke="#000000" points="235.5,-692.7 235.5,-714.7 319.5,-714.7 319.5,-692.7 235.5,-692.7"/>
<text text-anchor="start" x="238.5" y="-700.4" font-family="Helvetica,sans-Serif" font-size="11.00" fill="#000000">varchar[10]</text>
<polygon fill="none" stroke="#000000" points="152.5,-670.7 152.5,-692.7 235.5,-692.7 235.5,-670.7 152.5,-670.7"/>
<text text-anchor="start" x="172.5" y="-677.8" font-family="Helvetica,sans-Serif" font-size="11.00" fill="#000000">商品名カナ</text>
<polygon fill="none" stroke="#000000" points="235.5,-670.7 235.5,-692.7 319.5,-692.7 319.5,-670.7 235.5,-670.7"/>
<text text-anchor="start" x="238.5" y="-678.4" font-family="Helvetica,sans-Serif" font-size="11.00" fill="#000000">varchar[80]</text>
<polygon fill="none" stroke="#000000" points="152.5,-648.7 152.5,-670.7 235.5,-670.7 235.5,-648.7 152.5,-648.7"/>
<text text-anchor="start" x="172.5" y="-655.8" font-family="Helvetica,sans-Serif" font-size="11.00" fill="#000000">商品区分</text>
<polygon fill="none" stroke="#000000" points="235.5,-648.7 235.5,-670.7 319.5,-670.7 319.5,-648.7 235.5,-648.7"/>
<text text-anchor="start" x="238.5" y="-656.4" font-family="Helvetica,sans-Serif" font-size="11.00" fill="#000000">varchar[8]</text>
<polygon fill="none" stroke="#000000" points="152.5,-626.7 152.5,-648.7 235.5,-648.7 235.5,-626.7 152.5,-626.7"/>
<text text-anchor="start" x="172.5" y="-633.8" font-family="Helvetica,sans-Serif" font-size="11.00" fill="#000000">製品型番</text>
<polygon fill="none" stroke="#000000" points="235.5,-626.7 235.5,-648.7 319.5,-648.7 319.5,-626.7 235.5,-626.7"/>
<text text-anchor="start" x="238.5" y="-634.4" font-family="Helvetica,sans-Serif" font-size="11.00" fill="#000000">varchar[30]</text>
<polygon fill="none" stroke="#000000" points="152.5,-604.7 152.5,-626.7 235.5,-626.7 235.5,-604.7 152.5,-604.7"/>
<text text-anchor="start" x="172.5" y="-611.8" font-family="Helvetica,sans-Serif" font-size="11.00" fill="#000000">販売単価</text>
<polygon fill="none" stroke="#000000" points="235.5,-604.7 235.5,-626.7 319.5,-626.7 319.5,-604.7 235.5,-604.7"/>
<text text-anchor="start" x="238.5" y="-612.4" font-family="Helvetica,sans-Serif" font-size="11.00" fill="#000000">int4[10]</text>
<polygon fill="none" stroke="#000000" points="152.5,-582.7 152.5,-604.7 235.5,-604.7 235.5,-582.7 152.5,-582.7"/>
<text text-anchor="start" x="172.5" y="-589.8" font-family="Helvetica,sans-Serif" font-size="11.00" fill="#000000">仕入単価</text>
<polygon fill="none" stroke="#000000" points="235.5,-582.7 235.5,-604.7 319.5,-604.7 319.5,-582.7 235.5,-582.7"/>
<text text-anchor="start" x="238.5" y="-590.4" font-family="Helvetica,sans-Serif" font-size="11.00" fill="#000000">int4[10]</text>
<polygon fill="none" stroke="#000000" points="152.5,-560.7 152.5,-582.7 235.5,-582.7 235.5,-560.7 152.5,-560.7"/>
<text text-anchor="start" x="172.5" y="-567.8" font-family="Helvetica,sans-Serif" font-size="11.00" fill="#000000">売上原価</text>
<polygon fill="none" stroke="#000000" points="235.5,-560.7 235.5,-582.7 319.5,-582.7 319.5,-560.7 235.5,-560.7"/>
<text text-anchor="start" x="238.5" y="-568.4" font-family="Helvetica,sans-Serif" font-size="11.00" fill="#000000">int4[10]</text>
<polygon fill="none" stroke="#000000" points="152.5,-538.7 152.5,-560.7 235.5,-560.7 235.5,-538.7 152.5,-538.7"/>
<text text-anchor="start" x="172.5" y="-545.8" font-family="Helvetica,sans-Serif" font-size="11.00" fill="#000000">税区分</text>
<polygon fill="none" stroke="#000000" points="235.5,-538.7 235.5,-560.7 319.5,-560.7 319.5,-538.7 235.5,-538.7"/>
<text text-anchor="start" x="238.5" y="-546.4" font-family="Helvetica,sans-Serif" font-size="11.00" fill="#000000">int4[10]</text>
<polygon fill="#ffffff" stroke="transparent" points="152.5,-516.7 152.5,-538.7 235.5,-538.7 235.5,-516.7 152.5,-516.7"/>
<polygon fill="none" stroke="#000000" points="152.5,-516.7 152.5,-538.7 235.5,-538.7 235.5,-516.7 152.5,-516.7"/>
<image xlink:href="../../images/foreignKeys.png" width="11px" height="12px" preserveAspectRatio="xMinYMin meet" x="157.5" y="-533.7"/>
<text text-anchor="start" x="159.3315" y="-523.8" font-family="Helvetica,sans-Serif" font-size="11.00" fill="#000000">商品分類コード</text>
<polygon fill="none" stroke="#000000" points="235.5,-516.7 235.5,-538.7 319.5,-538.7 319.5,-516.7 235.5,-516.7"/>
<text text-anchor="start" x="238.5" y="-524.4" font-family="Helvetica,sans-Serif" font-size="11.00" fill="#000000">varchar[8]</text>
<polygon fill="none" stroke="#000000" points="152.5,-494.7 152.5,-516.7 235.5,-516.7 235.5,-494.7 152.5,-494.7"/>
<text text-anchor="start" x="172.5" y="-501.8" font-family="Helvetica,sans-Serif" font-size="11.00" fill="#000000">雑区分</text>
<polygon fill="none" stroke="#000000" points="235.5,-494.7 235.5,-516.7 319.5,-516.7 319.5,-494.7 235.5,-494.7"/>
<text text-anchor="start" x="238.5" y="-502.4" font-family="Helvetica,sans-Serif" font-size="11.00" fill="#000000">int4[10]</text>
<polygon fill="none" stroke="#000000" points="152.5,-472.7 152.5,-494.7 235.5,-494.7 235.5,-472.7 152.5,-472.7"/>
<text text-anchor="start" x="155.0481" y="-479.8" font-family="Helvetica,sans-Serif" font-size="11.00" fill="#000000">在庫管理対象区分</text>
<polygon fill="none" stroke="#000000" points="235.5,-472.7 235.5,-494.7 319.5,-494.7 319.5,-472.7 235.5,-472.7"/>
<text text-anchor="start" x="238.5" y="-480.4" font-family="Helvetica,sans-Serif" font-size="11.00" fill="#000000">int4[10]</text>
<polygon fill="none" stroke="#000000" points="152.5,-450.7 152.5,-472.7 235.5,-472.7 235.5,-450.7 152.5,-450.7"/>
<text text-anchor="start" x="162.3818" y="-457.8" font-family="Helvetica,sans-Serif" font-size="11.00" fill="#000000">在庫引当区分</text>
<polygon fill="none" stroke="#000000" points="235.5,-450.7 235.5,-472.7 319.5,-472.7 319.5,-450.7 235.5,-450.7"/>
<text text-anchor="start" x="238.5" y="-458.4" font-family="Helvetica,sans-Serif" font-size="11.00" fill="#000000">int4[10]</text>
<polygon fill="#ffffff" stroke="transparent" points="152.5,-428.7 152.5,-450.7 235.5,-450.7 235.5,-428.7 152.5,-428.7"/>
<polygon fill="none" stroke="#000000" points="152.5,-428.7 152.5,-450.7 235.5,-450.7 235.5,-428.7 152.5,-428.7"/>
<text text-anchor="start" x="163.9114" y="-435.8" font-family="Helvetica,sans-Serif" font-size="11.00" fill="#000000">仕入先コード</text>
<polygon fill="none" stroke="#000000" points="235.5,-428.7 235.5,-450.7 319.5,-450.7 319.5,-428.7 235.5,-428.7"/>
<text text-anchor="start" x="238.5" y="-436.4" font-family="Helvetica,sans-Serif" font-size="11.00" fill="#000000">varchar[8]</text>
<polygon fill="#ffffff" stroke="transparent" points="152.5,-406.7 152.5,-428.7 235.5,-428.7 235.5,-406.7 152.5,-406.7"/>
<polygon fill="none" stroke="#000000" points="152.5,-406.7 152.5,-428.7 235.5,-428.7 235.5,-406.7 152.5,-406.7"/>
<text text-anchor="start" x="172.5" y="-413.8" font-family="Helvetica,sans-Serif" font-size="11.00" fill="#000000">仕入先枝番</text>
<polygon fill="none" stroke="#000000" points="235.5,-406.7 235.5,-428.7 319.5,-428.7 319.5,-406.7 235.5,-406.7"/>
<text text-anchor="start" x="238.5" y="-414.4" font-family="Helvetica,sans-Serif" font-size="11.00" fill="#000000">int4[10]</text>
<polygon fill="none" stroke="#000000" points="152.5,-384.7 152.5,-406.7 235.5,-406.7 235.5,-384.7 152.5,-384.7"/>
<text text-anchor="start" x="172.5" y="-391.8" font-family="Helvetica,sans-Serif" font-size="11.00" fill="#000000">作成日時</text>
<polygon fill="none" stroke="#000000" points="235.5,-384.7 235.5,-406.7 319.5,-406.7 319.5,-384.7 235.5,-384.7"/>
<text text-anchor="start" x="238.3807" y="-392.4" font-family="Helvetica,sans-Serif" font-size="11.00" fill="#000000">timestamp[29,6]</text>
<polygon fill="none" stroke="#000000" points="152.5,-362.7 152.5,-384.7 235.5,-384.7 235.5,-362.7 152.5,-362.7"/>
<text text-anchor="start" x="172.5" y="-369.8" font-family="Helvetica,sans-Serif" font-size="11.00" fill="#000000">作成者名</text>
<polygon fill="none" stroke="#000000" points="235.5,-362.7 235.5,-384.7 319.5,-384.7 319.5,-362.7 235.5,-362.7"/>
<text text-anchor="start" x="238.5" y="-370.4" font-family="Helvetica,sans-Serif" font-size="11.00" fill="#000000">varchar[12]</text>
<polygon fill="none" stroke="#000000" points="152.5,-340.7 152.5,-362.7 235.5,-362.7 235.5,-340.7 152.5,-340.7"/>
<text text-anchor="start" x="172.5" y="-347.8" font-family="Helvetica,sans-Serif" font-size="11.00" fill="#000000">更新日時</text>
<polygon fill="none" stroke="#000000" points="235.5,-340.7 235.5,-362.7 319.5,-362.7 319.5,-340.7 235.5,-340.7"/>
<text text-anchor="start" x="238.3807" y="-348.4" font-family="Helvetica,sans-Serif" font-size="11.00" fill="#000000">timestamp[29,6]</text>
<polygon fill="none" stroke="#000000" points="152.5,-318.7 152.5,-340.7 235.5,-340.7 235.5,-318.7 152.5,-318.7"/>
<text text-anchor="start" x="172.5" y="-325.8" font-family="Helvetica,sans-Serif" font-size="11.00" fill="#000000">更新者名</text>
<polygon fill="none" stroke="#000000" points="235.5,-318.7 235.5,-340.7 319.5,-340.7 319.5,-318.7 235.5,-318.7"/>
<text text-anchor="start" x="238.5" y="-326.4" font-family="Helvetica,sans-Serif" font-size="11.00" fill="#000000">varchar[12]</text>
<polygon fill="#ffffff" stroke="transparent" points="152.5,-299.7 152.5,-318.7 319.5,-318.7 319.5,-299.7 152.5,-299.7"/>
<polygon fill="none" stroke="#000000" points="152.5,-299.7 152.5,-318.7 319.5,-318.7 319.5,-299.7 152.5,-299.7"/>
<polygon fill="#ffffff" stroke="transparent" points="153.5,-300.7 153.5,-317.7 211.5,-317.7 211.5,-300.7 153.5,-300.7"/>
<text text-anchor="start" x="155.5" y="-305.8" font-family="Helvetica,sans-Serif" font-size="11.00" fill="#000000">&lt; 1</text>
<polygon fill="#ffffff" stroke="transparent" points="211.5,-300.7 211.5,-317.7 260.5,-317.7 260.5,-300.7 211.5,-300.7"/>
<text text-anchor="start" x="232.9431" y="-305.8" font-family="Helvetica,sans-Serif" font-size="11.00" fill="#000000"> &#160;</text>
<polygon fill="#ffffff" stroke="transparent" points="260.5,-300.7 260.5,-317.7 318.5,-317.7 318.5,-300.7 260.5,-300.7"/>
<text text-anchor="start" x="300.9053" y="-305.8" font-family="Helvetica,sans-Serif" font-size="11.00" fill="#000000">6 &gt;</text>
<polygon fill="#000000" stroke="#000000" points="211.5,-300.7 211.5,-317.7 211.5,-317.7 211.5,-300.7 211.5,-300.7"/>
<polygon fill="#000000" stroke="#000000" points="260.5,-300.7 260.5,-317.7 260.5,-317.7 260.5,-300.7 260.5,-300.7"/>
<polygon fill="none" stroke="#000000" stroke-width="2" points="151,-298.7 151,-782.7 320,-782.7 320,-298.7 151,-298.7"/>
</a>
</g>
</g>
<!-- 代替商品&#45;&gt;商品マスタ -->
<g id="edge1" class="edge">
<title>代替商品:w&#45;&gt;商品マスタ:e</title>
<path fill="none" stroke="#000000" d="M364.8898,-728.0544C348.7594,-733.7298 342.1334,-747.7 319.5,-747.7"/>
<polygon fill="#000000" stroke="#000000" points="371.6019,-726.9728 380.0728,-729.2541 375.5509,-726.3364 379.5,-725.7 379.5,-725.7 379.5,-725.7 375.5509,-726.3364 378.9272,-722.1459 371.6019,-726.9728 371.6019,-726.9728"/>
<ellipse fill="none" stroke="#000000" cx="368.4426" cy="-727.4819" rx="3.2" ry="3.2"/>
</g>
<!-- 代替商品&#45;&gt;商品マスタ -->
<g id="edge2" class="edge">
<title>代替商品:w&#45;&gt;商品マスタ:e</title>
<path fill="none" stroke="#000000" d="M364.9193,-747.7C349.1309,-747.7 340.5417,-747.7 319.5,-747.7"/>
<polygon fill="#000000" stroke="#000000" points="371.5,-747.7001 379.5,-751.3 375.5,-747.7 379.5,-747.7 379.5,-747.7 379.5,-747.7 375.5,-747.7 379.5,-744.1 371.5,-747.7001 371.5,-747.7001"/>
<ellipse fill="none" stroke="#000000" cx="368.3" cy="-747.7001" rx="3.2" ry="3.2"/>
</g>
<!-- 商品分類マスタ -->
<g id="node5" class="node">
<title>商品分類マスタ</title>
<g id="a_node5"><a xlink:href="../../tables/________52e8cf11.html" xlink:title="商品分類マスタ" target="_top">
<polygon fill="#ffffff" stroke="transparent" points="8,-435.2 8,-562.2 101,-562.2 101,-435.2 8,-435.2"/>
<polygon fill="#f5f5f5" stroke="transparent" points="8.5,-538.7 8.5,-561.7 101.5,-561.7 101.5,-538.7 8.5,-538.7"/>
<polygon fill="none" stroke="#000000" points="8.5,-538.7 8.5,-561.7 101.5,-561.7 101.5,-538.7 8.5,-538.7"/>
<text text-anchor="start" x="-.3019" y="-547.3" font-family="Helvetica,sans-Serif" font-weight="bold" font-size="11.00" fill="#000000">商品分類マスタ</text>
<text text-anchor="start" x="67.0219" y="-546.8" font-family="Helvetica,sans-Serif" font-size="11.00" fill="#000000">[table]</text>
<polygon fill="none" stroke="#000000" points="8.5,-516.7 8.5,-538.7 101.5,-538.7 101.5,-516.7 8.5,-516.7"/>
<image xlink:href="../../images/primaryKeys.png" width="11px" height="12px" preserveAspectRatio="xMinYMin meet" x="13.5" y="-533.7"/>
<text text-anchor="start" x="20.3315" y="-523.8" font-family="Helvetica,sans-Serif" font-size="11.00" fill="#000000">商品分類コード</text>
<polygon fill="#ffffff" stroke="transparent" points="8.5,-494.7 8.5,-516.7 101.5,-516.7 101.5,-494.7 8.5,-494.7"/>
<polygon fill="none" stroke="#000000" points="8.5,-494.7 8.5,-516.7 101.5,-516.7 101.5,-494.7 8.5,-494.7"/>
<text text-anchor="start" x="28.2669" y="-501.8" font-family="Helvetica,sans-Serif" font-size="11.00" fill="#000000">商品分類階層</text>
<polygon fill="#ffffff" stroke="transparent" points="8.5,-472.7 8.5,-494.7 101.5,-494.7 101.5,-472.7 8.5,-472.7"/>
<polygon fill="none" stroke="#000000" points="8.5,-472.7 8.5,-494.7 101.5,-494.7 101.5,-472.7 8.5,-472.7"/>
<text text-anchor="start" x="30.6209" y="-479.8" font-family="Helvetica,sans-Serif" font-size="11.00" fill="#000000">商品分類パス</text>
<polygon fill="none" stroke="#000000" points="8.5,-453.7 8.5,-472.7 101.5,-472.7 101.5,-453.7 8.5,-453.7"/>
<text text-anchor="start" x="11.5" y="-459.8" font-family="Helvetica,sans-Serif" font-size="11.00" fill="#000000">...</text>
<polygon fill="#ffffff" stroke="transparent" points="8.5,-434.7 8.5,-453.7 101.5,-453.7 101.5,-434.7 8.5,-434.7"/>
<polygon fill="none" stroke="#000000" points="8.5,-434.7 8.5,-453.7 101.5,-453.7 101.5,-434.7 8.5,-434.7"/>
<polygon fill="#ffffff" stroke="transparent" points="9.5,-435.7 9.5,-452.7 37.5,-452.7 37.5,-435.7 9.5,-435.7"/>
<text text-anchor="start" x="11.5" y="-440.8" font-family="Helvetica,sans-Serif" font-size="11.00" fill="#000000"> &#160;</text>
<polygon fill="#ffffff" stroke="transparent" points="37.5,-435.7 37.5,-452.7 64.5,-452.7 64.5,-435.7 37.5,-435.7"/>
<text text-anchor="start" x="47.9431" y="-440.8" font-family="Helvetica,sans-Serif" font-size="11.00" fill="#000000"> &#160;</text>
<polygon fill="#ffffff" stroke="transparent" points="64.5,-435.7 64.5,-452.7 100.5,-452.7 100.5,-435.7 64.5,-435.7"/>
<text text-anchor="start" x="82.9053" y="-440.8" font-family="Helvetica,sans-Serif" font-size="11.00" fill="#000000">1 &gt;</text>
<polygon fill="#000000" stroke="#000000" points="37.5,-435.7 37.5,-452.7 37.5,-452.7 37.5,-435.7 37.5,-435.7"/>
<polygon fill="#000000" stroke="#000000" points="64.5,-435.7 64.5,-452.7 64.5,-452.7 64.5,-435.7 64.5,-435.7"/>
</a>
</g>
</g>
<!-- 商品マスタ&#45;&gt;商品分類マスタ -->
<g id="edge5" class="edge">
<title>商品マスタ:w&#45;&gt;商品分類マスタ:e</title>
<path fill="none" stroke="#000000" d="M137.776,-527.7C125.7815,-527.7 118.3229,-527.7 101.5,-527.7"/>
<polygon fill="#000000" stroke="#000000" points="144.5,-527.7001 152.5,-531.3 148.5,-527.7 152.5,-527.7 152.5,-527.7 152.5,-527.7 148.5,-527.7 152.5,-524.1 144.5,-527.7001 144.5,-527.7001"/>
<ellipse fill="none" stroke="#000000" cx="141.3" cy="-527.7001" rx="3.2" ry="3.2"/>
</g>
<!-- 受注明細 -->
<g id="node3" class="node">
<title>受注明細</title>
<g id="a_node3"><a xlink:href="../../tables/_____27c23493.html" xlink:title="受注明細" target="_top">
<polygon fill="#ffffff" stroke="transparent" points="381.5,-511.2 381.5,-638.2 451.5,-638.2 451.5,-511.2 381.5,-511.2"/>
<polygon fill="#f5f5f5" stroke="transparent" points="381.5,-614.7 381.5,-637.7 451.5,-637.7 451.5,-614.7 381.5,-614.7"/>
<polygon fill="none" stroke="#000000" points="381.5,-614.7 381.5,-637.7 451.5,-637.7 451.5,-614.7 381.5,-614.7"/>
<text text-anchor="start" x="378.6006" y="-623.3" font-family="Helvetica,sans-Serif" font-weight="bold" font-size="11.00" fill="#000000">受注明細</text>
<text text-anchor="start" x="417.0219" y="-622.8" font-family="Helvetica,sans-Serif" font-size="11.00" fill="#000000">[table]</text>
<polygon fill="none" stroke="#000000" points="381.5,-592.7 381.5,-614.7 451.5,-614.7 451.5,-592.7 381.5,-592.7"/>
<image xlink:href="../../images/primaryKeys.png" width="11px" height="12px" preserveAspectRatio="xMinYMin meet" x="386.5" y="-609.7"/>
<text text-anchor="start" x="402.4021" y="-599.8" font-family="Helvetica,sans-Serif" font-size="11.00" fill="#000000">受注番号</text>
<polygon fill="none" stroke="#000000" points="381.5,-570.7 381.5,-592.7 451.5,-592.7 451.5,-570.7 381.5,-570.7"/>
<image xlink:href="../../images/primaryKeys.png" width="11px" height="12px" preserveAspectRatio="xMinYMin meet" x="386.5" y="-587.7"/>
<text text-anchor="start" x="403.5" y="-577.8" font-family="Helvetica,sans-Serif" font-size="11.00" fill="#000000">明細番号</text>
<polygon fill="#ffffff" stroke="transparent" points="381.5,-548.7 381.5,-570.7 451.5,-570.7 451.5,-548.7 381.5,-548.7"/>
<polygon fill="none" stroke="#000000" points="381.5,-548.7 381.5,-570.7 451.5,-570.7 451.5,-548.7 381.5,-548.7"/>
<image xlink:href="../../images/foreignKeys.png" width="11px" height="12px" preserveAspectRatio="xMinYMin meet" x="386.5" y="-565.7"/>
<text text-anchor="start" x="394.5547" y="-555.8" font-family="Helvetica,sans-Serif" font-size="11.00" fill="#000000">商品コード</text>
<polygon fill="none" stroke="#000000" points="381.5,-529.7 381.5,-548.7 451.5,-548.7 451.5,-529.7 381.5,-529.7"/>
<text text-anchor="start" x="384.5" y="-535.8" font-family="Helvetica,sans-Serif" font-size="11.00" fill="#000000">...</text>
<polygon fill="#ffffff" stroke="transparent" points="381.5,-510.7 381.5,-529.7 451.5,-529.7 451.5,-510.7 381.5,-510.7"/>
<polygon fill="none" stroke="#000000" points="381.5,-510.7 381.5,-529.7 451.5,-529.7 451.5,-510.7 381.5,-510.7"/>
<polygon fill="#ffffff" stroke="transparent" points="382.5,-511.7 382.5,-528.7 411.5,-528.7 411.5,-511.7 382.5,-511.7"/>
<text text-anchor="start" x="384.5" y="-516.8" font-family="Helvetica,sans-Serif" font-size="11.00" fill="#000000">&lt; 2</text>
<polygon fill="#ffffff" stroke="transparent" points="411.5,-511.7 411.5,-528.7 431.5,-528.7 431.5,-511.7 411.5,-511.7"/>
<text text-anchor="start" x="418.4431" y="-516.8" font-family="Helvetica,sans-Serif" font-size="11.00" fill="#000000"> &#160;</text>
<polygon fill="#ffffff" stroke="transparent" points="431.5,-511.7 431.5,-528.7 450.5,-528.7 450.5,-511.7 431.5,-511.7"/>
<text text-anchor="start" x="442.3862" y="-516.8" font-family="Helvetica,sans-Serif" font-size="11.00" fill="#000000"> &#160;</text>
<polygon fill="#000000" stroke="#000000" points="411.5,-511.7 411.5,-528.7 411.5,-528.7 411.5,-511.7 411.5,-511.7"/>
<polygon fill="#000000" stroke="#000000" points="431.5,-511.7 431.5,-528.7 431.5,-528.7 431.5,-511.7 431.5,-511.7"/>
</a>
</g>
</g>
<!-- 受注明細&#45;&gt;商品マスタ -->
<g id="edge4" class="edge">
<title>受注明細:w&#45;&gt;商品マスタ:e</title>
<path fill="none" stroke="#000000" d="M366.8965,-561.9423C307.3697,-583.1534 401.8113,-747.7 319.5,-747.7"/>
<polygon fill="#000000" stroke="#000000" points="373.5927,-560.9142 382.0464,-563.2583 377.5463,-560.3071 381.5,-559.7 381.5,-559.7 381.5,-559.7 377.5463,-560.3071 380.9536,-556.1417 373.5927,-560.9142 373.5927,-560.9142"/>
<ellipse fill="none" stroke="#000000" cx="370.4297" cy="-561.3998" rx="3.2" ry="3.2"/>
</g>
<!-- 受注 -->
<g id="node4" class="node">
<title>受注</title>
<g id="a_node4"><a xlink:href="../../tables/___a93f1.html" xlink:title="受注" target="_top">
<polygon fill="#ffffff" stroke="transparent" points="27.5,-176.2 27.5,-237.2 81.5,-237.2 81.5,-176.2 27.5,-176.2"/>
<polygon fill="#f5f5f5" stroke="transparent" points="27.5,-213.7 27.5,-236.7 81.5,-236.7 81.5,-213.7 27.5,-213.7"/>
<polygon fill="none" stroke="#000000" points="27.5,-213.7 27.5,-236.7 81.5,-236.7 81.5,-213.7 27.5,-213.7"/>
<text text-anchor="start" x="25.7713" y="-222.3" font-family="Helvetica,sans-Serif" font-weight="bold" font-size="11.00" fill="#000000">受注</text>
<text text-anchor="start" x="47.0219" y="-221.8" font-family="Helvetica,sans-Serif" font-size="11.00" fill="#000000">[table]</text>
<polygon fill="none" stroke="#000000" points="27.5,-194.7 27.5,-213.7 81.5,-213.7 81.5,-194.7 27.5,-194.7"/>
<text text-anchor="start" x="30.5" y="-200.8" font-family="Helvetica,sans-Serif" font-size="11.00" fill="#000000">...</text>
<polygon fill="#ffffff" stroke="transparent" points="27.5,-175.7 27.5,-194.7 81.5,-194.7 81.5,-175.7 27.5,-175.7"/>
<polygon fill="none" stroke="#000000" points="27.5,-175.7 27.5,-194.7 81.5,-194.7 81.5,-175.7 27.5,-175.7"/>
<polygon fill="#ffffff" stroke="transparent" points="28.5,-176.7 28.5,-193.7 49.5,-193.7 49.5,-176.7 28.5,-176.7"/>
<text text-anchor="start" x="30.5" y="-181.8" font-family="Helvetica,sans-Serif" font-size="11.00" fill="#000000">&lt; 5</text>
<polygon fill="#ffffff" stroke="transparent" points="49.5,-176.7 49.5,-193.7 60.5,-193.7 60.5,-176.7 49.5,-176.7"/>
<text text-anchor="start" x="51.9431" y="-181.8" font-family="Helvetica,sans-Serif" font-size="11.00" fill="#000000"> &#160;</text>
<polygon fill="#ffffff" stroke="transparent" points="60.5,-176.7 60.5,-193.7 80.5,-193.7 80.5,-176.7 60.5,-176.7"/>
<text text-anchor="start" x="62.9053" y="-181.8" font-family="Helvetica,sans-Serif" font-size="11.00" fill="#000000">2 &gt;</text>
<polygon fill="#000000" stroke="#000000" points="49.5,-176.7 49.5,-193.7 49.5,-193.7 49.5,-176.7 49.5,-176.7"/>
<polygon fill="#000000" stroke="#000000" points="60.5,-176.7 60.5,-193.7 60.5,-193.7 60.5,-176.7 60.5,-176.7"/>
</a>
</g>
</g>
<!-- 受注明細&#45;&gt;受注 -->
<g id="edge3" class="edge">
<title>受注明細:w&#45;&gt;受注:e</title>
<path fill="none" stroke="#000000" d="M367.5654,-599.2818C320.1939,-564.4201 375.8718,-333.8274 329,-287.7 269.1027,-228.7539 217.755,-296.0801 142,-259.7 108.9715,-243.8386 118.1397,-203.7 81.5,-203.7"/>
<polygon fill="#000000" stroke="#000000" points="373.8741,-601.2821 380.4119,-607.1316 377.6871,-602.491 381.5,-603.7 381.5,-603.7 381.5,-603.7 377.6871,-602.491 382.5881,-600.2684 373.8741,-601.2821 373.8741,-601.2821"/>
<ellipse fill="none" stroke="#000000" cx="370.8238" cy="-600.3149" rx="3.2" ry="3.2"/>
</g>
<!-- 在庫 -->
<g id="node6" class="node">
<title>在庫</title>
<g id="a_node6"><a xlink:href="../../tables/___aec83.html" xlink:title="在庫" target="_top">
<polygon fill="#ffffff" stroke="transparent" points="386.5,-282.2 386.5,-453.2 446.5,-453.2 446.5,-282.2 386.5,-282.2"/>
<polygon fill="#f5f5f5" stroke="transparent" points="386.5,-429.7 386.5,-452.7 446.5,-452.7 446.5,-429.7 386.5,-429.7"/>
<polygon fill="none" stroke="#000000" points="386.5,-429.7 386.5,-452.7 446.5,-452.7 446.5,-429.7 386.5,-429.7"/>
<text text-anchor="start" x="384.4688" y="-438.3" font-family="Helvetica,sans-Serif" font-weight="bold" font-size="11.00" fill="#000000">在庫</text>
<text text-anchor="start" x="411.5437" y="-437.8" font-family="Helvetica,sans-Serif" font-size="11.00" fill="#000000">[table]</text>
<polygon fill="none" stroke="#000000" points="386.5,-407.7 386.5,-429.7 446.5,-429.7 446.5,-407.7 386.5,-407.7"/>
<image xlink:href="../../images/primaryKeys.png" width="11px" height="12px" preserveAspectRatio="xMinYMin meet" x="391.5" y="-424.7"/>
<text text-anchor="start" x="392.2232" y="-414.8" font-family="Helvetica,sans-Serif" font-size="11.00" fill="#000000">倉庫コード</text>
<polygon fill="none" stroke="#000000" points="386.5,-385.7 386.5,-407.7 446.5,-407.7 446.5,-385.7 386.5,-385.7"/>
<image xlink:href="../../images/primaryKeys.png" width="11px" height="12px" preserveAspectRatio="xMinYMin meet" x="391.5" y="-402.7"/>
<text text-anchor="start" x="394.0547" y="-392.8" font-family="Helvetica,sans-Serif" font-size="11.00" fill="#000000">商品コード</text>
<polygon fill="none" stroke="#000000" points="386.5,-363.7 386.5,-385.7 446.5,-385.7 446.5,-363.7 386.5,-363.7"/>
<image xlink:href="../../images/primaryKeys.png" width="11px" height="12px" preserveAspectRatio="xMinYMin meet" x="391.5" y="-380.7"/>
<text text-anchor="start" x="398.5543" y="-370.8" font-family="Helvetica,sans-Serif" font-size="11.00" fill="#000000">ロット番号</text>
<polygon fill="none" stroke="#000000" points="386.5,-341.7 386.5,-363.7 446.5,-363.7 446.5,-341.7 386.5,-341.7"/>
<image xlink:href="../../images/primaryKeys.png" width="11px" height="12px" preserveAspectRatio="xMinYMin meet" x="391.5" y="-358.7"/>
<text text-anchor="start" x="401.9956" y="-348.8" font-family="Helvetica,sans-Serif" font-size="11.00" fill="#000000">在庫区分</text>
<polygon fill="none" stroke="#000000" points="386.5,-319.7 386.5,-341.7 446.5,-341.7 446.5,-319.7 386.5,-319.7"/>
<image xlink:href="../../images/primaryKeys.png" width="11px" height="12px" preserveAspectRatio="xMinYMin meet" x="391.5" y="-336.7"/>
<text text-anchor="start" x="401.9956" y="-326.8" font-family="Helvetica,sans-Serif" font-size="11.00" fill="#000000">品質区分</text>
<polygon fill="none" stroke="#000000" points="386.5,-300.7 386.5,-319.7 446.5,-319.7 446.5,-300.7 386.5,-300.7"/>
<text text-anchor="start" x="389.5" y="-306.8" font-family="Helvetica,sans-Serif" font-size="11.00" fill="#000000">...</text>
<polygon fill="#ffffff" stroke="transparent" points="386.5,-281.7 386.5,-300.7 446.5,-300.7 446.5,-281.7 386.5,-281.7"/>
<polygon fill="none" stroke="#000000" points="386.5,-281.7 386.5,-300.7 446.5,-300.7 446.5,-281.7 386.5,-281.7"/>
<polygon fill="#ffffff" stroke="transparent" points="387.5,-282.7 387.5,-299.7 413.5,-299.7 413.5,-282.7 387.5,-282.7"/>
<text text-anchor="start" x="389.5" y="-287.8" font-family="Helvetica,sans-Serif" font-size="11.00" fill="#000000">&lt; 2</text>
<polygon fill="#ffffff" stroke="transparent" points="413.5,-282.7 413.5,-299.7 429.5,-299.7 429.5,-282.7 413.5,-282.7"/>
<text text-anchor="start" x="418.4431" y="-287.8" font-family="Helvetica,sans-Serif" font-size="11.00" fill="#000000"> &#160;</text>
<polygon fill="#ffffff" stroke="transparent" points="429.5,-282.7 429.5,-299.7 445.5,-299.7 445.5,-282.7 429.5,-282.7"/>
<text text-anchor="start" x="437.3862" y="-287.8" font-family="Helvetica,sans-Serif" font-size="11.00" fill="#000000"> &#160;</text>
<polygon fill="#000000" stroke="#000000" points="413.5,-282.7 413.5,-299.7 413.5,-299.7 413.5,-282.7 413.5,-282.7"/>
<polygon fill="#000000" stroke="#000000" points="429.5,-282.7 429.5,-299.7 429.5,-299.7 429.5,-282.7 429.5,-282.7"/>
</a>
</g>
</g>
<!-- 在庫&#45;&gt;商品マスタ -->
<g id="edge7" class="edge">
<title>在庫:w&#45;&gt;商品マスタ:e</title>
<path fill="none" stroke="#000000" d="M372.5061,-401.3964C318.8446,-443.0481 393.48,-747.7 319.5,-747.7"/>
<polygon fill="#000000" stroke="#000000" points="378.9157,-399.2454 387.6454,-400.1129 382.7079,-397.9727 386.5,-396.7 386.5,-396.7 386.5,-396.7 382.7079,-397.9727 385.3546,-393.2871 378.9157,-399.2454 378.9157,-399.2454"/>
<ellipse fill="none" stroke="#000000" cx="375.882" cy="-400.2635" rx="3.2" ry="3.2"/>
</g>
<!-- 倉庫マスタ -->
<g id="node7" class="node">
<title>倉庫マスタ</title>
<g id="a_node7"><a xlink:href="../../tables/______939d4982.html" xlink:title="倉庫マスタ" target="_top">
<polygon fill="#ffffff" stroke="transparent" points="196.5,-188.2 196.5,-249.2 274.5,-249.2 274.5,-188.2 196.5,-188.2"/>
<polygon fill="#f5f5f5" stroke="transparent" points="196.5,-225.7 196.5,-248.7 274.5,-248.7 274.5,-225.7 196.5,-225.7"/>
<polygon fill="none" stroke="#000000" points="196.5,-225.7 196.5,-248.7 274.5,-248.7 274.5,-225.7 196.5,-225.7"/>
<text text-anchor="start" x="190.5898" y="-234.3" font-family="Helvetica,sans-Serif" font-weight="bold" font-size="11.00" fill="#000000">倉庫マスタ</text>
<text text-anchor="start" x="240.0219" y="-233.8" font-family="Helvetica,sans-Serif" font-size="11.00" fill="#000000">[table]</text>
<polygon fill="none" stroke="#000000" points="196.5,-206.7 196.5,-225.7 274.5,-225.7 274.5,-206.7 196.5,-206.7"/>
<text text-anchor="start" x="199.5" y="-212.8" font-family="Helvetica,sans-Serif" font-size="11.00" fill="#000000">...</text>
<polygon fill="#ffffff" stroke="transparent" points="196.5,-187.7 196.5,-206.7 274.5,-206.7 274.5,-187.7 196.5,-187.7"/>
<polygon fill="none" stroke="#000000" points="196.5,-187.7 196.5,-206.7 274.5,-206.7 274.5,-187.7 196.5,-187.7"/>
<polygon fill="#ffffff" stroke="transparent" points="197.5,-188.7 197.5,-205.7 220.5,-205.7 220.5,-188.7 197.5,-188.7"/>
<text text-anchor="start" x="199.5" y="-193.8" font-family="Helvetica,sans-Serif" font-size="11.00" fill="#000000"> &#160;</text>
<polygon fill="#ffffff" stroke="transparent" points="220.5,-188.7 220.5,-205.7 242.5,-205.7 242.5,-188.7 220.5,-188.7"/>
<text text-anchor="start" x="228.4431" y="-193.8" font-family="Helvetica,sans-Serif" font-size="11.00" fill="#000000"> &#160;</text>
<polygon fill="#ffffff" stroke="transparent" points="242.5,-188.7 242.5,-205.7 273.5,-205.7 273.5,-188.7 242.5,-188.7"/>
<text text-anchor="start" x="255.9053" y="-193.8" font-family="Helvetica,sans-Serif" font-size="11.00" fill="#000000">1 &gt;</text>
<polygon fill="#000000" stroke="#000000" points="220.5,-188.7 220.5,-205.7 220.5,-205.7 220.5,-188.7 220.5,-188.7"/>
<polygon fill="#000000" stroke="#000000" points="242.5,-188.7 242.5,-205.7 242.5,-205.7 242.5,-188.7 242.5,-188.7"/>
</a>
</g>
</g>
<!-- 在庫&#45;&gt;倉庫マスタ -->
<g id="edge6" class="edge">
<title>在庫:w&#45;&gt;倉庫マスタ:e</title>
<path fill="none" stroke="#000000" d="M371.8891,-417.1129C321.2208,-404.5093 367.4384,-319.6474 329,-263.7 310.7221,-237.0965 306.7773,-215.7 274.5,-215.7"/>
<polygon fill="#000000" stroke="#000000" points="378.5468,-417.836 386.1112,-422.2789 382.5234,-418.268 386.5,-418.7 386.5,-418.7 386.5,-418.7 382.5234,-418.268 386.8888,-415.1211 378.5468,-417.836 378.5468,-417.836"/>
<ellipse fill="none" stroke="#000000" cx="375.3655" cy="-417.4904" rx="3.2" ry="3.2"/>
</g>
<!-- 売上 -->
<g id="node8" class="node">
<title>売上</title>
<g id="a_node8"><a xlink:href="../../tables/___b1358.html" xlink:title="売上" target="_top">
<polygon fill="#ffffff" stroke="transparent" points="208.5,-106.2 208.5,-167.2 262.5,-167.2 262.5,-106.2 208.5,-106.2"/>
<polygon fill="#f5f5f5" stroke="transparent" points="208.5,-143.7 208.5,-166.7 262.5,-166.7 262.5,-143.7 208.5,-143.7"/>
<polygon fill="none" stroke="#000000" points="208.5,-143.7 208.5,-166.7 262.5,-166.7 262.5,-143.7 208.5,-143.7"/>
<text text-anchor="start" x="207.0793" y="-152.3" font-family="Helvetica,sans-Serif" font-weight="bold" font-size="11.00" fill="#000000">売上</text>
<text text-anchor="start" x="228.0219" y="-151.8" font-family="Helvetica,sans-Serif" font-size="11.00" fill="#000000">[table]</text>
<polygon fill="none" stroke="#000000" points="208.5,-124.7 208.5,-143.7 262.5,-143.7 262.5,-124.7 208.5,-124.7"/>
<text text-anchor="start" x="211.5" y="-130.8" font-family="Helvetica,sans-Serif" font-size="11.00" fill="#000000">...</text>
<polygon fill="#ffffff" stroke="transparent" points="208.5,-105.7 208.5,-124.7 262.5,-124.7 262.5,-105.7 208.5,-105.7"/>
<polygon fill="none" stroke="#000000" points="208.5,-105.7 208.5,-124.7 262.5,-124.7 262.5,-105.7 208.5,-105.7"/>
<polygon fill="#ffffff" stroke="transparent" points="209.5,-106.7 209.5,-123.7 230.5,-123.7 230.5,-106.7 209.5,-106.7"/>
<text text-anchor="start" x="211.5" y="-111.8" font-family="Helvetica,sans-Serif" font-size="11.00" fill="#000000">&lt; 4</text>
<polygon fill="#ffffff" stroke="transparent" points="230.5,-106.7 230.5,-123.7 241.5,-123.7 241.5,-106.7 230.5,-106.7"/>
<text text-anchor="start" x="232.9431" y="-111.8" font-family="Helvetica,sans-Serif" font-size="11.00" fill="#000000"> &#160;</text>
<polygon fill="#ffffff" stroke="transparent" points="241.5,-106.7 241.5,-123.7 261.5,-123.7 261.5,-106.7 241.5,-106.7"/>
<text text-anchor="start" x="243.9053" y="-111.8" font-family="Helvetica,sans-Serif" font-size="11.00" fill="#000000">1 &gt;</text>
<polygon fill="#000000" stroke="#000000" points="230.5,-106.7 230.5,-123.7 230.5,-123.7 230.5,-106.7 230.5,-106.7"/>
<polygon fill="#000000" stroke="#000000" points="241.5,-106.7 241.5,-123.7 241.5,-123.7 241.5,-106.7 241.5,-106.7"/>
</a>
</g>
</g>
<!-- 売上&#45;&gt;受注 -->
<g id="edge8" class="edge">
<title>売上:w&#45;&gt;受注:e</title>
<path fill="none" stroke="#000000" d="M193.9053,-135.0358C143.9148,-144.7133 140.6636,-203.7 81.5,-203.7"/>
<polygon fill="#000000" stroke="#000000" points="200.5333,-134.4292 208.8282,-137.285 204.5167,-134.0646 208.5,-133.7 208.5,-133.7 208.5,-133.7 204.5167,-134.0646 208.1718,-130.115 200.5333,-134.4292 200.5333,-134.4292"/>
<ellipse fill="none" stroke="#000000" cx="197.3466" cy="-134.7209" rx="3.2" ry="3.2"/>
</g>
<!-- 売上明細 -->
<g id="node9" class="node">
<title>売上明細</title>
<g id="a_node9"><a xlink:href="../../tables/_____29a0763a.html" xlink:title="売上明細" target="_top">
<polygon fill="#ffffff" stroke="transparent" points="381.5,-38.2 381.5,-187.2 451.5,-187.2 451.5,-38.2 381.5,-38.2"/>
<polygon fill="#f5f5f5" stroke="transparent" points="381.5,-163.7 381.5,-186.7 451.5,-186.7 451.5,-163.7 381.5,-163.7"/>
<polygon fill="none" stroke="#000000" points="381.5,-163.7 381.5,-186.7 451.5,-186.7 451.5,-163.7 381.5,-163.7"/>
<text text-anchor="start" x="378.9086" y="-172.3" font-family="Helvetica,sans-Serif" font-weight="bold" font-size="11.00" fill="#000000">売上明細</text>
<text text-anchor="start" x="417.0219" y="-171.8" font-family="Helvetica,sans-Serif" font-size="11.00" fill="#000000">[table]</text>
<polygon fill="none" stroke="#000000" points="381.5,-141.7 381.5,-163.7 451.5,-163.7 451.5,-141.7 381.5,-141.7"/>
<image xlink:href="../../images/primaryKeys.png" width="11px" height="12px" preserveAspectRatio="xMinYMin meet" x="386.5" y="-158.7"/>
<text text-anchor="start" x="402.7101" y="-148.8" font-family="Helvetica,sans-Serif" font-size="11.00" fill="#000000">売上番号</text>
<polygon fill="none" stroke="#000000" points="381.5,-119.7 381.5,-141.7 451.5,-141.7 451.5,-119.7 381.5,-119.7"/>
<image xlink:href="../../images/primaryKeys.png" width="11px" height="12px" preserveAspectRatio="xMinYMin meet" x="386.5" y="-136.7"/>
<text text-anchor="start" x="403.5" y="-126.8" font-family="Helvetica,sans-Serif" font-size="11.00" fill="#000000">明細番号</text>
<polygon fill="#ffffff" stroke="transparent" points="381.5,-97.7 381.5,-119.7 451.5,-119.7 451.5,-97.7 381.5,-97.7"/>
<polygon fill="none" stroke="#000000" points="381.5,-97.7 381.5,-119.7 451.5,-119.7 451.5,-97.7 381.5,-97.7"/>
<image xlink:href="../../images/foreignKeys.png" width="11px" height="12px" preserveAspectRatio="xMinYMin meet" x="386.5" y="-114.7"/>
<text text-anchor="start" x="394.5547" y="-104.8" font-family="Helvetica,sans-Serif" font-size="11.00" fill="#000000">商品コード</text>
<polygon fill="#ffffff" stroke="transparent" points="381.5,-75.7 381.5,-97.7 451.5,-97.7 451.5,-75.7 381.5,-75.7"/>
<polygon fill="none" stroke="#000000" points="381.5,-75.7 381.5,-97.7 451.5,-97.7 451.5,-75.7 381.5,-75.7"/>
<text text-anchor="start" x="400.8731" y="-82.8" font-family="Helvetica,sans-Serif" font-size="11.00" fill="#000000">請求番号</text>
<polygon fill="none" stroke="#000000" points="381.5,-56.7 381.5,-75.7 451.5,-75.7 451.5,-56.7 381.5,-56.7"/>
<text text-anchor="start" x="384.5" y="-62.8" font-family="Helvetica,sans-Serif" font-size="11.00" fill="#000000">...</text>
<polygon fill="#ffffff" stroke="transparent" points="381.5,-37.7 381.5,-56.7 451.5,-56.7 451.5,-37.7 381.5,-37.7"/>
<polygon fill="none" stroke="#000000" points="381.5,-37.7 381.5,-56.7 451.5,-56.7 451.5,-37.7 381.5,-37.7"/>
<polygon fill="#ffffff" stroke="transparent" points="382.5,-38.7 382.5,-55.7 411.5,-55.7 411.5,-38.7 382.5,-38.7"/>
<text text-anchor="start" x="384.5" y="-43.8" font-family="Helvetica,sans-Serif" font-size="11.00" fill="#000000">&lt; 2</text>
<polygon fill="#ffffff" stroke="transparent" points="411.5,-38.7 411.5,-55.7 431.5,-55.7 431.5,-38.7 411.5,-38.7"/>
<text text-anchor="start" x="418.4431" y="-43.8" font-family="Helvetica,sans-Serif" font-size="11.00" fill="#000000"> &#160;</text>
<polygon fill="#ffffff" stroke="transparent" points="431.5,-38.7 431.5,-55.7 450.5,-55.7 450.5,-38.7 431.5,-38.7"/>
<text text-anchor="start" x="442.3862" y="-43.8" font-family="Helvetica,sans-Serif" font-size="11.00" fill="#000000"> &#160;</text>
<polygon fill="#000000" stroke="#000000" points="411.5,-38.7 411.5,-55.7 411.5,-55.7 411.5,-38.7 411.5,-38.7"/>
<polygon fill="#000000" stroke="#000000" points="431.5,-38.7 431.5,-55.7 431.5,-55.7 431.5,-38.7 431.5,-38.7"/>
</a>
</g>
</g>
<!-- 売上明細&#45;&gt;商品マスタ -->
<g id="edge9" class="edge">
<title>売上明細:w&#45;&gt;商品マスタ:e</title>
<path fill="none" stroke="#000000" d="M369.2109,-116.7793C320.2099,-190.7493 386.0964,-747.7 319.5,-747.7"/>
<polygon fill="#000000" stroke="#000000" points="374.8153,-113.0948 383.4777,-111.7081 378.1576,-110.8974 381.5,-108.7 381.5,-108.7 381.5,-108.7 378.1576,-110.8974 379.5223,-105.6919 374.8153,-113.0948 374.8153,-113.0948"/>
<ellipse fill="none" stroke="#000000" cx="372.1414" cy="-114.8528" rx="3.2" ry="3.2"/>
</g>
<!-- 売上明細&#45;&gt;売上 -->
<g id="edge10" class="edge">
<title>売上明細:w&#45;&gt;売上:e</title>
<path fill="none" stroke="#000000" d="M366.9237,-152.1918C325.223,-149.1703 310.8284,-133.7 262.5,-133.7"/>
<polygon fill="#000000" stroke="#000000" points="373.5049,-152.4212 381.3745,-156.2978 377.5024,-152.5606 381.5,-152.7 381.5,-152.7 381.5,-152.7 377.5024,-152.5606 381.6255,-149.1022 373.5049,-152.4212 373.5049,-152.4212"/>
<ellipse fill="none" stroke="#000000" cx="370.3068" cy="-152.3097" rx="3.2" ry="3.2"/>
</g>
<!-- 顧客別販売単価 -->
<g id="node10" class="node">
<title>顧客別販売単価</title>
<g id="a_node10"><a xlink:href="../../tables/________201bd2dc.html" xlink:title="顧客別販売単価" target="_top">
<polygon fill="#ffffff" stroke="transparent" points="370,-803.2 370,-908.2 463,-908.2 463,-803.2 370,-803.2"/>
<polygon fill="#f5f5f5" stroke="transparent" points="370.5,-884.7 370.5,-907.7 463.5,-907.7 463.5,-884.7 370.5,-884.7"/>
<polygon fill="none" stroke="#000000" points="370.5,-884.7 370.5,-907.7 463.5,-907.7 463.5,-884.7 370.5,-884.7"/>
<text text-anchor="start" x="353.6015" y="-893.3" font-family="Helvetica,sans-Serif" font-weight="bold" font-size="11.00" fill="#000000">顧客別販売単価</text>
<text text-anchor="start" x="429.0219" y="-892.8" font-family="Helvetica,sans-Serif" font-size="11.00" fill="#000000">[table]</text>
<polygon fill="none" stroke="#000000" points="370.5,-862.7 370.5,-884.7 463.5,-884.7 463.5,-862.7 370.5,-862.7"/>
<image xlink:href="../../images/primaryKeys.png" width="11px" height="12px" preserveAspectRatio="xMinYMin meet" x="375.5" y="-879.7"/>
<text text-anchor="start" x="394.5547" y="-869.8" font-family="Helvetica,sans-Serif" font-size="11.00" fill="#000000">商品コード</text>
<polygon fill="none" stroke="#000000" points="370.5,-840.7 370.5,-862.7 463.5,-862.7 463.5,-840.7 370.5,-840.7"/>
<image xlink:href="../../images/primaryKeys.png" width="11px" height="12px" preserveAspectRatio="xMinYMin meet" x="375.5" y="-857.7"/>
<text text-anchor="start" x="385.9978" y="-847.8" font-family="Helvetica,sans-Serif" font-size="11.00" fill="#000000">取引先コード</text>
<polygon fill="none" stroke="#000000" points="370.5,-821.7 370.5,-840.7 463.5,-840.7 463.5,-821.7 370.5,-821.7"/>
<text text-anchor="start" x="373.5" y="-827.8" font-family="Helvetica,sans-Serif" font-size="11.00" fill="#000000">...</text>
<polygon fill="#ffffff" stroke="transparent" points="370.5,-802.7 370.5,-821.7 463.5,-821.7 463.5,-802.7 370.5,-802.7"/>
<polygon fill="none" stroke="#000000" points="370.5,-802.7 370.5,-821.7 463.5,-821.7 463.5,-802.7 370.5,-802.7"/>
<polygon fill="#ffffff" stroke="transparent" points="371.5,-803.7 371.5,-820.7 408.5,-820.7 408.5,-803.7 371.5,-803.7"/>
<text text-anchor="start" x="373.5" y="-808.8" font-family="Helvetica,sans-Serif" font-size="11.00" fill="#000000">&lt; 1</text>
<polygon fill="#ffffff" stroke="transparent" points="408.5,-803.7 408.5,-820.7 435.5,-820.7 435.5,-803.7 408.5,-803.7"/>
<text text-anchor="start" x="418.9431" y="-808.8" font-family="Helvetica,sans-Serif" font-size="11.00" fill="#000000"> &#160;</text>
<polygon fill="#ffffff" stroke="transparent" points="435.5,-803.7 435.5,-820.7 462.5,-820.7 462.5,-803.7 435.5,-803.7"/>
<text text-anchor="start" x="454.3862" y="-808.8" font-family="Helvetica,sans-Serif" font-size="11.00" fill="#000000"> &#160;</text>
<polygon fill="#000000" stroke="#000000" points="408.5,-803.7 408.5,-820.7 408.5,-820.7 408.5,-803.7 408.5,-803.7"/>
<polygon fill="#000000" stroke="#000000" points="435.5,-803.7 435.5,-820.7 435.5,-820.7 435.5,-803.7 435.5,-803.7"/>
</a>
</g>
</g>
<!-- 顧客別販売単価&#45;&gt;商品マスタ -->
<g id="edge11" class="edge">
<title>顧客別販売単価:w&#45;&gt;商品マスタ:e</title>
<path fill="none" stroke="#000000" d="M356.2844,-870.3298C322.4826,-850.2923 374.0136,-747.7 319.5,-747.7"/>
<polygon fill="#000000" stroke="#000000" points="362.7158,-871.8545 369.6695,-877.2029 366.6079,-872.7772 370.5,-873.7 370.5,-873.7 370.5,-873.7 366.6079,-872.7772 371.3305,-870.1971 362.7158,-871.8545 362.7158,-871.8545"/>
<ellipse fill="none" stroke="#000000" cx="359.6021" cy="-871.1163" rx="3.2" ry="3.2"/>
</g>
</g>
</svg>
