<?xml version="1.0" encoding="UTF-8" standalone="no"?>
<!DOCTYPE svg PUBLIC "-//W3C//DTD SVG 1.1//EN"
 "http://www.w3.org/Graphics/SVG/1.1/DTD/svg11.dtd">
<!-- Generated by graphviz version 2.40.1 (20161225.0304)
 -->
<!-- Title: oneDegreeRelationshipsDiagram Pages: 1 -->
<svg width="479pt" height="791pt"
 viewBox="0.00 0.00 479.00 791.20" xmlns="http://www.w3.org/2000/svg" xmlns:xlink="http://www.w3.org/1999/xlink">
<g id="graph0" class="graph" transform="scale(1 1) rotate(0) translate(4 787.2)">
<title>oneDegreeRelationshipsDiagram</title>
<polygon fill="#ffffff" stroke="transparent" points="-4,4 -4,-787.2 475,-787.2 475,4 -4,4"/>
<text text-anchor="middle" x="72.4936" y="-7.3" font-family="Helvetica,sans-Serif" font-size="11.00" fill="#000000">Generated by SchemaSpy</text>
<!-- 代替商品 -->
<g id="node1" class="node">
<title>代替商品</title>
<g id="a_node1"><a xlink:href="../../tables/_____25696db7.html" xlink:title="代替商品" target="_top">
<polygon fill="#ffffff" stroke="transparent" points="379,-674.2 379,-779.2 454,-779.2 454,-674.2 379,-674.2"/>
<polygon fill="#f5f5f5" stroke="transparent" points="379.5,-755.7 379.5,-778.7 454.5,-778.7 454.5,-755.7 379.5,-755.7"/>
<polygon fill="none" stroke="#000000" points="379.5,-755.7 379.5,-778.7 454.5,-778.7 454.5,-755.7 379.5,-755.7"/>
<text text-anchor="start" x="374.7691" y="-764.3" font-family="Helvetica,sans-Serif" font-weight="bold" font-size="11.00" fill="#000000">代替商品</text>
<text text-anchor="start" x="419.5437" y="-763.8" font-family="Helvetica,sans-Serif" font-size="11.00" fill="#000000">[table]</text>
<polygon fill="none" stroke="#000000" points="379.5,-733.7 379.5,-755.7 454.5,-755.7 454.5,-733.7 379.5,-733.7"/>
<image xlink:href="../../images/primaryKeys.png" width="11px" height="12px" preserveAspectRatio="xMinYMin meet" x="384.5" y="-750.7"/>
<text text-anchor="start" x="394.5547" y="-740.8" font-family="Helvetica,sans-Serif" font-size="11.00" fill="#000000">商品コード</text>
<polygon fill="none" stroke="#000000" points="379.5,-711.7 379.5,-733.7 454.5,-733.7 454.5,-711.7 379.5,-711.7"/>
<image xlink:href="../../images/primaryKeys.png" width="11px" height="12px" preserveAspectRatio="xMinYMin meet" x="384.5" y="-728.7"/>
<text text-anchor="start" x="380.4945" y="-718.8" font-family="Helvetica,sans-Serif" font-size="11.00" fill="#000000">代替商品コード</text>
<polygon fill="none" stroke="#000000" points="379.5,-692.7 379.5,-711.7 454.5,-711.7 454.5,-692.7 379.5,-692.7"/>
<text text-anchor="start" x="382.5" y="-698.8" font-family="Helvetica,sans-Serif" font-size="11.00" fill="#000000">...</text>
<polygon fill="#ffffff" stroke="transparent" points="379.5,-673.7 379.5,-692.7 454.5,-692.7 454.5,-673.7 379.5,-673.7"/>
<polygon fill="none" stroke="#000000" points="379.5,-673.7 379.5,-692.7 454.5,-692.7 454.5,-673.7 379.5,-673.7"/>
<polygon fill="#ffffff" stroke="transparent" points="380.5,-674.7 380.5,-691.7 411.5,-691.7 411.5,-674.7 380.5,-674.7"/>
<text text-anchor="start" x="382.5" y="-679.8" font-family="Helvetica,sans-Serif" font-size="11.00" fill="#000000">&lt; 2</text>
<polygon fill="#ffffff" stroke="transparent" points="411.5,-674.7 411.5,-691.7 432.5,-691.7 432.5,-674.7 411.5,-674.7"/>
<text text-anchor="start" x="418.9431" y="-679.8" font-family="Helvetica,sans-Serif" font-size="11.00" fill="#000000"> &#160;</text>
<polygon fill="#ffffff" stroke="transparent" points="432.5,-674.7 432.5,-691.7 453.5,-691.7 453.5,-674.7 432.5,-674.7"/>
<text text-anchor="start" x="445.3862" y="-679.8" font-family="Helvetica,sans-Serif" font-size="11.00" fill="#000000"> &#160;</text>
<polygon fill="#000000" stroke="#000000" points="411.5,-674.7 411.5,-691.7 411.5,-691.7 411.5,-674.7 411.5,-674.7"/>
<polygon fill="#000000" stroke="#000000" points="432.5,-674.7 432.5,-691.7 432.5,-691.7 432.5,-674.7 432.5,-674.7"/>
</a>
</g>
</g>
<!-- 商品マスタ -->
<g id="node2" class="node">
<title>商品マスタ</title>
<g id="a_node2"><a xlink:href="../../tables/______d8ecb269.html" xlink:title="商品マスタ" target="_top">
<polygon fill="#ffffff" stroke="transparent" points="150,-61.7 150,-547.7 321,-547.7 321,-61.7 150,-61.7"/>
<polygon fill="#f5f5f5" stroke="transparent" points="152.5,-522.7 152.5,-545.7 319.5,-545.7 319.5,-522.7 152.5,-522.7"/>
<polygon fill="none" stroke="#000000" points="152.5,-522.7 152.5,-545.7 319.5,-545.7 319.5,-522.7 152.5,-522.7"/>
<text text-anchor="start" x="148.4212" y="-531.3" font-family="Helvetica,sans-Serif" font-weight="bold" font-size="11.00" fill="#000000">商品マスタ</text>
<text text-anchor="start" x="284.5437" y="-530.8" font-family="Helvetica,sans-Serif" font-size="11.00" fill="#000000">[table]</text>
<polygon fill="none" stroke="#000000" points="152.5,-500.7 152.5,-522.7 235.5,-522.7 235.5,-500.7 152.5,-500.7"/>
<image xlink:href="../../images/primaryKeys.png" width="11px" height="12px" preserveAspectRatio="xMinYMin meet" x="157.5" y="-517.7"/>
<text text-anchor="start" x="171.5547" y="-507.8" font-family="Helvetica,sans-Serif" font-size="11.00" fill="#000000">商品コード</text>
<polygon fill="none" stroke="#000000" points="235.5,-500.7 235.5,-522.7 319.5,-522.7 319.5,-500.7 235.5,-500.7"/>
<text text-anchor="start" x="238.5" y="-508.4" font-family="Helvetica,sans-Serif" font-size="11.00" fill="#000000">varchar[16]</text>
<polygon fill="none" stroke="#000000" points="152.5,-478.7 152.5,-500.7 235.5,-500.7 235.5,-478.7 152.5,-478.7"/>
<text text-anchor="start" x="172.5" y="-485.8" font-family="Helvetica,sans-Serif" font-size="11.00" fill="#000000">商品正式名</text>
<polygon fill="none" stroke="#000000" points="235.5,-478.7 235.5,-500.7 319.5,-500.7 319.5,-478.7 235.5,-478.7"/>
<text text-anchor="start" x="238.5" y="-486.4" font-family="Helvetica,sans-Serif" font-size="11.00" fill="#000000">varchar[40]</text>
<polygon fill="#ffffff" stroke="transparent" points="152.5,-456.7 152.5,-478.7 235.5,-478.7 235.5,-456.7 152.5,-456.7"/>
<polygon fill="none" stroke="#000000" points="152.5,-456.7 152.5,-478.7 235.5,-478.7 235.5,-456.7 152.5,-456.7"/>
<text text-anchor="start" x="172.5" y="-463.8" font-family="Helvetica,sans-Serif" font-size="11.00" fill="#000000">商品略称</text>
<polygon fill="none" stroke="#000000" points="235.5,-456.7 235.5,-478.7 319.5,-478.7 319.5,-456.7 235.5,-456.7"/>
<text text-anchor="start" x="238.5" y="-464.4" font-family="Helvetica,sans-Serif" font-size="11.00" fill="#000000">varchar[10]</text>
<polygon fill="none" stroke="#000000" points="152.5,-434.7 152.5,-456.7 235.5,-456.7 235.5,-434.7 152.5,-434.7"/>
<text text-anchor="start" x="172.5" y="-441.8" font-family="Helvetica,sans-Serif" font-size="11.00" fill="#000000">商品名カナ</text>
<polygon fill="none" stroke="#000000" points="235.5,-434.7 235.5,-456.7 319.5,-456.7 319.5,-434.7 235.5,-434.7"/>
<text text-anchor="start" x="238.5" y="-442.4" font-family="Helvetica,sans-Serif" font-size="11.00" fill="#000000">varchar[80]</text>
<polygon fill="none" stroke="#000000" points="152.5,-412.7 152.5,-434.7 235.5,-434.7 235.5,-412.7 152.5,-412.7"/>
<text text-anchor="start" x="172.5" y="-419.8" font-family="Helvetica,sans-Serif" font-size="11.00" fill="#000000">商品区分</text>
<polygon fill="none" stroke="#000000" points="235.5,-412.7 235.5,-434.7 319.5,-434.7 319.5,-412.7 235.5,-412.7"/>
<text text-anchor="start" x="238.5" y="-420.4" font-family="Helvetica,sans-Serif" font-size="11.00" fill="#000000">varchar[8]</text>
<polygon fill="none" stroke="#000000" points="152.5,-390.7 152.5,-412.7 235.5,-412.7 235.5,-390.7 152.5,-390.7"/>
<text text-anchor="start" x="172.5" y="-397.8" font-family="Helvetica,sans-Serif" font-size="11.00" fill="#000000">製品型番</text>
<polygon fill="none" stroke="#000000" points="235.5,-390.7 235.5,-412.7 319.5,-412.7 319.5,-390.7 235.5,-390.7"/>
<text text-anchor="start" x="238.5" y="-398.4" font-family="Helvetica,sans-Serif" font-size="11.00" fill="#000000">varchar[30]</text>
<polygon fill="none" stroke="#000000" points="152.5,-368.7 152.5,-390.7 235.5,-390.7 235.5,-368.7 152.5,-368.7"/>
<text text-anchor="start" x="172.5" y="-375.8" font-family="Helvetica,sans-Serif" font-size="11.00" fill="#000000">販売単価</text>
<polygon fill="none" stroke="#000000" points="235.5,-368.7 235.5,-390.7 319.5,-390.7 319.5,-368.7 235.5,-368.7"/>
<text text-anchor="start" x="238.5" y="-376.4" font-family="Helvetica,sans-Serif" font-size="11.00" fill="#000000">int4[10]</text>
<polygon fill="none" stroke="#000000" points="152.5,-346.7 152.5,-368.7 235.5,-368.7 235.5,-346.7 152.5,-346.7"/>
<text text-anchor="start" x="172.5" y="-353.8" font-family="Helvetica,sans-Serif" font-size="11.00" fill="#000000">仕入単価</text>
<polygon fill="none" stroke="#000000" points="235.5,-346.7 235.5,-368.7 319.5,-368.7 319.5,-346.7 235.5,-346.7"/>
<text text-anchor="start" x="238.5" y="-354.4" font-family="Helvetica,sans-Serif" font-size="11.00" fill="#000000">int4[10]</text>
<polygon fill="none" stroke="#000000" points="152.5,-324.7 152.5,-346.7 235.5,-346.7 235.5,-324.7 152.5,-324.7"/>
<text text-anchor="start" x="172.5" y="-331.8" font-family="Helvetica,sans-Serif" font-size="11.00" fill="#000000">売上原価</text>
<polygon fill="none" stroke="#000000" points="235.5,-324.7 235.5,-346.7 319.5,-346.7 319.5,-324.7 235.5,-324.7"/>
<text text-anchor="start" x="238.5" y="-332.4" font-family="Helvetica,sans-Serif" font-size="11.00" fill="#000000">int4[10]</text>
<polygon fill="none" stroke="#000000" points="152.5,-302.7 152.5,-324.7 235.5,-324.7 235.5,-302.7 152.5,-302.7"/>
<text text-anchor="start" x="172.5" y="-309.8" font-family="Helvetica,sans-Serif" font-size="11.00" fill="#000000">税区分</text>
<polygon fill="none" stroke="#000000" points="235.5,-302.7 235.5,-324.7 319.5,-324.7 319.5,-302.7 235.5,-302.7"/>
<text text-anchor="start" x="238.5" y="-310.4" font-family="Helvetica,sans-Serif" font-size="11.00" fill="#000000">int4[10]</text>
<polygon fill="#ffffff" stroke="transparent" points="152.5,-280.7 152.5,-302.7 235.5,-302.7 235.5,-280.7 152.5,-280.7"/>
<polygon fill="none" stroke="#000000" points="152.5,-280.7 152.5,-302.7 235.5,-302.7 235.5,-280.7 152.5,-280.7"/>
<image xlink:href="../../images/foreignKeys.png" width="11px" height="12px" preserveAspectRatio="xMinYMin meet" x="157.5" y="-297.7"/>
<text text-anchor="start" x="159.3315" y="-287.8" font-family="Helvetica,sans-Serif" font-size="11.00" fill="#000000">商品分類コード</text>
<polygon fill="none" stroke="#000000" points="235.5,-280.7 235.5,-302.7 319.5,-302.7 319.5,-280.7 235.5,-280.7"/>
<text text-anchor="start" x="238.5" y="-288.4" font-family="Helvetica,sans-Serif" font-size="11.00" fill="#000000">varchar[8]</text>
<polygon fill="none" stroke="#000000" points="152.5,-258.7 152.5,-280.7 235.5,-280.7 235.5,-258.7 152.5,-258.7"/>
<text text-anchor="start" x="172.5" y="-265.8" font-family="Helvetica,sans-Serif" font-size="11.00" fill="#000000">雑区分</text>
<polygon fill="none" stroke="#000000" points="235.5,-258.7 235.5,-280.7 319.5,-280.7 319.5,-258.7 235.5,-258.7"/>
<text text-anchor="start" x="238.5" y="-266.4" font-family="Helvetica,sans-Serif" font-size="11.00" fill="#000000">int4[10]</text>
<polygon fill="none" stroke="#000000" points="152.5,-236.7 152.5,-258.7 235.5,-258.7 235.5,-236.7 152.5,-236.7"/>
<text text-anchor="start" x="155.0481" y="-243.8" font-family="Helvetica,sans-Serif" font-size="11.00" fill="#000000">在庫管理対象区分</text>
<polygon fill="none" stroke="#000000" points="235.5,-236.7 235.5,-258.7 319.5,-258.7 319.5,-236.7 235.5,-236.7"/>
<text text-anchor="start" x="238.5" y="-244.4" font-family="Helvetica,sans-Serif" font-size="11.00" fill="#000000">int4[10]</text>
<polygon fill="none" stroke="#000000" points="152.5,-214.7 152.5,-236.7 235.5,-236.7 235.5,-214.7 152.5,-214.7"/>
<text text-anchor="start" x="162.3818" y="-221.8" font-family="Helvetica,sans-Serif" font-size="11.00" fill="#000000">在庫引当区分</text>
<polygon fill="none" stroke="#000000" points="235.5,-214.7 235.5,-236.7 319.5,-236.7 319.5,-214.7 235.5,-214.7"/>
<text text-anchor="start" x="238.5" y="-222.4" font-family="Helvetica,sans-Serif" font-size="11.00" fill="#000000">int4[10]</text>
<polygon fill="#ffffff" stroke="transparent" points="152.5,-192.7 152.5,-214.7 235.5,-214.7 235.5,-192.7 152.5,-192.7"/>
<polygon fill="none" stroke="#000000" points="152.5,-192.7 152.5,-214.7 235.5,-214.7 235.5,-192.7 152.5,-192.7"/>
<text text-anchor="start" x="163.9114" y="-199.8" font-family="Helvetica,sans-Serif" font-size="11.00" fill="#000000">仕入先コード</text>
<polygon fill="none" stroke="#000000" points="235.5,-192.7 235.5,-214.7 319.5,-214.7 319.5,-192.7 235.5,-192.7"/>
<text text-anchor="start" x="238.5" y="-200.4" font-family="Helvetica,sans-Serif" font-size="11.00" fill="#000000">varchar[8]</text>
<polygon fill="#ffffff" stroke="transparent" points="152.5,-170.7 152.5,-192.7 235.5,-192.7 235.5,-170.7 152.5,-170.7"/>
<polygon fill="none" stroke="#000000" points="152.5,-170.7 152.5,-192.7 235.5,-192.7 235.5,-170.7 152.5,-170.7"/>
<text text-anchor="start" x="172.5" y="-177.8" font-family="Helvetica,sans-Serif" font-size="11.00" fill="#000000">仕入先枝番</text>
<polygon fill="none" stroke="#000000" points="235.5,-170.7 235.5,-192.7 319.5,-192.7 319.5,-170.7 235.5,-170.7"/>
<text text-anchor="start" x="238.5" y="-178.4" font-family="Helvetica,sans-Serif" font-size="11.00" fill="#000000">int4[10]</text>
<polygon fill="none" stroke="#000000" points="152.5,-148.7 152.5,-170.7 235.5,-170.7 235.5,-148.7 152.5,-148.7"/>
<text text-anchor="start" x="172.5" y="-155.8" font-family="Helvetica,sans-Serif" font-size="11.00" fill="#000000">作成日時</text>
<polygon fill="none" stroke="#000000" points="235.5,-148.7 235.5,-170.7 319.5,-170.7 319.5,-148.7 235.5,-148.7"/>
<text text-anchor="start" x="238.3807" y="-156.4" font-family="Helvetica,sans-Serif" font-size="11.00" fill="#000000">timestamp[29,6]</text>
<polygon fill="none" stroke="#000000" points="152.5,-126.7 152.5,-148.7 235.5,-148.7 235.5,-126.7 152.5,-126.7"/>
<text text-anchor="start" x="172.5" y="-133.8" font-family="Helvetica,sans-Serif" font-size="11.00" fill="#000000">作成者名</text>
<polygon fill="none" stroke="#000000" points="235.5,-126.7 235.5,-148.7 319.5,-148.7 319.5,-126.7 235.5,-126.7"/>
<text text-anchor="start" x="238.5" y="-134.4" font-family="Helvetica,sans-Serif" font-size="11.00" fill="#000000">varchar[12]</text>
<polygon fill="none" stroke="#000000" points="152.5,-104.7 152.5,-126.7 235.5,-126.7 235.5,-104.7 152.5,-104.7"/>
<text text-anchor="start" x="172.5" y="-111.8" font-family="Helvetica,sans-Serif" font-size="11.00" fill="#000000">更新日時</text>
<polygon fill="none" stroke="#000000" points="235.5,-104.7 235.5,-126.7 319.5,-126.7 319.5,-104.7 235.5,-104.7"/>
<text text-anchor="start" x="238.3807" y="-112.4" font-family="Helvetica,sans-Serif" font-size="11.00" fill="#000000">timestamp[29,6]</text>
<polygon fill="none" stroke="#000000" points="152.5,-82.7 152.5,-104.7 235.5,-104.7 235.5,-82.7 152.5,-82.7"/>
<text text-anchor="start" x="172.5" y="-89.8" font-family="Helvetica,sans-Serif" font-size="11.00" fill="#000000">更新者名</text>
<polygon fill="none" stroke="#000000" points="235.5,-82.7 235.5,-104.7 319.5,-104.7 319.5,-82.7 235.5,-82.7"/>
<text text-anchor="start" x="238.5" y="-90.4" font-family="Helvetica,sans-Serif" font-size="11.00" fill="#000000">varchar[12]</text>
<polygon fill="#ffffff" stroke="transparent" points="152.5,-63.7 152.5,-82.7 319.5,-82.7 319.5,-63.7 152.5,-63.7"/>
<polygon fill="none" stroke="#000000" points="152.5,-63.7 152.5,-82.7 319.5,-82.7 319.5,-63.7 152.5,-63.7"/>
<polygon fill="#ffffff" stroke="transparent" points="153.5,-64.7 153.5,-81.7 211.5,-81.7 211.5,-64.7 153.5,-64.7"/>
<text text-anchor="start" x="155.5" y="-69.8" font-family="Helvetica,sans-Serif" font-size="11.00" fill="#000000">&lt; 1</text>
<polygon fill="#ffffff" stroke="transparent" points="211.5,-64.7 211.5,-81.7 260.5,-81.7 260.5,-64.7 211.5,-64.7"/>
<text text-anchor="start" x="232.9431" y="-69.8" font-family="Helvetica,sans-Serif" font-size="11.00" fill="#000000"> &#160;</text>
<polygon fill="#ffffff" stroke="transparent" points="260.5,-64.7 260.5,-81.7 318.5,-81.7 318.5,-64.7 260.5,-64.7"/>
<text text-anchor="start" x="300.9053" y="-69.8" font-family="Helvetica,sans-Serif" font-size="11.00" fill="#000000">6 &gt;</text>
<polygon fill="#000000" stroke="#000000" points="211.5,-64.7 211.5,-81.7 211.5,-81.7 211.5,-64.7 211.5,-64.7"/>
<polygon fill="#000000" stroke="#000000" points="260.5,-64.7 260.5,-81.7 260.5,-81.7 260.5,-64.7 260.5,-64.7"/>
<polygon fill="none" stroke="#000000" stroke-width="2" points="151,-62.7 151,-546.7 320,-546.7 320,-62.7 151,-62.7"/>
</a>
</g>
</g>
<!-- 代替商品&#45;&gt;商品マスタ -->
<g id="edge1" class="edge">
<title>代替商品:w&#45;&gt;商品マスタ:e</title>
<path fill="none" stroke="#000000" d="M365.0864,-720.7459C296.5506,-699.4746 411.4733,-511.7 319.5,-511.7"/>
<polygon fill="#000000" stroke="#000000" points="371.5725,-721.6252 379.0163,-726.2674 375.5363,-722.1626 379.5,-722.7 379.5,-722.7 379.5,-722.7 375.5363,-722.1626 379.9837,-719.1326 371.5725,-721.6252 371.5725,-721.6252"/>
<ellipse fill="none" stroke="#000000" cx="368.4015" cy="-721.1953" rx="3.2" ry="3.2"/>
</g>
<!-- 代替商品&#45;&gt;商品マスタ -->
<g id="edge2" class="edge">
<title>代替商品:w&#45;&gt;商品マスタ:e</title>
<path fill="none" stroke="#000000" d="M365.1586,-742.9585C287.5207,-721.6368 421.0037,-511.7 319.5,-511.7"/>
<polygon fill="#000000" stroke="#000000" points="371.5583,-743.7356 379.066,-748.2737 375.5292,-744.2178 379.5,-744.7 379.5,-744.7 379.5,-744.7 375.5292,-744.2178 379.934,-741.1263 371.5583,-743.7356 371.5583,-743.7356"/>
<ellipse fill="none" stroke="#000000" cx="368.3817" cy="-743.3498" rx="3.2" ry="3.2"/>
</g>
<!-- 商品分類マスタ -->
<g id="node4" class="node">
<title>商品分類マスタ</title>
<g id="a_node4"><a xlink:href="../../tables/________52e8cf11.html" xlink:title="商品分類マスタ" target="_top">
<polygon fill="#ffffff" stroke="transparent" points="8,-199.2 8,-326.2 101,-326.2 101,-199.2 8,-199.2"/>
<polygon fill="#f5f5f5" stroke="transparent" points="8.5,-302.7 8.5,-325.7 101.5,-325.7 101.5,-302.7 8.5,-302.7"/>
<polygon fill="none" stroke="#000000" points="8.5,-302.7 8.5,-325.7 101.5,-325.7 101.5,-302.7 8.5,-302.7"/>
<text text-anchor="start" x="-.3019" y="-311.3" font-family="Helvetica,sans-Serif" font-weight="bold" font-size="11.00" fill="#000000">商品分類マスタ</text>
<text text-anchor="start" x="67.0219" y="-310.8" font-family="Helvetica,sans-Serif" font-size="11.00" fill="#000000">[table]</text>
<polygon fill="none" stroke="#000000" points="8.5,-280.7 8.5,-302.7 101.5,-302.7 101.5,-280.7 8.5,-280.7"/>
<image xlink:href="../../images/primaryKeys.png" width="11px" height="12px" preserveAspectRatio="xMinYMin meet" x="13.5" y="-297.7"/>
<text text-anchor="start" x="20.3315" y="-287.8" font-family="Helvetica,sans-Serif" font-size="11.00" fill="#000000">商品分類コード</text>
<polygon fill="#ffffff" stroke="transparent" points="8.5,-258.7 8.5,-280.7 101.5,-280.7 101.5,-258.7 8.5,-258.7"/>
<polygon fill="none" stroke="#000000" points="8.5,-258.7 8.5,-280.7 101.5,-280.7 101.5,-258.7 8.5,-258.7"/>
<text text-anchor="start" x="28.2669" y="-265.8" font-family="Helvetica,sans-Serif" font-size="11.00" fill="#000000">商品分類階層</text>
<polygon fill="#ffffff" stroke="transparent" points="8.5,-236.7 8.5,-258.7 101.5,-258.7 101.5,-236.7 8.5,-236.7"/>
<polygon fill="none" stroke="#000000" points="8.5,-236.7 8.5,-258.7 101.5,-258.7 101.5,-236.7 8.5,-236.7"/>
<text text-anchor="start" x="30.6209" y="-243.8" font-family="Helvetica,sans-Serif" font-size="11.00" fill="#000000">商品分類パス</text>
<polygon fill="none" stroke="#000000" points="8.5,-217.7 8.5,-236.7 101.5,-236.7 101.5,-217.7 8.5,-217.7"/>
<text text-anchor="start" x="11.5" y="-223.8" font-family="Helvetica,sans-Serif" font-size="11.00" fill="#000000">...</text>
<polygon fill="#ffffff" stroke="transparent" points="8.5,-198.7 8.5,-217.7 101.5,-217.7 101.5,-198.7 8.5,-198.7"/>
<polygon fill="none" stroke="#000000" points="8.5,-198.7 8.5,-217.7 101.5,-217.7 101.5,-198.7 8.5,-198.7"/>
<polygon fill="#ffffff" stroke="transparent" points="9.5,-199.7 9.5,-216.7 37.5,-216.7 37.5,-199.7 9.5,-199.7"/>
<text text-anchor="start" x="11.5" y="-204.8" font-family="Helvetica,sans-Serif" font-size="11.00" fill="#000000"> &#160;</text>
<polygon fill="#ffffff" stroke="transparent" points="37.5,-199.7 37.5,-216.7 64.5,-216.7 64.5,-199.7 37.5,-199.7"/>
<text text-anchor="start" x="47.9431" y="-204.8" font-family="Helvetica,sans-Serif" font-size="11.00" fill="#000000"> &#160;</text>
<polygon fill="#ffffff" stroke="transparent" points="64.5,-199.7 64.5,-216.7 100.5,-216.7 100.5,-199.7 64.5,-199.7"/>
<text text-anchor="start" x="82.9053" y="-204.8" font-family="Helvetica,sans-Serif" font-size="11.00" fill="#000000">1 &gt;</text>
<polygon fill="#000000" stroke="#000000" points="37.5,-199.7 37.5,-216.7 37.5,-216.7 37.5,-199.7 37.5,-199.7"/>
<polygon fill="#000000" stroke="#000000" points="64.5,-199.7 64.5,-216.7 64.5,-216.7 64.5,-199.7 64.5,-199.7"/>
</a>
</g>
</g>
<!-- 商品マスタ&#45;&gt;商品分類マスタ -->
<g id="edge4" class="edge">
<title>商品マスタ:w&#45;&gt;商品分類マスタ:e</title>
<path fill="none" stroke="#000000" d="M137.776,-291.7C125.7815,-291.7 118.3229,-291.7 101.5,-291.7"/>
<polygon fill="#000000" stroke="#000000" points="144.5,-291.7001 152.5,-295.3 148.5,-291.7 152.5,-291.7 152.5,-291.7 152.5,-291.7 148.5,-291.7 152.5,-288.1 144.5,-291.7001 144.5,-291.7001"/>
<ellipse fill="none" stroke="#000000" cx="141.3" cy="-291.7001" rx="3.2" ry="3.2"/>
</g>
<!-- 受注明細 -->
<g id="node3" class="node">
<title>受注明細</title>
<g id="a_node3"><a xlink:href="../../tables/_____27c23493.html" xlink:title="受注明細" target="_top">
<polygon fill="#ffffff" stroke="transparent" points="381.5,-526.2 381.5,-653.2 451.5,-653.2 451.5,-526.2 381.5,-526.2"/>
<polygon fill="#f5f5f5" stroke="transparent" points="381.5,-629.7 381.5,-652.7 451.5,-652.7 451.5,-629.7 381.5,-629.7"/>
<polygon fill="none" stroke="#000000" points="381.5,-629.7 381.5,-652.7 451.5,-652.7 451.5,-629.7 381.5,-629.7"/>
<text text-anchor="start" x="378.6006" y="-638.3" font-family="Helvetica,sans-Serif" font-weight="bold" font-size="11.00" fill="#000000">受注明細</text>
<text text-anchor="start" x="417.0219" y="-637.8" font-family="Helvetica,sans-Serif" font-size="11.00" fill="#000000">[table]</text>
<polygon fill="none" stroke="#000000" points="381.5,-607.7 381.5,-629.7 451.5,-629.7 451.5,-607.7 381.5,-607.7"/>
<image xlink:href="../../images/primaryKeys.png" width="11px" height="12px" preserveAspectRatio="xMinYMin meet" x="386.5" y="-624.7"/>
<text text-anchor="start" x="402.4021" y="-614.8" font-family="Helvetica,sans-Serif" font-size="11.00" fill="#000000">受注番号</text>
<polygon fill="none" stroke="#000000" points="381.5,-585.7 381.5,-607.7 451.5,-607.7 451.5,-585.7 381.5,-585.7"/>
<image xlink:href="../../images/primaryKeys.png" width="11px" height="12px" preserveAspectRatio="xMinYMin meet" x="386.5" y="-602.7"/>
<text text-anchor="start" x="403.5" y="-592.8" font-family="Helvetica,sans-Serif" font-size="11.00" fill="#000000">明細番号</text>
<polygon fill="#ffffff" stroke="transparent" points="381.5,-563.7 381.5,-585.7 451.5,-585.7 451.5,-563.7 381.5,-563.7"/>
<polygon fill="none" stroke="#000000" points="381.5,-563.7 381.5,-585.7 451.5,-585.7 451.5,-563.7 381.5,-563.7"/>
<image xlink:href="../../images/foreignKeys.png" width="11px" height="12px" preserveAspectRatio="xMinYMin meet" x="386.5" y="-580.7"/>
<text text-anchor="start" x="394.5547" y="-570.8" font-family="Helvetica,sans-Serif" font-size="11.00" fill="#000000">商品コード</text>
<polygon fill="none" stroke="#000000" points="381.5,-544.7 381.5,-563.7 451.5,-563.7 451.5,-544.7 381.5,-544.7"/>
<text text-anchor="start" x="384.5" y="-550.8" font-family="Helvetica,sans-Serif" font-size="11.00" fill="#000000">...</text>
<polygon fill="#ffffff" stroke="transparent" points="381.5,-525.7 381.5,-544.7 451.5,-544.7 451.5,-525.7 381.5,-525.7"/>
<polygon fill="none" stroke="#000000" points="381.5,-525.7 381.5,-544.7 451.5,-544.7 451.5,-525.7 381.5,-525.7"/>
<polygon fill="#ffffff" stroke="transparent" points="382.5,-526.7 382.5,-543.7 411.5,-543.7 411.5,-526.7 382.5,-526.7"/>
<text text-anchor="start" x="384.5" y="-531.8" font-family="Helvetica,sans-Serif" font-size="11.00" fill="#000000">&lt; 2</text>
<polygon fill="#ffffff" stroke="transparent" points="411.5,-526.7 411.5,-543.7 431.5,-543.7 431.5,-526.7 411.5,-526.7"/>
<text text-anchor="start" x="418.4431" y="-531.8" font-family="Helvetica,sans-Serif" font-size="11.00" fill="#000000"> &#160;</text>
<polygon fill="#ffffff" stroke="transparent" points="431.5,-526.7 431.5,-543.7 450.5,-543.7 450.5,-526.7 431.5,-526.7"/>
<text text-anchor="start" x="442.3862" y="-531.8" font-family="Helvetica,sans-Serif" font-size="11.00" fill="#000000"> &#160;</text>
<polygon fill="#000000" stroke="#000000" points="411.5,-526.7 411.5,-543.7 411.5,-543.7 411.5,-526.7 411.5,-526.7"/>
<polygon fill="#000000" stroke="#000000" points="431.5,-526.7 431.5,-543.7 431.5,-543.7 431.5,-526.7 431.5,-526.7"/>
</a>
</g>
</g>
<!-- 受注明細&#45;&gt;商品マスタ -->
<g id="edge3" class="edge">
<title>受注明細:w&#45;&gt;商品マスタ:e</title>
<path fill="none" stroke="#000000" d="M367.3326,-570.9477C345.9035,-557.385 352.9536,-511.7 319.5,-511.7"/>
<polygon fill="#000000" stroke="#000000" points="373.7666,-572.6518 380.5783,-578.18 377.6333,-573.6759 381.5,-574.7 381.5,-574.7 381.5,-574.7 377.6333,-573.6759 382.4217,-571.22 373.7666,-572.6518 373.7666,-572.6518"/>
<ellipse fill="none" stroke="#000000" cx="370.6733" cy="-571.8325" rx="3.2" ry="3.2"/>
</g>
<!-- 在庫 -->
<g id="node5" class="node">
<title>在庫</title>
<g id="a_node5"><a xlink:href="../../tables/___aec83.html" xlink:title="在庫" target="_top">
<polygon fill="#ffffff" stroke="transparent" points="386.5,-334.2 386.5,-505.2 446.5,-505.2 446.5,-334.2 386.5,-334.2"/>
<polygon fill="#f5f5f5" stroke="transparent" points="386.5,-481.7 386.5,-504.7 446.5,-504.7 446.5,-481.7 386.5,-481.7"/>
<polygon fill="none" stroke="#000000" points="386.5,-481.7 386.5,-504.7 446.5,-504.7 446.5,-481.7 386.5,-481.7"/>
<text text-anchor="start" x="384.4688" y="-490.3" font-family="Helvetica,sans-Serif" font-weight="bold" font-size="11.00" fill="#000000">在庫</text>
<text text-anchor="start" x="411.5437" y="-489.8" font-family="Helvetica,sans-Serif" font-size="11.00" fill="#000000">[table]</text>
<polygon fill="none" stroke="#000000" points="386.5,-459.7 386.5,-481.7 446.5,-481.7 446.5,-459.7 386.5,-459.7"/>
<image xlink:href="../../images/primaryKeys.png" width="11px" height="12px" preserveAspectRatio="xMinYMin meet" x="391.5" y="-476.7"/>
<text text-anchor="start" x="392.2232" y="-466.8" font-family="Helvetica,sans-Serif" font-size="11.00" fill="#000000">倉庫コード</text>
<polygon fill="none" stroke="#000000" points="386.5,-437.7 386.5,-459.7 446.5,-459.7 446.5,-437.7 386.5,-437.7"/>
<image xlink:href="../../images/primaryKeys.png" width="11px" height="12px" preserveAspectRatio="xMinYMin meet" x="391.5" y="-454.7"/>
<text text-anchor="start" x="394.0547" y="-444.8" font-family="Helvetica,sans-Serif" font-size="11.00" fill="#000000">商品コード</text>
<polygon fill="none" stroke="#000000" points="386.5,-415.7 386.5,-437.7 446.5,-437.7 446.5,-415.7 386.5,-415.7"/>
<image xlink:href="../../images/primaryKeys.png" width="11px" height="12px" preserveAspectRatio="xMinYMin meet" x="391.5" y="-432.7"/>
<text text-anchor="start" x="398.5543" y="-422.8" font-family="Helvetica,sans-Serif" font-size="11.00" fill="#000000">ロット番号</text>
<polygon fill="none" stroke="#000000" points="386.5,-393.7 386.5,-415.7 446.5,-415.7 446.5,-393.7 386.5,-393.7"/>
<image xlink:href="../../images/primaryKeys.png" width="11px" height="12px" preserveAspectRatio="xMinYMin meet" x="391.5" y="-410.7"/>
<text text-anchor="start" x="401.9956" y="-400.8" font-family="Helvetica,sans-Serif" font-size="11.00" fill="#000000">在庫区分</text>
<polygon fill="none" stroke="#000000" points="386.5,-371.7 386.5,-393.7 446.5,-393.7 446.5,-371.7 386.5,-371.7"/>
<image xlink:href="../../images/primaryKeys.png" width="11px" height="12px" preserveAspectRatio="xMinYMin meet" x="391.5" y="-388.7"/>
<text text-anchor="start" x="401.9956" y="-378.8" font-family="Helvetica,sans-Serif" font-size="11.00" fill="#000000">品質区分</text>
<polygon fill="none" stroke="#000000" points="386.5,-352.7 386.5,-371.7 446.5,-371.7 446.5,-352.7 386.5,-352.7"/>
<text text-anchor="start" x="389.5" y="-358.8" font-family="Helvetica,sans-Serif" font-size="11.00" fill="#000000">...</text>
<polygon fill="#ffffff" stroke="transparent" points="386.5,-333.7 386.5,-352.7 446.5,-352.7 446.5,-333.7 386.5,-333.7"/>
<polygon fill="none" stroke="#000000" points="386.5,-333.7 386.5,-352.7 446.5,-352.7 446.5,-333.7 386.5,-333.7"/>
<polygon fill="#ffffff" stroke="transparent" points="387.5,-334.7 387.5,-351.7 413.5,-351.7 413.5,-334.7 387.5,-334.7"/>
<text text-anchor="start" x="389.5" y="-339.8" font-family="Helvetica,sans-Serif" font-size="11.00" fill="#000000">&lt; 2</text>
<polygon fill="#ffffff" stroke="transparent" points="413.5,-334.7 413.5,-351.7 429.5,-351.7 429.5,-334.7 413.5,-334.7"/>
<text text-anchor="start" x="418.4431" y="-339.8" font-family="Helvetica,sans-Serif" font-size="11.00" fill="#000000"> &#160;</text>
<polygon fill="#ffffff" stroke="transparent" points="429.5,-334.7 429.5,-351.7 445.5,-351.7 445.5,-334.7 429.5,-334.7"/>
<text text-anchor="start" x="437.3862" y="-339.8" font-family="Helvetica,sans-Serif" font-size="11.00" fill="#000000"> &#160;</text>
<polygon fill="#000000" stroke="#000000" points="413.5,-334.7 413.5,-351.7 413.5,-351.7 413.5,-334.7 413.5,-334.7"/>
<polygon fill="#000000" stroke="#000000" points="429.5,-334.7 429.5,-351.7 429.5,-351.7 429.5,-334.7 429.5,-334.7"/>
</a>
</g>
</g>
<!-- 在庫&#45;&gt;商品マスタ -->
<g id="edge5" class="edge">
<title>在庫:w&#45;&gt;商品マスタ:e</title>
<path fill="none" stroke="#000000" d="M372.2467,-452.0872C348.6737,-465.1729 354.6264,-511.7 319.5,-511.7"/>
<polygon fill="#000000" stroke="#000000" points="378.7167,-450.5496 387.3323,-452.2025 382.6084,-449.6248 386.5,-448.7 386.5,-448.7 386.5,-448.7 382.6084,-449.6248 385.6677,-445.1975 378.7167,-450.5496 378.7167,-450.5496"/>
<ellipse fill="none" stroke="#000000" cx="375.6034" cy="-451.2895" rx="3.2" ry="3.2"/>
</g>
<!-- 売上明細 -->
<g id="node6" class="node">
<title>売上明細</title>
<g id="a_node6"><a xlink:href="../../tables/_____29a0763a.html" xlink:title="売上明細" target="_top">
<polygon fill="#ffffff" stroke="transparent" points="381.5,-164.2 381.5,-313.2 451.5,-313.2 451.5,-164.2 381.5,-164.2"/>
<polygon fill="#f5f5f5" stroke="transparent" points="381.5,-289.7 381.5,-312.7 451.5,-312.7 451.5,-289.7 381.5,-289.7"/>
<polygon fill="none" stroke="#000000" points="381.5,-289.7 381.5,-312.7 451.5,-312.7 451.5,-289.7 381.5,-289.7"/>
<text text-anchor="start" x="378.9086" y="-298.3" font-family="Helvetica,sans-Serif" font-weight="bold" font-size="11.00" fill="#000000">売上明細</text>
<text text-anchor="start" x="417.0219" y="-297.8" font-family="Helvetica,sans-Serif" font-size="11.00" fill="#000000">[table]</text>
<polygon fill="none" stroke="#000000" points="381.5,-267.7 381.5,-289.7 451.5,-289.7 451.5,-267.7 381.5,-267.7"/>
<image xlink:href="../../images/primaryKeys.png" width="11px" height="12px" preserveAspectRatio="xMinYMin meet" x="386.5" y="-284.7"/>
<text text-anchor="start" x="402.7101" y="-274.8" font-family="Helvetica,sans-Serif" font-size="11.00" fill="#000000">売上番号</text>
<polygon fill="none" stroke="#000000" points="381.5,-245.7 381.5,-267.7 451.5,-267.7 451.5,-245.7 381.5,-245.7"/>
<image xlink:href="../../images/primaryKeys.png" width="11px" height="12px" preserveAspectRatio="xMinYMin meet" x="386.5" y="-262.7"/>
<text text-anchor="start" x="403.5" y="-252.8" font-family="Helvetica,sans-Serif" font-size="11.00" fill="#000000">明細番号</text>
<polygon fill="#ffffff" stroke="transparent" points="381.5,-223.7 381.5,-245.7 451.5,-245.7 451.5,-223.7 381.5,-223.7"/>
<polygon fill="none" stroke="#000000" points="381.5,-223.7 381.5,-245.7 451.5,-245.7 451.5,-223.7 381.5,-223.7"/>
<image xlink:href="../../images/foreignKeys.png" width="11px" height="12px" preserveAspectRatio="xMinYMin meet" x="386.5" y="-240.7"/>
<text text-anchor="start" x="394.5547" y="-230.8" font-family="Helvetica,sans-Serif" font-size="11.00" fill="#000000">商品コード</text>
<polygon fill="#ffffff" stroke="transparent" points="381.5,-201.7 381.5,-223.7 451.5,-223.7 451.5,-201.7 381.5,-201.7"/>
<polygon fill="none" stroke="#000000" points="381.5,-201.7 381.5,-223.7 451.5,-223.7 451.5,-201.7 381.5,-201.7"/>
<text text-anchor="start" x="400.8731" y="-208.8" font-family="Helvetica,sans-Serif" font-size="11.00" fill="#000000">請求番号</text>
<polygon fill="none" stroke="#000000" points="381.5,-182.7 381.5,-201.7 451.5,-201.7 451.5,-182.7 381.5,-182.7"/>
<text text-anchor="start" x="384.5" y="-188.8" font-family="Helvetica,sans-Serif" font-size="11.00" fill="#000000">...</text>
<polygon fill="#ffffff" stroke="transparent" points="381.5,-163.7 381.5,-182.7 451.5,-182.7 451.5,-163.7 381.5,-163.7"/>
<polygon fill="none" stroke="#000000" points="381.5,-163.7 381.5,-182.7 451.5,-182.7 451.5,-163.7 381.5,-163.7"/>
<polygon fill="#ffffff" stroke="transparent" points="382.5,-164.7 382.5,-181.7 411.5,-181.7 411.5,-164.7 382.5,-164.7"/>
<text text-anchor="start" x="384.5" y="-169.8" font-family="Helvetica,sans-Serif" font-size="11.00" fill="#000000">&lt; 2</text>
<polygon fill="#ffffff" stroke="transparent" points="411.5,-164.7 411.5,-181.7 431.5,-181.7 431.5,-164.7 411.5,-164.7"/>
<text text-anchor="start" x="418.4431" y="-169.8" font-family="Helvetica,sans-Serif" font-size="11.00" fill="#000000"> &#160;</text>
<polygon fill="#ffffff" stroke="transparent" points="431.5,-164.7 431.5,-181.7 450.5,-181.7 450.5,-164.7 431.5,-164.7"/>
<text text-anchor="start" x="442.3862" y="-169.8" font-family="Helvetica,sans-Serif" font-size="11.00" fill="#000000"> &#160;</text>
<polygon fill="#000000" stroke="#000000" points="411.5,-164.7 411.5,-181.7 411.5,-181.7 411.5,-164.7 411.5,-164.7"/>
<polygon fill="#000000" stroke="#000000" points="431.5,-164.7 431.5,-181.7 431.5,-181.7 431.5,-164.7 431.5,-164.7"/>
</a>
</g>
</g>
<!-- 売上明細&#45;&gt;商品マスタ -->
<g id="edge6" class="edge">
<title>売上明細:w&#45;&gt;商品マスタ:e</title>
<path fill="none" stroke="#000000" d="M368.1487,-240.2332C328.3003,-279.2736 377.281,-511.7 319.5,-511.7"/>
<polygon fill="#000000" stroke="#000000" points="374.1095,-237.7629 382.8783,-238.0257 377.8048,-236.2314 381.5,-234.7 381.5,-234.7 381.5,-234.7 377.8048,-236.2314 380.1217,-231.3743 374.1095,-237.7629 374.1095,-237.7629"/>
<ellipse fill="none" stroke="#000000" cx="371.1533" cy="-238.988" rx="3.2" ry="3.2"/>
</g>
<!-- 顧客別販売単価 -->
<g id="node7" class="node">
<title>顧客別販売単価</title>
<g id="a_node7"><a xlink:href="../../tables/________201bd2dc.html" xlink:title="顧客別販売単価" target="_top">
<polygon fill="#ffffff" stroke="transparent" points="370,-38.2 370,-143.2 463,-143.2 463,-38.2 370,-38.2"/>
<polygon fill="#f5f5f5" stroke="transparent" points="370.5,-119.7 370.5,-142.7 463.5,-142.7 463.5,-119.7 370.5,-119.7"/>
<polygon fill="none" stroke="#000000" points="370.5,-119.7 370.5,-142.7 463.5,-142.7 463.5,-119.7 370.5,-119.7"/>
<text text-anchor="start" x="353.6015" y="-128.3" font-family="Helvetica,sans-Serif" font-weight="bold" font-size="11.00" fill="#000000">顧客別販売単価</text>
<text text-anchor="start" x="429.0219" y="-127.8" font-family="Helvetica,sans-Serif" font-size="11.00" fill="#000000">[table]</text>
<polygon fill="none" stroke="#000000" points="370.5,-97.7 370.5,-119.7 463.5,-119.7 463.5,-97.7 370.5,-97.7"/>
<image xlink:href="../../images/primaryKeys.png" width="11px" height="12px" preserveAspectRatio="xMinYMin meet" x="375.5" y="-114.7"/>
<text text-anchor="start" x="394.5547" y="-104.8" font-family="Helvetica,sans-Serif" font-size="11.00" fill="#000000">商品コード</text>
<polygon fill="none" stroke="#000000" points="370.5,-75.7 370.5,-97.7 463.5,-97.7 463.5,-75.7 370.5,-75.7"/>
<image xlink:href="../../images/primaryKeys.png" width="11px" height="12px" preserveAspectRatio="xMinYMin meet" x="375.5" y="-92.7"/>
<text text-anchor="start" x="385.9978" y="-82.8" font-family="Helvetica,sans-Serif" font-size="11.00" fill="#000000">取引先コード</text>
<polygon fill="none" stroke="#000000" points="370.5,-56.7 370.5,-75.7 463.5,-75.7 463.5,-56.7 370.5,-56.7"/>
<text text-anchor="start" x="373.5" y="-62.8" font-family="Helvetica,sans-Serif" font-size="11.00" fill="#000000">...</text>
<polygon fill="#ffffff" stroke="transparent" points="370.5,-37.7 370.5,-56.7 463.5,-56.7 463.5,-37.7 370.5,-37.7"/>
<polygon fill="none" stroke="#000000" points="370.5,-37.7 370.5,-56.7 463.5,-56.7 463.5,-37.7 370.5,-37.7"/>
<polygon fill="#ffffff" stroke="transparent" points="371.5,-38.7 371.5,-55.7 408.5,-55.7 408.5,-38.7 371.5,-38.7"/>
<text text-anchor="start" x="373.5" y="-43.8" font-family="Helvetica,sans-Serif" font-size="11.00" fill="#000000">&lt; 1</text>
<polygon fill="#ffffff" stroke="transparent" points="408.5,-38.7 408.5,-55.7 435.5,-55.7 435.5,-38.7 408.5,-38.7"/>
<text text-anchor="start" x="418.9431" y="-43.8" font-family="Helvetica,sans-Serif" font-size="11.00" fill="#000000"> &#160;</text>
<polygon fill="#ffffff" stroke="transparent" points="435.5,-38.7 435.5,-55.7 462.5,-55.7 462.5,-38.7 435.5,-38.7"/>
<text text-anchor="start" x="454.3862" y="-43.8" font-family="Helvetica,sans-Serif" font-size="11.00" fill="#000000"> &#160;</text>
<polygon fill="#000000" stroke="#000000" points="408.5,-38.7 408.5,-55.7 408.5,-55.7 408.5,-38.7 408.5,-38.7"/>
<polygon fill="#000000" stroke="#000000" points="435.5,-38.7 435.5,-55.7 435.5,-55.7 435.5,-38.7 435.5,-38.7"/>
</a>
</g>
</g>
<!-- 顧客別販売単価&#45;&gt;商品マスタ -->
<g id="edge7" class="edge">
<title>顧客別販売単価:w&#45;&gt;商品マスタ:e</title>
<path fill="none" stroke="#000000" d="M356.4232,-112.9532C295.1108,-156.0234 404.3043,-511.7 319.5,-511.7"/>
<polygon fill="#000000" stroke="#000000" points="362.8419,-111.0139 371.5412,-112.1461 366.671,-109.8569 370.5,-108.7 370.5,-108.7 370.5,-108.7 366.671,-109.8569 369.4588,-105.2539 362.8419,-111.0139 362.8419,-111.0139"/>
<ellipse fill="none" stroke="#000000" cx="359.7787" cy="-111.9394" rx="3.2" ry="3.2"/>
</g>
</g>
</svg>
