<?xml version="1.0" encoding="UTF-8" standalone="no"?>
<!DOCTYPE svg PUBLIC "-//W3C//DTD SVG 1.1//EN"
 "http://www.w3.org/Graphics/SVG/1.1/DTD/svg11.dtd">
<!-- Generated by graphviz version 2.40.1 (20161225.0304)
 -->
<!-- Title: oneDegreeRelationshipsDiagramImplied Pages: 1 -->
<svg width="467pt" height="755pt"
 viewBox="0.00 0.00 467.00 754.70" xmlns="http://www.w3.org/2000/svg" xmlns:xlink="http://www.w3.org/1999/xlink">
<g id="graph0" class="graph" transform="scale(1 1) rotate(0) translate(4 750.7)">
<title>oneDegreeRelationshipsDiagramImplied</title>
<polygon fill="#ffffff" stroke="transparent" points="-4,4 -4,-750.7 463,-750.7 463,4 -4,4"/>
<text text-anchor="middle" x="72.4936" y="-7.3" font-family="Helvetica,sans-Serif" font-size="11.00" fill="#000000">Generated by SchemaSpy</text>
<!-- 受注 -->
<g id="node1" class="node">
<title>受注</title>
<g id="a_node1"><a xlink:href="../../tables/___a93f1.html" xlink:title="受注" target="_top">
<polygon fill="#ffffff" stroke="transparent" points="384,-505.7 384,-742.7 451,-742.7 451,-505.7 384,-505.7"/>
<polygon fill="#f5f5f5" stroke="transparent" points="384.5,-719.2 384.5,-742.2 451.5,-742.2 451.5,-719.2 384.5,-719.2"/>
<polygon fill="none" stroke="#000000" points="384.5,-719.2 384.5,-742.2 451.5,-742.2 451.5,-719.2 384.5,-719.2"/>
<text text-anchor="start" x="382.7713" y="-727.8" font-family="Helvetica,sans-Serif" font-weight="bold" font-size="11.00" fill="#000000">受注</text>
<text text-anchor="start" x="416.5437" y="-727.3" font-family="Helvetica,sans-Serif" font-size="11.00" fill="#000000">[table]</text>
<polygon fill="none" stroke="#000000" points="384.5,-697.2 384.5,-719.2 451.5,-719.2 451.5,-697.2 384.5,-697.2"/>
<image xlink:href="../../images/primaryKeys.png" width="11px" height="12px" preserveAspectRatio="xMinYMin meet" x="389.5" y="-714.2"/>
<text text-anchor="start" x="403.4021" y="-704.3" font-family="Helvetica,sans-Serif" font-size="11.00" fill="#000000">受注番号</text>
<polygon fill="#ffffff" stroke="transparent" points="384.5,-675.2 384.5,-697.2 451.5,-697.2 451.5,-675.2 384.5,-675.2"/>
<polygon fill="none" stroke="#000000" points="384.5,-675.2 384.5,-697.2 451.5,-697.2 451.5,-675.2 384.5,-675.2"/>
<text text-anchor="start" x="404.5" y="-682.3" font-family="Helvetica,sans-Serif" font-size="11.00" fill="#000000">受注日</text>
<polygon fill="none" stroke="#000000" points="384.5,-653.2 384.5,-675.2 451.5,-675.2 451.5,-653.2 384.5,-653.2"/>
<image xlink:href="../../images/foreignKeys.png" width="11px" height="12px" preserveAspectRatio="xMinYMin meet" x="389.5" y="-670.2"/>
<text text-anchor="start" x="388.5257" y="-660.3" font-family="Helvetica,sans-Serif" font-size="11.00" fill="#000000">部門コード</text>
<polygon fill="none" stroke="#000000" points="384.5,-631.2 384.5,-653.2 451.5,-653.2 451.5,-631.2 384.5,-631.2"/>
<image xlink:href="../../images/foreignKeys.png" width="11px" height="12px" preserveAspectRatio="xMinYMin meet" x="389.5" y="-648.2"/>
<text text-anchor="start" x="404.5" y="-638.3" font-family="Helvetica,sans-Serif" font-size="11.00" fill="#000000">開始日</text>
<polygon fill="#ffffff" stroke="transparent" points="384.5,-609.2 384.5,-631.2 451.5,-631.2 451.5,-609.2 384.5,-609.2"/>
<polygon fill="none" stroke="#000000" points="384.5,-609.2 384.5,-631.2 451.5,-631.2 451.5,-609.2 384.5,-609.2"/>
<image xlink:href="../../images/foreignKeys.png" width="11px" height="12px" preserveAspectRatio="xMinYMin meet" x="389.5" y="-626.2"/>
<text text-anchor="start" x="388.2227" y="-616.3" font-family="Helvetica,sans-Serif" font-size="11.00" fill="#000000">顧客コード</text>
<polygon fill="#ffffff" stroke="transparent" points="384.5,-587.2 384.5,-609.2 451.5,-609.2 451.5,-587.2 384.5,-587.2"/>
<polygon fill="none" stroke="#000000" points="384.5,-587.2 384.5,-609.2 451.5,-609.2 451.5,-587.2 384.5,-587.2"/>
<image xlink:href="../../images/foreignKeys.png" width="11px" height="12px" preserveAspectRatio="xMinYMin meet" x="389.5" y="-604.2"/>
<text text-anchor="start" x="399.5241" y="-594.3" font-family="Helvetica,sans-Serif" font-size="11.00" fill="#000000">顧客枝番</text>
<polygon fill="#ffffff" stroke="transparent" points="384.5,-565.2 384.5,-587.2 451.5,-587.2 451.5,-565.2 384.5,-565.2"/>
<polygon fill="none" stroke="#000000" points="384.5,-565.2 384.5,-587.2 451.5,-587.2 451.5,-565.2 384.5,-565.2"/>
<image xlink:href="../../images/foreignKeys.png" width="11px" height="12px" preserveAspectRatio="xMinYMin meet" x="389.5" y="-582.2"/>
<text text-anchor="start" x="395.8627" y="-572.3" font-family="Helvetica,sans-Serif" font-size="11.00" fill="#000000">社員コード</text>
<polygon fill="none" stroke="#000000" points="384.5,-543.2 384.5,-565.2 451.5,-565.2 451.5,-543.2 384.5,-543.2"/>
<image xlink:href="../../images/foreignKeys.png" width="11px" height="12px" preserveAspectRatio="xMinYMin meet" x="389.5" y="-560.2"/>
<text text-anchor="start" x="393.7232" y="-550.3" font-family="Helvetica,sans-Serif" font-size="11.00" fill="#000000">倉庫コード</text>
<polygon fill="none" stroke="#000000" points="384.5,-524.2 384.5,-543.2 451.5,-543.2 451.5,-524.2 384.5,-524.2"/>
<text text-anchor="start" x="387.5" y="-530.3" font-family="Helvetica,sans-Serif" font-size="11.00" fill="#000000">...</text>
<polygon fill="#ffffff" stroke="transparent" points="384.5,-505.2 384.5,-524.2 451.5,-524.2 451.5,-505.2 384.5,-505.2"/>
<polygon fill="none" stroke="#000000" points="384.5,-505.2 384.5,-524.2 451.5,-524.2 451.5,-505.2 384.5,-505.2"/>
<polygon fill="#ffffff" stroke="transparent" points="385.5,-506.2 385.5,-523.2 410.5,-523.2 410.5,-506.2 385.5,-506.2"/>
<text text-anchor="start" x="387.5" y="-511.3" font-family="Helvetica,sans-Serif" font-size="11.00" fill="#000000">&lt; 5</text>
<polygon fill="#ffffff" stroke="transparent" points="410.5,-506.2 410.5,-523.2 426.5,-523.2 426.5,-506.2 410.5,-506.2"/>
<text text-anchor="start" x="415.4431" y="-511.3" font-family="Helvetica,sans-Serif" font-size="11.00" fill="#000000"> &#160;</text>
<polygon fill="#ffffff" stroke="transparent" points="426.5,-506.2 426.5,-523.2 450.5,-523.2 450.5,-506.2 426.5,-506.2"/>
<text text-anchor="start" x="432.9053" y="-511.3" font-family="Helvetica,sans-Serif" font-size="11.00" fill="#000000">2 &gt;</text>
<polygon fill="#000000" stroke="#000000" points="410.5,-506.2 410.5,-523.2 410.5,-523.2 410.5,-506.2 410.5,-506.2"/>
<polygon fill="#000000" stroke="#000000" points="426.5,-506.2 426.5,-523.2 426.5,-523.2 426.5,-506.2 426.5,-506.2"/>
</a>
</g>
</g>
<!-- 顧客マスタ -->
<g id="node2" class="node">
<title>顧客マスタ</title>
<g id="a_node2"><a xlink:href="../../tables/______8e04fe89.html" xlink:title="顧客マスタ" target="_top">
<polygon fill="#ffffff" stroke="transparent" points="156,-38.2 156,-656.2 335,-656.2 335,-38.2 156,-38.2"/>
<polygon fill="#f5f5f5" stroke="transparent" points="158.5,-631.2 158.5,-654.2 333.5,-654.2 333.5,-631.2 158.5,-631.2"/>
<polygon fill="none" stroke="#000000" points="158.5,-631.2 158.5,-654.2 333.5,-654.2 333.5,-631.2 158.5,-631.2"/>
<text text-anchor="start" x="147.0892" y="-639.8" font-family="Helvetica,sans-Serif" font-weight="bold" font-size="11.00" fill="#000000">顧客マスタ</text>
<text text-anchor="start" x="298.5437" y="-639.3" font-family="Helvetica,sans-Serif" font-size="11.00" fill="#000000">[table]</text>
<polygon fill="none" stroke="#000000" points="158.5,-609.2 158.5,-631.2 249.5,-631.2 249.5,-609.2 158.5,-609.2"/>
<image xlink:href="../../images/primaryKeys.png" width="11px" height="12px" preserveAspectRatio="xMinYMin meet" x="163.5" y="-626.2"/>
<text text-anchor="start" x="174.2226" y="-616.3" font-family="Helvetica,sans-Serif" font-size="11.00" fill="#000000">顧客コード</text>
<polygon fill="none" stroke="#000000" points="249.5,-609.2 249.5,-631.2 333.5,-631.2 333.5,-609.2 249.5,-609.2"/>
<text text-anchor="start" x="252.5" y="-616.9" font-family="Helvetica,sans-Serif" font-size="11.00" fill="#000000">varchar[8]</text>
<polygon fill="none" stroke="#000000" points="158.5,-587.2 158.5,-609.2 249.5,-609.2 249.5,-587.2 158.5,-587.2"/>
<image xlink:href="../../images/primaryKeys.png" width="11px" height="12px" preserveAspectRatio="xMinYMin meet" x="163.5" y="-604.2"/>
<text text-anchor="start" x="178.5" y="-594.3" font-family="Helvetica,sans-Serif" font-size="11.00" fill="#000000">顧客枝番</text>
<polygon fill="none" stroke="#000000" points="249.5,-587.2 249.5,-609.2 333.5,-609.2 333.5,-587.2 249.5,-587.2"/>
<text text-anchor="start" x="252.5" y="-594.9" font-family="Helvetica,sans-Serif" font-size="11.00" fill="#000000">int4[10]</text>
<polygon fill="none" stroke="#000000" points="158.5,-565.2 158.5,-587.2 249.5,-587.2 249.5,-565.2 158.5,-565.2"/>
<text text-anchor="start" x="178.5" y="-572.3" font-family="Helvetica,sans-Serif" font-size="11.00" fill="#000000">顧客区分</text>
<polygon fill="none" stroke="#000000" points="249.5,-565.2 249.5,-587.2 333.5,-587.2 333.5,-565.2 249.5,-565.2"/>
<text text-anchor="start" x="252.5" y="-572.9" font-family="Helvetica,sans-Serif" font-size="11.00" fill="#000000">int4[10]</text>
<polygon fill="none" stroke="#000000" points="158.5,-543.2 158.5,-565.2 249.5,-565.2 249.5,-543.2 158.5,-543.2"/>
<text text-anchor="start" x="172.3824" y="-550.3" font-family="Helvetica,sans-Serif" font-size="11.00" fill="#000000">請求先コード</text>
<polygon fill="none" stroke="#000000" points="249.5,-543.2 249.5,-565.2 333.5,-565.2 333.5,-543.2 249.5,-543.2"/>
<text text-anchor="start" x="252.5" y="-550.9" font-family="Helvetica,sans-Serif" font-size="11.00" fill="#000000">varchar[8]</text>
<polygon fill="none" stroke="#000000" points="158.5,-521.2 158.5,-543.2 249.5,-543.2 249.5,-521.2 158.5,-521.2"/>
<text text-anchor="start" x="178.5" y="-528.3" font-family="Helvetica,sans-Serif" font-size="11.00" fill="#000000">請求先枝番</text>
<polygon fill="none" stroke="#000000" points="249.5,-521.2 249.5,-543.2 333.5,-543.2 333.5,-521.2 249.5,-521.2"/>
<text text-anchor="start" x="252.5" y="-528.9" font-family="Helvetica,sans-Serif" font-size="11.00" fill="#000000">int4[10]</text>
<polygon fill="none" stroke="#000000" points="158.5,-499.2 158.5,-521.2 249.5,-521.2 249.5,-499.2 158.5,-499.2"/>
<text text-anchor="start" x="176.9694" y="-506.3" font-family="Helvetica,sans-Serif" font-size="11.00" fill="#000000">回収先コード</text>
<polygon fill="none" stroke="#000000" points="249.5,-499.2 249.5,-521.2 333.5,-521.2 333.5,-499.2 249.5,-499.2"/>
<text text-anchor="start" x="252.5" y="-506.9" font-family="Helvetica,sans-Serif" font-size="11.00" fill="#000000">varchar[8]</text>
<polygon fill="none" stroke="#000000" points="158.5,-477.2 158.5,-499.2 249.5,-499.2 249.5,-477.2 158.5,-477.2"/>
<text text-anchor="start" x="178.5" y="-484.3" font-family="Helvetica,sans-Serif" font-size="11.00" fill="#000000">回収先枝番</text>
<polygon fill="none" stroke="#000000" points="249.5,-477.2 249.5,-499.2 333.5,-499.2 333.5,-477.2 249.5,-477.2"/>
<text text-anchor="start" x="252.5" y="-484.9" font-family="Helvetica,sans-Serif" font-size="11.00" fill="#000000">int4[10]</text>
<polygon fill="none" stroke="#000000" points="158.5,-455.2 158.5,-477.2 249.5,-477.2 249.5,-455.2 158.5,-455.2"/>
<text text-anchor="start" x="178.5" y="-462.3" font-family="Helvetica,sans-Serif" font-size="11.00" fill="#000000">顧客名</text>
<polygon fill="none" stroke="#000000" points="249.5,-455.2 249.5,-477.2 333.5,-477.2 333.5,-455.2 249.5,-455.2"/>
<text text-anchor="start" x="252.5" y="-462.9" font-family="Helvetica,sans-Serif" font-size="11.00" fill="#000000">varchar[40]</text>
<polygon fill="none" stroke="#000000" points="158.5,-433.2 158.5,-455.2 249.5,-455.2 249.5,-433.2 158.5,-433.2"/>
<text text-anchor="start" x="178.5" y="-440.3" font-family="Helvetica,sans-Serif" font-size="11.00" fill="#000000">顧客名カナ</text>
<polygon fill="none" stroke="#000000" points="249.5,-433.2 249.5,-455.2 333.5,-455.2 333.5,-433.2 249.5,-433.2"/>
<text text-anchor="start" x="252.5" y="-440.9" font-family="Helvetica,sans-Serif" font-size="11.00" fill="#000000">varchar[40]</text>
<polygon fill="none" stroke="#000000" points="158.5,-411.2 158.5,-433.2 249.5,-433.2 249.5,-411.2 158.5,-411.2"/>
<text text-anchor="start" x="168.7205" y="-418.3" font-family="Helvetica,sans-Serif" font-size="11.00" fill="#000000">担当社員コード</text>
<polygon fill="none" stroke="#000000" points="249.5,-411.2 249.5,-433.2 333.5,-433.2 333.5,-411.2 249.5,-411.2"/>
<text text-anchor="start" x="252.5" y="-418.9" font-family="Helvetica,sans-Serif" font-size="11.00" fill="#000000">varchar[10]</text>
<polygon fill="none" stroke="#000000" points="158.5,-389.2 158.5,-411.2 249.5,-411.2 249.5,-389.2 158.5,-389.2"/>
<text text-anchor="start" x="171.1553" y="-396.3" font-family="Helvetica,sans-Serif" font-size="11.00" fill="#000000">顧客担当者名</text>
<polygon fill="none" stroke="#000000" points="249.5,-389.2 249.5,-411.2 333.5,-411.2 333.5,-389.2 249.5,-389.2"/>
<text text-anchor="start" x="252.5" y="-396.9" font-family="Helvetica,sans-Serif" font-size="11.00" fill="#000000">varchar[40]</text>
<polygon fill="none" stroke="#000000" points="158.5,-367.2 158.5,-389.2 249.5,-389.2 249.5,-367.2 158.5,-367.2"/>
<text text-anchor="start" x="158.3194" y="-374.3" font-family="Helvetica,sans-Serif" font-size="11.00" fill="#000000">顧客担当部署名</text>
<polygon fill="none" stroke="#000000" points="249.5,-367.2 249.5,-389.2 333.5,-389.2 333.5,-367.2 249.5,-367.2"/>
<text text-anchor="start" x="252.5" y="-374.9" font-family="Helvetica,sans-Serif" font-size="11.00" fill="#000000">varchar[40]</text>
<polygon fill="none" stroke="#000000" points="158.5,-345.2 158.5,-367.2 249.5,-367.2 249.5,-345.2 158.5,-345.2"/>
<text text-anchor="start" x="171.3759" y="-352.3" font-family="Helvetica,sans-Serif" font-size="11.00" fill="#000000">顧客郵便番号</text>
<polygon fill="none" stroke="#000000" points="249.5,-345.2 249.5,-367.2 333.5,-367.2 333.5,-345.2 249.5,-345.2"/>
<text text-anchor="start" x="252.5" y="-352.9" font-family="Helvetica,sans-Serif" font-size="11.00" fill="#000000">bpchar[8]</text>
<polygon fill="none" stroke="#000000" points="158.5,-323.2 158.5,-345.2 249.5,-345.2 249.5,-323.2 158.5,-323.2"/>
<text text-anchor="start" x="166.8818" y="-330.3" font-family="Helvetica,sans-Serif" font-size="11.00" fill="#000000">顧客都道府県</text>
<polygon fill="none" stroke="#000000" points="249.5,-323.2 249.5,-345.2 333.5,-345.2 333.5,-323.2 249.5,-323.2"/>
<text text-anchor="start" x="252.5" y="-330.9" font-family="Helvetica,sans-Serif" font-size="11.00" fill="#000000">varchar[4]</text>
<polygon fill="none" stroke="#000000" points="158.5,-301.2 158.5,-323.2 249.5,-323.2 249.5,-301.2 158.5,-301.2"/>
<text text-anchor="start" x="173.2981" y="-308.3" font-family="Helvetica,sans-Serif" font-size="11.00" fill="#000000">顧客住所１</text>
<polygon fill="none" stroke="#000000" points="249.5,-301.2 249.5,-323.2 333.5,-323.2 333.5,-301.2 249.5,-301.2"/>
<text text-anchor="start" x="252.5" y="-308.9" font-family="Helvetica,sans-Serif" font-size="11.00" fill="#000000">varchar[40]</text>
<polygon fill="none" stroke="#000000" points="158.5,-279.2 158.5,-301.2 249.5,-301.2 249.5,-279.2 158.5,-279.2"/>
<text text-anchor="start" x="169.0989" y="-286.3" font-family="Helvetica,sans-Serif" font-size="11.00" fill="#000000">顧客電話番号</text>
<polygon fill="none" stroke="#000000" points="249.5,-279.2 249.5,-301.2 333.5,-301.2 333.5,-279.2 249.5,-279.2"/>
<text text-anchor="start" x="252.5" y="-286.9" font-family="Helvetica,sans-Serif" font-size="11.00" fill="#000000">varchar[13]</text>
<polygon fill="none" stroke="#000000" points="158.5,-257.2 158.5,-279.2 249.5,-279.2 249.5,-257.2 158.5,-257.2"/>
<text text-anchor="start" x="151.4208" y="-264.3" font-family="Helvetica,sans-Serif" font-size="11.00" fill="#000000">顧客メールアドレス</text>
<polygon fill="none" stroke="#000000" points="249.5,-257.2 249.5,-279.2 333.5,-279.2 333.5,-257.2 249.5,-257.2"/>
<text text-anchor="start" x="252.5" y="-264.9" font-family="Helvetica,sans-Serif" font-size="11.00" fill="#000000">varchar[40]</text>
<polygon fill="none" stroke="#000000" points="158.5,-235.2 158.5,-257.2 249.5,-257.2 249.5,-235.2 158.5,-235.2"/>
<text text-anchor="start" x="175.3447" y="-242.3" font-family="Helvetica,sans-Serif" font-size="11.00" fill="#000000">顧客締日１</text>
<polygon fill="none" stroke="#000000" points="249.5,-235.2 249.5,-257.2 333.5,-257.2 333.5,-235.2 249.5,-235.2"/>
<text text-anchor="start" x="252.5" y="-242.9" font-family="Helvetica,sans-Serif" font-size="11.00" fill="#000000">int4[10]</text>
<polygon fill="none" stroke="#000000" points="158.5,-213.2 158.5,-235.2 249.5,-235.2 249.5,-213.2 158.5,-213.2"/>
<text text-anchor="start" x="166.8774" y="-220.3" font-family="Helvetica,sans-Serif" font-size="11.00" fill="#000000">顧客支払月数１</text>
<polygon fill="none" stroke="#000000" points="249.5,-213.2 249.5,-235.2 333.5,-235.2 333.5,-213.2 249.5,-213.2"/>
<text text-anchor="start" x="252.5" y="-220.9" font-family="Helvetica,sans-Serif" font-size="11.00" fill="#000000">int4[10]</text>
<polygon fill="none" stroke="#000000" points="158.5,-191.2 158.5,-213.2 249.5,-213.2 249.5,-191.2 158.5,-191.2"/>
<text text-anchor="start" x="169.9338" y="-198.3" font-family="Helvetica,sans-Serif" font-size="11.00" fill="#000000">顧客支払日１</text>
<polygon fill="none" stroke="#000000" points="249.5,-191.2 249.5,-213.2 333.5,-213.2 333.5,-191.2 249.5,-191.2"/>
<text text-anchor="start" x="252.5" y="-198.9" font-family="Helvetica,sans-Serif" font-size="11.00" fill="#000000">int4[10]</text>
<polygon fill="none" stroke="#000000" points="158.5,-169.2 158.5,-191.2 249.5,-191.2 249.5,-169.2 158.5,-169.2"/>
<text text-anchor="start" x="165.0459" y="-176.3" font-family="Helvetica,sans-Serif" font-size="11.00" fill="#000000">顧客支払方法１</text>
<polygon fill="none" stroke="#000000" points="249.5,-169.2 249.5,-191.2 333.5,-191.2 333.5,-169.2 249.5,-169.2"/>
<text text-anchor="start" x="252.5" y="-176.9" font-family="Helvetica,sans-Serif" font-size="11.00" fill="#000000">int4[10]</text>
<polygon fill="none" stroke="#000000" points="158.5,-147.2 158.5,-169.2 249.5,-169.2 249.5,-147.2 158.5,-147.2"/>
<text text-anchor="start" x="175.3447" y="-154.3" font-family="Helvetica,sans-Serif" font-size="11.00" fill="#000000">顧客締日２</text>
<polygon fill="none" stroke="#000000" points="249.5,-147.2 249.5,-169.2 333.5,-169.2 333.5,-147.2 249.5,-147.2"/>
<text text-anchor="start" x="252.5" y="-154.9" font-family="Helvetica,sans-Serif" font-size="11.00" fill="#000000">int4[10]</text>
<polygon fill="none" stroke="#000000" points="158.5,-125.2 158.5,-147.2 249.5,-147.2 249.5,-125.2 158.5,-125.2"/>
<text text-anchor="start" x="178.5" y="-132.3" font-family="Helvetica,sans-Serif" font-size="11.00" fill="#000000">作成日時</text>
<polygon fill="none" stroke="#000000" points="249.5,-125.2 249.5,-147.2 333.5,-147.2 333.5,-125.2 249.5,-125.2"/>
<text text-anchor="start" x="252.3807" y="-132.9" font-family="Helvetica,sans-Serif" font-size="11.00" fill="#000000">timestamp[29,6]</text>
<polygon fill="none" stroke="#000000" points="158.5,-103.2 158.5,-125.2 249.5,-125.2 249.5,-103.2 158.5,-103.2"/>
<text text-anchor="start" x="178.5" y="-110.3" font-family="Helvetica,sans-Serif" font-size="11.00" fill="#000000">作成者名</text>
<polygon fill="none" stroke="#000000" points="249.5,-103.2 249.5,-125.2 333.5,-125.2 333.5,-103.2 249.5,-103.2"/>
<text text-anchor="start" x="252.5" y="-110.9" font-family="Helvetica,sans-Serif" font-size="11.00" fill="#000000">varchar[12]</text>
<polygon fill="none" stroke="#000000" points="158.5,-81.2 158.5,-103.2 249.5,-103.2 249.5,-81.2 158.5,-81.2"/>
<text text-anchor="start" x="178.5" y="-88.3" font-family="Helvetica,sans-Serif" font-size="11.00" fill="#000000">更新日時</text>
<polygon fill="none" stroke="#000000" points="249.5,-81.2 249.5,-103.2 333.5,-103.2 333.5,-81.2 249.5,-81.2"/>
<text text-anchor="start" x="252.3807" y="-88.9" font-family="Helvetica,sans-Serif" font-size="11.00" fill="#000000">timestamp[29,6]</text>
<polygon fill="none" stroke="#000000" points="158.5,-59.2 158.5,-81.2 249.5,-81.2 249.5,-59.2 158.5,-59.2"/>
<text text-anchor="start" x="178.5" y="-66.3" font-family="Helvetica,sans-Serif" font-size="11.00" fill="#000000">更新者名</text>
<polygon fill="none" stroke="#000000" points="249.5,-59.2 249.5,-81.2 333.5,-81.2 333.5,-59.2 249.5,-59.2"/>
<text text-anchor="start" x="252.5" y="-66.9" font-family="Helvetica,sans-Serif" font-size="11.00" fill="#000000">varchar[12]</text>
<polygon fill="#ffffff" stroke="transparent" points="158.5,-40.2 158.5,-59.2 333.5,-59.2 333.5,-40.2 158.5,-40.2"/>
<polygon fill="none" stroke="#000000" points="158.5,-40.2 158.5,-59.2 333.5,-59.2 333.5,-40.2 158.5,-40.2"/>
<polygon fill="#ffffff" stroke="transparent" points="159.5,-41.2 159.5,-58.2 220.5,-58.2 220.5,-41.2 159.5,-41.2"/>
<text text-anchor="start" x="161.5" y="-46.3" font-family="Helvetica,sans-Serif" font-size="11.00" fill="#000000">&lt; 1</text>
<polygon fill="#ffffff" stroke="transparent" points="220.5,-41.2 220.5,-58.2 272.5,-58.2 272.5,-41.2 220.5,-41.2"/>
<text text-anchor="start" x="243.4431" y="-46.3" font-family="Helvetica,sans-Serif" font-size="11.00" fill="#000000"> &#160;</text>
<polygon fill="#ffffff" stroke="transparent" points="272.5,-41.2 272.5,-58.2 332.5,-58.2 332.5,-41.2 272.5,-41.2"/>
<text text-anchor="start" x="314.9053" y="-46.3" font-family="Helvetica,sans-Serif" font-size="11.00" fill="#000000">2 &gt;</text>
<polygon fill="#000000" stroke="#000000" points="220.5,-41.2 220.5,-58.2 220.5,-58.2 220.5,-41.2 220.5,-41.2"/>
<polygon fill="#000000" stroke="#000000" points="272.5,-41.2 272.5,-58.2 272.5,-58.2 272.5,-41.2 272.5,-41.2"/>
<polygon fill="none" stroke="#000000" stroke-width="2" points="157,-39.2 157,-655.2 334,-655.2 334,-39.2 157,-39.2"/>
</a>
</g>
</g>
<!-- 受注&#45;&gt;顧客マスタ -->
<g id="edge1" class="edge">
<title>受注:w&#45;&gt;顧客マスタ:e</title>
<path fill="none" stroke="#000000" d="M369.776,-620.2C357.7815,-620.2 350.3229,-620.2 333.5,-620.2"/>
<polygon fill="#000000" stroke="#000000" points="376.5,-620.2001 384.5,-623.8 380.5,-620.2 384.5,-620.2 384.5,-620.2 384.5,-620.2 380.5,-620.2 384.5,-616.6 376.5,-620.2001 376.5,-620.2001"/>
<ellipse fill="none" stroke="#000000" cx="373.3" cy="-620.2001" rx="3.2" ry="3.2"/>
</g>
<!-- 受注&#45;&gt;顧客マスタ -->
<g id="edge2" class="edge">
<title>受注:w&#45;&gt;顧客マスタ:e</title>
<path fill="none" stroke="#000000" d="M369.776,-598.2C357.7815,-598.2 350.3229,-598.2 333.5,-598.2"/>
<polygon fill="#000000" stroke="#000000" points="376.5,-598.2001 384.5,-601.8 380.5,-598.2 384.5,-598.2 384.5,-598.2 384.5,-598.2 380.5,-598.2 384.5,-594.6 376.5,-598.2001 376.5,-598.2001"/>
<ellipse fill="none" stroke="#000000" cx="373.3" cy="-598.2001" rx="3.2" ry="3.2"/>
</g>
<!-- 取引先マスタ -->
<g id="node3" class="node">
<title>取引先マスタ</title>
<g id="a_node3"><a xlink:href="../../tables/_______70f9c0bb.html" xlink:title="取引先マスタ" target="_top">
<polygon fill="#ffffff" stroke="transparent" points="8,-527.7 8,-654.7 107,-654.7 107,-527.7 8,-527.7"/>
<polygon fill="#f5f5f5" stroke="transparent" points="8.5,-631.2 8.5,-654.2 107.5,-654.2 107.5,-631.2 8.5,-631.2"/>
<polygon fill="none" stroke="#000000" points="8.5,-631.2 8.5,-654.2 107.5,-654.2 107.5,-631.2 8.5,-631.2"/>
<text text-anchor="start" x="-.6356" y="-639.8" font-family="Helvetica,sans-Serif" font-weight="bold" font-size="11.00" fill="#000000">取引先マスタ</text>
<text text-anchor="start" x="72.5437" y="-639.3" font-family="Helvetica,sans-Serif" font-size="11.00" fill="#000000">[table]</text>
<polygon fill="none" stroke="#000000" points="8.5,-609.2 8.5,-631.2 107.5,-631.2 107.5,-609.2 8.5,-609.2"/>
<image xlink:href="../../images/primaryKeys.png" width="11px" height="12px" preserveAspectRatio="xMinYMin meet" x="13.5" y="-626.2"/>
<text text-anchor="start" x="26.9978" y="-616.3" font-family="Helvetica,sans-Serif" font-size="11.00" fill="#000000">取引先コード</text>
<polygon fill="#ffffff" stroke="transparent" points="8.5,-587.2 8.5,-609.2 107.5,-609.2 107.5,-587.2 8.5,-587.2"/>
<polygon fill="none" stroke="#000000" points="8.5,-587.2 8.5,-609.2 107.5,-609.2 107.5,-587.2 8.5,-587.2"/>
<text text-anchor="start" x="28.5" y="-594.3" font-family="Helvetica,sans-Serif" font-size="11.00" fill="#000000">取引先名</text>
<polygon fill="#ffffff" stroke="transparent" points="8.5,-565.2 8.5,-587.2 107.5,-587.2 107.5,-565.2 8.5,-565.2"/>
<polygon fill="none" stroke="#000000" points="8.5,-565.2 8.5,-587.2 107.5,-587.2 107.5,-565.2 8.5,-565.2"/>
<image xlink:href="../../images/foreignKeys.png" width="11px" height="12px" preserveAspectRatio="xMinYMin meet" x="13.5" y="-582.2"/>
<text text-anchor="start" x="1.1319" y="-572.3" font-family="Helvetica,sans-Serif" font-size="11.00" fill="#000000">取引先グループコード</text>
<polygon fill="none" stroke="#000000" points="8.5,-546.2 8.5,-565.2 107.5,-565.2 107.5,-546.2 8.5,-546.2"/>
<text text-anchor="start" x="11.5" y="-552.3" font-family="Helvetica,sans-Serif" font-size="11.00" fill="#000000">...</text>
<polygon fill="#ffffff" stroke="transparent" points="8.5,-527.2 8.5,-546.2 107.5,-546.2 107.5,-527.2 8.5,-527.2"/>
<polygon fill="none" stroke="#000000" points="8.5,-527.2 8.5,-546.2 107.5,-546.2 107.5,-527.2 8.5,-527.2"/>
<polygon fill="#ffffff" stroke="transparent" points="9.5,-528.2 9.5,-545.2 45.5,-545.2 45.5,-528.2 9.5,-528.2"/>
<text text-anchor="start" x="11.5" y="-533.3" font-family="Helvetica,sans-Serif" font-size="11.00" fill="#000000">&lt; 1</text>
<polygon fill="#ffffff" stroke="transparent" points="45.5,-528.2 45.5,-545.2 71.5,-545.2 71.5,-528.2 45.5,-528.2"/>
<text text-anchor="start" x="55.4431" y="-533.3" font-family="Helvetica,sans-Serif" font-size="11.00" fill="#000000"> &#160;</text>
<polygon fill="#ffffff" stroke="transparent" points="71.5,-528.2 71.5,-545.2 106.5,-545.2 106.5,-528.2 71.5,-528.2"/>
<text text-anchor="start" x="88.9053" y="-533.3" font-family="Helvetica,sans-Serif" font-size="11.00" fill="#000000">4 &gt;</text>
<polygon fill="#000000" stroke="#000000" points="45.5,-528.2 45.5,-545.2 45.5,-545.2 45.5,-528.2 45.5,-528.2"/>
<polygon fill="#000000" stroke="#000000" points="71.5,-528.2 71.5,-545.2 71.5,-545.2 71.5,-528.2 71.5,-528.2"/>
</a>
</g>
</g>
<!-- 顧客マスタ&#45;&gt;取引先マスタ -->
<g id="edge3" class="edge">
<title>顧客マスタ:w&#45;&gt;取引先マスタ:e</title>
<path fill="none" stroke="#000000" d="M143.776,-620.2C131.7815,-620.2 124.3229,-620.2 107.5,-620.2"/>
<polygon fill="#000000" stroke="#000000" points="150.5,-620.2001 158.5,-623.8 154.5,-620.2 158.5,-620.2 158.5,-620.2 158.5,-620.2 154.5,-620.2 158.5,-616.6 150.5,-620.2001 150.5,-620.2001"/>
<ellipse fill="none" stroke="#000000" cx="147.3" cy="-620.2001" rx="3.2" ry="3.2"/>
</g>
</g>
</svg>
