<?xml version="1.0" encoding="UTF-8" standalone="no"?>
<!DOCTYPE svg PUBLIC "-//W3C//DTD SVG 1.1//EN"
 "http://www.w3.org/Graphics/SVG/1.1/DTD/svg11.dtd">
<!-- Generated by graphviz version 2.40.1 (20161225.0304)
 -->
<!-- Title: twoDegreesRelationshipsDiagramImplied Pages: 1 -->
<svg width="647pt" height="511pt"
 viewBox="0.00 0.00 647.00 510.70" xmlns="http://www.w3.org/2000/svg" xmlns:xlink="http://www.w3.org/1999/xlink">
<g id="graph0" class="graph" transform="scale(1 1) rotate(0) translate(4 506.7)">
<title>twoDegreesRelationshipsDiagramImplied</title>
<polygon fill="#ffffff" stroke="transparent" points="-4,4 -4,-506.7 643,-506.7 643,4 -4,4"/>
<text text-anchor="middle" x="72.4936" y="-7.3" font-family="Helvetica,sans-Serif" font-size="11.00" fill="#000000">Generated by SchemaSpy</text>
<!-- 受注 -->
<g id="node1" class="node">
<title>受注</title>
<g id="a_node1"><a xlink:href="../../tables/___a93f1.html" xlink:title="受注" target="_top">
<polygon fill="#ffffff" stroke="transparent" points="339,-336.7 339,-397.7 393,-397.7 393,-336.7 339,-336.7"/>
<polygon fill="#f5f5f5" stroke="transparent" points="339,-374.2 339,-397.2 393,-397.2 393,-374.2 339,-374.2"/>
<polygon fill="none" stroke="#000000" points="339,-374.2 339,-397.2 393,-397.2 393,-374.2 339,-374.2"/>
<text text-anchor="start" x="337.2713" y="-382.8" font-family="Helvetica,sans-Serif" font-weight="bold" font-size="11.00" fill="#000000">受注</text>
<text text-anchor="start" x="358.5219" y="-382.3" font-family="Helvetica,sans-Serif" font-size="11.00" fill="#000000">[table]</text>
<polygon fill="none" stroke="#000000" points="339,-355.2 339,-374.2 393,-374.2 393,-355.2 339,-355.2"/>
<text text-anchor="start" x="342" y="-361.3" font-family="Helvetica,sans-Serif" font-size="11.00" fill="#000000">...</text>
<polygon fill="#ffffff" stroke="transparent" points="339,-336.2 339,-355.2 393,-355.2 393,-336.2 339,-336.2"/>
<polygon fill="none" stroke="#000000" points="339,-336.2 339,-355.2 393,-355.2 393,-336.2 339,-336.2"/>
<polygon fill="#ffffff" stroke="transparent" points="340,-337.2 340,-354.2 361,-354.2 361,-337.2 340,-337.2"/>
<text text-anchor="start" x="342" y="-342.3" font-family="Helvetica,sans-Serif" font-size="11.00" fill="#000000">&lt; 6</text>
<polygon fill="#ffffff" stroke="transparent" points="361,-337.2 361,-354.2 372,-354.2 372,-337.2 361,-337.2"/>
<text text-anchor="start" x="363.4431" y="-342.3" font-family="Helvetica,sans-Serif" font-size="11.00" fill="#000000"> &#160;</text>
<polygon fill="#ffffff" stroke="transparent" points="372,-337.2 372,-354.2 392,-354.2 392,-337.2 372,-337.2"/>
<text text-anchor="start" x="374.4053" y="-342.3" font-family="Helvetica,sans-Serif" font-size="11.00" fill="#000000">2 &gt;</text>
<polygon fill="#000000" stroke="#000000" points="361,-337.2 361,-354.2 361,-354.2 361,-337.2 361,-337.2"/>
<polygon fill="#000000" stroke="#000000" points="372,-337.2 372,-354.2 372,-354.2 372,-337.2 372,-337.2"/>
</a>
</g>
</g>
<!-- 倉庫マスタ -->
<g id="node2" class="node">
<title>倉庫マスタ</title>
<g id="a_node2"><a xlink:href="../../tables/______939d4982.html" xlink:title="倉庫マスタ" target="_top">
<polygon fill="#ffffff" stroke="transparent" points="212,-171.7 212,-232.7 290,-232.7 290,-171.7 212,-171.7"/>
<polygon fill="#f5f5f5" stroke="transparent" points="212,-209.2 212,-232.2 290,-232.2 290,-209.2 212,-209.2"/>
<polygon fill="none" stroke="#000000" points="212,-209.2 212,-232.2 290,-232.2 290,-209.2 212,-209.2"/>
<text text-anchor="start" x="206.0898" y="-217.8" font-family="Helvetica,sans-Serif" font-weight="bold" font-size="11.00" fill="#000000">倉庫マスタ</text>
<text text-anchor="start" x="255.5219" y="-217.3" font-family="Helvetica,sans-Serif" font-size="11.00" fill="#000000">[table]</text>
<polygon fill="none" stroke="#000000" points="212,-190.2 212,-209.2 290,-209.2 290,-190.2 212,-190.2"/>
<text text-anchor="start" x="215" y="-196.3" font-family="Helvetica,sans-Serif" font-size="11.00" fill="#000000">...</text>
<polygon fill="#ffffff" stroke="transparent" points="212,-171.2 212,-190.2 290,-190.2 290,-171.2 212,-171.2"/>
<polygon fill="none" stroke="#000000" points="212,-171.2 212,-190.2 290,-190.2 290,-171.2 212,-171.2"/>
<polygon fill="#ffffff" stroke="transparent" points="213,-172.2 213,-189.2 236,-189.2 236,-172.2 213,-172.2"/>
<text text-anchor="start" x="215" y="-177.3" font-family="Helvetica,sans-Serif" font-size="11.00" fill="#000000"> &#160;</text>
<polygon fill="#ffffff" stroke="transparent" points="236,-172.2 236,-189.2 258,-189.2 258,-172.2 236,-172.2"/>
<text text-anchor="start" x="243.9431" y="-177.3" font-family="Helvetica,sans-Serif" font-size="11.00" fill="#000000"> &#160;</text>
<polygon fill="#ffffff" stroke="transparent" points="258,-172.2 258,-189.2 289,-189.2 289,-172.2 258,-172.2"/>
<text text-anchor="start" x="271.4053" y="-177.3" font-family="Helvetica,sans-Serif" font-size="11.00" fill="#000000">2 &gt;</text>
<polygon fill="#000000" stroke="#000000" points="236,-172.2 236,-189.2 236,-189.2 236,-172.2 236,-172.2"/>
<polygon fill="#000000" stroke="#000000" points="258,-172.2 258,-189.2 258,-189.2 258,-172.2 258,-172.2"/>
</a>
</g>
</g>
<!-- 受注&#45;&gt;倉庫マスタ -->
<g id="edge1" class="edge">
<title>受注:w&#45;&gt;倉庫マスタ:e</title>
<path fill="none" stroke="#000000" stroke-dasharray="5,2" d="M353.9639,-318.3712C340.272,-268.7694 316.3683,-199.2 290,-199.2"/>
<polygon fill="#000000" stroke="#000000" points="355.646,-324.6618 354.2348,-333.3203 356.6793,-328.5261 357.7126,-332.3903 357.7126,-332.3903 357.7126,-332.3903 356.6793,-328.5261 361.1904,-331.4603 355.646,-324.6618 355.646,-324.6618"/>
<ellipse fill="none" stroke="#000000" cx="354.8193" cy="-321.5704" rx="3.2" ry="3.2"/>
</g>
<!-- 社員マスタ -->
<g id="node3" class="node">
<title>社員マスタ</title>
<g id="a_node3"><a xlink:href="../../tables/______d3d8a641.html" xlink:title="社員マスタ" target="_top">
<polygon fill="#ffffff" stroke="transparent" points="212,-281.7 212,-342.7 290,-342.7 290,-281.7 212,-281.7"/>
<polygon fill="#f5f5f5" stroke="transparent" points="212,-319.2 212,-342.2 290,-342.2 290,-319.2 212,-319.2"/>
<polygon fill="none" stroke="#000000" points="212,-319.2 212,-342.2 290,-342.2 290,-319.2 212,-319.2"/>
<text text-anchor="start" x="208.2293" y="-327.8" font-family="Helvetica,sans-Serif" font-weight="bold" font-size="11.00" fill="#000000">社員マスタ</text>
<text text-anchor="start" x="255.5219" y="-327.3" font-family="Helvetica,sans-Serif" font-size="11.00" fill="#000000">[table]</text>
<polygon fill="none" stroke="#000000" points="212,-300.2 212,-319.2 290,-319.2 290,-300.2 212,-300.2"/>
<text text-anchor="start" x="215" y="-306.3" font-family="Helvetica,sans-Serif" font-size="11.00" fill="#000000">...</text>
<polygon fill="#ffffff" stroke="transparent" points="212,-281.2 212,-300.2 290,-300.2 290,-281.2 212,-281.2"/>
<polygon fill="none" stroke="#000000" points="212,-281.2 212,-300.2 290,-300.2 290,-281.2 212,-281.2"/>
<polygon fill="#ffffff" stroke="transparent" points="213,-282.2 213,-299.2 242,-299.2 242,-282.2 213,-282.2"/>
<text text-anchor="start" x="215" y="-287.3" font-family="Helvetica,sans-Serif" font-size="11.00" fill="#000000">&lt; 1</text>
<polygon fill="#ffffff" stroke="transparent" points="242,-282.2 242,-299.2 261,-299.2 261,-282.2 242,-282.2"/>
<text text-anchor="start" x="248.4431" y="-287.3" font-family="Helvetica,sans-Serif" font-size="11.00" fill="#000000"> &#160;</text>
<polygon fill="#ffffff" stroke="transparent" points="261,-282.2 261,-299.2 289,-299.2 289,-282.2 261,-282.2"/>
<text text-anchor="start" x="271.4053" y="-287.3" font-family="Helvetica,sans-Serif" font-size="11.00" fill="#000000">1 &gt;</text>
<polygon fill="#000000" stroke="#000000" points="242,-282.2 242,-299.2 242,-299.2 242,-282.2 242,-282.2"/>
<polygon fill="#000000" stroke="#000000" points="261,-282.2 261,-299.2 261,-299.2 261,-282.2 261,-282.2"/>
</a>
</g>
</g>
<!-- 受注&#45;&gt;社員マスタ -->
<g id="edge2" class="edge">
<title>受注:w&#45;&gt;社員マスタ:e</title>
<path fill="none" stroke="#000000" d="M317.8612,-344.1771C311.3567,-341.0662 304.688,-337.8769 298.2001,-334.774"/>
<polygon fill="#000000" stroke="#000000" points="323.6543,-346.9477 329.3181,-353.647 327.2628,-348.6735 330.8713,-350.3993 330.8713,-350.3993 330.8713,-350.3993 327.2628,-348.6735 332.4246,-347.1516 323.6543,-346.9477 323.6543,-346.9477"/>
<ellipse fill="none" stroke="#000000" cx="320.7674" cy="-345.567" rx="3.2" ry="3.2"/>
</g>
<!-- 部門マスタ -->
<g id="node4" class="node">
<title>部門マスタ</title>
<g id="a_node4"><a xlink:href="../../tables/______3eb0dfec.html" xlink:title="部門マスタ" target="_top">
<polygon fill="#ffffff" stroke="transparent" points="8,-38.2 8,-348.2 163,-348.2 163,-38.2 8,-38.2"/>
<polygon fill="#f5f5f5" stroke="transparent" points="10.5,-323.2 10.5,-346.2 161.5,-346.2 161.5,-323.2 10.5,-323.2"/>
<polygon fill="none" stroke="#000000" points="10.5,-323.2 10.5,-346.2 161.5,-346.2 161.5,-323.2 10.5,-323.2"/>
<text text-anchor="start" x="-.6077" y="-331.8" font-family="Helvetica,sans-Serif" font-weight="bold" font-size="11.00" fill="#000000">部門マスタ</text>
<text text-anchor="start" x="126.5437" y="-331.3" font-family="Helvetica,sans-Serif" font-size="11.00" fill="#000000">[table]</text>
<polygon fill="none" stroke="#000000" points="10.5,-301.2 10.5,-323.2 77.5,-323.2 77.5,-301.2 10.5,-301.2"/>
<image xlink:href="../../images/primaryKeys.png" width="11px" height="12px" preserveAspectRatio="xMinYMin meet" x="15.5" y="-318.2"/>
<text text-anchor="start" x="14.5257" y="-308.3" font-family="Helvetica,sans-Serif" font-size="11.00" fill="#000000">部門コード</text>
<polygon fill="none" stroke="#000000" points="77.5,-301.2 77.5,-323.2 161.5,-323.2 161.5,-301.2 77.5,-301.2"/>
<text text-anchor="start" x="80.5" y="-308.9" font-family="Helvetica,sans-Serif" font-size="11.00" fill="#000000">varchar[6]</text>
<polygon fill="none" stroke="#000000" points="10.5,-279.2 10.5,-301.2 77.5,-301.2 77.5,-279.2 10.5,-279.2"/>
<image xlink:href="../../images/primaryKeys.png" width="11px" height="12px" preserveAspectRatio="xMinYMin meet" x="15.5" y="-296.2"/>
<text text-anchor="start" x="30.5" y="-286.3" font-family="Helvetica,sans-Serif" font-size="11.00" fill="#000000">開始日</text>
<polygon fill="none" stroke="#000000" points="77.5,-279.2 77.5,-301.2 161.5,-301.2 161.5,-279.2 77.5,-279.2"/>
<text text-anchor="start" x="80.3807" y="-286.9" font-family="Helvetica,sans-Serif" font-size="11.00" fill="#000000">timestamp[29,6]</text>
<polygon fill="none" stroke="#000000" points="10.5,-257.2 10.5,-279.2 77.5,-279.2 77.5,-257.2 10.5,-257.2"/>
<text text-anchor="start" x="30.5" y="-264.3" font-family="Helvetica,sans-Serif" font-size="11.00" fill="#000000">終了日</text>
<polygon fill="none" stroke="#000000" points="77.5,-257.2 77.5,-279.2 161.5,-279.2 161.5,-257.2 77.5,-257.2"/>
<text text-anchor="start" x="80.3807" y="-264.9" font-family="Helvetica,sans-Serif" font-size="11.00" fill="#000000">timestamp[29,6]</text>
<polygon fill="#ffffff" stroke="transparent" points="10.5,-235.2 10.5,-257.2 77.5,-257.2 77.5,-235.2 10.5,-235.2"/>
<polygon fill="none" stroke="#000000" points="10.5,-235.2 10.5,-257.2 77.5,-257.2 77.5,-235.2 10.5,-235.2"/>
<text text-anchor="start" x="30.5" y="-242.3" font-family="Helvetica,sans-Serif" font-size="11.00" fill="#000000">部門名</text>
<polygon fill="none" stroke="#000000" points="77.5,-235.2 77.5,-257.2 161.5,-257.2 161.5,-235.2 77.5,-235.2"/>
<text text-anchor="start" x="80.5" y="-242.9" font-family="Helvetica,sans-Serif" font-size="11.00" fill="#000000">varchar[40]</text>
<polygon fill="none" stroke="#000000" points="10.5,-213.2 10.5,-235.2 77.5,-235.2 77.5,-213.2 10.5,-213.2"/>
<text text-anchor="start" x="29.1876" y="-220.3" font-family="Helvetica,sans-Serif" font-size="11.00" fill="#000000">組織階層</text>
<polygon fill="none" stroke="#000000" points="77.5,-213.2 77.5,-235.2 161.5,-235.2 161.5,-213.2 77.5,-213.2"/>
<text text-anchor="start" x="80.5" y="-220.9" font-family="Helvetica,sans-Serif" font-size="11.00" fill="#000000">int4[10]</text>
<polygon fill="#ffffff" stroke="transparent" points="10.5,-191.2 10.5,-213.2 77.5,-213.2 77.5,-191.2 10.5,-191.2"/>
<polygon fill="none" stroke="#000000" points="10.5,-191.2 10.5,-213.2 77.5,-213.2 77.5,-191.2 10.5,-191.2"/>
<text text-anchor="start" x="24.8151" y="-198.3" font-family="Helvetica,sans-Serif" font-size="11.00" fill="#000000">部門パス</text>
<polygon fill="none" stroke="#000000" points="77.5,-191.2 77.5,-213.2 161.5,-213.2 161.5,-191.2 77.5,-191.2"/>
<text text-anchor="start" x="80.5" y="-198.9" font-family="Helvetica,sans-Serif" font-size="11.00" fill="#000000">varchar[100]</text>
<polygon fill="none" stroke="#000000" points="10.5,-169.2 10.5,-191.2 77.5,-191.2 77.5,-169.2 10.5,-169.2"/>
<text text-anchor="start" x="27.6603" y="-176.3" font-family="Helvetica,sans-Serif" font-size="11.00" fill="#000000">最下層区分</text>
<polygon fill="none" stroke="#000000" points="77.5,-169.2 77.5,-191.2 161.5,-191.2 161.5,-169.2 77.5,-169.2"/>
<text text-anchor="start" x="80.5" y="-176.9" font-family="Helvetica,sans-Serif" font-size="11.00" fill="#000000">int4[10]</text>
<polygon fill="none" stroke="#000000" points="10.5,-147.2 10.5,-169.2 77.5,-169.2 77.5,-147.2 10.5,-147.2"/>
<text text-anchor="start" x="12.6788" y="-154.3" font-family="Helvetica,sans-Serif" font-size="11.00" fill="#000000">伝票入力可否</text>
<polygon fill="none" stroke="#000000" points="77.5,-147.2 77.5,-169.2 161.5,-169.2 161.5,-147.2 77.5,-147.2"/>
<text text-anchor="start" x="80.5" y="-154.9" font-family="Helvetica,sans-Serif" font-size="11.00" fill="#000000">int4[10]</text>
<polygon fill="none" stroke="#000000" points="10.5,-125.2 10.5,-147.2 77.5,-147.2 77.5,-125.2 10.5,-125.2"/>
<text text-anchor="start" x="27.6581" y="-132.3" font-family="Helvetica,sans-Serif" font-size="11.00" fill="#000000">作成日時</text>
<polygon fill="none" stroke="#000000" points="77.5,-125.2 77.5,-147.2 161.5,-147.2 161.5,-125.2 77.5,-125.2"/>
<text text-anchor="start" x="80.3807" y="-132.9" font-family="Helvetica,sans-Serif" font-size="11.00" fill="#000000">timestamp[29,6]</text>
<polygon fill="none" stroke="#000000" points="10.5,-103.2 10.5,-125.2 77.5,-125.2 77.5,-103.2 10.5,-103.2"/>
<text text-anchor="start" x="27.6581" y="-110.3" font-family="Helvetica,sans-Serif" font-size="11.00" fill="#000000">作成者名</text>
<polygon fill="none" stroke="#000000" points="77.5,-103.2 77.5,-125.2 161.5,-125.2 161.5,-103.2 77.5,-103.2"/>
<text text-anchor="start" x="80.5" y="-110.9" font-family="Helvetica,sans-Serif" font-size="11.00" fill="#000000">varchar[50]</text>
<polygon fill="none" stroke="#000000" points="10.5,-81.2 10.5,-103.2 77.5,-103.2 77.5,-81.2 10.5,-81.2"/>
<text text-anchor="start" x="30.5" y="-88.3" font-family="Helvetica,sans-Serif" font-size="11.00" fill="#000000">更新日時</text>
<polygon fill="none" stroke="#000000" points="77.5,-81.2 77.5,-103.2 161.5,-103.2 161.5,-81.2 77.5,-81.2"/>
<text text-anchor="start" x="80.3807" y="-88.9" font-family="Helvetica,sans-Serif" font-size="11.00" fill="#000000">timestamp[29,6]</text>
<polygon fill="none" stroke="#000000" points="10.5,-59.2 10.5,-81.2 77.5,-81.2 77.5,-59.2 10.5,-59.2"/>
<text text-anchor="start" x="30.5" y="-66.3" font-family="Helvetica,sans-Serif" font-size="11.00" fill="#000000">更新者名</text>
<polygon fill="none" stroke="#000000" points="77.5,-59.2 77.5,-81.2 161.5,-81.2 161.5,-59.2 77.5,-59.2"/>
<text text-anchor="start" x="80.5" y="-66.9" font-family="Helvetica,sans-Serif" font-size="11.00" fill="#000000">varchar[50]</text>
<polygon fill="#ffffff" stroke="transparent" points="10.5,-40.2 10.5,-59.2 161.5,-59.2 161.5,-40.2 10.5,-40.2"/>
<polygon fill="none" stroke="#000000" points="10.5,-40.2 10.5,-59.2 161.5,-59.2 161.5,-40.2 10.5,-40.2"/>
<polygon fill="#ffffff" stroke="transparent" points="11.5,-41.2 11.5,-58.2 64.5,-58.2 64.5,-41.2 11.5,-41.2"/>
<text text-anchor="start" x="13.5" y="-46.3" font-family="Helvetica,sans-Serif" font-size="11.00" fill="#000000">&lt; 0</text>
<polygon fill="#ffffff" stroke="transparent" points="64.5,-41.2 64.5,-58.2 108.5,-58.2 108.5,-41.2 64.5,-41.2"/>
<text text-anchor="start" x="83.4431" y="-46.3" font-family="Helvetica,sans-Serif" font-size="11.00" fill="#000000"> &#160;</text>
<polygon fill="#ffffff" stroke="transparent" points="108.5,-41.2 108.5,-58.2 160.5,-58.2 160.5,-41.2 108.5,-41.2"/>
<text text-anchor="start" x="142.9053" y="-46.3" font-family="Helvetica,sans-Serif" font-size="11.00" fill="#000000">5 &gt;</text>
<polygon fill="#000000" stroke="#000000" points="64.5,-41.2 64.5,-58.2 64.5,-58.2 64.5,-41.2 64.5,-41.2"/>
<polygon fill="#000000" stroke="#000000" points="108.5,-41.2 108.5,-58.2 108.5,-58.2 108.5,-41.2 108.5,-41.2"/>
<polygon fill="none" stroke="#000000" stroke-width="2" points="9,-39.2 9,-347.2 162,-347.2 162,-39.2 9,-39.2"/>
</a>
</g>
</g>
<!-- 受注&#45;&gt;部門マスタ -->
<g id="edge3" class="edge">
<title>受注:w&#45;&gt;部門マスタ:e</title>
<path fill="none" stroke="#000000" d="M316.3617,-371.3155C283.1354,-372.095 239.2092,-369.2124 204,-353.2 180.1088,-342.3348 187.7458,-312.2 161.5,-312.2"/>
<polygon fill="#000000" stroke="#000000" points="322.8116,-371.0557 330.95,-374.3307 326.8083,-370.8947 330.8051,-370.7337 330.8051,-370.7337 330.8051,-370.7337 326.8083,-370.8947 330.6602,-367.1366 322.8116,-371.0557 322.8116,-371.0557"/>
<ellipse fill="none" stroke="#000000" cx="319.6142" cy="-371.1845" rx="3.2" ry="3.2"/>
</g>
<!-- 受注&#45;&gt;部門マスタ -->
<g id="edge4" class="edge">
<title>受注:w&#45;&gt;部門マスタ:e</title>
<path fill="none" stroke="#000000" d="M344.7411,-319.874C333.6835,-301.1545 318.1944,-281.6429 298,-271.2 260.8904,-252.0099 244.8582,-262.4827 204,-271.2 183.7649,-275.5173 182.1905,-290.2 161.5,-290.2"/>
<polygon fill="#000000" stroke="#000000" points="347.8537,-325.5666 348.5331,-334.313 349.7727,-329.0762 351.6918,-332.5859 351.6918,-332.5859 351.6918,-332.5859 349.7727,-329.0762 354.8504,-330.8587 347.8537,-325.5666 347.8537,-325.5666"/>
<ellipse fill="none" stroke="#000000" cx="346.3185" cy="-322.7589" rx="3.2" ry="3.2"/>
</g>
<!-- 顧客マスタ -->
<g id="node5" class="node">
<title>顧客マスタ</title>
<g id="a_node5"><a xlink:href="../../tables/______8e04fe89.html" xlink:title="顧客マスタ" target="_top">
<polygon fill="#ffffff" stroke="transparent" points="212,-391.7 212,-452.7 290,-452.7 290,-391.7 212,-391.7"/>
<polygon fill="#f5f5f5" stroke="transparent" points="212,-429.2 212,-452.2 290,-452.2 290,-429.2 212,-429.2"/>
<polygon fill="none" stroke="#000000" points="212,-429.2 212,-452.2 290,-452.2 290,-429.2 212,-429.2"/>
<text text-anchor="start" x="200.5892" y="-437.8" font-family="Helvetica,sans-Serif" font-weight="bold" font-size="11.00" fill="#000000">顧客マスタ</text>
<text text-anchor="start" x="255.5219" y="-437.3" font-family="Helvetica,sans-Serif" font-size="11.00" fill="#000000">[table]</text>
<polygon fill="none" stroke="#000000" points="212,-410.2 212,-429.2 290,-429.2 290,-410.2 212,-410.2"/>
<text text-anchor="start" x="215" y="-416.3" font-family="Helvetica,sans-Serif" font-size="11.00" fill="#000000">...</text>
<polygon fill="#ffffff" stroke="transparent" points="212,-391.2 212,-410.2 290,-410.2 290,-391.2 212,-391.2"/>
<polygon fill="none" stroke="#000000" points="212,-391.2 212,-410.2 290,-410.2 290,-391.2 212,-391.2"/>
<polygon fill="#ffffff" stroke="transparent" points="213,-392.2 213,-409.2 242,-409.2 242,-392.2 213,-392.2"/>
<text text-anchor="start" x="215" y="-397.3" font-family="Helvetica,sans-Serif" font-size="11.00" fill="#000000">&lt; 1</text>
<polygon fill="#ffffff" stroke="transparent" points="242,-392.2 242,-409.2 261,-409.2 261,-392.2 242,-392.2"/>
<text text-anchor="start" x="248.4431" y="-397.3" font-family="Helvetica,sans-Serif" font-size="11.00" fill="#000000"> &#160;</text>
<polygon fill="#ffffff" stroke="transparent" points="261,-392.2 261,-409.2 289,-409.2 289,-392.2 261,-392.2"/>
<text text-anchor="start" x="271.4053" y="-397.3" font-family="Helvetica,sans-Serif" font-size="11.00" fill="#000000">2 &gt;</text>
<polygon fill="#000000" stroke="#000000" points="242,-392.2 242,-409.2 242,-409.2 242,-392.2 242,-392.2"/>
<polygon fill="#000000" stroke="#000000" points="261,-392.2 261,-409.2 261,-409.2 261,-392.2 261,-392.2"/>
</a>
</g>
</g>
<!-- 受注&#45;&gt;顧客マスタ -->
<g id="edge5" class="edge">
<title>受注:w&#45;&gt;顧客マスタ:e</title>
<path fill="none" stroke="#000000" d="M318.8064,-407.9075C309.8545,-413.4324 300.1057,-417.7185 290,-419.2"/>
<polygon fill="#000000" stroke="#000000" points="324.3362,-404.0287 332.953,-402.382 327.611,-401.7317 330.8857,-399.4347 330.8857,-399.4347 330.8857,-399.4347 327.611,-401.7317 328.8184,-396.4875 324.3362,-404.0287 324.3362,-404.0287"/>
<ellipse fill="none" stroke="#000000" cx="321.7164" cy="-405.8663" rx="3.2" ry="3.2"/>
</g>
<!-- 受注&#45;&gt;顧客マスタ -->
<g id="edge6" class="edge">
<title>受注:w&#45;&gt;顧客マスタ:e</title>
<path fill="none" stroke="#000000" d="M327.7648,-410.4643C316.5353,-417.3432 303.5905,-421.5244 290,-419.2"/>
<polygon fill="#000000" stroke="#000000" points="333.2031,-406.4814 341.7844,-404.6589 336.4302,-404.118 339.6573,-401.7545 339.6573,-401.7545 339.6573,-401.7545 336.4302,-404.118 337.5302,-398.8502 333.2031,-406.4814 333.2031,-406.4814"/>
<ellipse fill="none" stroke="#000000" cx="330.6214" cy="-408.3722" rx="3.2" ry="3.2"/>
</g>
<!-- 社員マスタ&#45;&gt;部門マスタ -->
<g id="edge13" class="edge">
<title>社員マスタ:w&#45;&gt;部門マスタ:e</title>
<path fill="none" stroke="#000000" d="M188.9209,-312.2C179.727,-312.2 170.3665,-312.2 161.5,-312.2"/>
<polygon fill="#000000" stroke="#000000" points="195.6225,-312.2001 203.6225,-315.8 199.6225,-312.2 203.6225,-312.2 203.6225,-312.2 203.6225,-312.2 199.6225,-312.2 203.6224,-308.6 195.6225,-312.2001 195.6225,-312.2001"/>
<ellipse fill="none" stroke="#000000" cx="192.4225" cy="-312.2001" rx="3.2" ry="3.2"/>
</g>
<!-- 取引先マスタ -->
<g id="node8" class="node">
<title>取引先マスタ</title>
<g id="a_node8"><a xlink:href="../../tables/_______70f9c0bb.html" xlink:title="取引先マスタ" target="_top">
<polygon fill="#ffffff" stroke="transparent" points="43,-433.7 43,-494.7 128,-494.7 128,-433.7 43,-433.7"/>
<polygon fill="#f5f5f5" stroke="transparent" points="43.5,-471.2 43.5,-494.2 128.5,-494.2 128.5,-471.2 43.5,-471.2"/>
<polygon fill="none" stroke="#000000" points="43.5,-471.2 43.5,-494.2 128.5,-494.2 128.5,-471.2 43.5,-471.2"/>
<text text-anchor="start" x="34.3644" y="-479.8" font-family="Helvetica,sans-Serif" font-weight="bold" font-size="11.00" fill="#000000">取引先マスタ</text>
<text text-anchor="start" x="94.0219" y="-479.3" font-family="Helvetica,sans-Serif" font-size="11.00" fill="#000000">[table]</text>
<polygon fill="none" stroke="#000000" points="43.5,-452.2 43.5,-471.2 128.5,-471.2 128.5,-452.2 43.5,-452.2"/>
<text text-anchor="start" x="46.5" y="-458.3" font-family="Helvetica,sans-Serif" font-size="11.00" fill="#000000">...</text>
<polygon fill="#ffffff" stroke="transparent" points="43.5,-433.2 43.5,-452.2 128.5,-452.2 128.5,-433.2 43.5,-433.2"/>
<polygon fill="none" stroke="#000000" points="43.5,-433.2 43.5,-452.2 128.5,-452.2 128.5,-433.2 43.5,-433.2"/>
<polygon fill="#ffffff" stroke="transparent" points="44.5,-434.2 44.5,-451.2 75.5,-451.2 75.5,-434.2 44.5,-434.2"/>
<text text-anchor="start" x="46.5" y="-439.3" font-family="Helvetica,sans-Serif" font-size="11.00" fill="#000000">&lt; 1</text>
<polygon fill="#ffffff" stroke="transparent" points="75.5,-434.2 75.5,-451.2 97.5,-451.2 97.5,-434.2 75.5,-434.2"/>
<text text-anchor="start" x="83.4431" y="-439.3" font-family="Helvetica,sans-Serif" font-size="11.00" fill="#000000"> &#160;</text>
<polygon fill="#ffffff" stroke="transparent" points="97.5,-434.2 97.5,-451.2 127.5,-451.2 127.5,-434.2 97.5,-434.2"/>
<text text-anchor="start" x="109.9053" y="-439.3" font-family="Helvetica,sans-Serif" font-size="11.00" fill="#000000">4 &gt;</text>
<polygon fill="#000000" stroke="#000000" points="75.5,-434.2 75.5,-451.2 75.5,-451.2 75.5,-434.2 75.5,-434.2"/>
<polygon fill="#000000" stroke="#000000" points="97.5,-434.2 97.5,-451.2 97.5,-451.2 97.5,-434.2 97.5,-434.2"/>
</a>
</g>
</g>
<!-- 顧客マスタ&#45;&gt;取引先マスタ -->
<g id="edge14" class="edge">
<title>顧客マスタ:w&#45;&gt;取引先マスタ:e</title>
<path fill="none" stroke="#000000" d="M197.4319,-421.2257C169.6224,-429.6154 164.5241,-461.2 128.5,-461.2"/>
<polygon fill="#000000" stroke="#000000" points="204.0762,-420.3019 212.4958,-422.7657 208.0381,-419.7509 212,-419.2 212,-419.2 212,-419.2 208.0381,-419.7509 211.5042,-415.6343 204.0762,-420.3019 204.0762,-420.3019"/>
<ellipse fill="none" stroke="#000000" cx="200.9067" cy="-420.7426" rx="3.2" ry="3.2"/>
</g>
<!-- 受注明細 -->
<g id="node6" class="node">
<title>受注明細</title>
<g id="a_node6"><a xlink:href="../../tables/_____27c23493.html" xlink:title="受注明細" target="_top">
<polygon fill="#ffffff" stroke="transparent" points="442,-339.7 442,-400.7 512,-400.7 512,-339.7 442,-339.7"/>
<polygon fill="#f5f5f5" stroke="transparent" points="442,-377.2 442,-400.2 512,-400.2 512,-377.2 442,-377.2"/>
<polygon fill="none" stroke="#000000" points="442,-377.2 442,-400.2 512,-400.2 512,-377.2 442,-377.2"/>
<text text-anchor="start" x="439.1006" y="-385.8" font-family="Helvetica,sans-Serif" font-weight="bold" font-size="11.00" fill="#000000">受注明細</text>
<text text-anchor="start" x="477.5219" y="-385.3" font-family="Helvetica,sans-Serif" font-size="11.00" fill="#000000">[table]</text>
<polygon fill="none" stroke="#000000" points="442,-358.2 442,-377.2 512,-377.2 512,-358.2 442,-358.2"/>
<text text-anchor="start" x="445" y="-364.3" font-family="Helvetica,sans-Serif" font-size="11.00" fill="#000000">...</text>
<polygon fill="#ffffff" stroke="transparent" points="442,-339.2 442,-358.2 512,-358.2 512,-339.2 442,-339.2"/>
<polygon fill="none" stroke="#000000" points="442,-339.2 442,-358.2 512,-358.2 512,-339.2 442,-339.2"/>
<polygon fill="#ffffff" stroke="transparent" points="443,-340.2 443,-357.2 472,-357.2 472,-340.2 443,-340.2"/>
<text text-anchor="start" x="445" y="-345.3" font-family="Helvetica,sans-Serif" font-size="11.00" fill="#000000">&lt; 2</text>
<polygon fill="#ffffff" stroke="transparent" points="472,-340.2 472,-357.2 492,-357.2 492,-340.2 472,-340.2"/>
<text text-anchor="start" x="478.9431" y="-345.3" font-family="Helvetica,sans-Serif" font-size="11.00" fill="#000000"> &#160;</text>
<polygon fill="#ffffff" stroke="transparent" points="492,-340.2 492,-357.2 511,-357.2 511,-340.2 492,-340.2"/>
<text text-anchor="start" x="502.8862" y="-345.3" font-family="Helvetica,sans-Serif" font-size="11.00" fill="#000000"> &#160;</text>
<polygon fill="#000000" stroke="#000000" points="472,-340.2 472,-357.2 472,-357.2 472,-340.2 472,-340.2"/>
<polygon fill="#000000" stroke="#000000" points="492,-340.2 492,-357.2 492,-357.2 492,-340.2 492,-340.2"/>
</a>
</g>
</g>
<!-- 受注明細&#45;&gt;受注 -->
<g id="edge7" class="edge">
<title>受注明細:w&#45;&gt;受注:e</title>
<path fill="none" stroke="#000000" d="M427.5927,-367.2C418.6014,-367.2 409.5174,-367.2 401.1891,-367.2"/>
<polygon fill="#000000" stroke="#000000" points="434,-367.2001 442,-370.8 438,-367.2 442,-367.2 442,-367.2 442,-367.2 438,-367.2 442,-363.6 434,-367.2001 434,-367.2001"/>
<ellipse fill="none" stroke="#000000" cx="430.8" cy="-367.2001" rx="3.2" ry="3.2"/>
</g>
<!-- 売上 -->
<g id="node7" class="node">
<title>売上</title>
<g id="a_node7"><a xlink:href="../../tables/___b1358.html" xlink:title="売上" target="_top">
<polygon fill="#ffffff" stroke="transparent" points="450,-434.7 450,-495.7 504,-495.7 504,-434.7 450,-434.7"/>
<polygon fill="#f5f5f5" stroke="transparent" points="450,-472.2 450,-495.2 504,-495.2 504,-472.2 450,-472.2"/>
<polygon fill="none" stroke="#000000" points="450,-472.2 450,-495.2 504,-495.2 504,-472.2 450,-472.2"/>
<text text-anchor="start" x="448.5793" y="-480.8" font-family="Helvetica,sans-Serif" font-weight="bold" font-size="11.00" fill="#000000">売上</text>
<text text-anchor="start" x="469.5219" y="-480.3" font-family="Helvetica,sans-Serif" font-size="11.00" fill="#000000">[table]</text>
<polygon fill="none" stroke="#000000" points="450,-453.2 450,-472.2 504,-472.2 504,-453.2 450,-453.2"/>
<text text-anchor="start" x="453" y="-459.3" font-family="Helvetica,sans-Serif" font-size="11.00" fill="#000000">...</text>
<polygon fill="#ffffff" stroke="transparent" points="450,-434.2 450,-453.2 504,-453.2 504,-434.2 450,-434.2"/>
<polygon fill="none" stroke="#000000" points="450,-434.2 450,-453.2 504,-453.2 504,-434.2 450,-434.2"/>
<polygon fill="#ffffff" stroke="transparent" points="451,-435.2 451,-452.2 472,-452.2 472,-435.2 451,-435.2"/>
<text text-anchor="start" x="453" y="-440.3" font-family="Helvetica,sans-Serif" font-size="11.00" fill="#000000">&lt; 4</text>
<polygon fill="#ffffff" stroke="transparent" points="472,-435.2 472,-452.2 483,-452.2 483,-435.2 472,-435.2"/>
<text text-anchor="start" x="474.4431" y="-440.3" font-family="Helvetica,sans-Serif" font-size="11.00" fill="#000000"> &#160;</text>
<polygon fill="#ffffff" stroke="transparent" points="483,-435.2 483,-452.2 503,-452.2 503,-435.2 483,-435.2"/>
<text text-anchor="start" x="485.4053" y="-440.3" font-family="Helvetica,sans-Serif" font-size="11.00" fill="#000000">1 &gt;</text>
<polygon fill="#000000" stroke="#000000" points="472,-435.2 472,-452.2 472,-452.2 472,-435.2 472,-435.2"/>
<polygon fill="#000000" stroke="#000000" points="483,-435.2 483,-452.2 483,-452.2 483,-435.2 483,-435.2"/>
</a>
</g>
</g>
<!-- 売上&#45;&gt;受注 -->
<g id="edge9" class="edge">
<title>売上:w&#45;&gt;受注:e</title>
<path fill="none" stroke="#000000" d="M430.9342,-424.5293C421.0226,-415.7785 410.6974,-406.6626 401.2736,-398.3425"/>
<polygon fill="#000000" stroke="#000000" points="435.8818,-428.8974 439.4963,-436.8909 438.8803,-431.5448 441.8789,-434.1922 441.8789,-434.1922 441.8789,-434.1922 438.8803,-431.5448 444.2616,-431.4935 435.8818,-428.8974 435.8818,-428.8974"/>
<ellipse fill="none" stroke="#000000" cx="433.4829" cy="-426.7795" rx="3.2" ry="3.2"/>
</g>
<!-- 売上&#45;&gt;部門マスタ -->
<g id="edge10" class="edge">
<title>売上:w&#45;&gt;部門マスタ:e</title>
<path fill="none" stroke="#000000" d="M427.5789,-471.6749C358.5277,-479.5997 237.8299,-489.0182 204,-463.2 148.5776,-420.9029 231.2187,-312.2 161.5,-312.2"/>
<polygon fill="#000000" stroke="#000000" points="433.9461,-470.916 442.316,-473.5438 437.918,-470.4426 441.8899,-469.9691 441.8899,-469.9691 441.8899,-469.9691 437.918,-470.4426 441.4638,-466.3944 433.9461,-470.916 433.9461,-470.916"/>
<ellipse fill="none" stroke="#000000" cx="430.7686" cy="-471.2948" rx="3.2" ry="3.2"/>
</g>
<!-- 売上&#45;&gt;部門マスタ -->
<g id="edge11" class="edge">
<title>売上:w&#45;&gt;部門マスタ:e</title>
<path fill="none" stroke="#000000" d="M438.5169,-418.5633C436.9264,-416.1169 435.4102,-413.6551 434,-411.2 413.8147,-376.0599 419.1429,-362.4368 401,-326.2 362.2971,-248.8988 373.6003,-203.1282 298,-161.2 261.4649,-140.9375 237.8492,-136.713 204,-161.2 155.0913,-196.5813 221.8647,-290.2 161.5,-290.2"/>
<polygon fill="#000000" stroke="#000000" points="442.3461,-424.0172 443.9968,-432.6332 444.6446,-427.2909 446.9431,-430.5646 446.9431,-430.5646 446.9431,-430.5646 444.6446,-427.2909 449.8895,-428.4959 442.3461,-424.0172 442.3461,-424.0172"/>
<ellipse fill="none" stroke="#000000" cx="440.5074" cy="-421.3982" rx="3.2" ry="3.2"/>
</g>
<!-- 売上&#45;&gt;取引先マスタ -->
<g id="edge8" class="edge">
<title>売上:w&#45;&gt;取引先マスタ:e</title>
<path fill="none" stroke="#000000" d="M427.9092,-481.5885C419.0461,-483.9207 409.8188,-485.9493 401,-487.2 314.3119,-499.4946 290.3545,-501.6525 204,-487.2 168.9973,-481.3419 163.9895,-461.2 128.5,-461.2"/>
<polygon fill="#000000" stroke="#000000" points="434.1876,-479.7976 442.8683,-481.065 438.0342,-478.7003 441.8808,-477.6031 441.8808,-477.6031 441.8808,-477.6031 438.0342,-478.7003 440.8932,-474.1411 434.1876,-479.7976 434.1876,-479.7976"/>
<ellipse fill="none" stroke="#000000" cx="431.1104" cy="-480.6754" rx="3.2" ry="3.2"/>
</g>
<!-- 売上明細 -->
<g id="node9" class="node">
<title>売上明細</title>
<g id="a_node9"><a xlink:href="../../tables/_____29a0763a.html" xlink:title="売上明細" target="_top">
<polygon fill="#ffffff" stroke="transparent" points="561,-437.7 561,-498.7 631,-498.7 631,-437.7 561,-437.7"/>
<polygon fill="#f5f5f5" stroke="transparent" points="561,-475.2 561,-498.2 631,-498.2 631,-475.2 561,-475.2"/>
<polygon fill="none" stroke="#000000" points="561,-475.2 561,-498.2 631,-498.2 631,-475.2 561,-475.2"/>
<text text-anchor="start" x="558.4086" y="-483.8" font-family="Helvetica,sans-Serif" font-weight="bold" font-size="11.00" fill="#000000">売上明細</text>
<text text-anchor="start" x="596.5219" y="-483.3" font-family="Helvetica,sans-Serif" font-size="11.00" fill="#000000">[table]</text>
<polygon fill="none" stroke="#000000" points="561,-456.2 561,-475.2 631,-475.2 631,-456.2 561,-456.2"/>
<text text-anchor="start" x="564" y="-462.3" font-family="Helvetica,sans-Serif" font-size="11.00" fill="#000000">...</text>
<polygon fill="#ffffff" stroke="transparent" points="561,-437.2 561,-456.2 631,-456.2 631,-437.2 561,-437.2"/>
<polygon fill="none" stroke="#000000" points="561,-437.2 561,-456.2 631,-456.2 631,-437.2 561,-437.2"/>
<polygon fill="#ffffff" stroke="transparent" points="562,-438.2 562,-455.2 591,-455.2 591,-438.2 562,-438.2"/>
<text text-anchor="start" x="564" y="-443.3" font-family="Helvetica,sans-Serif" font-size="11.00" fill="#000000">&lt; 2</text>
<polygon fill="#ffffff" stroke="transparent" points="591,-438.2 591,-455.2 611,-455.2 611,-438.2 591,-438.2"/>
<text text-anchor="start" x="597.9431" y="-443.3" font-family="Helvetica,sans-Serif" font-size="11.00" fill="#000000"> &#160;</text>
<polygon fill="#ffffff" stroke="transparent" points="611,-438.2 611,-455.2 630,-455.2 630,-438.2 611,-438.2"/>
<text text-anchor="start" x="621.8862" y="-443.3" font-family="Helvetica,sans-Serif" font-size="11.00" fill="#000000"> &#160;</text>
<polygon fill="#000000" stroke="#000000" points="591,-438.2 591,-455.2 591,-455.2 591,-438.2 591,-438.2"/>
<polygon fill="#000000" stroke="#000000" points="611,-438.2 611,-455.2 611,-455.2 611,-438.2 611,-438.2"/>
</a>
</g>
</g>
<!-- 売上明細&#45;&gt;売上 -->
<g id="edge12" class="edge">
<title>売上明細:w&#45;&gt;売上:e</title>
<path fill="none" stroke="#000000" d="M546.3735,-465.2C534.6501,-465.2 522.7268,-465.2 512.148,-465.2"/>
<polygon fill="#000000" stroke="#000000" points="553,-465.2001 561,-468.8 557,-465.2 561,-465.2 561,-465.2 561,-465.2 557,-465.2 561,-461.6 553,-465.2001 553,-465.2001"/>
<ellipse fill="none" stroke="#000000" cx="549.8" cy="-465.2001" rx="3.2" ry="3.2"/>
</g>
</g>
</svg>
