<?xml version="1.0" encoding="UTF-8" standalone="no"?>
<!DOCTYPE svg PUBLIC "-//W3C//DTD SVG 1.1//EN"
 "http://www.w3.org/Graphics/SVG/1.1/DTD/svg11.dtd">
<!-- Generated by graphviz version 2.40.1 (20161225.0304)
 -->
<!-- Title: oneDegreeRelationshipsDiagram Pages: 1 -->
<svg width="311pt" height="576pt"
 viewBox="0.00 0.00 311.00 575.70" xmlns="http://www.w3.org/2000/svg" xmlns:xlink="http://www.w3.org/1999/xlink">
<g id="graph0" class="graph" transform="scale(1 1) rotate(0) translate(4 571.7)">
<title>oneDegreeRelationshipsDiagram</title>
<polygon fill="#ffffff" stroke="transparent" points="-4,4 -4,-571.7 307,-571.7 307,4 -4,4"/>
<text text-anchor="middle" x="72.4936" y="-7.3" font-family="Helvetica,sans-Serif" font-size="11.00" fill="#000000">Generated by SchemaSpy</text>
<!-- 受注明細 -->
<g id="node1" class="node">
<title>受注明細</title>
<g id="a_node1"><a xlink:href="../../tables/_____27c23493.html" xlink:title="受注明細" target="_top">
<polygon fill="#ffffff" stroke="transparent" points="140,-38.2 140,-458.2 295,-458.2 295,-38.2 140,-38.2"/>
<polygon fill="#f5f5f5" stroke="transparent" points="142.5,-433.2 142.5,-456.2 293.5,-456.2 293.5,-433.2 142.5,-433.2"/>
<polygon fill="none" stroke="#000000" points="142.5,-433.2 142.5,-456.2 293.5,-456.2 293.5,-433.2 142.5,-433.2"/>
<text text-anchor="start" x="139.6006" y="-441.8" font-family="Helvetica,sans-Serif" font-weight="bold" font-size="11.00" fill="#000000">受注明細</text>
<text text-anchor="start" x="258.5437" y="-441.3" font-family="Helvetica,sans-Serif" font-size="11.00" fill="#000000">[table]</text>
<polygon fill="none" stroke="#000000" points="142.5,-411.2 142.5,-433.2 209.5,-433.2 209.5,-411.2 142.5,-411.2"/>
<image xlink:href="../../images/primaryKeys.png" width="11px" height="12px" preserveAspectRatio="xMinYMin meet" x="147.5" y="-428.2"/>
<text text-anchor="start" x="161.4021" y="-418.3" font-family="Helvetica,sans-Serif" font-size="11.00" fill="#000000">受注番号</text>
<polygon fill="none" stroke="#000000" points="209.5,-411.2 209.5,-433.2 293.5,-433.2 293.5,-411.2 209.5,-411.2"/>
<text text-anchor="start" x="212.5" y="-418.9" font-family="Helvetica,sans-Serif" font-size="11.00" fill="#000000">varchar[20]</text>
<polygon fill="none" stroke="#000000" points="142.5,-389.2 142.5,-411.2 209.5,-411.2 209.5,-389.2 142.5,-389.2"/>
<image xlink:href="../../images/primaryKeys.png" width="11px" height="12px" preserveAspectRatio="xMinYMin meet" x="147.5" y="-406.2"/>
<text text-anchor="start" x="162.5" y="-396.3" font-family="Helvetica,sans-Serif" font-size="11.00" fill="#000000">明細番号</text>
<polygon fill="none" stroke="#000000" points="209.5,-389.2 209.5,-411.2 293.5,-411.2 293.5,-389.2 209.5,-389.2"/>
<text text-anchor="start" x="212.5" y="-396.9" font-family="Helvetica,sans-Serif" font-size="11.00" fill="#000000">int4[10]</text>
<polygon fill="#ffffff" stroke="transparent" points="142.5,-367.2 142.5,-389.2 209.5,-389.2 209.5,-367.2 142.5,-367.2"/>
<polygon fill="none" stroke="#000000" points="142.5,-367.2 142.5,-389.2 209.5,-389.2 209.5,-367.2 142.5,-367.2"/>
<image xlink:href="../../images/foreignKeys.png" width="11px" height="12px" preserveAspectRatio="xMinYMin meet" x="147.5" y="-384.2"/>
<text text-anchor="start" x="153.5547" y="-374.3" font-family="Helvetica,sans-Serif" font-size="11.00" fill="#000000">商品コード</text>
<polygon fill="none" stroke="#000000" points="209.5,-367.2 209.5,-389.2 293.5,-389.2 293.5,-367.2 209.5,-367.2"/>
<text text-anchor="start" x="212.5" y="-374.9" font-family="Helvetica,sans-Serif" font-size="11.00" fill="#000000">varchar[16]</text>
<polygon fill="none" stroke="#000000" points="142.5,-345.2 142.5,-367.2 209.5,-367.2 209.5,-345.2 142.5,-345.2"/>
<text text-anchor="start" x="162.5" y="-352.3" font-family="Helvetica,sans-Serif" font-size="11.00" fill="#000000">商品名</text>
<polygon fill="none" stroke="#000000" points="209.5,-345.2 209.5,-367.2 293.5,-367.2 293.5,-345.2 209.5,-345.2"/>
<text text-anchor="start" x="212.5" y="-352.9" font-family="Helvetica,sans-Serif" font-size="11.00" fill="#000000">varchar[10]</text>
<polygon fill="none" stroke="#000000" points="142.5,-323.2 142.5,-345.2 209.5,-345.2 209.5,-323.2 142.5,-323.2"/>
<text text-anchor="start" x="159.2186" y="-330.3" font-family="Helvetica,sans-Serif" font-size="11.00" fill="#000000">販売単価</text>
<polygon fill="none" stroke="#000000" points="209.5,-323.2 209.5,-345.2 293.5,-345.2 293.5,-323.2 209.5,-323.2"/>
<text text-anchor="start" x="212.5" y="-330.9" font-family="Helvetica,sans-Serif" font-size="11.00" fill="#000000">int4[10]</text>
<polygon fill="none" stroke="#000000" points="142.5,-301.2 142.5,-323.2 209.5,-323.2 209.5,-301.2 142.5,-301.2"/>
<text text-anchor="start" x="162.5" y="-308.3" font-family="Helvetica,sans-Serif" font-size="11.00" fill="#000000">数量</text>
<polygon fill="none" stroke="#000000" points="209.5,-301.2 209.5,-323.2 293.5,-323.2 293.5,-301.2 209.5,-301.2"/>
<text text-anchor="start" x="212.5" y="-308.9" font-family="Helvetica,sans-Serif" font-size="11.00" fill="#000000">int4[10]</text>
<polygon fill="none" stroke="#000000" points="142.5,-279.2 142.5,-301.2 209.5,-301.2 209.5,-279.2 142.5,-279.2"/>
<text text-anchor="start" x="157.6181" y="-286.3" font-family="Helvetica,sans-Serif" font-size="11.00" fill="#000000">消費税率</text>
<polygon fill="none" stroke="#000000" points="209.5,-279.2 209.5,-301.2 293.5,-301.2 293.5,-279.2 209.5,-279.2"/>
<text text-anchor="start" x="212.5" y="-286.9" font-family="Helvetica,sans-Serif" font-size="11.00" fill="#000000">int4[10]</text>
<polygon fill="none" stroke="#000000" points="142.5,-257.2 142.5,-279.2 209.5,-279.2 209.5,-257.2 142.5,-257.2"/>
<text text-anchor="start" x="154.4655" y="-264.3" font-family="Helvetica,sans-Serif" font-size="11.00" fill="#000000">引当数量</text>
<polygon fill="none" stroke="#000000" points="209.5,-257.2 209.5,-279.2 293.5,-279.2 293.5,-257.2 209.5,-257.2"/>
<text text-anchor="start" x="212.5" y="-264.9" font-family="Helvetica,sans-Serif" font-size="11.00" fill="#000000">int4[10]</text>
<polygon fill="none" stroke="#000000" points="142.5,-235.2 142.5,-257.2 209.5,-257.2 209.5,-235.2 142.5,-235.2"/>
<text text-anchor="start" x="151.3184" y="-242.3" font-family="Helvetica,sans-Serif" font-size="11.00" fill="#000000">出荷指示数量</text>
<polygon fill="none" stroke="#000000" points="209.5,-235.2 209.5,-257.2 293.5,-257.2 293.5,-235.2 209.5,-235.2"/>
<text text-anchor="start" x="212.5" y="-242.9" font-family="Helvetica,sans-Serif" font-size="11.00" fill="#000000">int4[10]</text>
<polygon fill="none" stroke="#000000" points="142.5,-213.2 142.5,-235.2 209.5,-235.2 209.5,-213.2 142.5,-213.2"/>
<text text-anchor="start" x="155.9038" y="-220.3" font-family="Helvetica,sans-Serif" font-size="11.00" fill="#000000">出荷済数量</text>
<polygon fill="none" stroke="#000000" points="209.5,-213.2 209.5,-235.2 293.5,-235.2 293.5,-213.2 209.5,-213.2"/>
<text text-anchor="start" x="212.5" y="-220.9" font-family="Helvetica,sans-Serif" font-size="11.00" fill="#000000">int4[10]</text>
<polygon fill="none" stroke="#000000" points="142.5,-191.2 142.5,-213.2 209.5,-213.2 209.5,-191.2 142.5,-191.2"/>
<text text-anchor="start" x="158.0097" y="-198.3" font-family="Helvetica,sans-Serif" font-size="11.00" fill="#000000">完了フラグ</text>
<polygon fill="none" stroke="#000000" points="209.5,-191.2 209.5,-213.2 293.5,-213.2 293.5,-191.2 209.5,-191.2"/>
<text text-anchor="start" x="212.5" y="-198.9" font-family="Helvetica,sans-Serif" font-size="11.00" fill="#000000">int4[10]</text>
<polygon fill="none" stroke="#000000" points="142.5,-169.2 142.5,-191.2 209.5,-191.2 209.5,-169.2 142.5,-169.2"/>
<text text-anchor="start" x="162.5" y="-176.3" font-family="Helvetica,sans-Serif" font-size="11.00" fill="#000000">値引額</text>
<polygon fill="none" stroke="#000000" points="209.5,-169.2 209.5,-191.2 293.5,-191.2 293.5,-169.2 209.5,-169.2"/>
<text text-anchor="start" x="212.5" y="-176.9" font-family="Helvetica,sans-Serif" font-size="11.00" fill="#000000">int4[10]</text>
<polygon fill="none" stroke="#000000" points="142.5,-147.2 142.5,-169.2 209.5,-169.2 209.5,-147.2 142.5,-147.2"/>
<text text-anchor="start" x="162.5" y="-154.3" font-family="Helvetica,sans-Serif" font-size="11.00" fill="#000000">納品日</text>
<polygon fill="none" stroke="#000000" points="209.5,-147.2 209.5,-169.2 293.5,-169.2 293.5,-147.2 209.5,-147.2"/>
<text text-anchor="start" x="212.3807" y="-154.9" font-family="Helvetica,sans-Serif" font-size="11.00" fill="#000000">timestamp[29,6]</text>
<polygon fill="none" stroke="#000000" points="142.5,-125.2 142.5,-147.2 209.5,-147.2 209.5,-125.2 142.5,-125.2"/>
<text text-anchor="start" x="159.6581" y="-132.3" font-family="Helvetica,sans-Serif" font-size="11.00" fill="#000000">作成日時</text>
<polygon fill="none" stroke="#000000" points="209.5,-125.2 209.5,-147.2 293.5,-147.2 293.5,-125.2 209.5,-125.2"/>
<text text-anchor="start" x="212.3807" y="-132.9" font-family="Helvetica,sans-Serif" font-size="11.00" fill="#000000">timestamp[29,6]</text>
<polygon fill="none" stroke="#000000" points="142.5,-103.2 142.5,-125.2 209.5,-125.2 209.5,-103.2 142.5,-103.2"/>
<text text-anchor="start" x="159.6581" y="-110.3" font-family="Helvetica,sans-Serif" font-size="11.00" fill="#000000">作成者名</text>
<polygon fill="none" stroke="#000000" points="209.5,-103.2 209.5,-125.2 293.5,-125.2 293.5,-103.2 209.5,-103.2"/>
<text text-anchor="start" x="212.5" y="-110.9" font-family="Helvetica,sans-Serif" font-size="11.00" fill="#000000">varchar[12]</text>
<polygon fill="none" stroke="#000000" points="142.5,-81.2 142.5,-103.2 209.5,-103.2 209.5,-81.2 142.5,-81.2"/>
<text text-anchor="start" x="162.5" y="-88.3" font-family="Helvetica,sans-Serif" font-size="11.00" fill="#000000">更新日時</text>
<polygon fill="none" stroke="#000000" points="209.5,-81.2 209.5,-103.2 293.5,-103.2 293.5,-81.2 209.5,-81.2"/>
<text text-anchor="start" x="212.3807" y="-88.9" font-family="Helvetica,sans-Serif" font-size="11.00" fill="#000000">timestamp[29,6]</text>
<polygon fill="none" stroke="#000000" points="142.5,-59.2 142.5,-81.2 209.5,-81.2 209.5,-59.2 142.5,-59.2"/>
<text text-anchor="start" x="162.5" y="-66.3" font-family="Helvetica,sans-Serif" font-size="11.00" fill="#000000">更新者名</text>
<polygon fill="none" stroke="#000000" points="209.5,-59.2 209.5,-81.2 293.5,-81.2 293.5,-59.2 209.5,-59.2"/>
<text text-anchor="start" x="212.5" y="-66.9" font-family="Helvetica,sans-Serif" font-size="11.00" fill="#000000">varchar[12]</text>
<polygon fill="#ffffff" stroke="transparent" points="142.5,-40.2 142.5,-59.2 293.5,-59.2 293.5,-40.2 142.5,-40.2"/>
<polygon fill="none" stroke="#000000" points="142.5,-40.2 142.5,-59.2 293.5,-59.2 293.5,-40.2 142.5,-40.2"/>
<polygon fill="#ffffff" stroke="transparent" points="143.5,-41.2 143.5,-58.2 196.5,-58.2 196.5,-41.2 143.5,-41.2"/>
<text text-anchor="start" x="145.5" y="-46.3" font-family="Helvetica,sans-Serif" font-size="11.00" fill="#000000">&lt; 2</text>
<polygon fill="#ffffff" stroke="transparent" points="196.5,-41.2 196.5,-58.2 240.5,-58.2 240.5,-41.2 196.5,-41.2"/>
<text text-anchor="start" x="215.4431" y="-46.3" font-family="Helvetica,sans-Serif" font-size="11.00" fill="#000000"> &#160;</text>
<polygon fill="#ffffff" stroke="transparent" points="240.5,-41.2 240.5,-58.2 292.5,-58.2 292.5,-41.2 240.5,-41.2"/>
<text text-anchor="start" x="274.9053" y="-46.3" font-family="Helvetica,sans-Serif" font-size="11.00" fill="#000000">0 &gt;</text>
<polygon fill="#000000" stroke="#000000" points="196.5,-41.2 196.5,-58.2 196.5,-58.2 196.5,-41.2 196.5,-41.2"/>
<polygon fill="#000000" stroke="#000000" points="240.5,-41.2 240.5,-58.2 240.5,-58.2 240.5,-41.2 240.5,-41.2"/>
<polygon fill="none" stroke="#000000" stroke-width="2" points="141,-39.2 141,-457.2 294,-457.2 294,-39.2 141,-39.2"/>
</a>
</g>
</g>
<!-- 受注 -->
<g id="node2" class="node">
<title>受注</title>
<g id="a_node2"><a xlink:href="../../tables/___a93f1.html" xlink:title="受注" target="_top">
<polygon fill="#ffffff" stroke="transparent" points="16,-326.7 16,-563.7 83,-563.7 83,-326.7 16,-326.7"/>
<polygon fill="#f5f5f5" stroke="transparent" points="16.5,-540.2 16.5,-563.2 83.5,-563.2 83.5,-540.2 16.5,-540.2"/>
<polygon fill="none" stroke="#000000" points="16.5,-540.2 16.5,-563.2 83.5,-563.2 83.5,-540.2 16.5,-540.2"/>
<text text-anchor="start" x="14.7713" y="-548.8" font-family="Helvetica,sans-Serif" font-weight="bold" font-size="11.00" fill="#000000">受注</text>
<text text-anchor="start" x="48.5437" y="-548.3" font-family="Helvetica,sans-Serif" font-size="11.00" fill="#000000">[table]</text>
<polygon fill="none" stroke="#000000" points="16.5,-518.2 16.5,-540.2 83.5,-540.2 83.5,-518.2 16.5,-518.2"/>
<image xlink:href="../../images/primaryKeys.png" width="11px" height="12px" preserveAspectRatio="xMinYMin meet" x="21.5" y="-535.2"/>
<text text-anchor="start" x="35.4021" y="-525.3" font-family="Helvetica,sans-Serif" font-size="11.00" fill="#000000">受注番号</text>
<polygon fill="#ffffff" stroke="transparent" points="16.5,-496.2 16.5,-518.2 83.5,-518.2 83.5,-496.2 16.5,-496.2"/>
<polygon fill="none" stroke="#000000" points="16.5,-496.2 16.5,-518.2 83.5,-518.2 83.5,-496.2 16.5,-496.2"/>
<text text-anchor="start" x="36.5" y="-503.3" font-family="Helvetica,sans-Serif" font-size="11.00" fill="#000000">受注日</text>
<polygon fill="none" stroke="#000000" points="16.5,-474.2 16.5,-496.2 83.5,-496.2 83.5,-474.2 16.5,-474.2"/>
<image xlink:href="../../images/foreignKeys.png" width="11px" height="12px" preserveAspectRatio="xMinYMin meet" x="21.5" y="-491.2"/>
<text text-anchor="start" x="20.5257" y="-481.3" font-family="Helvetica,sans-Serif" font-size="11.00" fill="#000000">部門コード</text>
<polygon fill="none" stroke="#000000" points="16.5,-452.2 16.5,-474.2 83.5,-474.2 83.5,-452.2 16.5,-452.2"/>
<image xlink:href="../../images/foreignKeys.png" width="11px" height="12px" preserveAspectRatio="xMinYMin meet" x="21.5" y="-469.2"/>
<text text-anchor="start" x="36.5" y="-459.3" font-family="Helvetica,sans-Serif" font-size="11.00" fill="#000000">開始日</text>
<polygon fill="#ffffff" stroke="transparent" points="16.5,-430.2 16.5,-452.2 83.5,-452.2 83.5,-430.2 16.5,-430.2"/>
<polygon fill="none" stroke="#000000" points="16.5,-430.2 16.5,-452.2 83.5,-452.2 83.5,-430.2 16.5,-430.2"/>
<image xlink:href="../../images/foreignKeys.png" width="11px" height="12px" preserveAspectRatio="xMinYMin meet" x="21.5" y="-447.2"/>
<text text-anchor="start" x="20.2227" y="-437.3" font-family="Helvetica,sans-Serif" font-size="11.00" fill="#000000">顧客コード</text>
<polygon fill="#ffffff" stroke="transparent" points="16.5,-408.2 16.5,-430.2 83.5,-430.2 83.5,-408.2 16.5,-408.2"/>
<polygon fill="none" stroke="#000000" points="16.5,-408.2 16.5,-430.2 83.5,-430.2 83.5,-408.2 16.5,-408.2"/>
<image xlink:href="../../images/foreignKeys.png" width="11px" height="12px" preserveAspectRatio="xMinYMin meet" x="21.5" y="-425.2"/>
<text text-anchor="start" x="31.5241" y="-415.3" font-family="Helvetica,sans-Serif" font-size="11.00" fill="#000000">顧客枝番</text>
<polygon fill="#ffffff" stroke="transparent" points="16.5,-386.2 16.5,-408.2 83.5,-408.2 83.5,-386.2 16.5,-386.2"/>
<polygon fill="none" stroke="#000000" points="16.5,-386.2 16.5,-408.2 83.5,-408.2 83.5,-386.2 16.5,-386.2"/>
<image xlink:href="../../images/foreignKeys.png" width="11px" height="12px" preserveAspectRatio="xMinYMin meet" x="21.5" y="-403.2"/>
<text text-anchor="start" x="27.8627" y="-393.3" font-family="Helvetica,sans-Serif" font-size="11.00" fill="#000000">社員コード</text>
<polygon fill="none" stroke="#000000" points="16.5,-364.2 16.5,-386.2 83.5,-386.2 83.5,-364.2 16.5,-364.2"/>
<image xlink:href="../../images/foreignKeys.png" width="11px" height="12px" preserveAspectRatio="xMinYMin meet" x="21.5" y="-381.2"/>
<text text-anchor="start" x="25.7232" y="-371.3" font-family="Helvetica,sans-Serif" font-size="11.00" fill="#000000">倉庫コード</text>
<polygon fill="none" stroke="#000000" points="16.5,-345.2 16.5,-364.2 83.5,-364.2 83.5,-345.2 16.5,-345.2"/>
<text text-anchor="start" x="19.5" y="-351.3" font-family="Helvetica,sans-Serif" font-size="11.00" fill="#000000">...</text>
<polygon fill="#ffffff" stroke="transparent" points="16.5,-326.2 16.5,-345.2 83.5,-345.2 83.5,-326.2 16.5,-326.2"/>
<polygon fill="none" stroke="#000000" points="16.5,-326.2 16.5,-345.2 83.5,-345.2 83.5,-326.2 16.5,-326.2"/>
<polygon fill="#ffffff" stroke="transparent" points="17.5,-327.2 17.5,-344.2 42.5,-344.2 42.5,-327.2 17.5,-327.2"/>
<text text-anchor="start" x="19.5" y="-332.3" font-family="Helvetica,sans-Serif" font-size="11.00" fill="#000000">&lt; 5</text>
<polygon fill="#ffffff" stroke="transparent" points="42.5,-327.2 42.5,-344.2 58.5,-344.2 58.5,-327.2 42.5,-327.2"/>
<text text-anchor="start" x="47.4431" y="-332.3" font-family="Helvetica,sans-Serif" font-size="11.00" fill="#000000"> &#160;</text>
<polygon fill="#ffffff" stroke="transparent" points="58.5,-327.2 58.5,-344.2 82.5,-344.2 82.5,-327.2 58.5,-327.2"/>
<text text-anchor="start" x="64.9053" y="-332.3" font-family="Helvetica,sans-Serif" font-size="11.00" fill="#000000">2 &gt;</text>
<polygon fill="#000000" stroke="#000000" points="42.5,-327.2 42.5,-344.2 42.5,-344.2 42.5,-327.2 42.5,-327.2"/>
<polygon fill="#000000" stroke="#000000" points="58.5,-327.2 58.5,-344.2 58.5,-344.2 58.5,-327.2 58.5,-327.2"/>
</a>
</g>
</g>
<!-- 受注明細&#45;&gt;受注 -->
<g id="edge1" class="edge">
<title>受注明細:w&#45;&gt;受注:e</title>
<path fill="none" stroke="#000000" d="M128.1384,-425.7601C97.8035,-444.3262 131.8662,-529.2 83.5,-529.2"/>
<polygon fill="#000000" stroke="#000000" points="134.735,-424.1249 143.3662,-425.6942 138.6175,-423.1624 142.5,-422.2 142.5,-422.2 142.5,-422.2 138.6175,-423.1624 141.6338,-418.7058 134.735,-424.1249 134.735,-424.1249"/>
<ellipse fill="none" stroke="#000000" cx="131.629" cy="-424.8949" rx="3.2" ry="3.2"/>
</g>
<!-- 商品マスタ -->
<g id="node3" class="node">
<title>商品マスタ</title>
<g id="a_node3"><a xlink:href="../../tables/______d8ecb269.html" xlink:title="商品マスタ" target="_top">
<polygon fill="#ffffff" stroke="transparent" points="8,-134.7 8,-305.7 91,-305.7 91,-134.7 8,-134.7"/>
<polygon fill="#f5f5f5" stroke="transparent" points="8.5,-282.2 8.5,-305.2 91.5,-305.2 91.5,-282.2 8.5,-282.2"/>
<polygon fill="none" stroke="#000000" points="8.5,-282.2 8.5,-305.2 91.5,-305.2 91.5,-282.2 8.5,-282.2"/>
<text text-anchor="start" x="4.4213" y="-290.8" font-family="Helvetica,sans-Serif" font-weight="bold" font-size="11.00" fill="#000000">商品マスタ</text>
<text text-anchor="start" x="56.5437" y="-290.3" font-family="Helvetica,sans-Serif" font-size="11.00" fill="#000000">[table]</text>
<polygon fill="none" stroke="#000000" points="8.5,-260.2 8.5,-282.2 91.5,-282.2 91.5,-260.2 8.5,-260.2"/>
<image xlink:href="../../images/primaryKeys.png" width="11px" height="12px" preserveAspectRatio="xMinYMin meet" x="13.5" y="-277.2"/>
<text text-anchor="start" x="27.5547" y="-267.3" font-family="Helvetica,sans-Serif" font-size="11.00" fill="#000000">商品コード</text>
<polygon fill="#ffffff" stroke="transparent" points="8.5,-238.2 8.5,-260.2 91.5,-260.2 91.5,-238.2 8.5,-238.2"/>
<polygon fill="none" stroke="#000000" points="8.5,-238.2 8.5,-260.2 91.5,-260.2 91.5,-238.2 8.5,-238.2"/>
<text text-anchor="start" x="28.5" y="-245.3" font-family="Helvetica,sans-Serif" font-size="11.00" fill="#000000">商品略称</text>
<polygon fill="#ffffff" stroke="transparent" points="8.5,-216.2 8.5,-238.2 91.5,-238.2 91.5,-216.2 8.5,-216.2"/>
<polygon fill="none" stroke="#000000" points="8.5,-216.2 8.5,-238.2 91.5,-238.2 91.5,-216.2 8.5,-216.2"/>
<image xlink:href="../../images/foreignKeys.png" width="11px" height="12px" preserveAspectRatio="xMinYMin meet" x="13.5" y="-233.2"/>
<text text-anchor="start" x="15.3315" y="-223.3" font-family="Helvetica,sans-Serif" font-size="11.00" fill="#000000">商品分類コード</text>
<polygon fill="#ffffff" stroke="transparent" points="8.5,-194.2 8.5,-216.2 91.5,-216.2 91.5,-194.2 8.5,-194.2"/>
<polygon fill="none" stroke="#000000" points="8.5,-194.2 8.5,-216.2 91.5,-216.2 91.5,-194.2 8.5,-194.2"/>
<text text-anchor="start" x="19.9114" y="-201.3" font-family="Helvetica,sans-Serif" font-size="11.00" fill="#000000">仕入先コード</text>
<polygon fill="#ffffff" stroke="transparent" points="8.5,-172.2 8.5,-194.2 91.5,-194.2 91.5,-172.2 8.5,-172.2"/>
<polygon fill="none" stroke="#000000" points="8.5,-172.2 8.5,-194.2 91.5,-194.2 91.5,-172.2 8.5,-172.2"/>
<text text-anchor="start" x="28.5" y="-179.3" font-family="Helvetica,sans-Serif" font-size="11.00" fill="#000000">仕入先枝番</text>
<polygon fill="none" stroke="#000000" points="8.5,-153.2 8.5,-172.2 91.5,-172.2 91.5,-153.2 8.5,-153.2"/>
<text text-anchor="start" x="11.5" y="-159.3" font-family="Helvetica,sans-Serif" font-size="11.00" fill="#000000">...</text>
<polygon fill="#ffffff" stroke="transparent" points="8.5,-134.2 8.5,-153.2 91.5,-153.2 91.5,-134.2 8.5,-134.2"/>
<polygon fill="none" stroke="#000000" points="8.5,-134.2 8.5,-153.2 91.5,-153.2 91.5,-134.2 8.5,-134.2"/>
<polygon fill="#ffffff" stroke="transparent" points="9.5,-135.2 9.5,-152.2 39.5,-152.2 39.5,-135.2 9.5,-135.2"/>
<text text-anchor="start" x="11.5" y="-140.3" font-family="Helvetica,sans-Serif" font-size="11.00" fill="#000000">&lt; 1</text>
<polygon fill="#ffffff" stroke="transparent" points="39.5,-135.2 39.5,-152.2 60.5,-152.2 60.5,-135.2 39.5,-135.2"/>
<text text-anchor="start" x="46.9431" y="-140.3" font-family="Helvetica,sans-Serif" font-size="11.00" fill="#000000"> &#160;</text>
<polygon fill="#ffffff" stroke="transparent" points="60.5,-135.2 60.5,-152.2 90.5,-152.2 90.5,-135.2 60.5,-135.2"/>
<text text-anchor="start" x="72.9053" y="-140.3" font-family="Helvetica,sans-Serif" font-size="11.00" fill="#000000">6 &gt;</text>
<polygon fill="#000000" stroke="#000000" points="39.5,-135.2 39.5,-152.2 39.5,-152.2 39.5,-135.2 39.5,-135.2"/>
<polygon fill="#000000" stroke="#000000" points="60.5,-135.2 60.5,-152.2 60.5,-152.2 60.5,-135.2 60.5,-135.2"/>
</a>
</g>
</g>
<!-- 受注明細&#45;&gt;商品マスタ -->
<g id="edge2" class="edge">
<title>受注明細:w&#45;&gt;商品マスタ:e</title>
<path fill="none" stroke="#000000" d="M128.4064,-374.3918C100.7616,-355.3309 138.2134,-271.2 91.5,-271.2"/>
<polygon fill="#000000" stroke="#000000" points="134.777,-376.1131 141.5609,-381.6754 138.6385,-377.1566 142.5,-378.2 142.5,-378.2 142.5,-378.2 138.6385,-377.1566 143.4391,-374.7246 134.777,-376.1131 134.777,-376.1131"/>
<ellipse fill="none" stroke="#000000" cx="131.6878" cy="-375.2784" rx="3.2" ry="3.2"/>
</g>
</g>
</svg>
