<?xml version="1.0" encoding="UTF-8" standalone="no"?>
<!DOCTYPE svg PUBLIC "-//W3C//DTD SVG 1.1//EN"
 "http://www.w3.org/Graphics/SVG/1.1/DTD/svg11.dtd">
<!-- Generated by graphviz version 2.40.1 (20161225.0304)
 -->
<!-- Title: twoDegreesRelationshipsDiagram Pages: 1 -->
<svg width="525pt" height="805pt"
 viewBox="0.00 0.00 525.00 805.20" xmlns="http://www.w3.org/2000/svg" xmlns:xlink="http://www.w3.org/1999/xlink">
<g id="graph0" class="graph" transform="scale(1 1) rotate(0) translate(4 801.2)">
<title>twoDegreesRelationshipsDiagram</title>
<polygon fill="#ffffff" stroke="transparent" points="-4,4 -4,-801.2 521,-801.2 521,4 -4,4"/>
<text text-anchor="middle" x="72.4936" y="-7.3" font-family="Helvetica,sans-Serif" font-size="11.00" fill="#000000">Generated by SchemaSpy</text>
<!-- 与信残高 -->
<g id="node1" class="node">
<title>与信残高</title>
<g id="a_node1"><a xlink:href="../../tables/_____24b4cb80.html" xlink:title="与信残高" target="_top">
<polygon fill="#ffffff" stroke="transparent" points="380.5,-732.2 380.5,-793.2 450.5,-793.2 450.5,-732.2 380.5,-732.2"/>
<polygon fill="#f5f5f5" stroke="transparent" points="380.5,-769.7 380.5,-792.7 450.5,-792.7 450.5,-769.7 380.5,-769.7"/>
<polygon fill="none" stroke="#000000" points="380.5,-769.7 380.5,-792.7 450.5,-792.7 450.5,-769.7 380.5,-769.7"/>
<text text-anchor="start" x="373.3321" y="-778.3" font-family="Helvetica,sans-Serif" font-weight="bold" font-size="11.00" fill="#000000">与信残高</text>
<text text-anchor="start" x="416.0219" y="-777.8" font-family="Helvetica,sans-Serif" font-size="11.00" fill="#000000">[table]</text>
<polygon fill="none" stroke="#000000" points="380.5,-750.7 380.5,-769.7 450.5,-769.7 450.5,-750.7 380.5,-750.7"/>
<text text-anchor="start" x="383.5" y="-756.8" font-family="Helvetica,sans-Serif" font-size="11.00" fill="#000000">...</text>
<polygon fill="#ffffff" stroke="transparent" points="380.5,-731.7 380.5,-750.7 450.5,-750.7 450.5,-731.7 380.5,-731.7"/>
<polygon fill="none" stroke="#000000" points="380.5,-731.7 380.5,-750.7 450.5,-750.7 450.5,-731.7 380.5,-731.7"/>
<polygon fill="#ffffff" stroke="transparent" points="381.5,-732.7 381.5,-749.7 410.5,-749.7 410.5,-732.7 381.5,-732.7"/>
<text text-anchor="start" x="383.5" y="-737.8" font-family="Helvetica,sans-Serif" font-size="11.00" fill="#000000">&lt; 1</text>
<polygon fill="#ffffff" stroke="transparent" points="410.5,-732.7 410.5,-749.7 430.5,-749.7 430.5,-732.7 410.5,-732.7"/>
<text text-anchor="start" x="417.4431" y="-737.8" font-family="Helvetica,sans-Serif" font-size="11.00" fill="#000000"> &#160;</text>
<polygon fill="#ffffff" stroke="transparent" points="430.5,-732.7 430.5,-749.7 449.5,-749.7 449.5,-732.7 430.5,-732.7"/>
<text text-anchor="start" x="441.3862" y="-737.8" font-family="Helvetica,sans-Serif" font-size="11.00" fill="#000000"> &#160;</text>
<polygon fill="#000000" stroke="#000000" points="410.5,-732.7 410.5,-749.7 410.5,-749.7 410.5,-732.7 410.5,-732.7"/>
<polygon fill="#000000" stroke="#000000" points="430.5,-732.7 430.5,-749.7 430.5,-749.7 430.5,-732.7 430.5,-732.7"/>
</a>
</g>
</g>
<!-- 取引先マスタ -->
<g id="node2" class="node">
<title>取引先マスタ</title>
<g id="a_node2"><a xlink:href="../../tables/_______70f9c0bb.html" xlink:title="取引先マスタ" target="_top">
<polygon fill="#ffffff" stroke="transparent" points="174,-318.2 174,-445.2 273,-445.2 273,-318.2 174,-318.2"/>
<polygon fill="#f5f5f5" stroke="transparent" points="174.5,-421.7 174.5,-444.7 273.5,-444.7 273.5,-421.7 174.5,-421.7"/>
<polygon fill="none" stroke="#000000" points="174.5,-421.7 174.5,-444.7 273.5,-444.7 273.5,-421.7 174.5,-421.7"/>
<text text-anchor="start" x="165.3644" y="-430.3" font-family="Helvetica,sans-Serif" font-weight="bold" font-size="11.00" fill="#000000">取引先マスタ</text>
<text text-anchor="start" x="238.5437" y="-429.8" font-family="Helvetica,sans-Serif" font-size="11.00" fill="#000000">[table]</text>
<polygon fill="none" stroke="#000000" points="174.5,-399.7 174.5,-421.7 273.5,-421.7 273.5,-399.7 174.5,-399.7"/>
<image xlink:href="../../images/primaryKeys.png" width="11px" height="12px" preserveAspectRatio="xMinYMin meet" x="179.5" y="-416.7"/>
<text text-anchor="start" x="192.9978" y="-406.8" font-family="Helvetica,sans-Serif" font-size="11.00" fill="#000000">取引先コード</text>
<polygon fill="#ffffff" stroke="transparent" points="174.5,-377.7 174.5,-399.7 273.5,-399.7 273.5,-377.7 174.5,-377.7"/>
<polygon fill="none" stroke="#000000" points="174.5,-377.7 174.5,-399.7 273.5,-399.7 273.5,-377.7 174.5,-377.7"/>
<text text-anchor="start" x="194.5" y="-384.8" font-family="Helvetica,sans-Serif" font-size="11.00" fill="#000000">取引先名</text>
<polygon fill="#ffffff" stroke="transparent" points="174.5,-355.7 174.5,-377.7 273.5,-377.7 273.5,-355.7 174.5,-355.7"/>
<polygon fill="none" stroke="#000000" points="174.5,-355.7 174.5,-377.7 273.5,-377.7 273.5,-355.7 174.5,-355.7"/>
<image xlink:href="../../images/foreignKeys.png" width="11px" height="12px" preserveAspectRatio="xMinYMin meet" x="179.5" y="-372.7"/>
<text text-anchor="start" x="167.1318" y="-362.8" font-family="Helvetica,sans-Serif" font-size="11.00" fill="#000000">取引先グループコード</text>
<polygon fill="none" stroke="#000000" points="174.5,-336.7 174.5,-355.7 273.5,-355.7 273.5,-336.7 174.5,-336.7"/>
<text text-anchor="start" x="177.5" y="-342.8" font-family="Helvetica,sans-Serif" font-size="11.00" fill="#000000">...</text>
<polygon fill="#ffffff" stroke="transparent" points="174.5,-317.7 174.5,-336.7 273.5,-336.7 273.5,-317.7 174.5,-317.7"/>
<polygon fill="none" stroke="#000000" points="174.5,-317.7 174.5,-336.7 273.5,-336.7 273.5,-317.7 174.5,-317.7"/>
<polygon fill="#ffffff" stroke="transparent" points="175.5,-318.7 175.5,-335.7 211.5,-335.7 211.5,-318.7 175.5,-318.7"/>
<text text-anchor="start" x="177.5" y="-323.8" font-family="Helvetica,sans-Serif" font-size="11.00" fill="#000000">&lt; 1</text>
<polygon fill="#ffffff" stroke="transparent" points="211.5,-318.7 211.5,-335.7 237.5,-335.7 237.5,-318.7 211.5,-318.7"/>
<text text-anchor="start" x="221.4431" y="-323.8" font-family="Helvetica,sans-Serif" font-size="11.00" fill="#000000"> &#160;</text>
<polygon fill="#ffffff" stroke="transparent" points="237.5,-318.7 237.5,-335.7 272.5,-335.7 272.5,-318.7 237.5,-318.7"/>
<text text-anchor="start" x="254.9053" y="-323.8" font-family="Helvetica,sans-Serif" font-size="11.00" fill="#000000">4 &gt;</text>
<polygon fill="#000000" stroke="#000000" points="211.5,-318.7 211.5,-335.7 211.5,-335.7 211.5,-318.7 211.5,-318.7"/>
<polygon fill="#000000" stroke="#000000" points="237.5,-318.7 237.5,-335.7 237.5,-335.7 237.5,-318.7 237.5,-318.7"/>
</a>
</g>
</g>
<!-- 与信残高&#45;&gt;取引先マスタ -->
<g id="edge1" class="edge">
<title>与信残高:w&#45;&gt;取引先マスタ:e</title>
<path fill="none" stroke="#000000" d="M370.0334,-759.3394C343.4401,-757.3507 330.8819,-746.8823 314,-721.7 275.1914,-663.8101 343.1947,-410.7 273.5,-410.7"/>
<polygon fill="#000000" stroke="#000000" points="379.8382,-755.6748 379.5627,-763.6701 377.9637,-763.615 378.2392,-755.6197 379.8382,-755.6748"/>
<polyline fill="none" stroke="#000000" points="380.5,-759.7 376.5024,-759.5622 "/>
<ellipse fill="none" stroke="#000000" cx="373.3043" cy="-759.452" rx="3.2" ry="3.2"/>
</g>
<!-- 取引先グループマスタ -->
<g id="node4" class="node">
<title>取引先グループマスタ</title>
<g id="a_node4"><a xlink:href="../../tables/___________d6a542a5.html" xlink:title="取引先グループマスタ" target="_top">
<polygon fill="#ffffff" stroke="transparent" points="8,-339.2 8,-400.2 125,-400.2 125,-339.2 8,-339.2"/>
<polygon fill="#f5f5f5" stroke="transparent" points="8.5,-376.7 8.5,-399.7 125.5,-399.7 125.5,-376.7 8.5,-376.7"/>
<polygon fill="none" stroke="#000000" points="8.5,-376.7 8.5,-399.7 125.5,-399.7 125.5,-376.7 8.5,-376.7"/>
<text text-anchor="start" x="-10.5016" y="-385.3" font-family="Helvetica,sans-Serif" font-weight="bold" font-size="11.00" fill="#000000">取引先グループマスタ</text>
<text text-anchor="start" x="91.0219" y="-384.8" font-family="Helvetica,sans-Serif" font-size="11.00" fill="#000000">[table]</text>
<polygon fill="none" stroke="#000000" points="8.5,-357.7 8.5,-376.7 125.5,-376.7 125.5,-357.7 8.5,-357.7"/>
<text text-anchor="start" x="11.5" y="-363.8" font-family="Helvetica,sans-Serif" font-size="11.00" fill="#000000">...</text>
<polygon fill="#ffffff" stroke="transparent" points="8.5,-338.7 8.5,-357.7 125.5,-357.7 125.5,-338.7 8.5,-338.7"/>
<polygon fill="none" stroke="#000000" points="8.5,-338.7 8.5,-357.7 125.5,-357.7 125.5,-338.7 8.5,-338.7"/>
<polygon fill="#ffffff" stroke="transparent" points="9.5,-339.7 9.5,-356.7 45.5,-356.7 45.5,-339.7 9.5,-339.7"/>
<text text-anchor="start" x="11.5" y="-344.8" font-family="Helvetica,sans-Serif" font-size="11.00" fill="#000000"> &#160;</text>
<polygon fill="#ffffff" stroke="transparent" points="45.5,-339.7 45.5,-356.7 80.5,-356.7 80.5,-339.7 45.5,-339.7"/>
<text text-anchor="start" x="59.9431" y="-344.8" font-family="Helvetica,sans-Serif" font-size="11.00" fill="#000000"> &#160;</text>
<polygon fill="#ffffff" stroke="transparent" points="80.5,-339.7 80.5,-356.7 124.5,-356.7 124.5,-339.7 80.5,-339.7"/>
<text text-anchor="start" x="106.9053" y="-344.8" font-family="Helvetica,sans-Serif" font-size="11.00" fill="#000000">1 &gt;</text>
<polygon fill="#000000" stroke="#000000" points="45.5,-339.7 45.5,-356.7 45.5,-356.7 45.5,-339.7 45.5,-339.7"/>
<polygon fill="#000000" stroke="#000000" points="80.5,-339.7 80.5,-356.7 80.5,-356.7 80.5,-339.7 80.5,-339.7"/>
</a>
</g>
</g>
<!-- 取引先マスタ&#45;&gt;取引先グループマスタ -->
<g id="edge3" class="edge">
<title>取引先マスタ:w&#45;&gt;取引先グループマスタ:e</title>
<path fill="none" stroke="#000000" d="M159.9909,-366.7C148.6774,-366.7 141.4931,-366.7 125.5,-366.7"/>
<polygon fill="#000000" stroke="#000000" points="166.5,-366.7001 174.5,-370.3 170.5,-366.7 174.5,-366.7 174.5,-366.7 174.5,-366.7 170.5,-366.7 174.5,-363.1 166.5,-366.7001 166.5,-366.7001"/>
<ellipse fill="none" stroke="#000000" cx="163.3" cy="-366.7001" rx="3.2" ry="3.2"/>
</g>
<!-- 仕入先マスタ -->
<g id="node3" class="node">
<title>仕入先マスタ</title>
<g id="a_node3"><a xlink:href="../../tables/_______2628176c.html" xlink:title="仕入先マスタ" target="_top">
<polygon fill="#ffffff" stroke="transparent" points="322,-202.7 322,-710.7 509,-710.7 509,-202.7 322,-202.7"/>
<polygon fill="#f5f5f5" stroke="transparent" points="324.5,-685.7 324.5,-708.7 507.5,-708.7 507.5,-685.7 324.5,-685.7"/>
<polygon fill="none" stroke="#000000" points="324.5,-685.7 324.5,-708.7 507.5,-708.7 507.5,-685.7 324.5,-685.7"/>
<text text-anchor="start" x="316.2779" y="-694.3" font-family="Helvetica,sans-Serif" font-weight="bold" font-size="11.00" fill="#000000">仕入先マスタ</text>
<text text-anchor="start" x="472.5437" y="-693.8" font-family="Helvetica,sans-Serif" font-size="11.00" fill="#000000">[table]</text>
<polygon fill="none" stroke="#000000" points="324.5,-663.7 324.5,-685.7 423.5,-685.7 423.5,-663.7 324.5,-663.7"/>
<image xlink:href="../../images/primaryKeys.png" width="11px" height="12px" preserveAspectRatio="xMinYMin meet" x="329.5" y="-680.7"/>
<text text-anchor="start" x="343.9114" y="-670.8" font-family="Helvetica,sans-Serif" font-size="11.00" fill="#000000">仕入先コード</text>
<polygon fill="none" stroke="#000000" points="423.5,-663.7 423.5,-685.7 507.5,-685.7 507.5,-663.7 423.5,-663.7"/>
<text text-anchor="start" x="426.5" y="-671.4" font-family="Helvetica,sans-Serif" font-size="11.00" fill="#000000">varchar[8]</text>
<polygon fill="none" stroke="#000000" points="324.5,-641.7 324.5,-663.7 423.5,-663.7 423.5,-641.7 324.5,-641.7"/>
<image xlink:href="../../images/primaryKeys.png" width="11px" height="12px" preserveAspectRatio="xMinYMin meet" x="329.5" y="-658.7"/>
<text text-anchor="start" x="344.5" y="-648.8" font-family="Helvetica,sans-Serif" font-size="11.00" fill="#000000">仕入先枝番</text>
<polygon fill="none" stroke="#000000" points="423.5,-641.7 423.5,-663.7 507.5,-663.7 507.5,-641.7 423.5,-641.7"/>
<text text-anchor="start" x="426.5" y="-649.4" font-family="Helvetica,sans-Serif" font-size="11.00" fill="#000000">int4[10]</text>
<polygon fill="none" stroke="#000000" points="324.5,-619.7 324.5,-641.7 423.5,-641.7 423.5,-619.7 324.5,-619.7"/>
<text text-anchor="start" x="344.5" y="-626.8" font-family="Helvetica,sans-Serif" font-size="11.00" fill="#000000">仕入先区分</text>
<polygon fill="none" stroke="#000000" points="423.5,-619.7 423.5,-641.7 507.5,-641.7 507.5,-619.7 423.5,-619.7"/>
<text text-anchor="start" x="426.5" y="-627.4" font-family="Helvetica,sans-Serif" font-size="11.00" fill="#000000">int4[10]</text>
<polygon fill="none" stroke="#000000" points="324.5,-597.7 324.5,-619.7 423.5,-619.7 423.5,-597.7 324.5,-597.7"/>
<text text-anchor="start" x="344.5" y="-604.8" font-family="Helvetica,sans-Serif" font-size="11.00" fill="#000000">仕入先名</text>
<polygon fill="none" stroke="#000000" points="423.5,-597.7 423.5,-619.7 507.5,-619.7 507.5,-597.7 423.5,-597.7"/>
<text text-anchor="start" x="426.5" y="-605.4" font-family="Helvetica,sans-Serif" font-size="11.00" fill="#000000">varchar[40]</text>
<polygon fill="none" stroke="#000000" points="324.5,-575.7 324.5,-597.7 423.5,-597.7 423.5,-575.7 324.5,-575.7"/>
<text text-anchor="start" x="344.5" y="-582.8" font-family="Helvetica,sans-Serif" font-size="11.00" fill="#000000">仕入先名カナ</text>
<polygon fill="none" stroke="#000000" points="423.5,-575.7 423.5,-597.7 507.5,-597.7 507.5,-575.7 423.5,-575.7"/>
<text text-anchor="start" x="426.5" y="-583.4" font-family="Helvetica,sans-Serif" font-size="11.00" fill="#000000">varchar[40]</text>
<polygon fill="none" stroke="#000000" points="324.5,-553.7 324.5,-575.7 423.5,-575.7 423.5,-553.7 324.5,-553.7"/>
<text text-anchor="start" x="338.7205" y="-560.8" font-family="Helvetica,sans-Serif" font-size="11.00" fill="#000000">担当社員コード</text>
<polygon fill="none" stroke="#000000" points="423.5,-553.7 423.5,-575.7 507.5,-575.7 507.5,-553.7 423.5,-553.7"/>
<text text-anchor="start" x="426.5" y="-561.4" font-family="Helvetica,sans-Serif" font-size="11.00" fill="#000000">varchar[10]</text>
<polygon fill="none" stroke="#000000" points="324.5,-531.7 324.5,-553.7 423.5,-553.7 423.5,-531.7 324.5,-531.7"/>
<text text-anchor="start" x="340.844" y="-538.8" font-family="Helvetica,sans-Serif" font-size="11.00" fill="#000000">仕入先担当者名</text>
<polygon fill="none" stroke="#000000" points="423.5,-531.7 423.5,-553.7 507.5,-553.7 507.5,-531.7 423.5,-531.7"/>
<text text-anchor="start" x="426.5" y="-539.4" font-family="Helvetica,sans-Serif" font-size="11.00" fill="#000000">varchar[40]</text>
<polygon fill="none" stroke="#000000" points="324.5,-509.7 324.5,-531.7 423.5,-531.7 423.5,-509.7 324.5,-509.7"/>
<text text-anchor="start" x="328.0081" y="-516.8" font-family="Helvetica,sans-Serif" font-size="11.00" fill="#000000">仕入先担当部署名</text>
<polygon fill="none" stroke="#000000" points="423.5,-509.7 423.5,-531.7 507.5,-531.7 507.5,-509.7 423.5,-509.7"/>
<text text-anchor="start" x="426.5" y="-517.4" font-family="Helvetica,sans-Serif" font-size="11.00" fill="#000000">varchar[40]</text>
<polygon fill="none" stroke="#000000" points="324.5,-487.7 324.5,-509.7 423.5,-509.7 423.5,-487.7 324.5,-487.7"/>
<text text-anchor="start" x="341.0646" y="-494.8" font-family="Helvetica,sans-Serif" font-size="11.00" fill="#000000">仕入先郵便番号</text>
<polygon fill="none" stroke="#000000" points="423.5,-487.7 423.5,-509.7 507.5,-509.7 507.5,-487.7 423.5,-487.7"/>
<text text-anchor="start" x="426.5" y="-495.4" font-family="Helvetica,sans-Serif" font-size="11.00" fill="#000000">bpchar[8]</text>
<polygon fill="none" stroke="#000000" points="324.5,-465.7 324.5,-487.7 423.5,-487.7 423.5,-465.7 324.5,-465.7"/>
<text text-anchor="start" x="336.5705" y="-472.8" font-family="Helvetica,sans-Serif" font-size="11.00" fill="#000000">仕入先都道府県</text>
<polygon fill="none" stroke="#000000" points="423.5,-465.7 423.5,-487.7 507.5,-487.7 507.5,-465.7 423.5,-465.7"/>
<text text-anchor="start" x="426.5" y="-473.4" font-family="Helvetica,sans-Serif" font-size="11.00" fill="#000000">varchar[4]</text>
<polygon fill="none" stroke="#000000" points="324.5,-443.7 324.5,-465.7 423.5,-465.7 423.5,-443.7 324.5,-443.7"/>
<text text-anchor="start" x="342.9868" y="-450.8" font-family="Helvetica,sans-Serif" font-size="11.00" fill="#000000">仕入先住所１</text>
<polygon fill="none" stroke="#000000" points="423.5,-443.7 423.5,-465.7 507.5,-465.7 507.5,-443.7 423.5,-443.7"/>
<text text-anchor="start" x="426.5" y="-451.4" font-family="Helvetica,sans-Serif" font-size="11.00" fill="#000000">varchar[40]</text>
<polygon fill="none" stroke="#000000" points="324.5,-421.7 324.5,-443.7 423.5,-443.7 423.5,-421.7 324.5,-421.7"/>
<text text-anchor="start" x="338.7876" y="-428.8" font-family="Helvetica,sans-Serif" font-size="11.00" fill="#000000">仕入先電話番号</text>
<polygon fill="none" stroke="#000000" points="423.5,-421.7 423.5,-443.7 507.5,-443.7 507.5,-421.7 423.5,-421.7"/>
<text text-anchor="start" x="426.5" y="-429.4" font-family="Helvetica,sans-Serif" font-size="11.00" fill="#000000">varchar[13]</text>
<polygon fill="none" stroke="#000000" points="324.5,-399.7 324.5,-421.7 423.5,-421.7 423.5,-399.7 324.5,-399.7"/>
<text text-anchor="start" x="321.1095" y="-406.8" font-family="Helvetica,sans-Serif" font-size="11.00" fill="#000000">仕入先メールアドレス</text>
<polygon fill="none" stroke="#000000" points="423.5,-399.7 423.5,-421.7 507.5,-421.7 507.5,-399.7 423.5,-399.7"/>
<text text-anchor="start" x="426.5" y="-407.4" font-family="Helvetica,sans-Serif" font-size="11.00" fill="#000000">varchar[40]</text>
<polygon fill="none" stroke="#000000" points="324.5,-377.7 324.5,-399.7 423.5,-399.7 423.5,-377.7 324.5,-377.7"/>
<text text-anchor="start" x="344.5" y="-384.8" font-family="Helvetica,sans-Serif" font-size="11.00" fill="#000000">仕入先締日</text>
<polygon fill="none" stroke="#000000" points="423.5,-377.7 423.5,-399.7 507.5,-399.7 507.5,-377.7 423.5,-377.7"/>
<text text-anchor="start" x="426.5" y="-385.4" font-family="Helvetica,sans-Serif" font-size="11.00" fill="#000000">int4[10]</text>
<polygon fill="none" stroke="#000000" points="324.5,-355.7 324.5,-377.7 423.5,-377.7 423.5,-355.7 324.5,-355.7"/>
<text text-anchor="start" x="344.5" y="-362.8" font-family="Helvetica,sans-Serif" font-size="11.00" fill="#000000">仕入先支払月数</text>
<polygon fill="none" stroke="#000000" points="423.5,-355.7 423.5,-377.7 507.5,-377.7 507.5,-355.7 423.5,-355.7"/>
<text text-anchor="start" x="426.5" y="-363.4" font-family="Helvetica,sans-Serif" font-size="11.00" fill="#000000">int4[10]</text>
<polygon fill="none" stroke="#000000" points="324.5,-333.7 324.5,-355.7 423.5,-355.7 423.5,-333.7 324.5,-333.7"/>
<text text-anchor="start" x="344.5" y="-340.8" font-family="Helvetica,sans-Serif" font-size="11.00" fill="#000000">仕入先支払日</text>
<polygon fill="none" stroke="#000000" points="423.5,-333.7 423.5,-355.7 507.5,-355.7 507.5,-333.7 423.5,-333.7"/>
<text text-anchor="start" x="426.5" y="-341.4" font-family="Helvetica,sans-Serif" font-size="11.00" fill="#000000">int4[10]</text>
<polygon fill="none" stroke="#000000" points="324.5,-311.7 324.5,-333.7 423.5,-333.7 423.5,-311.7 324.5,-311.7"/>
<text text-anchor="start" x="343.2915" y="-318.8" font-family="Helvetica,sans-Serif" font-size="11.00" fill="#000000">仕入先支払方法</text>
<polygon fill="none" stroke="#000000" points="423.5,-311.7 423.5,-333.7 507.5,-333.7 507.5,-311.7 423.5,-311.7"/>
<text text-anchor="start" x="426.5" y="-319.4" font-family="Helvetica,sans-Serif" font-size="11.00" fill="#000000">int4[10]</text>
<polygon fill="none" stroke="#000000" points="324.5,-289.7 324.5,-311.7 423.5,-311.7 423.5,-289.7 324.5,-289.7"/>
<text text-anchor="start" x="344.5" y="-296.8" font-family="Helvetica,sans-Serif" font-size="11.00" fill="#000000">作成日時</text>
<polygon fill="none" stroke="#000000" points="423.5,-289.7 423.5,-311.7 507.5,-311.7 507.5,-289.7 423.5,-289.7"/>
<text text-anchor="start" x="426.3807" y="-297.4" font-family="Helvetica,sans-Serif" font-size="11.00" fill="#000000">timestamp[29,6]</text>
<polygon fill="none" stroke="#000000" points="324.5,-267.7 324.5,-289.7 423.5,-289.7 423.5,-267.7 324.5,-267.7"/>
<text text-anchor="start" x="344.5" y="-274.8" font-family="Helvetica,sans-Serif" font-size="11.00" fill="#000000">作成者名</text>
<polygon fill="none" stroke="#000000" points="423.5,-267.7 423.5,-289.7 507.5,-289.7 507.5,-267.7 423.5,-267.7"/>
<text text-anchor="start" x="426.5" y="-275.4" font-family="Helvetica,sans-Serif" font-size="11.00" fill="#000000">varchar[12]</text>
<polygon fill="none" stroke="#000000" points="324.5,-245.7 324.5,-267.7 423.5,-267.7 423.5,-245.7 324.5,-245.7"/>
<text text-anchor="start" x="344.5" y="-252.8" font-family="Helvetica,sans-Serif" font-size="11.00" fill="#000000">更新日時</text>
<polygon fill="none" stroke="#000000" points="423.5,-245.7 423.5,-267.7 507.5,-267.7 507.5,-245.7 423.5,-245.7"/>
<text text-anchor="start" x="426.3807" y="-253.4" font-family="Helvetica,sans-Serif" font-size="11.00" fill="#000000">timestamp[29,6]</text>
<polygon fill="none" stroke="#000000" points="324.5,-223.7 324.5,-245.7 423.5,-245.7 423.5,-223.7 324.5,-223.7"/>
<text text-anchor="start" x="344.5" y="-230.8" font-family="Helvetica,sans-Serif" font-size="11.00" fill="#000000">更新者名</text>
<polygon fill="none" stroke="#000000" points="423.5,-223.7 423.5,-245.7 507.5,-245.7 507.5,-223.7 423.5,-223.7"/>
<text text-anchor="start" x="426.5" y="-231.4" font-family="Helvetica,sans-Serif" font-size="11.00" fill="#000000">varchar[12]</text>
<polygon fill="#ffffff" stroke="transparent" points="324.5,-204.7 324.5,-223.7 507.5,-223.7 507.5,-204.7 324.5,-204.7"/>
<polygon fill="none" stroke="#000000" points="324.5,-204.7 324.5,-223.7 507.5,-223.7 507.5,-204.7 324.5,-204.7"/>
<polygon fill="#ffffff" stroke="transparent" points="325.5,-205.7 325.5,-222.7 389.5,-222.7 389.5,-205.7 325.5,-205.7"/>
<text text-anchor="start" x="327.5" y="-210.8" font-family="Helvetica,sans-Serif" font-size="11.00" fill="#000000">&lt; 1</text>
<polygon fill="#ffffff" stroke="transparent" points="389.5,-205.7 389.5,-222.7 443.5,-222.7 443.5,-205.7 389.5,-205.7"/>
<text text-anchor="start" x="413.4431" y="-210.8" font-family="Helvetica,sans-Serif" font-size="11.00" fill="#000000"> &#160;</text>
<polygon fill="#ffffff" stroke="transparent" points="443.5,-205.7 443.5,-222.7 506.5,-222.7 506.5,-205.7 443.5,-205.7"/>
<text text-anchor="start" x="488.9053" y="-210.8" font-family="Helvetica,sans-Serif" font-size="11.00" fill="#000000">0 &gt;</text>
<polygon fill="#000000" stroke="#000000" points="389.5,-205.7 389.5,-222.7 389.5,-222.7 389.5,-205.7 389.5,-205.7"/>
<polygon fill="#000000" stroke="#000000" points="443.5,-205.7 443.5,-222.7 443.5,-222.7 443.5,-205.7 443.5,-205.7"/>
<polygon fill="none" stroke="#000000" stroke-width="2" points="323,-203.7 323,-709.7 508,-709.7 508,-203.7 323,-203.7"/>
</a>
</g>
</g>
<!-- 仕入先マスタ&#45;&gt;取引先マスタ -->
<g id="edge2" class="edge">
<title>仕入先マスタ:w&#45;&gt;取引先マスタ:e</title>
<path fill="none" stroke="#000000" d="M309.929,-673.0826C221.6078,-651.0218 387.5177,-410.7 273.5,-410.7"/>
<polygon fill="#000000" stroke="#000000" points="316.5488,-673.8173 324.1028,-678.278 320.5244,-674.2587 324.5,-674.7 324.5,-674.7 324.5,-674.7 320.5244,-674.2587 324.8972,-671.122 316.5488,-673.8173 316.5488,-673.8173"/>
<ellipse fill="none" stroke="#000000" cx="313.3684" cy="-673.4643" rx="3.2" ry="3.2"/>
</g>
<!-- 売上 -->
<g id="node5" class="node">
<title>売上</title>
<g id="a_node5"><a xlink:href="../../tables/___b1358.html" xlink:title="売上" target="_top">
<polygon fill="#ffffff" stroke="transparent" points="388.5,-120.2 388.5,-181.2 442.5,-181.2 442.5,-120.2 388.5,-120.2"/>
<polygon fill="#f5f5f5" stroke="transparent" points="388.5,-157.7 388.5,-180.7 442.5,-180.7 442.5,-157.7 388.5,-157.7"/>
<polygon fill="none" stroke="#000000" points="388.5,-157.7 388.5,-180.7 442.5,-180.7 442.5,-157.7 388.5,-157.7"/>
<text text-anchor="start" x="387.0793" y="-166.3" font-family="Helvetica,sans-Serif" font-weight="bold" font-size="11.00" fill="#000000">売上</text>
<text text-anchor="start" x="408.0219" y="-165.8" font-family="Helvetica,sans-Serif" font-size="11.00" fill="#000000">[table]</text>
<polygon fill="none" stroke="#000000" points="388.5,-138.7 388.5,-157.7 442.5,-157.7 442.5,-138.7 388.5,-138.7"/>
<text text-anchor="start" x="391.5" y="-144.8" font-family="Helvetica,sans-Serif" font-size="11.00" fill="#000000">...</text>
<polygon fill="#ffffff" stroke="transparent" points="388.5,-119.7 388.5,-138.7 442.5,-138.7 442.5,-119.7 388.5,-119.7"/>
<polygon fill="none" stroke="#000000" points="388.5,-119.7 388.5,-138.7 442.5,-138.7 442.5,-119.7 388.5,-119.7"/>
<polygon fill="#ffffff" stroke="transparent" points="389.5,-120.7 389.5,-137.7 410.5,-137.7 410.5,-120.7 389.5,-120.7"/>
<text text-anchor="start" x="391.5" y="-125.8" font-family="Helvetica,sans-Serif" font-size="11.00" fill="#000000">&lt; 4</text>
<polygon fill="#ffffff" stroke="transparent" points="410.5,-120.7 410.5,-137.7 421.5,-137.7 421.5,-120.7 410.5,-120.7"/>
<text text-anchor="start" x="412.9431" y="-125.8" font-family="Helvetica,sans-Serif" font-size="11.00" fill="#000000"> &#160;</text>
<polygon fill="#ffffff" stroke="transparent" points="421.5,-120.7 421.5,-137.7 441.5,-137.7 441.5,-120.7 421.5,-120.7"/>
<text text-anchor="start" x="423.9053" y="-125.8" font-family="Helvetica,sans-Serif" font-size="11.00" fill="#000000">1 &gt;</text>
<polygon fill="#000000" stroke="#000000" points="410.5,-120.7 410.5,-137.7 410.5,-137.7 410.5,-120.7 410.5,-120.7"/>
<polygon fill="#000000" stroke="#000000" points="421.5,-120.7 421.5,-137.7 421.5,-137.7 421.5,-120.7 421.5,-120.7"/>
</a>
</g>
</g>
<!-- 売上&#45;&gt;取引先マスタ -->
<g id="edge4" class="edge">
<title>売上:w&#45;&gt;取引先マスタ:e</title>
<path fill="none" stroke="#000000" d="M373.9449,-148.4538C345.8907,-151.656 333.0084,-165.2439 314,-192.7 285.9528,-233.2119 322.7734,-410.7 273.5,-410.7"/>
<polygon fill="#000000" stroke="#000000" points="380.5107,-148.1138 388.6862,-151.2952 384.5054,-147.9069 388.5,-147.7 388.5,-147.7 388.5,-147.7 384.5054,-147.9069 388.3138,-144.1048 380.5107,-148.1138 380.5107,-148.1138"/>
<ellipse fill="none" stroke="#000000" cx="377.315" cy="-148.2793" rx="3.2" ry="3.2"/>
</g>
<!-- 顧客マスタ -->
<g id="node6" class="node">
<title>顧客マスタ</title>
<g id="a_node6"><a xlink:href="../../tables/______8e04fe89.html" xlink:title="顧客マスタ" target="_top">
<polygon fill="#ffffff" stroke="transparent" points="376.5,-38.2 376.5,-99.2 454.5,-99.2 454.5,-38.2 376.5,-38.2"/>
<polygon fill="#f5f5f5" stroke="transparent" points="376.5,-75.7 376.5,-98.7 454.5,-98.7 454.5,-75.7 376.5,-75.7"/>
<polygon fill="none" stroke="#000000" points="376.5,-75.7 376.5,-98.7 454.5,-98.7 454.5,-75.7 376.5,-75.7"/>
<text text-anchor="start" x="365.0892" y="-84.3" font-family="Helvetica,sans-Serif" font-weight="bold" font-size="11.00" fill="#000000">顧客マスタ</text>
<text text-anchor="start" x="420.0219" y="-83.8" font-family="Helvetica,sans-Serif" font-size="11.00" fill="#000000">[table]</text>
<polygon fill="none" stroke="#000000" points="376.5,-56.7 376.5,-75.7 454.5,-75.7 454.5,-56.7 376.5,-56.7"/>
<text text-anchor="start" x="379.5" y="-62.8" font-family="Helvetica,sans-Serif" font-size="11.00" fill="#000000">...</text>
<polygon fill="#ffffff" stroke="transparent" points="376.5,-37.7 376.5,-56.7 454.5,-56.7 454.5,-37.7 376.5,-37.7"/>
<polygon fill="none" stroke="#000000" points="376.5,-37.7 376.5,-56.7 454.5,-56.7 454.5,-37.7 376.5,-37.7"/>
<polygon fill="#ffffff" stroke="transparent" points="377.5,-38.7 377.5,-55.7 406.5,-55.7 406.5,-38.7 377.5,-38.7"/>
<text text-anchor="start" x="379.5" y="-43.8" font-family="Helvetica,sans-Serif" font-size="11.00" fill="#000000">&lt; 1</text>
<polygon fill="#ffffff" stroke="transparent" points="406.5,-38.7 406.5,-55.7 425.5,-55.7 425.5,-38.7 406.5,-38.7"/>
<text text-anchor="start" x="412.9431" y="-43.8" font-family="Helvetica,sans-Serif" font-size="11.00" fill="#000000"> &#160;</text>
<polygon fill="#ffffff" stroke="transparent" points="425.5,-38.7 425.5,-55.7 453.5,-55.7 453.5,-38.7 425.5,-38.7"/>
<text text-anchor="start" x="435.9053" y="-43.8" font-family="Helvetica,sans-Serif" font-size="11.00" fill="#000000">2 &gt;</text>
<polygon fill="#000000" stroke="#000000" points="406.5,-38.7 406.5,-55.7 406.5,-55.7 406.5,-38.7 406.5,-38.7"/>
<polygon fill="#000000" stroke="#000000" points="425.5,-38.7 425.5,-55.7 425.5,-55.7 425.5,-38.7 425.5,-38.7"/>
</a>
</g>
</g>
<!-- 顧客マスタ&#45;&gt;取引先マスタ -->
<g id="edge5" class="edge">
<title>顧客マスタ:w&#45;&gt;取引先マスタ:e</title>
<path fill="none" stroke="#000000" d="M361.8308,-66.8476C338.8647,-70.8532 328.8045,-85.3114 314,-109.7 278.9782,-167.394 340.9917,-410.7 273.5,-410.7"/>
<polygon fill="#000000" stroke="#000000" points="368.5244,-66.324 376.7808,-69.289 372.5122,-66.012 376.5,-65.7 376.5,-65.7 376.5,-65.7 372.5122,-66.012 376.2192,-62.111 368.5244,-66.324 368.5244,-66.324"/>
<ellipse fill="none" stroke="#000000" cx="365.3341" cy="-66.5736" rx="3.2" ry="3.2"/>
</g>
</g>
</svg>
