<?xml version="1.0" encoding="UTF-8" standalone="no"?>
<!DOCTYPE svg PUBLIC "-//W3C//DTD SVG 1.1//EN"
 "http://www.w3.org/Graphics/SVG/1.1/DTD/svg11.dtd">
<!-- Generated by graphviz version 2.40.1 (20161225.0304)
 -->
<!-- Title: twoDegreesRelationshipsDiagram Pages: 1 -->
<svg width="580pt" height="777pt"
 viewBox="0.00 0.00 580.00 776.70" xmlns="http://www.w3.org/2000/svg" xmlns:xlink="http://www.w3.org/1999/xlink">
<g id="graph0" class="graph" transform="scale(1 1) rotate(0) translate(4 772.7)">
<title>twoDegreesRelationshipsDiagram</title>
<polygon fill="#ffffff" stroke="transparent" points="-4,4 -4,-772.7 576,-772.7 576,4 -4,4"/>
<text text-anchor="middle" x="72.4936" y="-7.3" font-family="Helvetica,sans-Serif" font-size="11.00" fill="#000000">Generated by SchemaSpy</text>
<!-- 代替商品 -->
<g id="node1" class="node">
<title>代替商品</title>
<g id="a_node1"><a xlink:href="../../tables/_____25696db7.html" xlink:title="代替商品" target="_top">
<polygon fill="#ffffff" stroke="transparent" points="451.5,-703.7 451.5,-764.7 521.5,-764.7 521.5,-703.7 451.5,-703.7"/>
<polygon fill="#f5f5f5" stroke="transparent" points="451.5,-741.2 451.5,-764.2 521.5,-764.2 521.5,-741.2 451.5,-741.2"/>
<polygon fill="none" stroke="#000000" points="451.5,-741.2 451.5,-764.2 521.5,-764.2 521.5,-741.2 451.5,-741.2"/>
<text text-anchor="start" x="446.7691" y="-749.8" font-family="Helvetica,sans-Serif" font-weight="bold" font-size="11.00" fill="#000000">代替商品</text>
<text text-anchor="start" x="487.0219" y="-749.3" font-family="Helvetica,sans-Serif" font-size="11.00" fill="#000000">[table]</text>
<polygon fill="none" stroke="#000000" points="451.5,-722.2 451.5,-741.2 521.5,-741.2 521.5,-722.2 451.5,-722.2"/>
<text text-anchor="start" x="454.5" y="-728.3" font-family="Helvetica,sans-Serif" font-size="11.00" fill="#000000">...</text>
<polygon fill="#ffffff" stroke="transparent" points="451.5,-703.2 451.5,-722.2 521.5,-722.2 521.5,-703.2 451.5,-703.2"/>
<polygon fill="none" stroke="#000000" points="451.5,-703.2 451.5,-722.2 521.5,-722.2 521.5,-703.2 451.5,-703.2"/>
<polygon fill="#ffffff" stroke="transparent" points="452.5,-704.2 452.5,-721.2 481.5,-721.2 481.5,-704.2 452.5,-704.2"/>
<text text-anchor="start" x="454.5" y="-709.3" font-family="Helvetica,sans-Serif" font-size="11.00" fill="#000000">&lt; 2</text>
<polygon fill="#ffffff" stroke="transparent" points="481.5,-704.2 481.5,-721.2 501.5,-721.2 501.5,-704.2 481.5,-704.2"/>
<text text-anchor="start" x="488.4431" y="-709.3" font-family="Helvetica,sans-Serif" font-size="11.00" fill="#000000"> &#160;</text>
<polygon fill="#ffffff" stroke="transparent" points="501.5,-704.2 501.5,-721.2 520.5,-721.2 520.5,-704.2 501.5,-704.2"/>
<text text-anchor="start" x="512.3862" y="-709.3" font-family="Helvetica,sans-Serif" font-size="11.00" fill="#000000"> &#160;</text>
<polygon fill="#000000" stroke="#000000" points="481.5,-704.2 481.5,-721.2 481.5,-721.2 481.5,-704.2 481.5,-704.2"/>
<polygon fill="#000000" stroke="#000000" points="501.5,-704.2 501.5,-721.2 501.5,-721.2 501.5,-704.2 501.5,-704.2"/>
</a>
</g>
</g>
<!-- 商品マスタ -->
<g id="node2" class="node">
<title>商品マスタ</title>
<g id="a_node2"><a xlink:href="../../tables/______d8ecb269.html" xlink:title="商品マスタ" target="_top">
<polygon fill="#ffffff" stroke="transparent" points="277,-507.7 277,-678.7 360,-678.7 360,-507.7 277,-507.7"/>
<polygon fill="#f5f5f5" stroke="transparent" points="277.5,-655.2 277.5,-678.2 360.5,-678.2 360.5,-655.2 277.5,-655.2"/>
<polygon fill="none" stroke="#000000" points="277.5,-655.2 277.5,-678.2 360.5,-678.2 360.5,-655.2 277.5,-655.2"/>
<text text-anchor="start" x="273.4213" y="-663.8" font-family="Helvetica,sans-Serif" font-weight="bold" font-size="11.00" fill="#000000">商品マスタ</text>
<text text-anchor="start" x="325.5437" y="-663.3" font-family="Helvetica,sans-Serif" font-size="11.00" fill="#000000">[table]</text>
<polygon fill="none" stroke="#000000" points="277.5,-633.2 277.5,-655.2 360.5,-655.2 360.5,-633.2 277.5,-633.2"/>
<image xlink:href="../../images/primaryKeys.png" width="11px" height="12px" preserveAspectRatio="xMinYMin meet" x="282.5" y="-650.2"/>
<text text-anchor="start" x="296.5547" y="-640.3" font-family="Helvetica,sans-Serif" font-size="11.00" fill="#000000">商品コード</text>
<polygon fill="#ffffff" stroke="transparent" points="277.5,-611.2 277.5,-633.2 360.5,-633.2 360.5,-611.2 277.5,-611.2"/>
<polygon fill="none" stroke="#000000" points="277.5,-611.2 277.5,-633.2 360.5,-633.2 360.5,-611.2 277.5,-611.2"/>
<text text-anchor="start" x="297.5" y="-618.3" font-family="Helvetica,sans-Serif" font-size="11.00" fill="#000000">商品略称</text>
<polygon fill="#ffffff" stroke="transparent" points="277.5,-589.2 277.5,-611.2 360.5,-611.2 360.5,-589.2 277.5,-589.2"/>
<polygon fill="none" stroke="#000000" points="277.5,-589.2 277.5,-611.2 360.5,-611.2 360.5,-589.2 277.5,-589.2"/>
<image xlink:href="../../images/foreignKeys.png" width="11px" height="12px" preserveAspectRatio="xMinYMin meet" x="282.5" y="-606.2"/>
<text text-anchor="start" x="284.3315" y="-596.3" font-family="Helvetica,sans-Serif" font-size="11.00" fill="#000000">商品分類コード</text>
<polygon fill="#ffffff" stroke="transparent" points="277.5,-567.2 277.5,-589.2 360.5,-589.2 360.5,-567.2 277.5,-567.2"/>
<polygon fill="none" stroke="#000000" points="277.5,-567.2 277.5,-589.2 360.5,-589.2 360.5,-567.2 277.5,-567.2"/>
<text text-anchor="start" x="288.9114" y="-574.3" font-family="Helvetica,sans-Serif" font-size="11.00" fill="#000000">仕入先コード</text>
<polygon fill="#ffffff" stroke="transparent" points="277.5,-545.2 277.5,-567.2 360.5,-567.2 360.5,-545.2 277.5,-545.2"/>
<polygon fill="none" stroke="#000000" points="277.5,-545.2 277.5,-567.2 360.5,-567.2 360.5,-545.2 277.5,-545.2"/>
<text text-anchor="start" x="297.5" y="-552.3" font-family="Helvetica,sans-Serif" font-size="11.00" fill="#000000">仕入先枝番</text>
<polygon fill="none" stroke="#000000" points="277.5,-526.2 277.5,-545.2 360.5,-545.2 360.5,-526.2 277.5,-526.2"/>
<text text-anchor="start" x="280.5" y="-532.3" font-family="Helvetica,sans-Serif" font-size="11.00" fill="#000000">...</text>
<polygon fill="#ffffff" stroke="transparent" points="277.5,-507.2 277.5,-526.2 360.5,-526.2 360.5,-507.2 277.5,-507.2"/>
<polygon fill="none" stroke="#000000" points="277.5,-507.2 277.5,-526.2 360.5,-526.2 360.5,-507.2 277.5,-507.2"/>
<polygon fill="#ffffff" stroke="transparent" points="278.5,-508.2 278.5,-525.2 308.5,-525.2 308.5,-508.2 278.5,-508.2"/>
<text text-anchor="start" x="280.5" y="-513.3" font-family="Helvetica,sans-Serif" font-size="11.00" fill="#000000">&lt; 1</text>
<polygon fill="#ffffff" stroke="transparent" points="308.5,-508.2 308.5,-525.2 329.5,-525.2 329.5,-508.2 308.5,-508.2"/>
<text text-anchor="start" x="315.9431" y="-513.3" font-family="Helvetica,sans-Serif" font-size="11.00" fill="#000000"> &#160;</text>
<polygon fill="#ffffff" stroke="transparent" points="329.5,-508.2 329.5,-525.2 359.5,-525.2 359.5,-508.2 329.5,-508.2"/>
<text text-anchor="start" x="341.9053" y="-513.3" font-family="Helvetica,sans-Serif" font-size="11.00" fill="#000000">6 &gt;</text>
<polygon fill="#000000" stroke="#000000" points="308.5,-508.2 308.5,-525.2 308.5,-525.2 308.5,-508.2 308.5,-508.2"/>
<polygon fill="#000000" stroke="#000000" points="329.5,-508.2 329.5,-525.2 329.5,-525.2 329.5,-508.2 329.5,-508.2"/>
</a>
</g>
</g>
<!-- 代替商品&#45;&gt;商品マスタ -->
<g id="edge1" class="edge">
<title>代替商品:w&#45;&gt;商品マスタ:e</title>
<path fill="none" stroke="#000000" d="M437.6864,-726.3307C421.8957,-717.905 417.343,-702.8139 401,-687.2 380.5711,-667.6825 388.7537,-638.2 360.5,-644.2"/>
<polygon fill="#000000" stroke="#000000" points="443.955,-728.5403 450.3032,-734.5952 447.7275,-729.8702 451.5,-731.2 451.5,-731.2 451.5,-731.2 447.7275,-729.8702 452.6968,-727.8048 443.955,-728.5403 443.955,-728.5403"/>
<ellipse fill="none" stroke="#000000" cx="440.9371" cy="-727.4765" rx="3.2" ry="3.2"/>
</g>
<!-- 代替商品&#45;&gt;商品マスタ -->
<g id="edge2" class="edge">
<title>代替商品:w&#45;&gt;商品マスタ:e</title>
<path fill="none" stroke="#000000" d="M436.7791,-732.4456C421.7144,-730.3187 417.0257,-715.5107 401,-700.2 380.5711,-680.6825 388.7537,-651.2 360.5,-644.2"/>
<polygon fill="#000000" stroke="#000000" points="443.5285,-731.8746 451.8036,-734.7872 447.5142,-731.5373 451.5,-731.2 451.5,-731.2 451.5,-731.2 447.5142,-731.5373 451.1964,-727.6128 443.5285,-731.8746 443.5285,-731.8746"/>
<ellipse fill="none" stroke="#000000" cx="440.3399" cy="-732.1444" rx="3.2" ry="3.2"/>
</g>
<!-- 商品分類マスタ -->
<g id="node6" class="node">
<title>商品分類マスタ</title>
<g id="a_node6"><a xlink:href="../../tables/________52e8cf11.html" xlink:title="商品分類マスタ" target="_top">
<polygon fill="#ffffff" stroke="transparent" points="135,-572.7 135,-633.7 228,-633.7 228,-572.7 135,-572.7"/>
<polygon fill="#f5f5f5" stroke="transparent" points="135.5,-610.2 135.5,-633.2 228.5,-633.2 228.5,-610.2 135.5,-610.2"/>
<polygon fill="none" stroke="#000000" points="135.5,-610.2 135.5,-633.2 228.5,-633.2 228.5,-610.2 135.5,-610.2"/>
<text text-anchor="start" x="126.6981" y="-618.8" font-family="Helvetica,sans-Serif" font-weight="bold" font-size="11.00" fill="#000000">商品分類マスタ</text>
<text text-anchor="start" x="194.0219" y="-618.3" font-family="Helvetica,sans-Serif" font-size="11.00" fill="#000000">[table]</text>
<polygon fill="none" stroke="#000000" points="135.5,-591.2 135.5,-610.2 228.5,-610.2 228.5,-591.2 135.5,-591.2"/>
<text text-anchor="start" x="138.5" y="-597.3" font-family="Helvetica,sans-Serif" font-size="11.00" fill="#000000">...</text>
<polygon fill="#ffffff" stroke="transparent" points="135.5,-572.2 135.5,-591.2 228.5,-591.2 228.5,-572.2 135.5,-572.2"/>
<polygon fill="none" stroke="#000000" points="135.5,-572.2 135.5,-591.2 228.5,-591.2 228.5,-572.2 135.5,-572.2"/>
<polygon fill="#ffffff" stroke="transparent" points="136.5,-573.2 136.5,-590.2 164.5,-590.2 164.5,-573.2 136.5,-573.2"/>
<text text-anchor="start" x="138.5" y="-578.3" font-family="Helvetica,sans-Serif" font-size="11.00" fill="#000000"> &#160;</text>
<polygon fill="#ffffff" stroke="transparent" points="164.5,-573.2 164.5,-590.2 191.5,-590.2 191.5,-573.2 164.5,-573.2"/>
<text text-anchor="start" x="174.9431" y="-578.3" font-family="Helvetica,sans-Serif" font-size="11.00" fill="#000000"> &#160;</text>
<polygon fill="#ffffff" stroke="transparent" points="191.5,-573.2 191.5,-590.2 227.5,-590.2 227.5,-573.2 191.5,-573.2"/>
<text text-anchor="start" x="209.9053" y="-578.3" font-family="Helvetica,sans-Serif" font-size="11.00" fill="#000000">1 &gt;</text>
<polygon fill="#000000" stroke="#000000" points="164.5,-573.2 164.5,-590.2 164.5,-590.2 164.5,-573.2 164.5,-573.2"/>
<polygon fill="#000000" stroke="#000000" points="191.5,-573.2 191.5,-590.2 191.5,-590.2 191.5,-573.2 191.5,-573.2"/>
</a>
</g>
</g>
<!-- 商品マスタ&#45;&gt;商品分類マスタ -->
<g id="edge7" class="edge">
<title>商品マスタ:w&#45;&gt;商品分類マスタ:e</title>
<path fill="none" stroke="#000000" d="M262.9909,-600.2C251.6774,-600.2 244.4931,-600.2 228.5,-600.2"/>
<polygon fill="#000000" stroke="#000000" points="269.5,-600.2001 277.5,-603.8 273.5,-600.2 277.5,-600.2 277.5,-600.2 277.5,-600.2 273.5,-600.2 277.5,-596.6 269.5,-600.2001 269.5,-600.2001"/>
<ellipse fill="none" stroke="#000000" cx="266.3" cy="-600.2001" rx="3.2" ry="3.2"/>
</g>
<!-- 受注 -->
<g id="node3" class="node">
<title>受注</title>
<g id="a_node3"><a xlink:href="../../tables/___a93f1.html" xlink:title="受注" target="_top">
<polygon fill="#ffffff" stroke="transparent" points="154.5,-376.7 154.5,-437.7 208.5,-437.7 208.5,-376.7 154.5,-376.7"/>
<polygon fill="#f5f5f5" stroke="transparent" points="154.5,-414.2 154.5,-437.2 208.5,-437.2 208.5,-414.2 154.5,-414.2"/>
<polygon fill="none" stroke="#000000" points="154.5,-414.2 154.5,-437.2 208.5,-437.2 208.5,-414.2 154.5,-414.2"/>
<text text-anchor="start" x="152.7713" y="-422.8" font-family="Helvetica,sans-Serif" font-weight="bold" font-size="11.00" fill="#000000">受注</text>
<text text-anchor="start" x="174.0219" y="-422.3" font-family="Helvetica,sans-Serif" font-size="11.00" fill="#000000">[table]</text>
<polygon fill="none" stroke="#000000" points="154.5,-395.2 154.5,-414.2 208.5,-414.2 208.5,-395.2 154.5,-395.2"/>
<text text-anchor="start" x="157.5" y="-401.3" font-family="Helvetica,sans-Serif" font-size="11.00" fill="#000000">...</text>
<polygon fill="#ffffff" stroke="transparent" points="154.5,-376.2 154.5,-395.2 208.5,-395.2 208.5,-376.2 154.5,-376.2"/>
<polygon fill="none" stroke="#000000" points="154.5,-376.2 154.5,-395.2 208.5,-395.2 208.5,-376.2 154.5,-376.2"/>
<polygon fill="#ffffff" stroke="transparent" points="155.5,-377.2 155.5,-394.2 176.5,-394.2 176.5,-377.2 155.5,-377.2"/>
<text text-anchor="start" x="157.5" y="-382.3" font-family="Helvetica,sans-Serif" font-size="11.00" fill="#000000">&lt; 5</text>
<polygon fill="#ffffff" stroke="transparent" points="176.5,-377.2 176.5,-394.2 187.5,-394.2 187.5,-377.2 176.5,-377.2"/>
<text text-anchor="start" x="178.9431" y="-382.3" font-family="Helvetica,sans-Serif" font-size="11.00" fill="#000000"> &#160;</text>
<polygon fill="#ffffff" stroke="transparent" points="187.5,-377.2 187.5,-394.2 207.5,-394.2 207.5,-377.2 187.5,-377.2"/>
<text text-anchor="start" x="189.9053" y="-382.3" font-family="Helvetica,sans-Serif" font-size="11.00" fill="#000000">2 &gt;</text>
<polygon fill="#000000" stroke="#000000" points="176.5,-377.2 176.5,-394.2 176.5,-394.2 176.5,-377.2 176.5,-377.2"/>
<polygon fill="#000000" stroke="#000000" points="187.5,-377.2 187.5,-394.2 187.5,-394.2 187.5,-377.2 187.5,-377.2"/>
</a>
</g>
</g>
<!-- 部門マスタ -->
<g id="node4" class="node">
<title>部門マスタ</title>
<g id="a_node4"><a xlink:href="../../tables/______3eb0dfec.html" xlink:title="部門マスタ" target="_top">
<polygon fill="#ffffff" stroke="transparent" points="8,-350.7 8,-411.7 86,-411.7 86,-350.7 8,-350.7"/>
<polygon fill="#f5f5f5" stroke="transparent" points="8,-388.2 8,-411.2 86,-411.2 86,-388.2 8,-388.2"/>
<polygon fill="none" stroke="#000000" points="8,-388.2 8,-411.2 86,-411.2 86,-388.2 8,-388.2"/>
<text text-anchor="start" x="-3.1077" y="-396.8" font-family="Helvetica,sans-Serif" font-weight="bold" font-size="11.00" fill="#000000">部門マスタ</text>
<text text-anchor="start" x="51.5219" y="-396.3" font-family="Helvetica,sans-Serif" font-size="11.00" fill="#000000">[table]</text>
<polygon fill="none" stroke="#000000" points="8,-369.2 8,-388.2 86,-388.2 86,-369.2 8,-369.2"/>
<text text-anchor="start" x="11" y="-375.3" font-family="Helvetica,sans-Serif" font-size="11.00" fill="#000000">...</text>
<polygon fill="#ffffff" stroke="transparent" points="8,-350.2 8,-369.2 86,-369.2 86,-350.2 8,-350.2"/>
<polygon fill="none" stroke="#000000" points="8,-350.2 8,-369.2 86,-369.2 86,-350.2 8,-350.2"/>
<polygon fill="#ffffff" stroke="transparent" points="9,-351.2 9,-368.2 32,-368.2 32,-351.2 9,-351.2"/>
<text text-anchor="start" x="11" y="-356.3" font-family="Helvetica,sans-Serif" font-size="11.00" fill="#000000"> &#160;</text>
<polygon fill="#ffffff" stroke="transparent" points="32,-351.2 32,-368.2 54,-368.2 54,-351.2 32,-351.2"/>
<text text-anchor="start" x="39.9431" y="-356.3" font-family="Helvetica,sans-Serif" font-size="11.00" fill="#000000"> &#160;</text>
<polygon fill="#ffffff" stroke="transparent" points="54,-351.2 54,-368.2 85,-368.2 85,-351.2 54,-351.2"/>
<text text-anchor="start" x="67.4053" y="-356.3" font-family="Helvetica,sans-Serif" font-size="11.00" fill="#000000">5 &gt;</text>
<polygon fill="#000000" stroke="#000000" points="32,-351.2 32,-368.2 32,-368.2 32,-351.2 32,-351.2"/>
<polygon fill="#000000" stroke="#000000" points="54,-351.2 54,-368.2 54,-368.2 54,-351.2 54,-351.2"/>
</a>
</g>
</g>
<!-- 受注&#45;&gt;部門マスタ -->
<g id="edge3" class="edge">
<title>受注:w&#45;&gt;部門マスタ:e</title>
<path fill="none" stroke="#000000" d="M140.5719,-399.8615C120.0439,-390.5301 113.2212,-373.1844 86,-378.2"/>
<polygon fill="#000000" stroke="#000000" points="146.862,-401.8208 153.4294,-407.6371 150.681,-403.0104 154.5,-404.2 154.5,-404.2 154.5,-404.2 150.681,-403.0104 155.5706,-400.7629 146.862,-401.8208 146.862,-401.8208"/>
<ellipse fill="none" stroke="#000000" cx="143.8068" cy="-400.8691" rx="3.2" ry="3.2"/>
</g>
<!-- 受注&#45;&gt;部門マスタ -->
<g id="edge4" class="edge">
<title>受注:w&#45;&gt;部門マスタ:e</title>
<path fill="none" stroke="#000000" d="M139.9999,-405.1488C119.9146,-402.8238 112.9668,-383.9969 86,-378.2"/>
<polygon fill="#000000" stroke="#000000" points="146.5171,-404.7224 154.7351,-407.7923 150.5085,-404.4612 154.5,-404.2 154.5,-404.2 154.5,-404.2 150.5085,-404.4612 154.2649,-400.6077 146.5171,-404.7224 146.5171,-404.7224"/>
<ellipse fill="none" stroke="#000000" cx="143.3239" cy="-404.9314" rx="3.2" ry="3.2"/>
</g>
<!-- 受注明細 -->
<g id="node5" class="node">
<title>受注明細</title>
<g id="a_node5"><a xlink:href="../../tables/_____27c23493.html" xlink:title="受注明細" target="_top">
<polygon fill="#ffffff" stroke="transparent" points="451.5,-457.7 451.5,-518.7 521.5,-518.7 521.5,-457.7 451.5,-457.7"/>
<polygon fill="#f5f5f5" stroke="transparent" points="451.5,-495.2 451.5,-518.2 521.5,-518.2 521.5,-495.2 451.5,-495.2"/>
<polygon fill="none" stroke="#000000" points="451.5,-495.2 451.5,-518.2 521.5,-518.2 521.5,-495.2 451.5,-495.2"/>
<text text-anchor="start" x="448.6006" y="-503.8" font-family="Helvetica,sans-Serif" font-weight="bold" font-size="11.00" fill="#000000">受注明細</text>
<text text-anchor="start" x="487.0219" y="-503.3" font-family="Helvetica,sans-Serif" font-size="11.00" fill="#000000">[table]</text>
<polygon fill="none" stroke="#000000" points="451.5,-476.2 451.5,-495.2 521.5,-495.2 521.5,-476.2 451.5,-476.2"/>
<text text-anchor="start" x="454.5" y="-482.3" font-family="Helvetica,sans-Serif" font-size="11.00" fill="#000000">...</text>
<polygon fill="#ffffff" stroke="transparent" points="451.5,-457.2 451.5,-476.2 521.5,-476.2 521.5,-457.2 451.5,-457.2"/>
<polygon fill="none" stroke="#000000" points="451.5,-457.2 451.5,-476.2 521.5,-476.2 521.5,-457.2 451.5,-457.2"/>
<polygon fill="#ffffff" stroke="transparent" points="452.5,-458.2 452.5,-475.2 481.5,-475.2 481.5,-458.2 452.5,-458.2"/>
<text text-anchor="start" x="454.5" y="-463.3" font-family="Helvetica,sans-Serif" font-size="11.00" fill="#000000">&lt; 2</text>
<polygon fill="#ffffff" stroke="transparent" points="481.5,-458.2 481.5,-475.2 501.5,-475.2 501.5,-458.2 481.5,-458.2"/>
<text text-anchor="start" x="488.4431" y="-463.3" font-family="Helvetica,sans-Serif" font-size="11.00" fill="#000000"> &#160;</text>
<polygon fill="#ffffff" stroke="transparent" points="501.5,-458.2 501.5,-475.2 520.5,-475.2 520.5,-458.2 501.5,-458.2"/>
<text text-anchor="start" x="512.3862" y="-463.3" font-family="Helvetica,sans-Serif" font-size="11.00" fill="#000000"> &#160;</text>
<polygon fill="#000000" stroke="#000000" points="481.5,-458.2 481.5,-475.2 481.5,-475.2 481.5,-458.2 481.5,-458.2"/>
<polygon fill="#000000" stroke="#000000" points="501.5,-458.2 501.5,-475.2 501.5,-475.2 501.5,-458.2 501.5,-458.2"/>
</a>
</g>
</g>
<!-- 受注明細&#45;&gt;商品マスタ -->
<g id="edge6" class="edge">
<title>受注明細:w&#45;&gt;商品マスタ:e</title>
<path fill="none" stroke="#000000" d="M437.218,-487.1499C419.7799,-492.6485 414.5839,-509.1878 401,-529.2 370.5669,-574.035 414.6881,-644.2 360.5,-644.2"/>
<polygon fill="#000000" stroke="#000000" points="443.5735,-486.2822 451.987,-488.7669 447.5368,-485.7411 451.5,-485.2 451.5,-485.2 451.5,-485.2 447.5368,-485.7411 451.013,-481.6331 443.5735,-486.2822 443.5735,-486.2822"/>
<ellipse fill="none" stroke="#000000" cx="440.4029" cy="-486.7151" rx="3.2" ry="3.2"/>
</g>
<!-- 受注明細&#45;&gt;受注 -->
<g id="edge5" class="edge">
<title>受注明細:w&#45;&gt;受注:e</title>
<path fill="none" stroke="#000000" d="M436.7541,-485.2787C366.0379,-486.0039 338.62,-490.7876 269,-458.2 236.3572,-442.9206 244.5418,-404.2 208.5,-404.2"/>
<polygon fill="#000000" stroke="#000000" points="443.5001,-485.2427 451.5192,-488.7999 447.5001,-485.2214 451.5,-485.2 451.5,-485.2 451.5,-485.2 447.5001,-485.2214 451.4808,-481.6001 443.5001,-485.2427 443.5001,-485.2427"/>
<ellipse fill="none" stroke="#000000" cx="440.3002" cy="-485.2598" rx="3.2" ry="3.2"/>
</g>
<!-- 在庫 -->
<g id="node7" class="node">
<title>在庫</title>
<g id="a_node7"><a xlink:href="../../tables/___aec83.html" xlink:title="在庫" target="_top">
<polygon fill="#ffffff" stroke="transparent" points="459.5,-621.7 459.5,-682.7 513.5,-682.7 513.5,-621.7 459.5,-621.7"/>
<polygon fill="#f5f5f5" stroke="transparent" points="459.5,-659.2 459.5,-682.2 513.5,-682.2 513.5,-659.2 459.5,-659.2"/>
<polygon fill="none" stroke="#000000" points="459.5,-659.2 459.5,-682.2 513.5,-682.2 513.5,-659.2 459.5,-659.2"/>
<text text-anchor="start" x="457.4688" y="-667.8" font-family="Helvetica,sans-Serif" font-weight="bold" font-size="11.00" fill="#000000">在庫</text>
<text text-anchor="start" x="479.0219" y="-667.3" font-family="Helvetica,sans-Serif" font-size="11.00" fill="#000000">[table]</text>
<polygon fill="none" stroke="#000000" points="459.5,-640.2 459.5,-659.2 513.5,-659.2 513.5,-640.2 459.5,-640.2"/>
<text text-anchor="start" x="462.5" y="-646.3" font-family="Helvetica,sans-Serif" font-size="11.00" fill="#000000">...</text>
<polygon fill="#ffffff" stroke="transparent" points="459.5,-621.2 459.5,-640.2 513.5,-640.2 513.5,-621.2 459.5,-621.2"/>
<polygon fill="none" stroke="#000000" points="459.5,-621.2 459.5,-640.2 513.5,-640.2 513.5,-621.2 459.5,-621.2"/>
<polygon fill="#ffffff" stroke="transparent" points="460.5,-622.2 460.5,-639.2 484.5,-639.2 484.5,-622.2 460.5,-622.2"/>
<text text-anchor="start" x="462.5" y="-627.3" font-family="Helvetica,sans-Serif" font-size="11.00" fill="#000000">&lt; 2</text>
<polygon fill="#ffffff" stroke="transparent" points="484.5,-622.2 484.5,-639.2 498.5,-639.2 498.5,-622.2 484.5,-622.2"/>
<text text-anchor="start" x="488.4431" y="-627.3" font-family="Helvetica,sans-Serif" font-size="11.00" fill="#000000"> &#160;</text>
<polygon fill="#ffffff" stroke="transparent" points="498.5,-622.2 498.5,-639.2 512.5,-639.2 512.5,-622.2 498.5,-622.2"/>
<text text-anchor="start" x="504.3862" y="-627.3" font-family="Helvetica,sans-Serif" font-size="11.00" fill="#000000"> &#160;</text>
<polygon fill="#000000" stroke="#000000" points="484.5,-622.2 484.5,-639.2 484.5,-639.2 484.5,-622.2 484.5,-622.2"/>
<polygon fill="#000000" stroke="#000000" points="498.5,-622.2 498.5,-639.2 498.5,-639.2 498.5,-622.2 498.5,-622.2"/>
</a>
</g>
</g>
<!-- 在庫&#45;&gt;商品マスタ -->
<g id="edge8" class="edge">
<title>在庫:w&#45;&gt;商品マスタ:e</title>
<path fill="none" stroke="#000000" d="M444.8366,-648.9978C412.3207,-648.0624 399.2212,-644.2 360.5,-644.2"/>
<polygon fill="#000000" stroke="#000000" points="451.5008,-649.0896 459.4503,-652.7997 455.5004,-649.1448 459.5,-649.2 459.5,-649.2 459.5,-649.2 455.5004,-649.1448 459.5497,-645.6003 451.5008,-649.0896 451.5008,-649.0896"/>
<ellipse fill="none" stroke="#000000" cx="448.3011" cy="-649.0455" rx="3.2" ry="3.2"/>
</g>
<!-- 売上 -->
<g id="node8" class="node">
<title>売上</title>
<g id="a_node8"><a xlink:href="../../tables/___b1358.html" xlink:title="売上" target="_top">
<polygon fill="#ffffff" stroke="transparent" points="285,-254.7 285,-447.7 352,-447.7 352,-254.7 285,-254.7"/>
<polygon fill="#f5f5f5" stroke="transparent" points="285.5,-424.2 285.5,-447.2 352.5,-447.2 352.5,-424.2 285.5,-424.2"/>
<polygon fill="none" stroke="#000000" points="285.5,-424.2 285.5,-447.2 352.5,-447.2 352.5,-424.2 285.5,-424.2"/>
<text text-anchor="start" x="284.0793" y="-432.8" font-family="Helvetica,sans-Serif" font-weight="bold" font-size="11.00" fill="#000000">売上</text>
<text text-anchor="start" x="317.5437" y="-432.3" font-family="Helvetica,sans-Serif" font-size="11.00" fill="#000000">[table]</text>
<polygon fill="none" stroke="#000000" points="285.5,-402.2 285.5,-424.2 352.5,-424.2 352.5,-402.2 285.5,-402.2"/>
<image xlink:href="../../images/primaryKeys.png" width="11px" height="12px" preserveAspectRatio="xMinYMin meet" x="290.5" y="-419.2"/>
<text text-anchor="start" x="304.7101" y="-409.3" font-family="Helvetica,sans-Serif" font-size="11.00" fill="#000000">売上番号</text>
<polygon fill="#ffffff" stroke="transparent" points="285.5,-380.2 285.5,-402.2 352.5,-402.2 352.5,-380.2 285.5,-380.2"/>
<polygon fill="none" stroke="#000000" points="285.5,-380.2 285.5,-402.2 352.5,-402.2 352.5,-380.2 285.5,-380.2"/>
<text text-anchor="start" x="305.5" y="-387.3" font-family="Helvetica,sans-Serif" font-size="11.00" fill="#000000">売上日</text>
<polygon fill="#ffffff" stroke="transparent" points="285.5,-358.2 285.5,-380.2 352.5,-380.2 352.5,-358.2 285.5,-358.2"/>
<polygon fill="none" stroke="#000000" points="285.5,-358.2 285.5,-380.2 352.5,-380.2 352.5,-358.2 285.5,-358.2"/>
<image xlink:href="../../images/foreignKeys.png" width="11px" height="12px" preserveAspectRatio="xMinYMin meet" x="290.5" y="-375.2"/>
<text text-anchor="start" x="304.4021" y="-365.3" font-family="Helvetica,sans-Serif" font-size="11.00" fill="#000000">受注番号</text>
<polygon fill="#ffffff" stroke="transparent" points="285.5,-336.2 285.5,-358.2 352.5,-358.2 352.5,-336.2 285.5,-336.2"/>
<polygon fill="none" stroke="#000000" points="285.5,-336.2 285.5,-358.2 352.5,-358.2 352.5,-336.2 285.5,-336.2"/>
<image xlink:href="../../images/foreignKeys.png" width="11px" height="12px" preserveAspectRatio="xMinYMin meet" x="290.5" y="-353.2"/>
<text text-anchor="start" x="289.5257" y="-343.3" font-family="Helvetica,sans-Serif" font-size="11.00" fill="#000000">部門コード</text>
<polygon fill="#ffffff" stroke="transparent" points="285.5,-314.2 285.5,-336.2 352.5,-336.2 352.5,-314.2 285.5,-314.2"/>
<polygon fill="none" stroke="#000000" points="285.5,-314.2 285.5,-336.2 352.5,-336.2 352.5,-314.2 285.5,-314.2"/>
<image xlink:href="../../images/foreignKeys.png" width="11px" height="12px" preserveAspectRatio="xMinYMin meet" x="290.5" y="-331.2"/>
<text text-anchor="start" x="305.5" y="-321.3" font-family="Helvetica,sans-Serif" font-size="11.00" fill="#000000">開始日</text>
<polygon fill="#ffffff" stroke="transparent" points="285.5,-292.2 285.5,-314.2 352.5,-314.2 352.5,-292.2 285.5,-292.2"/>
<polygon fill="none" stroke="#000000" points="285.5,-292.2 285.5,-314.2 352.5,-314.2 352.5,-292.2 285.5,-292.2"/>
<image xlink:href="../../images/foreignKeys.png" width="11px" height="12px" preserveAspectRatio="xMinYMin meet" x="290.5" y="-309.2"/>
<text text-anchor="start" x="287.9978" y="-299.3" font-family="Helvetica,sans-Serif" font-size="11.00" fill="#000000">取引先コード</text>
<polygon fill="none" stroke="#000000" points="285.5,-273.2 285.5,-292.2 352.5,-292.2 352.5,-273.2 285.5,-273.2"/>
<text text-anchor="start" x="288.5" y="-279.3" font-family="Helvetica,sans-Serif" font-size="11.00" fill="#000000">...</text>
<polygon fill="#ffffff" stroke="transparent" points="285.5,-254.2 285.5,-273.2 352.5,-273.2 352.5,-254.2 285.5,-254.2"/>
<polygon fill="none" stroke="#000000" points="285.5,-254.2 285.5,-273.2 352.5,-273.2 352.5,-254.2 285.5,-254.2"/>
<polygon fill="#ffffff" stroke="transparent" points="286.5,-255.2 286.5,-272.2 311.5,-272.2 311.5,-255.2 286.5,-255.2"/>
<text text-anchor="start" x="288.5" y="-260.3" font-family="Helvetica,sans-Serif" font-size="11.00" fill="#000000">&lt; 4</text>
<polygon fill="#ffffff" stroke="transparent" points="311.5,-255.2 311.5,-272.2 327.5,-272.2 327.5,-255.2 311.5,-255.2"/>
<text text-anchor="start" x="316.4431" y="-260.3" font-family="Helvetica,sans-Serif" font-size="11.00" fill="#000000"> &#160;</text>
<polygon fill="#ffffff" stroke="transparent" points="327.5,-255.2 327.5,-272.2 351.5,-272.2 351.5,-255.2 327.5,-255.2"/>
<text text-anchor="start" x="333.9053" y="-260.3" font-family="Helvetica,sans-Serif" font-size="11.00" fill="#000000">1 &gt;</text>
<polygon fill="#000000" stroke="#000000" points="311.5,-255.2 311.5,-272.2 311.5,-272.2 311.5,-255.2 311.5,-255.2"/>
<polygon fill="#000000" stroke="#000000" points="327.5,-255.2 327.5,-272.2 327.5,-272.2 327.5,-255.2 327.5,-255.2"/>
</a>
</g>
</g>
<!-- 売上&#45;&gt;受注 -->
<g id="edge10" class="edge">
<title>売上:w&#45;&gt;受注:e</title>
<path fill="none" stroke="#000000" d="M271.2264,-371.182C246.6359,-378.5861 240.6585,-404.2 208.5,-404.2"/>
<polygon fill="#000000" stroke="#000000" points="277.576,-370.3004 285.9952,-372.7658 281.538,-369.7502 285.5,-369.2 285.5,-369.2 285.5,-369.2 281.538,-369.7502 285.0048,-365.6342 277.576,-370.3004 277.576,-370.3004"/>
<ellipse fill="none" stroke="#000000" cx="274.4064" cy="-370.7405" rx="3.2" ry="3.2"/>
</g>
<!-- 売上&#45;&gt;部門マスタ -->
<g id="edge11" class="edge">
<title>売上:w&#45;&gt;部門マスタ:e</title>
<path fill="none" stroke="#000000" d="M270.908,-347.2764C211.6744,-347.9381 191.4831,-352.9931 127,-366.2 108.3994,-370.0096 104.9867,-378.2 86,-378.2"/>
<polygon fill="#000000" stroke="#000000" points="277.5001,-347.242 285.5189,-350.8 281.5001,-347.221 285.5,-347.2 285.5,-347.2 285.5,-347.2 281.5001,-347.221 285.4811,-343.6 277.5001,-347.242 277.5001,-347.242"/>
<ellipse fill="none" stroke="#000000" cx="274.3002" cy="-347.2587" rx="3.2" ry="3.2"/>
</g>
<!-- 売上&#45;&gt;部門マスタ -->
<g id="edge12" class="edge">
<title>売上:w&#45;&gt;部門マスタ:e</title>
<path fill="none" stroke="#000000" d="M270.8294,-325.1136C211.0451,-324.4394 187.7918,-320.6961 127,-346.2 105.6844,-355.1425 109.1154,-378.2 86,-378.2"/>
<polygon fill="#000000" stroke="#000000" points="277.5001,-325.1528 285.4788,-328.7999 281.5001,-325.1764 285.5,-325.2 285.5,-325.2 285.5,-325.2 281.5001,-325.1764 285.5212,-321.6001 277.5001,-325.1528 277.5001,-325.1528"/>
<ellipse fill="none" stroke="#000000" cx="274.3002" cy="-325.134" rx="3.2" ry="3.2"/>
</g>
<!-- 取引先マスタ -->
<g id="node9" class="node">
<title>取引先マスタ</title>
<g id="a_node9"><a xlink:href="../../tables/_______70f9c0bb.html" xlink:title="取引先マスタ" target="_top">
<polygon fill="#ffffff" stroke="transparent" points="139,-239.7 139,-300.7 224,-300.7 224,-239.7 139,-239.7"/>
<polygon fill="#f5f5f5" stroke="transparent" points="139.5,-277.2 139.5,-300.2 224.5,-300.2 224.5,-277.2 139.5,-277.2"/>
<polygon fill="none" stroke="#000000" points="139.5,-277.2 139.5,-300.2 224.5,-300.2 224.5,-277.2 139.5,-277.2"/>
<text text-anchor="start" x="130.3644" y="-285.8" font-family="Helvetica,sans-Serif" font-weight="bold" font-size="11.00" fill="#000000">取引先マスタ</text>
<text text-anchor="start" x="190.0219" y="-285.3" font-family="Helvetica,sans-Serif" font-size="11.00" fill="#000000">[table]</text>
<polygon fill="none" stroke="#000000" points="139.5,-258.2 139.5,-277.2 224.5,-277.2 224.5,-258.2 139.5,-258.2"/>
<text text-anchor="start" x="142.5" y="-264.3" font-family="Helvetica,sans-Serif" font-size="11.00" fill="#000000">...</text>
<polygon fill="#ffffff" stroke="transparent" points="139.5,-239.2 139.5,-258.2 224.5,-258.2 224.5,-239.2 139.5,-239.2"/>
<polygon fill="none" stroke="#000000" points="139.5,-239.2 139.5,-258.2 224.5,-258.2 224.5,-239.2 139.5,-239.2"/>
<polygon fill="#ffffff" stroke="transparent" points="140.5,-240.2 140.5,-257.2 171.5,-257.2 171.5,-240.2 140.5,-240.2"/>
<text text-anchor="start" x="142.5" y="-245.3" font-family="Helvetica,sans-Serif" font-size="11.00" fill="#000000">&lt; 1</text>
<polygon fill="#ffffff" stroke="transparent" points="171.5,-240.2 171.5,-257.2 193.5,-257.2 193.5,-240.2 171.5,-240.2"/>
<text text-anchor="start" x="179.4431" y="-245.3" font-family="Helvetica,sans-Serif" font-size="11.00" fill="#000000"> &#160;</text>
<polygon fill="#ffffff" stroke="transparent" points="193.5,-240.2 193.5,-257.2 223.5,-257.2 223.5,-240.2 193.5,-240.2"/>
<text text-anchor="start" x="205.9053" y="-245.3" font-family="Helvetica,sans-Serif" font-size="11.00" fill="#000000">4 &gt;</text>
<polygon fill="#000000" stroke="#000000" points="171.5,-240.2 171.5,-257.2 171.5,-257.2 171.5,-240.2 171.5,-240.2"/>
<polygon fill="#000000" stroke="#000000" points="193.5,-240.2 193.5,-257.2 193.5,-257.2 193.5,-240.2 193.5,-240.2"/>
</a>
</g>
</g>
<!-- 売上&#45;&gt;取引先マスタ -->
<g id="edge9" class="edge">
<title>売上:w&#45;&gt;取引先マスタ:e</title>
<path fill="none" stroke="#000000" d="M271.3813,-300.1307C253.6445,-291.4249 250.3237,-267.2 224.5,-267.2"/>
<polygon fill="#000000" stroke="#000000" points="277.6826,-301.5005 284.7352,-306.7178 281.5913,-302.3502 285.5,-303.2 285.5,-303.2 285.5,-303.2 281.5913,-302.3502 286.2648,-299.6822 277.6826,-301.5005 277.6826,-301.5005"/>
<ellipse fill="none" stroke="#000000" cx="274.5556" cy="-300.8207" rx="3.2" ry="3.2"/>
</g>
<!-- 売上明細 -->
<g id="node10" class="node">
<title>売上明細</title>
<g id="a_node10"><a xlink:href="../../tables/_____29a0763a.html" xlink:title="売上明細" target="_top">
<polygon fill="#ffffff" stroke="transparent" points="409,-38.2 409,-436.2 564,-436.2 564,-38.2 409,-38.2"/>
<polygon fill="#f5f5f5" stroke="transparent" points="411.5,-411.2 411.5,-434.2 562.5,-434.2 562.5,-411.2 411.5,-411.2"/>
<polygon fill="none" stroke="#000000" points="411.5,-411.2 411.5,-434.2 562.5,-434.2 562.5,-411.2 411.5,-411.2"/>
<text text-anchor="start" x="408.9086" y="-419.8" font-family="Helvetica,sans-Serif" font-weight="bold" font-size="11.00" fill="#000000">売上明細</text>
<text text-anchor="start" x="527.5437" y="-419.3" font-family="Helvetica,sans-Serif" font-size="11.00" fill="#000000">[table]</text>
<polygon fill="none" stroke="#000000" points="411.5,-389.2 411.5,-411.2 478.5,-411.2 478.5,-389.2 411.5,-389.2"/>
<image xlink:href="../../images/primaryKeys.png" width="11px" height="12px" preserveAspectRatio="xMinYMin meet" x="416.5" y="-406.2"/>
<text text-anchor="start" x="430.7101" y="-396.3" font-family="Helvetica,sans-Serif" font-size="11.00" fill="#000000">売上番号</text>
<polygon fill="none" stroke="#000000" points="478.5,-389.2 478.5,-411.2 562.5,-411.2 562.5,-389.2 478.5,-389.2"/>
<text text-anchor="start" x="481.5" y="-396.9" font-family="Helvetica,sans-Serif" font-size="11.00" fill="#000000">varchar[20]</text>
<polygon fill="none" stroke="#000000" points="411.5,-367.2 411.5,-389.2 478.5,-389.2 478.5,-367.2 411.5,-367.2"/>
<image xlink:href="../../images/primaryKeys.png" width="11px" height="12px" preserveAspectRatio="xMinYMin meet" x="416.5" y="-384.2"/>
<text text-anchor="start" x="431.5" y="-374.3" font-family="Helvetica,sans-Serif" font-size="11.00" fill="#000000">明細番号</text>
<polygon fill="none" stroke="#000000" points="478.5,-367.2 478.5,-389.2 562.5,-389.2 562.5,-367.2 478.5,-367.2"/>
<text text-anchor="start" x="481.5" y="-374.9" font-family="Helvetica,sans-Serif" font-size="11.00" fill="#000000">int4[10]</text>
<polygon fill="#ffffff" stroke="transparent" points="411.5,-345.2 411.5,-367.2 478.5,-367.2 478.5,-345.2 411.5,-345.2"/>
<polygon fill="none" stroke="#000000" points="411.5,-345.2 411.5,-367.2 478.5,-367.2 478.5,-345.2 411.5,-345.2"/>
<image xlink:href="../../images/foreignKeys.png" width="11px" height="12px" preserveAspectRatio="xMinYMin meet" x="416.5" y="-362.2"/>
<text text-anchor="start" x="422.5547" y="-352.3" font-family="Helvetica,sans-Serif" font-size="11.00" fill="#000000">商品コード</text>
<polygon fill="none" stroke="#000000" points="478.5,-345.2 478.5,-367.2 562.5,-367.2 562.5,-345.2 478.5,-345.2"/>
<text text-anchor="start" x="481.5" y="-352.9" font-family="Helvetica,sans-Serif" font-size="11.00" fill="#000000">varchar[16]</text>
<polygon fill="none" stroke="#000000" points="411.5,-323.2 411.5,-345.2 478.5,-345.2 478.5,-323.2 411.5,-323.2"/>
<text text-anchor="start" x="431.5" y="-330.3" font-family="Helvetica,sans-Serif" font-size="11.00" fill="#000000">商品名</text>
<polygon fill="none" stroke="#000000" points="478.5,-323.2 478.5,-345.2 562.5,-345.2 562.5,-323.2 478.5,-323.2"/>
<text text-anchor="start" x="481.5" y="-330.9" font-family="Helvetica,sans-Serif" font-size="11.00" fill="#000000">varchar[20]</text>
<polygon fill="none" stroke="#000000" points="411.5,-301.2 411.5,-323.2 478.5,-323.2 478.5,-301.2 411.5,-301.2"/>
<text text-anchor="start" x="428.2186" y="-308.3" font-family="Helvetica,sans-Serif" font-size="11.00" fill="#000000">販売単価</text>
<polygon fill="none" stroke="#000000" points="478.5,-301.2 478.5,-323.2 562.5,-323.2 562.5,-301.2 478.5,-301.2"/>
<text text-anchor="start" x="481.5" y="-308.9" font-family="Helvetica,sans-Serif" font-size="11.00" fill="#000000">int4[10]</text>
<polygon fill="none" stroke="#000000" points="411.5,-279.2 411.5,-301.2 478.5,-301.2 478.5,-279.2 411.5,-279.2"/>
<text text-anchor="start" x="424.9038" y="-286.3" font-family="Helvetica,sans-Serif" font-size="11.00" fill="#000000">出荷済数量</text>
<polygon fill="none" stroke="#000000" points="478.5,-279.2 478.5,-301.2 562.5,-301.2 562.5,-279.2 478.5,-279.2"/>
<text text-anchor="start" x="481.5" y="-286.9" font-family="Helvetica,sans-Serif" font-size="11.00" fill="#000000">int4[10]</text>
<polygon fill="none" stroke="#000000" points="411.5,-257.2 411.5,-279.2 478.5,-279.2 478.5,-257.2 411.5,-257.2"/>
<text text-anchor="start" x="431.5" y="-264.3" font-family="Helvetica,sans-Serif" font-size="11.00" fill="#000000">数量</text>
<polygon fill="none" stroke="#000000" points="478.5,-257.2 478.5,-279.2 562.5,-279.2 562.5,-257.2 478.5,-257.2"/>
<text text-anchor="start" x="481.5" y="-264.9" font-family="Helvetica,sans-Serif" font-size="11.00" fill="#000000">int4[10]</text>
<polygon fill="none" stroke="#000000" points="411.5,-235.2 411.5,-257.2 478.5,-257.2 478.5,-235.2 411.5,-235.2"/>
<text text-anchor="start" x="431.5" y="-242.3" font-family="Helvetica,sans-Serif" font-size="11.00" fill="#000000">値引額</text>
<polygon fill="none" stroke="#000000" points="478.5,-235.2 478.5,-257.2 562.5,-257.2 562.5,-235.2 478.5,-235.2"/>
<text text-anchor="start" x="481.5" y="-242.9" font-family="Helvetica,sans-Serif" font-size="11.00" fill="#000000">int4[10]</text>
<polygon fill="none" stroke="#000000" points="411.5,-213.2 411.5,-235.2 478.5,-235.2 478.5,-213.2 411.5,-213.2"/>
<text text-anchor="start" x="431.5" y="-220.3" font-family="Helvetica,sans-Serif" font-size="11.00" fill="#000000">請求日</text>
<polygon fill="none" stroke="#000000" points="478.5,-213.2 478.5,-235.2 562.5,-235.2 562.5,-213.2 478.5,-213.2"/>
<text text-anchor="start" x="481.3807" y="-220.9" font-family="Helvetica,sans-Serif" font-size="11.00" fill="#000000">timestamp[29,6]</text>
<polygon fill="#ffffff" stroke="transparent" points="411.5,-191.2 411.5,-213.2 478.5,-213.2 478.5,-191.2 411.5,-191.2"/>
<polygon fill="none" stroke="#000000" points="411.5,-191.2 411.5,-213.2 478.5,-213.2 478.5,-191.2 411.5,-191.2"/>
<text text-anchor="start" x="428.8731" y="-198.3" font-family="Helvetica,sans-Serif" font-size="11.00" fill="#000000">請求番号</text>
<polygon fill="none" stroke="#000000" points="478.5,-191.2 478.5,-213.2 562.5,-213.2 562.5,-191.2 478.5,-191.2"/>
<text text-anchor="start" x="481.5" y="-198.9" font-family="Helvetica,sans-Serif" font-size="11.00" fill="#000000">varchar[10]</text>
<polygon fill="none" stroke="#000000" points="411.5,-169.2 411.5,-191.2 478.5,-191.2 478.5,-169.2 411.5,-169.2"/>
<text text-anchor="start" x="414.3949" y="-176.3" font-family="Helvetica,sans-Serif" font-size="11.00" fill="#000000">請求遅延区分</text>
<polygon fill="none" stroke="#000000" points="478.5,-169.2 478.5,-191.2 562.5,-191.2 562.5,-169.2 478.5,-169.2"/>
<text text-anchor="start" x="481.5" y="-176.9" font-family="Helvetica,sans-Serif" font-size="11.00" fill="#000000">int4[10]</text>
<polygon fill="none" stroke="#000000" points="411.5,-147.2 411.5,-169.2 478.5,-169.2 478.5,-147.2 411.5,-147.2"/>
<text text-anchor="start" x="420.0968" y="-154.3" font-family="Helvetica,sans-Serif" font-size="11.00" fill="#000000">自動仕訳日</text>
<polygon fill="none" stroke="#000000" points="478.5,-147.2 478.5,-169.2 562.5,-169.2 562.5,-147.2 478.5,-147.2"/>
<text text-anchor="start" x="481.3807" y="-154.9" font-family="Helvetica,sans-Serif" font-size="11.00" fill="#000000">timestamp[29,6]</text>
<polygon fill="none" stroke="#000000" points="411.5,-125.2 411.5,-147.2 478.5,-147.2 478.5,-125.2 411.5,-125.2"/>
<text text-anchor="start" x="428.6581" y="-132.3" font-family="Helvetica,sans-Serif" font-size="11.00" fill="#000000">作成日時</text>
<polygon fill="none" stroke="#000000" points="478.5,-125.2 478.5,-147.2 562.5,-147.2 562.5,-125.2 478.5,-125.2"/>
<text text-anchor="start" x="481.3807" y="-132.9" font-family="Helvetica,sans-Serif" font-size="11.00" fill="#000000">timestamp[29,6]</text>
<polygon fill="none" stroke="#000000" points="411.5,-103.2 411.5,-125.2 478.5,-125.2 478.5,-103.2 411.5,-103.2"/>
<text text-anchor="start" x="428.6581" y="-110.3" font-family="Helvetica,sans-Serif" font-size="11.00" fill="#000000">作成者名</text>
<polygon fill="none" stroke="#000000" points="478.5,-103.2 478.5,-125.2 562.5,-125.2 562.5,-103.2 478.5,-103.2"/>
<text text-anchor="start" x="481.5" y="-110.9" font-family="Helvetica,sans-Serif" font-size="11.00" fill="#000000">varchar[12]</text>
<polygon fill="none" stroke="#000000" points="411.5,-81.2 411.5,-103.2 478.5,-103.2 478.5,-81.2 411.5,-81.2"/>
<text text-anchor="start" x="431.5" y="-88.3" font-family="Helvetica,sans-Serif" font-size="11.00" fill="#000000">更新日時</text>
<polygon fill="none" stroke="#000000" points="478.5,-81.2 478.5,-103.2 562.5,-103.2 562.5,-81.2 478.5,-81.2"/>
<text text-anchor="start" x="481.3807" y="-88.9" font-family="Helvetica,sans-Serif" font-size="11.00" fill="#000000">timestamp[29,6]</text>
<polygon fill="none" stroke="#000000" points="411.5,-59.2 411.5,-81.2 478.5,-81.2 478.5,-59.2 411.5,-59.2"/>
<text text-anchor="start" x="431.5" y="-66.3" font-family="Helvetica,sans-Serif" font-size="11.00" fill="#000000">更新者名</text>
<polygon fill="none" stroke="#000000" points="478.5,-59.2 478.5,-81.2 562.5,-81.2 562.5,-59.2 478.5,-59.2"/>
<text text-anchor="start" x="481.5" y="-66.9" font-family="Helvetica,sans-Serif" font-size="11.00" fill="#000000">varchar[12]</text>
<polygon fill="#ffffff" stroke="transparent" points="411.5,-40.2 411.5,-59.2 562.5,-59.2 562.5,-40.2 411.5,-40.2"/>
<polygon fill="none" stroke="#000000" points="411.5,-40.2 411.5,-59.2 562.5,-59.2 562.5,-40.2 411.5,-40.2"/>
<polygon fill="#ffffff" stroke="transparent" points="412.5,-41.2 412.5,-58.2 465.5,-58.2 465.5,-41.2 412.5,-41.2"/>
<text text-anchor="start" x="414.5" y="-46.3" font-family="Helvetica,sans-Serif" font-size="11.00" fill="#000000">&lt; 2</text>
<polygon fill="#ffffff" stroke="transparent" points="465.5,-41.2 465.5,-58.2 509.5,-58.2 509.5,-41.2 465.5,-41.2"/>
<text text-anchor="start" x="484.4431" y="-46.3" font-family="Helvetica,sans-Serif" font-size="11.00" fill="#000000"> &#160;</text>
<polygon fill="#ffffff" stroke="transparent" points="509.5,-41.2 509.5,-58.2 561.5,-58.2 561.5,-41.2 509.5,-41.2"/>
<text text-anchor="start" x="543.9053" y="-46.3" font-family="Helvetica,sans-Serif" font-size="11.00" fill="#000000">0 &gt;</text>
<polygon fill="#000000" stroke="#000000" points="465.5,-41.2 465.5,-58.2 465.5,-58.2 465.5,-41.2 465.5,-41.2"/>
<polygon fill="#000000" stroke="#000000" points="509.5,-41.2 509.5,-58.2 509.5,-58.2 509.5,-41.2 509.5,-41.2"/>
<polygon fill="none" stroke="#000000" stroke-width="2" points="410,-39.2 410,-435.2 563,-435.2 563,-39.2 410,-39.2"/>
</a>
</g>
</g>
<!-- 売上明細&#45;&gt;商品マスタ -->
<g id="edge13" class="edge">
<title>売上明細:w&#45;&gt;商品マスタ:e</title>
<path fill="none" stroke="#000000" d="M398.0003,-361.9529C358.7568,-402.5436 420.0371,-644.2 360.5,-644.2"/>
<polygon fill="#000000" stroke="#000000" points="404.1404,-359.3363 412.9114,-359.5118 407.8202,-357.7682 411.5,-356.2 411.5,-356.2 411.5,-356.2 407.8202,-357.7682 410.0886,-352.8882 404.1404,-359.3363 404.1404,-359.3363"/>
<ellipse fill="none" stroke="#000000" cx="401.1966" cy="-360.5909" rx="3.2" ry="3.2"/>
</g>
<!-- 売上明細&#45;&gt;売上 -->
<g id="edge14" class="edge">
<title>売上明細:w&#45;&gt;売上:e</title>
<path fill="none" stroke="#000000" d="M396.9807,-401.6913C381.4549,-405.1059 373.6873,-413.2 352.5,-413.2"/>
<polygon fill="#000000" stroke="#000000" points="403.5419,-401.0174 411.8678,-403.7812 407.5209,-400.6087 411.5,-400.2 411.5,-400.2 411.5,-400.2 407.5209,-400.6087 411.1322,-396.6188 403.5419,-401.0174 403.5419,-401.0174"/>
<ellipse fill="none" stroke="#000000" cx="400.3586" cy="-401.3444" rx="3.2" ry="3.2"/>
</g>
<!-- 顧客別販売単価 -->
<g id="node11" class="node">
<title>顧客別販売単価</title>
<g id="a_node11"><a xlink:href="../../tables/________201bd2dc.html" xlink:title="顧客別販売単価" target="_top">
<polygon fill="#ffffff" stroke="transparent" points="440,-539.7 440,-600.7 533,-600.7 533,-539.7 440,-539.7"/>
<polygon fill="#f5f5f5" stroke="transparent" points="440.5,-577.2 440.5,-600.2 533.5,-600.2 533.5,-577.2 440.5,-577.2"/>
<polygon fill="none" stroke="#000000" points="440.5,-577.2 440.5,-600.2 533.5,-600.2 533.5,-577.2 440.5,-577.2"/>
<text text-anchor="start" x="423.6015" y="-585.8" font-family="Helvetica,sans-Serif" font-weight="bold" font-size="11.00" fill="#000000">顧客別販売単価</text>
<text text-anchor="start" x="499.0219" y="-585.3" font-family="Helvetica,sans-Serif" font-size="11.00" fill="#000000">[table]</text>
<polygon fill="none" stroke="#000000" points="440.5,-558.2 440.5,-577.2 533.5,-577.2 533.5,-558.2 440.5,-558.2"/>
<text text-anchor="start" x="443.5" y="-564.3" font-family="Helvetica,sans-Serif" font-size="11.00" fill="#000000">...</text>
<polygon fill="#ffffff" stroke="transparent" points="440.5,-539.2 440.5,-558.2 533.5,-558.2 533.5,-539.2 440.5,-539.2"/>
<polygon fill="none" stroke="#000000" points="440.5,-539.2 440.5,-558.2 533.5,-558.2 533.5,-539.2 440.5,-539.2"/>
<polygon fill="#ffffff" stroke="transparent" points="441.5,-540.2 441.5,-557.2 478.5,-557.2 478.5,-540.2 441.5,-540.2"/>
<text text-anchor="start" x="443.5" y="-545.3" font-family="Helvetica,sans-Serif" font-size="11.00" fill="#000000">&lt; 1</text>
<polygon fill="#ffffff" stroke="transparent" points="478.5,-540.2 478.5,-557.2 505.5,-557.2 505.5,-540.2 478.5,-540.2"/>
<text text-anchor="start" x="488.9431" y="-545.3" font-family="Helvetica,sans-Serif" font-size="11.00" fill="#000000"> &#160;</text>
<polygon fill="#ffffff" stroke="transparent" points="505.5,-540.2 505.5,-557.2 532.5,-557.2 532.5,-540.2 505.5,-540.2"/>
<text text-anchor="start" x="524.3862" y="-545.3" font-family="Helvetica,sans-Serif" font-size="11.00" fill="#000000"> &#160;</text>
<polygon fill="#000000" stroke="#000000" points="478.5,-540.2 478.5,-557.2 478.5,-557.2 478.5,-540.2 478.5,-540.2"/>
<polygon fill="#000000" stroke="#000000" points="505.5,-540.2 505.5,-557.2 505.5,-557.2 505.5,-540.2 505.5,-540.2"/>
</a>
</g>
</g>
<!-- 顧客別販売単価&#45;&gt;商品マスタ -->
<g id="edge15" class="edge">
<title>顧客別販売単価:w&#45;&gt;商品マスタ:e</title>
<path fill="none" stroke="#000000" d="M426.1508,-569.9405C394.5138,-583.6572 404.259,-644.2 360.5,-644.2"/>
<polygon fill="#000000" stroke="#000000" points="432.642,-568.7008 441.1754,-570.7361 436.571,-567.9504 440.5,-567.2 440.5,-567.2 440.5,-567.2 436.571,-567.9504 439.8246,-563.6639 432.642,-568.7008 432.642,-568.7008"/>
<ellipse fill="none" stroke="#000000" cx="429.4988" cy="-569.3011" rx="3.2" ry="3.2"/>
</g>
</g>
</svg>
