<?xml version="1.0" encoding="UTF-8" standalone="no"?>
<!DOCTYPE svg PUBLIC "-//W3C//DTD SVG 1.1//EN"
 "http://www.w3.org/Graphics/SVG/1.1/DTD/svg11.dtd">
<!-- Generated by graphviz version 2.40.1 (20161225.0304)
 -->
<!-- Title: oneDegreeRelationshipsDiagramImplied Pages: 1 -->
<svg width="430pt" height="551pt"
 viewBox="0.00 0.00 430.00 551.20" xmlns="http://www.w3.org/2000/svg" xmlns:xlink="http://www.w3.org/1999/xlink">
<g id="graph0" class="graph" transform="scale(1 1) rotate(0) translate(4 547.2031)">
<title>oneDegreeRelationshipsDiagramImplied</title>
<polygon fill="#ffffff" stroke="transparent" points="-4,4 -4,-547.2031 426,-547.2031 426,4 -4,4"/>
<text text-anchor="middle" x="72.4936" y="-7.3" font-family="Helvetica,sans-Serif" font-size="11.00" fill="#000000">Generated by SchemaSpy</text>
<!-- 受注 -->
<g id="node1" class="node">
<title>受注</title>
<g id="a_node1"><a xlink:href="../../tables/___a93f1.html" xlink:title="受注" target="_top">
<polygon fill="#ffffff" stroke="transparent" points="347,-302.2031 347,-539.2031 414,-539.2031 414,-302.2031 347,-302.2031"/>
<polygon fill="#f5f5f5" stroke="transparent" points="347.5,-515.7031 347.5,-538.7031 414.5,-538.7031 414.5,-515.7031 347.5,-515.7031"/>
<polygon fill="none" stroke="#000000" points="347.5,-515.7031 347.5,-538.7031 414.5,-538.7031 414.5,-515.7031 347.5,-515.7031"/>
<text text-anchor="start" x="345.7713" y="-524.3031" font-family="Helvetica,sans-Serif" font-weight="bold" font-size="11.00" fill="#000000">受注</text>
<text text-anchor="start" x="379.5437" y="-523.8031" font-family="Helvetica,sans-Serif" font-size="11.00" fill="#000000">[table]</text>
<polygon fill="none" stroke="#000000" points="347.5,-493.7031 347.5,-515.7031 414.5,-515.7031 414.5,-493.7031 347.5,-493.7031"/>
<image xlink:href="../../images/primaryKeys.png" width="11px" height="12px" preserveAspectRatio="xMinYMin meet" x="352.5" y="-510.703"/>
<text text-anchor="start" x="366.4021" y="-500.8031" font-family="Helvetica,sans-Serif" font-size="11.00" fill="#000000">受注番号</text>
<polygon fill="#ffffff" stroke="transparent" points="347.5,-471.7031 347.5,-493.7031 414.5,-493.7031 414.5,-471.7031 347.5,-471.7031"/>
<polygon fill="none" stroke="#000000" points="347.5,-471.7031 347.5,-493.7031 414.5,-493.7031 414.5,-471.7031 347.5,-471.7031"/>
<text text-anchor="start" x="367.5" y="-478.8031" font-family="Helvetica,sans-Serif" font-size="11.00" fill="#000000">受注日</text>
<polygon fill="none" stroke="#000000" points="347.5,-449.7031 347.5,-471.7031 414.5,-471.7031 414.5,-449.7031 347.5,-449.7031"/>
<image xlink:href="../../images/foreignKeys.png" width="11px" height="12px" preserveAspectRatio="xMinYMin meet" x="352.5" y="-466.703"/>
<text text-anchor="start" x="351.5257" y="-456.8031" font-family="Helvetica,sans-Serif" font-size="11.00" fill="#000000">部門コード</text>
<polygon fill="none" stroke="#000000" points="347.5,-427.7031 347.5,-449.7031 414.5,-449.7031 414.5,-427.7031 347.5,-427.7031"/>
<image xlink:href="../../images/foreignKeys.png" width="11px" height="12px" preserveAspectRatio="xMinYMin meet" x="352.5" y="-444.703"/>
<text text-anchor="start" x="367.5" y="-434.8031" font-family="Helvetica,sans-Serif" font-size="11.00" fill="#000000">開始日</text>
<polygon fill="#ffffff" stroke="transparent" points="347.5,-405.7031 347.5,-427.7031 414.5,-427.7031 414.5,-405.7031 347.5,-405.7031"/>
<polygon fill="none" stroke="#000000" points="347.5,-405.7031 347.5,-427.7031 414.5,-427.7031 414.5,-405.7031 347.5,-405.7031"/>
<image xlink:href="../../images/foreignKeys.png" width="11px" height="12px" preserveAspectRatio="xMinYMin meet" x="352.5" y="-422.703"/>
<text text-anchor="start" x="351.2227" y="-412.8031" font-family="Helvetica,sans-Serif" font-size="11.00" fill="#000000">顧客コード</text>
<polygon fill="#ffffff" stroke="transparent" points="347.5,-383.7031 347.5,-405.7031 414.5,-405.7031 414.5,-383.7031 347.5,-383.7031"/>
<polygon fill="none" stroke="#000000" points="347.5,-383.7031 347.5,-405.7031 414.5,-405.7031 414.5,-383.7031 347.5,-383.7031"/>
<image xlink:href="../../images/foreignKeys.png" width="11px" height="12px" preserveAspectRatio="xMinYMin meet" x="352.5" y="-400.703"/>
<text text-anchor="start" x="362.5241" y="-390.8031" font-family="Helvetica,sans-Serif" font-size="11.00" fill="#000000">顧客枝番</text>
<polygon fill="#ffffff" stroke="transparent" points="347.5,-361.7031 347.5,-383.7031 414.5,-383.7031 414.5,-361.7031 347.5,-361.7031"/>
<polygon fill="none" stroke="#000000" points="347.5,-361.7031 347.5,-383.7031 414.5,-383.7031 414.5,-361.7031 347.5,-361.7031"/>
<image xlink:href="../../images/foreignKeys.png" width="11px" height="12px" preserveAspectRatio="xMinYMin meet" x="352.5" y="-378.703"/>
<text text-anchor="start" x="358.8627" y="-368.8031" font-family="Helvetica,sans-Serif" font-size="11.00" fill="#000000">社員コード</text>
<polygon fill="none" stroke="#000000" points="347.5,-339.7031 347.5,-361.7031 414.5,-361.7031 414.5,-339.7031 347.5,-339.7031"/>
<image xlink:href="../../images/foreignKeys.png" width="11px" height="12px" preserveAspectRatio="xMinYMin meet" x="352.5" y="-356.703"/>
<text text-anchor="start" x="356.7232" y="-346.8031" font-family="Helvetica,sans-Serif" font-size="11.00" fill="#000000">倉庫コード</text>
<polygon fill="none" stroke="#000000" points="347.5,-320.7031 347.5,-339.7031 414.5,-339.7031 414.5,-320.7031 347.5,-320.7031"/>
<text text-anchor="start" x="350.5" y="-326.8031" font-family="Helvetica,sans-Serif" font-size="11.00" fill="#000000">...</text>
<polygon fill="#ffffff" stroke="transparent" points="347.5,-301.7031 347.5,-320.7031 414.5,-320.7031 414.5,-301.7031 347.5,-301.7031"/>
<polygon fill="none" stroke="#000000" points="347.5,-301.7031 347.5,-320.7031 414.5,-320.7031 414.5,-301.7031 347.5,-301.7031"/>
<polygon fill="#ffffff" stroke="transparent" points="348.5,-302.7031 348.5,-319.7031 373.5,-319.7031 373.5,-302.7031 348.5,-302.7031"/>
<text text-anchor="start" x="350.5" y="-307.8031" font-family="Helvetica,sans-Serif" font-size="11.00" fill="#000000">&lt; 5</text>
<polygon fill="#ffffff" stroke="transparent" points="373.5,-302.7031 373.5,-319.7031 389.5,-319.7031 389.5,-302.7031 373.5,-302.7031"/>
<text text-anchor="start" x="378.4431" y="-307.8031" font-family="Helvetica,sans-Serif" font-size="11.00" fill="#000000"> &#160;</text>
<polygon fill="#ffffff" stroke="transparent" points="389.5,-302.7031 389.5,-319.7031 413.5,-319.7031 413.5,-302.7031 389.5,-302.7031"/>
<text text-anchor="start" x="395.9053" y="-307.8031" font-family="Helvetica,sans-Serif" font-size="11.00" fill="#000000">2 &gt;</text>
<polygon fill="#000000" stroke="#000000" points="373.5,-302.7031 373.5,-319.7031 373.5,-319.7031 373.5,-302.7031 373.5,-302.7031"/>
<polygon fill="#000000" stroke="#000000" points="389.5,-302.7031 389.5,-319.7031 389.5,-319.7031 389.5,-302.7031 389.5,-302.7031"/>
</a>
</g>
</g>
<!-- 社員マスタ -->
<g id="node2" class="node">
<title>社員マスタ</title>
<g id="a_node2"><a xlink:href="../../tables/______d3d8a641.html" xlink:title="社員マスタ" target="_top">
<polygon fill="#ffffff" stroke="transparent" points="135,-82.7031 135,-436.7031 298,-436.7031 298,-82.7031 135,-82.7031"/>
<polygon fill="#f5f5f5" stroke="transparent" points="137.5,-411.7031 137.5,-434.7031 296.5,-434.7031 296.5,-411.7031 137.5,-411.7031"/>
<polygon fill="none" stroke="#000000" points="137.5,-411.7031 137.5,-434.7031 296.5,-434.7031 296.5,-411.7031 137.5,-411.7031"/>
<text text-anchor="start" x="133.7293" y="-420.3031" font-family="Helvetica,sans-Serif" font-weight="bold" font-size="11.00" fill="#000000">社員マスタ</text>
<text text-anchor="start" x="261.5437" y="-419.8031" font-family="Helvetica,sans-Serif" font-size="11.00" fill="#000000">[table]</text>
<polygon fill="none" stroke="#000000" points="137.5,-389.7031 137.5,-411.7031 212.5,-411.7031 212.5,-389.7031 137.5,-389.7031"/>
<image xlink:href="../../images/primaryKeys.png" width="11px" height="12px" preserveAspectRatio="xMinYMin meet" x="142.5" y="-406.703"/>
<text text-anchor="start" x="152.8627" y="-396.8031" font-family="Helvetica,sans-Serif" font-size="11.00" fill="#000000">社員コード</text>
<polygon fill="none" stroke="#000000" points="212.5,-389.7031 212.5,-411.7031 296.5,-411.7031 296.5,-389.7031 212.5,-389.7031"/>
<text text-anchor="start" x="215.5" y="-397.4031" font-family="Helvetica,sans-Serif" font-size="11.00" fill="#000000">varchar[10]</text>
<polygon fill="none" stroke="#000000" points="137.5,-367.7031 137.5,-389.7031 212.5,-389.7031 212.5,-367.7031 137.5,-367.7031"/>
<text text-anchor="start" x="157.5" y="-374.8031" font-family="Helvetica,sans-Serif" font-size="11.00" fill="#000000">社員名</text>
<polygon fill="none" stroke="#000000" points="212.5,-367.7031 212.5,-389.7031 296.5,-389.7031 296.5,-367.7031 212.5,-367.7031"/>
<text text-anchor="start" x="215.5" y="-375.4031" font-family="Helvetica,sans-Serif" font-size="11.00" fill="#000000">varchar[20]</text>
<polygon fill="none" stroke="#000000" points="137.5,-345.7031 137.5,-367.7031 212.5,-367.7031 212.5,-345.7031 137.5,-345.7031"/>
<text text-anchor="start" x="157.3403" y="-352.8031" font-family="Helvetica,sans-Serif" font-size="11.00" fill="#000000">社員名カナ</text>
<polygon fill="none" stroke="#000000" points="212.5,-345.7031 212.5,-367.7031 296.5,-367.7031 296.5,-345.7031 212.5,-345.7031"/>
<text text-anchor="start" x="215.5" y="-353.4031" font-family="Helvetica,sans-Serif" font-size="11.00" fill="#000000">varchar[40]</text>
<polygon fill="none" stroke="#000000" points="137.5,-323.7031 137.5,-345.7031 212.5,-345.7031 212.5,-323.7031 137.5,-323.7031"/>
<text text-anchor="start" x="151.5477" y="-330.8031" font-family="Helvetica,sans-Serif" font-size="11.00" fill="#000000">パスワード</text>
<polygon fill="none" stroke="#000000" points="212.5,-323.7031 212.5,-345.7031 296.5,-345.7031 296.5,-323.7031 212.5,-323.7031"/>
<text text-anchor="start" x="215.5" y="-331.4031" font-family="Helvetica,sans-Serif" font-size="11.00" fill="#000000">varchar[8]</text>
<polygon fill="none" stroke="#000000" points="137.5,-301.7031 137.5,-323.7031 212.5,-323.7031 212.5,-301.7031 137.5,-301.7031"/>
<text text-anchor="start" x="156.6016" y="-308.8031" font-family="Helvetica,sans-Serif" font-size="11.00" fill="#000000">電話番号</text>
<polygon fill="none" stroke="#000000" points="212.5,-301.7031 212.5,-323.7031 296.5,-323.7031 296.5,-301.7031 212.5,-301.7031"/>
<text text-anchor="start" x="215.5" y="-309.4031" font-family="Helvetica,sans-Serif" font-size="11.00" fill="#000000">varchar[13]</text>
<polygon fill="none" stroke="#000000" points="137.5,-279.7031 137.5,-301.7031 212.5,-301.7031 212.5,-279.7031 137.5,-279.7031"/>
<text text-anchor="start" x="157.5" y="-286.8031" font-family="Helvetica,sans-Serif" font-size="11.00" fill="#000000">fax番号</text>
<polygon fill="none" stroke="#000000" points="212.5,-279.7031 212.5,-301.7031 296.5,-301.7031 296.5,-279.7031 212.5,-279.7031"/>
<text text-anchor="start" x="215.5" y="-287.4031" font-family="Helvetica,sans-Serif" font-size="11.00" fill="#000000">varchar[13]</text>
<polygon fill="#ffffff" stroke="transparent" points="137.5,-257.7031 137.5,-279.7031 212.5,-279.7031 212.5,-257.7031 137.5,-257.7031"/>
<polygon fill="none" stroke="#000000" points="137.5,-257.7031 137.5,-279.7031 212.5,-279.7031 212.5,-257.7031 137.5,-257.7031"/>
<image xlink:href="../../images/foreignKeys.png" width="11px" height="12px" preserveAspectRatio="xMinYMin meet" x="142.5" y="-274.703"/>
<text text-anchor="start" x="145.5257" y="-264.8031" font-family="Helvetica,sans-Serif" font-size="11.00" fill="#000000">部門コード</text>
<polygon fill="none" stroke="#000000" points="212.5,-257.7031 212.5,-279.7031 296.5,-279.7031 296.5,-257.7031 212.5,-257.7031"/>
<text text-anchor="start" x="215.5" y="-265.4031" font-family="Helvetica,sans-Serif" font-size="11.00" fill="#000000">varchar[6]</text>
<polygon fill="none" stroke="#000000" points="137.5,-235.7031 137.5,-257.7031 212.5,-257.7031 212.5,-235.7031 137.5,-235.7031"/>
<text text-anchor="start" x="157.5" y="-242.8031" font-family="Helvetica,sans-Serif" font-size="11.00" fill="#000000">開始日</text>
<polygon fill="none" stroke="#000000" points="212.5,-235.7031 212.5,-257.7031 296.5,-257.7031 296.5,-235.7031 212.5,-235.7031"/>
<text text-anchor="start" x="215.3807" y="-243.4031" font-family="Helvetica,sans-Serif" font-size="11.00" fill="#000000">timestamp[29,6]</text>
<polygon fill="none" stroke="#000000" points="137.5,-213.7031 137.5,-235.7031 212.5,-235.7031 212.5,-213.7031 137.5,-213.7031"/>
<text text-anchor="start" x="147.8792" y="-220.8031" font-family="Helvetica,sans-Serif" font-size="11.00" fill="#000000">職種コード</text>
<polygon fill="none" stroke="#000000" points="212.5,-213.7031 212.5,-235.7031 296.5,-235.7031 296.5,-213.7031 212.5,-213.7031"/>
<text text-anchor="start" x="215.5" y="-221.4031" font-family="Helvetica,sans-Serif" font-size="11.00" fill="#000000">varchar[2]</text>
<polygon fill="none" stroke="#000000" points="137.5,-191.7031 137.5,-213.7031 212.5,-213.7031 212.5,-191.7031 137.5,-191.7031"/>
<text text-anchor="start" x="135.9205" y="-198.8031" font-family="Helvetica,sans-Serif" font-size="11.00" fill="#000000">承認権限コード</text>
<polygon fill="none" stroke="#000000" points="212.5,-191.7031 212.5,-213.7031 296.5,-213.7031 296.5,-191.7031 212.5,-191.7031"/>
<text text-anchor="start" x="215.5" y="-199.4031" font-family="Helvetica,sans-Serif" font-size="11.00" fill="#000000">varchar[2]</text>
<polygon fill="none" stroke="#000000" points="137.5,-169.7031 137.5,-191.7031 212.5,-191.7031 212.5,-169.7031 137.5,-169.7031"/>
<text text-anchor="start" x="157.5" y="-176.8031" font-family="Helvetica,sans-Serif" font-size="11.00" fill="#000000">作成日時</text>
<polygon fill="none" stroke="#000000" points="212.5,-169.7031 212.5,-191.7031 296.5,-191.7031 296.5,-169.7031 212.5,-169.7031"/>
<text text-anchor="start" x="215.3807" y="-177.4031" font-family="Helvetica,sans-Serif" font-size="11.00" fill="#000000">timestamp[29,6]</text>
<polygon fill="none" stroke="#000000" points="137.5,-147.7031 137.5,-169.7031 212.5,-169.7031 212.5,-147.7031 137.5,-147.7031"/>
<text text-anchor="start" x="157.5" y="-154.8031" font-family="Helvetica,sans-Serif" font-size="11.00" fill="#000000">作成者名</text>
<polygon fill="none" stroke="#000000" points="212.5,-147.7031 212.5,-169.7031 296.5,-169.7031 296.5,-147.7031 212.5,-147.7031"/>
<text text-anchor="start" x="215.5" y="-155.4031" font-family="Helvetica,sans-Serif" font-size="11.00" fill="#000000">varchar[12]</text>
<polygon fill="none" stroke="#000000" points="137.5,-125.7031 137.5,-147.7031 212.5,-147.7031 212.5,-125.7031 137.5,-125.7031"/>
<text text-anchor="start" x="157.5" y="-132.8031" font-family="Helvetica,sans-Serif" font-size="11.00" fill="#000000">更新日時</text>
<polygon fill="none" stroke="#000000" points="212.5,-125.7031 212.5,-147.7031 296.5,-147.7031 296.5,-125.7031 212.5,-125.7031"/>
<text text-anchor="start" x="215.3807" y="-133.4031" font-family="Helvetica,sans-Serif" font-size="11.00" fill="#000000">timestamp[29,6]</text>
<polygon fill="none" stroke="#000000" points="137.5,-103.7031 137.5,-125.7031 212.5,-125.7031 212.5,-103.7031 137.5,-103.7031"/>
<text text-anchor="start" x="157.5" y="-110.8031" font-family="Helvetica,sans-Serif" font-size="11.00" fill="#000000">更新者名</text>
<polygon fill="none" stroke="#000000" points="212.5,-103.7031 212.5,-125.7031 296.5,-125.7031 296.5,-103.7031 212.5,-103.7031"/>
<text text-anchor="start" x="215.5" y="-111.4031" font-family="Helvetica,sans-Serif" font-size="11.00" fill="#000000">varchar[12]</text>
<polygon fill="#ffffff" stroke="transparent" points="137.5,-84.7031 137.5,-103.7031 296.5,-103.7031 296.5,-84.7031 137.5,-84.7031"/>
<polygon fill="none" stroke="#000000" points="137.5,-84.7031 137.5,-103.7031 296.5,-103.7031 296.5,-84.7031 137.5,-84.7031"/>
<polygon fill="#ffffff" stroke="transparent" points="138.5,-85.7031 138.5,-102.7031 194.5,-102.7031 194.5,-85.7031 138.5,-85.7031"/>
<text text-anchor="start" x="140.5" y="-90.8031" font-family="Helvetica,sans-Serif" font-size="11.00" fill="#000000">&lt; 1</text>
<polygon fill="#ffffff" stroke="transparent" points="194.5,-85.7031 194.5,-102.7031 240.5,-102.7031 240.5,-85.7031 194.5,-85.7031"/>
<text text-anchor="start" x="214.4431" y="-90.8031" font-family="Helvetica,sans-Serif" font-size="11.00" fill="#000000"> &#160;</text>
<polygon fill="#ffffff" stroke="transparent" points="240.5,-85.7031 240.5,-102.7031 295.5,-102.7031 295.5,-85.7031 240.5,-85.7031"/>
<text text-anchor="start" x="277.9053" y="-90.8031" font-family="Helvetica,sans-Serif" font-size="11.00" fill="#000000">1 &gt;</text>
<polygon fill="#000000" stroke="#000000" points="194.5,-85.7031 194.5,-102.7031 194.5,-102.7031 194.5,-85.7031 194.5,-85.7031"/>
<polygon fill="#000000" stroke="#000000" points="240.5,-85.7031 240.5,-102.7031 240.5,-102.7031 240.5,-85.7031 240.5,-85.7031"/>
<polygon fill="none" stroke="#000000" stroke-width="2" points="136,-83.7031 136,-435.7031 297,-435.7031 297,-83.7031 136,-83.7031"/>
</a>
</g>
</g>
<!-- 受注&#45;&gt;社員マスタ -->
<g id="edge1" class="edge">
<title>受注:w&#45;&gt;社員マスタ:e</title>
<path fill="none" stroke="#000000" d="M333.3987,-376.3636C320.6024,-383.9533 316.4996,-400.7031 296.5,-400.7031"/>
<polygon fill="#000000" stroke="#000000" points="339.7566,-374.7132 348.4046,-376.1876 343.6283,-373.7082 347.5,-372.7031 347.5,-372.7031 347.5,-372.7031 343.6283,-373.7082 346.5954,-369.2186 339.7566,-374.7132 339.7566,-374.7132"/>
<ellipse fill="none" stroke="#000000" cx="336.6593" cy="-375.5173" rx="3.2" ry="3.2"/>
</g>
<!-- 部門マスタ -->
<g id="node3" class="node">
<title>部門マスタ</title>
<g id="a_node3"><a xlink:href="../../tables/______3eb0dfec.html" xlink:title="部門マスタ" target="_top">
<polygon fill="#ffffff" stroke="transparent" points="8,-154.2031 8,-303.2031 86,-303.2031 86,-154.2031 8,-154.2031"/>
<polygon fill="#f5f5f5" stroke="transparent" points="8,-279.7031 8,-302.7031 86,-302.7031 86,-279.7031 8,-279.7031"/>
<polygon fill="none" stroke="#000000" points="8,-279.7031 8,-302.7031 86,-302.7031 86,-279.7031 8,-279.7031"/>
<text text-anchor="start" x="-3.1077" y="-288.3031" font-family="Helvetica,sans-Serif" font-weight="bold" font-size="11.00" fill="#000000">部門マスタ</text>
<text text-anchor="start" x="51.5219" y="-287.8031" font-family="Helvetica,sans-Serif" font-size="11.00" fill="#000000">[table]</text>
<polygon fill="none" stroke="#000000" points="8,-257.7031 8,-279.7031 86,-279.7031 86,-257.7031 8,-257.7031"/>
<image xlink:href="../../images/primaryKeys.png" width="11px" height="12px" preserveAspectRatio="xMinYMin meet" x="13" y="-274.703"/>
<text text-anchor="start" x="18.0257" y="-264.8031" font-family="Helvetica,sans-Serif" font-size="11.00" fill="#000000">部門コード</text>
<polygon fill="none" stroke="#000000" points="8,-235.7031 8,-257.7031 86,-257.7031 86,-235.7031 8,-235.7031"/>
<image xlink:href="../../images/primaryKeys.png" width="11px" height="12px" preserveAspectRatio="xMinYMin meet" x="13" y="-252.703"/>
<text text-anchor="start" x="34" y="-242.8031" font-family="Helvetica,sans-Serif" font-size="11.00" fill="#000000">開始日</text>
<polygon fill="#ffffff" stroke="transparent" points="8,-213.7031 8,-235.7031 86,-235.7031 86,-213.7031 8,-213.7031"/>
<polygon fill="none" stroke="#000000" points="8,-213.7031 8,-235.7031 86,-235.7031 86,-213.7031 8,-213.7031"/>
<text text-anchor="start" x="34" y="-220.8031" font-family="Helvetica,sans-Serif" font-size="11.00" fill="#000000">部門名</text>
<polygon fill="#ffffff" stroke="transparent" points="8,-191.7031 8,-213.7031 86,-213.7031 86,-191.7031 8,-191.7031"/>
<polygon fill="none" stroke="#000000" points="8,-191.7031 8,-213.7031 86,-213.7031 86,-191.7031 8,-191.7031"/>
<text text-anchor="start" x="28.3151" y="-198.8031" font-family="Helvetica,sans-Serif" font-size="11.00" fill="#000000">部門パス</text>
<polygon fill="none" stroke="#000000" points="8,-172.7031 8,-191.7031 86,-191.7031 86,-172.7031 8,-172.7031"/>
<text text-anchor="start" x="11" y="-178.8031" font-family="Helvetica,sans-Serif" font-size="11.00" fill="#000000">...</text>
<polygon fill="#ffffff" stroke="transparent" points="8,-153.7031 8,-172.7031 86,-172.7031 86,-153.7031 8,-153.7031"/>
<polygon fill="none" stroke="#000000" points="8,-153.7031 8,-172.7031 86,-172.7031 86,-153.7031 8,-153.7031"/>
<polygon fill="#ffffff" stroke="transparent" points="9,-154.7031 9,-171.7031 32,-171.7031 32,-154.7031 9,-154.7031"/>
<text text-anchor="start" x="11" y="-159.8031" font-family="Helvetica,sans-Serif" font-size="11.00" fill="#000000"> &#160;</text>
<polygon fill="#ffffff" stroke="transparent" points="32,-154.7031 32,-171.7031 54,-171.7031 54,-154.7031 32,-154.7031"/>
<text text-anchor="start" x="39.9431" y="-159.8031" font-family="Helvetica,sans-Serif" font-size="11.00" fill="#000000"> &#160;</text>
<polygon fill="#ffffff" stroke="transparent" points="54,-154.7031 54,-171.7031 85,-171.7031 85,-154.7031 54,-154.7031"/>
<text text-anchor="start" x="67.4053" y="-159.8031" font-family="Helvetica,sans-Serif" font-size="11.00" fill="#000000">5 &gt;</text>
<polygon fill="#000000" stroke="#000000" points="32,-154.7031 32,-171.7031 32,-171.7031 32,-154.7031 32,-154.7031"/>
<polygon fill="#000000" stroke="#000000" points="54,-154.7031 54,-171.7031 54,-171.7031 54,-154.7031 54,-154.7031"/>
</a>
</g>
</g>
<!-- 受注&#45;&gt;部門マスタ -->
<g id="edge2" class="edge">
<title>受注:w&#45;&gt;部門マスタ:e</title>
<path fill="none" stroke="#000000" d="M332.927,-461.0716C244.4459,-465.5296 198.136,-507.8954 127,-447.7031 64.6958,-394.9839 167.6158,-268.7031 86,-268.7031"/>
<polygon fill="#000000" stroke="#000000" points="339.5026,-460.9054 347.591,-464.3019 343.5013,-460.8042 347.5,-460.7031 347.5,-460.7031 347.5,-460.7031 343.5013,-460.8042 347.409,-457.1042 339.5026,-460.9054 339.5026,-460.9054"/>
<ellipse fill="none" stroke="#000000" cx="336.3036" cy="-460.9863" rx="3.2" ry="3.2"/>
</g>
<!-- 受注&#45;&gt;部門マスタ -->
<g id="edge3" class="edge">
<title>受注:w&#45;&gt;部門マスタ:e</title>
<path fill="none" stroke="#000000" d="M333.5163,-434.7489C278.3973,-398.468 362.9991,-123.6044 306,-72.7031 246.6613,-19.7125 189.3725,-23.3194 127,-72.7031 64.7093,-122.022 165.4512,-246.7031 86,-246.7031"/>
<polygon fill="#000000" stroke="#000000" points="339.8019,-436.5262 346.5204,-442.1673 343.6509,-437.6147 347.5,-438.7031 347.5,-438.7031 347.5,-438.7031 343.6509,-437.6147 348.4796,-435.2389 339.8019,-436.5262 339.8019,-436.5262"/>
<ellipse fill="none" stroke="#000000" cx="336.7226" cy="-435.6555" rx="3.2" ry="3.2"/>
</g>
<!-- 社員マスタ&#45;&gt;部門マスタ -->
<g id="edge4" class="edge">
<title>社員マスタ:w&#45;&gt;部門マスタ:e</title>
<path fill="none" stroke="#000000" d="M123.0156,-268.7031C110.6771,-268.7031 103.1667,-268.7031 86,-268.7031"/>
<polygon fill="#000000" stroke="#000000" points="129.5,-268.7032 137.5,-272.3031 133.5,-268.7031 137.5,-268.7031 137.5,-268.7031 137.5,-268.7031 133.5,-268.7031 137.5,-265.1031 129.5,-268.7032 129.5,-268.7032"/>
<ellipse fill="none" stroke="#000000" cx="126.3" cy="-268.7032" rx="3.2" ry="3.2"/>
</g>
</g>
</svg>
