<?xml version="1.0" encoding="UTF-8" standalone="no"?>
<!DOCTYPE svg PUBLIC "-//W3C//DTD SVG 1.1//EN"
 "http://www.w3.org/Graphics/SVG/1.1/DTD/svg11.dtd">
<!-- Generated by graphviz version 2.40.1 (20161225.0304)
 -->
<!-- Title: twoDegreesRelationshipsDiagram Pages: 1 -->
<svg width="863pt" height="636pt"
 viewBox="0.00 0.00 863.00 635.70" xmlns="http://www.w3.org/2000/svg" xmlns:xlink="http://www.w3.org/1999/xlink">
<g id="graph0" class="graph" transform="scale(1 1) rotate(0) translate(4 631.7)">
<title>twoDegreesRelationshipsDiagram</title>
<polygon fill="#ffffff" stroke="transparent" points="-4,4 -4,-631.7 859,-631.7 859,4 -4,4"/>
<text text-anchor="middle" x="72.4936" y="-7.3" font-family="Helvetica,sans-Serif" font-size="11.00" fill="#000000">Generated by SchemaSpy</text>
<!-- 与信残高 -->
<g id="node1" class="node">
<title>与信残高</title>
<g id="a_node1"><a xlink:href="../../tables/_____24b4cb80.html" xlink:title="与信残高" target="_top">
<polygon fill="#ffffff" stroke="transparent" points="424.5,-540.7 424.5,-623.7 494.5,-623.7 494.5,-540.7 424.5,-540.7"/>
<polygon fill="#f5f5f5" stroke="transparent" points="424.5,-600.2 424.5,-623.2 494.5,-623.2 494.5,-600.2 424.5,-600.2"/>
<polygon fill="none" stroke="#000000" points="424.5,-600.2 424.5,-623.2 494.5,-623.2 494.5,-600.2 424.5,-600.2"/>
<text text-anchor="start" x="417.3321" y="-608.8" font-family="Helvetica,sans-Serif" font-weight="bold" font-size="11.00" fill="#000000">与信残高</text>
<text text-anchor="start" x="460.0219" y="-608.3" font-family="Helvetica,sans-Serif" font-size="11.00" fill="#000000">[table]</text>
<polygon fill="none" stroke="#000000" points="424.5,-578.2 424.5,-600.2 494.5,-600.2 494.5,-578.2 424.5,-578.2"/>
<image xlink:href="../../images/primaryKeys.png" width="11px" height="12px" preserveAspectRatio="xMinYMin meet" x="429.5" y="-595.2"/>
<text text-anchor="start" x="428.9978" y="-585.3" font-family="Helvetica,sans-Serif" font-size="11.00" fill="#000000">取引先コード</text>
<polygon fill="none" stroke="#000000" points="424.5,-559.2 424.5,-578.2 494.5,-578.2 494.5,-559.2 424.5,-559.2"/>
<text text-anchor="start" x="427.5" y="-565.3" font-family="Helvetica,sans-Serif" font-size="11.00" fill="#000000">...</text>
<polygon fill="#ffffff" stroke="transparent" points="424.5,-540.2 424.5,-559.2 494.5,-559.2 494.5,-540.2 424.5,-540.2"/>
<polygon fill="none" stroke="#000000" points="424.5,-540.2 424.5,-559.2 494.5,-559.2 494.5,-540.2 424.5,-540.2"/>
<polygon fill="#ffffff" stroke="transparent" points="425.5,-541.2 425.5,-558.2 454.5,-558.2 454.5,-541.2 425.5,-541.2"/>
<text text-anchor="start" x="427.5" y="-546.3" font-family="Helvetica,sans-Serif" font-size="11.00" fill="#000000">&lt; 1</text>
<polygon fill="#ffffff" stroke="transparent" points="454.5,-541.2 454.5,-558.2 474.5,-558.2 474.5,-541.2 454.5,-541.2"/>
<text text-anchor="start" x="461.4431" y="-546.3" font-family="Helvetica,sans-Serif" font-size="11.00" fill="#000000"> &#160;</text>
<polygon fill="#ffffff" stroke="transparent" points="474.5,-541.2 474.5,-558.2 493.5,-558.2 493.5,-541.2 474.5,-541.2"/>
<text text-anchor="start" x="485.3862" y="-546.3" font-family="Helvetica,sans-Serif" font-size="11.00" fill="#000000"> &#160;</text>
<polygon fill="#000000" stroke="#000000" points="454.5,-541.2 454.5,-558.2 454.5,-558.2 454.5,-541.2 454.5,-541.2"/>
<polygon fill="#000000" stroke="#000000" points="474.5,-541.2 474.5,-558.2 474.5,-558.2 474.5,-541.2 474.5,-541.2"/>
</a>
</g>
</g>
<!-- 取引先マスタ -->
<g id="node2" class="node">
<title>取引先マスタ</title>
<g id="a_node2"><a xlink:href="../../tables/_______70f9c0bb.html" xlink:title="取引先マスタ" target="_top">
<polygon fill="#ffffff" stroke="transparent" points="174,-38.2 174,-458.2 361,-458.2 361,-38.2 174,-38.2"/>
<polygon fill="#f5f5f5" stroke="transparent" points="176.5,-433.2 176.5,-456.2 359.5,-456.2 359.5,-433.2 176.5,-433.2"/>
<polygon fill="none" stroke="#000000" points="176.5,-433.2 176.5,-456.2 359.5,-456.2 359.5,-433.2 176.5,-433.2"/>
<text text-anchor="start" x="167.3644" y="-441.8" font-family="Helvetica,sans-Serif" font-weight="bold" font-size="11.00" fill="#000000">取引先マスタ</text>
<text text-anchor="start" x="324.5437" y="-441.3" font-family="Helvetica,sans-Serif" font-size="11.00" fill="#000000">[table]</text>
<polygon fill="none" stroke="#000000" points="176.5,-411.2 176.5,-433.2 275.5,-433.2 275.5,-411.2 176.5,-411.2"/>
<image xlink:href="../../images/primaryKeys.png" width="11px" height="12px" preserveAspectRatio="xMinYMin meet" x="181.5" y="-428.2"/>
<text text-anchor="start" x="194.9978" y="-418.3" font-family="Helvetica,sans-Serif" font-size="11.00" fill="#000000">取引先コード</text>
<polygon fill="none" stroke="#000000" points="275.5,-411.2 275.5,-433.2 359.5,-433.2 359.5,-411.2 275.5,-411.2"/>
<text text-anchor="start" x="278.5" y="-418.9" font-family="Helvetica,sans-Serif" font-size="11.00" fill="#000000">varchar[8]</text>
<polygon fill="#ffffff" stroke="transparent" points="176.5,-389.2 176.5,-411.2 275.5,-411.2 275.5,-389.2 176.5,-389.2"/>
<polygon fill="none" stroke="#000000" points="176.5,-389.2 176.5,-411.2 275.5,-411.2 275.5,-389.2 176.5,-389.2"/>
<text text-anchor="start" x="196.5" y="-396.3" font-family="Helvetica,sans-Serif" font-size="11.00" fill="#000000">取引先名</text>
<polygon fill="none" stroke="#000000" points="275.5,-389.2 275.5,-411.2 359.5,-411.2 359.5,-389.2 275.5,-389.2"/>
<text text-anchor="start" x="278.5" y="-396.9" font-family="Helvetica,sans-Serif" font-size="11.00" fill="#000000">varchar[40]</text>
<polygon fill="none" stroke="#000000" points="176.5,-367.2 176.5,-389.2 275.5,-389.2 275.5,-367.2 176.5,-367.2"/>
<text text-anchor="start" x="196.5" y="-374.3" font-family="Helvetica,sans-Serif" font-size="11.00" fill="#000000">取引先名カナ</text>
<polygon fill="none" stroke="#000000" points="275.5,-367.2 275.5,-389.2 359.5,-389.2 359.5,-367.2 275.5,-367.2"/>
<text text-anchor="start" x="278.5" y="-374.9" font-family="Helvetica,sans-Serif" font-size="11.00" fill="#000000">varchar[40]</text>
<polygon fill="none" stroke="#000000" points="176.5,-345.2 176.5,-367.2 275.5,-367.2 275.5,-345.2 176.5,-345.2"/>
<text text-anchor="start" x="196.5" y="-352.3" font-family="Helvetica,sans-Serif" font-size="11.00" fill="#000000">仕入先区分</text>
<polygon fill="none" stroke="#000000" points="275.5,-345.2 275.5,-367.2 359.5,-367.2 359.5,-345.2 275.5,-345.2"/>
<text text-anchor="start" x="278.5" y="-352.9" font-family="Helvetica,sans-Serif" font-size="11.00" fill="#000000">int4[10]</text>
<polygon fill="none" stroke="#000000" points="176.5,-323.2 176.5,-345.2 275.5,-345.2 275.5,-323.2 176.5,-323.2"/>
<text text-anchor="start" x="196.5" y="-330.3" font-family="Helvetica,sans-Serif" font-size="11.00" fill="#000000">郵便番号</text>
<polygon fill="none" stroke="#000000" points="275.5,-323.2 275.5,-345.2 359.5,-345.2 359.5,-323.2 275.5,-323.2"/>
<text text-anchor="start" x="278.5" y="-330.9" font-family="Helvetica,sans-Serif" font-size="11.00" fill="#000000">bpchar[8]</text>
<polygon fill="none" stroke="#000000" points="176.5,-301.2 176.5,-323.2 275.5,-323.2 275.5,-301.2 176.5,-301.2"/>
<text text-anchor="start" x="196.5" y="-308.3" font-family="Helvetica,sans-Serif" font-size="11.00" fill="#000000">都道府県</text>
<polygon fill="none" stroke="#000000" points="275.5,-301.2 275.5,-323.2 359.5,-323.2 359.5,-301.2 275.5,-301.2"/>
<text text-anchor="start" x="278.5" y="-308.9" font-family="Helvetica,sans-Serif" font-size="11.00" fill="#000000">varchar[4]</text>
<polygon fill="none" stroke="#000000" points="176.5,-279.2 176.5,-301.2 275.5,-301.2 275.5,-279.2 176.5,-279.2"/>
<text text-anchor="start" x="196.5" y="-286.3" font-family="Helvetica,sans-Serif" font-size="11.00" fill="#000000">住所１</text>
<polygon fill="none" stroke="#000000" points="275.5,-279.2 275.5,-301.2 359.5,-301.2 359.5,-279.2 275.5,-279.2"/>
<text text-anchor="start" x="278.5" y="-286.9" font-family="Helvetica,sans-Serif" font-size="11.00" fill="#000000">varchar[40]</text>
<polygon fill="none" stroke="#000000" points="176.5,-257.2 176.5,-279.2 275.5,-279.2 275.5,-257.2 176.5,-257.2"/>
<text text-anchor="start" x="196.5" y="-264.3" font-family="Helvetica,sans-Serif" font-size="11.00" fill="#000000">住所２</text>
<polygon fill="none" stroke="#000000" points="275.5,-257.2 275.5,-279.2 359.5,-279.2 359.5,-257.2 275.5,-257.2"/>
<text text-anchor="start" x="278.5" y="-264.9" font-family="Helvetica,sans-Serif" font-size="11.00" fill="#000000">varchar[40]</text>
<polygon fill="none" stroke="#000000" points="176.5,-235.2 176.5,-257.2 275.5,-257.2 275.5,-235.2 176.5,-235.2"/>
<text text-anchor="start" x="193.031" y="-242.3" font-family="Helvetica,sans-Serif" font-size="11.00" fill="#000000">取引禁止フラグ</text>
<polygon fill="none" stroke="#000000" points="275.5,-235.2 275.5,-257.2 359.5,-257.2 359.5,-235.2 275.5,-235.2"/>
<text text-anchor="start" x="278.5" y="-242.9" font-family="Helvetica,sans-Serif" font-size="11.00" fill="#000000">int4[10]</text>
<polygon fill="none" stroke="#000000" points="176.5,-213.2 176.5,-235.2 275.5,-235.2 275.5,-213.2 176.5,-213.2"/>
<text text-anchor="start" x="196.5" y="-220.3" font-family="Helvetica,sans-Serif" font-size="11.00" fill="#000000">雑区分</text>
<polygon fill="none" stroke="#000000" points="275.5,-213.2 275.5,-235.2 359.5,-235.2 359.5,-213.2 275.5,-213.2"/>
<text text-anchor="start" x="278.5" y="-220.9" font-family="Helvetica,sans-Serif" font-size="11.00" fill="#000000">int4[10]</text>
<polygon fill="#ffffff" stroke="transparent" points="176.5,-191.2 176.5,-213.2 275.5,-213.2 275.5,-191.2 176.5,-191.2"/>
<polygon fill="none" stroke="#000000" points="176.5,-191.2 176.5,-213.2 275.5,-213.2 275.5,-191.2 176.5,-191.2"/>
<image xlink:href="../../images/foreignKeys.png" width="11px" height="12px" preserveAspectRatio="xMinYMin meet" x="181.5" y="-208.2"/>
<text text-anchor="start" x="169.1318" y="-198.3" font-family="Helvetica,sans-Serif" font-size="11.00" fill="#000000">取引先グループコード</text>
<polygon fill="none" stroke="#000000" points="275.5,-191.2 275.5,-213.2 359.5,-213.2 359.5,-191.2 275.5,-191.2"/>
<text text-anchor="start" x="278.5" y="-198.9" font-family="Helvetica,sans-Serif" font-size="11.00" fill="#000000">varchar[4]</text>
<polygon fill="none" stroke="#000000" points="176.5,-169.2 176.5,-191.2 275.5,-191.2 275.5,-169.2 176.5,-169.2"/>
<text text-anchor="start" x="196.5" y="-176.3" font-family="Helvetica,sans-Serif" font-size="11.00" fill="#000000">与信限度額</text>
<polygon fill="none" stroke="#000000" points="275.5,-169.2 275.5,-191.2 359.5,-191.2 359.5,-169.2 275.5,-169.2"/>
<text text-anchor="start" x="278.5" y="-176.9" font-family="Helvetica,sans-Serif" font-size="11.00" fill="#000000">int4[10]</text>
<polygon fill="none" stroke="#000000" points="176.5,-147.2 176.5,-169.2 275.5,-169.2 275.5,-147.2 176.5,-147.2"/>
<text text-anchor="start" x="196.5" y="-154.3" font-family="Helvetica,sans-Serif" font-size="11.00" fill="#000000">与信一時増加枠</text>
<polygon fill="none" stroke="#000000" points="275.5,-147.2 275.5,-169.2 359.5,-169.2 359.5,-147.2 275.5,-147.2"/>
<text text-anchor="start" x="278.5" y="-154.9" font-family="Helvetica,sans-Serif" font-size="11.00" fill="#000000">int4[10]</text>
<polygon fill="none" stroke="#000000" points="176.5,-125.2 176.5,-147.2 275.5,-147.2 275.5,-125.2 176.5,-125.2"/>
<text text-anchor="start" x="196.5" y="-132.3" font-family="Helvetica,sans-Serif" font-size="11.00" fill="#000000">作成日時</text>
<polygon fill="none" stroke="#000000" points="275.5,-125.2 275.5,-147.2 359.5,-147.2 359.5,-125.2 275.5,-125.2"/>
<text text-anchor="start" x="278.3807" y="-132.9" font-family="Helvetica,sans-Serif" font-size="11.00" fill="#000000">timestamp[29,6]</text>
<polygon fill="none" stroke="#000000" points="176.5,-103.2 176.5,-125.2 275.5,-125.2 275.5,-103.2 176.5,-103.2"/>
<text text-anchor="start" x="196.5" y="-110.3" font-family="Helvetica,sans-Serif" font-size="11.00" fill="#000000">作成者名</text>
<polygon fill="none" stroke="#000000" points="275.5,-103.2 275.5,-125.2 359.5,-125.2 359.5,-103.2 275.5,-103.2"/>
<text text-anchor="start" x="278.5" y="-110.9" font-family="Helvetica,sans-Serif" font-size="11.00" fill="#000000">varchar[12]</text>
<polygon fill="none" stroke="#000000" points="176.5,-81.2 176.5,-103.2 275.5,-103.2 275.5,-81.2 176.5,-81.2"/>
<text text-anchor="start" x="196.5" y="-88.3" font-family="Helvetica,sans-Serif" font-size="11.00" fill="#000000">更新日時</text>
<polygon fill="none" stroke="#000000" points="275.5,-81.2 275.5,-103.2 359.5,-103.2 359.5,-81.2 275.5,-81.2"/>
<text text-anchor="start" x="278.3807" y="-88.9" font-family="Helvetica,sans-Serif" font-size="11.00" fill="#000000">timestamp[29,6]</text>
<polygon fill="none" stroke="#000000" points="176.5,-59.2 176.5,-81.2 275.5,-81.2 275.5,-59.2 176.5,-59.2"/>
<text text-anchor="start" x="196.5" y="-66.3" font-family="Helvetica,sans-Serif" font-size="11.00" fill="#000000">更新者名</text>
<polygon fill="none" stroke="#000000" points="275.5,-59.2 275.5,-81.2 359.5,-81.2 359.5,-59.2 275.5,-59.2"/>
<text text-anchor="start" x="278.5" y="-66.9" font-family="Helvetica,sans-Serif" font-size="11.00" fill="#000000">varchar[12]</text>
<polygon fill="#ffffff" stroke="transparent" points="176.5,-40.2 176.5,-59.2 359.5,-59.2 359.5,-40.2 176.5,-40.2"/>
<polygon fill="none" stroke="#000000" points="176.5,-40.2 176.5,-59.2 359.5,-59.2 359.5,-40.2 176.5,-40.2"/>
<polygon fill="#ffffff" stroke="transparent" points="177.5,-41.2 177.5,-58.2 241.5,-58.2 241.5,-41.2 177.5,-41.2"/>
<text text-anchor="start" x="179.5" y="-46.3" font-family="Helvetica,sans-Serif" font-size="11.00" fill="#000000">&lt; 1</text>
<polygon fill="#ffffff" stroke="transparent" points="241.5,-41.2 241.5,-58.2 295.5,-58.2 295.5,-41.2 241.5,-41.2"/>
<text text-anchor="start" x="265.4431" y="-46.3" font-family="Helvetica,sans-Serif" font-size="11.00" fill="#000000"> &#160;</text>
<polygon fill="#ffffff" stroke="transparent" points="295.5,-41.2 295.5,-58.2 358.5,-58.2 358.5,-41.2 295.5,-41.2"/>
<text text-anchor="start" x="340.9053" y="-46.3" font-family="Helvetica,sans-Serif" font-size="11.00" fill="#000000">4 &gt;</text>
<polygon fill="#000000" stroke="#000000" points="241.5,-41.2 241.5,-58.2 241.5,-58.2 241.5,-41.2 241.5,-41.2"/>
<polygon fill="#000000" stroke="#000000" points="295.5,-41.2 295.5,-58.2 295.5,-58.2 295.5,-41.2 295.5,-41.2"/>
<polygon fill="none" stroke="#000000" stroke-width="2" points="175,-39.2 175,-457.2 360,-457.2 360,-39.2 175,-39.2"/>
</a>
</g>
</g>
<!-- 与信残高&#45;&gt;取引先マスタ -->
<g id="edge1" class="edge">
<title>与信残高:w&#45;&gt;取引先マスタ:e</title>
<path fill="none" stroke="#000000" d="M414.0367,-588.0444C353.6474,-573.2896 435.2572,-422.2 359.5,-422.2"/>
<polygon fill="#000000" stroke="#000000" points="424.144,-585.1363 423.2657,-593.088 421.6754,-592.9123 422.5536,-584.9607 424.144,-585.1363"/>
<polyline fill="none" stroke="#000000" points="424.5,-589.2 420.5242,-588.7609 "/>
<ellipse fill="none" stroke="#000000" cx="417.3435" cy="-588.4096" rx="3.2" ry="3.2"/>
</g>
<!-- 取引先グループマスタ -->
<g id="node4" class="node">
<title>取引先グループマスタ</title>
<g id="a_node4"><a xlink:href="../../tables/___________d6a542a5.html" xlink:title="取引先グループマスタ" target="_top">
<polygon fill="#ffffff" stroke="transparent" points="8,-153.7 8,-236.7 125,-236.7 125,-153.7 8,-153.7"/>
<polygon fill="#f5f5f5" stroke="transparent" points="8.5,-213.2 8.5,-236.2 125.5,-236.2 125.5,-213.2 8.5,-213.2"/>
<polygon fill="none" stroke="#000000" points="8.5,-213.2 8.5,-236.2 125.5,-236.2 125.5,-213.2 8.5,-213.2"/>
<text text-anchor="start" x="-10.5016" y="-221.8" font-family="Helvetica,sans-Serif" font-weight="bold" font-size="11.00" fill="#000000">取引先グループマスタ</text>
<text text-anchor="start" x="91.0219" y="-221.3" font-family="Helvetica,sans-Serif" font-size="11.00" fill="#000000">[table]</text>
<polygon fill="none" stroke="#000000" points="8.5,-191.2 8.5,-213.2 125.5,-213.2 125.5,-191.2 8.5,-191.2"/>
<image xlink:href="../../images/primaryKeys.png" width="11px" height="12px" preserveAspectRatio="xMinYMin meet" x="13.5" y="-208.2"/>
<text text-anchor="start" x="10.1319" y="-198.3" font-family="Helvetica,sans-Serif" font-size="11.00" fill="#000000">取引先グループコード</text>
<polygon fill="none" stroke="#000000" points="8.5,-172.2 8.5,-191.2 125.5,-191.2 125.5,-172.2 8.5,-172.2"/>
<text text-anchor="start" x="11.5" y="-178.3" font-family="Helvetica,sans-Serif" font-size="11.00" fill="#000000">...</text>
<polygon fill="#ffffff" stroke="transparent" points="8.5,-153.2 8.5,-172.2 125.5,-172.2 125.5,-153.2 8.5,-153.2"/>
<polygon fill="none" stroke="#000000" points="8.5,-153.2 8.5,-172.2 125.5,-172.2 125.5,-153.2 8.5,-153.2"/>
<polygon fill="#ffffff" stroke="transparent" points="9.5,-154.2 9.5,-171.2 45.5,-171.2 45.5,-154.2 9.5,-154.2"/>
<text text-anchor="start" x="11.5" y="-159.3" font-family="Helvetica,sans-Serif" font-size="11.00" fill="#000000"> &#160;</text>
<polygon fill="#ffffff" stroke="transparent" points="45.5,-154.2 45.5,-171.2 80.5,-171.2 80.5,-154.2 45.5,-154.2"/>
<text text-anchor="start" x="59.9431" y="-159.3" font-family="Helvetica,sans-Serif" font-size="11.00" fill="#000000"> &#160;</text>
<polygon fill="#ffffff" stroke="transparent" points="80.5,-154.2 80.5,-171.2 124.5,-171.2 124.5,-154.2 80.5,-154.2"/>
<text text-anchor="start" x="106.9053" y="-159.3" font-family="Helvetica,sans-Serif" font-size="11.00" fill="#000000">1 &gt;</text>
<polygon fill="#000000" stroke="#000000" points="45.5,-154.2 45.5,-171.2 45.5,-171.2 45.5,-154.2 45.5,-154.2"/>
<polygon fill="#000000" stroke="#000000" points="80.5,-154.2 80.5,-171.2 80.5,-171.2 80.5,-154.2 80.5,-154.2"/>
</a>
</g>
</g>
<!-- 取引先マスタ&#45;&gt;取引先グループマスタ -->
<g id="edge3" class="edge">
<title>取引先マスタ:w&#45;&gt;取引先グループマスタ:e</title>
<path fill="none" stroke="#000000" d="M161.776,-202.2C149.7815,-202.2 142.3229,-202.2 125.5,-202.2"/>
<polygon fill="#000000" stroke="#000000" points="168.5,-202.2001 176.5,-205.8 172.5,-202.2 176.5,-202.2 176.5,-202.2 176.5,-202.2 172.5,-202.2 176.5,-198.6 168.5,-202.2001 168.5,-202.2001"/>
<ellipse fill="none" stroke="#000000" cx="165.3" cy="-202.2001" rx="3.2" ry="3.2"/>
</g>
<!-- 仕入先マスタ -->
<g id="node3" class="node">
<title>仕入先マスタ</title>
<g id="a_node3"><a xlink:href="../../tables/_______2628176c.html" xlink:title="仕入先マスタ" target="_top">
<polygon fill="#ffffff" stroke="transparent" points="410,-414.7 410,-519.7 509,-519.7 509,-414.7 410,-414.7"/>
<polygon fill="#f5f5f5" stroke="transparent" points="410.5,-496.2 410.5,-519.2 509.5,-519.2 509.5,-496.2 410.5,-496.2"/>
<polygon fill="none" stroke="#000000" points="410.5,-496.2 410.5,-519.2 509.5,-519.2 509.5,-496.2 410.5,-496.2"/>
<text text-anchor="start" x="402.2779" y="-504.8" font-family="Helvetica,sans-Serif" font-weight="bold" font-size="11.00" fill="#000000">仕入先マスタ</text>
<text text-anchor="start" x="474.5437" y="-504.3" font-family="Helvetica,sans-Serif" font-size="11.00" fill="#000000">[table]</text>
<polygon fill="none" stroke="#000000" points="410.5,-474.2 410.5,-496.2 509.5,-496.2 509.5,-474.2 410.5,-474.2"/>
<image xlink:href="../../images/primaryKeys.png" width="11px" height="12px" preserveAspectRatio="xMinYMin meet" x="415.5" y="-491.2"/>
<text text-anchor="start" x="429.9114" y="-481.3" font-family="Helvetica,sans-Serif" font-size="11.00" fill="#000000">仕入先コード</text>
<polygon fill="none" stroke="#000000" points="410.5,-452.2 410.5,-474.2 509.5,-474.2 509.5,-452.2 410.5,-452.2"/>
<image xlink:href="../../images/primaryKeys.png" width="11px" height="12px" preserveAspectRatio="xMinYMin meet" x="415.5" y="-469.2"/>
<text text-anchor="start" x="430.5" y="-459.3" font-family="Helvetica,sans-Serif" font-size="11.00" fill="#000000">仕入先枝番</text>
<polygon fill="none" stroke="#000000" points="410.5,-433.2 410.5,-452.2 509.5,-452.2 509.5,-433.2 410.5,-433.2"/>
<text text-anchor="start" x="413.5" y="-439.3" font-family="Helvetica,sans-Serif" font-size="11.00" fill="#000000">...</text>
<polygon fill="#ffffff" stroke="transparent" points="410.5,-414.2 410.5,-433.2 509.5,-433.2 509.5,-414.2 410.5,-414.2"/>
<polygon fill="none" stroke="#000000" points="410.5,-414.2 410.5,-433.2 509.5,-433.2 509.5,-414.2 410.5,-414.2"/>
<polygon fill="#ffffff" stroke="transparent" points="411.5,-415.2 411.5,-432.2 450.5,-432.2 450.5,-415.2 411.5,-415.2"/>
<text text-anchor="start" x="413.5" y="-420.3" font-family="Helvetica,sans-Serif" font-size="11.00" fill="#000000">&lt; 1</text>
<polygon fill="#ffffff" stroke="transparent" points="450.5,-415.2 450.5,-432.2 479.5,-432.2 479.5,-415.2 450.5,-415.2"/>
<text text-anchor="start" x="461.9431" y="-420.3" font-family="Helvetica,sans-Serif" font-size="11.00" fill="#000000"> &#160;</text>
<polygon fill="#ffffff" stroke="transparent" points="479.5,-415.2 479.5,-432.2 508.5,-432.2 508.5,-415.2 479.5,-415.2"/>
<text text-anchor="start" x="500.3862" y="-420.3" font-family="Helvetica,sans-Serif" font-size="11.00" fill="#000000"> &#160;</text>
<polygon fill="#000000" stroke="#000000" points="450.5,-415.2 450.5,-432.2 450.5,-432.2 450.5,-415.2 450.5,-415.2"/>
<polygon fill="#000000" stroke="#000000" points="479.5,-415.2 479.5,-432.2 479.5,-432.2 479.5,-415.2 479.5,-415.2"/>
</a>
</g>
</g>
<!-- 仕入先マスタ&#45;&gt;取引先マスタ -->
<g id="edge2" class="edge">
<title>仕入先マスタ:w&#45;&gt;取引先マスタ:e</title>
<path fill="none" stroke="#000000" d="M396.4033,-480.2565C380.025,-465.4048 389.3329,-422.2 359.5,-422.2"/>
<polygon fill="#000000" stroke="#000000" points="402.9507,-482.5526 409.3087,-488.5972 406.7254,-483.8763 410.5,-485.2 410.5,-485.2 410.5,-485.2 406.7254,-483.8763 411.6913,-481.8028 402.9507,-482.5526 402.9507,-482.5526"/>
<ellipse fill="none" stroke="#000000" cx="399.931" cy="-481.4936" rx="3.2" ry="3.2"/>
</g>
<!-- 受注 -->
<g id="node5" class="node">
<title>受注</title>
<g id="a_node5"><a xlink:href="../../tables/___a93f1.html" xlink:title="受注" target="_top">
<polygon fill="#ffffff" stroke="transparent" points="558,-260.7 558,-321.7 612,-321.7 612,-260.7 558,-260.7"/>
<polygon fill="#f5f5f5" stroke="transparent" points="558,-298.2 558,-321.2 612,-321.2 612,-298.2 558,-298.2"/>
<polygon fill="none" stroke="#000000" points="558,-298.2 558,-321.2 612,-321.2 612,-298.2 558,-298.2"/>
<text text-anchor="start" x="556.2713" y="-306.8" font-family="Helvetica,sans-Serif" font-weight="bold" font-size="11.00" fill="#000000">受注</text>
<text text-anchor="start" x="577.5219" y="-306.3" font-family="Helvetica,sans-Serif" font-size="11.00" fill="#000000">[table]</text>
<polygon fill="none" stroke="#000000" points="558,-279.2 558,-298.2 612,-298.2 612,-279.2 558,-279.2"/>
<text text-anchor="start" x="561" y="-285.3" font-family="Helvetica,sans-Serif" font-size="11.00" fill="#000000">...</text>
<polygon fill="#ffffff" stroke="transparent" points="558,-260.2 558,-279.2 612,-279.2 612,-260.2 558,-260.2"/>
<polygon fill="none" stroke="#000000" points="558,-260.2 558,-279.2 612,-279.2 612,-260.2 558,-260.2"/>
<polygon fill="#ffffff" stroke="transparent" points="559,-261.2 559,-278.2 580,-278.2 580,-261.2 559,-261.2"/>
<text text-anchor="start" x="561" y="-266.3" font-family="Helvetica,sans-Serif" font-size="11.00" fill="#000000">&lt; 5</text>
<polygon fill="#ffffff" stroke="transparent" points="580,-261.2 580,-278.2 591,-278.2 591,-261.2 580,-261.2"/>
<text text-anchor="start" x="582.4431" y="-266.3" font-family="Helvetica,sans-Serif" font-size="11.00" fill="#000000"> &#160;</text>
<polygon fill="#ffffff" stroke="transparent" points="591,-261.2 591,-278.2 611,-278.2 611,-261.2 591,-261.2"/>
<text text-anchor="start" x="593.4053" y="-266.3" font-family="Helvetica,sans-Serif" font-size="11.00" fill="#000000">2 &gt;</text>
<polygon fill="#000000" stroke="#000000" points="580,-261.2 580,-278.2 580,-278.2 580,-261.2 580,-261.2"/>
<polygon fill="#000000" stroke="#000000" points="591,-261.2 591,-278.2 591,-278.2 591,-261.2 591,-261.2"/>
</a>
</g>
</g>
<!-- 部門マスタ -->
<g id="node6" class="node">
<title>部門マスタ</title>
<g id="a_node6"><a xlink:href="../../tables/______3eb0dfec.html" xlink:title="部門マスタ" target="_top">
<polygon fill="#ffffff" stroke="transparent" points="420.5,-206.7 420.5,-267.7 498.5,-267.7 498.5,-206.7 420.5,-206.7"/>
<polygon fill="#f5f5f5" stroke="transparent" points="420.5,-244.2 420.5,-267.2 498.5,-267.2 498.5,-244.2 420.5,-244.2"/>
<polygon fill="none" stroke="#000000" points="420.5,-244.2 420.5,-267.2 498.5,-267.2 498.5,-244.2 420.5,-244.2"/>
<text text-anchor="start" x="409.3923" y="-252.8" font-family="Helvetica,sans-Serif" font-weight="bold" font-size="11.00" fill="#000000">部門マスタ</text>
<text text-anchor="start" x="464.0219" y="-252.3" font-family="Helvetica,sans-Serif" font-size="11.00" fill="#000000">[table]</text>
<polygon fill="none" stroke="#000000" points="420.5,-225.2 420.5,-244.2 498.5,-244.2 498.5,-225.2 420.5,-225.2"/>
<text text-anchor="start" x="423.5" y="-231.3" font-family="Helvetica,sans-Serif" font-size="11.00" fill="#000000">...</text>
<polygon fill="#ffffff" stroke="transparent" points="420.5,-206.2 420.5,-225.2 498.5,-225.2 498.5,-206.2 420.5,-206.2"/>
<polygon fill="none" stroke="#000000" points="420.5,-206.2 420.5,-225.2 498.5,-225.2 498.5,-206.2 420.5,-206.2"/>
<polygon fill="#ffffff" stroke="transparent" points="421.5,-207.2 421.5,-224.2 444.5,-224.2 444.5,-207.2 421.5,-207.2"/>
<text text-anchor="start" x="423.5" y="-212.3" font-family="Helvetica,sans-Serif" font-size="11.00" fill="#000000"> &#160;</text>
<polygon fill="#ffffff" stroke="transparent" points="444.5,-207.2 444.5,-224.2 466.5,-224.2 466.5,-207.2 444.5,-207.2"/>
<text text-anchor="start" x="452.4431" y="-212.3" font-family="Helvetica,sans-Serif" font-size="11.00" fill="#000000"> &#160;</text>
<polygon fill="#ffffff" stroke="transparent" points="466.5,-207.2 466.5,-224.2 497.5,-224.2 497.5,-207.2 466.5,-207.2"/>
<text text-anchor="start" x="479.9053" y="-212.3" font-family="Helvetica,sans-Serif" font-size="11.00" fill="#000000">5 &gt;</text>
<polygon fill="#000000" stroke="#000000" points="444.5,-207.2 444.5,-224.2 444.5,-224.2 444.5,-207.2 444.5,-207.2"/>
<polygon fill="#000000" stroke="#000000" points="466.5,-207.2 466.5,-224.2 466.5,-224.2 466.5,-207.2 466.5,-207.2"/>
</a>
</g>
</g>
<!-- 受注&#45;&gt;部門マスタ -->
<g id="edge4" class="edge">
<title>受注:w&#45;&gt;部門マスタ:e</title>
<path fill="none" stroke="#000000" d="M544.6585,-282.4976C524.8158,-267.1394 528.771,-229.1141 498.5,-234.2"/>
<polygon fill="#000000" stroke="#000000" points="550.6438,-285.0558 556.5851,-291.5103 554.3219,-286.6279 558,-288.2 558,-288.2 558,-288.2 554.3219,-286.6279 559.4149,-284.8897 550.6438,-285.0558 550.6438,-285.0558"/>
<ellipse fill="none" stroke="#000000" cx="547.7013" cy="-283.7981" rx="3.2" ry="3.2"/>
</g>
<!-- 受注&#45;&gt;部門マスタ -->
<g id="edge5" class="edge">
<title>受注:w&#45;&gt;部門マスタ:e</title>
<path fill="none" stroke="#000000" d="M543.5851,-287.0761C524.95,-278.3854 528.2131,-240.0242 498.5,-234.2"/>
<polygon fill="#000000" stroke="#000000" points="550.0242,-287.5781 557.7201,-291.7891 554.0121,-287.889 558,-288.2 558,-288.2 558,-288.2 554.0121,-287.889 558.2799,-284.6109 550.0242,-287.5781 550.0242,-287.5781"/>
<ellipse fill="none" stroke="#000000" cx="546.8339" cy="-287.3293" rx="3.2" ry="3.2"/>
</g>
<!-- 顧客マスタ -->
<g id="node7" class="node">
<title>顧客マスタ</title>
<g id="a_node7"><a xlink:href="../../tables/______8e04fe89.html" xlink:title="顧客マスタ" target="_top">
<polygon fill="#ffffff" stroke="transparent" points="414,-288.7 414,-393.7 505,-393.7 505,-288.7 414,-288.7"/>
<polygon fill="#f5f5f5" stroke="transparent" points="414.5,-370.2 414.5,-393.2 505.5,-393.2 505.5,-370.2 414.5,-370.2"/>
<polygon fill="none" stroke="#000000" points="414.5,-370.2 414.5,-393.2 505.5,-393.2 505.5,-370.2 414.5,-370.2"/>
<text text-anchor="start" x="403.0892" y="-378.8" font-family="Helvetica,sans-Serif" font-weight="bold" font-size="11.00" fill="#000000">顧客マスタ</text>
<text text-anchor="start" x="470.5437" y="-378.3" font-family="Helvetica,sans-Serif" font-size="11.00" fill="#000000">[table]</text>
<polygon fill="none" stroke="#000000" points="414.5,-348.2 414.5,-370.2 505.5,-370.2 505.5,-348.2 414.5,-348.2"/>
<image xlink:href="../../images/primaryKeys.png" width="11px" height="12px" preserveAspectRatio="xMinYMin meet" x="419.5" y="-365.2"/>
<text text-anchor="start" x="430.2227" y="-355.3" font-family="Helvetica,sans-Serif" font-size="11.00" fill="#000000">顧客コード</text>
<polygon fill="none" stroke="#000000" points="414.5,-326.2 414.5,-348.2 505.5,-348.2 505.5,-326.2 414.5,-326.2"/>
<image xlink:href="../../images/primaryKeys.png" width="11px" height="12px" preserveAspectRatio="xMinYMin meet" x="419.5" y="-343.2"/>
<text text-anchor="start" x="434.5" y="-333.3" font-family="Helvetica,sans-Serif" font-size="11.00" fill="#000000">顧客枝番</text>
<polygon fill="none" stroke="#000000" points="414.5,-307.2 414.5,-326.2 505.5,-326.2 505.5,-307.2 414.5,-307.2"/>
<text text-anchor="start" x="417.5" y="-313.3" font-family="Helvetica,sans-Serif" font-size="11.00" fill="#000000">...</text>
<polygon fill="#ffffff" stroke="transparent" points="414.5,-288.2 414.5,-307.2 505.5,-307.2 505.5,-288.2 414.5,-288.2"/>
<polygon fill="none" stroke="#000000" points="414.5,-288.2 414.5,-307.2 505.5,-307.2 505.5,-288.2 414.5,-288.2"/>
<polygon fill="#ffffff" stroke="transparent" points="415.5,-289.2 415.5,-306.2 448.5,-306.2 448.5,-289.2 415.5,-289.2"/>
<text text-anchor="start" x="417.5" y="-294.3" font-family="Helvetica,sans-Serif" font-size="11.00" fill="#000000">&lt; 1</text>
<polygon fill="#ffffff" stroke="transparent" points="448.5,-289.2 448.5,-306.2 472.5,-306.2 472.5,-289.2 448.5,-289.2"/>
<text text-anchor="start" x="457.4431" y="-294.3" font-family="Helvetica,sans-Serif" font-size="11.00" fill="#000000"> &#160;</text>
<polygon fill="#ffffff" stroke="transparent" points="472.5,-289.2 472.5,-306.2 504.5,-306.2 504.5,-289.2 472.5,-289.2"/>
<text text-anchor="start" x="486.9053" y="-294.3" font-family="Helvetica,sans-Serif" font-size="11.00" fill="#000000">2 &gt;</text>
<polygon fill="#000000" stroke="#000000" points="448.5,-289.2 448.5,-306.2 448.5,-306.2 448.5,-289.2 448.5,-289.2"/>
<polygon fill="#000000" stroke="#000000" points="472.5,-289.2 472.5,-306.2 472.5,-306.2 472.5,-289.2 472.5,-289.2"/>
</a>
</g>
</g>
<!-- 受注&#45;&gt;顧客マスタ -->
<g id="edge6" class="edge">
<title>受注:w&#45;&gt;顧客マスタ:e</title>
<path fill="none" stroke="#000000" d="M544.1445,-292.6414C525.1597,-308.185 538.7666,-359.2 505.5,-359.2"/>
<polygon fill="#000000" stroke="#000000" points="550.3818,-290.642 559.0989,-291.6282 554.1909,-289.421 558,-288.2 558,-288.2 558,-288.2 554.1909,-289.421 556.9011,-284.7718 550.3818,-290.642 550.3818,-290.642"/>
<ellipse fill="none" stroke="#000000" cx="547.3345" cy="-291.6188" rx="3.2" ry="3.2"/>
</g>
<!-- 受注&#45;&gt;顧客マスタ -->
<g id="edge7" class="edge">
<title>受注:w&#45;&gt;顧客マスタ:e</title>
<path fill="none" stroke="#000000" d="M544.038,-292.722C528.8126,-304.8523 531.4328,-337.2 505.5,-337.2"/>
<polygon fill="#000000" stroke="#000000" points="550.3892,-290.665 559.1092,-291.6249 554.1946,-289.4325 558,-288.2 558,-288.2 558,-288.2 554.1946,-289.4325 556.8908,-284.7751 550.3892,-290.665 550.3892,-290.665"/>
<ellipse fill="none" stroke="#000000" cx="547.3449" cy="-291.651" rx="3.2" ry="3.2"/>
</g>
<!-- 顧客マスタ&#45;&gt;取引先マスタ -->
<g id="edge13" class="edge">
<title>顧客マスタ:w&#45;&gt;取引先マスタ:e</title>
<path fill="none" stroke="#000000" d="M400.5254,-363.5302C382.0758,-377.7637 390.7161,-422.2 359.5,-422.2"/>
<polygon fill="#000000" stroke="#000000" points="406.8584,-361.5679 415.5656,-362.6387 410.6792,-360.3839 414.5,-359.2 414.5,-359.2 414.5,-359.2 410.6792,-360.3839 413.4344,-355.7613 406.8584,-361.5679 406.8584,-361.5679"/>
<ellipse fill="none" stroke="#000000" cx="403.8018" cy="-362.5151" rx="3.2" ry="3.2"/>
</g>
<!-- 売上 -->
<g id="node8" class="node">
<title>売上</title>
<g id="a_node8"><a xlink:href="../../tables/___b1358.html" xlink:title="売上" target="_top">
<polygon fill="#ffffff" stroke="transparent" points="661,-140.7 661,-333.7 728,-333.7 728,-140.7 661,-140.7"/>
<polygon fill="#f5f5f5" stroke="transparent" points="661.5,-310.2 661.5,-333.2 728.5,-333.2 728.5,-310.2 661.5,-310.2"/>
<polygon fill="none" stroke="#000000" points="661.5,-310.2 661.5,-333.2 728.5,-333.2 728.5,-310.2 661.5,-310.2"/>
<text text-anchor="start" x="660.0793" y="-318.8" font-family="Helvetica,sans-Serif" font-weight="bold" font-size="11.00" fill="#000000">売上</text>
<text text-anchor="start" x="693.5437" y="-318.3" font-family="Helvetica,sans-Serif" font-size="11.00" fill="#000000">[table]</text>
<polygon fill="none" stroke="#000000" points="661.5,-288.2 661.5,-310.2 728.5,-310.2 728.5,-288.2 661.5,-288.2"/>
<image xlink:href="../../images/primaryKeys.png" width="11px" height="12px" preserveAspectRatio="xMinYMin meet" x="666.5" y="-305.2"/>
<text text-anchor="start" x="680.7101" y="-295.3" font-family="Helvetica,sans-Serif" font-size="11.00" fill="#000000">売上番号</text>
<polygon fill="#ffffff" stroke="transparent" points="661.5,-266.2 661.5,-288.2 728.5,-288.2 728.5,-266.2 661.5,-266.2"/>
<polygon fill="none" stroke="#000000" points="661.5,-266.2 661.5,-288.2 728.5,-288.2 728.5,-266.2 661.5,-266.2"/>
<text text-anchor="start" x="681.5" y="-273.3" font-family="Helvetica,sans-Serif" font-size="11.00" fill="#000000">売上日</text>
<polygon fill="#ffffff" stroke="transparent" points="661.5,-244.2 661.5,-266.2 728.5,-266.2 728.5,-244.2 661.5,-244.2"/>
<polygon fill="none" stroke="#000000" points="661.5,-244.2 661.5,-266.2 728.5,-266.2 728.5,-244.2 661.5,-244.2"/>
<image xlink:href="../../images/foreignKeys.png" width="11px" height="12px" preserveAspectRatio="xMinYMin meet" x="666.5" y="-261.2"/>
<text text-anchor="start" x="680.4021" y="-251.3" font-family="Helvetica,sans-Serif" font-size="11.00" fill="#000000">受注番号</text>
<polygon fill="#ffffff" stroke="transparent" points="661.5,-222.2 661.5,-244.2 728.5,-244.2 728.5,-222.2 661.5,-222.2"/>
<polygon fill="none" stroke="#000000" points="661.5,-222.2 661.5,-244.2 728.5,-244.2 728.5,-222.2 661.5,-222.2"/>
<image xlink:href="../../images/foreignKeys.png" width="11px" height="12px" preserveAspectRatio="xMinYMin meet" x="666.5" y="-239.2"/>
<text text-anchor="start" x="665.5257" y="-229.3" font-family="Helvetica,sans-Serif" font-size="11.00" fill="#000000">部門コード</text>
<polygon fill="#ffffff" stroke="transparent" points="661.5,-200.2 661.5,-222.2 728.5,-222.2 728.5,-200.2 661.5,-200.2"/>
<polygon fill="none" stroke="#000000" points="661.5,-200.2 661.5,-222.2 728.5,-222.2 728.5,-200.2 661.5,-200.2"/>
<image xlink:href="../../images/foreignKeys.png" width="11px" height="12px" preserveAspectRatio="xMinYMin meet" x="666.5" y="-217.2"/>
<text text-anchor="start" x="681.5" y="-207.3" font-family="Helvetica,sans-Serif" font-size="11.00" fill="#000000">開始日</text>
<polygon fill="#ffffff" stroke="transparent" points="661.5,-178.2 661.5,-200.2 728.5,-200.2 728.5,-178.2 661.5,-178.2"/>
<polygon fill="none" stroke="#000000" points="661.5,-178.2 661.5,-200.2 728.5,-200.2 728.5,-178.2 661.5,-178.2"/>
<image xlink:href="../../images/foreignKeys.png" width="11px" height="12px" preserveAspectRatio="xMinYMin meet" x="666.5" y="-195.2"/>
<text text-anchor="start" x="663.9978" y="-185.3" font-family="Helvetica,sans-Serif" font-size="11.00" fill="#000000">取引先コード</text>
<polygon fill="none" stroke="#000000" points="661.5,-159.2 661.5,-178.2 728.5,-178.2 728.5,-159.2 661.5,-159.2"/>
<text text-anchor="start" x="664.5" y="-165.3" font-family="Helvetica,sans-Serif" font-size="11.00" fill="#000000">...</text>
<polygon fill="#ffffff" stroke="transparent" points="661.5,-140.2 661.5,-159.2 728.5,-159.2 728.5,-140.2 661.5,-140.2"/>
<polygon fill="none" stroke="#000000" points="661.5,-140.2 661.5,-159.2 728.5,-159.2 728.5,-140.2 661.5,-140.2"/>
<polygon fill="#ffffff" stroke="transparent" points="662.5,-141.2 662.5,-158.2 687.5,-158.2 687.5,-141.2 662.5,-141.2"/>
<text text-anchor="start" x="664.5" y="-146.3" font-family="Helvetica,sans-Serif" font-size="11.00" fill="#000000">&lt; 4</text>
<polygon fill="#ffffff" stroke="transparent" points="687.5,-141.2 687.5,-158.2 703.5,-158.2 703.5,-141.2 687.5,-141.2"/>
<text text-anchor="start" x="692.4431" y="-146.3" font-family="Helvetica,sans-Serif" font-size="11.00" fill="#000000"> &#160;</text>
<polygon fill="#ffffff" stroke="transparent" points="703.5,-141.2 703.5,-158.2 727.5,-158.2 727.5,-141.2 703.5,-141.2"/>
<text text-anchor="start" x="709.9053" y="-146.3" font-family="Helvetica,sans-Serif" font-size="11.00" fill="#000000">1 &gt;</text>
<polygon fill="#000000" stroke="#000000" points="687.5,-141.2 687.5,-158.2 687.5,-158.2 687.5,-141.2 687.5,-141.2"/>
<polygon fill="#000000" stroke="#000000" points="703.5,-141.2 703.5,-158.2 703.5,-158.2 703.5,-141.2 703.5,-141.2"/>
</a>
</g>
</g>
<!-- 売上&#45;&gt;取引先マスタ -->
<g id="edge8" class="edge">
<title>売上:w&#45;&gt;取引先マスタ:e</title>
<path fill="none" stroke="#000000" d="M646.9473,-188.8409C541.2263,-183.6326 486.028,-124.5664 402,-196.2 324.2218,-262.5056 461.7051,-422.2 359.5,-422.2"/>
<polygon fill="#000000" stroke="#000000" points="653.5024,-189.0026 661.4112,-192.7989 657.5012,-189.1013 661.5,-189.2 661.5,-189.2 661.5,-189.2 657.5012,-189.1013 661.5888,-185.6011 653.5024,-189.0026 653.5024,-189.0026"/>
<ellipse fill="none" stroke="#000000" cx="650.3034" cy="-188.9236" rx="3.2" ry="3.2"/>
</g>
<!-- 売上&#45;&gt;受注 -->
<g id="edge9" class="edge">
<title>売上:w&#45;&gt;受注:e</title>
<path fill="none" stroke="#000000" d="M647.4273,-259.5142C635.0607,-268.4592 632.4502,-288.2 612,-288.2"/>
<polygon fill="#000000" stroke="#000000" points="653.8513,-257.5448 662.5552,-258.6419 657.6757,-256.3724 661.5,-255.2 661.5,-255.2 661.5,-255.2 657.6757,-256.3724 660.4448,-251.7581 653.8513,-257.5448 653.8513,-257.5448"/>
<ellipse fill="none" stroke="#000000" cx="650.7919" cy="-258.4828" rx="3.2" ry="3.2"/>
</g>
<!-- 売上&#45;&gt;部門マスタ -->
<g id="edge10" class="edge">
<title>売上:w&#45;&gt;部門マスタ:e</title>
<path fill="none" stroke="#000000" d="M646.9866,-233.2141C586.2391,-233.3357 565.852,-234.2 498.5,-234.2"/>
<polygon fill="#000000" stroke="#000000" points="653.5,-233.2078 661.5035,-236.8 657.5,-233.2039 661.5,-233.2 661.5,-233.2 661.5,-233.2 657.5,-233.2039 661.4965,-229.6 653.5,-233.2078 653.5,-233.2078"/>
<ellipse fill="none" stroke="#000000" cx="650.3" cy="-233.211" rx="3.2" ry="3.2"/>
</g>
<!-- 売上&#45;&gt;部門マスタ -->
<g id="edge11" class="edge">
<title>売上:w&#45;&gt;部門マスタ:e</title>
<path fill="none" stroke="#000000" d="M646.8659,-211.5251C585.7136,-214.3207 566.5179,-234.2 498.5,-234.2"/>
<polygon fill="#000000" stroke="#000000" points="653.502,-211.3778 661.58,-214.7991 657.501,-211.2889 661.5,-211.2 661.5,-211.2 661.5,-211.2 657.501,-211.2889 661.42,-207.6009 653.502,-211.3778 653.502,-211.3778"/>
<ellipse fill="none" stroke="#000000" cx="650.3028" cy="-211.4489" rx="3.2" ry="3.2"/>
</g>
<!-- 売上明細 -->
<g id="node9" class="node">
<title>売上明細</title>
<g id="a_node9"><a xlink:href="../../tables/_____29a0763a.html" xlink:title="売上明細" target="_top">
<polygon fill="#ffffff" stroke="transparent" points="777,-271.7 777,-332.7 847,-332.7 847,-271.7 777,-271.7"/>
<polygon fill="#f5f5f5" stroke="transparent" points="777,-309.2 777,-332.2 847,-332.2 847,-309.2 777,-309.2"/>
<polygon fill="none" stroke="#000000" points="777,-309.2 777,-332.2 847,-332.2 847,-309.2 777,-309.2"/>
<text text-anchor="start" x="774.4086" y="-317.8" font-family="Helvetica,sans-Serif" font-weight="bold" font-size="11.00" fill="#000000">売上明細</text>
<text text-anchor="start" x="812.5219" y="-317.3" font-family="Helvetica,sans-Serif" font-size="11.00" fill="#000000">[table]</text>
<polygon fill="none" stroke="#000000" points="777,-290.2 777,-309.2 847,-309.2 847,-290.2 777,-290.2"/>
<text text-anchor="start" x="780" y="-296.3" font-family="Helvetica,sans-Serif" font-size="11.00" fill="#000000">...</text>
<polygon fill="#ffffff" stroke="transparent" points="777,-271.2 777,-290.2 847,-290.2 847,-271.2 777,-271.2"/>
<polygon fill="none" stroke="#000000" points="777,-271.2 777,-290.2 847,-290.2 847,-271.2 777,-271.2"/>
<polygon fill="#ffffff" stroke="transparent" points="778,-272.2 778,-289.2 807,-289.2 807,-272.2 778,-272.2"/>
<text text-anchor="start" x="780" y="-277.3" font-family="Helvetica,sans-Serif" font-size="11.00" fill="#000000">&lt; 2</text>
<polygon fill="#ffffff" stroke="transparent" points="807,-272.2 807,-289.2 827,-289.2 827,-272.2 807,-272.2"/>
<text text-anchor="start" x="813.9431" y="-277.3" font-family="Helvetica,sans-Serif" font-size="11.00" fill="#000000"> &#160;</text>
<polygon fill="#ffffff" stroke="transparent" points="827,-272.2 827,-289.2 846,-289.2 846,-272.2 827,-272.2"/>
<text text-anchor="start" x="837.8862" y="-277.3" font-family="Helvetica,sans-Serif" font-size="11.00" fill="#000000"> &#160;</text>
<polygon fill="#000000" stroke="#000000" points="807,-272.2 807,-289.2 807,-289.2 807,-272.2 807,-272.2"/>
<polygon fill="#000000" stroke="#000000" points="827,-272.2 827,-289.2 827,-289.2 827,-272.2 827,-272.2"/>
</a>
</g>
</g>
<!-- 売上明細&#45;&gt;売上 -->
<g id="edge12" class="edge">
<title>売上明細:w&#45;&gt;売上:e</title>
<path fill="none" stroke="#000000" d="M762.2829,-299.2C751.2886,-299.2 744.1615,-299.2 728.5,-299.2"/>
<polygon fill="#000000" stroke="#000000" points="769,-299.2001 777,-302.8 773,-299.2 777,-299.2 777,-299.2 777,-299.2 773,-299.2 777,-295.6 769,-299.2001 769,-299.2001"/>
<ellipse fill="none" stroke="#000000" cx="765.8" cy="-299.2001" rx="3.2" ry="3.2"/>
</g>
</g>
</svg>
