<?xml version="1.0" encoding="UTF-8" standalone="no"?>
<!DOCTYPE svg PUBLIC "-//W3C//DTD SVG 1.1//EN"
 "http://www.w3.org/Graphics/SVG/1.1/DTD/svg11.dtd">
<!-- Generated by graphviz version 2.40.1 (20161225.0304)
 -->
<!-- Title: twoDegreesRelationshipsDiagramImplied Pages: 1 -->
<svg width="752pt" height="1120pt"
 viewBox="0.00 0.00 752.00 1120.10" xmlns="http://www.w3.org/2000/svg" xmlns:xlink="http://www.w3.org/1999/xlink">
<g id="graph0" class="graph" transform="scale(1 1) rotate(0) translate(4 1116.0972)">
<title>twoDegreesRelationshipsDiagramImplied</title>
<polygon fill="#ffffff" stroke="transparent" points="-4,4 -4,-1116.0972 748,-1116.0972 748,4 -4,4"/>
<text text-anchor="middle" x="72.4936" y="-7.3" font-family="Helvetica,sans-Serif" font-size="11.00" fill="#000000">Generated by SchemaSpy</text>
<!-- 与信残高 -->
<g id="node1" class="node">
<title>与信残高</title>
<g id="a_node1"><a xlink:href="../../tables/_____24b4cb80.html" xlink:title="与信残高" target="_top">
<polygon fill="#ffffff" stroke="transparent" points="376.5,-1047.0972 376.5,-1108.0972 446.5,-1108.0972 446.5,-1047.0972 376.5,-1047.0972"/>
<polygon fill="#f5f5f5" stroke="transparent" points="376.5,-1084.5972 376.5,-1107.5972 446.5,-1107.5972 446.5,-1084.5972 376.5,-1084.5972"/>
<polygon fill="none" stroke="#000000" points="376.5,-1084.5972 376.5,-1107.5972 446.5,-1107.5972 446.5,-1084.5972 376.5,-1084.5972"/>
<text text-anchor="start" x="369.3321" y="-1093.1972" font-family="Helvetica,sans-Serif" font-weight="bold" font-size="11.00" fill="#000000">与信残高</text>
<text text-anchor="start" x="412.0219" y="-1092.6972" font-family="Helvetica,sans-Serif" font-size="11.00" fill="#000000">[table]</text>
<polygon fill="none" stroke="#000000" points="376.5,-1065.5972 376.5,-1084.5972 446.5,-1084.5972 446.5,-1065.5972 376.5,-1065.5972"/>
<text text-anchor="start" x="379.5" y="-1071.6972" font-family="Helvetica,sans-Serif" font-size="11.00" fill="#000000">...</text>
<polygon fill="#ffffff" stroke="transparent" points="376.5,-1046.5972 376.5,-1065.5972 446.5,-1065.5972 446.5,-1046.5972 376.5,-1046.5972"/>
<polygon fill="none" stroke="#000000" points="376.5,-1046.5972 376.5,-1065.5972 446.5,-1065.5972 446.5,-1046.5972 376.5,-1046.5972"/>
<polygon fill="#ffffff" stroke="transparent" points="377.5,-1047.5972 377.5,-1064.5972 406.5,-1064.5972 406.5,-1047.5972 377.5,-1047.5972"/>
<text text-anchor="start" x="379.5" y="-1052.6972" font-family="Helvetica,sans-Serif" font-size="11.00" fill="#000000">&lt; 1</text>
<polygon fill="#ffffff" stroke="transparent" points="406.5,-1047.5972 406.5,-1064.5972 426.5,-1064.5972 426.5,-1047.5972 406.5,-1047.5972"/>
<text text-anchor="start" x="413.4431" y="-1052.6972" font-family="Helvetica,sans-Serif" font-size="11.00" fill="#000000"> &#160;</text>
<polygon fill="#ffffff" stroke="transparent" points="426.5,-1047.5972 426.5,-1064.5972 445.5,-1064.5972 445.5,-1047.5972 426.5,-1047.5972"/>
<text text-anchor="start" x="437.3862" y="-1052.6972" font-family="Helvetica,sans-Serif" font-size="11.00" fill="#000000"> &#160;</text>
<polygon fill="#000000" stroke="#000000" points="406.5,-1047.5972 406.5,-1064.5972 406.5,-1064.5972 406.5,-1047.5972 406.5,-1047.5972"/>
<polygon fill="#000000" stroke="#000000" points="426.5,-1047.5972 426.5,-1064.5972 426.5,-1064.5972 426.5,-1047.5972 426.5,-1047.5972"/>
</a>
</g>
</g>
<!-- 取引先マスタ -->
<g id="node2" class="node">
<title>取引先マスタ</title>
<g id="a_node2"><a xlink:href="../../tables/_______70f9c0bb.html" xlink:title="取引先マスタ" target="_top">
<polygon fill="#ffffff" stroke="transparent" points="174,-874.0972 174,-1001.0972 273,-1001.0972 273,-874.0972 174,-874.0972"/>
<polygon fill="#f5f5f5" stroke="transparent" points="174.5,-977.5972 174.5,-1000.5972 273.5,-1000.5972 273.5,-977.5972 174.5,-977.5972"/>
<polygon fill="none" stroke="#000000" points="174.5,-977.5972 174.5,-1000.5972 273.5,-1000.5972 273.5,-977.5972 174.5,-977.5972"/>
<text text-anchor="start" x="165.3644" y="-986.1972" font-family="Helvetica,sans-Serif" font-weight="bold" font-size="11.00" fill="#000000">取引先マスタ</text>
<text text-anchor="start" x="238.5437" y="-985.6972" font-family="Helvetica,sans-Serif" font-size="11.00" fill="#000000">[table]</text>
<polygon fill="none" stroke="#000000" points="174.5,-955.5972 174.5,-977.5972 273.5,-977.5972 273.5,-955.5972 174.5,-955.5972"/>
<image xlink:href="../../images/primaryKeys.png" width="11px" height="12px" preserveAspectRatio="xMinYMin meet" x="179.5" y="-972.597"/>
<text text-anchor="start" x="192.9978" y="-962.6972" font-family="Helvetica,sans-Serif" font-size="11.00" fill="#000000">取引先コード</text>
<polygon fill="#ffffff" stroke="transparent" points="174.5,-933.5972 174.5,-955.5972 273.5,-955.5972 273.5,-933.5972 174.5,-933.5972"/>
<polygon fill="none" stroke="#000000" points="174.5,-933.5972 174.5,-955.5972 273.5,-955.5972 273.5,-933.5972 174.5,-933.5972"/>
<text text-anchor="start" x="194.5" y="-940.6972" font-family="Helvetica,sans-Serif" font-size="11.00" fill="#000000">取引先名</text>
<polygon fill="#ffffff" stroke="transparent" points="174.5,-911.5972 174.5,-933.5972 273.5,-933.5972 273.5,-911.5972 174.5,-911.5972"/>
<polygon fill="none" stroke="#000000" points="174.5,-911.5972 174.5,-933.5972 273.5,-933.5972 273.5,-911.5972 174.5,-911.5972"/>
<image xlink:href="../../images/foreignKeys.png" width="11px" height="12px" preserveAspectRatio="xMinYMin meet" x="179.5" y="-928.597"/>
<text text-anchor="start" x="167.1318" y="-918.6972" font-family="Helvetica,sans-Serif" font-size="11.00" fill="#000000">取引先グループコード</text>
<polygon fill="none" stroke="#000000" points="174.5,-892.5972 174.5,-911.5972 273.5,-911.5972 273.5,-892.5972 174.5,-892.5972"/>
<text text-anchor="start" x="177.5" y="-898.6972" font-family="Helvetica,sans-Serif" font-size="11.00" fill="#000000">...</text>
<polygon fill="#ffffff" stroke="transparent" points="174.5,-873.5972 174.5,-892.5972 273.5,-892.5972 273.5,-873.5972 174.5,-873.5972"/>
<polygon fill="none" stroke="#000000" points="174.5,-873.5972 174.5,-892.5972 273.5,-892.5972 273.5,-873.5972 174.5,-873.5972"/>
<polygon fill="#ffffff" stroke="transparent" points="175.5,-874.5972 175.5,-891.5972 211.5,-891.5972 211.5,-874.5972 175.5,-874.5972"/>
<text text-anchor="start" x="177.5" y="-879.6972" font-family="Helvetica,sans-Serif" font-size="11.00" fill="#000000">&lt; 1</text>
<polygon fill="#ffffff" stroke="transparent" points="211.5,-874.5972 211.5,-891.5972 237.5,-891.5972 237.5,-874.5972 211.5,-874.5972"/>
<text text-anchor="start" x="221.4431" y="-879.6972" font-family="Helvetica,sans-Serif" font-size="11.00" fill="#000000"> &#160;</text>
<polygon fill="#ffffff" stroke="transparent" points="237.5,-874.5972 237.5,-891.5972 272.5,-891.5972 272.5,-874.5972 237.5,-874.5972"/>
<text text-anchor="start" x="254.9053" y="-879.6972" font-family="Helvetica,sans-Serif" font-size="11.00" fill="#000000">4 &gt;</text>
<polygon fill="#000000" stroke="#000000" points="211.5,-874.5972 211.5,-891.5972 211.5,-891.5972 211.5,-874.5972 211.5,-874.5972"/>
<polygon fill="#000000" stroke="#000000" points="237.5,-874.5972 237.5,-891.5972 237.5,-891.5972 237.5,-874.5972 237.5,-874.5972"/>
</a>
</g>
</g>
<!-- 与信残高&#45;&gt;取引先マスタ -->
<g id="edge1" class="edge">
<title>与信残高:w&#45;&gt;取引先マスタ:e</title>
<path fill="none" stroke="#000000" d="M366.0459,-1073.9991C342.0779,-1071.0206 334.0715,-1057.1104 314,-1036.5972 288.8626,-1010.9066 309.443,-966.5972 273.5,-966.5972"/>
<polygon fill="#000000" stroke="#000000" points="375.9298,-1070.558 375.4728,-1078.545 373.8754,-1078.4536 374.3324,-1070.4666 375.9298,-1070.558"/>
<polyline fill="none" stroke="#000000" points="376.5,-1074.5972 372.5065,-1074.3687 "/>
<ellipse fill="none" stroke="#000000" cx="369.3118" cy="-1074.1859" rx="3.2" ry="3.2"/>
</g>
<!-- 取引先グループマスタ -->
<g id="node4" class="node">
<title>取引先グループマスタ</title>
<g id="a_node4"><a xlink:href="../../tables/___________d6a542a5.html" xlink:title="取引先グループマスタ" target="_top">
<polygon fill="#ffffff" stroke="transparent" points="8,-895.0972 8,-956.0972 125,-956.0972 125,-895.0972 8,-895.0972"/>
<polygon fill="#f5f5f5" stroke="transparent" points="8.5,-932.5972 8.5,-955.5972 125.5,-955.5972 125.5,-932.5972 8.5,-932.5972"/>
<polygon fill="none" stroke="#000000" points="8.5,-932.5972 8.5,-955.5972 125.5,-955.5972 125.5,-932.5972 8.5,-932.5972"/>
<text text-anchor="start" x="-10.5016" y="-941.1972" font-family="Helvetica,sans-Serif" font-weight="bold" font-size="11.00" fill="#000000">取引先グループマスタ</text>
<text text-anchor="start" x="91.0219" y="-940.6972" font-family="Helvetica,sans-Serif" font-size="11.00" fill="#000000">[table]</text>
<polygon fill="none" stroke="#000000" points="8.5,-913.5972 8.5,-932.5972 125.5,-932.5972 125.5,-913.5972 8.5,-913.5972"/>
<text text-anchor="start" x="11.5" y="-919.6972" font-family="Helvetica,sans-Serif" font-size="11.00" fill="#000000">...</text>
<polygon fill="#ffffff" stroke="transparent" points="8.5,-894.5972 8.5,-913.5972 125.5,-913.5972 125.5,-894.5972 8.5,-894.5972"/>
<polygon fill="none" stroke="#000000" points="8.5,-894.5972 8.5,-913.5972 125.5,-913.5972 125.5,-894.5972 8.5,-894.5972"/>
<polygon fill="#ffffff" stroke="transparent" points="9.5,-895.5972 9.5,-912.5972 45.5,-912.5972 45.5,-895.5972 9.5,-895.5972"/>
<text text-anchor="start" x="11.5" y="-900.6972" font-family="Helvetica,sans-Serif" font-size="11.00" fill="#000000"> &#160;</text>
<polygon fill="#ffffff" stroke="transparent" points="45.5,-895.5972 45.5,-912.5972 80.5,-912.5972 80.5,-895.5972 45.5,-895.5972"/>
<text text-anchor="start" x="59.9431" y="-900.6972" font-family="Helvetica,sans-Serif" font-size="11.00" fill="#000000"> &#160;</text>
<polygon fill="#ffffff" stroke="transparent" points="80.5,-895.5972 80.5,-912.5972 124.5,-912.5972 124.5,-895.5972 80.5,-895.5972"/>
<text text-anchor="start" x="106.9053" y="-900.6972" font-family="Helvetica,sans-Serif" font-size="11.00" fill="#000000">1 &gt;</text>
<polygon fill="#000000" stroke="#000000" points="45.5,-895.5972 45.5,-912.5972 45.5,-912.5972 45.5,-895.5972 45.5,-895.5972"/>
<polygon fill="#000000" stroke="#000000" points="80.5,-895.5972 80.5,-912.5972 80.5,-912.5972 80.5,-895.5972 80.5,-895.5972"/>
</a>
</g>
</g>
<!-- 取引先マスタ&#45;&gt;取引先グループマスタ -->
<g id="edge3" class="edge">
<title>取引先マスタ:w&#45;&gt;取引先グループマスタ:e</title>
<path fill="none" stroke="#000000" d="M159.9909,-922.5972C148.6774,-922.5972 141.4931,-922.5972 125.5,-922.5972"/>
<polygon fill="#000000" stroke="#000000" points="166.5,-922.5973 174.5,-926.1972 170.5,-922.5972 174.5,-922.5972 174.5,-922.5972 174.5,-922.5972 170.5,-922.5972 174.5,-918.9972 166.5,-922.5973 166.5,-922.5973"/>
<ellipse fill="none" stroke="#000000" cx="163.3" cy="-922.5973" rx="3.2" ry="3.2"/>
</g>
<!-- 仕入先マスタ -->
<g id="node3" class="node">
<title>仕入先マスタ</title>
<g id="a_node3"><a xlink:href="../../tables/_______2628176c.html" xlink:title="仕入先マスタ" target="_top">
<polygon fill="#ffffff" stroke="transparent" points="369,-965.0972 369,-1026.0972 454,-1026.0972 454,-965.0972 369,-965.0972"/>
<polygon fill="#f5f5f5" stroke="transparent" points="369.5,-1002.5972 369.5,-1025.5972 454.5,-1025.5972 454.5,-1002.5972 369.5,-1002.5972"/>
<polygon fill="none" stroke="#000000" points="369.5,-1002.5972 369.5,-1025.5972 454.5,-1025.5972 454.5,-1002.5972 369.5,-1002.5972"/>
<text text-anchor="start" x="361.2779" y="-1011.1972" font-family="Helvetica,sans-Serif" font-weight="bold" font-size="11.00" fill="#000000">仕入先マスタ</text>
<text text-anchor="start" x="420.0219" y="-1010.6972" font-family="Helvetica,sans-Serif" font-size="11.00" fill="#000000">[table]</text>
<polygon fill="none" stroke="#000000" points="369.5,-983.5972 369.5,-1002.5972 454.5,-1002.5972 454.5,-983.5972 369.5,-983.5972"/>
<text text-anchor="start" x="372.5" y="-989.6972" font-family="Helvetica,sans-Serif" font-size="11.00" fill="#000000">...</text>
<polygon fill="#ffffff" stroke="transparent" points="369.5,-964.5972 369.5,-983.5972 454.5,-983.5972 454.5,-964.5972 369.5,-964.5972"/>
<polygon fill="none" stroke="#000000" points="369.5,-964.5972 369.5,-983.5972 454.5,-983.5972 454.5,-964.5972 369.5,-964.5972"/>
<polygon fill="#ffffff" stroke="transparent" points="370.5,-965.5972 370.5,-982.5972 404.5,-982.5972 404.5,-965.5972 370.5,-965.5972"/>
<text text-anchor="start" x="372.5" y="-970.6972" font-family="Helvetica,sans-Serif" font-size="11.00" fill="#000000">&lt; 1</text>
<polygon fill="#ffffff" stroke="transparent" points="404.5,-965.5972 404.5,-982.5972 429.5,-982.5972 429.5,-965.5972 404.5,-965.5972"/>
<text text-anchor="start" x="413.9431" y="-970.6972" font-family="Helvetica,sans-Serif" font-size="11.00" fill="#000000"> &#160;</text>
<polygon fill="#ffffff" stroke="transparent" points="429.5,-965.5972 429.5,-982.5972 453.5,-982.5972 453.5,-965.5972 429.5,-965.5972"/>
<text text-anchor="start" x="445.3862" y="-970.6972" font-family="Helvetica,sans-Serif" font-size="11.00" fill="#000000"> &#160;</text>
<polygon fill="#000000" stroke="#000000" points="404.5,-965.5972 404.5,-982.5972 404.5,-982.5972 404.5,-965.5972 404.5,-965.5972"/>
<polygon fill="#000000" stroke="#000000" points="429.5,-965.5972 429.5,-982.5972 429.5,-982.5972 429.5,-965.5972 429.5,-965.5972"/>
</a>
</g>
</g>
<!-- 仕入先マスタ&#45;&gt;取引先マスタ -->
<g id="edge2" class="edge">
<title>仕入先マスタ:w&#45;&gt;取引先マスタ:e</title>
<path fill="none" stroke="#000000" d="M354.9221,-991.5458C322.9206,-986.6816 312.351,-966.5972 273.5,-966.5972"/>
<polygon fill="#000000" stroke="#000000" points="361.5207,-992.0217 369.241,-996.1879 365.5104,-992.3094 369.5,-992.5972 369.5,-992.5972 369.5,-992.5972 365.5104,-992.3094 369.759,-989.0065 361.5207,-992.0217 361.5207,-992.0217"/>
<ellipse fill="none" stroke="#000000" cx="358.329" cy="-991.7914" rx="3.2" ry="3.2"/>
</g>
<!-- 受注 -->
<g id="node5" class="node">
<title>受注</title>
<g id="a_node5"><a xlink:href="../../tables/___a93f1.html" xlink:title="受注" target="_top">
<polygon fill="#ffffff" stroke="transparent" points="550,-679.0972 550,-916.0972 617,-916.0972 617,-679.0972 550,-679.0972"/>
<polygon fill="#f5f5f5" stroke="transparent" points="550.5,-892.5972 550.5,-915.5972 617.5,-915.5972 617.5,-892.5972 550.5,-892.5972"/>
<polygon fill="none" stroke="#000000" points="550.5,-892.5972 550.5,-915.5972 617.5,-915.5972 617.5,-892.5972 550.5,-892.5972"/>
<text text-anchor="start" x="548.7713" y="-901.1972" font-family="Helvetica,sans-Serif" font-weight="bold" font-size="11.00" fill="#000000">受注</text>
<text text-anchor="start" x="582.5437" y="-900.6972" font-family="Helvetica,sans-Serif" font-size="11.00" fill="#000000">[table]</text>
<polygon fill="none" stroke="#000000" points="550.5,-870.5972 550.5,-892.5972 617.5,-892.5972 617.5,-870.5972 550.5,-870.5972"/>
<image xlink:href="../../images/primaryKeys.png" width="11px" height="12px" preserveAspectRatio="xMinYMin meet" x="555.5" y="-887.597"/>
<text text-anchor="start" x="569.4021" y="-877.6972" font-family="Helvetica,sans-Serif" font-size="11.00" fill="#000000">受注番号</text>
<polygon fill="#ffffff" stroke="transparent" points="550.5,-848.5972 550.5,-870.5972 617.5,-870.5972 617.5,-848.5972 550.5,-848.5972"/>
<polygon fill="none" stroke="#000000" points="550.5,-848.5972 550.5,-870.5972 617.5,-870.5972 617.5,-848.5972 550.5,-848.5972"/>
<text text-anchor="start" x="570.5" y="-855.6972" font-family="Helvetica,sans-Serif" font-size="11.00" fill="#000000">受注日</text>
<polygon fill="none" stroke="#000000" points="550.5,-826.5972 550.5,-848.5972 617.5,-848.5972 617.5,-826.5972 550.5,-826.5972"/>
<image xlink:href="../../images/foreignKeys.png" width="11px" height="12px" preserveAspectRatio="xMinYMin meet" x="555.5" y="-843.597"/>
<text text-anchor="start" x="554.5257" y="-833.6972" font-family="Helvetica,sans-Serif" font-size="11.00" fill="#000000">部門コード</text>
<polygon fill="none" stroke="#000000" points="550.5,-804.5972 550.5,-826.5972 617.5,-826.5972 617.5,-804.5972 550.5,-804.5972"/>
<image xlink:href="../../images/foreignKeys.png" width="11px" height="12px" preserveAspectRatio="xMinYMin meet" x="555.5" y="-821.597"/>
<text text-anchor="start" x="570.5" y="-811.6972" font-family="Helvetica,sans-Serif" font-size="11.00" fill="#000000">開始日</text>
<polygon fill="#ffffff" stroke="transparent" points="550.5,-782.5972 550.5,-804.5972 617.5,-804.5972 617.5,-782.5972 550.5,-782.5972"/>
<polygon fill="none" stroke="#000000" points="550.5,-782.5972 550.5,-804.5972 617.5,-804.5972 617.5,-782.5972 550.5,-782.5972"/>
<image xlink:href="../../images/foreignKeys.png" width="11px" height="12px" preserveAspectRatio="xMinYMin meet" x="555.5" y="-799.597"/>
<text text-anchor="start" x="554.2227" y="-789.6972" font-family="Helvetica,sans-Serif" font-size="11.00" fill="#000000">顧客コード</text>
<polygon fill="#ffffff" stroke="transparent" points="550.5,-760.5972 550.5,-782.5972 617.5,-782.5972 617.5,-760.5972 550.5,-760.5972"/>
<polygon fill="none" stroke="#000000" points="550.5,-760.5972 550.5,-782.5972 617.5,-782.5972 617.5,-760.5972 550.5,-760.5972"/>
<image xlink:href="../../images/foreignKeys.png" width="11px" height="12px" preserveAspectRatio="xMinYMin meet" x="555.5" y="-777.597"/>
<text text-anchor="start" x="565.5241" y="-767.6972" font-family="Helvetica,sans-Serif" font-size="11.00" fill="#000000">顧客枝番</text>
<polygon fill="#ffffff" stroke="transparent" points="550.5,-738.5972 550.5,-760.5972 617.5,-760.5972 617.5,-738.5972 550.5,-738.5972"/>
<polygon fill="none" stroke="#000000" points="550.5,-738.5972 550.5,-760.5972 617.5,-760.5972 617.5,-738.5972 550.5,-738.5972"/>
<image xlink:href="../../images/foreignKeys.png" width="11px" height="12px" preserveAspectRatio="xMinYMin meet" x="555.5" y="-755.597"/>
<text text-anchor="start" x="561.8627" y="-745.6972" font-family="Helvetica,sans-Serif" font-size="11.00" fill="#000000">社員コード</text>
<polygon fill="none" stroke="#000000" points="550.5,-716.5972 550.5,-738.5972 617.5,-738.5972 617.5,-716.5972 550.5,-716.5972"/>
<image xlink:href="../../images/foreignKeys.png" width="11px" height="12px" preserveAspectRatio="xMinYMin meet" x="555.5" y="-733.597"/>
<text text-anchor="start" x="559.7232" y="-723.6972" font-family="Helvetica,sans-Serif" font-size="11.00" fill="#000000">倉庫コード</text>
<polygon fill="none" stroke="#000000" points="550.5,-697.5972 550.5,-716.5972 617.5,-716.5972 617.5,-697.5972 550.5,-697.5972"/>
<text text-anchor="start" x="553.5" y="-703.6972" font-family="Helvetica,sans-Serif" font-size="11.00" fill="#000000">...</text>
<polygon fill="#ffffff" stroke="transparent" points="550.5,-678.5972 550.5,-697.5972 617.5,-697.5972 617.5,-678.5972 550.5,-678.5972"/>
<polygon fill="none" stroke="#000000" points="550.5,-678.5972 550.5,-697.5972 617.5,-697.5972 617.5,-678.5972 550.5,-678.5972"/>
<polygon fill="#ffffff" stroke="transparent" points="551.5,-679.5972 551.5,-696.5972 576.5,-696.5972 576.5,-679.5972 551.5,-679.5972"/>
<text text-anchor="start" x="553.5" y="-684.6972" font-family="Helvetica,sans-Serif" font-size="11.00" fill="#000000">&lt; 6</text>
<polygon fill="#ffffff" stroke="transparent" points="576.5,-679.5972 576.5,-696.5972 592.5,-696.5972 592.5,-679.5972 576.5,-679.5972"/>
<text text-anchor="start" x="581.4431" y="-684.6972" font-family="Helvetica,sans-Serif" font-size="11.00" fill="#000000"> &#160;</text>
<polygon fill="#ffffff" stroke="transparent" points="592.5,-679.5972 592.5,-696.5972 616.5,-696.5972 616.5,-679.5972 592.5,-679.5972"/>
<text text-anchor="start" x="598.9053" y="-684.6972" font-family="Helvetica,sans-Serif" font-size="11.00" fill="#000000">2 &gt;</text>
<polygon fill="#000000" stroke="#000000" points="576.5,-679.5972 576.5,-696.5972 576.5,-696.5972 576.5,-679.5972 576.5,-679.5972"/>
<polygon fill="#000000" stroke="#000000" points="592.5,-679.5972 592.5,-696.5972 592.5,-696.5972 592.5,-679.5972 592.5,-679.5972"/>
</a>
</g>
</g>
<!-- 倉庫マスタ -->
<g id="node6" class="node">
<title>倉庫マスタ</title>
<g id="a_node6"><a xlink:href="../../tables/______939d4982.html" xlink:title="倉庫マスタ" target="_top">
<polygon fill="#ffffff" stroke="transparent" points="372.5,-80.0972 372.5,-141.0972 450.5,-141.0972 450.5,-80.0972 372.5,-80.0972"/>
<polygon fill="#f5f5f5" stroke="transparent" points="372.5,-117.5972 372.5,-140.5972 450.5,-140.5972 450.5,-117.5972 372.5,-117.5972"/>
<polygon fill="none" stroke="#000000" points="372.5,-117.5972 372.5,-140.5972 450.5,-140.5972 450.5,-117.5972 372.5,-117.5972"/>
<text text-anchor="start" x="366.5898" y="-126.1972" font-family="Helvetica,sans-Serif" font-weight="bold" font-size="11.00" fill="#000000">倉庫マスタ</text>
<text text-anchor="start" x="416.0219" y="-125.6972" font-family="Helvetica,sans-Serif" font-size="11.00" fill="#000000">[table]</text>
<polygon fill="none" stroke="#000000" points="372.5,-98.5972 372.5,-117.5972 450.5,-117.5972 450.5,-98.5972 372.5,-98.5972"/>
<text text-anchor="start" x="375.5" y="-104.6972" font-family="Helvetica,sans-Serif" font-size="11.00" fill="#000000">...</text>
<polygon fill="#ffffff" stroke="transparent" points="372.5,-79.5972 372.5,-98.5972 450.5,-98.5972 450.5,-79.5972 372.5,-79.5972"/>
<polygon fill="none" stroke="#000000" points="372.5,-79.5972 372.5,-98.5972 450.5,-98.5972 450.5,-79.5972 372.5,-79.5972"/>
<polygon fill="#ffffff" stroke="transparent" points="373.5,-80.5972 373.5,-97.5972 396.5,-97.5972 396.5,-80.5972 373.5,-80.5972"/>
<text text-anchor="start" x="375.5" y="-85.6972" font-family="Helvetica,sans-Serif" font-size="11.00" fill="#000000"> &#160;</text>
<polygon fill="#ffffff" stroke="transparent" points="396.5,-80.5972 396.5,-97.5972 418.5,-97.5972 418.5,-80.5972 396.5,-80.5972"/>
<text text-anchor="start" x="404.4431" y="-85.6972" font-family="Helvetica,sans-Serif" font-size="11.00" fill="#000000"> &#160;</text>
<polygon fill="#ffffff" stroke="transparent" points="418.5,-80.5972 418.5,-97.5972 449.5,-97.5972 449.5,-80.5972 418.5,-80.5972"/>
<text text-anchor="start" x="431.9053" y="-85.6972" font-family="Helvetica,sans-Serif" font-size="11.00" fill="#000000">2 &gt;</text>
<polygon fill="#000000" stroke="#000000" points="396.5,-80.5972 396.5,-97.5972 396.5,-97.5972 396.5,-80.5972 396.5,-80.5972"/>
<polygon fill="#000000" stroke="#000000" points="418.5,-80.5972 418.5,-97.5972 418.5,-97.5972 418.5,-80.5972 418.5,-80.5972"/>
</a>
</g>
</g>
<!-- 受注&#45;&gt;倉庫マスタ -->
<g id="edge4" class="edge">
<title>受注:w&#45;&gt;倉庫マスタ:e</title>
<path fill="none" stroke="#000000" stroke-dasharray="5,2" d="M538.3544,-719.8267C493.6084,-654.9102 537.4836,-203.8693 509,-151.5972 493.4333,-123.0298 483.0334,-107.5972 450.5,-107.5972"/>
<polygon fill="#000000" stroke="#000000" points="543.7611,-723.2858 548.5599,-730.6297 547.1306,-725.4415 550.5,-727.5972 550.5,-727.5972 550.5,-727.5972 547.1306,-725.4415 552.4401,-724.5647 543.7611,-723.2858 543.7611,-723.2858"/>
<ellipse fill="none" stroke="#000000" cx="541.0656" cy="-721.5613" rx="3.2" ry="3.2"/>
</g>
<!-- 社員マスタ -->
<g id="node7" class="node">
<title>社員マスタ</title>
<g id="a_node7"><a xlink:href="../../tables/______d3d8a641.html" xlink:title="社員マスタ" target="_top">
<polygon fill="#ffffff" stroke="transparent" points="372.5,-162.0972 372.5,-223.0972 450.5,-223.0972 450.5,-162.0972 372.5,-162.0972"/>
<polygon fill="#f5f5f5" stroke="transparent" points="372.5,-199.5972 372.5,-222.5972 450.5,-222.5972 450.5,-199.5972 372.5,-199.5972"/>
<polygon fill="none" stroke="#000000" points="372.5,-199.5972 372.5,-222.5972 450.5,-222.5972 450.5,-199.5972 372.5,-199.5972"/>
<text text-anchor="start" x="368.7293" y="-208.1972" font-family="Helvetica,sans-Serif" font-weight="bold" font-size="11.00" fill="#000000">社員マスタ</text>
<text text-anchor="start" x="416.0219" y="-207.6972" font-family="Helvetica,sans-Serif" font-size="11.00" fill="#000000">[table]</text>
<polygon fill="none" stroke="#000000" points="372.5,-180.5972 372.5,-199.5972 450.5,-199.5972 450.5,-180.5972 372.5,-180.5972"/>
<text text-anchor="start" x="375.5" y="-186.6972" font-family="Helvetica,sans-Serif" font-size="11.00" fill="#000000">...</text>
<polygon fill="#ffffff" stroke="transparent" points="372.5,-161.5972 372.5,-180.5972 450.5,-180.5972 450.5,-161.5972 372.5,-161.5972"/>
<polygon fill="none" stroke="#000000" points="372.5,-161.5972 372.5,-180.5972 450.5,-180.5972 450.5,-161.5972 372.5,-161.5972"/>
<polygon fill="#ffffff" stroke="transparent" points="373.5,-162.5972 373.5,-179.5972 402.5,-179.5972 402.5,-162.5972 373.5,-162.5972"/>
<text text-anchor="start" x="375.5" y="-167.6972" font-family="Helvetica,sans-Serif" font-size="11.00" fill="#000000">&lt; 1</text>
<polygon fill="#ffffff" stroke="transparent" points="402.5,-162.5972 402.5,-179.5972 421.5,-179.5972 421.5,-162.5972 402.5,-162.5972"/>
<text text-anchor="start" x="408.9431" y="-167.6972" font-family="Helvetica,sans-Serif" font-size="11.00" fill="#000000"> &#160;</text>
<polygon fill="#ffffff" stroke="transparent" points="421.5,-162.5972 421.5,-179.5972 449.5,-179.5972 449.5,-162.5972 421.5,-162.5972"/>
<text text-anchor="start" x="431.9053" y="-167.6972" font-family="Helvetica,sans-Serif" font-size="11.00" fill="#000000">1 &gt;</text>
<polygon fill="#000000" stroke="#000000" points="402.5,-162.5972 402.5,-179.5972 402.5,-179.5972 402.5,-162.5972 402.5,-162.5972"/>
<polygon fill="#000000" stroke="#000000" points="421.5,-162.5972 421.5,-179.5972 421.5,-179.5972 421.5,-162.5972 421.5,-162.5972"/>
</a>
</g>
</g>
<!-- 受注&#45;&gt;社員マスタ -->
<g id="edge5" class="edge">
<title>受注:w&#45;&gt;社員マスタ:e</title>
<path fill="none" stroke="#000000" d="M538.5415,-741.0924C499.53,-677.6897 534.511,-279.9536 509,-233.5972 493.3145,-205.0949 483.0334,-189.5972 450.5,-189.5972"/>
<polygon fill="#000000" stroke="#000000" points="543.9806,-744.9606 548.4135,-752.5309 547.2403,-747.2789 550.5,-749.5972 550.5,-749.5972 550.5,-749.5972 547.2403,-747.2789 552.5865,-746.6635 543.9806,-744.9606 543.9806,-744.9606"/>
<ellipse fill="none" stroke="#000000" cx="541.3729" cy="-743.106" rx="3.2" ry="3.2"/>
</g>
<!-- 部門マスタ -->
<g id="node8" class="node">
<title>部門マスタ</title>
<g id="a_node8"><a xlink:href="../../tables/______3eb0dfec.html" xlink:title="部門マスタ" target="_top">
<polygon fill="#ffffff" stroke="transparent" points="184.5,-162.0972 184.5,-223.0972 262.5,-223.0972 262.5,-162.0972 184.5,-162.0972"/>
<polygon fill="#f5f5f5" stroke="transparent" points="184.5,-199.5972 184.5,-222.5972 262.5,-222.5972 262.5,-199.5972 184.5,-199.5972"/>
<polygon fill="none" stroke="#000000" points="184.5,-199.5972 184.5,-222.5972 262.5,-222.5972 262.5,-199.5972 184.5,-199.5972"/>
<text text-anchor="start" x="173.3923" y="-208.1972" font-family="Helvetica,sans-Serif" font-weight="bold" font-size="11.00" fill="#000000">部門マスタ</text>
<text text-anchor="start" x="228.0219" y="-207.6972" font-family="Helvetica,sans-Serif" font-size="11.00" fill="#000000">[table]</text>
<polygon fill="none" stroke="#000000" points="184.5,-180.5972 184.5,-199.5972 262.5,-199.5972 262.5,-180.5972 184.5,-180.5972"/>
<text text-anchor="start" x="187.5" y="-186.6972" font-family="Helvetica,sans-Serif" font-size="11.00" fill="#000000">...</text>
<polygon fill="#ffffff" stroke="transparent" points="184.5,-161.5972 184.5,-180.5972 262.5,-180.5972 262.5,-161.5972 184.5,-161.5972"/>
<polygon fill="none" stroke="#000000" points="184.5,-161.5972 184.5,-180.5972 262.5,-180.5972 262.5,-161.5972 184.5,-161.5972"/>
<polygon fill="#ffffff" stroke="transparent" points="185.5,-162.5972 185.5,-179.5972 208.5,-179.5972 208.5,-162.5972 185.5,-162.5972"/>
<text text-anchor="start" x="187.5" y="-167.6972" font-family="Helvetica,sans-Serif" font-size="11.00" fill="#000000"> &#160;</text>
<polygon fill="#ffffff" stroke="transparent" points="208.5,-162.5972 208.5,-179.5972 230.5,-179.5972 230.5,-162.5972 208.5,-162.5972"/>
<text text-anchor="start" x="216.4431" y="-167.6972" font-family="Helvetica,sans-Serif" font-size="11.00" fill="#000000"> &#160;</text>
<polygon fill="#ffffff" stroke="transparent" points="230.5,-162.5972 230.5,-179.5972 261.5,-179.5972 261.5,-162.5972 230.5,-162.5972"/>
<text text-anchor="start" x="243.9053" y="-167.6972" font-family="Helvetica,sans-Serif" font-size="11.00" fill="#000000">5 &gt;</text>
<polygon fill="#000000" stroke="#000000" points="208.5,-162.5972 208.5,-179.5972 208.5,-179.5972 208.5,-162.5972 208.5,-162.5972"/>
<polygon fill="#000000" stroke="#000000" points="230.5,-162.5972 230.5,-179.5972 230.5,-179.5972 230.5,-162.5972 230.5,-162.5972"/>
</a>
</g>
</g>
<!-- 受注&#45;&gt;部門マスタ -->
<g id="edge6" class="edge">
<title>受注:w&#45;&gt;部門マスタ:e</title>
<path fill="none" stroke="#000000" d="M536.4596,-842.4541C524.2059,-854.3492 531.6733,-884.8249 509,-896.5972 470.5416,-916.5653 345.7348,-926.1045 314,-896.5972 256.318,-842.9641 341.2637,-189.5972 262.5,-189.5972"/>
<polygon fill="#000000" stroke="#000000" points="542.9396,-840.2126 551.6769,-840.9994 546.7198,-838.9049 550.5,-837.5972 550.5,-837.5972 550.5,-837.5972 546.7198,-838.9049 549.3231,-834.195 542.9396,-840.2126 542.9396,-840.2126"/>
<ellipse fill="none" stroke="#000000" cx="539.9154" cy="-841.2587" rx="3.2" ry="3.2"/>
</g>
<!-- 受注&#45;&gt;部門マスタ -->
<g id="edge7" class="edge">
<title>受注:w&#45;&gt;部門マスタ:e</title>
<path fill="none" stroke="#000000" d="M536.6876,-820.2953C524.4951,-831.8006 531.2552,-861.2716 509,-872.5972 470.3799,-892.2508 345.7724,-902.0641 314,-872.5972 258.1997,-820.846 338.6043,-189.5972 262.5,-189.5972"/>
<polygon fill="#000000" stroke="#000000" points="542.9261,-818.1734 551.6593,-819.0055 546.7131,-816.8853 550.5,-815.5972 550.5,-815.5972 550.5,-815.5972 546.7131,-816.8853 549.3407,-812.189 542.9261,-818.1734 542.9261,-818.1734"/>
<ellipse fill="none" stroke="#000000" cx="539.8966" cy="-819.2039" rx="3.2" ry="3.2"/>
</g>
<!-- 顧客マスタ -->
<g id="node9" class="node">
<title>顧客マスタ</title>
<g id="a_node9"><a xlink:href="../../tables/______8e04fe89.html" xlink:title="顧客マスタ" target="_top">
<polygon fill="#ffffff" stroke="transparent" points="322,-244.5972 322,-862.5972 501,-862.5972 501,-244.5972 322,-244.5972"/>
<polygon fill="#f5f5f5" stroke="transparent" points="324.5,-837.5972 324.5,-860.5972 499.5,-860.5972 499.5,-837.5972 324.5,-837.5972"/>
<polygon fill="none" stroke="#000000" points="324.5,-837.5972 324.5,-860.5972 499.5,-860.5972 499.5,-837.5972 324.5,-837.5972"/>
<text text-anchor="start" x="313.0892" y="-846.1972" font-family="Helvetica,sans-Serif" font-weight="bold" font-size="11.00" fill="#000000">顧客マスタ</text>
<text text-anchor="start" x="464.5437" y="-845.6972" font-family="Helvetica,sans-Serif" font-size="11.00" fill="#000000">[table]</text>
<polygon fill="none" stroke="#000000" points="324.5,-815.5972 324.5,-837.5972 415.5,-837.5972 415.5,-815.5972 324.5,-815.5972"/>
<image xlink:href="../../images/primaryKeys.png" width="11px" height="12px" preserveAspectRatio="xMinYMin meet" x="329.5" y="-832.597"/>
<text text-anchor="start" x="340.2227" y="-822.6972" font-family="Helvetica,sans-Serif" font-size="11.00" fill="#000000">顧客コード</text>
<polygon fill="none" stroke="#000000" points="415.5,-815.5972 415.5,-837.5972 499.5,-837.5972 499.5,-815.5972 415.5,-815.5972"/>
<text text-anchor="start" x="418.5" y="-823.2972" font-family="Helvetica,sans-Serif" font-size="11.00" fill="#000000">varchar[8]</text>
<polygon fill="none" stroke="#000000" points="324.5,-793.5972 324.5,-815.5972 415.5,-815.5972 415.5,-793.5972 324.5,-793.5972"/>
<image xlink:href="../../images/primaryKeys.png" width="11px" height="12px" preserveAspectRatio="xMinYMin meet" x="329.5" y="-810.597"/>
<text text-anchor="start" x="344.5" y="-800.6972" font-family="Helvetica,sans-Serif" font-size="11.00" fill="#000000">顧客枝番</text>
<polygon fill="none" stroke="#000000" points="415.5,-793.5972 415.5,-815.5972 499.5,-815.5972 499.5,-793.5972 415.5,-793.5972"/>
<text text-anchor="start" x="418.5" y="-801.2972" font-family="Helvetica,sans-Serif" font-size="11.00" fill="#000000">int4[10]</text>
<polygon fill="none" stroke="#000000" points="324.5,-771.5972 324.5,-793.5972 415.5,-793.5972 415.5,-771.5972 324.5,-771.5972"/>
<text text-anchor="start" x="344.5" y="-778.6972" font-family="Helvetica,sans-Serif" font-size="11.00" fill="#000000">顧客区分</text>
<polygon fill="none" stroke="#000000" points="415.5,-771.5972 415.5,-793.5972 499.5,-793.5972 499.5,-771.5972 415.5,-771.5972"/>
<text text-anchor="start" x="418.5" y="-779.2972" font-family="Helvetica,sans-Serif" font-size="11.00" fill="#000000">int4[10]</text>
<polygon fill="none" stroke="#000000" points="324.5,-749.5972 324.5,-771.5972 415.5,-771.5972 415.5,-749.5972 324.5,-749.5972"/>
<text text-anchor="start" x="338.3823" y="-756.6972" font-family="Helvetica,sans-Serif" font-size="11.00" fill="#000000">請求先コード</text>
<polygon fill="none" stroke="#000000" points="415.5,-749.5972 415.5,-771.5972 499.5,-771.5972 499.5,-749.5972 415.5,-749.5972"/>
<text text-anchor="start" x="418.5" y="-757.2972" font-family="Helvetica,sans-Serif" font-size="11.00" fill="#000000">varchar[8]</text>
<polygon fill="none" stroke="#000000" points="324.5,-727.5972 324.5,-749.5972 415.5,-749.5972 415.5,-727.5972 324.5,-727.5972"/>
<text text-anchor="start" x="344.5" y="-734.6972" font-family="Helvetica,sans-Serif" font-size="11.00" fill="#000000">請求先枝番</text>
<polygon fill="none" stroke="#000000" points="415.5,-727.5972 415.5,-749.5972 499.5,-749.5972 499.5,-727.5972 415.5,-727.5972"/>
<text text-anchor="start" x="418.5" y="-735.2972" font-family="Helvetica,sans-Serif" font-size="11.00" fill="#000000">int4[10]</text>
<polygon fill="none" stroke="#000000" points="324.5,-705.5972 324.5,-727.5972 415.5,-727.5972 415.5,-705.5972 324.5,-705.5972"/>
<text text-anchor="start" x="342.9694" y="-712.6972" font-family="Helvetica,sans-Serif" font-size="11.00" fill="#000000">回収先コード</text>
<polygon fill="none" stroke="#000000" points="415.5,-705.5972 415.5,-727.5972 499.5,-727.5972 499.5,-705.5972 415.5,-705.5972"/>
<text text-anchor="start" x="418.5" y="-713.2972" font-family="Helvetica,sans-Serif" font-size="11.00" fill="#000000">varchar[8]</text>
<polygon fill="none" stroke="#000000" points="324.5,-683.5972 324.5,-705.5972 415.5,-705.5972 415.5,-683.5972 324.5,-683.5972"/>
<text text-anchor="start" x="344.5" y="-690.6972" font-family="Helvetica,sans-Serif" font-size="11.00" fill="#000000">回収先枝番</text>
<polygon fill="none" stroke="#000000" points="415.5,-683.5972 415.5,-705.5972 499.5,-705.5972 499.5,-683.5972 415.5,-683.5972"/>
<text text-anchor="start" x="418.5" y="-691.2972" font-family="Helvetica,sans-Serif" font-size="11.00" fill="#000000">int4[10]</text>
<polygon fill="none" stroke="#000000" points="324.5,-661.5972 324.5,-683.5972 415.5,-683.5972 415.5,-661.5972 324.5,-661.5972"/>
<text text-anchor="start" x="344.5" y="-668.6972" font-family="Helvetica,sans-Serif" font-size="11.00" fill="#000000">顧客名</text>
<polygon fill="none" stroke="#000000" points="415.5,-661.5972 415.5,-683.5972 499.5,-683.5972 499.5,-661.5972 415.5,-661.5972"/>
<text text-anchor="start" x="418.5" y="-669.2972" font-family="Helvetica,sans-Serif" font-size="11.00" fill="#000000">varchar[40]</text>
<polygon fill="none" stroke="#000000" points="324.5,-639.5972 324.5,-661.5972 415.5,-661.5972 415.5,-639.5972 324.5,-639.5972"/>
<text text-anchor="start" x="344.5" y="-646.6972" font-family="Helvetica,sans-Serif" font-size="11.00" fill="#000000">顧客名カナ</text>
<polygon fill="none" stroke="#000000" points="415.5,-639.5972 415.5,-661.5972 499.5,-661.5972 499.5,-639.5972 415.5,-639.5972"/>
<text text-anchor="start" x="418.5" y="-647.2972" font-family="Helvetica,sans-Serif" font-size="11.00" fill="#000000">varchar[40]</text>
<polygon fill="none" stroke="#000000" points="324.5,-617.5972 324.5,-639.5972 415.5,-639.5972 415.5,-617.5972 324.5,-617.5972"/>
<text text-anchor="start" x="334.7205" y="-624.6972" font-family="Helvetica,sans-Serif" font-size="11.00" fill="#000000">担当社員コード</text>
<polygon fill="none" stroke="#000000" points="415.5,-617.5972 415.5,-639.5972 499.5,-639.5972 499.5,-617.5972 415.5,-617.5972"/>
<text text-anchor="start" x="418.5" y="-625.2972" font-family="Helvetica,sans-Serif" font-size="11.00" fill="#000000">varchar[10]</text>
<polygon fill="none" stroke="#000000" points="324.5,-595.5972 324.5,-617.5972 415.5,-617.5972 415.5,-595.5972 324.5,-595.5972"/>
<text text-anchor="start" x="337.1553" y="-602.6972" font-family="Helvetica,sans-Serif" font-size="11.00" fill="#000000">顧客担当者名</text>
<polygon fill="none" stroke="#000000" points="415.5,-595.5972 415.5,-617.5972 499.5,-617.5972 499.5,-595.5972 415.5,-595.5972"/>
<text text-anchor="start" x="418.5" y="-603.2972" font-family="Helvetica,sans-Serif" font-size="11.00" fill="#000000">varchar[40]</text>
<polygon fill="none" stroke="#000000" points="324.5,-573.5972 324.5,-595.5972 415.5,-595.5972 415.5,-573.5972 324.5,-573.5972"/>
<text text-anchor="start" x="324.3194" y="-580.6972" font-family="Helvetica,sans-Serif" font-size="11.00" fill="#000000">顧客担当部署名</text>
<polygon fill="none" stroke="#000000" points="415.5,-573.5972 415.5,-595.5972 499.5,-595.5972 499.5,-573.5972 415.5,-573.5972"/>
<text text-anchor="start" x="418.5" y="-581.2972" font-family="Helvetica,sans-Serif" font-size="11.00" fill="#000000">varchar[40]</text>
<polygon fill="none" stroke="#000000" points="324.5,-551.5972 324.5,-573.5972 415.5,-573.5972 415.5,-551.5972 324.5,-551.5972"/>
<text text-anchor="start" x="337.3759" y="-558.6972" font-family="Helvetica,sans-Serif" font-size="11.00" fill="#000000">顧客郵便番号</text>
<polygon fill="none" stroke="#000000" points="415.5,-551.5972 415.5,-573.5972 499.5,-573.5972 499.5,-551.5972 415.5,-551.5972"/>
<text text-anchor="start" x="418.5" y="-559.2972" font-family="Helvetica,sans-Serif" font-size="11.00" fill="#000000">bpchar[8]</text>
<polygon fill="none" stroke="#000000" points="324.5,-529.5972 324.5,-551.5972 415.5,-551.5972 415.5,-529.5972 324.5,-529.5972"/>
<text text-anchor="start" x="332.8818" y="-536.6972" font-family="Helvetica,sans-Serif" font-size="11.00" fill="#000000">顧客都道府県</text>
<polygon fill="none" stroke="#000000" points="415.5,-529.5972 415.5,-551.5972 499.5,-551.5972 499.5,-529.5972 415.5,-529.5972"/>
<text text-anchor="start" x="418.5" y="-537.2972" font-family="Helvetica,sans-Serif" font-size="11.00" fill="#000000">varchar[4]</text>
<polygon fill="none" stroke="#000000" points="324.5,-507.5972 324.5,-529.5972 415.5,-529.5972 415.5,-507.5972 324.5,-507.5972"/>
<text text-anchor="start" x="339.2981" y="-514.6972" font-family="Helvetica,sans-Serif" font-size="11.00" fill="#000000">顧客住所１</text>
<polygon fill="none" stroke="#000000" points="415.5,-507.5972 415.5,-529.5972 499.5,-529.5972 499.5,-507.5972 415.5,-507.5972"/>
<text text-anchor="start" x="418.5" y="-515.2972" font-family="Helvetica,sans-Serif" font-size="11.00" fill="#000000">varchar[40]</text>
<polygon fill="none" stroke="#000000" points="324.5,-485.5972 324.5,-507.5972 415.5,-507.5972 415.5,-485.5972 324.5,-485.5972"/>
<text text-anchor="start" x="335.0988" y="-492.6972" font-family="Helvetica,sans-Serif" font-size="11.00" fill="#000000">顧客電話番号</text>
<polygon fill="none" stroke="#000000" points="415.5,-485.5972 415.5,-507.5972 499.5,-507.5972 499.5,-485.5972 415.5,-485.5972"/>
<text text-anchor="start" x="418.5" y="-493.2972" font-family="Helvetica,sans-Serif" font-size="11.00" fill="#000000">varchar[13]</text>
<polygon fill="none" stroke="#000000" points="324.5,-463.5972 324.5,-485.5972 415.5,-485.5972 415.5,-463.5972 324.5,-463.5972"/>
<text text-anchor="start" x="317.4208" y="-470.6972" font-family="Helvetica,sans-Serif" font-size="11.00" fill="#000000">顧客メールアドレス</text>
<polygon fill="none" stroke="#000000" points="415.5,-463.5972 415.5,-485.5972 499.5,-485.5972 499.5,-463.5972 415.5,-463.5972"/>
<text text-anchor="start" x="418.5" y="-471.2972" font-family="Helvetica,sans-Serif" font-size="11.00" fill="#000000">varchar[40]</text>
<polygon fill="none" stroke="#000000" points="324.5,-441.5972 324.5,-463.5972 415.5,-463.5972 415.5,-441.5972 324.5,-441.5972"/>
<text text-anchor="start" x="341.3447" y="-448.6972" font-family="Helvetica,sans-Serif" font-size="11.00" fill="#000000">顧客締日１</text>
<polygon fill="none" stroke="#000000" points="415.5,-441.5972 415.5,-463.5972 499.5,-463.5972 499.5,-441.5972 415.5,-441.5972"/>
<text text-anchor="start" x="418.5" y="-449.2972" font-family="Helvetica,sans-Serif" font-size="11.00" fill="#000000">int4[10]</text>
<polygon fill="none" stroke="#000000" points="324.5,-419.5972 324.5,-441.5972 415.5,-441.5972 415.5,-419.5972 324.5,-419.5972"/>
<text text-anchor="start" x="332.8774" y="-426.6972" font-family="Helvetica,sans-Serif" font-size="11.00" fill="#000000">顧客支払月数１</text>
<polygon fill="none" stroke="#000000" points="415.5,-419.5972 415.5,-441.5972 499.5,-441.5972 499.5,-419.5972 415.5,-419.5972"/>
<text text-anchor="start" x="418.5" y="-427.2972" font-family="Helvetica,sans-Serif" font-size="11.00" fill="#000000">int4[10]</text>
<polygon fill="none" stroke="#000000" points="324.5,-397.5972 324.5,-419.5972 415.5,-419.5972 415.5,-397.5972 324.5,-397.5972"/>
<text text-anchor="start" x="335.9338" y="-404.6972" font-family="Helvetica,sans-Serif" font-size="11.00" fill="#000000">顧客支払日１</text>
<polygon fill="none" stroke="#000000" points="415.5,-397.5972 415.5,-419.5972 499.5,-419.5972 499.5,-397.5972 415.5,-397.5972"/>
<text text-anchor="start" x="418.5" y="-405.2972" font-family="Helvetica,sans-Serif" font-size="11.00" fill="#000000">int4[10]</text>
<polygon fill="none" stroke="#000000" points="324.5,-375.5972 324.5,-397.5972 415.5,-397.5972 415.5,-375.5972 324.5,-375.5972"/>
<text text-anchor="start" x="331.0459" y="-382.6972" font-family="Helvetica,sans-Serif" font-size="11.00" fill="#000000">顧客支払方法１</text>
<polygon fill="none" stroke="#000000" points="415.5,-375.5972 415.5,-397.5972 499.5,-397.5972 499.5,-375.5972 415.5,-375.5972"/>
<text text-anchor="start" x="418.5" y="-383.2972" font-family="Helvetica,sans-Serif" font-size="11.00" fill="#000000">int4[10]</text>
<polygon fill="none" stroke="#000000" points="324.5,-353.5972 324.5,-375.5972 415.5,-375.5972 415.5,-353.5972 324.5,-353.5972"/>
<text text-anchor="start" x="341.3447" y="-360.6972" font-family="Helvetica,sans-Serif" font-size="11.00" fill="#000000">顧客締日２</text>
<polygon fill="none" stroke="#000000" points="415.5,-353.5972 415.5,-375.5972 499.5,-375.5972 499.5,-353.5972 415.5,-353.5972"/>
<text text-anchor="start" x="418.5" y="-361.2972" font-family="Helvetica,sans-Serif" font-size="11.00" fill="#000000">int4[10]</text>
<polygon fill="none" stroke="#000000" points="324.5,-331.5972 324.5,-353.5972 415.5,-353.5972 415.5,-331.5972 324.5,-331.5972"/>
<text text-anchor="start" x="344.5" y="-338.6972" font-family="Helvetica,sans-Serif" font-size="11.00" fill="#000000">作成日時</text>
<polygon fill="none" stroke="#000000" points="415.5,-331.5972 415.5,-353.5972 499.5,-353.5972 499.5,-331.5972 415.5,-331.5972"/>
<text text-anchor="start" x="418.3807" y="-339.2972" font-family="Helvetica,sans-Serif" font-size="11.00" fill="#000000">timestamp[29,6]</text>
<polygon fill="none" stroke="#000000" points="324.5,-309.5972 324.5,-331.5972 415.5,-331.5972 415.5,-309.5972 324.5,-309.5972"/>
<text text-anchor="start" x="344.5" y="-316.6972" font-family="Helvetica,sans-Serif" font-size="11.00" fill="#000000">作成者名</text>
<polygon fill="none" stroke="#000000" points="415.5,-309.5972 415.5,-331.5972 499.5,-331.5972 499.5,-309.5972 415.5,-309.5972"/>
<text text-anchor="start" x="418.5" y="-317.2972" font-family="Helvetica,sans-Serif" font-size="11.00" fill="#000000">varchar[12]</text>
<polygon fill="none" stroke="#000000" points="324.5,-287.5972 324.5,-309.5972 415.5,-309.5972 415.5,-287.5972 324.5,-287.5972"/>
<text text-anchor="start" x="344.5" y="-294.6972" font-family="Helvetica,sans-Serif" font-size="11.00" fill="#000000">更新日時</text>
<polygon fill="none" stroke="#000000" points="415.5,-287.5972 415.5,-309.5972 499.5,-309.5972 499.5,-287.5972 415.5,-287.5972"/>
<text text-anchor="start" x="418.3807" y="-295.2972" font-family="Helvetica,sans-Serif" font-size="11.00" fill="#000000">timestamp[29,6]</text>
<polygon fill="none" stroke="#000000" points="324.5,-265.5972 324.5,-287.5972 415.5,-287.5972 415.5,-265.5972 324.5,-265.5972"/>
<text text-anchor="start" x="344.5" y="-272.6972" font-family="Helvetica,sans-Serif" font-size="11.00" fill="#000000">更新者名</text>
<polygon fill="none" stroke="#000000" points="415.5,-265.5972 415.5,-287.5972 499.5,-287.5972 499.5,-265.5972 415.5,-265.5972"/>
<text text-anchor="start" x="418.5" y="-273.2972" font-family="Helvetica,sans-Serif" font-size="11.00" fill="#000000">varchar[12]</text>
<polygon fill="#ffffff" stroke="transparent" points="324.5,-246.5972 324.5,-265.5972 499.5,-265.5972 499.5,-246.5972 324.5,-246.5972"/>
<polygon fill="none" stroke="#000000" points="324.5,-246.5972 324.5,-265.5972 499.5,-265.5972 499.5,-246.5972 324.5,-246.5972"/>
<polygon fill="#ffffff" stroke="transparent" points="325.5,-247.5972 325.5,-264.5972 386.5,-264.5972 386.5,-247.5972 325.5,-247.5972"/>
<text text-anchor="start" x="327.5" y="-252.6972" font-family="Helvetica,sans-Serif" font-size="11.00" fill="#000000">&lt; 1</text>
<polygon fill="#ffffff" stroke="transparent" points="386.5,-247.5972 386.5,-264.5972 438.5,-264.5972 438.5,-247.5972 386.5,-247.5972"/>
<text text-anchor="start" x="409.4431" y="-252.6972" font-family="Helvetica,sans-Serif" font-size="11.00" fill="#000000"> &#160;</text>
<polygon fill="#ffffff" stroke="transparent" points="438.5,-247.5972 438.5,-264.5972 498.5,-264.5972 498.5,-247.5972 438.5,-247.5972"/>
<text text-anchor="start" x="480.9053" y="-252.6972" font-family="Helvetica,sans-Serif" font-size="11.00" fill="#000000">2 &gt;</text>
<polygon fill="#000000" stroke="#000000" points="386.5,-247.5972 386.5,-264.5972 386.5,-264.5972 386.5,-247.5972 386.5,-247.5972"/>
<polygon fill="#000000" stroke="#000000" points="438.5,-247.5972 438.5,-264.5972 438.5,-264.5972 438.5,-247.5972 438.5,-247.5972"/>
<polygon fill="none" stroke="#000000" stroke-width="2" points="323,-245.5972 323,-861.5972 500,-861.5972 500,-245.5972 323,-245.5972"/>
</a>
</g>
</g>
<!-- 受注&#45;&gt;顧客マスタ -->
<g id="edge8" class="edge">
<title>受注:w&#45;&gt;顧客マスタ:e</title>
<path fill="none" stroke="#000000" d="M536.4604,-797.6437C523.3775,-806.4556 520.5921,-826.5972 499.5,-826.5972"/>
<polygon fill="#000000" stroke="#000000" points="542.8129,-795.8128 551.497,-797.0564 546.6565,-794.705 550.5,-793.5972 550.5,-793.5972 550.5,-793.5972 546.6565,-794.705 549.503,-790.138 542.8129,-795.8128 542.8129,-795.8128"/>
<ellipse fill="none" stroke="#000000" cx="539.7381" cy="-796.699" rx="3.2" ry="3.2"/>
</g>
<!-- 受注&#45;&gt;顧客マスタ -->
<g id="edge9" class="edge">
<title>受注:w&#45;&gt;顧客マスタ:e</title>
<path fill="none" stroke="#000000" d="M536.4604,-775.6437C523.3775,-784.4556 520.5921,-804.5972 499.5,-804.5972"/>
<polygon fill="#000000" stroke="#000000" points="542.8129,-773.8128 551.497,-775.0564 546.6565,-772.705 550.5,-771.5972 550.5,-771.5972 550.5,-771.5972 546.6565,-772.705 549.503,-768.138 542.8129,-773.8128 542.8129,-773.8128"/>
<ellipse fill="none" stroke="#000000" cx="539.7381" cy="-774.699" rx="3.2" ry="3.2"/>
</g>
<!-- 社員マスタ&#45;&gt;部門マスタ -->
<g id="edge15" class="edge">
<title>社員マスタ:w&#45;&gt;部門マスタ:e</title>
<path fill="none" stroke="#000000" d="M357.6783,-189.5972C320.4989,-189.5972 306.0417,-189.5972 262.5,-189.5972"/>
<polygon fill="#000000" stroke="#000000" points="364.5,-189.5973 372.5,-193.1972 368.5,-189.5972 372.5,-189.5972 372.5,-189.5972 372.5,-189.5972 368.5,-189.5972 372.5,-185.9972 364.5,-189.5973 364.5,-189.5973"/>
<ellipse fill="none" stroke="#000000" cx="361.3" cy="-189.5973" rx="3.2" ry="3.2"/>
</g>
<!-- 顧客マスタ&#45;&gt;取引先マスタ -->
<g id="edge16" class="edge">
<title>顧客マスタ:w&#45;&gt;取引先マスタ:e</title>
<path fill="none" stroke="#000000" d="M310.0127,-829.7844C271.7204,-850.6234 333.7726,-966.5972 273.5,-966.5972"/>
<polygon fill="#000000" stroke="#000000" points="316.6868,-828.3161 325.2735,-830.1131 320.5934,-827.4567 324.5,-826.5972 324.5,-826.5972 324.5,-826.5972 320.5934,-827.4567 323.7265,-823.0813 316.6868,-828.3161 316.6868,-828.3161"/>
<ellipse fill="none" stroke="#000000" cx="313.5616" cy="-829.0037" rx="3.2" ry="3.2"/>
</g>
<!-- 受注明細 -->
<g id="node10" class="node">
<title>受注明細</title>
<g id="a_node10"><a xlink:href="../../tables/_____27c23493.html" xlink:title="受注明細" target="_top">
<polygon fill="#ffffff" stroke="transparent" points="666,-854.0972 666,-915.0972 736,-915.0972 736,-854.0972 666,-854.0972"/>
<polygon fill="#f5f5f5" stroke="transparent" points="666,-891.5972 666,-914.5972 736,-914.5972 736,-891.5972 666,-891.5972"/>
<polygon fill="none" stroke="#000000" points="666,-891.5972 666,-914.5972 736,-914.5972 736,-891.5972 666,-891.5972"/>
<text text-anchor="start" x="663.1006" y="-900.1972" font-family="Helvetica,sans-Serif" font-weight="bold" font-size="11.00" fill="#000000">受注明細</text>
<text text-anchor="start" x="701.5219" y="-899.6972" font-family="Helvetica,sans-Serif" font-size="11.00" fill="#000000">[table]</text>
<polygon fill="none" stroke="#000000" points="666,-872.5972 666,-891.5972 736,-891.5972 736,-872.5972 666,-872.5972"/>
<text text-anchor="start" x="669" y="-878.6972" font-family="Helvetica,sans-Serif" font-size="11.00" fill="#000000">...</text>
<polygon fill="#ffffff" stroke="transparent" points="666,-853.5972 666,-872.5972 736,-872.5972 736,-853.5972 666,-853.5972"/>
<polygon fill="none" stroke="#000000" points="666,-853.5972 666,-872.5972 736,-872.5972 736,-853.5972 666,-853.5972"/>
<polygon fill="#ffffff" stroke="transparent" points="667,-854.5972 667,-871.5972 696,-871.5972 696,-854.5972 667,-854.5972"/>
<text text-anchor="start" x="669" y="-859.6972" font-family="Helvetica,sans-Serif" font-size="11.00" fill="#000000">&lt; 2</text>
<polygon fill="#ffffff" stroke="transparent" points="696,-854.5972 696,-871.5972 716,-871.5972 716,-854.5972 696,-854.5972"/>
<text text-anchor="start" x="702.9431" y="-859.6972" font-family="Helvetica,sans-Serif" font-size="11.00" fill="#000000"> &#160;</text>
<polygon fill="#ffffff" stroke="transparent" points="716,-854.5972 716,-871.5972 735,-871.5972 735,-854.5972 716,-854.5972"/>
<text text-anchor="start" x="726.8862" y="-859.6972" font-family="Helvetica,sans-Serif" font-size="11.00" fill="#000000"> &#160;</text>
<polygon fill="#000000" stroke="#000000" points="696,-854.5972 696,-871.5972 696,-871.5972 696,-854.5972 696,-854.5972"/>
<polygon fill="#000000" stroke="#000000" points="716,-854.5972 716,-871.5972 716,-871.5972 716,-854.5972 716,-854.5972"/>
</a>
</g>
</g>
<!-- 受注明細&#45;&gt;受注 -->
<g id="edge10" class="edge">
<title>受注明細:w&#45;&gt;受注:e</title>
<path fill="none" stroke="#000000" d="M651.2829,-881.5972C640.2886,-881.5972 633.1615,-881.5972 617.5,-881.5972"/>
<polygon fill="#000000" stroke="#000000" points="658,-881.5973 666,-885.1972 662,-881.5972 666,-881.5972 666,-881.5972 666,-881.5972 662,-881.5972 666,-877.9972 658,-881.5973 658,-881.5973"/>
<ellipse fill="none" stroke="#000000" cx="654.8" cy="-881.5973" rx="3.2" ry="3.2"/>
</g>
<!-- 売上 -->
<g id="node11" class="node">
<title>売上</title>
<g id="a_node11"><a xlink:href="../../tables/___b1358.html" xlink:title="売上" target="_top">
<polygon fill="#ffffff" stroke="transparent" points="674,-397.0972 674,-458.0972 728,-458.0972 728,-397.0972 674,-397.0972"/>
<polygon fill="#f5f5f5" stroke="transparent" points="674,-434.5972 674,-457.5972 728,-457.5972 728,-434.5972 674,-434.5972"/>
<polygon fill="none" stroke="#000000" points="674,-434.5972 674,-457.5972 728,-457.5972 728,-434.5972 674,-434.5972"/>
<text text-anchor="start" x="672.5793" y="-443.1972" font-family="Helvetica,sans-Serif" font-weight="bold" font-size="11.00" fill="#000000">売上</text>
<text text-anchor="start" x="693.5219" y="-442.6972" font-family="Helvetica,sans-Serif" font-size="11.00" fill="#000000">[table]</text>
<polygon fill="none" stroke="#000000" points="674,-415.5972 674,-434.5972 728,-434.5972 728,-415.5972 674,-415.5972"/>
<text text-anchor="start" x="677" y="-421.6972" font-family="Helvetica,sans-Serif" font-size="11.00" fill="#000000">...</text>
<polygon fill="#ffffff" stroke="transparent" points="674,-396.5972 674,-415.5972 728,-415.5972 728,-396.5972 674,-396.5972"/>
<polygon fill="none" stroke="#000000" points="674,-396.5972 674,-415.5972 728,-415.5972 728,-396.5972 674,-396.5972"/>
<polygon fill="#ffffff" stroke="transparent" points="675,-397.5972 675,-414.5972 696,-414.5972 696,-397.5972 675,-397.5972"/>
<text text-anchor="start" x="677" y="-402.6972" font-family="Helvetica,sans-Serif" font-size="11.00" fill="#000000">&lt; 4</text>
<polygon fill="#ffffff" stroke="transparent" points="696,-397.5972 696,-414.5972 707,-414.5972 707,-397.5972 696,-397.5972"/>
<text text-anchor="start" x="698.4431" y="-402.6972" font-family="Helvetica,sans-Serif" font-size="11.00" fill="#000000"> &#160;</text>
<polygon fill="#ffffff" stroke="transparent" points="707,-397.5972 707,-414.5972 727,-414.5972 727,-397.5972 707,-397.5972"/>
<text text-anchor="start" x="709.4053" y="-402.6972" font-family="Helvetica,sans-Serif" font-size="11.00" fill="#000000">1 &gt;</text>
<polygon fill="#000000" stroke="#000000" points="696,-397.5972 696,-414.5972 696,-414.5972 696,-397.5972 696,-397.5972"/>
<polygon fill="#000000" stroke="#000000" points="707,-397.5972 707,-414.5972 707,-414.5972 707,-397.5972 707,-397.5972"/>
</a>
</g>
</g>
<!-- 売上&#45;&gt;取引先マスタ -->
<g id="edge11" class="edge">
<title>売上:w&#45;&gt;取引先マスタ:e</title>
<path fill="none" stroke="#000000" d="M659.6071,-427.4192C575.0565,-464.2957 700.7469,-851.4171 625,-926.5972 575.7495,-975.4792 382.156,-941.5656 314,-954.5972 295.5605,-958.1229 292.2735,-966.5972 273.5,-966.5972"/>
<polygon fill="#000000" stroke="#000000" points="666.1495,-426.1365 674.6927,-428.13 670.0747,-425.3668 674,-424.5972 674,-424.5972 674,-424.5972 670.0747,-425.3668 673.3073,-421.0645 666.1495,-426.1365 666.1495,-426.1365"/>
<ellipse fill="none" stroke="#000000" cx="663.0093" cy="-426.7522" rx="3.2" ry="3.2"/>
</g>
<!-- 売上&#45;&gt;受注 -->
<g id="edge12" class="edge">
<title>売上:w&#45;&gt;受注:e</title>
<path fill="none" stroke="#000000" d="M659.8275,-428.2758C586.6007,-471.5256 714.4325,-881.5972 617.5,-881.5972"/>
<polygon fill="#000000" stroke="#000000" points="666.2566,-426.6071 674.9045,-428.0817 670.1283,-425.6022 674,-424.5972 674,-424.5972 674,-424.5972 670.1283,-425.6022 673.0955,-421.1127 666.2566,-426.6071 666.2566,-426.6071"/>
<ellipse fill="none" stroke="#000000" cx="663.1592" cy="-427.4111" rx="3.2" ry="3.2"/>
</g>
<!-- 売上&#45;&gt;部門マスタ -->
<g id="edge13" class="edge">
<title>売上:w&#45;&gt;部門マスタ:e</title>
<path fill="none" stroke="#000000" d="M659.5411,-423.9349C508.8743,-409.4234 651.3838,-160.4307 509,-69.5972 435.9352,-22.9856 386.3649,-21.9062 314,-69.5972 265.5399,-101.5341 320.5375,-189.5972 262.5,-189.5972"/>
<polygon fill="#000000" stroke="#000000" points="666.0084,-424.2311 673.8352,-428.1934 670.0042,-424.4141 674,-424.5972 674,-424.5972 674,-424.5972 670.0042,-424.4141 674.1648,-421.001 666.0084,-424.2311 666.0084,-424.2311"/>
<ellipse fill="none" stroke="#000000" cx="662.8117" cy="-424.0846" rx="3.2" ry="3.2"/>
</g>
<!-- 売上&#45;&gt;部門マスタ -->
<g id="edge14" class="edge">
<title>売上:w&#45;&gt;部門マスタ:e</title>
<path fill="none" stroke="#000000" d="M659.2217,-423.898C510.6073,-409.0917 650.119,-163.1928 509,-73.5972 435.834,-27.1445 386.6599,-26.3568 314,-73.5972 266.7084,-104.3442 318.9081,-189.5972 262.5,-189.5972"/>
<polygon fill="#000000" stroke="#000000" points="666.0089,-424.2191 673.8298,-428.1932 670.0045,-424.4081 674,-424.5972 674,-424.5972 674,-424.5972 670.0045,-424.4081 674.1702,-421.0012 666.0089,-424.2191 666.0089,-424.2191"/>
<ellipse fill="none" stroke="#000000" cx="662.8125" cy="-424.0678" rx="3.2" ry="3.2"/>
</g>
</g>
</svg>
