<?xml version="1.0" encoding="UTF-8" standalone="no"?>
<!DOCTYPE svg PUBLIC "-//W3C//DTD SVG 1.1//EN"
 "http://www.w3.org/Graphics/SVG/1.1/DTD/svg11.dtd">
<!-- Generated by graphviz version 2.40.1 (20161225.0304)
 -->
<!-- Title: oneDegreeRelationshipsDiagram Pages: 1 -->
<svg width="359pt" height="558pt"
 viewBox="0.00 0.00 359.00 558.20" xmlns="http://www.w3.org/2000/svg" xmlns:xlink="http://www.w3.org/1999/xlink">
<g id="graph0" class="graph" transform="scale(1 1) rotate(0) translate(4 554.2)">
<title>oneDegreeRelationshipsDiagram</title>
<polygon fill="#ffffff" stroke="transparent" points="-4,4 -4,-554.2 355,-554.2 355,4 -4,4"/>
<text text-anchor="middle" x="72.4936" y="-7.3" font-family="Helvetica,sans-Serif" font-size="11.00" fill="#000000">Generated by SchemaSpy</text>
<!-- 仕入先マスタ -->
<g id="node1" class="node">
<title>仕入先マスタ</title>
<g id="a_node1"><a xlink:href="../../tables/_______2628176c.html" xlink:title="仕入先マスタ" target="_top">
<polygon fill="#ffffff" stroke="transparent" points="156,-38.2 156,-546.2 343,-546.2 343,-38.2 156,-38.2"/>
<polygon fill="#f5f5f5" stroke="transparent" points="158.5,-521.2 158.5,-544.2 341.5,-544.2 341.5,-521.2 158.5,-521.2"/>
<polygon fill="none" stroke="#000000" points="158.5,-521.2 158.5,-544.2 341.5,-544.2 341.5,-521.2 158.5,-521.2"/>
<text text-anchor="start" x="150.2779" y="-529.8" font-family="Helvetica,sans-Serif" font-weight="bold" font-size="11.00" fill="#000000">仕入先マスタ</text>
<text text-anchor="start" x="306.5437" y="-529.3" font-family="Helvetica,sans-Serif" font-size="11.00" fill="#000000">[table]</text>
<polygon fill="none" stroke="#000000" points="158.5,-499.2 158.5,-521.2 257.5,-521.2 257.5,-499.2 158.5,-499.2"/>
<image xlink:href="../../images/primaryKeys.png" width="11px" height="12px" preserveAspectRatio="xMinYMin meet" x="163.5" y="-516.2"/>
<text text-anchor="start" x="177.9114" y="-506.3" font-family="Helvetica,sans-Serif" font-size="11.00" fill="#000000">仕入先コード</text>
<polygon fill="none" stroke="#000000" points="257.5,-499.2 257.5,-521.2 341.5,-521.2 341.5,-499.2 257.5,-499.2"/>
<text text-anchor="start" x="260.5" y="-506.9" font-family="Helvetica,sans-Serif" font-size="11.00" fill="#000000">varchar[8]</text>
<polygon fill="none" stroke="#000000" points="158.5,-477.2 158.5,-499.2 257.5,-499.2 257.5,-477.2 158.5,-477.2"/>
<image xlink:href="../../images/primaryKeys.png" width="11px" height="12px" preserveAspectRatio="xMinYMin meet" x="163.5" y="-494.2"/>
<text text-anchor="start" x="178.5" y="-484.3" font-family="Helvetica,sans-Serif" font-size="11.00" fill="#000000">仕入先枝番</text>
<polygon fill="none" stroke="#000000" points="257.5,-477.2 257.5,-499.2 341.5,-499.2 341.5,-477.2 257.5,-477.2"/>
<text text-anchor="start" x="260.5" y="-484.9" font-family="Helvetica,sans-Serif" font-size="11.00" fill="#000000">int4[10]</text>
<polygon fill="none" stroke="#000000" points="158.5,-455.2 158.5,-477.2 257.5,-477.2 257.5,-455.2 158.5,-455.2"/>
<text text-anchor="start" x="178.5" y="-462.3" font-family="Helvetica,sans-Serif" font-size="11.00" fill="#000000">仕入先区分</text>
<polygon fill="none" stroke="#000000" points="257.5,-455.2 257.5,-477.2 341.5,-477.2 341.5,-455.2 257.5,-455.2"/>
<text text-anchor="start" x="260.5" y="-462.9" font-family="Helvetica,sans-Serif" font-size="11.00" fill="#000000">int4[10]</text>
<polygon fill="none" stroke="#000000" points="158.5,-433.2 158.5,-455.2 257.5,-455.2 257.5,-433.2 158.5,-433.2"/>
<text text-anchor="start" x="178.5" y="-440.3" font-family="Helvetica,sans-Serif" font-size="11.00" fill="#000000">仕入先名</text>
<polygon fill="none" stroke="#000000" points="257.5,-433.2 257.5,-455.2 341.5,-455.2 341.5,-433.2 257.5,-433.2"/>
<text text-anchor="start" x="260.5" y="-440.9" font-family="Helvetica,sans-Serif" font-size="11.00" fill="#000000">varchar[40]</text>
<polygon fill="none" stroke="#000000" points="158.5,-411.2 158.5,-433.2 257.5,-433.2 257.5,-411.2 158.5,-411.2"/>
<text text-anchor="start" x="178.5" y="-418.3" font-family="Helvetica,sans-Serif" font-size="11.00" fill="#000000">仕入先名カナ</text>
<polygon fill="none" stroke="#000000" points="257.5,-411.2 257.5,-433.2 341.5,-433.2 341.5,-411.2 257.5,-411.2"/>
<text text-anchor="start" x="260.5" y="-418.9" font-family="Helvetica,sans-Serif" font-size="11.00" fill="#000000">varchar[40]</text>
<polygon fill="none" stroke="#000000" points="158.5,-389.2 158.5,-411.2 257.5,-411.2 257.5,-389.2 158.5,-389.2"/>
<text text-anchor="start" x="172.7205" y="-396.3" font-family="Helvetica,sans-Serif" font-size="11.00" fill="#000000">担当社員コード</text>
<polygon fill="none" stroke="#000000" points="257.5,-389.2 257.5,-411.2 341.5,-411.2 341.5,-389.2 257.5,-389.2"/>
<text text-anchor="start" x="260.5" y="-396.9" font-family="Helvetica,sans-Serif" font-size="11.00" fill="#000000">varchar[10]</text>
<polygon fill="none" stroke="#000000" points="158.5,-367.2 158.5,-389.2 257.5,-389.2 257.5,-367.2 158.5,-367.2"/>
<text text-anchor="start" x="174.844" y="-374.3" font-family="Helvetica,sans-Serif" font-size="11.00" fill="#000000">仕入先担当者名</text>
<polygon fill="none" stroke="#000000" points="257.5,-367.2 257.5,-389.2 341.5,-389.2 341.5,-367.2 257.5,-367.2"/>
<text text-anchor="start" x="260.5" y="-374.9" font-family="Helvetica,sans-Serif" font-size="11.00" fill="#000000">varchar[40]</text>
<polygon fill="none" stroke="#000000" points="158.5,-345.2 158.5,-367.2 257.5,-367.2 257.5,-345.2 158.5,-345.2"/>
<text text-anchor="start" x="162.0081" y="-352.3" font-family="Helvetica,sans-Serif" font-size="11.00" fill="#000000">仕入先担当部署名</text>
<polygon fill="none" stroke="#000000" points="257.5,-345.2 257.5,-367.2 341.5,-367.2 341.5,-345.2 257.5,-345.2"/>
<text text-anchor="start" x="260.5" y="-352.9" font-family="Helvetica,sans-Serif" font-size="11.00" fill="#000000">varchar[40]</text>
<polygon fill="none" stroke="#000000" points="158.5,-323.2 158.5,-345.2 257.5,-345.2 257.5,-323.2 158.5,-323.2"/>
<text text-anchor="start" x="175.0646" y="-330.3" font-family="Helvetica,sans-Serif" font-size="11.00" fill="#000000">仕入先郵便番号</text>
<polygon fill="none" stroke="#000000" points="257.5,-323.2 257.5,-345.2 341.5,-345.2 341.5,-323.2 257.5,-323.2"/>
<text text-anchor="start" x="260.5" y="-330.9" font-family="Helvetica,sans-Serif" font-size="11.00" fill="#000000">bpchar[8]</text>
<polygon fill="none" stroke="#000000" points="158.5,-301.2 158.5,-323.2 257.5,-323.2 257.5,-301.2 158.5,-301.2"/>
<text text-anchor="start" x="170.5705" y="-308.3" font-family="Helvetica,sans-Serif" font-size="11.00" fill="#000000">仕入先都道府県</text>
<polygon fill="none" stroke="#000000" points="257.5,-301.2 257.5,-323.2 341.5,-323.2 341.5,-301.2 257.5,-301.2"/>
<text text-anchor="start" x="260.5" y="-308.9" font-family="Helvetica,sans-Serif" font-size="11.00" fill="#000000">varchar[4]</text>
<polygon fill="none" stroke="#000000" points="158.5,-279.2 158.5,-301.2 257.5,-301.2 257.5,-279.2 158.5,-279.2"/>
<text text-anchor="start" x="176.9868" y="-286.3" font-family="Helvetica,sans-Serif" font-size="11.00" fill="#000000">仕入先住所１</text>
<polygon fill="none" stroke="#000000" points="257.5,-279.2 257.5,-301.2 341.5,-301.2 341.5,-279.2 257.5,-279.2"/>
<text text-anchor="start" x="260.5" y="-286.9" font-family="Helvetica,sans-Serif" font-size="11.00" fill="#000000">varchar[40]</text>
<polygon fill="none" stroke="#000000" points="158.5,-257.2 158.5,-279.2 257.5,-279.2 257.5,-257.2 158.5,-257.2"/>
<text text-anchor="start" x="172.7876" y="-264.3" font-family="Helvetica,sans-Serif" font-size="11.00" fill="#000000">仕入先電話番号</text>
<polygon fill="none" stroke="#000000" points="257.5,-257.2 257.5,-279.2 341.5,-279.2 341.5,-257.2 257.5,-257.2"/>
<text text-anchor="start" x="260.5" y="-264.9" font-family="Helvetica,sans-Serif" font-size="11.00" fill="#000000">varchar[13]</text>
<polygon fill="none" stroke="#000000" points="158.5,-235.2 158.5,-257.2 257.5,-257.2 257.5,-235.2 158.5,-235.2"/>
<text text-anchor="start" x="155.1094" y="-242.3" font-family="Helvetica,sans-Serif" font-size="11.00" fill="#000000">仕入先メールアドレス</text>
<polygon fill="none" stroke="#000000" points="257.5,-235.2 257.5,-257.2 341.5,-257.2 341.5,-235.2 257.5,-235.2"/>
<text text-anchor="start" x="260.5" y="-242.9" font-family="Helvetica,sans-Serif" font-size="11.00" fill="#000000">varchar[40]</text>
<polygon fill="none" stroke="#000000" points="158.5,-213.2 158.5,-235.2 257.5,-235.2 257.5,-213.2 158.5,-213.2"/>
<text text-anchor="start" x="178.5" y="-220.3" font-family="Helvetica,sans-Serif" font-size="11.00" fill="#000000">仕入先締日</text>
<polygon fill="none" stroke="#000000" points="257.5,-213.2 257.5,-235.2 341.5,-235.2 341.5,-213.2 257.5,-213.2"/>
<text text-anchor="start" x="260.5" y="-220.9" font-family="Helvetica,sans-Serif" font-size="11.00" fill="#000000">int4[10]</text>
<polygon fill="none" stroke="#000000" points="158.5,-191.2 158.5,-213.2 257.5,-213.2 257.5,-191.2 158.5,-191.2"/>
<text text-anchor="start" x="178.5" y="-198.3" font-family="Helvetica,sans-Serif" font-size="11.00" fill="#000000">仕入先支払月数</text>
<polygon fill="none" stroke="#000000" points="257.5,-191.2 257.5,-213.2 341.5,-213.2 341.5,-191.2 257.5,-191.2"/>
<text text-anchor="start" x="260.5" y="-198.9" font-family="Helvetica,sans-Serif" font-size="11.00" fill="#000000">int4[10]</text>
<polygon fill="none" stroke="#000000" points="158.5,-169.2 158.5,-191.2 257.5,-191.2 257.5,-169.2 158.5,-169.2"/>
<text text-anchor="start" x="178.5" y="-176.3" font-family="Helvetica,sans-Serif" font-size="11.00" fill="#000000">仕入先支払日</text>
<polygon fill="none" stroke="#000000" points="257.5,-169.2 257.5,-191.2 341.5,-191.2 341.5,-169.2 257.5,-169.2"/>
<text text-anchor="start" x="260.5" y="-176.9" font-family="Helvetica,sans-Serif" font-size="11.00" fill="#000000">int4[10]</text>
<polygon fill="none" stroke="#000000" points="158.5,-147.2 158.5,-169.2 257.5,-169.2 257.5,-147.2 158.5,-147.2"/>
<text text-anchor="start" x="177.2915" y="-154.3" font-family="Helvetica,sans-Serif" font-size="11.00" fill="#000000">仕入先支払方法</text>
<polygon fill="none" stroke="#000000" points="257.5,-147.2 257.5,-169.2 341.5,-169.2 341.5,-147.2 257.5,-147.2"/>
<text text-anchor="start" x="260.5" y="-154.9" font-family="Helvetica,sans-Serif" font-size="11.00" fill="#000000">int4[10]</text>
<polygon fill="none" stroke="#000000" points="158.5,-125.2 158.5,-147.2 257.5,-147.2 257.5,-125.2 158.5,-125.2"/>
<text text-anchor="start" x="178.5" y="-132.3" font-family="Helvetica,sans-Serif" font-size="11.00" fill="#000000">作成日時</text>
<polygon fill="none" stroke="#000000" points="257.5,-125.2 257.5,-147.2 341.5,-147.2 341.5,-125.2 257.5,-125.2"/>
<text text-anchor="start" x="260.3807" y="-132.9" font-family="Helvetica,sans-Serif" font-size="11.00" fill="#000000">timestamp[29,6]</text>
<polygon fill="none" stroke="#000000" points="158.5,-103.2 158.5,-125.2 257.5,-125.2 257.5,-103.2 158.5,-103.2"/>
<text text-anchor="start" x="178.5" y="-110.3" font-family="Helvetica,sans-Serif" font-size="11.00" fill="#000000">作成者名</text>
<polygon fill="none" stroke="#000000" points="257.5,-103.2 257.5,-125.2 341.5,-125.2 341.5,-103.2 257.5,-103.2"/>
<text text-anchor="start" x="260.5" y="-110.9" font-family="Helvetica,sans-Serif" font-size="11.00" fill="#000000">varchar[12]</text>
<polygon fill="none" stroke="#000000" points="158.5,-81.2 158.5,-103.2 257.5,-103.2 257.5,-81.2 158.5,-81.2"/>
<text text-anchor="start" x="178.5" y="-88.3" font-family="Helvetica,sans-Serif" font-size="11.00" fill="#000000">更新日時</text>
<polygon fill="none" stroke="#000000" points="257.5,-81.2 257.5,-103.2 341.5,-103.2 341.5,-81.2 257.5,-81.2"/>
<text text-anchor="start" x="260.3807" y="-88.9" font-family="Helvetica,sans-Serif" font-size="11.00" fill="#000000">timestamp[29,6]</text>
<polygon fill="none" stroke="#000000" points="158.5,-59.2 158.5,-81.2 257.5,-81.2 257.5,-59.2 158.5,-59.2"/>
<text text-anchor="start" x="178.5" y="-66.3" font-family="Helvetica,sans-Serif" font-size="11.00" fill="#000000">更新者名</text>
<polygon fill="none" stroke="#000000" points="257.5,-59.2 257.5,-81.2 341.5,-81.2 341.5,-59.2 257.5,-59.2"/>
<text text-anchor="start" x="260.5" y="-66.9" font-family="Helvetica,sans-Serif" font-size="11.00" fill="#000000">varchar[12]</text>
<polygon fill="#ffffff" stroke="transparent" points="158.5,-40.2 158.5,-59.2 341.5,-59.2 341.5,-40.2 158.5,-40.2"/>
<polygon fill="none" stroke="#000000" points="158.5,-40.2 158.5,-59.2 341.5,-59.2 341.5,-40.2 158.5,-40.2"/>
<polygon fill="#ffffff" stroke="transparent" points="159.5,-41.2 159.5,-58.2 223.5,-58.2 223.5,-41.2 159.5,-41.2"/>
<text text-anchor="start" x="161.5" y="-46.3" font-family="Helvetica,sans-Serif" font-size="11.00" fill="#000000">&lt; 1</text>
<polygon fill="#ffffff" stroke="transparent" points="223.5,-41.2 223.5,-58.2 277.5,-58.2 277.5,-41.2 223.5,-41.2"/>
<text text-anchor="start" x="247.4431" y="-46.3" font-family="Helvetica,sans-Serif" font-size="11.00" fill="#000000"> &#160;</text>
<polygon fill="#ffffff" stroke="transparent" points="277.5,-41.2 277.5,-58.2 340.5,-58.2 340.5,-41.2 277.5,-41.2"/>
<text text-anchor="start" x="322.9053" y="-46.3" font-family="Helvetica,sans-Serif" font-size="11.00" fill="#000000">0 &gt;</text>
<polygon fill="#000000" stroke="#000000" points="223.5,-41.2 223.5,-58.2 223.5,-58.2 223.5,-41.2 223.5,-41.2"/>
<polygon fill="#000000" stroke="#000000" points="277.5,-41.2 277.5,-58.2 277.5,-58.2 277.5,-41.2 277.5,-41.2"/>
<polygon fill="none" stroke="#000000" stroke-width="2" points="157,-39.2 157,-545.2 342,-545.2 342,-39.2 157,-39.2"/>
</a>
</g>
</g>
<!-- 取引先マスタ -->
<g id="node2" class="node">
<title>取引先マスタ</title>
<g id="a_node2"><a xlink:href="../../tables/_______70f9c0bb.html" xlink:title="取引先マスタ" target="_top">
<polygon fill="#ffffff" stroke="transparent" points="8,-417.7 8,-544.7 107,-544.7 107,-417.7 8,-417.7"/>
<polygon fill="#f5f5f5" stroke="transparent" points="8.5,-521.2 8.5,-544.2 107.5,-544.2 107.5,-521.2 8.5,-521.2"/>
<polygon fill="none" stroke="#000000" points="8.5,-521.2 8.5,-544.2 107.5,-544.2 107.5,-521.2 8.5,-521.2"/>
<text text-anchor="start" x="-.6356" y="-529.8" font-family="Helvetica,sans-Serif" font-weight="bold" font-size="11.00" fill="#000000">取引先マスタ</text>
<text text-anchor="start" x="72.5437" y="-529.3" font-family="Helvetica,sans-Serif" font-size="11.00" fill="#000000">[table]</text>
<polygon fill="none" stroke="#000000" points="8.5,-499.2 8.5,-521.2 107.5,-521.2 107.5,-499.2 8.5,-499.2"/>
<image xlink:href="../../images/primaryKeys.png" width="11px" height="12px" preserveAspectRatio="xMinYMin meet" x="13.5" y="-516.2"/>
<text text-anchor="start" x="26.9978" y="-506.3" font-family="Helvetica,sans-Serif" font-size="11.00" fill="#000000">取引先コード</text>
<polygon fill="#ffffff" stroke="transparent" points="8.5,-477.2 8.5,-499.2 107.5,-499.2 107.5,-477.2 8.5,-477.2"/>
<polygon fill="none" stroke="#000000" points="8.5,-477.2 8.5,-499.2 107.5,-499.2 107.5,-477.2 8.5,-477.2"/>
<text text-anchor="start" x="28.5" y="-484.3" font-family="Helvetica,sans-Serif" font-size="11.00" fill="#000000">取引先名</text>
<polygon fill="#ffffff" stroke="transparent" points="8.5,-455.2 8.5,-477.2 107.5,-477.2 107.5,-455.2 8.5,-455.2"/>
<polygon fill="none" stroke="#000000" points="8.5,-455.2 8.5,-477.2 107.5,-477.2 107.5,-455.2 8.5,-455.2"/>
<image xlink:href="../../images/foreignKeys.png" width="11px" height="12px" preserveAspectRatio="xMinYMin meet" x="13.5" y="-472.2"/>
<text text-anchor="start" x="1.1319" y="-462.3" font-family="Helvetica,sans-Serif" font-size="11.00" fill="#000000">取引先グループコード</text>
<polygon fill="none" stroke="#000000" points="8.5,-436.2 8.5,-455.2 107.5,-455.2 107.5,-436.2 8.5,-436.2"/>
<text text-anchor="start" x="11.5" y="-442.3" font-family="Helvetica,sans-Serif" font-size="11.00" fill="#000000">...</text>
<polygon fill="#ffffff" stroke="transparent" points="8.5,-417.2 8.5,-436.2 107.5,-436.2 107.5,-417.2 8.5,-417.2"/>
<polygon fill="none" stroke="#000000" points="8.5,-417.2 8.5,-436.2 107.5,-436.2 107.5,-417.2 8.5,-417.2"/>
<polygon fill="#ffffff" stroke="transparent" points="9.5,-418.2 9.5,-435.2 45.5,-435.2 45.5,-418.2 9.5,-418.2"/>
<text text-anchor="start" x="11.5" y="-423.3" font-family="Helvetica,sans-Serif" font-size="11.00" fill="#000000">&lt; 1</text>
<polygon fill="#ffffff" stroke="transparent" points="45.5,-418.2 45.5,-435.2 71.5,-435.2 71.5,-418.2 45.5,-418.2"/>
<text text-anchor="start" x="55.4431" y="-423.3" font-family="Helvetica,sans-Serif" font-size="11.00" fill="#000000"> &#160;</text>
<polygon fill="#ffffff" stroke="transparent" points="71.5,-418.2 71.5,-435.2 106.5,-435.2 106.5,-418.2 71.5,-418.2"/>
<text text-anchor="start" x="88.9053" y="-423.3" font-family="Helvetica,sans-Serif" font-size="11.00" fill="#000000">4 &gt;</text>
<polygon fill="#000000" stroke="#000000" points="45.5,-418.2 45.5,-435.2 45.5,-435.2 45.5,-418.2 45.5,-418.2"/>
<polygon fill="#000000" stroke="#000000" points="71.5,-418.2 71.5,-435.2 71.5,-435.2 71.5,-418.2 71.5,-418.2"/>
</a>
</g>
</g>
<!-- 仕入先マスタ&#45;&gt;取引先マスタ -->
<g id="edge1" class="edge">
<title>仕入先マスタ:w&#45;&gt;取引先マスタ:e</title>
<path fill="none" stroke="#000000" d="M143.776,-510.2C131.7815,-510.2 124.3229,-510.2 107.5,-510.2"/>
<polygon fill="#000000" stroke="#000000" points="150.5,-510.2001 158.5,-513.8 154.5,-510.2 158.5,-510.2 158.5,-510.2 158.5,-510.2 154.5,-510.2 158.5,-506.6 150.5,-510.2001 150.5,-510.2001"/>
<ellipse fill="none" stroke="#000000" cx="147.3" cy="-510.2001" rx="3.2" ry="3.2"/>
</g>
</g>
</svg>
