<?xml version="1.0" encoding="UTF-8" standalone="no"?>
<!DOCTYPE svg PUBLIC "-//W3C//DTD SVG 1.1//EN"
 "http://www.w3.org/Graphics/SVG/1.1/DTD/svg11.dtd">
<!-- Generated by graphviz version 2.40.1 (20161225.0304)
 -->
<!-- Title: oneDegreeRelationshipsDiagram Pages: 1 -->
<svg width="525pt" height="691pt"
 viewBox="0.00 0.00 525.00 690.70" xmlns="http://www.w3.org/2000/svg" xmlns:xlink="http://www.w3.org/1999/xlink">
<g id="graph0" class="graph" transform="scale(1 1) rotate(0) translate(4 686.7)">
<title>oneDegreeRelationshipsDiagram</title>
<polygon fill="#ffffff" stroke="transparent" points="-4,4 -4,-686.7 521,-686.7 521,4 -4,4"/>
<text text-anchor="middle" x="72.4936" y="-7.3" font-family="Helvetica,sans-Serif" font-size="11.00" fill="#000000">Generated by SchemaSpy</text>
<!-- 与信残高 -->
<g id="node1" class="node">
<title>与信残高</title>
<g id="a_node1"><a xlink:href="../../tables/_____24b4cb80.html" xlink:title="与信残高" target="_top">
<polygon fill="#ffffff" stroke="transparent" points="424.5,-595.7 424.5,-678.7 494.5,-678.7 494.5,-595.7 424.5,-595.7"/>
<polygon fill="#f5f5f5" stroke="transparent" points="424.5,-655.2 424.5,-678.2 494.5,-678.2 494.5,-655.2 424.5,-655.2"/>
<polygon fill="none" stroke="#000000" points="424.5,-655.2 424.5,-678.2 494.5,-678.2 494.5,-655.2 424.5,-655.2"/>
<text text-anchor="start" x="417.3321" y="-663.8" font-family="Helvetica,sans-Serif" font-weight="bold" font-size="11.00" fill="#000000">与信残高</text>
<text text-anchor="start" x="460.0219" y="-663.3" font-family="Helvetica,sans-Serif" font-size="11.00" fill="#000000">[table]</text>
<polygon fill="none" stroke="#000000" points="424.5,-633.2 424.5,-655.2 494.5,-655.2 494.5,-633.2 424.5,-633.2"/>
<image xlink:href="../../images/primaryKeys.png" width="11px" height="12px" preserveAspectRatio="xMinYMin meet" x="429.5" y="-650.2"/>
<text text-anchor="start" x="428.9978" y="-640.3" font-family="Helvetica,sans-Serif" font-size="11.00" fill="#000000">取引先コード</text>
<polygon fill="none" stroke="#000000" points="424.5,-614.2 424.5,-633.2 494.5,-633.2 494.5,-614.2 424.5,-614.2"/>
<text text-anchor="start" x="427.5" y="-620.3" font-family="Helvetica,sans-Serif" font-size="11.00" fill="#000000">...</text>
<polygon fill="#ffffff" stroke="transparent" points="424.5,-595.2 424.5,-614.2 494.5,-614.2 494.5,-595.2 424.5,-595.2"/>
<polygon fill="none" stroke="#000000" points="424.5,-595.2 424.5,-614.2 494.5,-614.2 494.5,-595.2 424.5,-595.2"/>
<polygon fill="#ffffff" stroke="transparent" points="425.5,-596.2 425.5,-613.2 454.5,-613.2 454.5,-596.2 425.5,-596.2"/>
<text text-anchor="start" x="427.5" y="-601.3" font-family="Helvetica,sans-Serif" font-size="11.00" fill="#000000">&lt; 1</text>
<polygon fill="#ffffff" stroke="transparent" points="454.5,-596.2 454.5,-613.2 474.5,-613.2 474.5,-596.2 454.5,-596.2"/>
<text text-anchor="start" x="461.4431" y="-601.3" font-family="Helvetica,sans-Serif" font-size="11.00" fill="#000000"> &#160;</text>
<polygon fill="#ffffff" stroke="transparent" points="474.5,-596.2 474.5,-613.2 493.5,-613.2 493.5,-596.2 474.5,-596.2"/>
<text text-anchor="start" x="485.3862" y="-601.3" font-family="Helvetica,sans-Serif" font-size="11.00" fill="#000000"> &#160;</text>
<polygon fill="#000000" stroke="#000000" points="454.5,-596.2 454.5,-613.2 454.5,-613.2 454.5,-596.2 454.5,-596.2"/>
<polygon fill="#000000" stroke="#000000" points="474.5,-596.2 474.5,-613.2 474.5,-613.2 474.5,-596.2 474.5,-596.2"/>
</a>
</g>
</g>
<!-- 取引先マスタ -->
<g id="node2" class="node">
<title>取引先マスタ</title>
<g id="a_node2"><a xlink:href="../../tables/_______70f9c0bb.html" xlink:title="取引先マスタ" target="_top">
<polygon fill="#ffffff" stroke="transparent" points="174,-38.2 174,-458.2 361,-458.2 361,-38.2 174,-38.2"/>
<polygon fill="#f5f5f5" stroke="transparent" points="176.5,-433.2 176.5,-456.2 359.5,-456.2 359.5,-433.2 176.5,-433.2"/>
<polygon fill="none" stroke="#000000" points="176.5,-433.2 176.5,-456.2 359.5,-456.2 359.5,-433.2 176.5,-433.2"/>
<text text-anchor="start" x="167.3644" y="-441.8" font-family="Helvetica,sans-Serif" font-weight="bold" font-size="11.00" fill="#000000">取引先マスタ</text>
<text text-anchor="start" x="324.5437" y="-441.3" font-family="Helvetica,sans-Serif" font-size="11.00" fill="#000000">[table]</text>
<polygon fill="none" stroke="#000000" points="176.5,-411.2 176.5,-433.2 275.5,-433.2 275.5,-411.2 176.5,-411.2"/>
<image xlink:href="../../images/primaryKeys.png" width="11px" height="12px" preserveAspectRatio="xMinYMin meet" x="181.5" y="-428.2"/>
<text text-anchor="start" x="194.9978" y="-418.3" font-family="Helvetica,sans-Serif" font-size="11.00" fill="#000000">取引先コード</text>
<polygon fill="none" stroke="#000000" points="275.5,-411.2 275.5,-433.2 359.5,-433.2 359.5,-411.2 275.5,-411.2"/>
<text text-anchor="start" x="278.5" y="-418.9" font-family="Helvetica,sans-Serif" font-size="11.00" fill="#000000">varchar[8]</text>
<polygon fill="#ffffff" stroke="transparent" points="176.5,-389.2 176.5,-411.2 275.5,-411.2 275.5,-389.2 176.5,-389.2"/>
<polygon fill="none" stroke="#000000" points="176.5,-389.2 176.5,-411.2 275.5,-411.2 275.5,-389.2 176.5,-389.2"/>
<text text-anchor="start" x="196.5" y="-396.3" font-family="Helvetica,sans-Serif" font-size="11.00" fill="#000000">取引先名</text>
<polygon fill="none" stroke="#000000" points="275.5,-389.2 275.5,-411.2 359.5,-411.2 359.5,-389.2 275.5,-389.2"/>
<text text-anchor="start" x="278.5" y="-396.9" font-family="Helvetica,sans-Serif" font-size="11.00" fill="#000000">varchar[40]</text>
<polygon fill="none" stroke="#000000" points="176.5,-367.2 176.5,-389.2 275.5,-389.2 275.5,-367.2 176.5,-367.2"/>
<text text-anchor="start" x="196.5" y="-374.3" font-family="Helvetica,sans-Serif" font-size="11.00" fill="#000000">取引先名カナ</text>
<polygon fill="none" stroke="#000000" points="275.5,-367.2 275.5,-389.2 359.5,-389.2 359.5,-367.2 275.5,-367.2"/>
<text text-anchor="start" x="278.5" y="-374.9" font-family="Helvetica,sans-Serif" font-size="11.00" fill="#000000">varchar[40]</text>
<polygon fill="none" stroke="#000000" points="176.5,-345.2 176.5,-367.2 275.5,-367.2 275.5,-345.2 176.5,-345.2"/>
<text text-anchor="start" x="196.5" y="-352.3" font-family="Helvetica,sans-Serif" font-size="11.00" fill="#000000">仕入先区分</text>
<polygon fill="none" stroke="#000000" points="275.5,-345.2 275.5,-367.2 359.5,-367.2 359.5,-345.2 275.5,-345.2"/>
<text text-anchor="start" x="278.5" y="-352.9" font-family="Helvetica,sans-Serif" font-size="11.00" fill="#000000">int4[10]</text>
<polygon fill="none" stroke="#000000" points="176.5,-323.2 176.5,-345.2 275.5,-345.2 275.5,-323.2 176.5,-323.2"/>
<text text-anchor="start" x="196.5" y="-330.3" font-family="Helvetica,sans-Serif" font-size="11.00" fill="#000000">郵便番号</text>
<polygon fill="none" stroke="#000000" points="275.5,-323.2 275.5,-345.2 359.5,-345.2 359.5,-323.2 275.5,-323.2"/>
<text text-anchor="start" x="278.5" y="-330.9" font-family="Helvetica,sans-Serif" font-size="11.00" fill="#000000">bpchar[8]</text>
<polygon fill="none" stroke="#000000" points="176.5,-301.2 176.5,-323.2 275.5,-323.2 275.5,-301.2 176.5,-301.2"/>
<text text-anchor="start" x="196.5" y="-308.3" font-family="Helvetica,sans-Serif" font-size="11.00" fill="#000000">都道府県</text>
<polygon fill="none" stroke="#000000" points="275.5,-301.2 275.5,-323.2 359.5,-323.2 359.5,-301.2 275.5,-301.2"/>
<text text-anchor="start" x="278.5" y="-308.9" font-family="Helvetica,sans-Serif" font-size="11.00" fill="#000000">varchar[4]</text>
<polygon fill="none" stroke="#000000" points="176.5,-279.2 176.5,-301.2 275.5,-301.2 275.5,-279.2 176.5,-279.2"/>
<text text-anchor="start" x="196.5" y="-286.3" font-family="Helvetica,sans-Serif" font-size="11.00" fill="#000000">住所１</text>
<polygon fill="none" stroke="#000000" points="275.5,-279.2 275.5,-301.2 359.5,-301.2 359.5,-279.2 275.5,-279.2"/>
<text text-anchor="start" x="278.5" y="-286.9" font-family="Helvetica,sans-Serif" font-size="11.00" fill="#000000">varchar[40]</text>
<polygon fill="none" stroke="#000000" points="176.5,-257.2 176.5,-279.2 275.5,-279.2 275.5,-257.2 176.5,-257.2"/>
<text text-anchor="start" x="196.5" y="-264.3" font-family="Helvetica,sans-Serif" font-size="11.00" fill="#000000">住所２</text>
<polygon fill="none" stroke="#000000" points="275.5,-257.2 275.5,-279.2 359.5,-279.2 359.5,-257.2 275.5,-257.2"/>
<text text-anchor="start" x="278.5" y="-264.9" font-family="Helvetica,sans-Serif" font-size="11.00" fill="#000000">varchar[40]</text>
<polygon fill="none" stroke="#000000" points="176.5,-235.2 176.5,-257.2 275.5,-257.2 275.5,-235.2 176.5,-235.2"/>
<text text-anchor="start" x="193.031" y="-242.3" font-family="Helvetica,sans-Serif" font-size="11.00" fill="#000000">取引禁止フラグ</text>
<polygon fill="none" stroke="#000000" points="275.5,-235.2 275.5,-257.2 359.5,-257.2 359.5,-235.2 275.5,-235.2"/>
<text text-anchor="start" x="278.5" y="-242.9" font-family="Helvetica,sans-Serif" font-size="11.00" fill="#000000">int4[10]</text>
<polygon fill="none" stroke="#000000" points="176.5,-213.2 176.5,-235.2 275.5,-235.2 275.5,-213.2 176.5,-213.2"/>
<text text-anchor="start" x="196.5" y="-220.3" font-family="Helvetica,sans-Serif" font-size="11.00" fill="#000000">雑区分</text>
<polygon fill="none" stroke="#000000" points="275.5,-213.2 275.5,-235.2 359.5,-235.2 359.5,-213.2 275.5,-213.2"/>
<text text-anchor="start" x="278.5" y="-220.9" font-family="Helvetica,sans-Serif" font-size="11.00" fill="#000000">int4[10]</text>
<polygon fill="#ffffff" stroke="transparent" points="176.5,-191.2 176.5,-213.2 275.5,-213.2 275.5,-191.2 176.5,-191.2"/>
<polygon fill="none" stroke="#000000" points="176.5,-191.2 176.5,-213.2 275.5,-213.2 275.5,-191.2 176.5,-191.2"/>
<image xlink:href="../../images/foreignKeys.png" width="11px" height="12px" preserveAspectRatio="xMinYMin meet" x="181.5" y="-208.2"/>
<text text-anchor="start" x="169.1318" y="-198.3" font-family="Helvetica,sans-Serif" font-size="11.00" fill="#000000">取引先グループコード</text>
<polygon fill="none" stroke="#000000" points="275.5,-191.2 275.5,-213.2 359.5,-213.2 359.5,-191.2 275.5,-191.2"/>
<text text-anchor="start" x="278.5" y="-198.9" font-family="Helvetica,sans-Serif" font-size="11.00" fill="#000000">varchar[4]</text>
<polygon fill="none" stroke="#000000" points="176.5,-169.2 176.5,-191.2 275.5,-191.2 275.5,-169.2 176.5,-169.2"/>
<text text-anchor="start" x="196.5" y="-176.3" font-family="Helvetica,sans-Serif" font-size="11.00" fill="#000000">与信限度額</text>
<polygon fill="none" stroke="#000000" points="275.5,-169.2 275.5,-191.2 359.5,-191.2 359.5,-169.2 275.5,-169.2"/>
<text text-anchor="start" x="278.5" y="-176.9" font-family="Helvetica,sans-Serif" font-size="11.00" fill="#000000">int4[10]</text>
<polygon fill="none" stroke="#000000" points="176.5,-147.2 176.5,-169.2 275.5,-169.2 275.5,-147.2 176.5,-147.2"/>
<text text-anchor="start" x="196.5" y="-154.3" font-family="Helvetica,sans-Serif" font-size="11.00" fill="#000000">与信一時増加枠</text>
<polygon fill="none" stroke="#000000" points="275.5,-147.2 275.5,-169.2 359.5,-169.2 359.5,-147.2 275.5,-147.2"/>
<text text-anchor="start" x="278.5" y="-154.9" font-family="Helvetica,sans-Serif" font-size="11.00" fill="#000000">int4[10]</text>
<polygon fill="none" stroke="#000000" points="176.5,-125.2 176.5,-147.2 275.5,-147.2 275.5,-125.2 176.5,-125.2"/>
<text text-anchor="start" x="196.5" y="-132.3" font-family="Helvetica,sans-Serif" font-size="11.00" fill="#000000">作成日時</text>
<polygon fill="none" stroke="#000000" points="275.5,-125.2 275.5,-147.2 359.5,-147.2 359.5,-125.2 275.5,-125.2"/>
<text text-anchor="start" x="278.3807" y="-132.9" font-family="Helvetica,sans-Serif" font-size="11.00" fill="#000000">timestamp[29,6]</text>
<polygon fill="none" stroke="#000000" points="176.5,-103.2 176.5,-125.2 275.5,-125.2 275.5,-103.2 176.5,-103.2"/>
<text text-anchor="start" x="196.5" y="-110.3" font-family="Helvetica,sans-Serif" font-size="11.00" fill="#000000">作成者名</text>
<polygon fill="none" stroke="#000000" points="275.5,-103.2 275.5,-125.2 359.5,-125.2 359.5,-103.2 275.5,-103.2"/>
<text text-anchor="start" x="278.5" y="-110.9" font-family="Helvetica,sans-Serif" font-size="11.00" fill="#000000">varchar[12]</text>
<polygon fill="none" stroke="#000000" points="176.5,-81.2 176.5,-103.2 275.5,-103.2 275.5,-81.2 176.5,-81.2"/>
<text text-anchor="start" x="196.5" y="-88.3" font-family="Helvetica,sans-Serif" font-size="11.00" fill="#000000">更新日時</text>
<polygon fill="none" stroke="#000000" points="275.5,-81.2 275.5,-103.2 359.5,-103.2 359.5,-81.2 275.5,-81.2"/>
<text text-anchor="start" x="278.3807" y="-88.9" font-family="Helvetica,sans-Serif" font-size="11.00" fill="#000000">timestamp[29,6]</text>
<polygon fill="none" stroke="#000000" points="176.5,-59.2 176.5,-81.2 275.5,-81.2 275.5,-59.2 176.5,-59.2"/>
<text text-anchor="start" x="196.5" y="-66.3" font-family="Helvetica,sans-Serif" font-size="11.00" fill="#000000">更新者名</text>
<polygon fill="none" stroke="#000000" points="275.5,-59.2 275.5,-81.2 359.5,-81.2 359.5,-59.2 275.5,-59.2"/>
<text text-anchor="start" x="278.5" y="-66.9" font-family="Helvetica,sans-Serif" font-size="11.00" fill="#000000">varchar[12]</text>
<polygon fill="#ffffff" stroke="transparent" points="176.5,-40.2 176.5,-59.2 359.5,-59.2 359.5,-40.2 176.5,-40.2"/>
<polygon fill="none" stroke="#000000" points="176.5,-40.2 176.5,-59.2 359.5,-59.2 359.5,-40.2 176.5,-40.2"/>
<polygon fill="#ffffff" stroke="transparent" points="177.5,-41.2 177.5,-58.2 241.5,-58.2 241.5,-41.2 177.5,-41.2"/>
<text text-anchor="start" x="179.5" y="-46.3" font-family="Helvetica,sans-Serif" font-size="11.00" fill="#000000">&lt; 1</text>
<polygon fill="#ffffff" stroke="transparent" points="241.5,-41.2 241.5,-58.2 295.5,-58.2 295.5,-41.2 241.5,-41.2"/>
<text text-anchor="start" x="265.4431" y="-46.3" font-family="Helvetica,sans-Serif" font-size="11.00" fill="#000000"> &#160;</text>
<polygon fill="#ffffff" stroke="transparent" points="295.5,-41.2 295.5,-58.2 358.5,-58.2 358.5,-41.2 295.5,-41.2"/>
<text text-anchor="start" x="340.9053" y="-46.3" font-family="Helvetica,sans-Serif" font-size="11.00" fill="#000000">4 &gt;</text>
<polygon fill="#000000" stroke="#000000" points="241.5,-41.2 241.5,-58.2 241.5,-58.2 241.5,-41.2 241.5,-41.2"/>
<polygon fill="#000000" stroke="#000000" points="295.5,-41.2 295.5,-58.2 295.5,-58.2 295.5,-41.2 295.5,-41.2"/>
<polygon fill="none" stroke="#000000" stroke-width="2" points="175,-39.2 175,-457.2 360,-457.2 360,-39.2 175,-39.2"/>
</a>
</g>
</g>
<!-- 与信残高&#45;&gt;取引先マスタ -->
<g id="edge1" class="edge">
<title>与信残高:w&#45;&gt;取引先マスタ:e</title>
<path fill="none" stroke="#000000" d="M414.0353,-643.3055C331.7923,-628.0292 458.4938,-422.2 359.5,-422.2"/>
<polygon fill="#000000" stroke="#000000" points="424.0436,-640.1464 423.3622,-648.1173 421.768,-647.9811 422.4494,-640.0101 424.0436,-640.1464"/>
<polyline fill="none" stroke="#000000" points="424.5,-644.2 420.5145,-643.8593 "/>
<ellipse fill="none" stroke="#000000" cx="417.3262" cy="-643.5868" rx="3.2" ry="3.2"/>
</g>
<!-- 取引先グループマスタ -->
<g id="node4" class="node">
<title>取引先グループマスタ</title>
<g id="a_node4"><a xlink:href="../../tables/___________d6a542a5.html" xlink:title="取引先グループマスタ" target="_top">
<polygon fill="#ffffff" stroke="transparent" points="8,-153.7 8,-236.7 125,-236.7 125,-153.7 8,-153.7"/>
<polygon fill="#f5f5f5" stroke="transparent" points="8.5,-213.2 8.5,-236.2 125.5,-236.2 125.5,-213.2 8.5,-213.2"/>
<polygon fill="none" stroke="#000000" points="8.5,-213.2 8.5,-236.2 125.5,-236.2 125.5,-213.2 8.5,-213.2"/>
<text text-anchor="start" x="-10.5016" y="-221.8" font-family="Helvetica,sans-Serif" font-weight="bold" font-size="11.00" fill="#000000">取引先グループマスタ</text>
<text text-anchor="start" x="91.0219" y="-221.3" font-family="Helvetica,sans-Serif" font-size="11.00" fill="#000000">[table]</text>
<polygon fill="none" stroke="#000000" points="8.5,-191.2 8.5,-213.2 125.5,-213.2 125.5,-191.2 8.5,-191.2"/>
<image xlink:href="../../images/primaryKeys.png" width="11px" height="12px" preserveAspectRatio="xMinYMin meet" x="13.5" y="-208.2"/>
<text text-anchor="start" x="10.1319" y="-198.3" font-family="Helvetica,sans-Serif" font-size="11.00" fill="#000000">取引先グループコード</text>
<polygon fill="none" stroke="#000000" points="8.5,-172.2 8.5,-191.2 125.5,-191.2 125.5,-172.2 8.5,-172.2"/>
<text text-anchor="start" x="11.5" y="-178.3" font-family="Helvetica,sans-Serif" font-size="11.00" fill="#000000">...</text>
<polygon fill="#ffffff" stroke="transparent" points="8.5,-153.2 8.5,-172.2 125.5,-172.2 125.5,-153.2 8.5,-153.2"/>
<polygon fill="none" stroke="#000000" points="8.5,-153.2 8.5,-172.2 125.5,-172.2 125.5,-153.2 8.5,-153.2"/>
<polygon fill="#ffffff" stroke="transparent" points="9.5,-154.2 9.5,-171.2 45.5,-171.2 45.5,-154.2 9.5,-154.2"/>
<text text-anchor="start" x="11.5" y="-159.3" font-family="Helvetica,sans-Serif" font-size="11.00" fill="#000000"> &#160;</text>
<polygon fill="#ffffff" stroke="transparent" points="45.5,-154.2 45.5,-171.2 80.5,-171.2 80.5,-154.2 45.5,-154.2"/>
<text text-anchor="start" x="59.9431" y="-159.3" font-family="Helvetica,sans-Serif" font-size="11.00" fill="#000000"> &#160;</text>
<polygon fill="#ffffff" stroke="transparent" points="80.5,-154.2 80.5,-171.2 124.5,-171.2 124.5,-154.2 80.5,-154.2"/>
<text text-anchor="start" x="106.9053" y="-159.3" font-family="Helvetica,sans-Serif" font-size="11.00" fill="#000000">1 &gt;</text>
<polygon fill="#000000" stroke="#000000" points="45.5,-154.2 45.5,-171.2 45.5,-171.2 45.5,-154.2 45.5,-154.2"/>
<polygon fill="#000000" stroke="#000000" points="80.5,-154.2 80.5,-171.2 80.5,-171.2 80.5,-154.2 80.5,-154.2"/>
</a>
</g>
</g>
<!-- 取引先マスタ&#45;&gt;取引先グループマスタ -->
<g id="edge3" class="edge">
<title>取引先マスタ:w&#45;&gt;取引先グループマスタ:e</title>
<path fill="none" stroke="#000000" d="M161.776,-202.2C149.7815,-202.2 142.3229,-202.2 125.5,-202.2"/>
<polygon fill="#000000" stroke="#000000" points="168.5,-202.2001 176.5,-205.8 172.5,-202.2 176.5,-202.2 176.5,-202.2 176.5,-202.2 172.5,-202.2 176.5,-198.6 168.5,-202.2001 168.5,-202.2001"/>
<ellipse fill="none" stroke="#000000" cx="165.3" cy="-202.2001" rx="3.2" ry="3.2"/>
</g>
<!-- 仕入先マスタ -->
<g id="node3" class="node">
<title>仕入先マスタ</title>
<g id="a_node3"><a xlink:href="../../tables/_______2628176c.html" xlink:title="仕入先マスタ" target="_top">
<polygon fill="#ffffff" stroke="transparent" points="410,-469.7 410,-574.7 509,-574.7 509,-469.7 410,-469.7"/>
<polygon fill="#f5f5f5" stroke="transparent" points="410.5,-551.2 410.5,-574.2 509.5,-574.2 509.5,-551.2 410.5,-551.2"/>
<polygon fill="none" stroke="#000000" points="410.5,-551.2 410.5,-574.2 509.5,-574.2 509.5,-551.2 410.5,-551.2"/>
<text text-anchor="start" x="402.2779" y="-559.8" font-family="Helvetica,sans-Serif" font-weight="bold" font-size="11.00" fill="#000000">仕入先マスタ</text>
<text text-anchor="start" x="474.5437" y="-559.3" font-family="Helvetica,sans-Serif" font-size="11.00" fill="#000000">[table]</text>
<polygon fill="none" stroke="#000000" points="410.5,-529.2 410.5,-551.2 509.5,-551.2 509.5,-529.2 410.5,-529.2"/>
<image xlink:href="../../images/primaryKeys.png" width="11px" height="12px" preserveAspectRatio="xMinYMin meet" x="415.5" y="-546.2"/>
<text text-anchor="start" x="429.9114" y="-536.3" font-family="Helvetica,sans-Serif" font-size="11.00" fill="#000000">仕入先コード</text>
<polygon fill="none" stroke="#000000" points="410.5,-507.2 410.5,-529.2 509.5,-529.2 509.5,-507.2 410.5,-507.2"/>
<image xlink:href="../../images/primaryKeys.png" width="11px" height="12px" preserveAspectRatio="xMinYMin meet" x="415.5" y="-524.2"/>
<text text-anchor="start" x="430.5" y="-514.3" font-family="Helvetica,sans-Serif" font-size="11.00" fill="#000000">仕入先枝番</text>
<polygon fill="none" stroke="#000000" points="410.5,-488.2 410.5,-507.2 509.5,-507.2 509.5,-488.2 410.5,-488.2"/>
<text text-anchor="start" x="413.5" y="-494.3" font-family="Helvetica,sans-Serif" font-size="11.00" fill="#000000">...</text>
<polygon fill="#ffffff" stroke="transparent" points="410.5,-469.2 410.5,-488.2 509.5,-488.2 509.5,-469.2 410.5,-469.2"/>
<polygon fill="none" stroke="#000000" points="410.5,-469.2 410.5,-488.2 509.5,-488.2 509.5,-469.2 410.5,-469.2"/>
<polygon fill="#ffffff" stroke="transparent" points="411.5,-470.2 411.5,-487.2 450.5,-487.2 450.5,-470.2 411.5,-470.2"/>
<text text-anchor="start" x="413.5" y="-475.3" font-family="Helvetica,sans-Serif" font-size="11.00" fill="#000000">&lt; 1</text>
<polygon fill="#ffffff" stroke="transparent" points="450.5,-470.2 450.5,-487.2 479.5,-487.2 479.5,-470.2 450.5,-470.2"/>
<text text-anchor="start" x="461.9431" y="-475.3" font-family="Helvetica,sans-Serif" font-size="11.00" fill="#000000"> &#160;</text>
<polygon fill="#ffffff" stroke="transparent" points="479.5,-470.2 479.5,-487.2 508.5,-487.2 508.5,-470.2 479.5,-470.2"/>
<text text-anchor="start" x="500.3862" y="-475.3" font-family="Helvetica,sans-Serif" font-size="11.00" fill="#000000"> &#160;</text>
<polygon fill="#000000" stroke="#000000" points="450.5,-470.2 450.5,-487.2 450.5,-487.2 450.5,-470.2 450.5,-470.2"/>
<polygon fill="#000000" stroke="#000000" points="479.5,-470.2 479.5,-487.2 479.5,-487.2 479.5,-470.2 479.5,-470.2"/>
</a>
</g>
</g>
<!-- 仕入先マスタ&#45;&gt;取引先マスタ -->
<g id="edge2" class="edge">
<title>仕入先マスタ:w&#45;&gt;取引先マスタ:e</title>
<path fill="none" stroke="#000000" d="M396.1581,-536.5391C365.3728,-516.622 410.6074,-422.2 359.5,-422.2"/>
<polygon fill="#000000" stroke="#000000" points="402.7485,-538.2213 409.6096,-543.6882 406.6243,-539.2107 410.5,-540.2 410.5,-540.2 410.5,-540.2 406.6243,-539.2107 411.3904,-536.7118 402.7485,-538.2213 402.7485,-538.2213"/>
<ellipse fill="none" stroke="#000000" cx="399.648" cy="-537.4299" rx="3.2" ry="3.2"/>
</g>
<!-- 売上 -->
<g id="node5" class="node">
<title>売上</title>
<g id="a_node5"><a xlink:href="../../tables/___b1358.html" xlink:title="売上" target="_top">
<polygon fill="#ffffff" stroke="transparent" points="426,-255.7 426,-448.7 493,-448.7 493,-255.7 426,-255.7"/>
<polygon fill="#f5f5f5" stroke="transparent" points="426.5,-425.2 426.5,-448.2 493.5,-448.2 493.5,-425.2 426.5,-425.2"/>
<polygon fill="none" stroke="#000000" points="426.5,-425.2 426.5,-448.2 493.5,-448.2 493.5,-425.2 426.5,-425.2"/>
<text text-anchor="start" x="425.0793" y="-433.8" font-family="Helvetica,sans-Serif" font-weight="bold" font-size="11.00" fill="#000000">売上</text>
<text text-anchor="start" x="458.5437" y="-433.3" font-family="Helvetica,sans-Serif" font-size="11.00" fill="#000000">[table]</text>
<polygon fill="none" stroke="#000000" points="426.5,-403.2 426.5,-425.2 493.5,-425.2 493.5,-403.2 426.5,-403.2"/>
<image xlink:href="../../images/primaryKeys.png" width="11px" height="12px" preserveAspectRatio="xMinYMin meet" x="431.5" y="-420.2"/>
<text text-anchor="start" x="445.7101" y="-410.3" font-family="Helvetica,sans-Serif" font-size="11.00" fill="#000000">売上番号</text>
<polygon fill="#ffffff" stroke="transparent" points="426.5,-381.2 426.5,-403.2 493.5,-403.2 493.5,-381.2 426.5,-381.2"/>
<polygon fill="none" stroke="#000000" points="426.5,-381.2 426.5,-403.2 493.5,-403.2 493.5,-381.2 426.5,-381.2"/>
<text text-anchor="start" x="446.5" y="-388.3" font-family="Helvetica,sans-Serif" font-size="11.00" fill="#000000">売上日</text>
<polygon fill="#ffffff" stroke="transparent" points="426.5,-359.2 426.5,-381.2 493.5,-381.2 493.5,-359.2 426.5,-359.2"/>
<polygon fill="none" stroke="#000000" points="426.5,-359.2 426.5,-381.2 493.5,-381.2 493.5,-359.2 426.5,-359.2"/>
<image xlink:href="../../images/foreignKeys.png" width="11px" height="12px" preserveAspectRatio="xMinYMin meet" x="431.5" y="-376.2"/>
<text text-anchor="start" x="445.4021" y="-366.3" font-family="Helvetica,sans-Serif" font-size="11.00" fill="#000000">受注番号</text>
<polygon fill="#ffffff" stroke="transparent" points="426.5,-337.2 426.5,-359.2 493.5,-359.2 493.5,-337.2 426.5,-337.2"/>
<polygon fill="none" stroke="#000000" points="426.5,-337.2 426.5,-359.2 493.5,-359.2 493.5,-337.2 426.5,-337.2"/>
<image xlink:href="../../images/foreignKeys.png" width="11px" height="12px" preserveAspectRatio="xMinYMin meet" x="431.5" y="-354.2"/>
<text text-anchor="start" x="430.5257" y="-344.3" font-family="Helvetica,sans-Serif" font-size="11.00" fill="#000000">部門コード</text>
<polygon fill="#ffffff" stroke="transparent" points="426.5,-315.2 426.5,-337.2 493.5,-337.2 493.5,-315.2 426.5,-315.2"/>
<polygon fill="none" stroke="#000000" points="426.5,-315.2 426.5,-337.2 493.5,-337.2 493.5,-315.2 426.5,-315.2"/>
<image xlink:href="../../images/foreignKeys.png" width="11px" height="12px" preserveAspectRatio="xMinYMin meet" x="431.5" y="-332.2"/>
<text text-anchor="start" x="446.5" y="-322.3" font-family="Helvetica,sans-Serif" font-size="11.00" fill="#000000">開始日</text>
<polygon fill="#ffffff" stroke="transparent" points="426.5,-293.2 426.5,-315.2 493.5,-315.2 493.5,-293.2 426.5,-293.2"/>
<polygon fill="none" stroke="#000000" points="426.5,-293.2 426.5,-315.2 493.5,-315.2 493.5,-293.2 426.5,-293.2"/>
<image xlink:href="../../images/foreignKeys.png" width="11px" height="12px" preserveAspectRatio="xMinYMin meet" x="431.5" y="-310.2"/>
<text text-anchor="start" x="428.9978" y="-300.3" font-family="Helvetica,sans-Serif" font-size="11.00" fill="#000000">取引先コード</text>
<polygon fill="none" stroke="#000000" points="426.5,-274.2 426.5,-293.2 493.5,-293.2 493.5,-274.2 426.5,-274.2"/>
<text text-anchor="start" x="429.5" y="-280.3" font-family="Helvetica,sans-Serif" font-size="11.00" fill="#000000">...</text>
<polygon fill="#ffffff" stroke="transparent" points="426.5,-255.2 426.5,-274.2 493.5,-274.2 493.5,-255.2 426.5,-255.2"/>
<polygon fill="none" stroke="#000000" points="426.5,-255.2 426.5,-274.2 493.5,-274.2 493.5,-255.2 426.5,-255.2"/>
<polygon fill="#ffffff" stroke="transparent" points="427.5,-256.2 427.5,-273.2 452.5,-273.2 452.5,-256.2 427.5,-256.2"/>
<text text-anchor="start" x="429.5" y="-261.3" font-family="Helvetica,sans-Serif" font-size="11.00" fill="#000000">&lt; 4</text>
<polygon fill="#ffffff" stroke="transparent" points="452.5,-256.2 452.5,-273.2 468.5,-273.2 468.5,-256.2 452.5,-256.2"/>
<text text-anchor="start" x="457.4431" y="-261.3" font-family="Helvetica,sans-Serif" font-size="11.00" fill="#000000"> &#160;</text>
<polygon fill="#ffffff" stroke="transparent" points="468.5,-256.2 468.5,-273.2 492.5,-273.2 492.5,-256.2 468.5,-256.2"/>
<text text-anchor="start" x="474.9053" y="-261.3" font-family="Helvetica,sans-Serif" font-size="11.00" fill="#000000">1 &gt;</text>
<polygon fill="#000000" stroke="#000000" points="452.5,-256.2 452.5,-273.2 452.5,-273.2 452.5,-256.2 452.5,-256.2"/>
<polygon fill="#000000" stroke="#000000" points="468.5,-256.2 468.5,-273.2 468.5,-273.2 468.5,-256.2 468.5,-256.2"/>
</a>
</g>
</g>
<!-- 売上&#45;&gt;取引先マスタ -->
<g id="edge4" class="edge">
<title>売上:w&#45;&gt;取引先マスタ:e</title>
<path fill="none" stroke="#000000" d="M412.3544,-307.1169C375.2433,-325.2879 414.1547,-422.2 359.5,-422.2"/>
<polygon fill="#000000" stroke="#000000" points="418.6648,-305.8157 427.2271,-307.7258 422.5824,-305.0078 426.5,-304.2 426.5,-304.2 426.5,-304.2 422.5824,-305.0078 425.7729,-300.6742 418.6648,-305.8157 418.6648,-305.8157"/>
<ellipse fill="none" stroke="#000000" cx="415.5308" cy="-306.4619" rx="3.2" ry="3.2"/>
</g>
<!-- 顧客マスタ -->
<g id="node6" class="node">
<title>顧客マスタ</title>
<g id="a_node6"><a xlink:href="../../tables/______8e04fe89.html" xlink:title="顧客マスタ" target="_top">
<polygon fill="#ffffff" stroke="transparent" points="414,-129.7 414,-234.7 505,-234.7 505,-129.7 414,-129.7"/>
<polygon fill="#f5f5f5" stroke="transparent" points="414.5,-211.2 414.5,-234.2 505.5,-234.2 505.5,-211.2 414.5,-211.2"/>
<polygon fill="none" stroke="#000000" points="414.5,-211.2 414.5,-234.2 505.5,-234.2 505.5,-211.2 414.5,-211.2"/>
<text text-anchor="start" x="403.0892" y="-219.8" font-family="Helvetica,sans-Serif" font-weight="bold" font-size="11.00" fill="#000000">顧客マスタ</text>
<text text-anchor="start" x="470.5437" y="-219.3" font-family="Helvetica,sans-Serif" font-size="11.00" fill="#000000">[table]</text>
<polygon fill="none" stroke="#000000" points="414.5,-189.2 414.5,-211.2 505.5,-211.2 505.5,-189.2 414.5,-189.2"/>
<image xlink:href="../../images/primaryKeys.png" width="11px" height="12px" preserveAspectRatio="xMinYMin meet" x="419.5" y="-206.2"/>
<text text-anchor="start" x="430.2227" y="-196.3" font-family="Helvetica,sans-Serif" font-size="11.00" fill="#000000">顧客コード</text>
<polygon fill="none" stroke="#000000" points="414.5,-167.2 414.5,-189.2 505.5,-189.2 505.5,-167.2 414.5,-167.2"/>
<image xlink:href="../../images/primaryKeys.png" width="11px" height="12px" preserveAspectRatio="xMinYMin meet" x="419.5" y="-184.2"/>
<text text-anchor="start" x="434.5" y="-174.3" font-family="Helvetica,sans-Serif" font-size="11.00" fill="#000000">顧客枝番</text>
<polygon fill="none" stroke="#000000" points="414.5,-148.2 414.5,-167.2 505.5,-167.2 505.5,-148.2 414.5,-148.2"/>
<text text-anchor="start" x="417.5" y="-154.3" font-family="Helvetica,sans-Serif" font-size="11.00" fill="#000000">...</text>
<polygon fill="#ffffff" stroke="transparent" points="414.5,-129.2 414.5,-148.2 505.5,-148.2 505.5,-129.2 414.5,-129.2"/>
<polygon fill="none" stroke="#000000" points="414.5,-129.2 414.5,-148.2 505.5,-148.2 505.5,-129.2 414.5,-129.2"/>
<polygon fill="#ffffff" stroke="transparent" points="415.5,-130.2 415.5,-147.2 448.5,-147.2 448.5,-130.2 415.5,-130.2"/>
<text text-anchor="start" x="417.5" y="-135.3" font-family="Helvetica,sans-Serif" font-size="11.00" fill="#000000">&lt; 1</text>
<polygon fill="#ffffff" stroke="transparent" points="448.5,-130.2 448.5,-147.2 472.5,-147.2 472.5,-130.2 448.5,-130.2"/>
<text text-anchor="start" x="457.4431" y="-135.3" font-family="Helvetica,sans-Serif" font-size="11.00" fill="#000000"> &#160;</text>
<polygon fill="#ffffff" stroke="transparent" points="472.5,-130.2 472.5,-147.2 504.5,-147.2 504.5,-130.2 472.5,-130.2"/>
<text text-anchor="start" x="486.9053" y="-135.3" font-family="Helvetica,sans-Serif" font-size="11.00" fill="#000000">2 &gt;</text>
<polygon fill="#000000" stroke="#000000" points="448.5,-130.2 448.5,-147.2 448.5,-147.2 448.5,-130.2 448.5,-130.2"/>
<polygon fill="#000000" stroke="#000000" points="472.5,-130.2 472.5,-147.2 472.5,-147.2 472.5,-130.2 472.5,-130.2"/>
</a>
</g>
</g>
<!-- 顧客マスタ&#45;&gt;取引先マスタ -->
<g id="edge5" class="edge">
<title>顧客マスタ:w&#45;&gt;取引先マスタ:e</title>
<path fill="none" stroke="#000000" d="M399.9839,-202.1192C328.3231,-223.8173 455.5906,-422.2 359.5,-422.2"/>
<polygon fill="#000000" stroke="#000000" points="406.569,-201.2486 414.9719,-203.7689 410.5345,-200.7243 414.5,-200.2 414.5,-200.2 414.5,-200.2 410.5345,-200.7243 414.0281,-196.6311 406.569,-201.2486 406.569,-201.2486"/>
<ellipse fill="none" stroke="#000000" cx="403.3966" cy="-201.6681" rx="3.2" ry="3.2"/>
</g>
</g>
</svg>
