<?xml version="1.0" encoding="UTF-8" standalone="no"?>
<!DOCTYPE svg PUBLIC "-//W3C//DTD SVG 1.1//EN"
 "http://www.w3.org/Graphics/SVG/1.1/DTD/svg11.dtd">
<!-- Generated by graphviz version 2.40.1 (20161225.0304)
 -->
<!-- Title: twoDegreesRelationshipsDiagram Pages: 1 -->
<svg width="461pt" height="579pt"
 viewBox="0.00 0.00 461.00 578.70" xmlns="http://www.w3.org/2000/svg" xmlns:xlink="http://www.w3.org/1999/xlink">
<g id="graph0" class="graph" transform="scale(1 1) rotate(0) translate(4 574.7)">
<title>twoDegreesRelationshipsDiagram</title>
<polygon fill="#ffffff" stroke="transparent" points="-4,4 -4,-574.7 457,-574.7 457,4 -4,4"/>
<text text-anchor="middle" x="72.4936" y="-7.3" font-family="Helvetica,sans-Serif" font-size="11.00" fill="#000000">Generated by SchemaSpy</text>
<!-- 代替商品 -->
<g id="node1" class="node">
<title>代替商品</title>
<g id="a_node1"><a xlink:href="../../tables/_____25696db7.html" xlink:title="代替商品" target="_top">
<polygon fill="#ffffff" stroke="transparent" points="282,-366.7 282,-566.7 445,-566.7 445,-366.7 282,-366.7"/>
<polygon fill="#f5f5f5" stroke="transparent" points="284.5,-541.7 284.5,-564.7 443.5,-564.7 443.5,-541.7 284.5,-541.7"/>
<polygon fill="none" stroke="#000000" points="284.5,-541.7 284.5,-564.7 443.5,-564.7 443.5,-541.7 284.5,-541.7"/>
<text text-anchor="start" x="279.7691" y="-550.3" font-family="Helvetica,sans-Serif" font-weight="bold" font-size="11.00" fill="#000000">代替商品</text>
<text text-anchor="start" x="408.5437" y="-549.8" font-family="Helvetica,sans-Serif" font-size="11.00" fill="#000000">[table]</text>
<polygon fill="none" stroke="#000000" points="284.5,-519.7 284.5,-541.7 359.5,-541.7 359.5,-519.7 284.5,-519.7"/>
<image xlink:href="../../images/primaryKeys.png" width="11px" height="12px" preserveAspectRatio="xMinYMin meet" x="289.5" y="-536.7"/>
<text text-anchor="start" x="299.5547" y="-526.8" font-family="Helvetica,sans-Serif" font-size="11.00" fill="#000000">商品コード</text>
<polygon fill="none" stroke="#000000" points="359.5,-519.7 359.5,-541.7 443.5,-541.7 443.5,-519.7 359.5,-519.7"/>
<text text-anchor="start" x="362.5" y="-527.4" font-family="Helvetica,sans-Serif" font-size="11.00" fill="#000000">varchar[16]</text>
<polygon fill="none" stroke="#000000" points="284.5,-497.7 284.5,-519.7 359.5,-519.7 359.5,-497.7 284.5,-497.7"/>
<image xlink:href="../../images/primaryKeys.png" width="11px" height="12px" preserveAspectRatio="xMinYMin meet" x="289.5" y="-514.7"/>
<text text-anchor="start" x="285.4945" y="-504.8" font-family="Helvetica,sans-Serif" font-size="11.00" fill="#000000">代替商品コード</text>
<polygon fill="none" stroke="#000000" points="359.5,-497.7 359.5,-519.7 443.5,-519.7 443.5,-497.7 359.5,-497.7"/>
<text text-anchor="start" x="362.5" y="-505.4" font-family="Helvetica,sans-Serif" font-size="11.00" fill="#000000">varchar[16]</text>
<polygon fill="none" stroke="#000000" points="284.5,-475.7 284.5,-497.7 359.5,-497.7 359.5,-475.7 284.5,-475.7"/>
<text text-anchor="start" x="304.1346" y="-482.8" font-family="Helvetica,sans-Serif" font-size="11.00" fill="#000000">優先順位</text>
<polygon fill="none" stroke="#000000" points="359.5,-475.7 359.5,-497.7 443.5,-497.7 443.5,-475.7 359.5,-475.7"/>
<text text-anchor="start" x="362.5" y="-483.4" font-family="Helvetica,sans-Serif" font-size="11.00" fill="#000000">int4[10]</text>
<polygon fill="none" stroke="#000000" points="284.5,-453.7 284.5,-475.7 359.5,-475.7 359.5,-453.7 284.5,-453.7"/>
<text text-anchor="start" x="304.5" y="-460.8" font-family="Helvetica,sans-Serif" font-size="11.00" fill="#000000">作成日時</text>
<polygon fill="none" stroke="#000000" points="359.5,-453.7 359.5,-475.7 443.5,-475.7 443.5,-453.7 359.5,-453.7"/>
<text text-anchor="start" x="362.3807" y="-461.4" font-family="Helvetica,sans-Serif" font-size="11.00" fill="#000000">timestamp[29,6]</text>
<polygon fill="none" stroke="#000000" points="284.5,-431.7 284.5,-453.7 359.5,-453.7 359.5,-431.7 284.5,-431.7"/>
<text text-anchor="start" x="304.5" y="-438.8" font-family="Helvetica,sans-Serif" font-size="11.00" fill="#000000">作成者名</text>
<polygon fill="none" stroke="#000000" points="359.5,-431.7 359.5,-453.7 443.5,-453.7 443.5,-431.7 359.5,-431.7"/>
<text text-anchor="start" x="362.5" y="-439.4" font-family="Helvetica,sans-Serif" font-size="11.00" fill="#000000">varchar[12]</text>
<polygon fill="none" stroke="#000000" points="284.5,-409.7 284.5,-431.7 359.5,-431.7 359.5,-409.7 284.5,-409.7"/>
<text text-anchor="start" x="304.5" y="-416.8" font-family="Helvetica,sans-Serif" font-size="11.00" fill="#000000">更新日時</text>
<polygon fill="none" stroke="#000000" points="359.5,-409.7 359.5,-431.7 443.5,-431.7 443.5,-409.7 359.5,-409.7"/>
<text text-anchor="start" x="362.3807" y="-417.4" font-family="Helvetica,sans-Serif" font-size="11.00" fill="#000000">timestamp[29,6]</text>
<polygon fill="none" stroke="#000000" points="284.5,-387.7 284.5,-409.7 359.5,-409.7 359.5,-387.7 284.5,-387.7"/>
<text text-anchor="start" x="304.5" y="-394.8" font-family="Helvetica,sans-Serif" font-size="11.00" fill="#000000">更新者名</text>
<polygon fill="none" stroke="#000000" points="359.5,-387.7 359.5,-409.7 443.5,-409.7 443.5,-387.7 359.5,-387.7"/>
<text text-anchor="start" x="362.5" y="-395.4" font-family="Helvetica,sans-Serif" font-size="11.00" fill="#000000">varchar[12]</text>
<polygon fill="#ffffff" stroke="transparent" points="284.5,-368.7 284.5,-387.7 443.5,-387.7 443.5,-368.7 284.5,-368.7"/>
<polygon fill="none" stroke="#000000" points="284.5,-368.7 284.5,-387.7 443.5,-387.7 443.5,-368.7 284.5,-368.7"/>
<polygon fill="#ffffff" stroke="transparent" points="285.5,-369.7 285.5,-386.7 341.5,-386.7 341.5,-369.7 285.5,-369.7"/>
<text text-anchor="start" x="287.5" y="-374.8" font-family="Helvetica,sans-Serif" font-size="11.00" fill="#000000">&lt; 2</text>
<polygon fill="#ffffff" stroke="transparent" points="341.5,-369.7 341.5,-386.7 387.5,-386.7 387.5,-369.7 341.5,-369.7"/>
<text text-anchor="start" x="361.4431" y="-374.8" font-family="Helvetica,sans-Serif" font-size="11.00" fill="#000000"> &#160;</text>
<polygon fill="#ffffff" stroke="transparent" points="387.5,-369.7 387.5,-386.7 442.5,-386.7 442.5,-369.7 387.5,-369.7"/>
<text text-anchor="start" x="424.9053" y="-374.8" font-family="Helvetica,sans-Serif" font-size="11.00" fill="#000000">0 &gt;</text>
<polygon fill="#000000" stroke="#000000" points="341.5,-369.7 341.5,-386.7 341.5,-386.7 341.5,-369.7 341.5,-369.7"/>
<polygon fill="#000000" stroke="#000000" points="387.5,-369.7 387.5,-386.7 387.5,-386.7 387.5,-369.7 387.5,-369.7"/>
<polygon fill="none" stroke="#000000" stroke-width="2" points="283,-367.7 283,-565.7 444,-565.7 444,-367.7 283,-367.7"/>
</a>
</g>
</g>
<!-- 商品マスタ -->
<g id="node2" class="node">
<title>商品マスタ</title>
<g id="a_node2"><a xlink:href="../../tables/______d8ecb269.html" xlink:title="商品マスタ" target="_top">
<polygon fill="#ffffff" stroke="transparent" points="150,-134.2 150,-305.2 233,-305.2 233,-134.2 150,-134.2"/>
<polygon fill="#f5f5f5" stroke="transparent" points="150.5,-281.7 150.5,-304.7 233.5,-304.7 233.5,-281.7 150.5,-281.7"/>
<polygon fill="none" stroke="#000000" points="150.5,-281.7 150.5,-304.7 233.5,-304.7 233.5,-281.7 150.5,-281.7"/>
<text text-anchor="start" x="146.4212" y="-290.3" font-family="Helvetica,sans-Serif" font-weight="bold" font-size="11.00" fill="#000000">商品マスタ</text>
<text text-anchor="start" x="198.5437" y="-289.8" font-family="Helvetica,sans-Serif" font-size="11.00" fill="#000000">[table]</text>
<polygon fill="none" stroke="#000000" points="150.5,-259.7 150.5,-281.7 233.5,-281.7 233.5,-259.7 150.5,-259.7"/>
<image xlink:href="../../images/primaryKeys.png" width="11px" height="12px" preserveAspectRatio="xMinYMin meet" x="155.5" y="-276.7"/>
<text text-anchor="start" x="169.5547" y="-266.8" font-family="Helvetica,sans-Serif" font-size="11.00" fill="#000000">商品コード</text>
<polygon fill="#ffffff" stroke="transparent" points="150.5,-237.7 150.5,-259.7 233.5,-259.7 233.5,-237.7 150.5,-237.7"/>
<polygon fill="none" stroke="#000000" points="150.5,-237.7 150.5,-259.7 233.5,-259.7 233.5,-237.7 150.5,-237.7"/>
<text text-anchor="start" x="170.5" y="-244.8" font-family="Helvetica,sans-Serif" font-size="11.00" fill="#000000">商品略称</text>
<polygon fill="#ffffff" stroke="transparent" points="150.5,-215.7 150.5,-237.7 233.5,-237.7 233.5,-215.7 150.5,-215.7"/>
<polygon fill="none" stroke="#000000" points="150.5,-215.7 150.5,-237.7 233.5,-237.7 233.5,-215.7 150.5,-215.7"/>
<image xlink:href="../../images/foreignKeys.png" width="11px" height="12px" preserveAspectRatio="xMinYMin meet" x="155.5" y="-232.7"/>
<text text-anchor="start" x="157.3315" y="-222.8" font-family="Helvetica,sans-Serif" font-size="11.00" fill="#000000">商品分類コード</text>
<polygon fill="#ffffff" stroke="transparent" points="150.5,-193.7 150.5,-215.7 233.5,-215.7 233.5,-193.7 150.5,-193.7"/>
<polygon fill="none" stroke="#000000" points="150.5,-193.7 150.5,-215.7 233.5,-215.7 233.5,-193.7 150.5,-193.7"/>
<text text-anchor="start" x="161.9114" y="-200.8" font-family="Helvetica,sans-Serif" font-size="11.00" fill="#000000">仕入先コード</text>
<polygon fill="#ffffff" stroke="transparent" points="150.5,-171.7 150.5,-193.7 233.5,-193.7 233.5,-171.7 150.5,-171.7"/>
<polygon fill="none" stroke="#000000" points="150.5,-171.7 150.5,-193.7 233.5,-193.7 233.5,-171.7 150.5,-171.7"/>
<text text-anchor="start" x="170.5" y="-178.8" font-family="Helvetica,sans-Serif" font-size="11.00" fill="#000000">仕入先枝番</text>
<polygon fill="none" stroke="#000000" points="150.5,-152.7 150.5,-171.7 233.5,-171.7 233.5,-152.7 150.5,-152.7"/>
<text text-anchor="start" x="153.5" y="-158.8" font-family="Helvetica,sans-Serif" font-size="11.00" fill="#000000">...</text>
<polygon fill="#ffffff" stroke="transparent" points="150.5,-133.7 150.5,-152.7 233.5,-152.7 233.5,-133.7 150.5,-133.7"/>
<polygon fill="none" stroke="#000000" points="150.5,-133.7 150.5,-152.7 233.5,-152.7 233.5,-133.7 150.5,-133.7"/>
<polygon fill="#ffffff" stroke="transparent" points="151.5,-134.7 151.5,-151.7 181.5,-151.7 181.5,-134.7 151.5,-134.7"/>
<text text-anchor="start" x="153.5" y="-139.8" font-family="Helvetica,sans-Serif" font-size="11.00" fill="#000000">&lt; 1</text>
<polygon fill="#ffffff" stroke="transparent" points="181.5,-134.7 181.5,-151.7 202.5,-151.7 202.5,-134.7 181.5,-134.7"/>
<text text-anchor="start" x="188.9431" y="-139.8" font-family="Helvetica,sans-Serif" font-size="11.00" fill="#000000"> &#160;</text>
<polygon fill="#ffffff" stroke="transparent" points="202.5,-134.7 202.5,-151.7 232.5,-151.7 232.5,-134.7 202.5,-134.7"/>
<text text-anchor="start" x="214.9053" y="-139.8" font-family="Helvetica,sans-Serif" font-size="11.00" fill="#000000">6 &gt;</text>
<polygon fill="#000000" stroke="#000000" points="181.5,-134.7 181.5,-151.7 181.5,-151.7 181.5,-134.7 181.5,-134.7"/>
<polygon fill="#000000" stroke="#000000" points="202.5,-134.7 202.5,-151.7 202.5,-151.7 202.5,-134.7 202.5,-134.7"/>
</a>
</g>
</g>
<!-- 代替商品&#45;&gt;商品マスタ -->
<g id="edge1" class="edge">
<title>代替商品:w&#45;&gt;商品マスタ:e</title>
<path fill="none" stroke="#000000" d="M270.0641,-506.9211C192.4097,-485.1419 336.1856,-270.7 233.5,-270.7"/>
<polygon fill="#000000" stroke="#000000" points="276.5601,-507.7215 284.0597,-512.273 280.53,-508.2108 284.5,-508.7 284.5,-508.7 284.5,-508.7 280.53,-508.2108 284.9403,-505.127 276.5601,-507.7215 276.5601,-507.7215"/>
<ellipse fill="none" stroke="#000000" cx="273.3841" cy="-507.3302" rx="3.2" ry="3.2"/>
</g>
<!-- 代替商品&#45;&gt;商品マスタ -->
<g id="edge2" class="edge">
<title>代替商品:w&#45;&gt;商品マスタ:e</title>
<path fill="none" stroke="#000000" d="M271.046,-524.273C237.034,-484.2352 286.8589,-270.7 233.5,-270.7"/>
<polygon fill="#000000" stroke="#000000" points="277.2813,-527.2516 282.9482,-533.9484 280.8907,-528.9758 284.5,-530.7 284.5,-530.7 284.5,-530.7 280.8907,-528.9758 286.0518,-527.4516 277.2813,-527.2516 277.2813,-527.2516"/>
<ellipse fill="none" stroke="#000000" cx="274.3939" cy="-525.8723" rx="3.2" ry="3.2"/>
</g>
<!-- 商品分類マスタ -->
<g id="node4" class="node">
<title>商品分類マスタ</title>
<g id="a_node4"><a xlink:href="../../tables/________52e8cf11.html" xlink:title="商品分類マスタ" target="_top">
<polygon fill="#ffffff" stroke="transparent" points="8,-199.2 8,-260.2 101,-260.2 101,-199.2 8,-199.2"/>
<polygon fill="#f5f5f5" stroke="transparent" points="8.5,-236.7 8.5,-259.7 101.5,-259.7 101.5,-236.7 8.5,-236.7"/>
<polygon fill="none" stroke="#000000" points="8.5,-236.7 8.5,-259.7 101.5,-259.7 101.5,-236.7 8.5,-236.7"/>
<text text-anchor="start" x="-.3019" y="-245.3" font-family="Helvetica,sans-Serif" font-weight="bold" font-size="11.00" fill="#000000">商品分類マスタ</text>
<text text-anchor="start" x="67.0219" y="-244.8" font-family="Helvetica,sans-Serif" font-size="11.00" fill="#000000">[table]</text>
<polygon fill="none" stroke="#000000" points="8.5,-217.7 8.5,-236.7 101.5,-236.7 101.5,-217.7 8.5,-217.7"/>
<text text-anchor="start" x="11.5" y="-223.8" font-family="Helvetica,sans-Serif" font-size="11.00" fill="#000000">...</text>
<polygon fill="#ffffff" stroke="transparent" points="8.5,-198.7 8.5,-217.7 101.5,-217.7 101.5,-198.7 8.5,-198.7"/>
<polygon fill="none" stroke="#000000" points="8.5,-198.7 8.5,-217.7 101.5,-217.7 101.5,-198.7 8.5,-198.7"/>
<polygon fill="#ffffff" stroke="transparent" points="9.5,-199.7 9.5,-216.7 37.5,-216.7 37.5,-199.7 9.5,-199.7"/>
<text text-anchor="start" x="11.5" y="-204.8" font-family="Helvetica,sans-Serif" font-size="11.00" fill="#000000"> &#160;</text>
<polygon fill="#ffffff" stroke="transparent" points="37.5,-199.7 37.5,-216.7 64.5,-216.7 64.5,-199.7 37.5,-199.7"/>
<text text-anchor="start" x="47.9431" y="-204.8" font-family="Helvetica,sans-Serif" font-size="11.00" fill="#000000"> &#160;</text>
<polygon fill="#ffffff" stroke="transparent" points="64.5,-199.7 64.5,-216.7 100.5,-216.7 100.5,-199.7 64.5,-199.7"/>
<text text-anchor="start" x="82.9053" y="-204.8" font-family="Helvetica,sans-Serif" font-size="11.00" fill="#000000">1 &gt;</text>
<polygon fill="#000000" stroke="#000000" points="37.5,-199.7 37.5,-216.7 37.5,-216.7 37.5,-199.7 37.5,-199.7"/>
<polygon fill="#000000" stroke="#000000" points="64.5,-199.7 64.5,-216.7 64.5,-216.7 64.5,-199.7 64.5,-199.7"/>
</a>
</g>
</g>
<!-- 商品マスタ&#45;&gt;商品分類マスタ -->
<g id="edge4" class="edge">
<title>商品マスタ:w&#45;&gt;商品分類マスタ:e</title>
<path fill="none" stroke="#000000" d="M135.9909,-226.7C124.6774,-226.7 117.4931,-226.7 101.5,-226.7"/>
<polygon fill="#000000" stroke="#000000" points="142.5,-226.7001 150.5,-230.3 146.5,-226.7 150.5,-226.7 150.5,-226.7 150.5,-226.7 146.5,-226.7 150.5,-223.1 142.5,-226.7001 142.5,-226.7001"/>
<ellipse fill="none" stroke="#000000" cx="139.3" cy="-226.7001" rx="3.2" ry="3.2"/>
</g>
<!-- 受注明細 -->
<g id="node3" class="node">
<title>受注明細</title>
<g id="a_node3"><a xlink:href="../../tables/_____27c23493.html" xlink:title="受注明細" target="_top">
<polygon fill="#ffffff" stroke="transparent" points="328.5,-284.2 328.5,-345.2 398.5,-345.2 398.5,-284.2 328.5,-284.2"/>
<polygon fill="#f5f5f5" stroke="transparent" points="328.5,-321.7 328.5,-344.7 398.5,-344.7 398.5,-321.7 328.5,-321.7"/>
<polygon fill="none" stroke="#000000" points="328.5,-321.7 328.5,-344.7 398.5,-344.7 398.5,-321.7 328.5,-321.7"/>
<text text-anchor="start" x="325.6006" y="-330.3" font-family="Helvetica,sans-Serif" font-weight="bold" font-size="11.00" fill="#000000">受注明細</text>
<text text-anchor="start" x="364.0219" y="-329.8" font-family="Helvetica,sans-Serif" font-size="11.00" fill="#000000">[table]</text>
<polygon fill="none" stroke="#000000" points="328.5,-302.7 328.5,-321.7 398.5,-321.7 398.5,-302.7 328.5,-302.7"/>
<text text-anchor="start" x="331.5" y="-308.8" font-family="Helvetica,sans-Serif" font-size="11.00" fill="#000000">...</text>
<polygon fill="#ffffff" stroke="transparent" points="328.5,-283.7 328.5,-302.7 398.5,-302.7 398.5,-283.7 328.5,-283.7"/>
<polygon fill="none" stroke="#000000" points="328.5,-283.7 328.5,-302.7 398.5,-302.7 398.5,-283.7 328.5,-283.7"/>
<polygon fill="#ffffff" stroke="transparent" points="329.5,-284.7 329.5,-301.7 358.5,-301.7 358.5,-284.7 329.5,-284.7"/>
<text text-anchor="start" x="331.5" y="-289.8" font-family="Helvetica,sans-Serif" font-size="11.00" fill="#000000">&lt; 2</text>
<polygon fill="#ffffff" stroke="transparent" points="358.5,-284.7 358.5,-301.7 378.5,-301.7 378.5,-284.7 358.5,-284.7"/>
<text text-anchor="start" x="365.4431" y="-289.8" font-family="Helvetica,sans-Serif" font-size="11.00" fill="#000000"> &#160;</text>
<polygon fill="#ffffff" stroke="transparent" points="378.5,-284.7 378.5,-301.7 397.5,-301.7 397.5,-284.7 378.5,-284.7"/>
<text text-anchor="start" x="389.3862" y="-289.8" font-family="Helvetica,sans-Serif" font-size="11.00" fill="#000000"> &#160;</text>
<polygon fill="#000000" stroke="#000000" points="358.5,-284.7 358.5,-301.7 358.5,-301.7 358.5,-284.7 358.5,-284.7"/>
<polygon fill="#000000" stroke="#000000" points="378.5,-284.7 378.5,-301.7 378.5,-301.7 378.5,-284.7 378.5,-284.7"/>
</a>
</g>
</g>
<!-- 受注明細&#45;&gt;商品マスタ -->
<g id="edge3" class="edge">
<title>受注明細:w&#45;&gt;商品マスタ:e</title>
<path fill="none" stroke="#000000" d="M313.9645,-310.1428C281.214,-302.6537 274.0975,-270.7 233.5,-270.7"/>
<polygon fill="#000000" stroke="#000000" points="320.5455,-310.8478 328.1165,-315.2795 324.5228,-311.2739 328.5,-311.7 328.5,-311.7 328.5,-311.7 324.5228,-311.2739 328.8835,-308.1205 320.5455,-310.8478 320.5455,-310.8478"/>
<ellipse fill="none" stroke="#000000" cx="317.3637" cy="-310.5069" rx="3.2" ry="3.2"/>
</g>
<!-- 在庫 -->
<g id="node5" class="node">
<title>在庫</title>
<g id="a_node5"><a xlink:href="../../tables/___aec83.html" xlink:title="在庫" target="_top">
<polygon fill="#ffffff" stroke="transparent" points="336.5,-202.2 336.5,-263.2 390.5,-263.2 390.5,-202.2 336.5,-202.2"/>
<polygon fill="#f5f5f5" stroke="transparent" points="336.5,-239.7 336.5,-262.7 390.5,-262.7 390.5,-239.7 336.5,-239.7"/>
<polygon fill="none" stroke="#000000" points="336.5,-239.7 336.5,-262.7 390.5,-262.7 390.5,-239.7 336.5,-239.7"/>
<text text-anchor="start" x="334.4688" y="-248.3" font-family="Helvetica,sans-Serif" font-weight="bold" font-size="11.00" fill="#000000">在庫</text>
<text text-anchor="start" x="356.0219" y="-247.8" font-family="Helvetica,sans-Serif" font-size="11.00" fill="#000000">[table]</text>
<polygon fill="none" stroke="#000000" points="336.5,-220.7 336.5,-239.7 390.5,-239.7 390.5,-220.7 336.5,-220.7"/>
<text text-anchor="start" x="339.5" y="-226.8" font-family="Helvetica,sans-Serif" font-size="11.00" fill="#000000">...</text>
<polygon fill="#ffffff" stroke="transparent" points="336.5,-201.7 336.5,-220.7 390.5,-220.7 390.5,-201.7 336.5,-201.7"/>
<polygon fill="none" stroke="#000000" points="336.5,-201.7 336.5,-220.7 390.5,-220.7 390.5,-201.7 336.5,-201.7"/>
<polygon fill="#ffffff" stroke="transparent" points="337.5,-202.7 337.5,-219.7 361.5,-219.7 361.5,-202.7 337.5,-202.7"/>
<text text-anchor="start" x="339.5" y="-207.8" font-family="Helvetica,sans-Serif" font-size="11.00" fill="#000000">&lt; 2</text>
<polygon fill="#ffffff" stroke="transparent" points="361.5,-202.7 361.5,-219.7 375.5,-219.7 375.5,-202.7 361.5,-202.7"/>
<text text-anchor="start" x="365.4431" y="-207.8" font-family="Helvetica,sans-Serif" font-size="11.00" fill="#000000"> &#160;</text>
<polygon fill="#ffffff" stroke="transparent" points="375.5,-202.7 375.5,-219.7 389.5,-219.7 389.5,-202.7 375.5,-202.7"/>
<text text-anchor="start" x="381.3862" y="-207.8" font-family="Helvetica,sans-Serif" font-size="11.00" fill="#000000"> &#160;</text>
<polygon fill="#000000" stroke="#000000" points="361.5,-202.7 361.5,-219.7 361.5,-219.7 361.5,-202.7 361.5,-202.7"/>
<polygon fill="#000000" stroke="#000000" points="375.5,-202.7 375.5,-219.7 375.5,-219.7 375.5,-202.7 375.5,-202.7"/>
</a>
</g>
</g>
<!-- 在庫&#45;&gt;商品マスタ -->
<g id="edge5" class="edge">
<title>在庫:w&#45;&gt;商品マスタ:e</title>
<path fill="none" stroke="#000000" d="M321.8239,-231.0641C285.7176,-238.1783 277.3822,-270.7 233.5,-270.7"/>
<polygon fill="#000000" stroke="#000000" points="328.5343,-230.4405 336.8332,-233.2845 332.5172,-230.0702 336.5,-229.7 336.5,-229.7 336.5,-229.7 332.5172,-230.0702 336.1668,-226.1155 328.5343,-230.4405 328.5343,-230.4405"/>
<ellipse fill="none" stroke="#000000" cx="325.3481" cy="-230.7366" rx="3.2" ry="3.2"/>
</g>
<!-- 売上明細 -->
<g id="node6" class="node">
<title>売上明細</title>
<g id="a_node6"><a xlink:href="../../tables/_____29a0763a.html" xlink:title="売上明細" target="_top">
<polygon fill="#ffffff" stroke="transparent" points="328.5,-120.2 328.5,-181.2 398.5,-181.2 398.5,-120.2 328.5,-120.2"/>
<polygon fill="#f5f5f5" stroke="transparent" points="328.5,-157.7 328.5,-180.7 398.5,-180.7 398.5,-157.7 328.5,-157.7"/>
<polygon fill="none" stroke="#000000" points="328.5,-157.7 328.5,-180.7 398.5,-180.7 398.5,-157.7 328.5,-157.7"/>
<text text-anchor="start" x="325.9086" y="-166.3" font-family="Helvetica,sans-Serif" font-weight="bold" font-size="11.00" fill="#000000">売上明細</text>
<text text-anchor="start" x="364.0219" y="-165.8" font-family="Helvetica,sans-Serif" font-size="11.00" fill="#000000">[table]</text>
<polygon fill="none" stroke="#000000" points="328.5,-138.7 328.5,-157.7 398.5,-157.7 398.5,-138.7 328.5,-138.7"/>
<text text-anchor="start" x="331.5" y="-144.8" font-family="Helvetica,sans-Serif" font-size="11.00" fill="#000000">...</text>
<polygon fill="#ffffff" stroke="transparent" points="328.5,-119.7 328.5,-138.7 398.5,-138.7 398.5,-119.7 328.5,-119.7"/>
<polygon fill="none" stroke="#000000" points="328.5,-119.7 328.5,-138.7 398.5,-138.7 398.5,-119.7 328.5,-119.7"/>
<polygon fill="#ffffff" stroke="transparent" points="329.5,-120.7 329.5,-137.7 358.5,-137.7 358.5,-120.7 329.5,-120.7"/>
<text text-anchor="start" x="331.5" y="-125.8" font-family="Helvetica,sans-Serif" font-size="11.00" fill="#000000">&lt; 2</text>
<polygon fill="#ffffff" stroke="transparent" points="358.5,-120.7 358.5,-137.7 378.5,-137.7 378.5,-120.7 358.5,-120.7"/>
<text text-anchor="start" x="365.4431" y="-125.8" font-family="Helvetica,sans-Serif" font-size="11.00" fill="#000000"> &#160;</text>
<polygon fill="#ffffff" stroke="transparent" points="378.5,-120.7 378.5,-137.7 397.5,-137.7 397.5,-120.7 378.5,-120.7"/>
<text text-anchor="start" x="389.3862" y="-125.8" font-family="Helvetica,sans-Serif" font-size="11.00" fill="#000000"> &#160;</text>
<polygon fill="#000000" stroke="#000000" points="358.5,-120.7 358.5,-137.7 358.5,-137.7 358.5,-120.7 358.5,-120.7"/>
<polygon fill="#000000" stroke="#000000" points="378.5,-120.7 378.5,-137.7 378.5,-137.7 378.5,-120.7 378.5,-120.7"/>
</a>
</g>
</g>
<!-- 売上明細&#45;&gt;商品マスタ -->
<g id="edge6" class="edge">
<title>売上明細:w&#45;&gt;商品マスタ:e</title>
<path fill="none" stroke="#000000" d="M314.1213,-149.5322C295.515,-154.9711 290.1103,-171.8858 274,-191.7 249.1087,-222.314 272.9562,-270.7 233.5,-270.7"/>
<polygon fill="#000000" stroke="#000000" points="320.5642,-148.7112 328.9551,-151.2711 324.5321,-148.2056 328.5,-147.7 328.5,-147.7 328.5,-147.7 324.5321,-148.2056 328.0449,-144.1289 320.5642,-148.7112 320.5642,-148.7112"/>
<ellipse fill="none" stroke="#000000" cx="317.3898" cy="-149.1157" rx="3.2" ry="3.2"/>
</g>
<!-- 顧客別販売単価 -->
<g id="node7" class="node">
<title>顧客別販売単価</title>
<g id="a_node7"><a xlink:href="../../tables/________201bd2dc.html" xlink:title="顧客別販売単価" target="_top">
<polygon fill="#ffffff" stroke="transparent" points="317,-38.2 317,-99.2 410,-99.2 410,-38.2 317,-38.2"/>
<polygon fill="#f5f5f5" stroke="transparent" points="317.5,-75.7 317.5,-98.7 410.5,-98.7 410.5,-75.7 317.5,-75.7"/>
<polygon fill="none" stroke="#000000" points="317.5,-75.7 317.5,-98.7 410.5,-98.7 410.5,-75.7 317.5,-75.7"/>
<text text-anchor="start" x="300.6015" y="-84.3" font-family="Helvetica,sans-Serif" font-weight="bold" font-size="11.00" fill="#000000">顧客別販売単価</text>
<text text-anchor="start" x="376.0219" y="-83.8" font-family="Helvetica,sans-Serif" font-size="11.00" fill="#000000">[table]</text>
<polygon fill="none" stroke="#000000" points="317.5,-56.7 317.5,-75.7 410.5,-75.7 410.5,-56.7 317.5,-56.7"/>
<text text-anchor="start" x="320.5" y="-62.8" font-family="Helvetica,sans-Serif" font-size="11.00" fill="#000000">...</text>
<polygon fill="#ffffff" stroke="transparent" points="317.5,-37.7 317.5,-56.7 410.5,-56.7 410.5,-37.7 317.5,-37.7"/>
<polygon fill="none" stroke="#000000" points="317.5,-37.7 317.5,-56.7 410.5,-56.7 410.5,-37.7 317.5,-37.7"/>
<polygon fill="#ffffff" stroke="transparent" points="318.5,-38.7 318.5,-55.7 355.5,-55.7 355.5,-38.7 318.5,-38.7"/>
<text text-anchor="start" x="320.5" y="-43.8" font-family="Helvetica,sans-Serif" font-size="11.00" fill="#000000">&lt; 1</text>
<polygon fill="#ffffff" stroke="transparent" points="355.5,-38.7 355.5,-55.7 382.5,-55.7 382.5,-38.7 355.5,-38.7"/>
<text text-anchor="start" x="365.9431" y="-43.8" font-family="Helvetica,sans-Serif" font-size="11.00" fill="#000000"> &#160;</text>
<polygon fill="#ffffff" stroke="transparent" points="382.5,-38.7 382.5,-55.7 409.5,-55.7 409.5,-38.7 382.5,-38.7"/>
<text text-anchor="start" x="401.3862" y="-43.8" font-family="Helvetica,sans-Serif" font-size="11.00" fill="#000000"> &#160;</text>
<polygon fill="#000000" stroke="#000000" points="355.5,-38.7 355.5,-55.7 355.5,-55.7 355.5,-38.7 355.5,-38.7"/>
<polygon fill="#000000" stroke="#000000" points="382.5,-38.7 382.5,-55.7 382.5,-55.7 382.5,-38.7 382.5,-38.7"/>
</a>
</g>
</g>
<!-- 顧客別販売単価&#45;&gt;商品マスタ -->
<g id="edge7" class="edge">
<title>顧客別販売単価:w&#45;&gt;商品マスタ:e</title>
<path fill="none" stroke="#000000" d="M303.097,-68.2239C288.4557,-74.3293 284.6506,-90.7953 274,-109.7 237.7829,-173.9847 307.2848,-270.7 233.5,-270.7"/>
<polygon fill="#000000" stroke="#000000" points="309.6201,-67.0809 318.1214,-69.246 313.56,-66.3904 317.5,-65.7 317.5,-65.7 317.5,-65.7 313.56,-66.3904 316.8786,-62.154 309.6201,-67.0809 309.6201,-67.0809"/>
<ellipse fill="none" stroke="#000000" cx="306.4681" cy="-67.6332" rx="3.2" ry="3.2"/>
</g>
</g>
</svg>
