<?xml version="1.0" encoding="UTF-8" standalone="no"?>
<!DOCTYPE svg PUBLIC "-//W3C//DTD SVG 1.1//EN"
 "http://www.w3.org/Graphics/SVG/1.1/DTD/svg11.dtd">
<!-- Generated by graphviz version 2.40.1 (20161225.0304)
 -->
<!-- Title: twoDegreesRelationshipsDiagram Pages: 1 -->
<svg width="493pt" height="519pt"
 viewBox="0.00 0.00 493.00 518.70" xmlns="http://www.w3.org/2000/svg" xmlns:xlink="http://www.w3.org/1999/xlink">
<g id="graph0" class="graph" transform="scale(1 1) rotate(0) translate(4 514.7)">
<title>twoDegreesRelationshipsDiagram</title>
<polygon fill="#ffffff" stroke="transparent" points="-4,4 -4,-514.7 489,-514.7 489,4 -4,4"/>
<text text-anchor="middle" x="72.4936" y="-7.3" font-family="Helvetica,sans-Serif" font-size="11.00" fill="#000000">Generated by SchemaSpy</text>
<!-- 与信残高 -->
<g id="node1" class="node">
<title>与信残高</title>
<g id="a_node1"><a xlink:href="../../tables/_____24b4cb80.html" xlink:title="与信残高" target="_top">
<polygon fill="#ffffff" stroke="transparent" points="322,-284.7 322,-506.7 477,-506.7 477,-284.7 322,-284.7"/>
<polygon fill="#f5f5f5" stroke="transparent" points="324.5,-481.7 324.5,-504.7 475.5,-504.7 475.5,-481.7 324.5,-481.7"/>
<polygon fill="none" stroke="#000000" points="324.5,-481.7 324.5,-504.7 475.5,-504.7 475.5,-481.7 324.5,-481.7"/>
<text text-anchor="start" x="317.3321" y="-490.3" font-family="Helvetica,sans-Serif" font-weight="bold" font-size="11.00" fill="#000000">与信残高</text>
<text text-anchor="start" x="440.5437" y="-489.8" font-family="Helvetica,sans-Serif" font-size="11.00" fill="#000000">[table]</text>
<polygon fill="none" stroke="#000000" points="324.5,-459.7 324.5,-481.7 391.5,-481.7 391.5,-459.7 324.5,-459.7"/>
<image xlink:href="../../images/primaryKeys.png" width="11px" height="12px" preserveAspectRatio="xMinYMin meet" x="329.5" y="-476.7"/>
<text text-anchor="start" x="326.9978" y="-466.8" font-family="Helvetica,sans-Serif" font-size="11.00" fill="#000000">取引先コード</text>
<polygon fill="none" stroke="#000000" points="391.5,-459.7 391.5,-481.7 475.5,-481.7 475.5,-459.7 391.5,-459.7"/>
<text text-anchor="start" x="394.5" y="-467.4" font-family="Helvetica,sans-Serif" font-size="11.00" fill="#000000">varchar[8]</text>
<polygon fill="none" stroke="#000000" points="324.5,-437.7 324.5,-459.7 391.5,-459.7 391.5,-437.7 324.5,-437.7"/>
<text text-anchor="start" x="338.6001" y="-444.8" font-family="Helvetica,sans-Serif" font-size="11.00" fill="#000000">受注残高</text>
<polygon fill="none" stroke="#000000" points="391.5,-437.7 391.5,-459.7 475.5,-459.7 475.5,-437.7 391.5,-437.7"/>
<text text-anchor="start" x="394.5" y="-445.4" font-family="Helvetica,sans-Serif" font-size="11.00" fill="#000000">int4[10]</text>
<polygon fill="none" stroke="#000000" points="324.5,-415.7 324.5,-437.7 391.5,-437.7 391.5,-415.7 324.5,-415.7"/>
<text text-anchor="start" x="338.6001" y="-422.8" font-family="Helvetica,sans-Serif" font-size="11.00" fill="#000000">売掛残高</text>
<polygon fill="none" stroke="#000000" points="391.5,-415.7 391.5,-437.7 475.5,-437.7 475.5,-415.7 391.5,-415.7"/>
<text text-anchor="start" x="394.5" y="-423.4" font-family="Helvetica,sans-Serif" font-size="11.00" fill="#000000">int4[10]</text>
<polygon fill="none" stroke="#000000" points="324.5,-393.7 324.5,-415.7 391.5,-415.7 391.5,-393.7 324.5,-393.7"/>
<text text-anchor="start" x="338.2041" y="-400.8" font-family="Helvetica,sans-Serif" font-size="11.00" fill="#000000">買掛残高</text>
<polygon fill="none" stroke="#000000" points="391.5,-393.7 391.5,-415.7 475.5,-415.7 475.5,-393.7 391.5,-393.7"/>
<text text-anchor="start" x="394.5" y="-401.4" font-family="Helvetica,sans-Serif" font-size="11.00" fill="#000000">int4[10]</text>
<polygon fill="none" stroke="#000000" points="324.5,-371.7 324.5,-393.7 391.5,-393.7 391.5,-371.7 324.5,-371.7"/>
<text text-anchor="start" x="341.6581" y="-378.8" font-family="Helvetica,sans-Serif" font-size="11.00" fill="#000000">作成日時</text>
<polygon fill="none" stroke="#000000" points="391.5,-371.7 391.5,-393.7 475.5,-393.7 475.5,-371.7 391.5,-371.7"/>
<text text-anchor="start" x="394.3807" y="-379.4" font-family="Helvetica,sans-Serif" font-size="11.00" fill="#000000">timestamp[29,6]</text>
<polygon fill="none" stroke="#000000" points="324.5,-349.7 324.5,-371.7 391.5,-371.7 391.5,-349.7 324.5,-349.7"/>
<text text-anchor="start" x="341.6581" y="-356.8" font-family="Helvetica,sans-Serif" font-size="11.00" fill="#000000">作成者名</text>
<polygon fill="none" stroke="#000000" points="391.5,-349.7 391.5,-371.7 475.5,-371.7 475.5,-349.7 391.5,-349.7"/>
<text text-anchor="start" x="394.5" y="-357.4" font-family="Helvetica,sans-Serif" font-size="11.00" fill="#000000">varchar[12]</text>
<polygon fill="none" stroke="#000000" points="324.5,-327.7 324.5,-349.7 391.5,-349.7 391.5,-327.7 324.5,-327.7"/>
<text text-anchor="start" x="344.5" y="-334.8" font-family="Helvetica,sans-Serif" font-size="11.00" fill="#000000">更新日時</text>
<polygon fill="none" stroke="#000000" points="391.5,-327.7 391.5,-349.7 475.5,-349.7 475.5,-327.7 391.5,-327.7"/>
<text text-anchor="start" x="394.3807" y="-335.4" font-family="Helvetica,sans-Serif" font-size="11.00" fill="#000000">timestamp[29,6]</text>
<polygon fill="none" stroke="#000000" points="324.5,-305.7 324.5,-327.7 391.5,-327.7 391.5,-305.7 324.5,-305.7"/>
<text text-anchor="start" x="344.5" y="-312.8" font-family="Helvetica,sans-Serif" font-size="11.00" fill="#000000">更新者名</text>
<polygon fill="none" stroke="#000000" points="391.5,-305.7 391.5,-327.7 475.5,-327.7 475.5,-305.7 391.5,-305.7"/>
<text text-anchor="start" x="394.5" y="-313.4" font-family="Helvetica,sans-Serif" font-size="11.00" fill="#000000">varchar[12]</text>
<polygon fill="#ffffff" stroke="transparent" points="324.5,-286.7 324.5,-305.7 475.5,-305.7 475.5,-286.7 324.5,-286.7"/>
<polygon fill="none" stroke="#000000" points="324.5,-286.7 324.5,-305.7 475.5,-305.7 475.5,-286.7 324.5,-286.7"/>
<polygon fill="#ffffff" stroke="transparent" points="325.5,-287.7 325.5,-304.7 378.5,-304.7 378.5,-287.7 325.5,-287.7"/>
<text text-anchor="start" x="327.5" y="-292.8" font-family="Helvetica,sans-Serif" font-size="11.00" fill="#000000">&lt; 1</text>
<polygon fill="#ffffff" stroke="transparent" points="378.5,-287.7 378.5,-304.7 422.5,-304.7 422.5,-287.7 378.5,-287.7"/>
<text text-anchor="start" x="397.4431" y="-292.8" font-family="Helvetica,sans-Serif" font-size="11.00" fill="#000000"> &#160;</text>
<polygon fill="#ffffff" stroke="transparent" points="422.5,-287.7 422.5,-304.7 474.5,-304.7 474.5,-287.7 422.5,-287.7"/>
<text text-anchor="start" x="456.9053" y="-292.8" font-family="Helvetica,sans-Serif" font-size="11.00" fill="#000000">0 &gt;</text>
<polygon fill="#000000" stroke="#000000" points="378.5,-287.7 378.5,-304.7 378.5,-304.7 378.5,-287.7 378.5,-287.7"/>
<polygon fill="#000000" stroke="#000000" points="422.5,-287.7 422.5,-304.7 422.5,-304.7 422.5,-287.7 422.5,-287.7"/>
<polygon fill="none" stroke="#000000" stroke-width="2" points="323,-285.7 323,-505.7 476,-505.7 476,-285.7 323,-285.7"/>
</a>
</g>
</g>
<!-- 取引先マスタ -->
<g id="node2" class="node">
<title>取引先マスタ</title>
<g id="a_node2"><a xlink:href="../../tables/_______70f9c0bb.html" xlink:title="取引先マスタ" target="_top">
<polygon fill="#ffffff" stroke="transparent" points="174,-96.2 174,-223.2 273,-223.2 273,-96.2 174,-96.2"/>
<polygon fill="#f5f5f5" stroke="transparent" points="174.5,-199.7 174.5,-222.7 273.5,-222.7 273.5,-199.7 174.5,-199.7"/>
<polygon fill="none" stroke="#000000" points="174.5,-199.7 174.5,-222.7 273.5,-222.7 273.5,-199.7 174.5,-199.7"/>
<text text-anchor="start" x="165.3644" y="-208.3" font-family="Helvetica,sans-Serif" font-weight="bold" font-size="11.00" fill="#000000">取引先マスタ</text>
<text text-anchor="start" x="238.5437" y="-207.8" font-family="Helvetica,sans-Serif" font-size="11.00" fill="#000000">[table]</text>
<polygon fill="none" stroke="#000000" points="174.5,-177.7 174.5,-199.7 273.5,-199.7 273.5,-177.7 174.5,-177.7"/>
<image xlink:href="../../images/primaryKeys.png" width="11px" height="12px" preserveAspectRatio="xMinYMin meet" x="179.5" y="-194.7"/>
<text text-anchor="start" x="192.9978" y="-184.8" font-family="Helvetica,sans-Serif" font-size="11.00" fill="#000000">取引先コード</text>
<polygon fill="#ffffff" stroke="transparent" points="174.5,-155.7 174.5,-177.7 273.5,-177.7 273.5,-155.7 174.5,-155.7"/>
<polygon fill="none" stroke="#000000" points="174.5,-155.7 174.5,-177.7 273.5,-177.7 273.5,-155.7 174.5,-155.7"/>
<text text-anchor="start" x="194.5" y="-162.8" font-family="Helvetica,sans-Serif" font-size="11.00" fill="#000000">取引先名</text>
<polygon fill="#ffffff" stroke="transparent" points="174.5,-133.7 174.5,-155.7 273.5,-155.7 273.5,-133.7 174.5,-133.7"/>
<polygon fill="none" stroke="#000000" points="174.5,-133.7 174.5,-155.7 273.5,-155.7 273.5,-133.7 174.5,-133.7"/>
<image xlink:href="../../images/foreignKeys.png" width="11px" height="12px" preserveAspectRatio="xMinYMin meet" x="179.5" y="-150.7"/>
<text text-anchor="start" x="167.1318" y="-140.8" font-family="Helvetica,sans-Serif" font-size="11.00" fill="#000000">取引先グループコード</text>
<polygon fill="none" stroke="#000000" points="174.5,-114.7 174.5,-133.7 273.5,-133.7 273.5,-114.7 174.5,-114.7"/>
<text text-anchor="start" x="177.5" y="-120.8" font-family="Helvetica,sans-Serif" font-size="11.00" fill="#000000">...</text>
<polygon fill="#ffffff" stroke="transparent" points="174.5,-95.7 174.5,-114.7 273.5,-114.7 273.5,-95.7 174.5,-95.7"/>
<polygon fill="none" stroke="#000000" points="174.5,-95.7 174.5,-114.7 273.5,-114.7 273.5,-95.7 174.5,-95.7"/>
<polygon fill="#ffffff" stroke="transparent" points="175.5,-96.7 175.5,-113.7 211.5,-113.7 211.5,-96.7 175.5,-96.7"/>
<text text-anchor="start" x="177.5" y="-101.8" font-family="Helvetica,sans-Serif" font-size="11.00" fill="#000000">&lt; 1</text>
<polygon fill="#ffffff" stroke="transparent" points="211.5,-96.7 211.5,-113.7 237.5,-113.7 237.5,-96.7 211.5,-96.7"/>
<text text-anchor="start" x="221.4431" y="-101.8" font-family="Helvetica,sans-Serif" font-size="11.00" fill="#000000"> &#160;</text>
<polygon fill="#ffffff" stroke="transparent" points="237.5,-96.7 237.5,-113.7 272.5,-113.7 272.5,-96.7 237.5,-96.7"/>
<text text-anchor="start" x="254.9053" y="-101.8" font-family="Helvetica,sans-Serif" font-size="11.00" fill="#000000">4 &gt;</text>
<polygon fill="#000000" stroke="#000000" points="211.5,-96.7 211.5,-113.7 211.5,-113.7 211.5,-96.7 211.5,-96.7"/>
<polygon fill="#000000" stroke="#000000" points="237.5,-96.7 237.5,-113.7 237.5,-113.7 237.5,-96.7 237.5,-96.7"/>
</a>
</g>
</g>
<!-- 与信残高&#45;&gt;取引先マスタ -->
<g id="edge1" class="edge">
<title>与信残高:w&#45;&gt;取引先マスタ:e</title>
<path fill="none" stroke="#000000" d="M314.4106,-467.7238C269.5508,-437.5854 333.3274,-188.7 273.5,-188.7"/>
<polygon fill="#000000" stroke="#000000" points="324.8644,-466.6371 322.6009,-474.3102 321.0663,-473.8575 323.3298,-466.1844 324.8644,-466.6371"/>
<polyline fill="none" stroke="#000000" points="324.5,-470.7 320.6634,-469.5683 "/>
<ellipse fill="none" stroke="#000000" cx="317.5942" cy="-468.6629" rx="3.2" ry="3.2"/>
</g>
<!-- 取引先グループマスタ -->
<g id="node4" class="node">
<title>取引先グループマスタ</title>
<g id="a_node4"><a xlink:href="../../tables/___________d6a542a5.html" xlink:title="取引先グループマスタ" target="_top">
<polygon fill="#ffffff" stroke="transparent" points="8,-117.2 8,-178.2 125,-178.2 125,-117.2 8,-117.2"/>
<polygon fill="#f5f5f5" stroke="transparent" points="8.5,-154.7 8.5,-177.7 125.5,-177.7 125.5,-154.7 8.5,-154.7"/>
<polygon fill="none" stroke="#000000" points="8.5,-154.7 8.5,-177.7 125.5,-177.7 125.5,-154.7 8.5,-154.7"/>
<text text-anchor="start" x="-10.5016" y="-163.3" font-family="Helvetica,sans-Serif" font-weight="bold" font-size="11.00" fill="#000000">取引先グループマスタ</text>
<text text-anchor="start" x="91.0219" y="-162.8" font-family="Helvetica,sans-Serif" font-size="11.00" fill="#000000">[table]</text>
<polygon fill="none" stroke="#000000" points="8.5,-135.7 8.5,-154.7 125.5,-154.7 125.5,-135.7 8.5,-135.7"/>
<text text-anchor="start" x="11.5" y="-141.8" font-family="Helvetica,sans-Serif" font-size="11.00" fill="#000000">...</text>
<polygon fill="#ffffff" stroke="transparent" points="8.5,-116.7 8.5,-135.7 125.5,-135.7 125.5,-116.7 8.5,-116.7"/>
<polygon fill="none" stroke="#000000" points="8.5,-116.7 8.5,-135.7 125.5,-135.7 125.5,-116.7 8.5,-116.7"/>
<polygon fill="#ffffff" stroke="transparent" points="9.5,-117.7 9.5,-134.7 45.5,-134.7 45.5,-117.7 9.5,-117.7"/>
<text text-anchor="start" x="11.5" y="-122.8" font-family="Helvetica,sans-Serif" font-size="11.00" fill="#000000"> &#160;</text>
<polygon fill="#ffffff" stroke="transparent" points="45.5,-117.7 45.5,-134.7 80.5,-134.7 80.5,-117.7 45.5,-117.7"/>
<text text-anchor="start" x="59.9431" y="-122.8" font-family="Helvetica,sans-Serif" font-size="11.00" fill="#000000"> &#160;</text>
<polygon fill="#ffffff" stroke="transparent" points="80.5,-117.7 80.5,-134.7 124.5,-134.7 124.5,-117.7 80.5,-117.7"/>
<text text-anchor="start" x="106.9053" y="-122.8" font-family="Helvetica,sans-Serif" font-size="11.00" fill="#000000">1 &gt;</text>
<polygon fill="#000000" stroke="#000000" points="45.5,-117.7 45.5,-134.7 45.5,-134.7 45.5,-117.7 45.5,-117.7"/>
<polygon fill="#000000" stroke="#000000" points="80.5,-117.7 80.5,-134.7 80.5,-134.7 80.5,-117.7 80.5,-117.7"/>
</a>
</g>
</g>
<!-- 取引先マスタ&#45;&gt;取引先グループマスタ -->
<g id="edge3" class="edge">
<title>取引先マスタ:w&#45;&gt;取引先グループマスタ:e</title>
<path fill="none" stroke="#000000" d="M159.9909,-144.7C148.6774,-144.7 141.4931,-144.7 125.5,-144.7"/>
<polygon fill="#000000" stroke="#000000" points="166.5,-144.7001 174.5,-148.3 170.5,-144.7 174.5,-144.7 174.5,-144.7 174.5,-144.7 170.5,-144.7 174.5,-141.1 166.5,-144.7001 166.5,-144.7001"/>
<ellipse fill="none" stroke="#000000" cx="163.3" cy="-144.7001" rx="3.2" ry="3.2"/>
</g>
<!-- 仕入先マスタ -->
<g id="node3" class="node">
<title>仕入先マスタ</title>
<g id="a_node3"><a xlink:href="../../tables/_______2628176c.html" xlink:title="仕入先マスタ" target="_top">
<polygon fill="#ffffff" stroke="transparent" points="357,-202.2 357,-263.2 442,-263.2 442,-202.2 357,-202.2"/>
<polygon fill="#f5f5f5" stroke="transparent" points="357.5,-239.7 357.5,-262.7 442.5,-262.7 442.5,-239.7 357.5,-239.7"/>
<polygon fill="none" stroke="#000000" points="357.5,-239.7 357.5,-262.7 442.5,-262.7 442.5,-239.7 357.5,-239.7"/>
<text text-anchor="start" x="349.2779" y="-248.3" font-family="Helvetica,sans-Serif" font-weight="bold" font-size="11.00" fill="#000000">仕入先マスタ</text>
<text text-anchor="start" x="408.0219" y="-247.8" font-family="Helvetica,sans-Serif" font-size="11.00" fill="#000000">[table]</text>
<polygon fill="none" stroke="#000000" points="357.5,-220.7 357.5,-239.7 442.5,-239.7 442.5,-220.7 357.5,-220.7"/>
<text text-anchor="start" x="360.5" y="-226.8" font-family="Helvetica,sans-Serif" font-size="11.00" fill="#000000">...</text>
<polygon fill="#ffffff" stroke="transparent" points="357.5,-201.7 357.5,-220.7 442.5,-220.7 442.5,-201.7 357.5,-201.7"/>
<polygon fill="none" stroke="#000000" points="357.5,-201.7 357.5,-220.7 442.5,-220.7 442.5,-201.7 357.5,-201.7"/>
<polygon fill="#ffffff" stroke="transparent" points="358.5,-202.7 358.5,-219.7 392.5,-219.7 392.5,-202.7 358.5,-202.7"/>
<text text-anchor="start" x="360.5" y="-207.8" font-family="Helvetica,sans-Serif" font-size="11.00" fill="#000000">&lt; 1</text>
<polygon fill="#ffffff" stroke="transparent" points="392.5,-202.7 392.5,-219.7 417.5,-219.7 417.5,-202.7 392.5,-202.7"/>
<text text-anchor="start" x="401.9431" y="-207.8" font-family="Helvetica,sans-Serif" font-size="11.00" fill="#000000"> &#160;</text>
<polygon fill="#ffffff" stroke="transparent" points="417.5,-202.7 417.5,-219.7 441.5,-219.7 441.5,-202.7 417.5,-202.7"/>
<text text-anchor="start" x="433.3862" y="-207.8" font-family="Helvetica,sans-Serif" font-size="11.00" fill="#000000"> &#160;</text>
<polygon fill="#000000" stroke="#000000" points="392.5,-202.7 392.5,-219.7 392.5,-219.7 392.5,-202.7 392.5,-202.7"/>
<polygon fill="#000000" stroke="#000000" points="417.5,-202.7 417.5,-219.7 417.5,-219.7 417.5,-202.7 417.5,-202.7"/>
</a>
</g>
</g>
<!-- 仕入先マスタ&#45;&gt;取引先マスタ -->
<g id="edge2" class="edge">
<title>仕入先マスタ:w&#45;&gt;取引先マスタ:e</title>
<path fill="none" stroke="#000000" d="M342.9073,-227.7225C314.9975,-219.5326 309.5256,-188.7 273.5,-188.7"/>
<polygon fill="#000000" stroke="#000000" points="349.5725,-228.6257 357.0165,-233.2674 353.5362,-229.1628 357.5,-229.7 357.5,-229.7 357.5,-229.7 353.5362,-229.1628 357.9835,-226.1326 349.5725,-228.6257 349.5725,-228.6257"/>
<ellipse fill="none" stroke="#000000" cx="346.4014" cy="-228.1959" rx="3.2" ry="3.2"/>
</g>
<!-- 売上 -->
<g id="node5" class="node">
<title>売上</title>
<g id="a_node5"><a xlink:href="../../tables/___b1358.html" xlink:title="売上" target="_top">
<polygon fill="#ffffff" stroke="transparent" points="372.5,-120.2 372.5,-181.2 426.5,-181.2 426.5,-120.2 372.5,-120.2"/>
<polygon fill="#f5f5f5" stroke="transparent" points="372.5,-157.7 372.5,-180.7 426.5,-180.7 426.5,-157.7 372.5,-157.7"/>
<polygon fill="none" stroke="#000000" points="372.5,-157.7 372.5,-180.7 426.5,-180.7 426.5,-157.7 372.5,-157.7"/>
<text text-anchor="start" x="371.0793" y="-166.3" font-family="Helvetica,sans-Serif" font-weight="bold" font-size="11.00" fill="#000000">売上</text>
<text text-anchor="start" x="392.0219" y="-165.8" font-family="Helvetica,sans-Serif" font-size="11.00" fill="#000000">[table]</text>
<polygon fill="none" stroke="#000000" points="372.5,-138.7 372.5,-157.7 426.5,-157.7 426.5,-138.7 372.5,-138.7"/>
<text text-anchor="start" x="375.5" y="-144.8" font-family="Helvetica,sans-Serif" font-size="11.00" fill="#000000">...</text>
<polygon fill="#ffffff" stroke="transparent" points="372.5,-119.7 372.5,-138.7 426.5,-138.7 426.5,-119.7 372.5,-119.7"/>
<polygon fill="none" stroke="#000000" points="372.5,-119.7 372.5,-138.7 426.5,-138.7 426.5,-119.7 372.5,-119.7"/>
<polygon fill="#ffffff" stroke="transparent" points="373.5,-120.7 373.5,-137.7 394.5,-137.7 394.5,-120.7 373.5,-120.7"/>
<text text-anchor="start" x="375.5" y="-125.8" font-family="Helvetica,sans-Serif" font-size="11.00" fill="#000000">&lt; 4</text>
<polygon fill="#ffffff" stroke="transparent" points="394.5,-120.7 394.5,-137.7 405.5,-137.7 405.5,-120.7 394.5,-120.7"/>
<text text-anchor="start" x="396.9431" y="-125.8" font-family="Helvetica,sans-Serif" font-size="11.00" fill="#000000"> &#160;</text>
<polygon fill="#ffffff" stroke="transparent" points="405.5,-120.7 405.5,-137.7 425.5,-137.7 425.5,-120.7 405.5,-120.7"/>
<text text-anchor="start" x="407.9053" y="-125.8" font-family="Helvetica,sans-Serif" font-size="11.00" fill="#000000">1 &gt;</text>
<polygon fill="#000000" stroke="#000000" points="394.5,-120.7 394.5,-137.7 394.5,-137.7 394.5,-120.7 394.5,-120.7"/>
<polygon fill="#000000" stroke="#000000" points="405.5,-120.7 405.5,-137.7 405.5,-137.7 405.5,-120.7 405.5,-120.7"/>
</a>
</g>
</g>
<!-- 売上&#45;&gt;取引先マスタ -->
<g id="edge4" class="edge">
<title>売上:w&#45;&gt;取引先マスタ:e</title>
<path fill="none" stroke="#000000" d="M357.8767,-149.1592C323.4629,-156.4629 315.7291,-188.7 273.5,-188.7"/>
<polygon fill="#000000" stroke="#000000" points="364.5395,-148.4944 372.8575,-151.2822 368.5198,-148.0972 372.5,-147.7 372.5,-147.7 372.5,-147.7 368.5198,-148.0972 372.1425,-144.1178 364.5395,-148.4944 364.5395,-148.4944"/>
<ellipse fill="none" stroke="#000000" cx="361.3553" cy="-148.8122" rx="3.2" ry="3.2"/>
</g>
<!-- 顧客マスタ -->
<g id="node6" class="node">
<title>顧客マスタ</title>
<g id="a_node6"><a xlink:href="../../tables/______8e04fe89.html" xlink:title="顧客マスタ" target="_top">
<polygon fill="#ffffff" stroke="transparent" points="360.5,-38.2 360.5,-99.2 438.5,-99.2 438.5,-38.2 360.5,-38.2"/>
<polygon fill="#f5f5f5" stroke="transparent" points="360.5,-75.7 360.5,-98.7 438.5,-98.7 438.5,-75.7 360.5,-75.7"/>
<polygon fill="none" stroke="#000000" points="360.5,-75.7 360.5,-98.7 438.5,-98.7 438.5,-75.7 360.5,-75.7"/>
<text text-anchor="start" x="349.0892" y="-84.3" font-family="Helvetica,sans-Serif" font-weight="bold" font-size="11.00" fill="#000000">顧客マスタ</text>
<text text-anchor="start" x="404.0219" y="-83.8" font-family="Helvetica,sans-Serif" font-size="11.00" fill="#000000">[table]</text>
<polygon fill="none" stroke="#000000" points="360.5,-56.7 360.5,-75.7 438.5,-75.7 438.5,-56.7 360.5,-56.7"/>
<text text-anchor="start" x="363.5" y="-62.8" font-family="Helvetica,sans-Serif" font-size="11.00" fill="#000000">...</text>
<polygon fill="#ffffff" stroke="transparent" points="360.5,-37.7 360.5,-56.7 438.5,-56.7 438.5,-37.7 360.5,-37.7"/>
<polygon fill="none" stroke="#000000" points="360.5,-37.7 360.5,-56.7 438.5,-56.7 438.5,-37.7 360.5,-37.7"/>
<polygon fill="#ffffff" stroke="transparent" points="361.5,-38.7 361.5,-55.7 390.5,-55.7 390.5,-38.7 361.5,-38.7"/>
<text text-anchor="start" x="363.5" y="-43.8" font-family="Helvetica,sans-Serif" font-size="11.00" fill="#000000">&lt; 1</text>
<polygon fill="#ffffff" stroke="transparent" points="390.5,-38.7 390.5,-55.7 409.5,-55.7 409.5,-38.7 390.5,-38.7"/>
<text text-anchor="start" x="396.9431" y="-43.8" font-family="Helvetica,sans-Serif" font-size="11.00" fill="#000000"> &#160;</text>
<polygon fill="#ffffff" stroke="transparent" points="409.5,-38.7 409.5,-55.7 437.5,-55.7 437.5,-38.7 409.5,-38.7"/>
<text text-anchor="start" x="419.9053" y="-43.8" font-family="Helvetica,sans-Serif" font-size="11.00" fill="#000000">2 &gt;</text>
<polygon fill="#000000" stroke="#000000" points="390.5,-38.7 390.5,-55.7 390.5,-55.7 390.5,-38.7 390.5,-38.7"/>
<polygon fill="#000000" stroke="#000000" points="409.5,-38.7 409.5,-55.7 409.5,-55.7 409.5,-38.7 409.5,-38.7"/>
</a>
</g>
</g>
<!-- 顧客マスタ&#45;&gt;取引先マスタ -->
<g id="edge5" class="edge">
<title>顧客マスタ:w&#45;&gt;取引先マスタ:e</title>
<path fill="none" stroke="#000000" d="M346.1974,-68.1634C330.986,-74.3902 327.6013,-91.5599 314,-109.7 290.3305,-141.2681 312.9562,-188.7 273.5,-188.7"/>
<polygon fill="#000000" stroke="#000000" points="352.6161,-67.0579 361.1111,-69.2478 356.558,-66.379 360.5,-65.7 360.5,-65.7 360.5,-65.7 356.558,-66.379 359.8889,-62.1522 352.6161,-67.0579 352.6161,-67.0579"/>
<ellipse fill="none" stroke="#000000" cx="349.4625" cy="-67.6011" rx="3.2" ry="3.2"/>
</g>
</g>
</svg>
