<?xml version="1.0" encoding="UTF-8" standalone="no"?>
<!DOCTYPE svg PUBLIC "-//W3C//DTD SVG 1.1//EN"
 "http://www.w3.org/Graphics/SVG/1.1/DTD/svg11.dtd">
<!-- Generated by graphviz version 2.40.1 (20161225.0304)
 -->
<!-- Title: oneDegreeRelationshipsDiagramImplied Pages: 1 -->
<svg width="288pt" height="565pt"
 viewBox="0.00 0.00 288.00 564.70" xmlns="http://www.w3.org/2000/svg" xmlns:xlink="http://www.w3.org/1999/xlink">
<g id="graph0" class="graph" transform="scale(1 1) rotate(0) translate(4 560.7)">
<title>oneDegreeRelationshipsDiagramImplied</title>
<polygon fill="#ffffff" stroke="transparent" points="-4,4 -4,-560.7 284,-560.7 284,4 -4,4"/>
<text text-anchor="middle" x="72.4936" y="-7.3" font-family="Helvetica,sans-Serif" font-size="11.00" fill="#000000">Generated by SchemaSpy</text>
<!-- 受注 -->
<g id="node1" class="node">
<title>受注</title>
<g id="a_node1"><a xlink:href="../../tables/___a93f1.html" xlink:title="受注" target="_top">
<polygon fill="#ffffff" stroke="transparent" points="205,-315.7 205,-552.7 272,-552.7 272,-315.7 205,-315.7"/>
<polygon fill="#f5f5f5" stroke="transparent" points="205.5,-529.2 205.5,-552.2 272.5,-552.2 272.5,-529.2 205.5,-529.2"/>
<polygon fill="none" stroke="#000000" points="205.5,-529.2 205.5,-552.2 272.5,-552.2 272.5,-529.2 205.5,-529.2"/>
<text text-anchor="start" x="203.7713" y="-537.8" font-family="Helvetica,sans-Serif" font-weight="bold" font-size="11.00" fill="#000000">受注</text>
<text text-anchor="start" x="237.5437" y="-537.3" font-family="Helvetica,sans-Serif" font-size="11.00" fill="#000000">[table]</text>
<polygon fill="none" stroke="#000000" points="205.5,-507.2 205.5,-529.2 272.5,-529.2 272.5,-507.2 205.5,-507.2"/>
<image xlink:href="../../images/primaryKeys.png" width="11px" height="12px" preserveAspectRatio="xMinYMin meet" x="210.5" y="-524.2"/>
<text text-anchor="start" x="224.4021" y="-514.3" font-family="Helvetica,sans-Serif" font-size="11.00" fill="#000000">受注番号</text>
<polygon fill="#ffffff" stroke="transparent" points="205.5,-485.2 205.5,-507.2 272.5,-507.2 272.5,-485.2 205.5,-485.2"/>
<polygon fill="none" stroke="#000000" points="205.5,-485.2 205.5,-507.2 272.5,-507.2 272.5,-485.2 205.5,-485.2"/>
<text text-anchor="start" x="225.5" y="-492.3" font-family="Helvetica,sans-Serif" font-size="11.00" fill="#000000">受注日</text>
<polygon fill="none" stroke="#000000" points="205.5,-463.2 205.5,-485.2 272.5,-485.2 272.5,-463.2 205.5,-463.2"/>
<image xlink:href="../../images/foreignKeys.png" width="11px" height="12px" preserveAspectRatio="xMinYMin meet" x="210.5" y="-480.2"/>
<text text-anchor="start" x="209.5257" y="-470.3" font-family="Helvetica,sans-Serif" font-size="11.00" fill="#000000">部門コード</text>
<polygon fill="none" stroke="#000000" points="205.5,-441.2 205.5,-463.2 272.5,-463.2 272.5,-441.2 205.5,-441.2"/>
<image xlink:href="../../images/foreignKeys.png" width="11px" height="12px" preserveAspectRatio="xMinYMin meet" x="210.5" y="-458.2"/>
<text text-anchor="start" x="225.5" y="-448.3" font-family="Helvetica,sans-Serif" font-size="11.00" fill="#000000">開始日</text>
<polygon fill="#ffffff" stroke="transparent" points="205.5,-419.2 205.5,-441.2 272.5,-441.2 272.5,-419.2 205.5,-419.2"/>
<polygon fill="none" stroke="#000000" points="205.5,-419.2 205.5,-441.2 272.5,-441.2 272.5,-419.2 205.5,-419.2"/>
<image xlink:href="../../images/foreignKeys.png" width="11px" height="12px" preserveAspectRatio="xMinYMin meet" x="210.5" y="-436.2"/>
<text text-anchor="start" x="209.2226" y="-426.3" font-family="Helvetica,sans-Serif" font-size="11.00" fill="#000000">顧客コード</text>
<polygon fill="#ffffff" stroke="transparent" points="205.5,-397.2 205.5,-419.2 272.5,-419.2 272.5,-397.2 205.5,-397.2"/>
<polygon fill="none" stroke="#000000" points="205.5,-397.2 205.5,-419.2 272.5,-419.2 272.5,-397.2 205.5,-397.2"/>
<image xlink:href="../../images/foreignKeys.png" width="11px" height="12px" preserveAspectRatio="xMinYMin meet" x="210.5" y="-414.2"/>
<text text-anchor="start" x="220.5241" y="-404.3" font-family="Helvetica,sans-Serif" font-size="11.00" fill="#000000">顧客枝番</text>
<polygon fill="#ffffff" stroke="transparent" points="205.5,-375.2 205.5,-397.2 272.5,-397.2 272.5,-375.2 205.5,-375.2"/>
<polygon fill="none" stroke="#000000" points="205.5,-375.2 205.5,-397.2 272.5,-397.2 272.5,-375.2 205.5,-375.2"/>
<image xlink:href="../../images/foreignKeys.png" width="11px" height="12px" preserveAspectRatio="xMinYMin meet" x="210.5" y="-392.2"/>
<text text-anchor="start" x="216.8627" y="-382.3" font-family="Helvetica,sans-Serif" font-size="11.00" fill="#000000">社員コード</text>
<polygon fill="none" stroke="#000000" points="205.5,-353.2 205.5,-375.2 272.5,-375.2 272.5,-353.2 205.5,-353.2"/>
<image xlink:href="../../images/foreignKeys.png" width="11px" height="12px" preserveAspectRatio="xMinYMin meet" x="210.5" y="-370.2"/>
<text text-anchor="start" x="214.7232" y="-360.3" font-family="Helvetica,sans-Serif" font-size="11.00" fill="#000000">倉庫コード</text>
<polygon fill="none" stroke="#000000" points="205.5,-334.2 205.5,-353.2 272.5,-353.2 272.5,-334.2 205.5,-334.2"/>
<text text-anchor="start" x="208.5" y="-340.3" font-family="Helvetica,sans-Serif" font-size="11.00" fill="#000000">...</text>
<polygon fill="#ffffff" stroke="transparent" points="205.5,-315.2 205.5,-334.2 272.5,-334.2 272.5,-315.2 205.5,-315.2"/>
<polygon fill="none" stroke="#000000" points="205.5,-315.2 205.5,-334.2 272.5,-334.2 272.5,-315.2 205.5,-315.2"/>
<polygon fill="#ffffff" stroke="transparent" points="206.5,-316.2 206.5,-333.2 231.5,-333.2 231.5,-316.2 206.5,-316.2"/>
<text text-anchor="start" x="208.5" y="-321.3" font-family="Helvetica,sans-Serif" font-size="11.00" fill="#000000">&lt; 6</text>
<polygon fill="#ffffff" stroke="transparent" points="231.5,-316.2 231.5,-333.2 247.5,-333.2 247.5,-316.2 231.5,-316.2"/>
<text text-anchor="start" x="236.4431" y="-321.3" font-family="Helvetica,sans-Serif" font-size="11.00" fill="#000000"> &#160;</text>
<polygon fill="#ffffff" stroke="transparent" points="247.5,-316.2 247.5,-333.2 271.5,-333.2 271.5,-316.2 247.5,-316.2"/>
<text text-anchor="start" x="253.9053" y="-321.3" font-family="Helvetica,sans-Serif" font-size="11.00" fill="#000000">2 &gt;</text>
<polygon fill="#000000" stroke="#000000" points="231.5,-316.2 231.5,-333.2 231.5,-333.2 231.5,-316.2 231.5,-316.2"/>
<polygon fill="#000000" stroke="#000000" points="247.5,-316.2 247.5,-333.2 247.5,-333.2 247.5,-316.2 247.5,-316.2"/>
</a>
</g>
</g>
<!-- 倉庫マスタ -->
<g id="node2" class="node">
<title>倉庫マスタ</title>
<g id="a_node2"><a xlink:href="../../tables/______939d4982.html" xlink:title="倉庫マスタ" target="_top">
<polygon fill="#ffffff" stroke="transparent" points="8,-38.2 8,-348.2 156,-348.2 156,-38.2 8,-38.2"/>
<polygon fill="#f5f5f5" stroke="transparent" points="10,-323.2 10,-346.2 154,-346.2 154,-323.2 10,-323.2"/>
<polygon fill="none" stroke="#000000" points="10,-323.2 10,-346.2 154,-346.2 154,-323.2 10,-323.2"/>
<text text-anchor="start" x="4.0898" y="-331.8" font-family="Helvetica,sans-Serif" font-weight="bold" font-size="11.00" fill="#000000">倉庫マスタ</text>
<text text-anchor="start" x="119.0437" y="-331.3" font-family="Helvetica,sans-Serif" font-size="11.00" fill="#000000">[table]</text>
<polygon fill="none" stroke="#000000" points="10,-301.2 10,-323.2 70,-323.2 70,-301.2 10,-301.2"/>
<image xlink:href="../../images/primaryKeys.png" width="11px" height="12px" preserveAspectRatio="xMinYMin meet" x="15" y="-318.2"/>
<text text-anchor="start" x="15.7232" y="-308.3" font-family="Helvetica,sans-Serif" font-size="11.00" fill="#000000">倉庫コード</text>
<polygon fill="none" stroke="#000000" points="70,-301.2 70,-323.2 154,-323.2 154,-301.2 70,-301.2"/>
<text text-anchor="start" x="73" y="-308.9" font-family="Helvetica,sans-Serif" font-size="11.00" fill="#000000">varchar[3]</text>
<polygon fill="#ffffff" stroke="transparent" points="10,-279.2 10,-301.2 70,-301.2 70,-279.2 10,-279.2"/>
<polygon fill="none" stroke="#000000" points="10,-279.2 10,-301.2 70,-301.2 70,-279.2 10,-279.2"/>
<text text-anchor="start" x="30" y="-286.3" font-family="Helvetica,sans-Serif" font-size="11.00" fill="#000000">倉庫名</text>
<polygon fill="none" stroke="#000000" points="70,-279.2 70,-301.2 154,-301.2 154,-279.2 70,-279.2"/>
<text text-anchor="start" x="73" y="-286.9" font-family="Helvetica,sans-Serif" font-size="11.00" fill="#000000">varchar[40]</text>
<polygon fill="none" stroke="#000000" points="10,-257.2 10,-279.2 70,-279.2 70,-257.2 10,-257.2"/>
<text text-anchor="start" x="23.8786" y="-264.3" font-family="Helvetica,sans-Serif" font-size="11.00" fill="#000000">郵便番号</text>
<polygon fill="none" stroke="#000000" points="70,-257.2 70,-279.2 154,-279.2 154,-257.2 70,-257.2"/>
<text text-anchor="start" x="73" y="-264.9" font-family="Helvetica,sans-Serif" font-size="11.00" fill="#000000">varchar[8]</text>
<polygon fill="none" stroke="#000000" points="10,-235.2 10,-257.2 70,-257.2 70,-235.2 10,-235.2"/>
<text text-anchor="start" x="19.3846" y="-242.3" font-family="Helvetica,sans-Serif" font-size="11.00" fill="#000000">都道府県</text>
<polygon fill="none" stroke="#000000" points="70,-235.2 70,-257.2 154,-257.2 154,-235.2 70,-235.2"/>
<text text-anchor="start" x="73" y="-242.9" font-family="Helvetica,sans-Serif" font-size="11.00" fill="#000000">varchar[4]</text>
<polygon fill="none" stroke="#000000" points="10,-213.2 10,-235.2 70,-235.2 70,-213.2 10,-213.2"/>
<text text-anchor="start" x="25.8009" y="-220.3" font-family="Helvetica,sans-Serif" font-size="11.00" fill="#000000">住所１</text>
<polygon fill="none" stroke="#000000" points="70,-213.2 70,-235.2 154,-235.2 154,-213.2 70,-213.2"/>
<text text-anchor="start" x="73" y="-220.9" font-family="Helvetica,sans-Serif" font-size="11.00" fill="#000000">varchar[40]</text>
<polygon fill="none" stroke="#000000" points="10,-191.2 10,-213.2 70,-213.2 70,-191.2 10,-191.2"/>
<text text-anchor="start" x="25.8009" y="-198.3" font-family="Helvetica,sans-Serif" font-size="11.00" fill="#000000">住所２</text>
<polygon fill="none" stroke="#000000" points="70,-191.2 70,-213.2 154,-213.2 154,-191.2 70,-191.2"/>
<text text-anchor="start" x="73" y="-198.9" font-family="Helvetica,sans-Serif" font-size="11.00" fill="#000000">varchar[40]</text>
<polygon fill="none" stroke="#000000" points="10,-169.2 10,-191.2 70,-191.2 70,-169.2 10,-169.2"/>
<text text-anchor="start" x="21.6016" y="-176.3" font-family="Helvetica,sans-Serif" font-size="11.00" fill="#000000">電話番号</text>
<polygon fill="none" stroke="#000000" points="70,-169.2 70,-191.2 154,-191.2 154,-169.2 70,-169.2"/>
<text text-anchor="start" x="73" y="-176.9" font-family="Helvetica,sans-Serif" font-size="11.00" fill="#000000">varchar[15]</text>
<polygon fill="none" stroke="#000000" points="10,-147.2 10,-169.2 70,-169.2 70,-147.2 10,-147.2"/>
<text text-anchor="start" x="30" y="-154.3" font-family="Helvetica,sans-Serif" font-size="11.00" fill="#000000">fax番号</text>
<polygon fill="none" stroke="#000000" points="70,-147.2 70,-169.2 154,-169.2 154,-147.2 70,-147.2"/>
<text text-anchor="start" x="73" y="-154.9" font-family="Helvetica,sans-Serif" font-size="11.00" fill="#000000">varchar[15]</text>
<polygon fill="none" stroke="#000000" points="10,-125.2 10,-147.2 70,-147.2 70,-125.2 10,-125.2"/>
<text text-anchor="start" x="23.6581" y="-132.3" font-family="Helvetica,sans-Serif" font-size="11.00" fill="#000000">作成日時</text>
<polygon fill="none" stroke="#000000" points="70,-125.2 70,-147.2 154,-147.2 154,-125.2 70,-125.2"/>
<text text-anchor="start" x="72.8807" y="-132.9" font-family="Helvetica,sans-Serif" font-size="11.00" fill="#000000">timestamp[29,6]</text>
<polygon fill="none" stroke="#000000" points="10,-103.2 10,-125.2 70,-125.2 70,-103.2 10,-103.2"/>
<text text-anchor="start" x="23.6581" y="-110.3" font-family="Helvetica,sans-Serif" font-size="11.00" fill="#000000">作成者名</text>
<polygon fill="none" stroke="#000000" points="70,-103.2 70,-125.2 154,-125.2 154,-103.2 70,-103.2"/>
<text text-anchor="start" x="73" y="-110.9" font-family="Helvetica,sans-Serif" font-size="11.00" fill="#000000">varchar[12]</text>
<polygon fill="none" stroke="#000000" points="10,-81.2 10,-103.2 70,-103.2 70,-81.2 10,-81.2"/>
<text text-anchor="start" x="27.6296" y="-88.3" font-family="Helvetica,sans-Serif" font-size="11.00" fill="#000000">更新日時</text>
<polygon fill="none" stroke="#000000" points="70,-81.2 70,-103.2 154,-103.2 154,-81.2 70,-81.2"/>
<text text-anchor="start" x="72.8807" y="-88.9" font-family="Helvetica,sans-Serif" font-size="11.00" fill="#000000">timestamp[29,6]</text>
<polygon fill="none" stroke="#000000" points="10,-59.2 10,-81.2 70,-81.2 70,-59.2 10,-59.2"/>
<text text-anchor="start" x="27.6296" y="-66.3" font-family="Helvetica,sans-Serif" font-size="11.00" fill="#000000">更新者名</text>
<polygon fill="none" stroke="#000000" points="70,-59.2 70,-81.2 154,-81.2 154,-59.2 70,-59.2"/>
<text text-anchor="start" x="73" y="-66.9" font-family="Helvetica,sans-Serif" font-size="11.00" fill="#000000">varchar[12]</text>
<polygon fill="#ffffff" stroke="transparent" points="10,-40.2 10,-59.2 154,-59.2 154,-40.2 10,-40.2"/>
<polygon fill="none" stroke="#000000" points="10,-40.2 10,-59.2 154,-59.2 154,-40.2 10,-40.2"/>
<polygon fill="#ffffff" stroke="transparent" points="11,-41.2 11,-58.2 62,-58.2 62,-41.2 11,-41.2"/>
<text text-anchor="start" x="13" y="-46.3" font-family="Helvetica,sans-Serif" font-size="11.00" fill="#000000">&lt; 0</text>
<polygon fill="#ffffff" stroke="transparent" points="62,-41.2 62,-58.2 103,-58.2 103,-41.2 62,-41.2"/>
<text text-anchor="start" x="79.4431" y="-46.3" font-family="Helvetica,sans-Serif" font-size="11.00" fill="#000000"> &#160;</text>
<polygon fill="#ffffff" stroke="transparent" points="103,-41.2 103,-58.2 153,-58.2 153,-41.2 103,-41.2"/>
<text text-anchor="start" x="135.4053" y="-46.3" font-family="Helvetica,sans-Serif" font-size="11.00" fill="#000000">2 &gt;</text>
<polygon fill="#000000" stroke="#000000" points="62,-41.2 62,-58.2 62,-58.2 62,-41.2 62,-41.2"/>
<polygon fill="#000000" stroke="#000000" points="103,-41.2 103,-58.2 103,-58.2 103,-41.2 103,-41.2"/>
<polygon fill="none" stroke="#000000" stroke-width="2" points="9,-39.2 9,-347.2 155,-347.2 155,-39.2 9,-39.2"/>
</a>
</g>
</g>
<!-- 受注&#45;&gt;倉庫マスタ -->
<g id="edge1" class="edge">
<title>受注:w&#45;&gt;倉庫マスタ:e</title>
<path fill="none" stroke="#000000" stroke-dasharray="5,2" d="M191.4561,-359.4012C176.4356,-346.5281 180.4284,-312.2 154,-312.2"/>
<polygon fill="#000000" stroke="#000000" points="197.9297,-361.6132 204.3359,-367.6066 201.7149,-362.9066 205.5,-364.2 205.5,-364.2 205.5,-364.2 201.7149,-362.9066 206.6641,-360.7934 197.9297,-361.6132 197.9297,-361.6132"/>
<ellipse fill="none" stroke="#000000" cx="194.9016" cy="-360.5785" rx="3.2" ry="3.2"/>
</g>
<!-- 在庫 -->
<g id="node3" class="node">
<title>在庫</title>
<g id="a_node3"><a xlink:href="../../tables/___aec83.html" xlink:title="在庫" target="_top">
<polygon fill="#ffffff" stroke="transparent" points="208.5,-123.7 208.5,-294.7 268.5,-294.7 268.5,-123.7 208.5,-123.7"/>
<polygon fill="#f5f5f5" stroke="transparent" points="208.5,-271.2 208.5,-294.2 268.5,-294.2 268.5,-271.2 208.5,-271.2"/>
<polygon fill="none" stroke="#000000" points="208.5,-271.2 208.5,-294.2 268.5,-294.2 268.5,-271.2 208.5,-271.2"/>
<text text-anchor="start" x="206.4688" y="-279.8" font-family="Helvetica,sans-Serif" font-weight="bold" font-size="11.00" fill="#000000">在庫</text>
<text text-anchor="start" x="233.5437" y="-279.3" font-family="Helvetica,sans-Serif" font-size="11.00" fill="#000000">[table]</text>
<polygon fill="none" stroke="#000000" points="208.5,-249.2 208.5,-271.2 268.5,-271.2 268.5,-249.2 208.5,-249.2"/>
<image xlink:href="../../images/primaryKeys.png" width="11px" height="12px" preserveAspectRatio="xMinYMin meet" x="213.5" y="-266.2"/>
<text text-anchor="start" x="214.2232" y="-256.3" font-family="Helvetica,sans-Serif" font-size="11.00" fill="#000000">倉庫コード</text>
<polygon fill="none" stroke="#000000" points="208.5,-227.2 208.5,-249.2 268.5,-249.2 268.5,-227.2 208.5,-227.2"/>
<image xlink:href="../../images/primaryKeys.png" width="11px" height="12px" preserveAspectRatio="xMinYMin meet" x="213.5" y="-244.2"/>
<text text-anchor="start" x="216.0547" y="-234.3" font-family="Helvetica,sans-Serif" font-size="11.00" fill="#000000">商品コード</text>
<polygon fill="none" stroke="#000000" points="208.5,-205.2 208.5,-227.2 268.5,-227.2 268.5,-205.2 208.5,-205.2"/>
<image xlink:href="../../images/primaryKeys.png" width="11px" height="12px" preserveAspectRatio="xMinYMin meet" x="213.5" y="-222.2"/>
<text text-anchor="start" x="220.5543" y="-212.3" font-family="Helvetica,sans-Serif" font-size="11.00" fill="#000000">ロット番号</text>
<polygon fill="none" stroke="#000000" points="208.5,-183.2 208.5,-205.2 268.5,-205.2 268.5,-183.2 208.5,-183.2"/>
<image xlink:href="../../images/primaryKeys.png" width="11px" height="12px" preserveAspectRatio="xMinYMin meet" x="213.5" y="-200.2"/>
<text text-anchor="start" x="223.9956" y="-190.3" font-family="Helvetica,sans-Serif" font-size="11.00" fill="#000000">在庫区分</text>
<polygon fill="none" stroke="#000000" points="208.5,-161.2 208.5,-183.2 268.5,-183.2 268.5,-161.2 208.5,-161.2"/>
<image xlink:href="../../images/primaryKeys.png" width="11px" height="12px" preserveAspectRatio="xMinYMin meet" x="213.5" y="-178.2"/>
<text text-anchor="start" x="223.9956" y="-168.3" font-family="Helvetica,sans-Serif" font-size="11.00" fill="#000000">品質区分</text>
<polygon fill="none" stroke="#000000" points="208.5,-142.2 208.5,-161.2 268.5,-161.2 268.5,-142.2 208.5,-142.2"/>
<text text-anchor="start" x="211.5" y="-148.3" font-family="Helvetica,sans-Serif" font-size="11.00" fill="#000000">...</text>
<polygon fill="#ffffff" stroke="transparent" points="208.5,-123.2 208.5,-142.2 268.5,-142.2 268.5,-123.2 208.5,-123.2"/>
<polygon fill="none" stroke="#000000" points="208.5,-123.2 208.5,-142.2 268.5,-142.2 268.5,-123.2 208.5,-123.2"/>
<polygon fill="#ffffff" stroke="transparent" points="209.5,-124.2 209.5,-141.2 235.5,-141.2 235.5,-124.2 209.5,-124.2"/>
<text text-anchor="start" x="211.5" y="-129.3" font-family="Helvetica,sans-Serif" font-size="11.00" fill="#000000">&lt; 2</text>
<polygon fill="#ffffff" stroke="transparent" points="235.5,-124.2 235.5,-141.2 251.5,-141.2 251.5,-124.2 235.5,-124.2"/>
<text text-anchor="start" x="240.4431" y="-129.3" font-family="Helvetica,sans-Serif" font-size="11.00" fill="#000000"> &#160;</text>
<polygon fill="#ffffff" stroke="transparent" points="251.5,-124.2 251.5,-141.2 267.5,-141.2 267.5,-124.2 251.5,-124.2"/>
<text text-anchor="start" x="259.3862" y="-129.3" font-family="Helvetica,sans-Serif" font-size="11.00" fill="#000000"> &#160;</text>
<polygon fill="#000000" stroke="#000000" points="235.5,-124.2 235.5,-141.2 235.5,-141.2 235.5,-124.2 235.5,-124.2"/>
<polygon fill="#000000" stroke="#000000" points="251.5,-124.2 251.5,-141.2 251.5,-141.2 251.5,-124.2 251.5,-124.2"/>
</a>
</g>
</g>
<!-- 在庫&#45;&gt;倉庫マスタ -->
<g id="edge2" class="edge">
<title>在庫:w&#45;&gt;倉庫マスタ:e</title>
<path fill="none" stroke="#000000" d="M194.3693,-264.6335C178.0149,-277.2085 181.4632,-312.2 154,-312.2"/>
<polygon fill="#000000" stroke="#000000" points="200.8669,-262.5949 209.5777,-263.6349 204.6834,-261.3975 208.5,-260.2 208.5,-260.2 208.5,-260.2 204.6834,-261.3975 207.4223,-256.7651 200.8669,-262.5949 200.8669,-262.5949"/>
<ellipse fill="none" stroke="#000000" cx="197.8136" cy="-263.5529" rx="3.2" ry="3.2"/>
</g>
</g>
</svg>
