<?xml version="1.0" encoding="UTF-8" standalone="no"?>
<!DOCTYPE svg PUBLIC "-//W3C//DTD SVG 1.1//EN"
 "http://www.w3.org/Graphics/SVG/1.1/DTD/svg11.dtd">
<!-- Generated by graphviz version 2.40.1 (20161225.0304)
 -->
<!-- Title: oneDegreeRelationshipsDiagram Pages: 1 -->
<svg width="359pt" height="271pt"
 viewBox="0.00 0.00 359.00 270.70" xmlns="http://www.w3.org/2000/svg" xmlns:xlink="http://www.w3.org/1999/xlink">
<g id="graph0" class="graph" transform="scale(1 1) rotate(0) translate(4 266.7)">
<title>oneDegreeRelationshipsDiagram</title>
<polygon fill="#ffffff" stroke="transparent" points="-4,4 -4,-266.7 355,-266.7 355,4 -4,4"/>
<text text-anchor="middle" x="72.4936" y="-7.3" font-family="Helvetica,sans-Serif" font-size="11.00" fill="#000000">Generated by SchemaSpy</text>
<!-- 取引先マスタ -->
<g id="node1" class="node">
<title>取引先マスタ</title>
<g id="a_node1"><a xlink:href="../../tables/_______70f9c0bb.html" xlink:title="取引先マスタ" target="_top">
<polygon fill="#ffffff" stroke="transparent" points="244,-131.7 244,-258.7 343,-258.7 343,-131.7 244,-131.7"/>
<polygon fill="#f5f5f5" stroke="transparent" points="244.5,-235.2 244.5,-258.2 343.5,-258.2 343.5,-235.2 244.5,-235.2"/>
<polygon fill="none" stroke="#000000" points="244.5,-235.2 244.5,-258.2 343.5,-258.2 343.5,-235.2 244.5,-235.2"/>
<text text-anchor="start" x="235.3644" y="-243.8" font-family="Helvetica,sans-Serif" font-weight="bold" font-size="11.00" fill="#000000">取引先マスタ</text>
<text text-anchor="start" x="308.5437" y="-243.3" font-family="Helvetica,sans-Serif" font-size="11.00" fill="#000000">[table]</text>
<polygon fill="none" stroke="#000000" points="244.5,-213.2 244.5,-235.2 343.5,-235.2 343.5,-213.2 244.5,-213.2"/>
<image xlink:href="../../images/primaryKeys.png" width="11px" height="12px" preserveAspectRatio="xMinYMin meet" x="249.5" y="-230.2"/>
<text text-anchor="start" x="262.9978" y="-220.3" font-family="Helvetica,sans-Serif" font-size="11.00" fill="#000000">取引先コード</text>
<polygon fill="#ffffff" stroke="transparent" points="244.5,-191.2 244.5,-213.2 343.5,-213.2 343.5,-191.2 244.5,-191.2"/>
<polygon fill="none" stroke="#000000" points="244.5,-191.2 244.5,-213.2 343.5,-213.2 343.5,-191.2 244.5,-191.2"/>
<text text-anchor="start" x="264.5" y="-198.3" font-family="Helvetica,sans-Serif" font-size="11.00" fill="#000000">取引先名</text>
<polygon fill="#ffffff" stroke="transparent" points="244.5,-169.2 244.5,-191.2 343.5,-191.2 343.5,-169.2 244.5,-169.2"/>
<polygon fill="none" stroke="#000000" points="244.5,-169.2 244.5,-191.2 343.5,-191.2 343.5,-169.2 244.5,-169.2"/>
<image xlink:href="../../images/foreignKeys.png" width="11px" height="12px" preserveAspectRatio="xMinYMin meet" x="249.5" y="-186.2"/>
<text text-anchor="start" x="237.1319" y="-176.3" font-family="Helvetica,sans-Serif" font-size="11.00" fill="#000000">取引先グループコード</text>
<polygon fill="none" stroke="#000000" points="244.5,-150.2 244.5,-169.2 343.5,-169.2 343.5,-150.2 244.5,-150.2"/>
<text text-anchor="start" x="247.5" y="-156.3" font-family="Helvetica,sans-Serif" font-size="11.00" fill="#000000">...</text>
<polygon fill="#ffffff" stroke="transparent" points="244.5,-131.2 244.5,-150.2 343.5,-150.2 343.5,-131.2 244.5,-131.2"/>
<polygon fill="none" stroke="#000000" points="244.5,-131.2 244.5,-150.2 343.5,-150.2 343.5,-131.2 244.5,-131.2"/>
<polygon fill="#ffffff" stroke="transparent" points="245.5,-132.2 245.5,-149.2 281.5,-149.2 281.5,-132.2 245.5,-132.2"/>
<text text-anchor="start" x="247.5" y="-137.3" font-family="Helvetica,sans-Serif" font-size="11.00" fill="#000000">&lt; 1</text>
<polygon fill="#ffffff" stroke="transparent" points="281.5,-132.2 281.5,-149.2 307.5,-149.2 307.5,-132.2 281.5,-132.2"/>
<text text-anchor="start" x="291.4431" y="-137.3" font-family="Helvetica,sans-Serif" font-size="11.00" fill="#000000"> &#160;</text>
<polygon fill="#ffffff" stroke="transparent" points="307.5,-132.2 307.5,-149.2 342.5,-149.2 342.5,-132.2 307.5,-132.2"/>
<text text-anchor="start" x="324.9053" y="-137.3" font-family="Helvetica,sans-Serif" font-size="11.00" fill="#000000">4 &gt;</text>
<polygon fill="#000000" stroke="#000000" points="281.5,-132.2 281.5,-149.2 281.5,-149.2 281.5,-132.2 281.5,-132.2"/>
<polygon fill="#000000" stroke="#000000" points="307.5,-132.2 307.5,-149.2 307.5,-149.2 307.5,-132.2 307.5,-132.2"/>
</a>
</g>
</g>
<!-- 取引先グループマスタ -->
<g id="node2" class="node">
<title>取引先グループマスタ</title>
<g id="a_node2"><a xlink:href="../../tables/___________d6a542a5.html" xlink:title="取引先グループマスタ" target="_top">
<polygon fill="#ffffff" stroke="transparent" points="8,-38.2 8,-216.2 195,-216.2 195,-38.2 8,-38.2"/>
<polygon fill="#f5f5f5" stroke="transparent" points="10.5,-191.2 10.5,-214.2 193.5,-214.2 193.5,-191.2 10.5,-191.2"/>
<polygon fill="none" stroke="#000000" points="10.5,-191.2 10.5,-214.2 193.5,-214.2 193.5,-191.2 10.5,-191.2"/>
<text text-anchor="start" x="-8.5016" y="-199.8" font-family="Helvetica,sans-Serif" font-weight="bold" font-size="11.00" fill="#000000">取引先グループマスタ</text>
<text text-anchor="start" x="158.5437" y="-199.3" font-family="Helvetica,sans-Serif" font-size="11.00" fill="#000000">[table]</text>
<polygon fill="none" stroke="#000000" points="10.5,-169.2 10.5,-191.2 109.5,-191.2 109.5,-169.2 10.5,-169.2"/>
<image xlink:href="../../images/primaryKeys.png" width="11px" height="12px" preserveAspectRatio="xMinYMin meet" x="15.5" y="-186.2"/>
<text text-anchor="start" x="3.1319" y="-176.3" font-family="Helvetica,sans-Serif" font-size="11.00" fill="#000000">取引先グループコード</text>
<polygon fill="none" stroke="#000000" points="109.5,-169.2 109.5,-191.2 193.5,-191.2 193.5,-169.2 109.5,-169.2"/>
<text text-anchor="start" x="112.5" y="-176.9" font-family="Helvetica,sans-Serif" font-size="11.00" fill="#000000">varchar[4]</text>
<polygon fill="none" stroke="#000000" points="10.5,-147.2 10.5,-169.2 109.5,-169.2 109.5,-147.2 10.5,-147.2"/>
<text text-anchor="start" x="19.3211" y="-154.3" font-family="Helvetica,sans-Serif" font-size="11.00" fill="#000000">取引先グループ名</text>
<polygon fill="none" stroke="#000000" points="109.5,-147.2 109.5,-169.2 193.5,-169.2 193.5,-147.2 109.5,-147.2"/>
<text text-anchor="start" x="112.5" y="-154.9" font-family="Helvetica,sans-Serif" font-size="11.00" fill="#000000">varchar[40]</text>
<polygon fill="none" stroke="#000000" points="10.5,-125.2 10.5,-147.2 109.5,-147.2 109.5,-125.2 10.5,-125.2"/>
<text text-anchor="start" x="30.5" y="-132.3" font-family="Helvetica,sans-Serif" font-size="11.00" fill="#000000">作成日時</text>
<polygon fill="none" stroke="#000000" points="109.5,-125.2 109.5,-147.2 193.5,-147.2 193.5,-125.2 109.5,-125.2"/>
<text text-anchor="start" x="112.3807" y="-132.9" font-family="Helvetica,sans-Serif" font-size="11.00" fill="#000000">timestamp[29,6]</text>
<polygon fill="none" stroke="#000000" points="10.5,-103.2 10.5,-125.2 109.5,-125.2 109.5,-103.2 10.5,-103.2"/>
<text text-anchor="start" x="30.5" y="-110.3" font-family="Helvetica,sans-Serif" font-size="11.00" fill="#000000">作成者名</text>
<polygon fill="none" stroke="#000000" points="109.5,-103.2 109.5,-125.2 193.5,-125.2 193.5,-103.2 109.5,-103.2"/>
<text text-anchor="start" x="112.5" y="-110.9" font-family="Helvetica,sans-Serif" font-size="11.00" fill="#000000">varchar[12]</text>
<polygon fill="none" stroke="#000000" points="10.5,-81.2 10.5,-103.2 109.5,-103.2 109.5,-81.2 10.5,-81.2"/>
<text text-anchor="start" x="30.5" y="-88.3" font-family="Helvetica,sans-Serif" font-size="11.00" fill="#000000">更新日時</text>
<polygon fill="none" stroke="#000000" points="109.5,-81.2 109.5,-103.2 193.5,-103.2 193.5,-81.2 109.5,-81.2"/>
<text text-anchor="start" x="112.3807" y="-88.9" font-family="Helvetica,sans-Serif" font-size="11.00" fill="#000000">timestamp[29,6]</text>
<polygon fill="none" stroke="#000000" points="10.5,-59.2 10.5,-81.2 109.5,-81.2 109.5,-59.2 10.5,-59.2"/>
<text text-anchor="start" x="30.5" y="-66.3" font-family="Helvetica,sans-Serif" font-size="11.00" fill="#000000">更新者名</text>
<polygon fill="none" stroke="#000000" points="109.5,-59.2 109.5,-81.2 193.5,-81.2 193.5,-59.2 109.5,-59.2"/>
<text text-anchor="start" x="112.5" y="-66.9" font-family="Helvetica,sans-Serif" font-size="11.00" fill="#000000">varchar[12]</text>
<polygon fill="#ffffff" stroke="transparent" points="10.5,-40.2 10.5,-59.2 193.5,-59.2 193.5,-40.2 10.5,-40.2"/>
<polygon fill="none" stroke="#000000" points="10.5,-40.2 10.5,-59.2 193.5,-59.2 193.5,-40.2 10.5,-40.2"/>
<polygon fill="#ffffff" stroke="transparent" points="11.5,-41.2 11.5,-58.2 75.5,-58.2 75.5,-41.2 11.5,-41.2"/>
<text text-anchor="start" x="13.5" y="-46.3" font-family="Helvetica,sans-Serif" font-size="11.00" fill="#000000">&lt; 0</text>
<polygon fill="#ffffff" stroke="transparent" points="75.5,-41.2 75.5,-58.2 129.5,-58.2 129.5,-41.2 75.5,-41.2"/>
<text text-anchor="start" x="99.4431" y="-46.3" font-family="Helvetica,sans-Serif" font-size="11.00" fill="#000000"> &#160;</text>
<polygon fill="#ffffff" stroke="transparent" points="129.5,-41.2 129.5,-58.2 192.5,-58.2 192.5,-41.2 129.5,-41.2"/>
<text text-anchor="start" x="174.9053" y="-46.3" font-family="Helvetica,sans-Serif" font-size="11.00" fill="#000000">1 &gt;</text>
<polygon fill="#000000" stroke="#000000" points="75.5,-41.2 75.5,-58.2 75.5,-58.2 75.5,-41.2 75.5,-41.2"/>
<polygon fill="#000000" stroke="#000000" points="129.5,-41.2 129.5,-58.2 129.5,-58.2 129.5,-41.2 129.5,-41.2"/>
<polygon fill="none" stroke="#000000" stroke-width="2" points="9,-39.2 9,-215.2 194,-215.2 194,-39.2 9,-39.2"/>
</a>
</g>
</g>
<!-- 取引先マスタ&#45;&gt;取引先グループマスタ -->
<g id="edge1" class="edge">
<title>取引先マスタ:w&#45;&gt;取引先グループマスタ:e</title>
<path fill="none" stroke="#000000" d="M229.776,-180.2C217.7815,-180.2 210.3229,-180.2 193.5,-180.2"/>
<polygon fill="#000000" stroke="#000000" points="236.5,-180.2001 244.5,-183.8 240.5,-180.2 244.5,-180.2 244.5,-180.2 244.5,-180.2 240.5,-180.2 244.5,-176.6 236.5,-180.2001 236.5,-180.2001"/>
<ellipse fill="none" stroke="#000000" cx="233.3" cy="-180.2001" rx="3.2" ry="3.2"/>
</g>
</g>
</svg>
