<?xml version="1.0" encoding="UTF-8" standalone="no"?>
<!DOCTYPE svg PUBLIC "-//W3C//DTD SVG 1.1//EN"
 "http://www.w3.org/Graphics/SVG/1.1/DTD/svg11.dtd">
<!-- Generated by graphviz version 2.40.1 (20161225.0304)
 -->
<!-- Title: twoDegreesRelationshipsDiagramImplied Pages: 1 -->
<svg width="536pt" height="666pt"
 viewBox="0.00 0.00 536.00 666.20" xmlns="http://www.w3.org/2000/svg" xmlns:xlink="http://www.w3.org/1999/xlink">
<g id="graph0" class="graph" transform="scale(1 1) rotate(0) translate(4 662.2)">
<title>twoDegreesRelationshipsDiagramImplied</title>
<polygon fill="#ffffff" stroke="transparent" points="-4,4 -4,-662.2 532,-662.2 532,4 -4,4"/>
<text text-anchor="middle" x="72.4936" y="-7.3" font-family="Helvetica,sans-Serif" font-size="11.00" fill="#000000">Generated by SchemaSpy</text>
<!-- 受注 -->
<g id="node1" class="node">
<title>受注</title>
<g id="a_node1"><a xlink:href="../../tables/___a93f1.html" xlink:title="受注" target="_top">
<polygon fill="#ffffff" stroke="transparent" points="347,-157.2 347,-218.2 401,-218.2 401,-157.2 347,-157.2"/>
<polygon fill="#f5f5f5" stroke="transparent" points="347,-194.7 347,-217.7 401,-217.7 401,-194.7 347,-194.7"/>
<polygon fill="none" stroke="#000000" points="347,-194.7 347,-217.7 401,-217.7 401,-194.7 347,-194.7"/>
<text text-anchor="start" x="345.2713" y="-203.3" font-family="Helvetica,sans-Serif" font-weight="bold" font-size="11.00" fill="#000000">受注</text>
<text text-anchor="start" x="366.5219" y="-202.8" font-family="Helvetica,sans-Serif" font-size="11.00" fill="#000000">[table]</text>
<polygon fill="none" stroke="#000000" points="347,-175.7 347,-194.7 401,-194.7 401,-175.7 347,-175.7"/>
<text text-anchor="start" x="350" y="-181.8" font-family="Helvetica,sans-Serif" font-size="11.00" fill="#000000">...</text>
<polygon fill="#ffffff" stroke="transparent" points="347,-156.7 347,-175.7 401,-175.7 401,-156.7 347,-156.7"/>
<polygon fill="none" stroke="#000000" points="347,-156.7 347,-175.7 401,-175.7 401,-156.7 347,-156.7"/>
<polygon fill="#ffffff" stroke="transparent" points="348,-157.7 348,-174.7 369,-174.7 369,-157.7 348,-157.7"/>
<text text-anchor="start" x="350" y="-162.8" font-family="Helvetica,sans-Serif" font-size="11.00" fill="#000000">&lt; 6</text>
<polygon fill="#ffffff" stroke="transparent" points="369,-157.7 369,-174.7 380,-174.7 380,-157.7 369,-157.7"/>
<text text-anchor="start" x="371.4431" y="-162.8" font-family="Helvetica,sans-Serif" font-size="11.00" fill="#000000"> &#160;</text>
<polygon fill="#ffffff" stroke="transparent" points="380,-157.7 380,-174.7 400,-174.7 400,-157.7 380,-157.7"/>
<text text-anchor="start" x="382.4053" y="-162.8" font-family="Helvetica,sans-Serif" font-size="11.00" fill="#000000">2 &gt;</text>
<polygon fill="#000000" stroke="#000000" points="369,-157.7 369,-174.7 369,-174.7 369,-157.7 369,-157.7"/>
<polygon fill="#000000" stroke="#000000" points="380,-157.7 380,-174.7 380,-174.7 380,-157.7 380,-157.7"/>
</a>
</g>
</g>
<!-- 倉庫マスタ -->
<g id="node2" class="node">
<title>倉庫マスタ</title>
<g id="a_node2"><a xlink:href="../../tables/______939d4982.html" xlink:title="倉庫マスタ" target="_top">
<polygon fill="#ffffff" stroke="transparent" points="177.5,-593.2 177.5,-654.2 255.5,-654.2 255.5,-593.2 177.5,-593.2"/>
<polygon fill="#f5f5f5" stroke="transparent" points="177.5,-630.7 177.5,-653.7 255.5,-653.7 255.5,-630.7 177.5,-630.7"/>
<polygon fill="none" stroke="#000000" points="177.5,-630.7 177.5,-653.7 255.5,-653.7 255.5,-630.7 177.5,-630.7"/>
<text text-anchor="start" x="171.5898" y="-639.3" font-family="Helvetica,sans-Serif" font-weight="bold" font-size="11.00" fill="#000000">倉庫マスタ</text>
<text text-anchor="start" x="221.0219" y="-638.8" font-family="Helvetica,sans-Serif" font-size="11.00" fill="#000000">[table]</text>
<polygon fill="none" stroke="#000000" points="177.5,-611.7 177.5,-630.7 255.5,-630.7 255.5,-611.7 177.5,-611.7"/>
<text text-anchor="start" x="180.5" y="-617.8" font-family="Helvetica,sans-Serif" font-size="11.00" fill="#000000">...</text>
<polygon fill="#ffffff" stroke="transparent" points="177.5,-592.7 177.5,-611.7 255.5,-611.7 255.5,-592.7 177.5,-592.7"/>
<polygon fill="none" stroke="#000000" points="177.5,-592.7 177.5,-611.7 255.5,-611.7 255.5,-592.7 177.5,-592.7"/>
<polygon fill="#ffffff" stroke="transparent" points="178.5,-593.7 178.5,-610.7 201.5,-610.7 201.5,-593.7 178.5,-593.7"/>
<text text-anchor="start" x="180.5" y="-598.8" font-family="Helvetica,sans-Serif" font-size="11.00" fill="#000000"> &#160;</text>
<polygon fill="#ffffff" stroke="transparent" points="201.5,-593.7 201.5,-610.7 223.5,-610.7 223.5,-593.7 201.5,-593.7"/>
<text text-anchor="start" x="209.4431" y="-598.8" font-family="Helvetica,sans-Serif" font-size="11.00" fill="#000000"> &#160;</text>
<polygon fill="#ffffff" stroke="transparent" points="223.5,-593.7 223.5,-610.7 254.5,-610.7 254.5,-593.7 223.5,-593.7"/>
<text text-anchor="start" x="236.9053" y="-598.8" font-family="Helvetica,sans-Serif" font-size="11.00" fill="#000000">2 &gt;</text>
<polygon fill="#000000" stroke="#000000" points="201.5,-593.7 201.5,-610.7 201.5,-610.7 201.5,-593.7 201.5,-593.7"/>
<polygon fill="#000000" stroke="#000000" points="223.5,-593.7 223.5,-610.7 223.5,-610.7 223.5,-593.7 223.5,-593.7"/>
</a>
</g>
</g>
<!-- 受注&#45;&gt;倉庫マスタ -->
<g id="edge1" class="edge">
<title>受注:w&#45;&gt;倉庫マスタ:e</title>
<path fill="none" stroke="#000000" stroke-dasharray="5,2" d="M370.06,-236.9304C361.9231,-329.4924 341.0332,-525.3147 306,-582.7 291.3639,-606.6744 283.5889,-620.7 255.5,-620.7"/>
<polygon fill="#000000" stroke="#000000" points="370.6166,-230.4441 374.8874,-222.7812 370.9586,-226.4587 371.3006,-222.4734 371.3006,-222.4734 371.3006,-222.4734 370.9586,-226.4587 367.7138,-222.1656 370.6166,-230.4441 370.6166,-230.4441"/>
<ellipse fill="none" stroke="#000000" cx="370.3429" cy="-233.6324" rx="3.2" ry="3.2"/>
</g>
<!-- 社員マスタ -->
<g id="node3" class="node">
<title>社員マスタ</title>
<g id="a_node3"><a xlink:href="../../tables/______d3d8a641.html" xlink:title="社員マスタ" target="_top">
<polygon fill="#ffffff" stroke="transparent" points="135,-217.7 135,-571.7 298,-571.7 298,-217.7 135,-217.7"/>
<polygon fill="#f5f5f5" stroke="transparent" points="137.5,-546.7 137.5,-569.7 296.5,-569.7 296.5,-546.7 137.5,-546.7"/>
<polygon fill="none" stroke="#000000" points="137.5,-546.7 137.5,-569.7 296.5,-569.7 296.5,-546.7 137.5,-546.7"/>
<text text-anchor="start" x="133.7293" y="-555.3" font-family="Helvetica,sans-Serif" font-weight="bold" font-size="11.00" fill="#000000">社員マスタ</text>
<text text-anchor="start" x="261.5437" y="-554.8" font-family="Helvetica,sans-Serif" font-size="11.00" fill="#000000">[table]</text>
<polygon fill="none" stroke="#000000" points="137.5,-524.7 137.5,-546.7 212.5,-546.7 212.5,-524.7 137.5,-524.7"/>
<image xlink:href="../../images/primaryKeys.png" width="11px" height="12px" preserveAspectRatio="xMinYMin meet" x="142.5" y="-541.7"/>
<text text-anchor="start" x="152.8627" y="-531.8" font-family="Helvetica,sans-Serif" font-size="11.00" fill="#000000">社員コード</text>
<polygon fill="none" stroke="#000000" points="212.5,-524.7 212.5,-546.7 296.5,-546.7 296.5,-524.7 212.5,-524.7"/>
<text text-anchor="start" x="215.5" y="-532.4" font-family="Helvetica,sans-Serif" font-size="11.00" fill="#000000">varchar[10]</text>
<polygon fill="none" stroke="#000000" points="137.5,-502.7 137.5,-524.7 212.5,-524.7 212.5,-502.7 137.5,-502.7"/>
<text text-anchor="start" x="157.5" y="-509.8" font-family="Helvetica,sans-Serif" font-size="11.00" fill="#000000">社員名</text>
<polygon fill="none" stroke="#000000" points="212.5,-502.7 212.5,-524.7 296.5,-524.7 296.5,-502.7 212.5,-502.7"/>
<text text-anchor="start" x="215.5" y="-510.4" font-family="Helvetica,sans-Serif" font-size="11.00" fill="#000000">varchar[20]</text>
<polygon fill="none" stroke="#000000" points="137.5,-480.7 137.5,-502.7 212.5,-502.7 212.5,-480.7 137.5,-480.7"/>
<text text-anchor="start" x="157.3403" y="-487.8" font-family="Helvetica,sans-Serif" font-size="11.00" fill="#000000">社員名カナ</text>
<polygon fill="none" stroke="#000000" points="212.5,-480.7 212.5,-502.7 296.5,-502.7 296.5,-480.7 212.5,-480.7"/>
<text text-anchor="start" x="215.5" y="-488.4" font-family="Helvetica,sans-Serif" font-size="11.00" fill="#000000">varchar[40]</text>
<polygon fill="none" stroke="#000000" points="137.5,-458.7 137.5,-480.7 212.5,-480.7 212.5,-458.7 137.5,-458.7"/>
<text text-anchor="start" x="151.5477" y="-465.8" font-family="Helvetica,sans-Serif" font-size="11.00" fill="#000000">パスワード</text>
<polygon fill="none" stroke="#000000" points="212.5,-458.7 212.5,-480.7 296.5,-480.7 296.5,-458.7 212.5,-458.7"/>
<text text-anchor="start" x="215.5" y="-466.4" font-family="Helvetica,sans-Serif" font-size="11.00" fill="#000000">varchar[8]</text>
<polygon fill="none" stroke="#000000" points="137.5,-436.7 137.5,-458.7 212.5,-458.7 212.5,-436.7 137.5,-436.7"/>
<text text-anchor="start" x="156.6016" y="-443.8" font-family="Helvetica,sans-Serif" font-size="11.00" fill="#000000">電話番号</text>
<polygon fill="none" stroke="#000000" points="212.5,-436.7 212.5,-458.7 296.5,-458.7 296.5,-436.7 212.5,-436.7"/>
<text text-anchor="start" x="215.5" y="-444.4" font-family="Helvetica,sans-Serif" font-size="11.00" fill="#000000">varchar[13]</text>
<polygon fill="none" stroke="#000000" points="137.5,-414.7 137.5,-436.7 212.5,-436.7 212.5,-414.7 137.5,-414.7"/>
<text text-anchor="start" x="157.5" y="-421.8" font-family="Helvetica,sans-Serif" font-size="11.00" fill="#000000">fax番号</text>
<polygon fill="none" stroke="#000000" points="212.5,-414.7 212.5,-436.7 296.5,-436.7 296.5,-414.7 212.5,-414.7"/>
<text text-anchor="start" x="215.5" y="-422.4" font-family="Helvetica,sans-Serif" font-size="11.00" fill="#000000">varchar[13]</text>
<polygon fill="#ffffff" stroke="transparent" points="137.5,-392.7 137.5,-414.7 212.5,-414.7 212.5,-392.7 137.5,-392.7"/>
<polygon fill="none" stroke="#000000" points="137.5,-392.7 137.5,-414.7 212.5,-414.7 212.5,-392.7 137.5,-392.7"/>
<image xlink:href="../../images/foreignKeys.png" width="11px" height="12px" preserveAspectRatio="xMinYMin meet" x="142.5" y="-409.7"/>
<text text-anchor="start" x="145.5257" y="-399.8" font-family="Helvetica,sans-Serif" font-size="11.00" fill="#000000">部門コード</text>
<polygon fill="none" stroke="#000000" points="212.5,-392.7 212.5,-414.7 296.5,-414.7 296.5,-392.7 212.5,-392.7"/>
<text text-anchor="start" x="215.5" y="-400.4" font-family="Helvetica,sans-Serif" font-size="11.00" fill="#000000">varchar[6]</text>
<polygon fill="none" stroke="#000000" points="137.5,-370.7 137.5,-392.7 212.5,-392.7 212.5,-370.7 137.5,-370.7"/>
<text text-anchor="start" x="157.5" y="-377.8" font-family="Helvetica,sans-Serif" font-size="11.00" fill="#000000">開始日</text>
<polygon fill="none" stroke="#000000" points="212.5,-370.7 212.5,-392.7 296.5,-392.7 296.5,-370.7 212.5,-370.7"/>
<text text-anchor="start" x="215.3807" y="-378.4" font-family="Helvetica,sans-Serif" font-size="11.00" fill="#000000">timestamp[29,6]</text>
<polygon fill="none" stroke="#000000" points="137.5,-348.7 137.5,-370.7 212.5,-370.7 212.5,-348.7 137.5,-348.7"/>
<text text-anchor="start" x="147.8792" y="-355.8" font-family="Helvetica,sans-Serif" font-size="11.00" fill="#000000">職種コード</text>
<polygon fill="none" stroke="#000000" points="212.5,-348.7 212.5,-370.7 296.5,-370.7 296.5,-348.7 212.5,-348.7"/>
<text text-anchor="start" x="215.5" y="-356.4" font-family="Helvetica,sans-Serif" font-size="11.00" fill="#000000">varchar[2]</text>
<polygon fill="none" stroke="#000000" points="137.5,-326.7 137.5,-348.7 212.5,-348.7 212.5,-326.7 137.5,-326.7"/>
<text text-anchor="start" x="135.9205" y="-333.8" font-family="Helvetica,sans-Serif" font-size="11.00" fill="#000000">承認権限コード</text>
<polygon fill="none" stroke="#000000" points="212.5,-326.7 212.5,-348.7 296.5,-348.7 296.5,-326.7 212.5,-326.7"/>
<text text-anchor="start" x="215.5" y="-334.4" font-family="Helvetica,sans-Serif" font-size="11.00" fill="#000000">varchar[2]</text>
<polygon fill="none" stroke="#000000" points="137.5,-304.7 137.5,-326.7 212.5,-326.7 212.5,-304.7 137.5,-304.7"/>
<text text-anchor="start" x="157.5" y="-311.8" font-family="Helvetica,sans-Serif" font-size="11.00" fill="#000000">作成日時</text>
<polygon fill="none" stroke="#000000" points="212.5,-304.7 212.5,-326.7 296.5,-326.7 296.5,-304.7 212.5,-304.7"/>
<text text-anchor="start" x="215.3807" y="-312.4" font-family="Helvetica,sans-Serif" font-size="11.00" fill="#000000">timestamp[29,6]</text>
<polygon fill="none" stroke="#000000" points="137.5,-282.7 137.5,-304.7 212.5,-304.7 212.5,-282.7 137.5,-282.7"/>
<text text-anchor="start" x="157.5" y="-289.8" font-family="Helvetica,sans-Serif" font-size="11.00" fill="#000000">作成者名</text>
<polygon fill="none" stroke="#000000" points="212.5,-282.7 212.5,-304.7 296.5,-304.7 296.5,-282.7 212.5,-282.7"/>
<text text-anchor="start" x="215.5" y="-290.4" font-family="Helvetica,sans-Serif" font-size="11.00" fill="#000000">varchar[12]</text>
<polygon fill="none" stroke="#000000" points="137.5,-260.7 137.5,-282.7 212.5,-282.7 212.5,-260.7 137.5,-260.7"/>
<text text-anchor="start" x="157.5" y="-267.8" font-family="Helvetica,sans-Serif" font-size="11.00" fill="#000000">更新日時</text>
<polygon fill="none" stroke="#000000" points="212.5,-260.7 212.5,-282.7 296.5,-282.7 296.5,-260.7 212.5,-260.7"/>
<text text-anchor="start" x="215.3807" y="-268.4" font-family="Helvetica,sans-Serif" font-size="11.00" fill="#000000">timestamp[29,6]</text>
<polygon fill="none" stroke="#000000" points="137.5,-238.7 137.5,-260.7 212.5,-260.7 212.5,-238.7 137.5,-238.7"/>
<text text-anchor="start" x="157.5" y="-245.8" font-family="Helvetica,sans-Serif" font-size="11.00" fill="#000000">更新者名</text>
<polygon fill="none" stroke="#000000" points="212.5,-238.7 212.5,-260.7 296.5,-260.7 296.5,-238.7 212.5,-238.7"/>
<text text-anchor="start" x="215.5" y="-246.4" font-family="Helvetica,sans-Serif" font-size="11.00" fill="#000000">varchar[12]</text>
<polygon fill="#ffffff" stroke="transparent" points="137.5,-219.7 137.5,-238.7 296.5,-238.7 296.5,-219.7 137.5,-219.7"/>
<polygon fill="none" stroke="#000000" points="137.5,-219.7 137.5,-238.7 296.5,-238.7 296.5,-219.7 137.5,-219.7"/>
<polygon fill="#ffffff" stroke="transparent" points="138.5,-220.7 138.5,-237.7 194.5,-237.7 194.5,-220.7 138.5,-220.7"/>
<text text-anchor="start" x="140.5" y="-225.8" font-family="Helvetica,sans-Serif" font-size="11.00" fill="#000000">&lt; 1</text>
<polygon fill="#ffffff" stroke="transparent" points="194.5,-220.7 194.5,-237.7 240.5,-237.7 240.5,-220.7 194.5,-220.7"/>
<text text-anchor="start" x="214.4431" y="-225.8" font-family="Helvetica,sans-Serif" font-size="11.00" fill="#000000"> &#160;</text>
<polygon fill="#ffffff" stroke="transparent" points="240.5,-220.7 240.5,-237.7 295.5,-237.7 295.5,-220.7 240.5,-220.7"/>
<text text-anchor="start" x="277.9053" y="-225.8" font-family="Helvetica,sans-Serif" font-size="11.00" fill="#000000">1 &gt;</text>
<polygon fill="#000000" stroke="#000000" points="194.5,-220.7 194.5,-237.7 194.5,-237.7 194.5,-220.7 194.5,-220.7"/>
<polygon fill="#000000" stroke="#000000" points="240.5,-220.7 240.5,-237.7 240.5,-237.7 240.5,-220.7 240.5,-220.7"/>
<polygon fill="none" stroke="#000000" stroke-width="2" points="136,-218.7 136,-570.7 297,-570.7 297,-218.7 136,-218.7"/>
</a>
</g>
</g>
<!-- 受注&#45;&gt;社員マスタ -->
<g id="edge2" class="edge">
<title>受注:w&#45;&gt;社員マスタ:e</title>
<path fill="none" stroke="#000000" d="M368.1366,-236.7643C356.0081,-332.6671 326.7581,-535.7 296.5,-535.7"/>
<polygon fill="#000000" stroke="#000000" points="368.9446,-230.2785 373.5061,-222.7849 369.4391,-226.3091 369.9337,-222.3398 369.9337,-222.3398 369.9337,-222.3398 369.4391,-226.3091 366.3613,-221.8947 368.9446,-230.2785 368.9446,-230.2785"/>
<ellipse fill="none" stroke="#000000" cx="368.549" cy="-233.4539" rx="3.2" ry="3.2"/>
</g>
<!-- 部門マスタ -->
<g id="node4" class="node">
<title>部門マスタ</title>
<g id="a_node4"><a xlink:href="../../tables/______3eb0dfec.html" xlink:title="部門マスタ" target="_top">
<polygon fill="#ffffff" stroke="transparent" points="8,-157.2 8,-218.2 86,-218.2 86,-157.2 8,-157.2"/>
<polygon fill="#f5f5f5" stroke="transparent" points="8,-194.7 8,-217.7 86,-217.7 86,-194.7 8,-194.7"/>
<polygon fill="none" stroke="#000000" points="8,-194.7 8,-217.7 86,-217.7 86,-194.7 8,-194.7"/>
<text text-anchor="start" x="-3.1077" y="-203.3" font-family="Helvetica,sans-Serif" font-weight="bold" font-size="11.00" fill="#000000">部門マスタ</text>
<text text-anchor="start" x="51.5219" y="-202.8" font-family="Helvetica,sans-Serif" font-size="11.00" fill="#000000">[table]</text>
<polygon fill="none" stroke="#000000" points="8,-175.7 8,-194.7 86,-194.7 86,-175.7 8,-175.7"/>
<text text-anchor="start" x="11" y="-181.8" font-family="Helvetica,sans-Serif" font-size="11.00" fill="#000000">...</text>
<polygon fill="#ffffff" stroke="transparent" points="8,-156.7 8,-175.7 86,-175.7 86,-156.7 8,-156.7"/>
<polygon fill="none" stroke="#000000" points="8,-156.7 8,-175.7 86,-175.7 86,-156.7 8,-156.7"/>
<polygon fill="#ffffff" stroke="transparent" points="9,-157.7 9,-174.7 32,-174.7 32,-157.7 9,-157.7"/>
<text text-anchor="start" x="11" y="-162.8" font-family="Helvetica,sans-Serif" font-size="11.00" fill="#000000"> &#160;</text>
<polygon fill="#ffffff" stroke="transparent" points="32,-157.7 32,-174.7 54,-174.7 54,-157.7 32,-157.7"/>
<text text-anchor="start" x="39.9431" y="-162.8" font-family="Helvetica,sans-Serif" font-size="11.00" fill="#000000"> &#160;</text>
<polygon fill="#ffffff" stroke="transparent" points="54,-157.7 54,-174.7 85,-174.7 85,-157.7 54,-157.7"/>
<text text-anchor="start" x="67.4053" y="-162.8" font-family="Helvetica,sans-Serif" font-size="11.00" fill="#000000">5 &gt;</text>
<polygon fill="#000000" stroke="#000000" points="32,-157.7 32,-174.7 32,-174.7 32,-157.7 32,-157.7"/>
<polygon fill="#000000" stroke="#000000" points="54,-157.7 54,-174.7 54,-174.7 54,-157.7 54,-157.7"/>
</a>
</g>
</g>
<!-- 受注&#45;&gt;部門マスタ -->
<g id="edge3" class="edge">
<title>受注:w&#45;&gt;部門マスタ:e</title>
<path fill="none" stroke="#000000" d="M324.1908,-184.3568C261.7411,-182.7928 155.4693,-182.8147 94.2471,-184.4225"/>
<polygon fill="#000000" stroke="#000000" points="330.6979,-184.5448 338.5905,-188.3745 334.6963,-184.6604 338.6946,-184.776 338.6946,-184.776 338.6946,-184.776 334.6963,-184.6604 338.7986,-181.1775 330.6979,-184.5448 330.6979,-184.5448"/>
<ellipse fill="none" stroke="#000000" cx="327.4993" cy="-184.4523" rx="3.2" ry="3.2"/>
</g>
<!-- 受注&#45;&gt;部門マスタ -->
<g id="edge4" class="edge">
<title>受注:w&#45;&gt;部門マスタ:e</title>
<path fill="none" stroke="#000000" d="M324.1908,-191.6004C261.7411,-193.4251 155.4693,-193.3995 94.2471,-191.5237"/>
<polygon fill="#000000" stroke="#000000" points="330.6991,-191.381 338.8159,-194.7093 334.6969,-191.2462 338.6946,-191.1113 338.6946,-191.1113 338.6946,-191.1113 334.6969,-191.2462 338.5732,-187.5134 330.6991,-191.381 330.6991,-191.381"/>
<ellipse fill="none" stroke="#000000" cx="327.5009" cy="-191.4889" rx="3.2" ry="3.2"/>
</g>
<!-- 顧客マスタ -->
<g id="node5" class="node">
<title>顧客マスタ</title>
<g id="a_node5"><a xlink:href="../../tables/______8e04fe89.html" xlink:title="顧客マスタ" target="_top">
<polygon fill="#ffffff" stroke="transparent" points="177.5,-96.2 177.5,-157.2 255.5,-157.2 255.5,-96.2 177.5,-96.2"/>
<polygon fill="#f5f5f5" stroke="transparent" points="177.5,-133.7 177.5,-156.7 255.5,-156.7 255.5,-133.7 177.5,-133.7"/>
<polygon fill="none" stroke="#000000" points="177.5,-133.7 177.5,-156.7 255.5,-156.7 255.5,-133.7 177.5,-133.7"/>
<text text-anchor="start" x="166.0892" y="-142.3" font-family="Helvetica,sans-Serif" font-weight="bold" font-size="11.00" fill="#000000">顧客マスタ</text>
<text text-anchor="start" x="221.0219" y="-141.8" font-family="Helvetica,sans-Serif" font-size="11.00" fill="#000000">[table]</text>
<polygon fill="none" stroke="#000000" points="177.5,-114.7 177.5,-133.7 255.5,-133.7 255.5,-114.7 177.5,-114.7"/>
<text text-anchor="start" x="180.5" y="-120.8" font-family="Helvetica,sans-Serif" font-size="11.00" fill="#000000">...</text>
<polygon fill="#ffffff" stroke="transparent" points="177.5,-95.7 177.5,-114.7 255.5,-114.7 255.5,-95.7 177.5,-95.7"/>
<polygon fill="none" stroke="#000000" points="177.5,-95.7 177.5,-114.7 255.5,-114.7 255.5,-95.7 177.5,-95.7"/>
<polygon fill="#ffffff" stroke="transparent" points="178.5,-96.7 178.5,-113.7 207.5,-113.7 207.5,-96.7 178.5,-96.7"/>
<text text-anchor="start" x="180.5" y="-101.8" font-family="Helvetica,sans-Serif" font-size="11.00" fill="#000000">&lt; 1</text>
<polygon fill="#ffffff" stroke="transparent" points="207.5,-96.7 207.5,-113.7 226.5,-113.7 226.5,-96.7 207.5,-96.7"/>
<text text-anchor="start" x="213.9431" y="-101.8" font-family="Helvetica,sans-Serif" font-size="11.00" fill="#000000"> &#160;</text>
<polygon fill="#ffffff" stroke="transparent" points="226.5,-96.7 226.5,-113.7 254.5,-113.7 254.5,-96.7 226.5,-96.7"/>
<text text-anchor="start" x="236.9053" y="-101.8" font-family="Helvetica,sans-Serif" font-size="11.00" fill="#000000">2 &gt;</text>
<polygon fill="#000000" stroke="#000000" points="207.5,-96.7 207.5,-113.7 207.5,-113.7 207.5,-96.7 207.5,-96.7"/>
<polygon fill="#000000" stroke="#000000" points="226.5,-96.7 226.5,-113.7 226.5,-113.7 226.5,-96.7 226.5,-96.7"/>
</a>
</g>
</g>
<!-- 受注&#45;&gt;顧客マスタ -->
<g id="edge5" class="edge">
<title>受注:w&#45;&gt;顧客マスタ:e</title>
<path fill="none" stroke="#000000" d="M327.8034,-144.8199C307.0215,-131.5926 281.3742,-121.1064 255.5,-123.7"/>
<polygon fill="#000000" stroke="#000000" points="333.1753,-148.5325 337.7098,-156.0425 336.466,-150.8067 339.7566,-153.0809 339.7566,-153.0809 339.7566,-153.0809 336.466,-150.8067 341.8033,-150.1194 333.1753,-148.5325 333.1753,-148.5325"/>
<ellipse fill="none" stroke="#000000" cx="330.5429" cy="-146.7132" rx="3.2" ry="3.2"/>
</g>
<!-- 受注&#45;&gt;顧客マスタ -->
<g id="edge6" class="edge">
<title>受注:w&#45;&gt;顧客マスタ:e</title>
<path fill="none" stroke="#000000" d="M327.0984,-153.9178C306.443,-140.0953 281.0824,-126.6917 255.5,-123.7"/>
<polygon fill="#000000" stroke="#000000" points="332.4452,-157.666 336.9294,-165.2061 335.7205,-159.9621 338.9959,-162.2582 338.9959,-162.2582 338.9959,-162.2582 335.7205,-159.9621 341.0624,-159.3104 332.4452,-157.666 332.4452,-157.666"/>
<ellipse fill="none" stroke="#000000" cx="329.8249" cy="-155.8291" rx="3.2" ry="3.2"/>
</g>
<!-- 社員マスタ&#45;&gt;部門マスタ -->
<g id="edge11" class="edge">
<title>社員マスタ:w&#45;&gt;部門マスタ:e</title>
<path fill="none" stroke="#000000" d="M123.7452,-398.7292C91.3612,-375.4477 65.7853,-276.0686 54.0307,-222.4041"/>
<polygon fill="#000000" stroke="#000000" points="129.9762,-400.981 136.2764,-407.0857 133.7381,-402.3405 137.5,-403.7 137.5,-403.7 137.5,-403.7 133.7381,-402.3405 138.7236,-400.3143 129.9762,-400.981 129.9762,-400.981"/>
<ellipse fill="none" stroke="#000000" cx="126.9667" cy="-399.8934" rx="3.2" ry="3.2"/>
</g>
<!-- 受注明細 -->
<g id="node6" class="node">
<title>受注明細</title>
<g id="a_node6"><a xlink:href="../../tables/_____27c23493.html" xlink:title="受注明細" target="_top">
<polygon fill="#ffffff" stroke="transparent" points="450,-160.2 450,-221.2 520,-221.2 520,-160.2 450,-160.2"/>
<polygon fill="#f5f5f5" stroke="transparent" points="450,-197.7 450,-220.7 520,-220.7 520,-197.7 450,-197.7"/>
<polygon fill="none" stroke="#000000" points="450,-197.7 450,-220.7 520,-220.7 520,-197.7 450,-197.7"/>
<text text-anchor="start" x="447.1006" y="-206.3" font-family="Helvetica,sans-Serif" font-weight="bold" font-size="11.00" fill="#000000">受注明細</text>
<text text-anchor="start" x="485.5219" y="-205.8" font-family="Helvetica,sans-Serif" font-size="11.00" fill="#000000">[table]</text>
<polygon fill="none" stroke="#000000" points="450,-178.7 450,-197.7 520,-197.7 520,-178.7 450,-178.7"/>
<text text-anchor="start" x="453" y="-184.8" font-family="Helvetica,sans-Serif" font-size="11.00" fill="#000000">...</text>
<polygon fill="#ffffff" stroke="transparent" points="450,-159.7 450,-178.7 520,-178.7 520,-159.7 450,-159.7"/>
<polygon fill="none" stroke="#000000" points="450,-159.7 450,-178.7 520,-178.7 520,-159.7 450,-159.7"/>
<polygon fill="#ffffff" stroke="transparent" points="451,-160.7 451,-177.7 480,-177.7 480,-160.7 451,-160.7"/>
<text text-anchor="start" x="453" y="-165.8" font-family="Helvetica,sans-Serif" font-size="11.00" fill="#000000">&lt; 2</text>
<polygon fill="#ffffff" stroke="transparent" points="480,-160.7 480,-177.7 500,-177.7 500,-160.7 480,-160.7"/>
<text text-anchor="start" x="486.9431" y="-165.8" font-family="Helvetica,sans-Serif" font-size="11.00" fill="#000000"> &#160;</text>
<polygon fill="#ffffff" stroke="transparent" points="500,-160.7 500,-177.7 519,-177.7 519,-160.7 500,-160.7"/>
<text text-anchor="start" x="510.8862" y="-165.8" font-family="Helvetica,sans-Serif" font-size="11.00" fill="#000000"> &#160;</text>
<polygon fill="#000000" stroke="#000000" points="480,-160.7 480,-177.7 480,-177.7 480,-160.7 480,-160.7"/>
<polygon fill="#000000" stroke="#000000" points="500,-160.7 500,-177.7 500,-177.7 500,-160.7 500,-160.7"/>
</a>
</g>
</g>
<!-- 受注明細&#45;&gt;受注 -->
<g id="edge7" class="edge">
<title>受注明細:w&#45;&gt;受注:e</title>
<path fill="none" stroke="#000000" d="M435.5927,-187.7C426.6014,-187.7 417.5174,-187.7 409.1891,-187.7"/>
<polygon fill="#000000" stroke="#000000" points="442,-187.7001 450,-191.3 446,-187.7 450,-187.7 450,-187.7 450,-187.7 446,-187.7 450,-184.1 442,-187.7001 442,-187.7001"/>
<ellipse fill="none" stroke="#000000" cx="438.8" cy="-187.7001" rx="3.2" ry="3.2"/>
</g>
<!-- 売上 -->
<g id="node7" class="node">
<title>売上</title>
<g id="a_node7"><a xlink:href="../../tables/___b1358.html" xlink:title="売上" target="_top">
<polygon fill="#ffffff" stroke="transparent" points="458,-38.2 458,-99.2 512,-99.2 512,-38.2 458,-38.2"/>
<polygon fill="#f5f5f5" stroke="transparent" points="458,-75.7 458,-98.7 512,-98.7 512,-75.7 458,-75.7"/>
<polygon fill="none" stroke="#000000" points="458,-75.7 458,-98.7 512,-98.7 512,-75.7 458,-75.7"/>
<text text-anchor="start" x="456.5793" y="-84.3" font-family="Helvetica,sans-Serif" font-weight="bold" font-size="11.00" fill="#000000">売上</text>
<text text-anchor="start" x="477.5219" y="-83.8" font-family="Helvetica,sans-Serif" font-size="11.00" fill="#000000">[table]</text>
<polygon fill="none" stroke="#000000" points="458,-56.7 458,-75.7 512,-75.7 512,-56.7 458,-56.7"/>
<text text-anchor="start" x="461" y="-62.8" font-family="Helvetica,sans-Serif" font-size="11.00" fill="#000000">...</text>
<polygon fill="#ffffff" stroke="transparent" points="458,-37.7 458,-56.7 512,-56.7 512,-37.7 458,-37.7"/>
<polygon fill="none" stroke="#000000" points="458,-37.7 458,-56.7 512,-56.7 512,-37.7 458,-37.7"/>
<polygon fill="#ffffff" stroke="transparent" points="459,-38.7 459,-55.7 480,-55.7 480,-38.7 459,-38.7"/>
<text text-anchor="start" x="461" y="-43.8" font-family="Helvetica,sans-Serif" font-size="11.00" fill="#000000">&lt; 4</text>
<polygon fill="#ffffff" stroke="transparent" points="480,-38.7 480,-55.7 491,-55.7 491,-38.7 480,-38.7"/>
<text text-anchor="start" x="482.4431" y="-43.8" font-family="Helvetica,sans-Serif" font-size="11.00" fill="#000000"> &#160;</text>
<polygon fill="#ffffff" stroke="transparent" points="491,-38.7 491,-55.7 511,-55.7 511,-38.7 491,-38.7"/>
<text text-anchor="start" x="493.4053" y="-43.8" font-family="Helvetica,sans-Serif" font-size="11.00" fill="#000000">1 &gt;</text>
<polygon fill="#000000" stroke="#000000" points="480,-38.7 480,-55.7 480,-55.7 480,-38.7 480,-38.7"/>
<polygon fill="#000000" stroke="#000000" points="491,-38.7 491,-55.7 491,-55.7 491,-38.7 491,-38.7"/>
</a>
</g>
</g>
<!-- 売上&#45;&gt;受注 -->
<g id="edge8" class="edge">
<title>売上:w&#45;&gt;受注:e</title>
<path fill="none" stroke="#000000" d="M443.3597,-67.8385C410.0034,-77.9003 391.3762,-121.3652 382.0182,-153.066"/>
<polygon fill="#000000" stroke="#000000" points="450.084,-66.8563 458.5203,-69.2622 454.042,-66.2782 458,-65.7 458,-65.7 458,-65.7 454.042,-66.2782 457.4797,-62.1378 450.084,-66.8563 450.084,-66.8563"/>
<ellipse fill="none" stroke="#000000" cx="446.9176" cy="-67.3189" rx="3.2" ry="3.2"/>
</g>
<!-- 売上&#45;&gt;部門マスタ -->
<g id="edge9" class="edge">
<title>売上:w&#45;&gt;部門マスタ:e</title>
<path fill="none" stroke="#000000" d="M443.2114,-64.9423C306.9001,-56.5245 253.0575,-13.5882 127,-79.7 97.1042,-95.3791 74.7767,-127.7032 61.4123,-152.9904"/>
<polygon fill="#000000" stroke="#000000" points="450.0105,-65.2906 457.8158,-69.2953 454.0052,-65.4953 458,-65.7 458,-65.7 458,-65.7 454.0052,-65.4953 458.1842,-62.1047 450.0105,-65.2906 450.0105,-65.2906"/>
<ellipse fill="none" stroke="#000000" cx="446.8147" cy="-65.1269" rx="3.2" ry="3.2"/>
</g>
<!-- 売上&#45;&gt;部門マスタ -->
<g id="edge10" class="edge">
<title>売上:w&#45;&gt;部門マスタ:e</title>
<path fill="none" stroke="#000000" d="M443.2114,-66.2303C306.9001,-69.5245 253.0575,-26.5882 127,-92.7 101.4889,-106.0795 81.4889,-131.5795 67.8667,-152.8596"/>
<polygon fill="#000000" stroke="#000000" points="450.0051,-65.9867 458.129,-69.2977 454.0026,-65.8434 458,-65.7 458,-65.7 458,-65.7 454.0026,-65.8434 457.871,-62.1023 450.0051,-65.9867 450.0051,-65.9867"/>
<ellipse fill="none" stroke="#000000" cx="446.8072" cy="-66.1014" rx="3.2" ry="3.2"/>
</g>
</g>
</svg>
