<?xml version="1.0" encoding="UTF-8" standalone="no"?>
<!DOCTYPE svg PUBLIC "-//W3C//DTD SVG 1.1//EN"
 "http://www.w3.org/Graphics/SVG/1.1/DTD/svg11.dtd">
<!-- Generated by graphviz version 2.40.1 (20161225.0304)
 -->
<!-- Title: twoDegreesRelationshipsDiagram Pages: 1 -->
<svg width="647pt" height="537pt"
 viewBox="0.00 0.00 647.00 536.70" xmlns="http://www.w3.org/2000/svg" xmlns:xlink="http://www.w3.org/1999/xlink">
<g id="graph0" class="graph" transform="scale(1 1) rotate(0) translate(4 532.7)">
<title>twoDegreesRelationshipsDiagram</title>
<polygon fill="#ffffff" stroke="transparent" points="-4,4 -4,-532.7 643,-532.7 643,4 -4,4"/>
<text text-anchor="middle" x="72.4936" y="-7.3" font-family="Helvetica,sans-Serif" font-size="11.00" fill="#000000">Generated by SchemaSpy</text>
<!-- 受注 -->
<g id="node1" class="node">
<title>受注</title>
<g id="a_node1"><a xlink:href="../../tables/___a93f1.html" xlink:title="受注" target="_top">
<polygon fill="#ffffff" stroke="transparent" points="339,-362.7 339,-423.7 393,-423.7 393,-362.7 339,-362.7"/>
<polygon fill="#f5f5f5" stroke="transparent" points="339,-400.2 339,-423.2 393,-423.2 393,-400.2 339,-400.2"/>
<polygon fill="none" stroke="#000000" points="339,-400.2 339,-423.2 393,-423.2 393,-400.2 339,-400.2"/>
<text text-anchor="start" x="337.2713" y="-408.8" font-family="Helvetica,sans-Serif" font-weight="bold" font-size="11.00" fill="#000000">受注</text>
<text text-anchor="start" x="358.5219" y="-408.3" font-family="Helvetica,sans-Serif" font-size="11.00" fill="#000000">[table]</text>
<polygon fill="none" stroke="#000000" points="339,-381.2 339,-400.2 393,-400.2 393,-381.2 339,-381.2"/>
<text text-anchor="start" x="342" y="-387.3" font-family="Helvetica,sans-Serif" font-size="11.00" fill="#000000">...</text>
<polygon fill="#ffffff" stroke="transparent" points="339,-362.2 339,-381.2 393,-381.2 393,-362.2 339,-362.2"/>
<polygon fill="none" stroke="#000000" points="339,-362.2 339,-381.2 393,-381.2 393,-362.2 339,-362.2"/>
<polygon fill="#ffffff" stroke="transparent" points="340,-363.2 340,-380.2 361,-380.2 361,-363.2 340,-363.2"/>
<text text-anchor="start" x="342" y="-368.3" font-family="Helvetica,sans-Serif" font-size="11.00" fill="#000000">&lt; 5</text>
<polygon fill="#ffffff" stroke="transparent" points="361,-363.2 361,-380.2 372,-380.2 372,-363.2 361,-363.2"/>
<text text-anchor="start" x="363.4431" y="-368.3" font-family="Helvetica,sans-Serif" font-size="11.00" fill="#000000"> &#160;</text>
<polygon fill="#ffffff" stroke="transparent" points="372,-363.2 372,-380.2 392,-380.2 392,-363.2 372,-363.2"/>
<text text-anchor="start" x="374.4053" y="-368.3" font-family="Helvetica,sans-Serif" font-size="11.00" fill="#000000">2 &gt;</text>
<polygon fill="#000000" stroke="#000000" points="361,-363.2 361,-380.2 361,-380.2 361,-363.2 361,-363.2"/>
<polygon fill="#000000" stroke="#000000" points="372,-363.2 372,-380.2 372,-380.2 372,-363.2 372,-363.2"/>
</a>
</g>
</g>
<!-- 社員マスタ -->
<g id="node2" class="node">
<title>社員マスタ</title>
<g id="a_node2"><a xlink:href="../../tables/______d3d8a641.html" xlink:title="社員マスタ" target="_top">
<polygon fill="#ffffff" stroke="transparent" points="212,-336.7 212,-397.7 290,-397.7 290,-336.7 212,-336.7"/>
<polygon fill="#f5f5f5" stroke="transparent" points="212,-374.2 212,-397.2 290,-397.2 290,-374.2 212,-374.2"/>
<polygon fill="none" stroke="#000000" points="212,-374.2 212,-397.2 290,-397.2 290,-374.2 212,-374.2"/>
<text text-anchor="start" x="208.2293" y="-382.8" font-family="Helvetica,sans-Serif" font-weight="bold" font-size="11.00" fill="#000000">社員マスタ</text>
<text text-anchor="start" x="255.5219" y="-382.3" font-family="Helvetica,sans-Serif" font-size="11.00" fill="#000000">[table]</text>
<polygon fill="none" stroke="#000000" points="212,-355.2 212,-374.2 290,-374.2 290,-355.2 212,-355.2"/>
<text text-anchor="start" x="215" y="-361.3" font-family="Helvetica,sans-Serif" font-size="11.00" fill="#000000">...</text>
<polygon fill="#ffffff" stroke="transparent" points="212,-336.2 212,-355.2 290,-355.2 290,-336.2 212,-336.2"/>
<polygon fill="none" stroke="#000000" points="212,-336.2 212,-355.2 290,-355.2 290,-336.2 212,-336.2"/>
<polygon fill="#ffffff" stroke="transparent" points="213,-337.2 213,-354.2 242,-354.2 242,-337.2 213,-337.2"/>
<text text-anchor="start" x="215" y="-342.3" font-family="Helvetica,sans-Serif" font-size="11.00" fill="#000000">&lt; 1</text>
<polygon fill="#ffffff" stroke="transparent" points="242,-337.2 242,-354.2 261,-354.2 261,-337.2 242,-337.2"/>
<text text-anchor="start" x="248.4431" y="-342.3" font-family="Helvetica,sans-Serif" font-size="11.00" fill="#000000"> &#160;</text>
<polygon fill="#ffffff" stroke="transparent" points="261,-337.2 261,-354.2 289,-354.2 289,-337.2 261,-337.2"/>
<text text-anchor="start" x="271.4053" y="-342.3" font-family="Helvetica,sans-Serif" font-size="11.00" fill="#000000">1 &gt;</text>
<polygon fill="#000000" stroke="#000000" points="242,-337.2 242,-354.2 242,-354.2 242,-337.2 242,-337.2"/>
<polygon fill="#000000" stroke="#000000" points="261,-337.2 261,-354.2 261,-354.2 261,-337.2 261,-337.2"/>
</a>
</g>
</g>
<!-- 受注&#45;&gt;社員マスタ -->
<g id="edge1" class="edge">
<title>受注:w&#45;&gt;社員マスタ:e</title>
<path fill="none" stroke="#000000" d="M316.5754,-382.0257C310.48,-380.6477 304.2611,-379.2416 298.2001,-377.8713"/>
<polygon fill="#000000" stroke="#000000" points="323.0683,-383.4937 330.0774,-388.7692 326.9698,-384.3758 330.8713,-385.2579 330.8713,-385.2579 330.8713,-385.2579 326.9698,-384.3758 331.6652,-381.7465 323.0683,-383.4937 323.0683,-383.4937"/>
<ellipse fill="none" stroke="#000000" cx="319.9471" cy="-382.788" rx="3.2" ry="3.2"/>
</g>
<!-- 部門マスタ -->
<g id="node3" class="node">
<title>部門マスタ</title>
<g id="a_node3"><a xlink:href="../../tables/______3eb0dfec.html" xlink:title="部門マスタ" target="_top">
<polygon fill="#ffffff" stroke="transparent" points="8,-38.2 8,-348.2 163,-348.2 163,-38.2 8,-38.2"/>
<polygon fill="#f5f5f5" stroke="transparent" points="10.5,-323.2 10.5,-346.2 161.5,-346.2 161.5,-323.2 10.5,-323.2"/>
<polygon fill="none" stroke="#000000" points="10.5,-323.2 10.5,-346.2 161.5,-346.2 161.5,-323.2 10.5,-323.2"/>
<text text-anchor="start" x="-.6077" y="-331.8" font-family="Helvetica,sans-Serif" font-weight="bold" font-size="11.00" fill="#000000">部門マスタ</text>
<text text-anchor="start" x="126.5437" y="-331.3" font-family="Helvetica,sans-Serif" font-size="11.00" fill="#000000">[table]</text>
<polygon fill="none" stroke="#000000" points="10.5,-301.2 10.5,-323.2 77.5,-323.2 77.5,-301.2 10.5,-301.2"/>
<image xlink:href="../../images/primaryKeys.png" width="11px" height="12px" preserveAspectRatio="xMinYMin meet" x="15.5" y="-318.2"/>
<text text-anchor="start" x="14.5257" y="-308.3" font-family="Helvetica,sans-Serif" font-size="11.00" fill="#000000">部門コード</text>
<polygon fill="none" stroke="#000000" points="77.5,-301.2 77.5,-323.2 161.5,-323.2 161.5,-301.2 77.5,-301.2"/>
<text text-anchor="start" x="80.5" y="-308.9" font-family="Helvetica,sans-Serif" font-size="11.00" fill="#000000">varchar[6]</text>
<polygon fill="none" stroke="#000000" points="10.5,-279.2 10.5,-301.2 77.5,-301.2 77.5,-279.2 10.5,-279.2"/>
<image xlink:href="../../images/primaryKeys.png" width="11px" height="12px" preserveAspectRatio="xMinYMin meet" x="15.5" y="-296.2"/>
<text text-anchor="start" x="30.5" y="-286.3" font-family="Helvetica,sans-Serif" font-size="11.00" fill="#000000">開始日</text>
<polygon fill="none" stroke="#000000" points="77.5,-279.2 77.5,-301.2 161.5,-301.2 161.5,-279.2 77.5,-279.2"/>
<text text-anchor="start" x="80.3807" y="-286.9" font-family="Helvetica,sans-Serif" font-size="11.00" fill="#000000">timestamp[29,6]</text>
<polygon fill="none" stroke="#000000" points="10.5,-257.2 10.5,-279.2 77.5,-279.2 77.5,-257.2 10.5,-257.2"/>
<text text-anchor="start" x="30.5" y="-264.3" font-family="Helvetica,sans-Serif" font-size="11.00" fill="#000000">終了日</text>
<polygon fill="none" stroke="#000000" points="77.5,-257.2 77.5,-279.2 161.5,-279.2 161.5,-257.2 77.5,-257.2"/>
<text text-anchor="start" x="80.3807" y="-264.9" font-family="Helvetica,sans-Serif" font-size="11.00" fill="#000000">timestamp[29,6]</text>
<polygon fill="#ffffff" stroke="transparent" points="10.5,-235.2 10.5,-257.2 77.5,-257.2 77.5,-235.2 10.5,-235.2"/>
<polygon fill="none" stroke="#000000" points="10.5,-235.2 10.5,-257.2 77.5,-257.2 77.5,-235.2 10.5,-235.2"/>
<text text-anchor="start" x="30.5" y="-242.3" font-family="Helvetica,sans-Serif" font-size="11.00" fill="#000000">部門名</text>
<polygon fill="none" stroke="#000000" points="77.5,-235.2 77.5,-257.2 161.5,-257.2 161.5,-235.2 77.5,-235.2"/>
<text text-anchor="start" x="80.5" y="-242.9" font-family="Helvetica,sans-Serif" font-size="11.00" fill="#000000">varchar[40]</text>
<polygon fill="none" stroke="#000000" points="10.5,-213.2 10.5,-235.2 77.5,-235.2 77.5,-213.2 10.5,-213.2"/>
<text text-anchor="start" x="29.1876" y="-220.3" font-family="Helvetica,sans-Serif" font-size="11.00" fill="#000000">組織階層</text>
<polygon fill="none" stroke="#000000" points="77.5,-213.2 77.5,-235.2 161.5,-235.2 161.5,-213.2 77.5,-213.2"/>
<text text-anchor="start" x="80.5" y="-220.9" font-family="Helvetica,sans-Serif" font-size="11.00" fill="#000000">int4[10]</text>
<polygon fill="#ffffff" stroke="transparent" points="10.5,-191.2 10.5,-213.2 77.5,-213.2 77.5,-191.2 10.5,-191.2"/>
<polygon fill="none" stroke="#000000" points="10.5,-191.2 10.5,-213.2 77.5,-213.2 77.5,-191.2 10.5,-191.2"/>
<text text-anchor="start" x="24.8151" y="-198.3" font-family="Helvetica,sans-Serif" font-size="11.00" fill="#000000">部門パス</text>
<polygon fill="none" stroke="#000000" points="77.5,-191.2 77.5,-213.2 161.5,-213.2 161.5,-191.2 77.5,-191.2"/>
<text text-anchor="start" x="80.5" y="-198.9" font-family="Helvetica,sans-Serif" font-size="11.00" fill="#000000">varchar[100]</text>
<polygon fill="none" stroke="#000000" points="10.5,-169.2 10.5,-191.2 77.5,-191.2 77.5,-169.2 10.5,-169.2"/>
<text text-anchor="start" x="27.6603" y="-176.3" font-family="Helvetica,sans-Serif" font-size="11.00" fill="#000000">最下層区分</text>
<polygon fill="none" stroke="#000000" points="77.5,-169.2 77.5,-191.2 161.5,-191.2 161.5,-169.2 77.5,-169.2"/>
<text text-anchor="start" x="80.5" y="-176.9" font-family="Helvetica,sans-Serif" font-size="11.00" fill="#000000">int4[10]</text>
<polygon fill="none" stroke="#000000" points="10.5,-147.2 10.5,-169.2 77.5,-169.2 77.5,-147.2 10.5,-147.2"/>
<text text-anchor="start" x="12.6788" y="-154.3" font-family="Helvetica,sans-Serif" font-size="11.00" fill="#000000">伝票入力可否</text>
<polygon fill="none" stroke="#000000" points="77.5,-147.2 77.5,-169.2 161.5,-169.2 161.5,-147.2 77.5,-147.2"/>
<text text-anchor="start" x="80.5" y="-154.9" font-family="Helvetica,sans-Serif" font-size="11.00" fill="#000000">int4[10]</text>
<polygon fill="none" stroke="#000000" points="10.5,-125.2 10.5,-147.2 77.5,-147.2 77.5,-125.2 10.5,-125.2"/>
<text text-anchor="start" x="27.6581" y="-132.3" font-family="Helvetica,sans-Serif" font-size="11.00" fill="#000000">作成日時</text>
<polygon fill="none" stroke="#000000" points="77.5,-125.2 77.5,-147.2 161.5,-147.2 161.5,-125.2 77.5,-125.2"/>
<text text-anchor="start" x="80.3807" y="-132.9" font-family="Helvetica,sans-Serif" font-size="11.00" fill="#000000">timestamp[29,6]</text>
<polygon fill="none" stroke="#000000" points="10.5,-103.2 10.5,-125.2 77.5,-125.2 77.5,-103.2 10.5,-103.2"/>
<text text-anchor="start" x="27.6581" y="-110.3" font-family="Helvetica,sans-Serif" font-size="11.00" fill="#000000">作成者名</text>
<polygon fill="none" stroke="#000000" points="77.5,-103.2 77.5,-125.2 161.5,-125.2 161.5,-103.2 77.5,-103.2"/>
<text text-anchor="start" x="80.5" y="-110.9" font-family="Helvetica,sans-Serif" font-size="11.00" fill="#000000">varchar[50]</text>
<polygon fill="none" stroke="#000000" points="10.5,-81.2 10.5,-103.2 77.5,-103.2 77.5,-81.2 10.5,-81.2"/>
<text text-anchor="start" x="30.5" y="-88.3" font-family="Helvetica,sans-Serif" font-size="11.00" fill="#000000">更新日時</text>
<polygon fill="none" stroke="#000000" points="77.5,-81.2 77.5,-103.2 161.5,-103.2 161.5,-81.2 77.5,-81.2"/>
<text text-anchor="start" x="80.3807" y="-88.9" font-family="Helvetica,sans-Serif" font-size="11.00" fill="#000000">timestamp[29,6]</text>
<polygon fill="none" stroke="#000000" points="10.5,-59.2 10.5,-81.2 77.5,-81.2 77.5,-59.2 10.5,-59.2"/>
<text text-anchor="start" x="30.5" y="-66.3" font-family="Helvetica,sans-Serif" font-size="11.00" fill="#000000">更新者名</text>
<polygon fill="none" stroke="#000000" points="77.5,-59.2 77.5,-81.2 161.5,-81.2 161.5,-59.2 77.5,-59.2"/>
<text text-anchor="start" x="80.5" y="-66.9" font-family="Helvetica,sans-Serif" font-size="11.00" fill="#000000">varchar[50]</text>
<polygon fill="#ffffff" stroke="transparent" points="10.5,-40.2 10.5,-59.2 161.5,-59.2 161.5,-40.2 10.5,-40.2"/>
<polygon fill="none" stroke="#000000" points="10.5,-40.2 10.5,-59.2 161.5,-59.2 161.5,-40.2 10.5,-40.2"/>
<polygon fill="#ffffff" stroke="transparent" points="11.5,-41.2 11.5,-58.2 64.5,-58.2 64.5,-41.2 11.5,-41.2"/>
<text text-anchor="start" x="13.5" y="-46.3" font-family="Helvetica,sans-Serif" font-size="11.00" fill="#000000">&lt; 0</text>
<polygon fill="#ffffff" stroke="transparent" points="64.5,-41.2 64.5,-58.2 108.5,-58.2 108.5,-41.2 64.5,-41.2"/>
<text text-anchor="start" x="83.4431" y="-46.3" font-family="Helvetica,sans-Serif" font-size="11.00" fill="#000000"> &#160;</text>
<polygon fill="#ffffff" stroke="transparent" points="108.5,-41.2 108.5,-58.2 160.5,-58.2 160.5,-41.2 108.5,-41.2"/>
<text text-anchor="start" x="142.9053" y="-46.3" font-family="Helvetica,sans-Serif" font-size="11.00" fill="#000000">5 &gt;</text>
<polygon fill="#000000" stroke="#000000" points="64.5,-41.2 64.5,-58.2 64.5,-58.2 64.5,-41.2 64.5,-41.2"/>
<polygon fill="#000000" stroke="#000000" points="108.5,-41.2 108.5,-58.2 108.5,-58.2 108.5,-41.2 108.5,-41.2"/>
<polygon fill="none" stroke="#000000" stroke-width="2" points="9,-39.2 9,-347.2 162,-347.2 162,-39.2 9,-39.2"/>
</a>
</g>
</g>
<!-- 受注&#45;&gt;部門マスタ -->
<g id="edge2" class="edge">
<title>受注:w&#45;&gt;部門マスタ:e</title>
<path fill="none" stroke="#000000" d="M329.1269,-348.1851C319.8695,-339.5382 309.3158,-331.5286 298,-326.2 242.8264,-300.2187 222.4849,-312.2 161.5,-312.2"/>
<polygon fill="#000000" stroke="#000000" points="333.7324,-352.8269 336.8114,-361.0415 336.5497,-355.6664 339.367,-358.5059 339.367,-358.5059 339.367,-358.5059 336.5497,-355.6664 341.9226,-355.9704 333.7324,-352.8269 333.7324,-352.8269"/>
<ellipse fill="none" stroke="#000000" cx="331.4786" cy="-350.5553" rx="3.2" ry="3.2"/>
</g>
<!-- 受注&#45;&gt;部門マスタ -->
<g id="edge3" class="edge">
<title>受注:w&#45;&gt;部門マスタ:e</title>
<path fill="none" stroke="#000000" d="M338.9845,-346.0154C328.1512,-331.2319 314.3263,-316.393 298,-307.2 244.7291,-277.2043 222.6353,-290.2 161.5,-290.2"/>
<polygon fill="#000000" stroke="#000000" points="342.8586,-351.6889 344.3971,-360.3256 345.1144,-354.9922 347.3701,-358.2955 347.3701,-358.2955 347.3701,-358.2955 345.1144,-354.9922 350.343,-356.2654 342.8586,-351.6889 342.8586,-351.6889"/>
<ellipse fill="none" stroke="#000000" cx="341.0541" cy="-349.0462" rx="3.2" ry="3.2"/>
</g>
<!-- 顧客マスタ -->
<g id="node4" class="node">
<title>顧客マスタ</title>
<g id="a_node4"><a xlink:href="../../tables/______8e04fe89.html" xlink:title="顧客マスタ" target="_top">
<polygon fill="#ffffff" stroke="transparent" points="212,-418.7 212,-479.7 290,-479.7 290,-418.7 212,-418.7"/>
<polygon fill="#f5f5f5" stroke="transparent" points="212,-456.2 212,-479.2 290,-479.2 290,-456.2 212,-456.2"/>
<polygon fill="none" stroke="#000000" points="212,-456.2 212,-479.2 290,-479.2 290,-456.2 212,-456.2"/>
<text text-anchor="start" x="200.5892" y="-464.8" font-family="Helvetica,sans-Serif" font-weight="bold" font-size="11.00" fill="#000000">顧客マスタ</text>
<text text-anchor="start" x="255.5219" y="-464.3" font-family="Helvetica,sans-Serif" font-size="11.00" fill="#000000">[table]</text>
<polygon fill="none" stroke="#000000" points="212,-437.2 212,-456.2 290,-456.2 290,-437.2 212,-437.2"/>
<text text-anchor="start" x="215" y="-443.3" font-family="Helvetica,sans-Serif" font-size="11.00" fill="#000000">...</text>
<polygon fill="#ffffff" stroke="transparent" points="212,-418.2 212,-437.2 290,-437.2 290,-418.2 212,-418.2"/>
<polygon fill="none" stroke="#000000" points="212,-418.2 212,-437.2 290,-437.2 290,-418.2 212,-418.2"/>
<polygon fill="#ffffff" stroke="transparent" points="213,-419.2 213,-436.2 242,-436.2 242,-419.2 213,-419.2"/>
<text text-anchor="start" x="215" y="-424.3" font-family="Helvetica,sans-Serif" font-size="11.00" fill="#000000">&lt; 1</text>
<polygon fill="#ffffff" stroke="transparent" points="242,-419.2 242,-436.2 261,-436.2 261,-419.2 242,-419.2"/>
<text text-anchor="start" x="248.4431" y="-424.3" font-family="Helvetica,sans-Serif" font-size="11.00" fill="#000000"> &#160;</text>
<polygon fill="#ffffff" stroke="transparent" points="261,-419.2 261,-436.2 289,-436.2 289,-419.2 261,-419.2"/>
<text text-anchor="start" x="271.4053" y="-424.3" font-family="Helvetica,sans-Serif" font-size="11.00" fill="#000000">2 &gt;</text>
<polygon fill="#000000" stroke="#000000" points="242,-419.2 242,-436.2 242,-436.2 242,-419.2 242,-419.2"/>
<polygon fill="#000000" stroke="#000000" points="261,-419.2 261,-436.2 261,-436.2 261,-419.2 261,-419.2"/>
</a>
</g>
</g>
<!-- 受注&#45;&gt;顧客マスタ -->
<g id="edge4" class="edge">
<title>受注:w&#45;&gt;顧客マスタ:e</title>
<path fill="none" stroke="#000000" d="M319.2213,-434.5605C310.1732,-440.2712 300.285,-444.7015 290,-446.2"/>
<polygon fill="#000000" stroke="#000000" points="324.4912,-430.7899 333.0921,-429.0625 327.7442,-428.4623 330.9973,-426.1347 330.9973,-426.1347 330.9973,-426.1347 327.7442,-428.4623 328.9025,-423.207 324.4912,-430.7899 324.4912,-430.7899"/>
<ellipse fill="none" stroke="#000000" cx="321.8887" cy="-432.652" rx="3.2" ry="3.2"/>
</g>
<!-- 受注&#45;&gt;顧客マスタ -->
<g id="edge5" class="edge">
<title>受注:w&#45;&gt;顧客マスタ:e</title>
<path fill="none" stroke="#000000" d="M328.8172,-436.6096C317.3741,-443.9872 304.0576,-448.5896 290,-446.2"/>
<polygon fill="#000000" stroke="#000000" points="334.0914,-432.575 342.6327,-430.5737 337.2684,-430.1447 340.4454,-427.7144 340.4454,-427.7144 340.4454,-427.7144 337.2684,-430.1447 338.2581,-424.855 334.0914,-432.575 334.0914,-432.575"/>
<ellipse fill="none" stroke="#000000" cx="331.5497" cy="-434.5193" rx="3.2" ry="3.2"/>
</g>
<!-- 社員マスタ&#45;&gt;部門マスタ -->
<g id="edge12" class="edge">
<title>社員マスタ:w&#45;&gt;部門マスタ:e</title>
<path fill="none" stroke="#000000" d="M202.3153,-324.5902C189.8297,-317.3942 175.8479,-312.2 161.5,-312.2"/>
<polygon fill="#000000" stroke="#000000" points="208.0339,-328.3143 212.7732,-335.6967 211.3858,-330.4971 214.7377,-332.68 214.7377,-332.68 214.7377,-332.68 211.3858,-330.4971 216.7023,-329.6633 208.0339,-328.3143 208.0339,-328.3143"/>
<ellipse fill="none" stroke="#000000" cx="205.3524" cy="-326.568" rx="3.2" ry="3.2"/>
</g>
<!-- 取引先マスタ -->
<g id="node7" class="node">
<title>取引先マスタ</title>
<g id="a_node7"><a xlink:href="../../tables/_______70f9c0bb.html" xlink:title="取引先マスタ" target="_top">
<polygon fill="#ffffff" stroke="transparent" points="43,-460.7 43,-521.7 128,-521.7 128,-460.7 43,-460.7"/>
<polygon fill="#f5f5f5" stroke="transparent" points="43.5,-498.2 43.5,-521.2 128.5,-521.2 128.5,-498.2 43.5,-498.2"/>
<polygon fill="none" stroke="#000000" points="43.5,-498.2 43.5,-521.2 128.5,-521.2 128.5,-498.2 43.5,-498.2"/>
<text text-anchor="start" x="34.3644" y="-506.8" font-family="Helvetica,sans-Serif" font-weight="bold" font-size="11.00" fill="#000000">取引先マスタ</text>
<text text-anchor="start" x="94.0219" y="-506.3" font-family="Helvetica,sans-Serif" font-size="11.00" fill="#000000">[table]</text>
<polygon fill="none" stroke="#000000" points="43.5,-479.2 43.5,-498.2 128.5,-498.2 128.5,-479.2 43.5,-479.2"/>
<text text-anchor="start" x="46.5" y="-485.3" font-family="Helvetica,sans-Serif" font-size="11.00" fill="#000000">...</text>
<polygon fill="#ffffff" stroke="transparent" points="43.5,-460.2 43.5,-479.2 128.5,-479.2 128.5,-460.2 43.5,-460.2"/>
<polygon fill="none" stroke="#000000" points="43.5,-460.2 43.5,-479.2 128.5,-479.2 128.5,-460.2 43.5,-460.2"/>
<polygon fill="#ffffff" stroke="transparent" points="44.5,-461.2 44.5,-478.2 75.5,-478.2 75.5,-461.2 44.5,-461.2"/>
<text text-anchor="start" x="46.5" y="-466.3" font-family="Helvetica,sans-Serif" font-size="11.00" fill="#000000">&lt; 1</text>
<polygon fill="#ffffff" stroke="transparent" points="75.5,-461.2 75.5,-478.2 97.5,-478.2 97.5,-461.2 75.5,-461.2"/>
<text text-anchor="start" x="83.4431" y="-466.3" font-family="Helvetica,sans-Serif" font-size="11.00" fill="#000000"> &#160;</text>
<polygon fill="#ffffff" stroke="transparent" points="97.5,-461.2 97.5,-478.2 127.5,-478.2 127.5,-461.2 97.5,-461.2"/>
<text text-anchor="start" x="109.9053" y="-466.3" font-family="Helvetica,sans-Serif" font-size="11.00" fill="#000000">4 &gt;</text>
<polygon fill="#000000" stroke="#000000" points="75.5,-461.2 75.5,-478.2 75.5,-478.2 75.5,-461.2 75.5,-461.2"/>
<polygon fill="#000000" stroke="#000000" points="97.5,-461.2 97.5,-478.2 97.5,-478.2 97.5,-461.2 97.5,-461.2"/>
</a>
</g>
</g>
<!-- 顧客マスタ&#45;&gt;取引先マスタ -->
<g id="edge13" class="edge">
<title>顧客マスタ:w&#45;&gt;取引先マスタ:e</title>
<path fill="none" stroke="#000000" d="M197.4319,-448.2257C169.6224,-456.6154 164.5241,-488.2 128.5,-488.2"/>
<polygon fill="#000000" stroke="#000000" points="204.0762,-447.3019 212.4958,-449.7657 208.0381,-446.7509 212,-446.2 212,-446.2 212,-446.2 208.0381,-446.7509 211.5042,-442.6343 204.0762,-447.3019 204.0762,-447.3019"/>
<ellipse fill="none" stroke="#000000" cx="200.9067" cy="-447.7426" rx="3.2" ry="3.2"/>
</g>
<!-- 受注明細 -->
<g id="node5" class="node">
<title>受注明細</title>
<g id="a_node5"><a xlink:href="../../tables/_____27c23493.html" xlink:title="受注明細" target="_top">
<polygon fill="#ffffff" stroke="transparent" points="442,-365.7 442,-426.7 512,-426.7 512,-365.7 442,-365.7"/>
<polygon fill="#f5f5f5" stroke="transparent" points="442,-403.2 442,-426.2 512,-426.2 512,-403.2 442,-403.2"/>
<polygon fill="none" stroke="#000000" points="442,-403.2 442,-426.2 512,-426.2 512,-403.2 442,-403.2"/>
<text text-anchor="start" x="439.1006" y="-411.8" font-family="Helvetica,sans-Serif" font-weight="bold" font-size="11.00" fill="#000000">受注明細</text>
<text text-anchor="start" x="477.5219" y="-411.3" font-family="Helvetica,sans-Serif" font-size="11.00" fill="#000000">[table]</text>
<polygon fill="none" stroke="#000000" points="442,-384.2 442,-403.2 512,-403.2 512,-384.2 442,-384.2"/>
<text text-anchor="start" x="445" y="-390.3" font-family="Helvetica,sans-Serif" font-size="11.00" fill="#000000">...</text>
<polygon fill="#ffffff" stroke="transparent" points="442,-365.2 442,-384.2 512,-384.2 512,-365.2 442,-365.2"/>
<polygon fill="none" stroke="#000000" points="442,-365.2 442,-384.2 512,-384.2 512,-365.2 442,-365.2"/>
<polygon fill="#ffffff" stroke="transparent" points="443,-366.2 443,-383.2 472,-383.2 472,-366.2 443,-366.2"/>
<text text-anchor="start" x="445" y="-371.3" font-family="Helvetica,sans-Serif" font-size="11.00" fill="#000000">&lt; 2</text>
<polygon fill="#ffffff" stroke="transparent" points="472,-366.2 472,-383.2 492,-383.2 492,-366.2 472,-366.2"/>
<text text-anchor="start" x="478.9431" y="-371.3" font-family="Helvetica,sans-Serif" font-size="11.00" fill="#000000"> &#160;</text>
<polygon fill="#ffffff" stroke="transparent" points="492,-366.2 492,-383.2 511,-383.2 511,-366.2 492,-366.2"/>
<text text-anchor="start" x="502.8862" y="-371.3" font-family="Helvetica,sans-Serif" font-size="11.00" fill="#000000"> &#160;</text>
<polygon fill="#000000" stroke="#000000" points="472,-366.2 472,-383.2 472,-383.2 472,-366.2 472,-366.2"/>
<polygon fill="#000000" stroke="#000000" points="492,-366.2 492,-383.2 492,-383.2 492,-366.2 492,-366.2"/>
</a>
</g>
</g>
<!-- 受注明細&#45;&gt;受注 -->
<g id="edge6" class="edge">
<title>受注明細:w&#45;&gt;受注:e</title>
<path fill="none" stroke="#000000" d="M427.5927,-393.2C418.6014,-393.2 409.5174,-393.2 401.1891,-393.2"/>
<polygon fill="#000000" stroke="#000000" points="434,-393.2001 442,-396.8 438,-393.2 442,-393.2 442,-393.2 442,-393.2 438,-393.2 442,-389.6 434,-393.2001 434,-393.2001"/>
<ellipse fill="none" stroke="#000000" cx="430.8" cy="-393.2001" rx="3.2" ry="3.2"/>
</g>
<!-- 売上 -->
<g id="node6" class="node">
<title>売上</title>
<g id="a_node6"><a xlink:href="../../tables/___b1358.html" xlink:title="売上" target="_top">
<polygon fill="#ffffff" stroke="transparent" points="450,-460.7 450,-521.7 504,-521.7 504,-460.7 450,-460.7"/>
<polygon fill="#f5f5f5" stroke="transparent" points="450,-498.2 450,-521.2 504,-521.2 504,-498.2 450,-498.2"/>
<polygon fill="none" stroke="#000000" points="450,-498.2 450,-521.2 504,-521.2 504,-498.2 450,-498.2"/>
<text text-anchor="start" x="448.5793" y="-506.8" font-family="Helvetica,sans-Serif" font-weight="bold" font-size="11.00" fill="#000000">売上</text>
<text text-anchor="start" x="469.5219" y="-506.3" font-family="Helvetica,sans-Serif" font-size="11.00" fill="#000000">[table]</text>
<polygon fill="none" stroke="#000000" points="450,-479.2 450,-498.2 504,-498.2 504,-479.2 450,-479.2"/>
<text text-anchor="start" x="453" y="-485.3" font-family="Helvetica,sans-Serif" font-size="11.00" fill="#000000">...</text>
<polygon fill="#ffffff" stroke="transparent" points="450,-460.2 450,-479.2 504,-479.2 504,-460.2 450,-460.2"/>
<polygon fill="none" stroke="#000000" points="450,-460.2 450,-479.2 504,-479.2 504,-460.2 450,-460.2"/>
<polygon fill="#ffffff" stroke="transparent" points="451,-461.2 451,-478.2 472,-478.2 472,-461.2 451,-461.2"/>
<text text-anchor="start" x="453" y="-466.3" font-family="Helvetica,sans-Serif" font-size="11.00" fill="#000000">&lt; 4</text>
<polygon fill="#ffffff" stroke="transparent" points="472,-461.2 472,-478.2 483,-478.2 483,-461.2 472,-461.2"/>
<text text-anchor="start" x="474.4431" y="-466.3" font-family="Helvetica,sans-Serif" font-size="11.00" fill="#000000"> &#160;</text>
<polygon fill="#ffffff" stroke="transparent" points="483,-461.2 483,-478.2 503,-478.2 503,-461.2 483,-461.2"/>
<text text-anchor="start" x="485.4053" y="-466.3" font-family="Helvetica,sans-Serif" font-size="11.00" fill="#000000">1 &gt;</text>
<polygon fill="#000000" stroke="#000000" points="472,-461.2 472,-478.2 472,-478.2 472,-461.2 472,-461.2"/>
<polygon fill="#000000" stroke="#000000" points="483,-461.2 483,-478.2 483,-478.2 483,-461.2 483,-461.2"/>
</a>
</g>
</g>
<!-- 売上&#45;&gt;受注 -->
<g id="edge8" class="edge">
<title>売上:w&#45;&gt;受注:e</title>
<path fill="none" stroke="#000000" d="M430.9342,-450.5293C421.0226,-441.7785 410.6974,-432.6626 401.2736,-424.3425"/>
<polygon fill="#000000" stroke="#000000" points="435.8818,-454.8974 439.4963,-462.8909 438.8803,-457.5448 441.8789,-460.1922 441.8789,-460.1922 441.8789,-460.1922 438.8803,-457.5448 444.2616,-457.4935 435.8818,-454.8974 435.8818,-454.8974"/>
<ellipse fill="none" stroke="#000000" cx="433.4829" cy="-452.7795" rx="3.2" ry="3.2"/>
</g>
<!-- 売上&#45;&gt;部門マスタ -->
<g id="edge9" class="edge">
<title>売上:w&#45;&gt;部門マスタ:e</title>
<path fill="none" stroke="#000000" d="M427.4518,-498.0521C358.2441,-506.4715 237.3548,-516.6278 204,-490.2 140.2501,-439.6895 242.8349,-312.2 161.5,-312.2"/>
<polygon fill="#000000" stroke="#000000" points="433.8595,-497.2435 442.2472,-499.8136 437.828,-496.7427 441.7965,-496.2419 441.7965,-496.2419 441.7965,-496.2419 437.828,-496.7427 441.3458,-492.6702 433.8595,-497.2435 433.8595,-497.2435"/>
<ellipse fill="none" stroke="#000000" cx="430.6846" cy="-497.6442" rx="3.2" ry="3.2"/>
</g>
<!-- 売上&#45;&gt;部門マスタ -->
<g id="edge10" class="edge">
<title>売上:w&#45;&gt;部門マスタ:e</title>
<path fill="none" stroke="#000000" d="M438.5169,-444.5633C436.9264,-442.1169 435.4102,-439.6551 434,-437.2 413.8147,-402.0599 426.5511,-383.6549 401,-352.2 366.5678,-309.812 350.3559,-300.7301 298,-285.2 257.9471,-273.3193 245.7062,-282.7551 204,-285.2 185.0134,-286.313 180.5192,-290.2 161.5,-290.2"/>
<polygon fill="#000000" stroke="#000000" points="442.3461,-450.0172 443.9968,-458.6332 444.6446,-453.2909 446.9431,-456.5646 446.9431,-456.5646 446.9431,-456.5646 444.6446,-453.2909 449.8895,-454.4959 442.3461,-450.0172 442.3461,-450.0172"/>
<ellipse fill="none" stroke="#000000" cx="440.5074" cy="-447.3982" rx="3.2" ry="3.2"/>
</g>
<!-- 売上&#45;&gt;取引先マスタ -->
<g id="edge7" class="edge">
<title>売上:w&#45;&gt;取引先マスタ:e</title>
<path fill="none" stroke="#000000" d="M427.9492,-508.3315C419.0818,-510.7699 409.8427,-512.8913 401,-514.2 314.3879,-527.0187 290.3545,-528.6525 204,-514.2 168.9973,-508.3419 163.9895,-488.2 128.5,-488.2"/>
<polygon fill="#000000" stroke="#000000" points="434.2554,-506.451 442.9506,-507.6147 438.0886,-505.3079 441.9218,-504.1649 441.9218,-504.1649 441.9218,-504.1649 438.0886,-505.3079 440.893,-500.715 434.2554,-506.451 434.2554,-506.451"/>
<ellipse fill="none" stroke="#000000" cx="431.1888" cy="-507.3655" rx="3.2" ry="3.2"/>
</g>
<!-- 売上明細 -->
<g id="node8" class="node">
<title>売上明細</title>
<g id="a_node8"><a xlink:href="../../tables/_____29a0763a.html" xlink:title="売上明細" target="_top">
<polygon fill="#ffffff" stroke="transparent" points="561,-463.7 561,-524.7 631,-524.7 631,-463.7 561,-463.7"/>
<polygon fill="#f5f5f5" stroke="transparent" points="561,-501.2 561,-524.2 631,-524.2 631,-501.2 561,-501.2"/>
<polygon fill="none" stroke="#000000" points="561,-501.2 561,-524.2 631,-524.2 631,-501.2 561,-501.2"/>
<text text-anchor="start" x="558.4086" y="-509.8" font-family="Helvetica,sans-Serif" font-weight="bold" font-size="11.00" fill="#000000">売上明細</text>
<text text-anchor="start" x="596.5219" y="-509.3" font-family="Helvetica,sans-Serif" font-size="11.00" fill="#000000">[table]</text>
<polygon fill="none" stroke="#000000" points="561,-482.2 561,-501.2 631,-501.2 631,-482.2 561,-482.2"/>
<text text-anchor="start" x="564" y="-488.3" font-family="Helvetica,sans-Serif" font-size="11.00" fill="#000000">...</text>
<polygon fill="#ffffff" stroke="transparent" points="561,-463.2 561,-482.2 631,-482.2 631,-463.2 561,-463.2"/>
<polygon fill="none" stroke="#000000" points="561,-463.2 561,-482.2 631,-482.2 631,-463.2 561,-463.2"/>
<polygon fill="#ffffff" stroke="transparent" points="562,-464.2 562,-481.2 591,-481.2 591,-464.2 562,-464.2"/>
<text text-anchor="start" x="564" y="-469.3" font-family="Helvetica,sans-Serif" font-size="11.00" fill="#000000">&lt; 2</text>
<polygon fill="#ffffff" stroke="transparent" points="591,-464.2 591,-481.2 611,-481.2 611,-464.2 591,-464.2"/>
<text text-anchor="start" x="597.9431" y="-469.3" font-family="Helvetica,sans-Serif" font-size="11.00" fill="#000000"> &#160;</text>
<polygon fill="#ffffff" stroke="transparent" points="611,-464.2 611,-481.2 630,-481.2 630,-464.2 611,-464.2"/>
<text text-anchor="start" x="621.8862" y="-469.3" font-family="Helvetica,sans-Serif" font-size="11.00" fill="#000000"> &#160;</text>
<polygon fill="#000000" stroke="#000000" points="591,-464.2 591,-481.2 591,-481.2 591,-464.2 591,-464.2"/>
<polygon fill="#000000" stroke="#000000" points="611,-464.2 611,-481.2 611,-481.2 611,-464.2 611,-464.2"/>
</a>
</g>
</g>
<!-- 売上明細&#45;&gt;売上 -->
<g id="edge11" class="edge">
<title>売上明細:w&#45;&gt;売上:e</title>
<path fill="none" stroke="#000000" d="M546.3735,-491.2C534.6501,-491.2 522.7268,-491.2 512.148,-491.2"/>
<polygon fill="#000000" stroke="#000000" points="553,-491.2001 561,-494.8 557,-491.2 561,-491.2 561,-491.2 561,-491.2 557,-491.2 561,-487.6 553,-491.2001 553,-491.2001"/>
<ellipse fill="none" stroke="#000000" cx="549.8" cy="-491.2001" rx="3.2" ry="3.2"/>
</g>
</g>
</svg>
