<?xml version="1.0" encoding="UTF-8" standalone="no"?>
<!DOCTYPE svg PUBLIC "-//W3C//DTD SVG 1.1//EN"
 "http://www.w3.org/Graphics/SVG/1.1/DTD/svg11.dtd">
<!-- Generated by graphviz version 2.40.1 (20161225.0304)
 -->
<!-- Title: oneDegreeRelationshipsDiagram Pages: 1 -->
<svg width="319pt" height="337pt"
 viewBox="0.00 0.00 319.00 336.70" xmlns="http://www.w3.org/2000/svg" xmlns:xlink="http://www.w3.org/1999/xlink">
<g id="graph0" class="graph" transform="scale(1 1) rotate(0) translate(4 332.7)">
<title>oneDegreeRelationshipsDiagram</title>
<polygon fill="#ffffff" stroke="transparent" points="-4,4 -4,-332.7 315,-332.7 315,4 -4,4"/>
<text text-anchor="middle" x="72.4936" y="-7.3" font-family="Helvetica,sans-Serif" font-size="11.00" fill="#000000">Generated by SchemaSpy</text>
<!-- 商品マスタ -->
<g id="node1" class="node">
<title>商品マスタ</title>
<g id="a_node1"><a xlink:href="../../tables/______d8ecb269.html" xlink:title="商品マスタ" target="_top">
<polygon fill="#ffffff" stroke="transparent" points="220,-153.7 220,-324.7 303,-324.7 303,-153.7 220,-153.7"/>
<polygon fill="#f5f5f5" stroke="transparent" points="220.5,-301.2 220.5,-324.2 303.5,-324.2 303.5,-301.2 220.5,-301.2"/>
<polygon fill="none" stroke="#000000" points="220.5,-301.2 220.5,-324.2 303.5,-324.2 303.5,-301.2 220.5,-301.2"/>
<text text-anchor="start" x="216.4213" y="-309.8" font-family="Helvetica,sans-Serif" font-weight="bold" font-size="11.00" fill="#000000">商品マスタ</text>
<text text-anchor="start" x="268.5437" y="-309.3" font-family="Helvetica,sans-Serif" font-size="11.00" fill="#000000">[table]</text>
<polygon fill="none" stroke="#000000" points="220.5,-279.2 220.5,-301.2 303.5,-301.2 303.5,-279.2 220.5,-279.2"/>
<image xlink:href="../../images/primaryKeys.png" width="11px" height="12px" preserveAspectRatio="xMinYMin meet" x="225.5" y="-296.2"/>
<text text-anchor="start" x="239.5547" y="-286.3" font-family="Helvetica,sans-Serif" font-size="11.00" fill="#000000">商品コード</text>
<polygon fill="#ffffff" stroke="transparent" points="220.5,-257.2 220.5,-279.2 303.5,-279.2 303.5,-257.2 220.5,-257.2"/>
<polygon fill="none" stroke="#000000" points="220.5,-257.2 220.5,-279.2 303.5,-279.2 303.5,-257.2 220.5,-257.2"/>
<text text-anchor="start" x="240.5" y="-264.3" font-family="Helvetica,sans-Serif" font-size="11.00" fill="#000000">商品略称</text>
<polygon fill="#ffffff" stroke="transparent" points="220.5,-235.2 220.5,-257.2 303.5,-257.2 303.5,-235.2 220.5,-235.2"/>
<polygon fill="none" stroke="#000000" points="220.5,-235.2 220.5,-257.2 303.5,-257.2 303.5,-235.2 220.5,-235.2"/>
<image xlink:href="../../images/foreignKeys.png" width="11px" height="12px" preserveAspectRatio="xMinYMin meet" x="225.5" y="-252.2"/>
<text text-anchor="start" x="227.3315" y="-242.3" font-family="Helvetica,sans-Serif" font-size="11.00" fill="#000000">商品分類コード</text>
<polygon fill="#ffffff" stroke="transparent" points="220.5,-213.2 220.5,-235.2 303.5,-235.2 303.5,-213.2 220.5,-213.2"/>
<polygon fill="none" stroke="#000000" points="220.5,-213.2 220.5,-235.2 303.5,-235.2 303.5,-213.2 220.5,-213.2"/>
<text text-anchor="start" x="231.9114" y="-220.3" font-family="Helvetica,sans-Serif" font-size="11.00" fill="#000000">仕入先コード</text>
<polygon fill="#ffffff" stroke="transparent" points="220.5,-191.2 220.5,-213.2 303.5,-213.2 303.5,-191.2 220.5,-191.2"/>
<polygon fill="none" stroke="#000000" points="220.5,-191.2 220.5,-213.2 303.5,-213.2 303.5,-191.2 220.5,-191.2"/>
<text text-anchor="start" x="240.5" y="-198.3" font-family="Helvetica,sans-Serif" font-size="11.00" fill="#000000">仕入先枝番</text>
<polygon fill="none" stroke="#000000" points="220.5,-172.2 220.5,-191.2 303.5,-191.2 303.5,-172.2 220.5,-172.2"/>
<text text-anchor="start" x="223.5" y="-178.3" font-family="Helvetica,sans-Serif" font-size="11.00" fill="#000000">...</text>
<polygon fill="#ffffff" stroke="transparent" points="220.5,-153.2 220.5,-172.2 303.5,-172.2 303.5,-153.2 220.5,-153.2"/>
<polygon fill="none" stroke="#000000" points="220.5,-153.2 220.5,-172.2 303.5,-172.2 303.5,-153.2 220.5,-153.2"/>
<polygon fill="#ffffff" stroke="transparent" points="221.5,-154.2 221.5,-171.2 251.5,-171.2 251.5,-154.2 221.5,-154.2"/>
<text text-anchor="start" x="223.5" y="-159.3" font-family="Helvetica,sans-Serif" font-size="11.00" fill="#000000">&lt; 1</text>
<polygon fill="#ffffff" stroke="transparent" points="251.5,-154.2 251.5,-171.2 272.5,-171.2 272.5,-154.2 251.5,-154.2"/>
<text text-anchor="start" x="258.9431" y="-159.3" font-family="Helvetica,sans-Serif" font-size="11.00" fill="#000000"> &#160;</text>
<polygon fill="#ffffff" stroke="transparent" points="272.5,-154.2 272.5,-171.2 302.5,-171.2 302.5,-154.2 272.5,-154.2"/>
<text text-anchor="start" x="284.9053" y="-159.3" font-family="Helvetica,sans-Serif" font-size="11.00" fill="#000000">6 &gt;</text>
<polygon fill="#000000" stroke="#000000" points="251.5,-154.2 251.5,-171.2 251.5,-171.2 251.5,-154.2 251.5,-154.2"/>
<polygon fill="#000000" stroke="#000000" points="272.5,-154.2 272.5,-171.2 272.5,-171.2 272.5,-154.2 272.5,-154.2"/>
</a>
</g>
</g>
<!-- 商品分類マスタ -->
<g id="node2" class="node">
<title>商品分類マスタ</title>
<g id="a_node2"><a xlink:href="../../tables/________52e8cf11.html" xlink:title="商品分類マスタ" target="_top">
<polygon fill="#ffffff" stroke="transparent" points="8,-38.2 8,-282.2 171,-282.2 171,-38.2 8,-38.2"/>
<polygon fill="#f5f5f5" stroke="transparent" points="10.5,-257.2 10.5,-280.2 169.5,-280.2 169.5,-257.2 10.5,-257.2"/>
<polygon fill="none" stroke="#000000" points="10.5,-257.2 10.5,-280.2 169.5,-280.2 169.5,-257.2 10.5,-257.2"/>
<text text-anchor="start" x="1.6981" y="-265.8" font-family="Helvetica,sans-Serif" font-weight="bold" font-size="11.00" fill="#000000">商品分類マスタ</text>
<text text-anchor="start" x="134.5437" y="-265.3" font-family="Helvetica,sans-Serif" font-size="11.00" fill="#000000">[table]</text>
<polygon fill="none" stroke="#000000" points="10.5,-235.2 10.5,-257.2 85.5,-257.2 85.5,-235.2 10.5,-235.2"/>
<image xlink:href="../../images/primaryKeys.png" width="11px" height="12px" preserveAspectRatio="xMinYMin meet" x="15.5" y="-252.2"/>
<text text-anchor="start" x="13.3315" y="-242.3" font-family="Helvetica,sans-Serif" font-size="11.00" fill="#000000">商品分類コード</text>
<polygon fill="none" stroke="#000000" points="85.5,-235.2 85.5,-257.2 169.5,-257.2 169.5,-235.2 85.5,-235.2"/>
<text text-anchor="start" x="88.5" y="-242.9" font-family="Helvetica,sans-Serif" font-size="11.00" fill="#000000">varchar[8]</text>
<polygon fill="none" stroke="#000000" points="10.5,-213.2 10.5,-235.2 85.5,-235.2 85.5,-213.2 10.5,-213.2"/>
<text text-anchor="start" x="29.5208" y="-220.3" font-family="Helvetica,sans-Serif" font-size="11.00" fill="#000000">商品分類名</text>
<polygon fill="none" stroke="#000000" points="85.5,-213.2 85.5,-235.2 169.5,-235.2 169.5,-213.2 85.5,-213.2"/>
<text text-anchor="start" x="88.5" y="-220.9" font-family="Helvetica,sans-Serif" font-size="11.00" fill="#000000">varchar[30]</text>
<polygon fill="#ffffff" stroke="transparent" points="10.5,-191.2 10.5,-213.2 85.5,-213.2 85.5,-191.2 10.5,-191.2"/>
<polygon fill="none" stroke="#000000" points="10.5,-191.2 10.5,-213.2 85.5,-213.2 85.5,-191.2 10.5,-191.2"/>
<text text-anchor="start" x="21.2669" y="-198.3" font-family="Helvetica,sans-Serif" font-size="11.00" fill="#000000">商品分類階層</text>
<polygon fill="none" stroke="#000000" points="85.5,-191.2 85.5,-213.2 169.5,-213.2 169.5,-191.2 85.5,-191.2"/>
<text text-anchor="start" x="88.5" y="-198.9" font-family="Helvetica,sans-Serif" font-size="11.00" fill="#000000">int4[10]</text>
<polygon fill="#ffffff" stroke="transparent" points="10.5,-169.2 10.5,-191.2 85.5,-191.2 85.5,-169.2 10.5,-169.2"/>
<polygon fill="none" stroke="#000000" points="10.5,-169.2 10.5,-191.2 85.5,-191.2 85.5,-169.2 10.5,-169.2"/>
<text text-anchor="start" x="23.6209" y="-176.3" font-family="Helvetica,sans-Serif" font-size="11.00" fill="#000000">商品分類パス</text>
<polygon fill="none" stroke="#000000" points="85.5,-169.2 85.5,-191.2 169.5,-191.2 169.5,-169.2 85.5,-169.2"/>
<text text-anchor="start" x="88.5" y="-176.9" font-family="Helvetica,sans-Serif" font-size="11.00" fill="#000000">varchar[100]</text>
<polygon fill="none" stroke="#000000" points="10.5,-147.2 10.5,-169.2 85.5,-169.2 85.5,-147.2 10.5,-147.2"/>
<text text-anchor="start" x="30.5" y="-154.3" font-family="Helvetica,sans-Serif" font-size="11.00" fill="#000000">最下層区分</text>
<polygon fill="none" stroke="#000000" points="85.5,-147.2 85.5,-169.2 169.5,-169.2 169.5,-147.2 85.5,-147.2"/>
<text text-anchor="start" x="88.5" y="-154.9" font-family="Helvetica,sans-Serif" font-size="11.00" fill="#000000">int4[10]</text>
<polygon fill="none" stroke="#000000" points="10.5,-125.2 10.5,-147.2 85.5,-147.2 85.5,-125.2 10.5,-125.2"/>
<text text-anchor="start" x="30.5" y="-132.3" font-family="Helvetica,sans-Serif" font-size="11.00" fill="#000000">作成日時</text>
<polygon fill="none" stroke="#000000" points="85.5,-125.2 85.5,-147.2 169.5,-147.2 169.5,-125.2 85.5,-125.2"/>
<text text-anchor="start" x="88.3807" y="-132.9" font-family="Helvetica,sans-Serif" font-size="11.00" fill="#000000">timestamp[29,6]</text>
<polygon fill="none" stroke="#000000" points="10.5,-103.2 10.5,-125.2 85.5,-125.2 85.5,-103.2 10.5,-103.2"/>
<text text-anchor="start" x="30.5" y="-110.3" font-family="Helvetica,sans-Serif" font-size="11.00" fill="#000000">作成者名</text>
<polygon fill="none" stroke="#000000" points="85.5,-103.2 85.5,-125.2 169.5,-125.2 169.5,-103.2 85.5,-103.2"/>
<text text-anchor="start" x="88.5" y="-110.9" font-family="Helvetica,sans-Serif" font-size="11.00" fill="#000000">varchar[12]</text>
<polygon fill="none" stroke="#000000" points="10.5,-81.2 10.5,-103.2 85.5,-103.2 85.5,-81.2 10.5,-81.2"/>
<text text-anchor="start" x="30.5" y="-88.3" font-family="Helvetica,sans-Serif" font-size="11.00" fill="#000000">更新日時</text>
<polygon fill="none" stroke="#000000" points="85.5,-81.2 85.5,-103.2 169.5,-103.2 169.5,-81.2 85.5,-81.2"/>
<text text-anchor="start" x="88.3807" y="-88.9" font-family="Helvetica,sans-Serif" font-size="11.00" fill="#000000">timestamp[29,6]</text>
<polygon fill="none" stroke="#000000" points="10.5,-59.2 10.5,-81.2 85.5,-81.2 85.5,-59.2 10.5,-59.2"/>
<text text-anchor="start" x="30.5" y="-66.3" font-family="Helvetica,sans-Serif" font-size="11.00" fill="#000000">更新者名</text>
<polygon fill="none" stroke="#000000" points="85.5,-59.2 85.5,-81.2 169.5,-81.2 169.5,-59.2 85.5,-59.2"/>
<text text-anchor="start" x="88.5" y="-66.9" font-family="Helvetica,sans-Serif" font-size="11.00" fill="#000000">varchar[12]</text>
<polygon fill="#ffffff" stroke="transparent" points="10.5,-40.2 10.5,-59.2 169.5,-59.2 169.5,-40.2 10.5,-40.2"/>
<polygon fill="none" stroke="#000000" points="10.5,-40.2 10.5,-59.2 169.5,-59.2 169.5,-40.2 10.5,-40.2"/>
<polygon fill="#ffffff" stroke="transparent" points="11.5,-41.2 11.5,-58.2 67.5,-58.2 67.5,-41.2 11.5,-41.2"/>
<text text-anchor="start" x="13.5" y="-46.3" font-family="Helvetica,sans-Serif" font-size="11.00" fill="#000000">&lt; 0</text>
<polygon fill="#ffffff" stroke="transparent" points="67.5,-41.2 67.5,-58.2 113.5,-58.2 113.5,-41.2 67.5,-41.2"/>
<text text-anchor="start" x="87.4431" y="-46.3" font-family="Helvetica,sans-Serif" font-size="11.00" fill="#000000"> &#160;</text>
<polygon fill="#ffffff" stroke="transparent" points="113.5,-41.2 113.5,-58.2 168.5,-58.2 168.5,-41.2 113.5,-41.2"/>
<text text-anchor="start" x="150.9053" y="-46.3" font-family="Helvetica,sans-Serif" font-size="11.00" fill="#000000">1 &gt;</text>
<polygon fill="#000000" stroke="#000000" points="67.5,-41.2 67.5,-58.2 67.5,-58.2 67.5,-41.2 67.5,-41.2"/>
<polygon fill="#000000" stroke="#000000" points="113.5,-41.2 113.5,-58.2 113.5,-58.2 113.5,-41.2 113.5,-41.2"/>
<polygon fill="none" stroke="#000000" stroke-width="2" points="9,-39.2 9,-281.2 170,-281.2 170,-39.2 9,-39.2"/>
</a>
</g>
</g>
<!-- 商品マスタ&#45;&gt;商品分類マスタ -->
<g id="edge1" class="edge">
<title>商品マスタ:w&#45;&gt;商品分類マスタ:e</title>
<path fill="none" stroke="#000000" d="M205.776,-246.2C193.7815,-246.2 186.3229,-246.2 169.5,-246.2"/>
<polygon fill="#000000" stroke="#000000" points="212.5,-246.2001 220.5,-249.8 216.5,-246.2 220.5,-246.2 220.5,-246.2 220.5,-246.2 216.5,-246.2 220.5,-242.6 212.5,-246.2001 212.5,-246.2001"/>
<ellipse fill="none" stroke="#000000" cx="209.3" cy="-246.2001" rx="3.2" ry="3.2"/>
</g>
</g>
</svg>
