<?xml version="1.0" encoding="UTF-8" standalone="no"?>
<!DOCTYPE svg PUBLIC "-//W3C//DTD SVG 1.1//EN"
 "http://www.w3.org/Graphics/SVG/1.1/DTD/svg11.dtd">
<!-- Generated by graphviz version 2.40.1 (20161225.0304)
 -->
<!-- Title: twoDegreesRelationshipsDiagram Pages: 1 -->
<svg width="461pt" height="459pt"
 viewBox="0.00 0.00 461.00 458.70" xmlns="http://www.w3.org/2000/svg" xmlns:xlink="http://www.w3.org/1999/xlink">
<g id="graph0" class="graph" transform="scale(1 1) rotate(0) translate(4 454.7)">
<title>twoDegreesRelationshipsDiagram</title>
<polygon fill="#ffffff" stroke="transparent" points="-4,4 -4,-454.7 457,-454.7 457,4 -4,4"/>
<text text-anchor="middle" x="72.4936" y="-7.3" font-family="Helvetica,sans-Serif" font-size="11.00" fill="#000000">Generated by SchemaSpy</text>
<!-- 代替商品 -->
<g id="node1" class="node">
<title>代替商品</title>
<g id="a_node1"><a xlink:href="../../tables/_____25696db7.html" xlink:title="代替商品" target="_top">
<polygon fill="#ffffff" stroke="transparent" points="363.5,-385.7 363.5,-446.7 433.5,-446.7 433.5,-385.7 363.5,-385.7"/>
<polygon fill="#f5f5f5" stroke="transparent" points="363.5,-423.2 363.5,-446.2 433.5,-446.2 433.5,-423.2 363.5,-423.2"/>
<polygon fill="none" stroke="#000000" points="363.5,-423.2 363.5,-446.2 433.5,-446.2 433.5,-423.2 363.5,-423.2"/>
<text text-anchor="start" x="358.7691" y="-431.8" font-family="Helvetica,sans-Serif" font-weight="bold" font-size="11.00" fill="#000000">代替商品</text>
<text text-anchor="start" x="399.0219" y="-431.3" font-family="Helvetica,sans-Serif" font-size="11.00" fill="#000000">[table]</text>
<polygon fill="none" stroke="#000000" points="363.5,-404.2 363.5,-423.2 433.5,-423.2 433.5,-404.2 363.5,-404.2"/>
<text text-anchor="start" x="366.5" y="-410.3" font-family="Helvetica,sans-Serif" font-size="11.00" fill="#000000">...</text>
<polygon fill="#ffffff" stroke="transparent" points="363.5,-385.2 363.5,-404.2 433.5,-404.2 433.5,-385.2 363.5,-385.2"/>
<polygon fill="none" stroke="#000000" points="363.5,-385.2 363.5,-404.2 433.5,-404.2 433.5,-385.2 363.5,-385.2"/>
<polygon fill="#ffffff" stroke="transparent" points="364.5,-386.2 364.5,-403.2 393.5,-403.2 393.5,-386.2 364.5,-386.2"/>
<text text-anchor="start" x="366.5" y="-391.3" font-family="Helvetica,sans-Serif" font-size="11.00" fill="#000000">&lt; 2</text>
<polygon fill="#ffffff" stroke="transparent" points="393.5,-386.2 393.5,-403.2 413.5,-403.2 413.5,-386.2 393.5,-386.2"/>
<text text-anchor="start" x="400.4431" y="-391.3" font-family="Helvetica,sans-Serif" font-size="11.00" fill="#000000"> &#160;</text>
<polygon fill="#ffffff" stroke="transparent" points="413.5,-386.2 413.5,-403.2 432.5,-403.2 432.5,-386.2 413.5,-386.2"/>
<text text-anchor="start" x="424.3862" y="-391.3" font-family="Helvetica,sans-Serif" font-size="11.00" fill="#000000"> &#160;</text>
<polygon fill="#000000" stroke="#000000" points="393.5,-386.2 393.5,-403.2 393.5,-403.2 393.5,-386.2 393.5,-386.2"/>
<polygon fill="#000000" stroke="#000000" points="413.5,-386.2 413.5,-403.2 413.5,-403.2 413.5,-386.2 413.5,-386.2"/>
</a>
</g>
</g>
<!-- 商品マスタ -->
<g id="node2" class="node">
<title>商品マスタ</title>
<g id="a_node2"><a xlink:href="../../tables/______d8ecb269.html" xlink:title="商品マスタ" target="_top">
<polygon fill="#ffffff" stroke="transparent" points="220,-153.7 220,-324.7 303,-324.7 303,-153.7 220,-153.7"/>
<polygon fill="#f5f5f5" stroke="transparent" points="220.5,-301.2 220.5,-324.2 303.5,-324.2 303.5,-301.2 220.5,-301.2"/>
<polygon fill="none" stroke="#000000" points="220.5,-301.2 220.5,-324.2 303.5,-324.2 303.5,-301.2 220.5,-301.2"/>
<text text-anchor="start" x="216.4213" y="-309.8" font-family="Helvetica,sans-Serif" font-weight="bold" font-size="11.00" fill="#000000">商品マスタ</text>
<text text-anchor="start" x="268.5437" y="-309.3" font-family="Helvetica,sans-Serif" font-size="11.00" fill="#000000">[table]</text>
<polygon fill="none" stroke="#000000" points="220.5,-279.2 220.5,-301.2 303.5,-301.2 303.5,-279.2 220.5,-279.2"/>
<image xlink:href="../../images/primaryKeys.png" width="11px" height="12px" preserveAspectRatio="xMinYMin meet" x="225.5" y="-296.2"/>
<text text-anchor="start" x="239.5547" y="-286.3" font-family="Helvetica,sans-Serif" font-size="11.00" fill="#000000">商品コード</text>
<polygon fill="#ffffff" stroke="transparent" points="220.5,-257.2 220.5,-279.2 303.5,-279.2 303.5,-257.2 220.5,-257.2"/>
<polygon fill="none" stroke="#000000" points="220.5,-257.2 220.5,-279.2 303.5,-279.2 303.5,-257.2 220.5,-257.2"/>
<text text-anchor="start" x="240.5" y="-264.3" font-family="Helvetica,sans-Serif" font-size="11.00" fill="#000000">商品略称</text>
<polygon fill="#ffffff" stroke="transparent" points="220.5,-235.2 220.5,-257.2 303.5,-257.2 303.5,-235.2 220.5,-235.2"/>
<polygon fill="none" stroke="#000000" points="220.5,-235.2 220.5,-257.2 303.5,-257.2 303.5,-235.2 220.5,-235.2"/>
<image xlink:href="../../images/foreignKeys.png" width="11px" height="12px" preserveAspectRatio="xMinYMin meet" x="225.5" y="-252.2"/>
<text text-anchor="start" x="227.3315" y="-242.3" font-family="Helvetica,sans-Serif" font-size="11.00" fill="#000000">商品分類コード</text>
<polygon fill="#ffffff" stroke="transparent" points="220.5,-213.2 220.5,-235.2 303.5,-235.2 303.5,-213.2 220.5,-213.2"/>
<polygon fill="none" stroke="#000000" points="220.5,-213.2 220.5,-235.2 303.5,-235.2 303.5,-213.2 220.5,-213.2"/>
<text text-anchor="start" x="231.9114" y="-220.3" font-family="Helvetica,sans-Serif" font-size="11.00" fill="#000000">仕入先コード</text>
<polygon fill="#ffffff" stroke="transparent" points="220.5,-191.2 220.5,-213.2 303.5,-213.2 303.5,-191.2 220.5,-191.2"/>
<polygon fill="none" stroke="#000000" points="220.5,-191.2 220.5,-213.2 303.5,-213.2 303.5,-191.2 220.5,-191.2"/>
<text text-anchor="start" x="240.5" y="-198.3" font-family="Helvetica,sans-Serif" font-size="11.00" fill="#000000">仕入先枝番</text>
<polygon fill="none" stroke="#000000" points="220.5,-172.2 220.5,-191.2 303.5,-191.2 303.5,-172.2 220.5,-172.2"/>
<text text-anchor="start" x="223.5" y="-178.3" font-family="Helvetica,sans-Serif" font-size="11.00" fill="#000000">...</text>
<polygon fill="#ffffff" stroke="transparent" points="220.5,-153.2 220.5,-172.2 303.5,-172.2 303.5,-153.2 220.5,-153.2"/>
<polygon fill="none" stroke="#000000" points="220.5,-153.2 220.5,-172.2 303.5,-172.2 303.5,-153.2 220.5,-153.2"/>
<polygon fill="#ffffff" stroke="transparent" points="221.5,-154.2 221.5,-171.2 251.5,-171.2 251.5,-154.2 221.5,-154.2"/>
<text text-anchor="start" x="223.5" y="-159.3" font-family="Helvetica,sans-Serif" font-size="11.00" fill="#000000">&lt; 1</text>
<polygon fill="#ffffff" stroke="transparent" points="251.5,-154.2 251.5,-171.2 272.5,-171.2 272.5,-154.2 251.5,-154.2"/>
<text text-anchor="start" x="258.9431" y="-159.3" font-family="Helvetica,sans-Serif" font-size="11.00" fill="#000000"> &#160;</text>
<polygon fill="#ffffff" stroke="transparent" points="272.5,-154.2 272.5,-171.2 302.5,-171.2 302.5,-154.2 272.5,-154.2"/>
<text text-anchor="start" x="284.9053" y="-159.3" font-family="Helvetica,sans-Serif" font-size="11.00" fill="#000000">6 &gt;</text>
<polygon fill="#000000" stroke="#000000" points="251.5,-154.2 251.5,-171.2 251.5,-171.2 251.5,-154.2 251.5,-154.2"/>
<polygon fill="#000000" stroke="#000000" points="272.5,-154.2 272.5,-171.2 272.5,-171.2 272.5,-154.2 272.5,-154.2"/>
</a>
</g>
</g>
<!-- 代替商品&#45;&gt;商品マスタ -->
<g id="edge1" class="edge">
<title>代替商品:w&#45;&gt;商品マスタ:e</title>
<path fill="none" stroke="#000000" d="M349.4207,-408.6302C313.1586,-385.2713 358.6217,-284.7625 303.5,-290.2"/>
<polygon fill="#000000" stroke="#000000" points="355.8908,-410.7302 362.3886,-416.6242 359.6954,-411.9651 363.5,-413.2 363.5,-413.2 363.5,-413.2 359.6954,-411.9651 364.6114,-409.7758 355.8908,-410.7302 355.8908,-410.7302"/>
<ellipse fill="none" stroke="#000000" cx="352.8471" cy="-409.7423" rx="3.2" ry="3.2"/>
</g>
<!-- 代替商品&#45;&gt;商品マスタ -->
<g id="edge2" class="edge">
<title>代替商品:w&#45;&gt;商品マスタ:e</title>
<path fill="none" stroke="#000000" d="M348.9563,-411.7606C313.5487,-397.2828 358.3841,-296.5164 303.5,-290.2"/>
<polygon fill="#000000" stroke="#000000" points="355.5389,-412.412 363.1454,-416.7825 359.5194,-412.806 363.5,-413.2 363.5,-413.2 363.5,-413.2 359.5194,-412.806 363.8546,-409.6175 355.5389,-412.412 355.5389,-412.412"/>
<ellipse fill="none" stroke="#000000" cx="352.3545" cy="-412.0968" rx="3.2" ry="3.2"/>
</g>
<!-- 商品分類マスタ -->
<g id="node4" class="node">
<title>商品分類マスタ</title>
<g id="a_node4"><a xlink:href="../../tables/________52e8cf11.html" xlink:title="商品分類マスタ" target="_top">
<polygon fill="#ffffff" stroke="transparent" points="8,-38.2 8,-282.2 171,-282.2 171,-38.2 8,-38.2"/>
<polygon fill="#f5f5f5" stroke="transparent" points="10.5,-257.2 10.5,-280.2 169.5,-280.2 169.5,-257.2 10.5,-257.2"/>
<polygon fill="none" stroke="#000000" points="10.5,-257.2 10.5,-280.2 169.5,-280.2 169.5,-257.2 10.5,-257.2"/>
<text text-anchor="start" x="1.6981" y="-265.8" font-family="Helvetica,sans-Serif" font-weight="bold" font-size="11.00" fill="#000000">商品分類マスタ</text>
<text text-anchor="start" x="134.5437" y="-265.3" font-family="Helvetica,sans-Serif" font-size="11.00" fill="#000000">[table]</text>
<polygon fill="none" stroke="#000000" points="10.5,-235.2 10.5,-257.2 85.5,-257.2 85.5,-235.2 10.5,-235.2"/>
<image xlink:href="../../images/primaryKeys.png" width="11px" height="12px" preserveAspectRatio="xMinYMin meet" x="15.5" y="-252.2"/>
<text text-anchor="start" x="13.3315" y="-242.3" font-family="Helvetica,sans-Serif" font-size="11.00" fill="#000000">商品分類コード</text>
<polygon fill="none" stroke="#000000" points="85.5,-235.2 85.5,-257.2 169.5,-257.2 169.5,-235.2 85.5,-235.2"/>
<text text-anchor="start" x="88.5" y="-242.9" font-family="Helvetica,sans-Serif" font-size="11.00" fill="#000000">varchar[8]</text>
<polygon fill="none" stroke="#000000" points="10.5,-213.2 10.5,-235.2 85.5,-235.2 85.5,-213.2 10.5,-213.2"/>
<text text-anchor="start" x="29.5208" y="-220.3" font-family="Helvetica,sans-Serif" font-size="11.00" fill="#000000">商品分類名</text>
<polygon fill="none" stroke="#000000" points="85.5,-213.2 85.5,-235.2 169.5,-235.2 169.5,-213.2 85.5,-213.2"/>
<text text-anchor="start" x="88.5" y="-220.9" font-family="Helvetica,sans-Serif" font-size="11.00" fill="#000000">varchar[30]</text>
<polygon fill="#ffffff" stroke="transparent" points="10.5,-191.2 10.5,-213.2 85.5,-213.2 85.5,-191.2 10.5,-191.2"/>
<polygon fill="none" stroke="#000000" points="10.5,-191.2 10.5,-213.2 85.5,-213.2 85.5,-191.2 10.5,-191.2"/>
<text text-anchor="start" x="21.2669" y="-198.3" font-family="Helvetica,sans-Serif" font-size="11.00" fill="#000000">商品分類階層</text>
<polygon fill="none" stroke="#000000" points="85.5,-191.2 85.5,-213.2 169.5,-213.2 169.5,-191.2 85.5,-191.2"/>
<text text-anchor="start" x="88.5" y="-198.9" font-family="Helvetica,sans-Serif" font-size="11.00" fill="#000000">int4[10]</text>
<polygon fill="#ffffff" stroke="transparent" points="10.5,-169.2 10.5,-191.2 85.5,-191.2 85.5,-169.2 10.5,-169.2"/>
<polygon fill="none" stroke="#000000" points="10.5,-169.2 10.5,-191.2 85.5,-191.2 85.5,-169.2 10.5,-169.2"/>
<text text-anchor="start" x="23.6209" y="-176.3" font-family="Helvetica,sans-Serif" font-size="11.00" fill="#000000">商品分類パス</text>
<polygon fill="none" stroke="#000000" points="85.5,-169.2 85.5,-191.2 169.5,-191.2 169.5,-169.2 85.5,-169.2"/>
<text text-anchor="start" x="88.5" y="-176.9" font-family="Helvetica,sans-Serif" font-size="11.00" fill="#000000">varchar[100]</text>
<polygon fill="none" stroke="#000000" points="10.5,-147.2 10.5,-169.2 85.5,-169.2 85.5,-147.2 10.5,-147.2"/>
<text text-anchor="start" x="30.5" y="-154.3" font-family="Helvetica,sans-Serif" font-size="11.00" fill="#000000">最下層区分</text>
<polygon fill="none" stroke="#000000" points="85.5,-147.2 85.5,-169.2 169.5,-169.2 169.5,-147.2 85.5,-147.2"/>
<text text-anchor="start" x="88.5" y="-154.9" font-family="Helvetica,sans-Serif" font-size="11.00" fill="#000000">int4[10]</text>
<polygon fill="none" stroke="#000000" points="10.5,-125.2 10.5,-147.2 85.5,-147.2 85.5,-125.2 10.5,-125.2"/>
<text text-anchor="start" x="30.5" y="-132.3" font-family="Helvetica,sans-Serif" font-size="11.00" fill="#000000">作成日時</text>
<polygon fill="none" stroke="#000000" points="85.5,-125.2 85.5,-147.2 169.5,-147.2 169.5,-125.2 85.5,-125.2"/>
<text text-anchor="start" x="88.3807" y="-132.9" font-family="Helvetica,sans-Serif" font-size="11.00" fill="#000000">timestamp[29,6]</text>
<polygon fill="none" stroke="#000000" points="10.5,-103.2 10.5,-125.2 85.5,-125.2 85.5,-103.2 10.5,-103.2"/>
<text text-anchor="start" x="30.5" y="-110.3" font-family="Helvetica,sans-Serif" font-size="11.00" fill="#000000">作成者名</text>
<polygon fill="none" stroke="#000000" points="85.5,-103.2 85.5,-125.2 169.5,-125.2 169.5,-103.2 85.5,-103.2"/>
<text text-anchor="start" x="88.5" y="-110.9" font-family="Helvetica,sans-Serif" font-size="11.00" fill="#000000">varchar[12]</text>
<polygon fill="none" stroke="#000000" points="10.5,-81.2 10.5,-103.2 85.5,-103.2 85.5,-81.2 10.5,-81.2"/>
<text text-anchor="start" x="30.5" y="-88.3" font-family="Helvetica,sans-Serif" font-size="11.00" fill="#000000">更新日時</text>
<polygon fill="none" stroke="#000000" points="85.5,-81.2 85.5,-103.2 169.5,-103.2 169.5,-81.2 85.5,-81.2"/>
<text text-anchor="start" x="88.3807" y="-88.9" font-family="Helvetica,sans-Serif" font-size="11.00" fill="#000000">timestamp[29,6]</text>
<polygon fill="none" stroke="#000000" points="10.5,-59.2 10.5,-81.2 85.5,-81.2 85.5,-59.2 10.5,-59.2"/>
<text text-anchor="start" x="30.5" y="-66.3" font-family="Helvetica,sans-Serif" font-size="11.00" fill="#000000">更新者名</text>
<polygon fill="none" stroke="#000000" points="85.5,-59.2 85.5,-81.2 169.5,-81.2 169.5,-59.2 85.5,-59.2"/>
<text text-anchor="start" x="88.5" y="-66.9" font-family="Helvetica,sans-Serif" font-size="11.00" fill="#000000">varchar[12]</text>
<polygon fill="#ffffff" stroke="transparent" points="10.5,-40.2 10.5,-59.2 169.5,-59.2 169.5,-40.2 10.5,-40.2"/>
<polygon fill="none" stroke="#000000" points="10.5,-40.2 10.5,-59.2 169.5,-59.2 169.5,-40.2 10.5,-40.2"/>
<polygon fill="#ffffff" stroke="transparent" points="11.5,-41.2 11.5,-58.2 67.5,-58.2 67.5,-41.2 11.5,-41.2"/>
<text text-anchor="start" x="13.5" y="-46.3" font-family="Helvetica,sans-Serif" font-size="11.00" fill="#000000">&lt; 0</text>
<polygon fill="#ffffff" stroke="transparent" points="67.5,-41.2 67.5,-58.2 113.5,-58.2 113.5,-41.2 67.5,-41.2"/>
<text text-anchor="start" x="87.4431" y="-46.3" font-family="Helvetica,sans-Serif" font-size="11.00" fill="#000000"> &#160;</text>
<polygon fill="#ffffff" stroke="transparent" points="113.5,-41.2 113.5,-58.2 168.5,-58.2 168.5,-41.2 113.5,-41.2"/>
<text text-anchor="start" x="150.9053" y="-46.3" font-family="Helvetica,sans-Serif" font-size="11.00" fill="#000000">1 &gt;</text>
<polygon fill="#000000" stroke="#000000" points="67.5,-41.2 67.5,-58.2 67.5,-58.2 67.5,-41.2 67.5,-41.2"/>
<polygon fill="#000000" stroke="#000000" points="113.5,-41.2 113.5,-58.2 113.5,-58.2 113.5,-41.2 113.5,-41.2"/>
<polygon fill="none" stroke="#000000" stroke-width="2" points="9,-39.2 9,-281.2 170,-281.2 170,-39.2 9,-39.2"/>
</a>
</g>
</g>
<!-- 商品マスタ&#45;&gt;商品分類マスタ -->
<g id="edge4" class="edge">
<title>商品マスタ:w&#45;&gt;商品分類マスタ:e</title>
<path fill="none" stroke="#000000" d="M205.776,-246.2C193.7815,-246.2 186.3229,-246.2 169.5,-246.2"/>
<polygon fill="#000000" stroke="#000000" points="212.5,-246.2001 220.5,-249.8 216.5,-246.2 220.5,-246.2 220.5,-246.2 220.5,-246.2 216.5,-246.2 220.5,-242.6 212.5,-246.2001 212.5,-246.2001"/>
<ellipse fill="none" stroke="#000000" cx="209.3" cy="-246.2001" rx="3.2" ry="3.2"/>
</g>
<!-- 受注明細 -->
<g id="node3" class="node">
<title>受注明細</title>
<g id="a_node3"><a xlink:href="../../tables/_____27c23493.html" xlink:title="受注明細" target="_top">
<polygon fill="#ffffff" stroke="transparent" points="363.5,-303.7 363.5,-364.7 433.5,-364.7 433.5,-303.7 363.5,-303.7"/>
<polygon fill="#f5f5f5" stroke="transparent" points="363.5,-341.2 363.5,-364.2 433.5,-364.2 433.5,-341.2 363.5,-341.2"/>
<polygon fill="none" stroke="#000000" points="363.5,-341.2 363.5,-364.2 433.5,-364.2 433.5,-341.2 363.5,-341.2"/>
<text text-anchor="start" x="360.6006" y="-349.8" font-family="Helvetica,sans-Serif" font-weight="bold" font-size="11.00" fill="#000000">受注明細</text>
<text text-anchor="start" x="399.0219" y="-349.3" font-family="Helvetica,sans-Serif" font-size="11.00" fill="#000000">[table]</text>
<polygon fill="none" stroke="#000000" points="363.5,-322.2 363.5,-341.2 433.5,-341.2 433.5,-322.2 363.5,-322.2"/>
<text text-anchor="start" x="366.5" y="-328.3" font-family="Helvetica,sans-Serif" font-size="11.00" fill="#000000">...</text>
<polygon fill="#ffffff" stroke="transparent" points="363.5,-303.2 363.5,-322.2 433.5,-322.2 433.5,-303.2 363.5,-303.2"/>
<polygon fill="none" stroke="#000000" points="363.5,-303.2 363.5,-322.2 433.5,-322.2 433.5,-303.2 363.5,-303.2"/>
<polygon fill="#ffffff" stroke="transparent" points="364.5,-304.2 364.5,-321.2 393.5,-321.2 393.5,-304.2 364.5,-304.2"/>
<text text-anchor="start" x="366.5" y="-309.3" font-family="Helvetica,sans-Serif" font-size="11.00" fill="#000000">&lt; 2</text>
<polygon fill="#ffffff" stroke="transparent" points="393.5,-304.2 393.5,-321.2 413.5,-321.2 413.5,-304.2 393.5,-304.2"/>
<text text-anchor="start" x="400.4431" y="-309.3" font-family="Helvetica,sans-Serif" font-size="11.00" fill="#000000"> &#160;</text>
<polygon fill="#ffffff" stroke="transparent" points="413.5,-304.2 413.5,-321.2 432.5,-321.2 432.5,-304.2 413.5,-304.2"/>
<text text-anchor="start" x="424.3862" y="-309.3" font-family="Helvetica,sans-Serif" font-size="11.00" fill="#000000"> &#160;</text>
<polygon fill="#000000" stroke="#000000" points="393.5,-304.2 393.5,-321.2 393.5,-321.2 393.5,-304.2 393.5,-304.2"/>
<polygon fill="#000000" stroke="#000000" points="413.5,-304.2 413.5,-321.2 413.5,-321.2 413.5,-304.2 413.5,-304.2"/>
</a>
</g>
</g>
<!-- 受注明細&#45;&gt;商品マスタ -->
<g id="edge3" class="edge">
<title>受注明細:w&#45;&gt;商品マスタ:e</title>
<path fill="none" stroke="#000000" d="M349.487,-327.8448C331.6778,-318.0528 330.1206,-290.2 303.5,-290.2"/>
<polygon fill="#000000" stroke="#000000" points="355.7199,-329.3371 362.6617,-334.701 359.61,-330.2686 363.5,-331.2 363.5,-331.2 363.5,-331.2 359.61,-330.2686 364.3383,-327.699 355.7199,-329.3371 355.7199,-329.3371"/>
<ellipse fill="none" stroke="#000000" cx="352.6079" cy="-328.592" rx="3.2" ry="3.2"/>
</g>
<!-- 在庫 -->
<g id="node5" class="node">
<title>在庫</title>
<g id="a_node5"><a xlink:href="../../tables/___aec83.html" xlink:title="在庫" target="_top">
<polygon fill="#ffffff" stroke="transparent" points="371.5,-221.7 371.5,-282.7 425.5,-282.7 425.5,-221.7 371.5,-221.7"/>
<polygon fill="#f5f5f5" stroke="transparent" points="371.5,-259.2 371.5,-282.2 425.5,-282.2 425.5,-259.2 371.5,-259.2"/>
<polygon fill="none" stroke="#000000" points="371.5,-259.2 371.5,-282.2 425.5,-282.2 425.5,-259.2 371.5,-259.2"/>
<text text-anchor="start" x="369.4688" y="-267.8" font-family="Helvetica,sans-Serif" font-weight="bold" font-size="11.00" fill="#000000">在庫</text>
<text text-anchor="start" x="391.0219" y="-267.3" font-family="Helvetica,sans-Serif" font-size="11.00" fill="#000000">[table]</text>
<polygon fill="none" stroke="#000000" points="371.5,-240.2 371.5,-259.2 425.5,-259.2 425.5,-240.2 371.5,-240.2"/>
<text text-anchor="start" x="374.5" y="-246.3" font-family="Helvetica,sans-Serif" font-size="11.00" fill="#000000">...</text>
<polygon fill="#ffffff" stroke="transparent" points="371.5,-221.2 371.5,-240.2 425.5,-240.2 425.5,-221.2 371.5,-221.2"/>
<polygon fill="none" stroke="#000000" points="371.5,-221.2 371.5,-240.2 425.5,-240.2 425.5,-221.2 371.5,-221.2"/>
<polygon fill="#ffffff" stroke="transparent" points="372.5,-222.2 372.5,-239.2 396.5,-239.2 396.5,-222.2 372.5,-222.2"/>
<text text-anchor="start" x="374.5" y="-227.3" font-family="Helvetica,sans-Serif" font-size="11.00" fill="#000000">&lt; 2</text>
<polygon fill="#ffffff" stroke="transparent" points="396.5,-222.2 396.5,-239.2 410.5,-239.2 410.5,-222.2 396.5,-222.2"/>
<text text-anchor="start" x="400.4431" y="-227.3" font-family="Helvetica,sans-Serif" font-size="11.00" fill="#000000"> &#160;</text>
<polygon fill="#ffffff" stroke="transparent" points="410.5,-222.2 410.5,-239.2 424.5,-239.2 424.5,-222.2 410.5,-222.2"/>
<text text-anchor="start" x="416.3862" y="-227.3" font-family="Helvetica,sans-Serif" font-size="11.00" fill="#000000"> &#160;</text>
<polygon fill="#000000" stroke="#000000" points="396.5,-222.2 396.5,-239.2 396.5,-239.2 396.5,-222.2 396.5,-222.2"/>
<polygon fill="#000000" stroke="#000000" points="410.5,-222.2 410.5,-239.2 410.5,-239.2 410.5,-222.2 410.5,-222.2"/>
</a>
</g>
</g>
<!-- 在庫&#45;&gt;商品マスタ -->
<g id="edge5" class="edge">
<title>在庫:w&#45;&gt;商品マスタ:e</title>
<path fill="none" stroke="#000000" d="M357.147,-252.0181C336.0647,-261.2812 333.1387,-290.2 303.5,-290.2"/>
<polygon fill="#000000" stroke="#000000" points="363.6499,-250.7414 372.1936,-252.7326 367.5749,-249.9707 371.5,-249.2 371.5,-249.2 371.5,-249.2 367.5749,-249.9707 370.8064,-245.6674 363.6499,-250.7414 363.6499,-250.7414"/>
<ellipse fill="none" stroke="#000000" cx="360.5098" cy="-251.3579" rx="3.2" ry="3.2"/>
</g>
<!-- 売上明細 -->
<g id="node6" class="node">
<title>売上明細</title>
<g id="a_node6"><a xlink:href="../../tables/_____29a0763a.html" xlink:title="売上明細" target="_top">
<polygon fill="#ffffff" stroke="transparent" points="363.5,-139.7 363.5,-200.7 433.5,-200.7 433.5,-139.7 363.5,-139.7"/>
<polygon fill="#f5f5f5" stroke="transparent" points="363.5,-177.2 363.5,-200.2 433.5,-200.2 433.5,-177.2 363.5,-177.2"/>
<polygon fill="none" stroke="#000000" points="363.5,-177.2 363.5,-200.2 433.5,-200.2 433.5,-177.2 363.5,-177.2"/>
<text text-anchor="start" x="360.9086" y="-185.8" font-family="Helvetica,sans-Serif" font-weight="bold" font-size="11.00" fill="#000000">売上明細</text>
<text text-anchor="start" x="399.0219" y="-185.3" font-family="Helvetica,sans-Serif" font-size="11.00" fill="#000000">[table]</text>
<polygon fill="none" stroke="#000000" points="363.5,-158.2 363.5,-177.2 433.5,-177.2 433.5,-158.2 363.5,-158.2"/>
<text text-anchor="start" x="366.5" y="-164.3" font-family="Helvetica,sans-Serif" font-size="11.00" fill="#000000">...</text>
<polygon fill="#ffffff" stroke="transparent" points="363.5,-139.2 363.5,-158.2 433.5,-158.2 433.5,-139.2 363.5,-139.2"/>
<polygon fill="none" stroke="#000000" points="363.5,-139.2 363.5,-158.2 433.5,-158.2 433.5,-139.2 363.5,-139.2"/>
<polygon fill="#ffffff" stroke="transparent" points="364.5,-140.2 364.5,-157.2 393.5,-157.2 393.5,-140.2 364.5,-140.2"/>
<text text-anchor="start" x="366.5" y="-145.3" font-family="Helvetica,sans-Serif" font-size="11.00" fill="#000000">&lt; 2</text>
<polygon fill="#ffffff" stroke="transparent" points="393.5,-140.2 393.5,-157.2 413.5,-157.2 413.5,-140.2 393.5,-140.2"/>
<text text-anchor="start" x="400.4431" y="-145.3" font-family="Helvetica,sans-Serif" font-size="11.00" fill="#000000"> &#160;</text>
<polygon fill="#ffffff" stroke="transparent" points="413.5,-140.2 413.5,-157.2 432.5,-157.2 432.5,-140.2 413.5,-140.2"/>
<text text-anchor="start" x="424.3862" y="-145.3" font-family="Helvetica,sans-Serif" font-size="11.00" fill="#000000"> &#160;</text>
<polygon fill="#000000" stroke="#000000" points="393.5,-140.2 393.5,-157.2 393.5,-157.2 393.5,-140.2 393.5,-140.2"/>
<polygon fill="#000000" stroke="#000000" points="413.5,-140.2 413.5,-157.2 413.5,-157.2 413.5,-140.2 413.5,-140.2"/>
</a>
</g>
</g>
<!-- 売上明細&#45;&gt;商品マスタ -->
<g id="edge6" class="edge">
<title>売上明細:w&#45;&gt;商品マスタ:e</title>
<path fill="none" stroke="#000000" d="M349.4207,-170.2405C313.1586,-189.1814 358.6217,-290.2 303.5,-290.2"/>
<polygon fill="#000000" stroke="#000000" points="355.6803,-168.8887 364.2599,-170.7189 359.5901,-168.0444 363.5,-167.2 363.5,-167.2 363.5,-167.2 359.5901,-168.0444 362.7401,-163.6811 355.6803,-168.8887 355.6803,-168.8887"/>
<ellipse fill="none" stroke="#000000" cx="352.5524" cy="-169.5642" rx="3.2" ry="3.2"/>
</g>
<!-- 顧客別販売単価 -->
<g id="node7" class="node">
<title>顧客別販売単価</title>
<g id="a_node7"><a xlink:href="../../tables/________201bd2dc.html" xlink:title="顧客別販売単価" target="_top">
<polygon fill="#ffffff" stroke="transparent" points="352,-57.7 352,-118.7 445,-118.7 445,-57.7 352,-57.7"/>
<polygon fill="#f5f5f5" stroke="transparent" points="352.5,-95.2 352.5,-118.2 445.5,-118.2 445.5,-95.2 352.5,-95.2"/>
<polygon fill="none" stroke="#000000" points="352.5,-95.2 352.5,-118.2 445.5,-118.2 445.5,-95.2 352.5,-95.2"/>
<text text-anchor="start" x="335.6015" y="-103.8" font-family="Helvetica,sans-Serif" font-weight="bold" font-size="11.00" fill="#000000">顧客別販売単価</text>
<text text-anchor="start" x="411.0219" y="-103.3" font-family="Helvetica,sans-Serif" font-size="11.00" fill="#000000">[table]</text>
<polygon fill="none" stroke="#000000" points="352.5,-76.2 352.5,-95.2 445.5,-95.2 445.5,-76.2 352.5,-76.2"/>
<text text-anchor="start" x="355.5" y="-82.3" font-family="Helvetica,sans-Serif" font-size="11.00" fill="#000000">...</text>
<polygon fill="#ffffff" stroke="transparent" points="352.5,-57.2 352.5,-76.2 445.5,-76.2 445.5,-57.2 352.5,-57.2"/>
<polygon fill="none" stroke="#000000" points="352.5,-57.2 352.5,-76.2 445.5,-76.2 445.5,-57.2 352.5,-57.2"/>
<polygon fill="#ffffff" stroke="transparent" points="353.5,-58.2 353.5,-75.2 390.5,-75.2 390.5,-58.2 353.5,-58.2"/>
<text text-anchor="start" x="355.5" y="-63.3" font-family="Helvetica,sans-Serif" font-size="11.00" fill="#000000">&lt; 1</text>
<polygon fill="#ffffff" stroke="transparent" points="390.5,-58.2 390.5,-75.2 417.5,-75.2 417.5,-58.2 390.5,-58.2"/>
<text text-anchor="start" x="400.9431" y="-63.3" font-family="Helvetica,sans-Serif" font-size="11.00" fill="#000000"> &#160;</text>
<polygon fill="#ffffff" stroke="transparent" points="417.5,-58.2 417.5,-75.2 444.5,-75.2 444.5,-58.2 417.5,-58.2"/>
<text text-anchor="start" x="436.3862" y="-63.3" font-family="Helvetica,sans-Serif" font-size="11.00" fill="#000000"> &#160;</text>
<polygon fill="#000000" stroke="#000000" points="390.5,-58.2 390.5,-75.2 390.5,-75.2 390.5,-58.2 390.5,-58.2"/>
<polygon fill="#000000" stroke="#000000" points="417.5,-58.2 417.5,-75.2 417.5,-75.2 417.5,-58.2 417.5,-58.2"/>
</a>
</g>
</g>
<!-- 顧客別販売単価&#45;&gt;商品マスタ -->
<g id="edge7" class="edge">
<title>顧客別販売単価:w&#45;&gt;商品マスタ:e</title>
<path fill="none" stroke="#000000" d="M337.9332,-87.3635C274.7257,-109.2727 391.5058,-290.2 303.5,-290.2"/>
<polygon fill="#000000" stroke="#000000" points="344.5868,-86.3754 353.0289,-88.7609 348.5434,-85.7877 352.5,-85.2 352.5,-85.2 352.5,-85.2 348.5434,-85.7877 351.9711,-81.6391 344.5868,-86.3754 344.5868,-86.3754"/>
<ellipse fill="none" stroke="#000000" cx="341.4215" cy="-86.8455" rx="3.2" ry="3.2"/>
</g>
</g>
</svg>
