<?xml version="1.0" encoding="UTF-8" standalone="no"?>
<!DOCTYPE svg PUBLIC "-//W3C//DTD SVG 1.1//EN"
 "http://www.w3.org/Graphics/SVG/1.1/DTD/svg11.dtd">
<!-- Generated by graphviz version 2.40.1 (20161225.0304)
 -->
<!-- Title: oneDegreeRelationshipsDiagramImplied Pages: 1 -->
<svg width="538pt" height="537pt"
 viewBox="0.00 0.00 538.00 536.70" xmlns="http://www.w3.org/2000/svg" xmlns:xlink="http://www.w3.org/1999/xlink">
<g id="graph0" class="graph" transform="scale(1 1) rotate(0) translate(4 532.7)">
<title>oneDegreeRelationshipsDiagramImplied</title>
<polygon fill="#ffffff" stroke="transparent" points="-4,4 -4,-532.7 534,-532.7 534,4 -4,4"/>
<text text-anchor="middle" x="72.4936" y="-7.3" font-family="Helvetica,sans-Serif" font-size="11.00" fill="#000000">Generated by SchemaSpy</text>
<!-- 受注 -->
<g id="node1" class="node">
<title>受注</title>
<g id="a_node1"><a xlink:href="../../tables/___a93f1.html" xlink:title="受注" target="_top">
<polygon fill="#ffffff" stroke="transparent" points="339,-287.7 339,-524.7 406,-524.7 406,-287.7 339,-287.7"/>
<polygon fill="#f5f5f5" stroke="transparent" points="339.5,-501.2 339.5,-524.2 406.5,-524.2 406.5,-501.2 339.5,-501.2"/>
<polygon fill="none" stroke="#000000" points="339.5,-501.2 339.5,-524.2 406.5,-524.2 406.5,-501.2 339.5,-501.2"/>
<text text-anchor="start" x="337.7713" y="-509.8" font-family="Helvetica,sans-Serif" font-weight="bold" font-size="11.00" fill="#000000">受注</text>
<text text-anchor="start" x="371.5437" y="-509.3" font-family="Helvetica,sans-Serif" font-size="11.00" fill="#000000">[table]</text>
<polygon fill="none" stroke="#000000" points="339.5,-479.2 339.5,-501.2 406.5,-501.2 406.5,-479.2 339.5,-479.2"/>
<image xlink:href="../../images/primaryKeys.png" width="11px" height="12px" preserveAspectRatio="xMinYMin meet" x="344.5" y="-496.2"/>
<text text-anchor="start" x="358.4021" y="-486.3" font-family="Helvetica,sans-Serif" font-size="11.00" fill="#000000">受注番号</text>
<polygon fill="#ffffff" stroke="transparent" points="339.5,-457.2 339.5,-479.2 406.5,-479.2 406.5,-457.2 339.5,-457.2"/>
<polygon fill="none" stroke="#000000" points="339.5,-457.2 339.5,-479.2 406.5,-479.2 406.5,-457.2 339.5,-457.2"/>
<text text-anchor="start" x="359.5" y="-464.3" font-family="Helvetica,sans-Serif" font-size="11.00" fill="#000000">受注日</text>
<polygon fill="none" stroke="#000000" points="339.5,-435.2 339.5,-457.2 406.5,-457.2 406.5,-435.2 339.5,-435.2"/>
<image xlink:href="../../images/foreignKeys.png" width="11px" height="12px" preserveAspectRatio="xMinYMin meet" x="344.5" y="-452.2"/>
<text text-anchor="start" x="343.5257" y="-442.3" font-family="Helvetica,sans-Serif" font-size="11.00" fill="#000000">部門コード</text>
<polygon fill="none" stroke="#000000" points="339.5,-413.2 339.5,-435.2 406.5,-435.2 406.5,-413.2 339.5,-413.2"/>
<image xlink:href="../../images/foreignKeys.png" width="11px" height="12px" preserveAspectRatio="xMinYMin meet" x="344.5" y="-430.2"/>
<text text-anchor="start" x="359.5" y="-420.3" font-family="Helvetica,sans-Serif" font-size="11.00" fill="#000000">開始日</text>
<polygon fill="#ffffff" stroke="transparent" points="339.5,-391.2 339.5,-413.2 406.5,-413.2 406.5,-391.2 339.5,-391.2"/>
<polygon fill="none" stroke="#000000" points="339.5,-391.2 339.5,-413.2 406.5,-413.2 406.5,-391.2 339.5,-391.2"/>
<image xlink:href="../../images/foreignKeys.png" width="11px" height="12px" preserveAspectRatio="xMinYMin meet" x="344.5" y="-408.2"/>
<text text-anchor="start" x="343.2227" y="-398.3" font-family="Helvetica,sans-Serif" font-size="11.00" fill="#000000">顧客コード</text>
<polygon fill="#ffffff" stroke="transparent" points="339.5,-369.2 339.5,-391.2 406.5,-391.2 406.5,-369.2 339.5,-369.2"/>
<polygon fill="none" stroke="#000000" points="339.5,-369.2 339.5,-391.2 406.5,-391.2 406.5,-369.2 339.5,-369.2"/>
<image xlink:href="../../images/foreignKeys.png" width="11px" height="12px" preserveAspectRatio="xMinYMin meet" x="344.5" y="-386.2"/>
<text text-anchor="start" x="354.5241" y="-376.3" font-family="Helvetica,sans-Serif" font-size="11.00" fill="#000000">顧客枝番</text>
<polygon fill="#ffffff" stroke="transparent" points="339.5,-347.2 339.5,-369.2 406.5,-369.2 406.5,-347.2 339.5,-347.2"/>
<polygon fill="none" stroke="#000000" points="339.5,-347.2 339.5,-369.2 406.5,-369.2 406.5,-347.2 339.5,-347.2"/>
<image xlink:href="../../images/foreignKeys.png" width="11px" height="12px" preserveAspectRatio="xMinYMin meet" x="344.5" y="-364.2"/>
<text text-anchor="start" x="350.8627" y="-354.3" font-family="Helvetica,sans-Serif" font-size="11.00" fill="#000000">社員コード</text>
<polygon fill="none" stroke="#000000" points="339.5,-325.2 339.5,-347.2 406.5,-347.2 406.5,-325.2 339.5,-325.2"/>
<image xlink:href="../../images/foreignKeys.png" width="11px" height="12px" preserveAspectRatio="xMinYMin meet" x="344.5" y="-342.2"/>
<text text-anchor="start" x="348.7232" y="-332.3" font-family="Helvetica,sans-Serif" font-size="11.00" fill="#000000">倉庫コード</text>
<polygon fill="none" stroke="#000000" points="339.5,-306.2 339.5,-325.2 406.5,-325.2 406.5,-306.2 339.5,-306.2"/>
<text text-anchor="start" x="342.5" y="-312.3" font-family="Helvetica,sans-Serif" font-size="11.00" fill="#000000">...</text>
<polygon fill="#ffffff" stroke="transparent" points="339.5,-287.2 339.5,-306.2 406.5,-306.2 406.5,-287.2 339.5,-287.2"/>
<polygon fill="none" stroke="#000000" points="339.5,-287.2 339.5,-306.2 406.5,-306.2 406.5,-287.2 339.5,-287.2"/>
<polygon fill="#ffffff" stroke="transparent" points="340.5,-288.2 340.5,-305.2 365.5,-305.2 365.5,-288.2 340.5,-288.2"/>
<text text-anchor="start" x="342.5" y="-293.3" font-family="Helvetica,sans-Serif" font-size="11.00" fill="#000000">&lt; 5</text>
<polygon fill="#ffffff" stroke="transparent" points="365.5,-288.2 365.5,-305.2 381.5,-305.2 381.5,-288.2 365.5,-288.2"/>
<text text-anchor="start" x="370.4431" y="-293.3" font-family="Helvetica,sans-Serif" font-size="11.00" fill="#000000"> &#160;</text>
<polygon fill="#ffffff" stroke="transparent" points="381.5,-288.2 381.5,-305.2 405.5,-305.2 405.5,-288.2 381.5,-288.2"/>
<text text-anchor="start" x="387.9053" y="-293.3" font-family="Helvetica,sans-Serif" font-size="11.00" fill="#000000">2 &gt;</text>
<polygon fill="#000000" stroke="#000000" points="365.5,-288.2 365.5,-305.2 365.5,-305.2 365.5,-288.2 365.5,-288.2"/>
<polygon fill="#000000" stroke="#000000" points="381.5,-288.2 381.5,-305.2 381.5,-305.2 381.5,-288.2 381.5,-288.2"/>
</a>
</g>
</g>
<!-- 社員マスタ -->
<g id="node2" class="node">
<title>社員マスタ</title>
<g id="a_node2"><a xlink:href="../../tables/______d3d8a641.html" xlink:title="社員マスタ" target="_top">
<polygon fill="#ffffff" stroke="transparent" points="212,-314.7 212,-419.7 290,-419.7 290,-314.7 212,-314.7"/>
<polygon fill="#f5f5f5" stroke="transparent" points="212,-396.2 212,-419.2 290,-419.2 290,-396.2 212,-396.2"/>
<polygon fill="none" stroke="#000000" points="212,-396.2 212,-419.2 290,-419.2 290,-396.2 212,-396.2"/>
<text text-anchor="start" x="208.2293" y="-404.8" font-family="Helvetica,sans-Serif" font-weight="bold" font-size="11.00" fill="#000000">社員マスタ</text>
<text text-anchor="start" x="255.5219" y="-404.3" font-family="Helvetica,sans-Serif" font-size="11.00" fill="#000000">[table]</text>
<polygon fill="none" stroke="#000000" points="212,-374.2 212,-396.2 290,-396.2 290,-374.2 212,-374.2"/>
<image xlink:href="../../images/primaryKeys.png" width="11px" height="12px" preserveAspectRatio="xMinYMin meet" x="217" y="-391.2"/>
<text text-anchor="start" x="229.3627" y="-381.3" font-family="Helvetica,sans-Serif" font-size="11.00" fill="#000000">社員コード</text>
<polygon fill="#ffffff" stroke="transparent" points="212,-352.2 212,-374.2 290,-374.2 290,-352.2 212,-352.2"/>
<polygon fill="none" stroke="#000000" points="212,-352.2 212,-374.2 290,-374.2 290,-352.2 212,-352.2"/>
<image xlink:href="../../images/foreignKeys.png" width="11px" height="12px" preserveAspectRatio="xMinYMin meet" x="217" y="-369.2"/>
<text text-anchor="start" x="222.0257" y="-359.3" font-family="Helvetica,sans-Serif" font-size="11.00" fill="#000000">部門コード</text>
<polygon fill="none" stroke="#000000" points="212,-333.2 212,-352.2 290,-352.2 290,-333.2 212,-333.2"/>
<text text-anchor="start" x="215" y="-339.3" font-family="Helvetica,sans-Serif" font-size="11.00" fill="#000000">...</text>
<polygon fill="#ffffff" stroke="transparent" points="212,-314.2 212,-333.2 290,-333.2 290,-314.2 212,-314.2"/>
<polygon fill="none" stroke="#000000" points="212,-314.2 212,-333.2 290,-333.2 290,-314.2 212,-314.2"/>
<polygon fill="#ffffff" stroke="transparent" points="213,-315.2 213,-332.2 242,-332.2 242,-315.2 213,-315.2"/>
<text text-anchor="start" x="215" y="-320.3" font-family="Helvetica,sans-Serif" font-size="11.00" fill="#000000">&lt; 1</text>
<polygon fill="#ffffff" stroke="transparent" points="242,-315.2 242,-332.2 261,-332.2 261,-315.2 242,-315.2"/>
<text text-anchor="start" x="248.4431" y="-320.3" font-family="Helvetica,sans-Serif" font-size="11.00" fill="#000000"> &#160;</text>
<polygon fill="#ffffff" stroke="transparent" points="261,-315.2 261,-332.2 289,-332.2 289,-315.2 261,-315.2"/>
<text text-anchor="start" x="271.4053" y="-320.3" font-family="Helvetica,sans-Serif" font-size="11.00" fill="#000000">1 &gt;</text>
<polygon fill="#000000" stroke="#000000" points="242,-315.2 242,-332.2 242,-332.2 242,-315.2 242,-315.2"/>
<polygon fill="#000000" stroke="#000000" points="261,-315.2 261,-332.2 261,-332.2 261,-315.2 261,-315.2"/>
</a>
</g>
</g>
<!-- 受注&#45;&gt;社員マスタ -->
<g id="edge1" class="edge">
<title>受注:w&#45;&gt;社員マスタ:e</title>
<path fill="none" stroke="#000000" d="M325.4504,-361.9542C313.32,-369.3731 309.1865,-385.2 290,-385.2"/>
<polygon fill="#000000" stroke="#000000" points="331.7712,-360.2653 340.4294,-361.678 335.6356,-359.2326 339.5,-358.2 339.5,-358.2 339.5,-358.2 335.6356,-359.2326 338.5706,-354.722 331.7712,-360.2653 331.7712,-360.2653"/>
<ellipse fill="none" stroke="#000000" cx="328.6796" cy="-361.0914" rx="3.2" ry="3.2"/>
</g>
<!-- 部門マスタ -->
<g id="node3" class="node">
<title>部門マスタ</title>
<g id="a_node3"><a xlink:href="../../tables/______3eb0dfec.html" xlink:title="部門マスタ" target="_top">
<polygon fill="#ffffff" stroke="transparent" points="8,-38.2 8,-348.2 163,-348.2 163,-38.2 8,-38.2"/>
<polygon fill="#f5f5f5" stroke="transparent" points="10.5,-323.2 10.5,-346.2 161.5,-346.2 161.5,-323.2 10.5,-323.2"/>
<polygon fill="none" stroke="#000000" points="10.5,-323.2 10.5,-346.2 161.5,-346.2 161.5,-323.2 10.5,-323.2"/>
<text text-anchor="start" x="-.6077" y="-331.8" font-family="Helvetica,sans-Serif" font-weight="bold" font-size="11.00" fill="#000000">部門マスタ</text>
<text text-anchor="start" x="126.5437" y="-331.3" font-family="Helvetica,sans-Serif" font-size="11.00" fill="#000000">[table]</text>
<polygon fill="none" stroke="#000000" points="10.5,-301.2 10.5,-323.2 77.5,-323.2 77.5,-301.2 10.5,-301.2"/>
<image xlink:href="../../images/primaryKeys.png" width="11px" height="12px" preserveAspectRatio="xMinYMin meet" x="15.5" y="-318.2"/>
<text text-anchor="start" x="14.5257" y="-308.3" font-family="Helvetica,sans-Serif" font-size="11.00" fill="#000000">部門コード</text>
<polygon fill="none" stroke="#000000" points="77.5,-301.2 77.5,-323.2 161.5,-323.2 161.5,-301.2 77.5,-301.2"/>
<text text-anchor="start" x="80.5" y="-308.9" font-family="Helvetica,sans-Serif" font-size="11.00" fill="#000000">varchar[6]</text>
<polygon fill="none" stroke="#000000" points="10.5,-279.2 10.5,-301.2 77.5,-301.2 77.5,-279.2 10.5,-279.2"/>
<image xlink:href="../../images/primaryKeys.png" width="11px" height="12px" preserveAspectRatio="xMinYMin meet" x="15.5" y="-296.2"/>
<text text-anchor="start" x="30.5" y="-286.3" font-family="Helvetica,sans-Serif" font-size="11.00" fill="#000000">開始日</text>
<polygon fill="none" stroke="#000000" points="77.5,-279.2 77.5,-301.2 161.5,-301.2 161.5,-279.2 77.5,-279.2"/>
<text text-anchor="start" x="80.3807" y="-286.9" font-family="Helvetica,sans-Serif" font-size="11.00" fill="#000000">timestamp[29,6]</text>
<polygon fill="none" stroke="#000000" points="10.5,-257.2 10.5,-279.2 77.5,-279.2 77.5,-257.2 10.5,-257.2"/>
<text text-anchor="start" x="30.5" y="-264.3" font-family="Helvetica,sans-Serif" font-size="11.00" fill="#000000">終了日</text>
<polygon fill="none" stroke="#000000" points="77.5,-257.2 77.5,-279.2 161.5,-279.2 161.5,-257.2 77.5,-257.2"/>
<text text-anchor="start" x="80.3807" y="-264.9" font-family="Helvetica,sans-Serif" font-size="11.00" fill="#000000">timestamp[29,6]</text>
<polygon fill="#ffffff" stroke="transparent" points="10.5,-235.2 10.5,-257.2 77.5,-257.2 77.5,-235.2 10.5,-235.2"/>
<polygon fill="none" stroke="#000000" points="10.5,-235.2 10.5,-257.2 77.5,-257.2 77.5,-235.2 10.5,-235.2"/>
<text text-anchor="start" x="30.5" y="-242.3" font-family="Helvetica,sans-Serif" font-size="11.00" fill="#000000">部門名</text>
<polygon fill="none" stroke="#000000" points="77.5,-235.2 77.5,-257.2 161.5,-257.2 161.5,-235.2 77.5,-235.2"/>
<text text-anchor="start" x="80.5" y="-242.9" font-family="Helvetica,sans-Serif" font-size="11.00" fill="#000000">varchar[40]</text>
<polygon fill="none" stroke="#000000" points="10.5,-213.2 10.5,-235.2 77.5,-235.2 77.5,-213.2 10.5,-213.2"/>
<text text-anchor="start" x="29.1876" y="-220.3" font-family="Helvetica,sans-Serif" font-size="11.00" fill="#000000">組織階層</text>
<polygon fill="none" stroke="#000000" points="77.5,-213.2 77.5,-235.2 161.5,-235.2 161.5,-213.2 77.5,-213.2"/>
<text text-anchor="start" x="80.5" y="-220.9" font-family="Helvetica,sans-Serif" font-size="11.00" fill="#000000">int4[10]</text>
<polygon fill="#ffffff" stroke="transparent" points="10.5,-191.2 10.5,-213.2 77.5,-213.2 77.5,-191.2 10.5,-191.2"/>
<polygon fill="none" stroke="#000000" points="10.5,-191.2 10.5,-213.2 77.5,-213.2 77.5,-191.2 10.5,-191.2"/>
<text text-anchor="start" x="24.8151" y="-198.3" font-family="Helvetica,sans-Serif" font-size="11.00" fill="#000000">部門パス</text>
<polygon fill="none" stroke="#000000" points="77.5,-191.2 77.5,-213.2 161.5,-213.2 161.5,-191.2 77.5,-191.2"/>
<text text-anchor="start" x="80.5" y="-198.9" font-family="Helvetica,sans-Serif" font-size="11.00" fill="#000000">varchar[100]</text>
<polygon fill="none" stroke="#000000" points="10.5,-169.2 10.5,-191.2 77.5,-191.2 77.5,-169.2 10.5,-169.2"/>
<text text-anchor="start" x="27.6603" y="-176.3" font-family="Helvetica,sans-Serif" font-size="11.00" fill="#000000">最下層区分</text>
<polygon fill="none" stroke="#000000" points="77.5,-169.2 77.5,-191.2 161.5,-191.2 161.5,-169.2 77.5,-169.2"/>
<text text-anchor="start" x="80.5" y="-176.9" font-family="Helvetica,sans-Serif" font-size="11.00" fill="#000000">int4[10]</text>
<polygon fill="none" stroke="#000000" points="10.5,-147.2 10.5,-169.2 77.5,-169.2 77.5,-147.2 10.5,-147.2"/>
<text text-anchor="start" x="12.6788" y="-154.3" font-family="Helvetica,sans-Serif" font-size="11.00" fill="#000000">伝票入力可否</text>
<polygon fill="none" stroke="#000000" points="77.5,-147.2 77.5,-169.2 161.5,-169.2 161.5,-147.2 77.5,-147.2"/>
<text text-anchor="start" x="80.5" y="-154.9" font-family="Helvetica,sans-Serif" font-size="11.00" fill="#000000">int4[10]</text>
<polygon fill="none" stroke="#000000" points="10.5,-125.2 10.5,-147.2 77.5,-147.2 77.5,-125.2 10.5,-125.2"/>
<text text-anchor="start" x="27.6581" y="-132.3" font-family="Helvetica,sans-Serif" font-size="11.00" fill="#000000">作成日時</text>
<polygon fill="none" stroke="#000000" points="77.5,-125.2 77.5,-147.2 161.5,-147.2 161.5,-125.2 77.5,-125.2"/>
<text text-anchor="start" x="80.3807" y="-132.9" font-family="Helvetica,sans-Serif" font-size="11.00" fill="#000000">timestamp[29,6]</text>
<polygon fill="none" stroke="#000000" points="10.5,-103.2 10.5,-125.2 77.5,-125.2 77.5,-103.2 10.5,-103.2"/>
<text text-anchor="start" x="27.6581" y="-110.3" font-family="Helvetica,sans-Serif" font-size="11.00" fill="#000000">作成者名</text>
<polygon fill="none" stroke="#000000" points="77.5,-103.2 77.5,-125.2 161.5,-125.2 161.5,-103.2 77.5,-103.2"/>
<text text-anchor="start" x="80.5" y="-110.9" font-family="Helvetica,sans-Serif" font-size="11.00" fill="#000000">varchar[50]</text>
<polygon fill="none" stroke="#000000" points="10.5,-81.2 10.5,-103.2 77.5,-103.2 77.5,-81.2 10.5,-81.2"/>
<text text-anchor="start" x="30.5" y="-88.3" font-family="Helvetica,sans-Serif" font-size="11.00" fill="#000000">更新日時</text>
<polygon fill="none" stroke="#000000" points="77.5,-81.2 77.5,-103.2 161.5,-103.2 161.5,-81.2 77.5,-81.2"/>
<text text-anchor="start" x="80.3807" y="-88.9" font-family="Helvetica,sans-Serif" font-size="11.00" fill="#000000">timestamp[29,6]</text>
<polygon fill="none" stroke="#000000" points="10.5,-59.2 10.5,-81.2 77.5,-81.2 77.5,-59.2 10.5,-59.2"/>
<text text-anchor="start" x="30.5" y="-66.3" font-family="Helvetica,sans-Serif" font-size="11.00" fill="#000000">更新者名</text>
<polygon fill="none" stroke="#000000" points="77.5,-59.2 77.5,-81.2 161.5,-81.2 161.5,-59.2 77.5,-59.2"/>
<text text-anchor="start" x="80.5" y="-66.9" font-family="Helvetica,sans-Serif" font-size="11.00" fill="#000000">varchar[50]</text>
<polygon fill="#ffffff" stroke="transparent" points="10.5,-40.2 10.5,-59.2 161.5,-59.2 161.5,-40.2 10.5,-40.2"/>
<polygon fill="none" stroke="#000000" points="10.5,-40.2 10.5,-59.2 161.5,-59.2 161.5,-40.2 10.5,-40.2"/>
<polygon fill="#ffffff" stroke="transparent" points="11.5,-41.2 11.5,-58.2 64.5,-58.2 64.5,-41.2 11.5,-41.2"/>
<text text-anchor="start" x="13.5" y="-46.3" font-family="Helvetica,sans-Serif" font-size="11.00" fill="#000000">&lt; 0</text>
<polygon fill="#ffffff" stroke="transparent" points="64.5,-41.2 64.5,-58.2 108.5,-58.2 108.5,-41.2 64.5,-41.2"/>
<text text-anchor="start" x="83.4431" y="-46.3" font-family="Helvetica,sans-Serif" font-size="11.00" fill="#000000"> &#160;</text>
<polygon fill="#ffffff" stroke="transparent" points="108.5,-41.2 108.5,-58.2 160.5,-58.2 160.5,-41.2 108.5,-41.2"/>
<text text-anchor="start" x="142.9053" y="-46.3" font-family="Helvetica,sans-Serif" font-size="11.00" fill="#000000">5 &gt;</text>
<polygon fill="#000000" stroke="#000000" points="64.5,-41.2 64.5,-58.2 64.5,-58.2 64.5,-41.2 64.5,-41.2"/>
<polygon fill="#000000" stroke="#000000" points="108.5,-41.2 108.5,-58.2 108.5,-58.2 108.5,-41.2 108.5,-41.2"/>
<polygon fill="none" stroke="#000000" stroke-width="2" points="9,-39.2 9,-347.2 162,-347.2 162,-39.2 9,-39.2"/>
</a>
</g>
</g>
<!-- 受注&#45;&gt;部門マスタ -->
<g id="edge2" class="edge">
<title>受注:w&#45;&gt;部門マスタ:e</title>
<path fill="none" stroke="#000000" d="M324.8936,-446.6115C274.119,-449.4289 247.4942,-464.7515 204,-430.2 160.3535,-395.5274 217.2424,-312.2 161.5,-312.2"/>
<polygon fill="#000000" stroke="#000000" points="331.5032,-446.4254 339.6014,-449.7986 335.5016,-446.3127 339.5,-446.2 339.5,-446.2 339.5,-446.2 335.5016,-446.3127 339.3986,-442.6014 331.5032,-446.4254 331.5032,-446.4254"/>
<ellipse fill="none" stroke="#000000" cx="328.3044" cy="-446.5155" rx="3.2" ry="3.2"/>
</g>
<!-- 受注&#45;&gt;部門マスタ -->
<g id="edge3" class="edge">
<title>受注:w&#45;&gt;部門マスタ:e</title>
<path fill="none" stroke="#000000" d="M325.245,-421.5232C294.3973,-406.835 337.5672,-335.5487 298,-304.2 250.1996,-266.3281 222.4849,-290.2 161.5,-290.2"/>
<polygon fill="#000000" stroke="#000000" points="331.6374,-422.7235 338.8356,-427.7382 335.5687,-423.4618 339.5,-424.2 339.5,-424.2 339.5,-424.2 335.5687,-423.4618 340.1644,-420.6618 331.6374,-422.7235 331.6374,-422.7235"/>
<ellipse fill="none" stroke="#000000" cx="328.4924" cy="-422.1329" rx="3.2" ry="3.2"/>
</g>
<!-- 社員マスタ&#45;&gt;部門マスタ -->
<g id="edge7" class="edge">
<title>社員マスタ:w&#45;&gt;部門マスタ:e</title>
<path fill="none" stroke="#000000" d="M198.2279,-358.4935C183.4989,-345.868 187.4177,-312.2 161.5,-312.2"/>
<polygon fill="#000000" stroke="#000000" points="204.4298,-360.6129 210.8358,-366.6066 208.2149,-361.9065 212,-363.2 212,-363.2 212,-363.2 208.2149,-361.9065 213.1642,-359.7934 204.4298,-360.6129 204.4298,-360.6129"/>
<ellipse fill="none" stroke="#000000" cx="201.4018" cy="-359.5781" rx="3.2" ry="3.2"/>
</g>
<!-- 売上 -->
<g id="node4" class="node">
<title>売上</title>
<g id="a_node4"><a xlink:href="../../tables/___b1358.html" xlink:title="売上" target="_top">
<polygon fill="#ffffff" stroke="transparent" points="455,-170.7 455,-363.7 522,-363.7 522,-170.7 455,-170.7"/>
<polygon fill="#f5f5f5" stroke="transparent" points="455.5,-340.2 455.5,-363.2 522.5,-363.2 522.5,-340.2 455.5,-340.2"/>
<polygon fill="none" stroke="#000000" points="455.5,-340.2 455.5,-363.2 522.5,-363.2 522.5,-340.2 455.5,-340.2"/>
<text text-anchor="start" x="454.0793" y="-348.8" font-family="Helvetica,sans-Serif" font-weight="bold" font-size="11.00" fill="#000000">売上</text>
<text text-anchor="start" x="487.5437" y="-348.3" font-family="Helvetica,sans-Serif" font-size="11.00" fill="#000000">[table]</text>
<polygon fill="none" stroke="#000000" points="455.5,-318.2 455.5,-340.2 522.5,-340.2 522.5,-318.2 455.5,-318.2"/>
<image xlink:href="../../images/primaryKeys.png" width="11px" height="12px" preserveAspectRatio="xMinYMin meet" x="460.5" y="-335.2"/>
<text text-anchor="start" x="474.7101" y="-325.3" font-family="Helvetica,sans-Serif" font-size="11.00" fill="#000000">売上番号</text>
<polygon fill="#ffffff" stroke="transparent" points="455.5,-296.2 455.5,-318.2 522.5,-318.2 522.5,-296.2 455.5,-296.2"/>
<polygon fill="none" stroke="#000000" points="455.5,-296.2 455.5,-318.2 522.5,-318.2 522.5,-296.2 455.5,-296.2"/>
<text text-anchor="start" x="475.5" y="-303.3" font-family="Helvetica,sans-Serif" font-size="11.00" fill="#000000">売上日</text>
<polygon fill="#ffffff" stroke="transparent" points="455.5,-274.2 455.5,-296.2 522.5,-296.2 522.5,-274.2 455.5,-274.2"/>
<polygon fill="none" stroke="#000000" points="455.5,-274.2 455.5,-296.2 522.5,-296.2 522.5,-274.2 455.5,-274.2"/>
<image xlink:href="../../images/foreignKeys.png" width="11px" height="12px" preserveAspectRatio="xMinYMin meet" x="460.5" y="-291.2"/>
<text text-anchor="start" x="474.4021" y="-281.3" font-family="Helvetica,sans-Serif" font-size="11.00" fill="#000000">受注番号</text>
<polygon fill="#ffffff" stroke="transparent" points="455.5,-252.2 455.5,-274.2 522.5,-274.2 522.5,-252.2 455.5,-252.2"/>
<polygon fill="none" stroke="#000000" points="455.5,-252.2 455.5,-274.2 522.5,-274.2 522.5,-252.2 455.5,-252.2"/>
<image xlink:href="../../images/foreignKeys.png" width="11px" height="12px" preserveAspectRatio="xMinYMin meet" x="460.5" y="-269.2"/>
<text text-anchor="start" x="459.5257" y="-259.3" font-family="Helvetica,sans-Serif" font-size="11.00" fill="#000000">部門コード</text>
<polygon fill="#ffffff" stroke="transparent" points="455.5,-230.2 455.5,-252.2 522.5,-252.2 522.5,-230.2 455.5,-230.2"/>
<polygon fill="none" stroke="#000000" points="455.5,-230.2 455.5,-252.2 522.5,-252.2 522.5,-230.2 455.5,-230.2"/>
<image xlink:href="../../images/foreignKeys.png" width="11px" height="12px" preserveAspectRatio="xMinYMin meet" x="460.5" y="-247.2"/>
<text text-anchor="start" x="475.5" y="-237.3" font-family="Helvetica,sans-Serif" font-size="11.00" fill="#000000">開始日</text>
<polygon fill="#ffffff" stroke="transparent" points="455.5,-208.2 455.5,-230.2 522.5,-230.2 522.5,-208.2 455.5,-208.2"/>
<polygon fill="none" stroke="#000000" points="455.5,-208.2 455.5,-230.2 522.5,-230.2 522.5,-208.2 455.5,-208.2"/>
<image xlink:href="../../images/foreignKeys.png" width="11px" height="12px" preserveAspectRatio="xMinYMin meet" x="460.5" y="-225.2"/>
<text text-anchor="start" x="457.9978" y="-215.3" font-family="Helvetica,sans-Serif" font-size="11.00" fill="#000000">取引先コード</text>
<polygon fill="none" stroke="#000000" points="455.5,-189.2 455.5,-208.2 522.5,-208.2 522.5,-189.2 455.5,-189.2"/>
<text text-anchor="start" x="458.5" y="-195.3" font-family="Helvetica,sans-Serif" font-size="11.00" fill="#000000">...</text>
<polygon fill="#ffffff" stroke="transparent" points="455.5,-170.2 455.5,-189.2 522.5,-189.2 522.5,-170.2 455.5,-170.2"/>
<polygon fill="none" stroke="#000000" points="455.5,-170.2 455.5,-189.2 522.5,-189.2 522.5,-170.2 455.5,-170.2"/>
<polygon fill="#ffffff" stroke="transparent" points="456.5,-171.2 456.5,-188.2 481.5,-188.2 481.5,-171.2 456.5,-171.2"/>
<text text-anchor="start" x="458.5" y="-176.3" font-family="Helvetica,sans-Serif" font-size="11.00" fill="#000000">&lt; 4</text>
<polygon fill="#ffffff" stroke="transparent" points="481.5,-171.2 481.5,-188.2 497.5,-188.2 497.5,-171.2 481.5,-171.2"/>
<text text-anchor="start" x="486.4431" y="-176.3" font-family="Helvetica,sans-Serif" font-size="11.00" fill="#000000"> &#160;</text>
<polygon fill="#ffffff" stroke="transparent" points="497.5,-171.2 497.5,-188.2 521.5,-188.2 521.5,-171.2 497.5,-171.2"/>
<text text-anchor="start" x="503.9053" y="-176.3" font-family="Helvetica,sans-Serif" font-size="11.00" fill="#000000">1 &gt;</text>
<polygon fill="#000000" stroke="#000000" points="481.5,-171.2 481.5,-188.2 481.5,-188.2 481.5,-171.2 481.5,-171.2"/>
<polygon fill="#000000" stroke="#000000" points="497.5,-171.2 497.5,-188.2 497.5,-188.2 497.5,-171.2 497.5,-171.2"/>
</a>
</g>
</g>
<!-- 売上&#45;&gt;受注 -->
<g id="edge4" class="edge">
<title>売上:w&#45;&gt;受注:e</title>
<path fill="none" stroke="#000000" d="M440.9332,-287.3635C377.7257,-309.2727 494.5058,-490.2 406.5,-490.2"/>
<polygon fill="#000000" stroke="#000000" points="447.5868,-286.3754 456.0289,-288.7609 451.5434,-285.7877 455.5,-285.2 455.5,-285.2 455.5,-285.2 451.5434,-285.7877 454.9711,-281.6391 447.5868,-286.3754 447.5868,-286.3754"/>
<ellipse fill="none" stroke="#000000" cx="444.4215" cy="-286.8455" rx="3.2" ry="3.2"/>
</g>
<!-- 売上&#45;&gt;部門マスタ -->
<g id="edge5" class="edge">
<title>売上:w&#45;&gt;部門マスタ:e</title>
<path fill="none" stroke="#000000" d="M440.8601,-263.0647C340.2332,-261.2027 304.044,-241.3282 204,-279.2 181.6344,-287.6665 185.4145,-312.2 161.5,-312.2"/>
<polygon fill="#000000" stroke="#000000" points="447.5003,-263.126 455.4667,-266.7998 451.5002,-263.163 455.5,-263.2 455.5,-263.2 455.5,-263.2 451.5002,-263.163 455.5333,-259.6002 447.5003,-263.126 447.5003,-263.126"/>
<ellipse fill="none" stroke="#000000" cx="444.3005" cy="-263.0964" rx="3.2" ry="3.2"/>
</g>
<!-- 売上&#45;&gt;部門マスタ -->
<g id="edge6" class="edge">
<title>売上:w&#45;&gt;部門マスタ:e</title>
<path fill="none" stroke="#000000" d="M440.8655,-241.038C340.2439,-238.8042 303.3834,-214.8257 204,-254.2 180.9858,-263.3179 186.2546,-290.2 161.5,-290.2"/>
<polygon fill="#000000" stroke="#000000" points="447.5005,-241.1114 455.4601,-244.7998 451.5002,-241.1557 455.5,-241.2 455.5,-241.2 455.5,-241.2 451.5002,-241.1557 455.5399,-237.6002 447.5005,-241.1114 447.5005,-241.1114"/>
<ellipse fill="none" stroke="#000000" cx="444.3007" cy="-241.0759" rx="3.2" ry="3.2"/>
</g>
</g>
</svg>
