<?xml version="1.0" encoding="UTF-8" standalone="no"?>
<!DOCTYPE svg PUBLIC "-//W3C//DTD SVG 1.1//EN"
 "http://www.w3.org/Graphics/SVG/1.1/DTD/svg11.dtd">
<!-- Generated by graphviz version 2.40.1 (20161225.0304)
 -->
<!-- Title: oneDegreeRelationshipsDiagram Pages: 1 -->
<svg width="319pt" height="250pt"
 viewBox="0.00 0.00 319.00 250.20" xmlns="http://www.w3.org/2000/svg" xmlns:xlink="http://www.w3.org/1999/xlink">
<g id="graph0" class="graph" transform="scale(1 1) rotate(0) translate(4 246.2)">
<title>oneDegreeRelationshipsDiagram</title>
<polygon fill="#ffffff" stroke="transparent" points="-4,4 -4,-246.2 315,-246.2 315,4 -4,4"/>
<text text-anchor="middle" x="72.4936" y="-7.3" font-family="Helvetica,sans-Serif" font-size="11.00" fill="#000000">Generated by SchemaSpy</text>
<!-- 顧客別販売単価 -->
<g id="node1" class="node">
<title>顧客別販売単価</title>
<g id="a_node1"><a xlink:href="../../tables/________201bd2dc.html" xlink:title="顧客別販売単価" target="_top">
<polygon fill="#ffffff" stroke="transparent" points="140,-38.2 140,-238.2 303,-238.2 303,-38.2 140,-38.2"/>
<polygon fill="#f5f5f5" stroke="transparent" points="142.5,-213.2 142.5,-236.2 301.5,-236.2 301.5,-213.2 142.5,-213.2"/>
<polygon fill="none" stroke="#000000" points="142.5,-213.2 142.5,-236.2 301.5,-236.2 301.5,-213.2 142.5,-213.2"/>
<text text-anchor="start" x="125.6015" y="-221.8" font-family="Helvetica,sans-Serif" font-weight="bold" font-size="11.00" fill="#000000">顧客別販売単価</text>
<text text-anchor="start" x="266.5437" y="-221.3" font-family="Helvetica,sans-Serif" font-size="11.00" fill="#000000">[table]</text>
<polygon fill="none" stroke="#000000" points="142.5,-191.2 142.5,-213.2 217.5,-213.2 217.5,-191.2 142.5,-191.2"/>
<image xlink:href="../../images/primaryKeys.png" width="11px" height="12px" preserveAspectRatio="xMinYMin meet" x="147.5" y="-208.2"/>
<text text-anchor="start" x="157.5547" y="-198.3" font-family="Helvetica,sans-Serif" font-size="11.00" fill="#000000">商品コード</text>
<polygon fill="none" stroke="#000000" points="217.5,-191.2 217.5,-213.2 301.5,-213.2 301.5,-191.2 217.5,-191.2"/>
<text text-anchor="start" x="220.5" y="-198.9" font-family="Helvetica,sans-Serif" font-size="11.00" fill="#000000">varchar[16]</text>
<polygon fill="none" stroke="#000000" points="142.5,-169.2 142.5,-191.2 217.5,-191.2 217.5,-169.2 142.5,-169.2"/>
<image xlink:href="../../images/primaryKeys.png" width="11px" height="12px" preserveAspectRatio="xMinYMin meet" x="147.5" y="-186.2"/>
<text text-anchor="start" x="148.9978" y="-176.3" font-family="Helvetica,sans-Serif" font-size="11.00" fill="#000000">取引先コード</text>
<polygon fill="none" stroke="#000000" points="217.5,-169.2 217.5,-191.2 301.5,-191.2 301.5,-169.2 217.5,-169.2"/>
<text text-anchor="start" x="220.5" y="-176.9" font-family="Helvetica,sans-Serif" font-size="11.00" fill="#000000">varchar[8]</text>
<polygon fill="none" stroke="#000000" points="142.5,-147.2 142.5,-169.2 217.5,-169.2 217.5,-147.2 142.5,-147.2"/>
<text text-anchor="start" x="162.5" y="-154.3" font-family="Helvetica,sans-Serif" font-size="11.00" fill="#000000">販売単価</text>
<polygon fill="none" stroke="#000000" points="217.5,-147.2 217.5,-169.2 301.5,-169.2 301.5,-147.2 217.5,-147.2"/>
<text text-anchor="start" x="220.5" y="-154.9" font-family="Helvetica,sans-Serif" font-size="11.00" fill="#000000">int4[10]</text>
<polygon fill="none" stroke="#000000" points="142.5,-125.2 142.5,-147.2 217.5,-147.2 217.5,-125.2 142.5,-125.2"/>
<text text-anchor="start" x="162.5" y="-132.3" font-family="Helvetica,sans-Serif" font-size="11.00" fill="#000000">作成日時</text>
<polygon fill="none" stroke="#000000" points="217.5,-125.2 217.5,-147.2 301.5,-147.2 301.5,-125.2 217.5,-125.2"/>
<text text-anchor="start" x="220.3807" y="-132.9" font-family="Helvetica,sans-Serif" font-size="11.00" fill="#000000">timestamp[29,6]</text>
<polygon fill="none" stroke="#000000" points="142.5,-103.2 142.5,-125.2 217.5,-125.2 217.5,-103.2 142.5,-103.2"/>
<text text-anchor="start" x="162.5" y="-110.3" font-family="Helvetica,sans-Serif" font-size="11.00" fill="#000000">作成者名</text>
<polygon fill="none" stroke="#000000" points="217.5,-103.2 217.5,-125.2 301.5,-125.2 301.5,-103.2 217.5,-103.2"/>
<text text-anchor="start" x="220.5" y="-110.9" font-family="Helvetica,sans-Serif" font-size="11.00" fill="#000000">varchar[12]</text>
<polygon fill="none" stroke="#000000" points="142.5,-81.2 142.5,-103.2 217.5,-103.2 217.5,-81.2 142.5,-81.2"/>
<text text-anchor="start" x="162.5" y="-88.3" font-family="Helvetica,sans-Serif" font-size="11.00" fill="#000000">更新日時</text>
<polygon fill="none" stroke="#000000" points="217.5,-81.2 217.5,-103.2 301.5,-103.2 301.5,-81.2 217.5,-81.2"/>
<text text-anchor="start" x="220.3807" y="-88.9" font-family="Helvetica,sans-Serif" font-size="11.00" fill="#000000">timestamp[29,6]</text>
<polygon fill="none" stroke="#000000" points="142.5,-59.2 142.5,-81.2 217.5,-81.2 217.5,-59.2 142.5,-59.2"/>
<text text-anchor="start" x="162.5" y="-66.3" font-family="Helvetica,sans-Serif" font-size="11.00" fill="#000000">更新者名</text>
<polygon fill="none" stroke="#000000" points="217.5,-59.2 217.5,-81.2 301.5,-81.2 301.5,-59.2 217.5,-59.2"/>
<text text-anchor="start" x="220.5" y="-66.9" font-family="Helvetica,sans-Serif" font-size="11.00" fill="#000000">varchar[12]</text>
<polygon fill="#ffffff" stroke="transparent" points="142.5,-40.2 142.5,-59.2 301.5,-59.2 301.5,-40.2 142.5,-40.2"/>
<polygon fill="none" stroke="#000000" points="142.5,-40.2 142.5,-59.2 301.5,-59.2 301.5,-40.2 142.5,-40.2"/>
<polygon fill="#ffffff" stroke="transparent" points="143.5,-41.2 143.5,-58.2 199.5,-58.2 199.5,-41.2 143.5,-41.2"/>
<text text-anchor="start" x="145.5" y="-46.3" font-family="Helvetica,sans-Serif" font-size="11.00" fill="#000000">&lt; 1</text>
<polygon fill="#ffffff" stroke="transparent" points="199.5,-41.2 199.5,-58.2 245.5,-58.2 245.5,-41.2 199.5,-41.2"/>
<text text-anchor="start" x="219.4431" y="-46.3" font-family="Helvetica,sans-Serif" font-size="11.00" fill="#000000"> &#160;</text>
<polygon fill="#ffffff" stroke="transparent" points="245.5,-41.2 245.5,-58.2 300.5,-58.2 300.5,-41.2 245.5,-41.2"/>
<text text-anchor="start" x="282.9053" y="-46.3" font-family="Helvetica,sans-Serif" font-size="11.00" fill="#000000">0 &gt;</text>
<polygon fill="#000000" stroke="#000000" points="199.5,-41.2 199.5,-58.2 199.5,-58.2 199.5,-41.2 199.5,-41.2"/>
<polygon fill="#000000" stroke="#000000" points="245.5,-41.2 245.5,-58.2 245.5,-58.2 245.5,-41.2 245.5,-41.2"/>
<polygon fill="none" stroke="#000000" stroke-width="2" points="141,-39.2 141,-237.2 302,-237.2 302,-39.2 141,-39.2"/>
</a>
</g>
</g>
<!-- 商品マスタ -->
<g id="node2" class="node">
<title>商品マスタ</title>
<g id="a_node2"><a xlink:href="../../tables/______d8ecb269.html" xlink:title="商品マスタ" target="_top">
<polygon fill="#ffffff" stroke="transparent" points="8,-65.7 8,-236.7 91,-236.7 91,-65.7 8,-65.7"/>
<polygon fill="#f5f5f5" stroke="transparent" points="8.5,-213.2 8.5,-236.2 91.5,-236.2 91.5,-213.2 8.5,-213.2"/>
<polygon fill="none" stroke="#000000" points="8.5,-213.2 8.5,-236.2 91.5,-236.2 91.5,-213.2 8.5,-213.2"/>
<text text-anchor="start" x="4.4213" y="-221.8" font-family="Helvetica,sans-Serif" font-weight="bold" font-size="11.00" fill="#000000">商品マスタ</text>
<text text-anchor="start" x="56.5437" y="-221.3" font-family="Helvetica,sans-Serif" font-size="11.00" fill="#000000">[table]</text>
<polygon fill="none" stroke="#000000" points="8.5,-191.2 8.5,-213.2 91.5,-213.2 91.5,-191.2 8.5,-191.2"/>
<image xlink:href="../../images/primaryKeys.png" width="11px" height="12px" preserveAspectRatio="xMinYMin meet" x="13.5" y="-208.2"/>
<text text-anchor="start" x="27.5547" y="-198.3" font-family="Helvetica,sans-Serif" font-size="11.00" fill="#000000">商品コード</text>
<polygon fill="#ffffff" stroke="transparent" points="8.5,-169.2 8.5,-191.2 91.5,-191.2 91.5,-169.2 8.5,-169.2"/>
<polygon fill="none" stroke="#000000" points="8.5,-169.2 8.5,-191.2 91.5,-191.2 91.5,-169.2 8.5,-169.2"/>
<text text-anchor="start" x="28.5" y="-176.3" font-family="Helvetica,sans-Serif" font-size="11.00" fill="#000000">商品略称</text>
<polygon fill="#ffffff" stroke="transparent" points="8.5,-147.2 8.5,-169.2 91.5,-169.2 91.5,-147.2 8.5,-147.2"/>
<polygon fill="none" stroke="#000000" points="8.5,-147.2 8.5,-169.2 91.5,-169.2 91.5,-147.2 8.5,-147.2"/>
<image xlink:href="../../images/foreignKeys.png" width="11px" height="12px" preserveAspectRatio="xMinYMin meet" x="13.5" y="-164.2"/>
<text text-anchor="start" x="15.3315" y="-154.3" font-family="Helvetica,sans-Serif" font-size="11.00" fill="#000000">商品分類コード</text>
<polygon fill="#ffffff" stroke="transparent" points="8.5,-125.2 8.5,-147.2 91.5,-147.2 91.5,-125.2 8.5,-125.2"/>
<polygon fill="none" stroke="#000000" points="8.5,-125.2 8.5,-147.2 91.5,-147.2 91.5,-125.2 8.5,-125.2"/>
<text text-anchor="start" x="19.9114" y="-132.3" font-family="Helvetica,sans-Serif" font-size="11.00" fill="#000000">仕入先コード</text>
<polygon fill="#ffffff" stroke="transparent" points="8.5,-103.2 8.5,-125.2 91.5,-125.2 91.5,-103.2 8.5,-103.2"/>
<polygon fill="none" stroke="#000000" points="8.5,-103.2 8.5,-125.2 91.5,-125.2 91.5,-103.2 8.5,-103.2"/>
<text text-anchor="start" x="28.5" y="-110.3" font-family="Helvetica,sans-Serif" font-size="11.00" fill="#000000">仕入先枝番</text>
<polygon fill="none" stroke="#000000" points="8.5,-84.2 8.5,-103.2 91.5,-103.2 91.5,-84.2 8.5,-84.2"/>
<text text-anchor="start" x="11.5" y="-90.3" font-family="Helvetica,sans-Serif" font-size="11.00" fill="#000000">...</text>
<polygon fill="#ffffff" stroke="transparent" points="8.5,-65.2 8.5,-84.2 91.5,-84.2 91.5,-65.2 8.5,-65.2"/>
<polygon fill="none" stroke="#000000" points="8.5,-65.2 8.5,-84.2 91.5,-84.2 91.5,-65.2 8.5,-65.2"/>
<polygon fill="#ffffff" stroke="transparent" points="9.5,-66.2 9.5,-83.2 39.5,-83.2 39.5,-66.2 9.5,-66.2"/>
<text text-anchor="start" x="11.5" y="-71.3" font-family="Helvetica,sans-Serif" font-size="11.00" fill="#000000">&lt; 1</text>
<polygon fill="#ffffff" stroke="transparent" points="39.5,-66.2 39.5,-83.2 60.5,-83.2 60.5,-66.2 39.5,-66.2"/>
<text text-anchor="start" x="46.9431" y="-71.3" font-family="Helvetica,sans-Serif" font-size="11.00" fill="#000000"> &#160;</text>
<polygon fill="#ffffff" stroke="transparent" points="60.5,-66.2 60.5,-83.2 90.5,-83.2 90.5,-66.2 60.5,-66.2"/>
<text text-anchor="start" x="72.9053" y="-71.3" font-family="Helvetica,sans-Serif" font-size="11.00" fill="#000000">6 &gt;</text>
<polygon fill="#000000" stroke="#000000" points="39.5,-66.2 39.5,-83.2 39.5,-83.2 39.5,-66.2 39.5,-66.2"/>
<polygon fill="#000000" stroke="#000000" points="60.5,-66.2 60.5,-83.2 60.5,-83.2 60.5,-66.2 60.5,-66.2"/>
</a>
</g>
</g>
<!-- 顧客別販売単価&#45;&gt;商品マスタ -->
<g id="edge1" class="edge">
<title>顧客別販売単価:w&#45;&gt;商品マスタ:e</title>
<path fill="none" stroke="#000000" d="M127.776,-202.2C115.7815,-202.2 108.3229,-202.2 91.5,-202.2"/>
<polygon fill="#000000" stroke="#000000" points="134.5,-202.2001 142.5,-205.8 138.5,-202.2 142.5,-202.2 142.5,-202.2 142.5,-202.2 138.5,-202.2 142.5,-198.6 134.5,-202.2001 134.5,-202.2001"/>
<ellipse fill="none" stroke="#000000" cx="131.3" cy="-202.2001" rx="3.2" ry="3.2"/>
</g>
</g>
</svg>
