<?xml version="1.0" encoding="UTF-8" standalone="no"?>
<!DOCTYPE svg PUBLIC "-//W3C//DTD SVG 1.1//EN"
 "http://www.w3.org/Graphics/SVG/1.1/DTD/svg11.dtd">
<!-- Generated by graphviz version 2.40.1 (20161225.0304)
 -->
<!-- Title: twoDegreesRelationshipsDiagram Pages: 1 -->
<svg width="752pt" height="1046pt"
 viewBox="0.00 0.00 752.00 1046.37" xmlns="http://www.w3.org/2000/svg" xmlns:xlink="http://www.w3.org/1999/xlink">
<g id="graph0" class="graph" transform="scale(1 1) rotate(0) translate(4 1042.3736)">
<title>twoDegreesRelationshipsDiagram</title>
<polygon fill="#ffffff" stroke="transparent" points="-4,4 -4,-1042.3736 748,-1042.3736 748,4 -4,4"/>
<text text-anchor="middle" x="72.4936" y="-7.3" font-family="Helvetica,sans-Serif" font-size="11.00" fill="#000000">Generated by SchemaSpy</text>
<!-- 与信残高 -->
<g id="node1" class="node">
<title>与信残高</title>
<g id="a_node1"><a xlink:href="../../tables/_____24b4cb80.html" xlink:title="与信残高" target="_top">
<polygon fill="#ffffff" stroke="transparent" points="376.5,-973.3736 376.5,-1034.3736 446.5,-1034.3736 446.5,-973.3736 376.5,-973.3736"/>
<polygon fill="#f5f5f5" stroke="transparent" points="376.5,-1010.8736 376.5,-1033.8736 446.5,-1033.8736 446.5,-1010.8736 376.5,-1010.8736"/>
<polygon fill="none" stroke="#000000" points="376.5,-1010.8736 376.5,-1033.8736 446.5,-1033.8736 446.5,-1010.8736 376.5,-1010.8736"/>
<text text-anchor="start" x="369.3321" y="-1019.4736" font-family="Helvetica,sans-Serif" font-weight="bold" font-size="11.00" fill="#000000">与信残高</text>
<text text-anchor="start" x="412.0219" y="-1018.9736" font-family="Helvetica,sans-Serif" font-size="11.00" fill="#000000">[table]</text>
<polygon fill="none" stroke="#000000" points="376.5,-991.8736 376.5,-1010.8736 446.5,-1010.8736 446.5,-991.8736 376.5,-991.8736"/>
<text text-anchor="start" x="379.5" y="-997.9736" font-family="Helvetica,sans-Serif" font-size="11.00" fill="#000000">...</text>
<polygon fill="#ffffff" stroke="transparent" points="376.5,-972.8736 376.5,-991.8736 446.5,-991.8736 446.5,-972.8736 376.5,-972.8736"/>
<polygon fill="none" stroke="#000000" points="376.5,-972.8736 376.5,-991.8736 446.5,-991.8736 446.5,-972.8736 376.5,-972.8736"/>
<polygon fill="#ffffff" stroke="transparent" points="377.5,-973.8736 377.5,-990.8736 406.5,-990.8736 406.5,-973.8736 377.5,-973.8736"/>
<text text-anchor="start" x="379.5" y="-978.9736" font-family="Helvetica,sans-Serif" font-size="11.00" fill="#000000">&lt; 1</text>
<polygon fill="#ffffff" stroke="transparent" points="406.5,-973.8736 406.5,-990.8736 426.5,-990.8736 426.5,-973.8736 406.5,-973.8736"/>
<text text-anchor="start" x="413.4431" y="-978.9736" font-family="Helvetica,sans-Serif" font-size="11.00" fill="#000000"> &#160;</text>
<polygon fill="#ffffff" stroke="transparent" points="426.5,-973.8736 426.5,-990.8736 445.5,-990.8736 445.5,-973.8736 426.5,-973.8736"/>
<text text-anchor="start" x="437.3862" y="-978.9736" font-family="Helvetica,sans-Serif" font-size="11.00" fill="#000000"> &#160;</text>
<polygon fill="#000000" stroke="#000000" points="406.5,-973.8736 406.5,-990.8736 406.5,-990.8736 406.5,-973.8736 406.5,-973.8736"/>
<polygon fill="#000000" stroke="#000000" points="426.5,-973.8736 426.5,-990.8736 426.5,-990.8736 426.5,-973.8736 426.5,-973.8736"/>
</a>
</g>
</g>
<!-- 取引先マスタ -->
<g id="node2" class="node">
<title>取引先マスタ</title>
<g id="a_node2"><a xlink:href="../../tables/_______70f9c0bb.html" xlink:title="取引先マスタ" target="_top">
<polygon fill="#ffffff" stroke="transparent" points="174,-800.3736 174,-927.3736 273,-927.3736 273,-800.3736 174,-800.3736"/>
<polygon fill="#f5f5f5" stroke="transparent" points="174.5,-903.8736 174.5,-926.8736 273.5,-926.8736 273.5,-903.8736 174.5,-903.8736"/>
<polygon fill="none" stroke="#000000" points="174.5,-903.8736 174.5,-926.8736 273.5,-926.8736 273.5,-903.8736 174.5,-903.8736"/>
<text text-anchor="start" x="165.3644" y="-912.4736" font-family="Helvetica,sans-Serif" font-weight="bold" font-size="11.00" fill="#000000">取引先マスタ</text>
<text text-anchor="start" x="238.5437" y="-911.9736" font-family="Helvetica,sans-Serif" font-size="11.00" fill="#000000">[table]</text>
<polygon fill="none" stroke="#000000" points="174.5,-881.8736 174.5,-903.8736 273.5,-903.8736 273.5,-881.8736 174.5,-881.8736"/>
<image xlink:href="../../images/primaryKeys.png" width="11px" height="12px" preserveAspectRatio="xMinYMin meet" x="179.5" y="-898.874"/>
<text text-anchor="start" x="192.9978" y="-888.9736" font-family="Helvetica,sans-Serif" font-size="11.00" fill="#000000">取引先コード</text>
<polygon fill="#ffffff" stroke="transparent" points="174.5,-859.8736 174.5,-881.8736 273.5,-881.8736 273.5,-859.8736 174.5,-859.8736"/>
<polygon fill="none" stroke="#000000" points="174.5,-859.8736 174.5,-881.8736 273.5,-881.8736 273.5,-859.8736 174.5,-859.8736"/>
<text text-anchor="start" x="194.5" y="-866.9736" font-family="Helvetica,sans-Serif" font-size="11.00" fill="#000000">取引先名</text>
<polygon fill="#ffffff" stroke="transparent" points="174.5,-837.8736 174.5,-859.8736 273.5,-859.8736 273.5,-837.8736 174.5,-837.8736"/>
<polygon fill="none" stroke="#000000" points="174.5,-837.8736 174.5,-859.8736 273.5,-859.8736 273.5,-837.8736 174.5,-837.8736"/>
<image xlink:href="../../images/foreignKeys.png" width="11px" height="12px" preserveAspectRatio="xMinYMin meet" x="179.5" y="-854.874"/>
<text text-anchor="start" x="167.1318" y="-844.9736" font-family="Helvetica,sans-Serif" font-size="11.00" fill="#000000">取引先グループコード</text>
<polygon fill="none" stroke="#000000" points="174.5,-818.8736 174.5,-837.8736 273.5,-837.8736 273.5,-818.8736 174.5,-818.8736"/>
<text text-anchor="start" x="177.5" y="-824.9736" font-family="Helvetica,sans-Serif" font-size="11.00" fill="#000000">...</text>
<polygon fill="#ffffff" stroke="transparent" points="174.5,-799.8736 174.5,-818.8736 273.5,-818.8736 273.5,-799.8736 174.5,-799.8736"/>
<polygon fill="none" stroke="#000000" points="174.5,-799.8736 174.5,-818.8736 273.5,-818.8736 273.5,-799.8736 174.5,-799.8736"/>
<polygon fill="#ffffff" stroke="transparent" points="175.5,-800.8736 175.5,-817.8736 211.5,-817.8736 211.5,-800.8736 175.5,-800.8736"/>
<text text-anchor="start" x="177.5" y="-805.9736" font-family="Helvetica,sans-Serif" font-size="11.00" fill="#000000">&lt; 1</text>
<polygon fill="#ffffff" stroke="transparent" points="211.5,-800.8736 211.5,-817.8736 237.5,-817.8736 237.5,-800.8736 211.5,-800.8736"/>
<text text-anchor="start" x="221.4431" y="-805.9736" font-family="Helvetica,sans-Serif" font-size="11.00" fill="#000000"> &#160;</text>
<polygon fill="#ffffff" stroke="transparent" points="237.5,-800.8736 237.5,-817.8736 272.5,-817.8736 272.5,-800.8736 237.5,-800.8736"/>
<text text-anchor="start" x="254.9053" y="-805.9736" font-family="Helvetica,sans-Serif" font-size="11.00" fill="#000000">4 &gt;</text>
<polygon fill="#000000" stroke="#000000" points="211.5,-800.8736 211.5,-817.8736 211.5,-817.8736 211.5,-800.8736 211.5,-800.8736"/>
<polygon fill="#000000" stroke="#000000" points="237.5,-800.8736 237.5,-817.8736 237.5,-817.8736 237.5,-800.8736 237.5,-800.8736"/>
</a>
</g>
</g>
<!-- 与信残高&#45;&gt;取引先マスタ -->
<g id="edge1" class="edge">
<title>与信残高:w&#45;&gt;取引先マスタ:e</title>
<path fill="none" stroke="#000000" d="M366.0459,-1000.2755C342.0779,-997.297 334.0715,-983.3868 314,-962.8736 288.8626,-937.183 309.443,-892.8736 273.5,-892.8736"/>
<polygon fill="#000000" stroke="#000000" points="375.9298,-996.8344 375.4728,-1004.8214 373.8754,-1004.73 374.3324,-996.743 375.9298,-996.8344"/>
<polyline fill="none" stroke="#000000" points="376.5,-1000.8736 372.5065,-1000.6451 "/>
<ellipse fill="none" stroke="#000000" cx="369.3118" cy="-1000.4623" rx="3.2" ry="3.2"/>
</g>
<!-- 取引先グループマスタ -->
<g id="node4" class="node">
<title>取引先グループマスタ</title>
<g id="a_node4"><a xlink:href="../../tables/___________d6a542a5.html" xlink:title="取引先グループマスタ" target="_top">
<polygon fill="#ffffff" stroke="transparent" points="8,-821.3736 8,-882.3736 125,-882.3736 125,-821.3736 8,-821.3736"/>
<polygon fill="#f5f5f5" stroke="transparent" points="8.5,-858.8736 8.5,-881.8736 125.5,-881.8736 125.5,-858.8736 8.5,-858.8736"/>
<polygon fill="none" stroke="#000000" points="8.5,-858.8736 8.5,-881.8736 125.5,-881.8736 125.5,-858.8736 8.5,-858.8736"/>
<text text-anchor="start" x="-10.5016" y="-867.4736" font-family="Helvetica,sans-Serif" font-weight="bold" font-size="11.00" fill="#000000">取引先グループマスタ</text>
<text text-anchor="start" x="91.0219" y="-866.9736" font-family="Helvetica,sans-Serif" font-size="11.00" fill="#000000">[table]</text>
<polygon fill="none" stroke="#000000" points="8.5,-839.8736 8.5,-858.8736 125.5,-858.8736 125.5,-839.8736 8.5,-839.8736"/>
<text text-anchor="start" x="11.5" y="-845.9736" font-family="Helvetica,sans-Serif" font-size="11.00" fill="#000000">...</text>
<polygon fill="#ffffff" stroke="transparent" points="8.5,-820.8736 8.5,-839.8736 125.5,-839.8736 125.5,-820.8736 8.5,-820.8736"/>
<polygon fill="none" stroke="#000000" points="8.5,-820.8736 8.5,-839.8736 125.5,-839.8736 125.5,-820.8736 8.5,-820.8736"/>
<polygon fill="#ffffff" stroke="transparent" points="9.5,-821.8736 9.5,-838.8736 45.5,-838.8736 45.5,-821.8736 9.5,-821.8736"/>
<text text-anchor="start" x="11.5" y="-826.9736" font-family="Helvetica,sans-Serif" font-size="11.00" fill="#000000"> &#160;</text>
<polygon fill="#ffffff" stroke="transparent" points="45.5,-821.8736 45.5,-838.8736 80.5,-838.8736 80.5,-821.8736 45.5,-821.8736"/>
<text text-anchor="start" x="59.9431" y="-826.9736" font-family="Helvetica,sans-Serif" font-size="11.00" fill="#000000"> &#160;</text>
<polygon fill="#ffffff" stroke="transparent" points="80.5,-821.8736 80.5,-838.8736 124.5,-838.8736 124.5,-821.8736 80.5,-821.8736"/>
<text text-anchor="start" x="106.9053" y="-826.9736" font-family="Helvetica,sans-Serif" font-size="11.00" fill="#000000">1 &gt;</text>
<polygon fill="#000000" stroke="#000000" points="45.5,-821.8736 45.5,-838.8736 45.5,-838.8736 45.5,-821.8736 45.5,-821.8736"/>
<polygon fill="#000000" stroke="#000000" points="80.5,-821.8736 80.5,-838.8736 80.5,-838.8736 80.5,-821.8736 80.5,-821.8736"/>
</a>
</g>
</g>
<!-- 取引先マスタ&#45;&gt;取引先グループマスタ -->
<g id="edge3" class="edge">
<title>取引先マスタ:w&#45;&gt;取引先グループマスタ:e</title>
<path fill="none" stroke="#000000" d="M159.9909,-848.8736C148.6774,-848.8736 141.4931,-848.8736 125.5,-848.8736"/>
<polygon fill="#000000" stroke="#000000" points="166.5,-848.8737 174.5,-852.4736 170.5,-848.8736 174.5,-848.8736 174.5,-848.8736 174.5,-848.8736 170.5,-848.8736 174.5,-845.2736 166.5,-848.8737 166.5,-848.8737"/>
<ellipse fill="none" stroke="#000000" cx="163.3" cy="-848.8737" rx="3.2" ry="3.2"/>
</g>
<!-- 仕入先マスタ -->
<g id="node3" class="node">
<title>仕入先マスタ</title>
<g id="a_node3"><a xlink:href="../../tables/_______2628176c.html" xlink:title="仕入先マスタ" target="_top">
<polygon fill="#ffffff" stroke="transparent" points="369,-891.3736 369,-952.3736 454,-952.3736 454,-891.3736 369,-891.3736"/>
<polygon fill="#f5f5f5" stroke="transparent" points="369.5,-928.8736 369.5,-951.8736 454.5,-951.8736 454.5,-928.8736 369.5,-928.8736"/>
<polygon fill="none" stroke="#000000" points="369.5,-928.8736 369.5,-951.8736 454.5,-951.8736 454.5,-928.8736 369.5,-928.8736"/>
<text text-anchor="start" x="361.2779" y="-937.4736" font-family="Helvetica,sans-Serif" font-weight="bold" font-size="11.00" fill="#000000">仕入先マスタ</text>
<text text-anchor="start" x="420.0219" y="-936.9736" font-family="Helvetica,sans-Serif" font-size="11.00" fill="#000000">[table]</text>
<polygon fill="none" stroke="#000000" points="369.5,-909.8736 369.5,-928.8736 454.5,-928.8736 454.5,-909.8736 369.5,-909.8736"/>
<text text-anchor="start" x="372.5" y="-915.9736" font-family="Helvetica,sans-Serif" font-size="11.00" fill="#000000">...</text>
<polygon fill="#ffffff" stroke="transparent" points="369.5,-890.8736 369.5,-909.8736 454.5,-909.8736 454.5,-890.8736 369.5,-890.8736"/>
<polygon fill="none" stroke="#000000" points="369.5,-890.8736 369.5,-909.8736 454.5,-909.8736 454.5,-890.8736 369.5,-890.8736"/>
<polygon fill="#ffffff" stroke="transparent" points="370.5,-891.8736 370.5,-908.8736 404.5,-908.8736 404.5,-891.8736 370.5,-891.8736"/>
<text text-anchor="start" x="372.5" y="-896.9736" font-family="Helvetica,sans-Serif" font-size="11.00" fill="#000000">&lt; 1</text>
<polygon fill="#ffffff" stroke="transparent" points="404.5,-891.8736 404.5,-908.8736 429.5,-908.8736 429.5,-891.8736 404.5,-891.8736"/>
<text text-anchor="start" x="413.9431" y="-896.9736" font-family="Helvetica,sans-Serif" font-size="11.00" fill="#000000"> &#160;</text>
<polygon fill="#ffffff" stroke="transparent" points="429.5,-891.8736 429.5,-908.8736 453.5,-908.8736 453.5,-891.8736 429.5,-891.8736"/>
<text text-anchor="start" x="445.3862" y="-896.9736" font-family="Helvetica,sans-Serif" font-size="11.00" fill="#000000"> &#160;</text>
<polygon fill="#000000" stroke="#000000" points="404.5,-891.8736 404.5,-908.8736 404.5,-908.8736 404.5,-891.8736 404.5,-891.8736"/>
<polygon fill="#000000" stroke="#000000" points="429.5,-891.8736 429.5,-908.8736 429.5,-908.8736 429.5,-891.8736 429.5,-891.8736"/>
</a>
</g>
</g>
<!-- 仕入先マスタ&#45;&gt;取引先マスタ -->
<g id="edge2" class="edge">
<title>仕入先マスタ:w&#45;&gt;取引先マスタ:e</title>
<path fill="none" stroke="#000000" d="M354.9221,-917.8222C322.9206,-912.958 312.351,-892.8736 273.5,-892.8736"/>
<polygon fill="#000000" stroke="#000000" points="361.5207,-918.2981 369.241,-922.4643 365.5104,-918.5858 369.5,-918.8736 369.5,-918.8736 369.5,-918.8736 365.5104,-918.5858 369.759,-915.2829 361.5207,-918.2981 361.5207,-918.2981"/>
<ellipse fill="none" stroke="#000000" cx="358.329" cy="-918.0678" rx="3.2" ry="3.2"/>
</g>
<!-- 受注 -->
<g id="node5" class="node">
<title>受注</title>
<g id="a_node5"><a xlink:href="../../tables/___a93f1.html" xlink:title="受注" target="_top">
<polygon fill="#ffffff" stroke="transparent" points="550,-605.3736 550,-842.3736 617,-842.3736 617,-605.3736 550,-605.3736"/>
<polygon fill="#f5f5f5" stroke="transparent" points="550.5,-818.8736 550.5,-841.8736 617.5,-841.8736 617.5,-818.8736 550.5,-818.8736"/>
<polygon fill="none" stroke="#000000" points="550.5,-818.8736 550.5,-841.8736 617.5,-841.8736 617.5,-818.8736 550.5,-818.8736"/>
<text text-anchor="start" x="548.7713" y="-827.4736" font-family="Helvetica,sans-Serif" font-weight="bold" font-size="11.00" fill="#000000">受注</text>
<text text-anchor="start" x="582.5437" y="-826.9736" font-family="Helvetica,sans-Serif" font-size="11.00" fill="#000000">[table]</text>
<polygon fill="none" stroke="#000000" points="550.5,-796.8736 550.5,-818.8736 617.5,-818.8736 617.5,-796.8736 550.5,-796.8736"/>
<image xlink:href="../../images/primaryKeys.png" width="11px" height="12px" preserveAspectRatio="xMinYMin meet" x="555.5" y="-813.874"/>
<text text-anchor="start" x="569.4021" y="-803.9736" font-family="Helvetica,sans-Serif" font-size="11.00" fill="#000000">受注番号</text>
<polygon fill="#ffffff" stroke="transparent" points="550.5,-774.8736 550.5,-796.8736 617.5,-796.8736 617.5,-774.8736 550.5,-774.8736"/>
<polygon fill="none" stroke="#000000" points="550.5,-774.8736 550.5,-796.8736 617.5,-796.8736 617.5,-774.8736 550.5,-774.8736"/>
<text text-anchor="start" x="570.5" y="-781.9736" font-family="Helvetica,sans-Serif" font-size="11.00" fill="#000000">受注日</text>
<polygon fill="none" stroke="#000000" points="550.5,-752.8736 550.5,-774.8736 617.5,-774.8736 617.5,-752.8736 550.5,-752.8736"/>
<image xlink:href="../../images/foreignKeys.png" width="11px" height="12px" preserveAspectRatio="xMinYMin meet" x="555.5" y="-769.874"/>
<text text-anchor="start" x="554.5257" y="-759.9736" font-family="Helvetica,sans-Serif" font-size="11.00" fill="#000000">部門コード</text>
<polygon fill="none" stroke="#000000" points="550.5,-730.8736 550.5,-752.8736 617.5,-752.8736 617.5,-730.8736 550.5,-730.8736"/>
<image xlink:href="../../images/foreignKeys.png" width="11px" height="12px" preserveAspectRatio="xMinYMin meet" x="555.5" y="-747.874"/>
<text text-anchor="start" x="570.5" y="-737.9736" font-family="Helvetica,sans-Serif" font-size="11.00" fill="#000000">開始日</text>
<polygon fill="#ffffff" stroke="transparent" points="550.5,-708.8736 550.5,-730.8736 617.5,-730.8736 617.5,-708.8736 550.5,-708.8736"/>
<polygon fill="none" stroke="#000000" points="550.5,-708.8736 550.5,-730.8736 617.5,-730.8736 617.5,-708.8736 550.5,-708.8736"/>
<image xlink:href="../../images/foreignKeys.png" width="11px" height="12px" preserveAspectRatio="xMinYMin meet" x="555.5" y="-725.874"/>
<text text-anchor="start" x="554.2227" y="-715.9736" font-family="Helvetica,sans-Serif" font-size="11.00" fill="#000000">顧客コード</text>
<polygon fill="#ffffff" stroke="transparent" points="550.5,-686.8736 550.5,-708.8736 617.5,-708.8736 617.5,-686.8736 550.5,-686.8736"/>
<polygon fill="none" stroke="#000000" points="550.5,-686.8736 550.5,-708.8736 617.5,-708.8736 617.5,-686.8736 550.5,-686.8736"/>
<image xlink:href="../../images/foreignKeys.png" width="11px" height="12px" preserveAspectRatio="xMinYMin meet" x="555.5" y="-703.874"/>
<text text-anchor="start" x="565.5241" y="-693.9736" font-family="Helvetica,sans-Serif" font-size="11.00" fill="#000000">顧客枝番</text>
<polygon fill="#ffffff" stroke="transparent" points="550.5,-664.8736 550.5,-686.8736 617.5,-686.8736 617.5,-664.8736 550.5,-664.8736"/>
<polygon fill="none" stroke="#000000" points="550.5,-664.8736 550.5,-686.8736 617.5,-686.8736 617.5,-664.8736 550.5,-664.8736"/>
<image xlink:href="../../images/foreignKeys.png" width="11px" height="12px" preserveAspectRatio="xMinYMin meet" x="555.5" y="-681.874"/>
<text text-anchor="start" x="561.8627" y="-671.9736" font-family="Helvetica,sans-Serif" font-size="11.00" fill="#000000">社員コード</text>
<polygon fill="none" stroke="#000000" points="550.5,-642.8736 550.5,-664.8736 617.5,-664.8736 617.5,-642.8736 550.5,-642.8736"/>
<image xlink:href="../../images/foreignKeys.png" width="11px" height="12px" preserveAspectRatio="xMinYMin meet" x="555.5" y="-659.874"/>
<text text-anchor="start" x="559.7232" y="-649.9736" font-family="Helvetica,sans-Serif" font-size="11.00" fill="#000000">倉庫コード</text>
<polygon fill="none" stroke="#000000" points="550.5,-623.8736 550.5,-642.8736 617.5,-642.8736 617.5,-623.8736 550.5,-623.8736"/>
<text text-anchor="start" x="553.5" y="-629.9736" font-family="Helvetica,sans-Serif" font-size="11.00" fill="#000000">...</text>
<polygon fill="#ffffff" stroke="transparent" points="550.5,-604.8736 550.5,-623.8736 617.5,-623.8736 617.5,-604.8736 550.5,-604.8736"/>
<polygon fill="none" stroke="#000000" points="550.5,-604.8736 550.5,-623.8736 617.5,-623.8736 617.5,-604.8736 550.5,-604.8736"/>
<polygon fill="#ffffff" stroke="transparent" points="551.5,-605.8736 551.5,-622.8736 576.5,-622.8736 576.5,-605.8736 551.5,-605.8736"/>
<text text-anchor="start" x="553.5" y="-610.9736" font-family="Helvetica,sans-Serif" font-size="11.00" fill="#000000">&lt; 5</text>
<polygon fill="#ffffff" stroke="transparent" points="576.5,-605.8736 576.5,-622.8736 592.5,-622.8736 592.5,-605.8736 576.5,-605.8736"/>
<text text-anchor="start" x="581.4431" y="-610.9736" font-family="Helvetica,sans-Serif" font-size="11.00" fill="#000000"> &#160;</text>
<polygon fill="#ffffff" stroke="transparent" points="592.5,-605.8736 592.5,-622.8736 616.5,-622.8736 616.5,-605.8736 592.5,-605.8736"/>
<text text-anchor="start" x="598.9053" y="-610.9736" font-family="Helvetica,sans-Serif" font-size="11.00" fill="#000000">2 &gt;</text>
<polygon fill="#000000" stroke="#000000" points="576.5,-605.8736 576.5,-622.8736 576.5,-622.8736 576.5,-605.8736 576.5,-605.8736"/>
<polygon fill="#000000" stroke="#000000" points="592.5,-605.8736 592.5,-622.8736 592.5,-622.8736 592.5,-605.8736 592.5,-605.8736"/>
</a>
</g>
</g>
<!-- 社員マスタ -->
<g id="node6" class="node">
<title>社員マスタ</title>
<g id="a_node6"><a xlink:href="../../tables/______d3d8a641.html" xlink:title="社員マスタ" target="_top">
<polygon fill="#ffffff" stroke="transparent" points="372.5,-72.3736 372.5,-133.3736 450.5,-133.3736 450.5,-72.3736 372.5,-72.3736"/>
<polygon fill="#f5f5f5" stroke="transparent" points="372.5,-109.8736 372.5,-132.8736 450.5,-132.8736 450.5,-109.8736 372.5,-109.8736"/>
<polygon fill="none" stroke="#000000" points="372.5,-109.8736 372.5,-132.8736 450.5,-132.8736 450.5,-109.8736 372.5,-109.8736"/>
<text text-anchor="start" x="368.7293" y="-118.4736" font-family="Helvetica,sans-Serif" font-weight="bold" font-size="11.00" fill="#000000">社員マスタ</text>
<text text-anchor="start" x="416.0219" y="-117.9736" font-family="Helvetica,sans-Serif" font-size="11.00" fill="#000000">[table]</text>
<polygon fill="none" stroke="#000000" points="372.5,-90.8736 372.5,-109.8736 450.5,-109.8736 450.5,-90.8736 372.5,-90.8736"/>
<text text-anchor="start" x="375.5" y="-96.9736" font-family="Helvetica,sans-Serif" font-size="11.00" fill="#000000">...</text>
<polygon fill="#ffffff" stroke="transparent" points="372.5,-71.8736 372.5,-90.8736 450.5,-90.8736 450.5,-71.8736 372.5,-71.8736"/>
<polygon fill="none" stroke="#000000" points="372.5,-71.8736 372.5,-90.8736 450.5,-90.8736 450.5,-71.8736 372.5,-71.8736"/>
<polygon fill="#ffffff" stroke="transparent" points="373.5,-72.8736 373.5,-89.8736 402.5,-89.8736 402.5,-72.8736 373.5,-72.8736"/>
<text text-anchor="start" x="375.5" y="-77.9736" font-family="Helvetica,sans-Serif" font-size="11.00" fill="#000000">&lt; 1</text>
<polygon fill="#ffffff" stroke="transparent" points="402.5,-72.8736 402.5,-89.8736 421.5,-89.8736 421.5,-72.8736 402.5,-72.8736"/>
<text text-anchor="start" x="408.9431" y="-77.9736" font-family="Helvetica,sans-Serif" font-size="11.00" fill="#000000"> &#160;</text>
<polygon fill="#ffffff" stroke="transparent" points="421.5,-72.8736 421.5,-89.8736 449.5,-89.8736 449.5,-72.8736 421.5,-72.8736"/>
<text text-anchor="start" x="431.9053" y="-77.9736" font-family="Helvetica,sans-Serif" font-size="11.00" fill="#000000">1 &gt;</text>
<polygon fill="#000000" stroke="#000000" points="402.5,-72.8736 402.5,-89.8736 402.5,-89.8736 402.5,-72.8736 402.5,-72.8736"/>
<polygon fill="#000000" stroke="#000000" points="421.5,-72.8736 421.5,-89.8736 421.5,-89.8736 421.5,-72.8736 421.5,-72.8736"/>
</a>
</g>
</g>
<!-- 受注&#45;&gt;社員マスタ -->
<g id="edge4" class="edge">
<title>受注:w&#45;&gt;社員マスタ:e</title>
<path fill="none" stroke="#000000" d="M538.4514,-667.5172C497.9892,-603.4829 535.2953,-191.7915 509,-143.8736 493.3488,-115.3524 483.0334,-99.8736 450.5,-99.8736"/>
<polygon fill="#000000" stroke="#000000" points="543.9263,-671.3143 548.4483,-678.8318 547.2132,-673.594 550.5,-675.8736 550.5,-675.8736 550.5,-675.8736 547.2132,-673.594 552.5517,-672.9155 543.9263,-671.3143 543.9263,-671.3143"/>
<ellipse fill="none" stroke="#000000" cx="541.2968" cy="-669.4906" rx="3.2" ry="3.2"/>
</g>
<!-- 部門マスタ -->
<g id="node7" class="node">
<title>部門マスタ</title>
<g id="a_node7"><a xlink:href="../../tables/______3eb0dfec.html" xlink:title="部門マスタ" target="_top">
<polygon fill="#ffffff" stroke="transparent" points="184.5,-72.3736 184.5,-133.3736 262.5,-133.3736 262.5,-72.3736 184.5,-72.3736"/>
<polygon fill="#f5f5f5" stroke="transparent" points="184.5,-109.8736 184.5,-132.8736 262.5,-132.8736 262.5,-109.8736 184.5,-109.8736"/>
<polygon fill="none" stroke="#000000" points="184.5,-109.8736 184.5,-132.8736 262.5,-132.8736 262.5,-109.8736 184.5,-109.8736"/>
<text text-anchor="start" x="173.3923" y="-118.4736" font-family="Helvetica,sans-Serif" font-weight="bold" font-size="11.00" fill="#000000">部門マスタ</text>
<text text-anchor="start" x="228.0219" y="-117.9736" font-family="Helvetica,sans-Serif" font-size="11.00" fill="#000000">[table]</text>
<polygon fill="none" stroke="#000000" points="184.5,-90.8736 184.5,-109.8736 262.5,-109.8736 262.5,-90.8736 184.5,-90.8736"/>
<text text-anchor="start" x="187.5" y="-96.9736" font-family="Helvetica,sans-Serif" font-size="11.00" fill="#000000">...</text>
<polygon fill="#ffffff" stroke="transparent" points="184.5,-71.8736 184.5,-90.8736 262.5,-90.8736 262.5,-71.8736 184.5,-71.8736"/>
<polygon fill="none" stroke="#000000" points="184.5,-71.8736 184.5,-90.8736 262.5,-90.8736 262.5,-71.8736 184.5,-71.8736"/>
<polygon fill="#ffffff" stroke="transparent" points="185.5,-72.8736 185.5,-89.8736 208.5,-89.8736 208.5,-72.8736 185.5,-72.8736"/>
<text text-anchor="start" x="187.5" y="-77.9736" font-family="Helvetica,sans-Serif" font-size="11.00" fill="#000000"> &#160;</text>
<polygon fill="#ffffff" stroke="transparent" points="208.5,-72.8736 208.5,-89.8736 230.5,-89.8736 230.5,-72.8736 208.5,-72.8736"/>
<text text-anchor="start" x="216.4431" y="-77.9736" font-family="Helvetica,sans-Serif" font-size="11.00" fill="#000000"> &#160;</text>
<polygon fill="#ffffff" stroke="transparent" points="230.5,-72.8736 230.5,-89.8736 261.5,-89.8736 261.5,-72.8736 230.5,-72.8736"/>
<text text-anchor="start" x="243.9053" y="-77.9736" font-family="Helvetica,sans-Serif" font-size="11.00" fill="#000000">5 &gt;</text>
<polygon fill="#000000" stroke="#000000" points="208.5,-72.8736 208.5,-89.8736 208.5,-89.8736 208.5,-72.8736 208.5,-72.8736"/>
<polygon fill="#000000" stroke="#000000" points="230.5,-72.8736 230.5,-89.8736 230.5,-89.8736 230.5,-72.8736 230.5,-72.8736"/>
</a>
</g>
</g>
<!-- 受注&#45;&gt;部門マスタ -->
<g id="edge5" class="edge">
<title>受注:w&#45;&gt;部門マスタ:e</title>
<path fill="none" stroke="#000000" d="M536.8672,-768.5427C526.5313,-777.9421 527.7173,-798.9253 509,-806.8736 429.2279,-840.7488 377.4697,-865.8881 314,-806.8736 256.318,-753.2405 341.2637,-99.8736 262.5,-99.8736"/>
<polygon fill="#000000" stroke="#000000" points="542.9316,-766.4658 551.6665,-767.2794 546.7158,-765.1697 550.5,-763.8736 550.5,-763.8736 550.5,-763.8736 546.7158,-765.1697 549.3335,-760.4678 542.9316,-766.4658 542.9316,-766.4658"/>
<ellipse fill="none" stroke="#000000" cx="539.9042" cy="-767.5026" rx="3.2" ry="3.2"/>
</g>
<!-- 受注&#45;&gt;部門マスタ -->
<g id="edge6" class="edge">
<title>受注:w&#45;&gt;部門マスタ:e</title>
<path fill="none" stroke="#000000" d="M536.656,-746.7221C526.6506,-756.041 527.3499,-776.2084 509,-783.8736 469.015,-800.5764 345.7708,-813.3422 314,-783.8736 258.1213,-732.044 338.7151,-99.8736 262.5,-99.8736"/>
<polygon fill="#000000" stroke="#000000" points="542.9496,-744.5179 551.6899,-745.2713 546.7248,-743.1958 550.5,-741.8736 550.5,-741.8736 550.5,-741.8736 546.7248,-743.1958 549.3101,-738.476 542.9496,-744.5179 542.9496,-744.5179"/>
<ellipse fill="none" stroke="#000000" cx="539.9295" cy="-745.5757" rx="3.2" ry="3.2"/>
</g>
<!-- 顧客マスタ -->
<g id="node8" class="node">
<title>顧客マスタ</title>
<g id="a_node8"><a xlink:href="../../tables/______8e04fe89.html" xlink:title="顧客マスタ" target="_top">
<polygon fill="#ffffff" stroke="transparent" points="322,-154.8736 322,-772.8736 501,-772.8736 501,-154.8736 322,-154.8736"/>
<polygon fill="#f5f5f5" stroke="transparent" points="324.5,-747.8736 324.5,-770.8736 499.5,-770.8736 499.5,-747.8736 324.5,-747.8736"/>
<polygon fill="none" stroke="#000000" points="324.5,-747.8736 324.5,-770.8736 499.5,-770.8736 499.5,-747.8736 324.5,-747.8736"/>
<text text-anchor="start" x="313.0892" y="-756.4736" font-family="Helvetica,sans-Serif" font-weight="bold" font-size="11.00" fill="#000000">顧客マスタ</text>
<text text-anchor="start" x="464.5437" y="-755.9736" font-family="Helvetica,sans-Serif" font-size="11.00" fill="#000000">[table]</text>
<polygon fill="none" stroke="#000000" points="324.5,-725.8736 324.5,-747.8736 415.5,-747.8736 415.5,-725.8736 324.5,-725.8736"/>
<image xlink:href="../../images/primaryKeys.png" width="11px" height="12px" preserveAspectRatio="xMinYMin meet" x="329.5" y="-742.874"/>
<text text-anchor="start" x="340.2227" y="-732.9736" font-family="Helvetica,sans-Serif" font-size="11.00" fill="#000000">顧客コード</text>
<polygon fill="none" stroke="#000000" points="415.5,-725.8736 415.5,-747.8736 499.5,-747.8736 499.5,-725.8736 415.5,-725.8736"/>
<text text-anchor="start" x="418.5" y="-733.5736" font-family="Helvetica,sans-Serif" font-size="11.00" fill="#000000">varchar[8]</text>
<polygon fill="none" stroke="#000000" points="324.5,-703.8736 324.5,-725.8736 415.5,-725.8736 415.5,-703.8736 324.5,-703.8736"/>
<image xlink:href="../../images/primaryKeys.png" width="11px" height="12px" preserveAspectRatio="xMinYMin meet" x="329.5" y="-720.874"/>
<text text-anchor="start" x="344.5" y="-710.9736" font-family="Helvetica,sans-Serif" font-size="11.00" fill="#000000">顧客枝番</text>
<polygon fill="none" stroke="#000000" points="415.5,-703.8736 415.5,-725.8736 499.5,-725.8736 499.5,-703.8736 415.5,-703.8736"/>
<text text-anchor="start" x="418.5" y="-711.5736" font-family="Helvetica,sans-Serif" font-size="11.00" fill="#000000">int4[10]</text>
<polygon fill="none" stroke="#000000" points="324.5,-681.8736 324.5,-703.8736 415.5,-703.8736 415.5,-681.8736 324.5,-681.8736"/>
<text text-anchor="start" x="344.5" y="-688.9736" font-family="Helvetica,sans-Serif" font-size="11.00" fill="#000000">顧客区分</text>
<polygon fill="none" stroke="#000000" points="415.5,-681.8736 415.5,-703.8736 499.5,-703.8736 499.5,-681.8736 415.5,-681.8736"/>
<text text-anchor="start" x="418.5" y="-689.5736" font-family="Helvetica,sans-Serif" font-size="11.00" fill="#000000">int4[10]</text>
<polygon fill="none" stroke="#000000" points="324.5,-659.8736 324.5,-681.8736 415.5,-681.8736 415.5,-659.8736 324.5,-659.8736"/>
<text text-anchor="start" x="338.3823" y="-666.9736" font-family="Helvetica,sans-Serif" font-size="11.00" fill="#000000">請求先コード</text>
<polygon fill="none" stroke="#000000" points="415.5,-659.8736 415.5,-681.8736 499.5,-681.8736 499.5,-659.8736 415.5,-659.8736"/>
<text text-anchor="start" x="418.5" y="-667.5736" font-family="Helvetica,sans-Serif" font-size="11.00" fill="#000000">varchar[8]</text>
<polygon fill="none" stroke="#000000" points="324.5,-637.8736 324.5,-659.8736 415.5,-659.8736 415.5,-637.8736 324.5,-637.8736"/>
<text text-anchor="start" x="344.5" y="-644.9736" font-family="Helvetica,sans-Serif" font-size="11.00" fill="#000000">請求先枝番</text>
<polygon fill="none" stroke="#000000" points="415.5,-637.8736 415.5,-659.8736 499.5,-659.8736 499.5,-637.8736 415.5,-637.8736"/>
<text text-anchor="start" x="418.5" y="-645.5736" font-family="Helvetica,sans-Serif" font-size="11.00" fill="#000000">int4[10]</text>
<polygon fill="none" stroke="#000000" points="324.5,-615.8736 324.5,-637.8736 415.5,-637.8736 415.5,-615.8736 324.5,-615.8736"/>
<text text-anchor="start" x="342.9694" y="-622.9736" font-family="Helvetica,sans-Serif" font-size="11.00" fill="#000000">回収先コード</text>
<polygon fill="none" stroke="#000000" points="415.5,-615.8736 415.5,-637.8736 499.5,-637.8736 499.5,-615.8736 415.5,-615.8736"/>
<text text-anchor="start" x="418.5" y="-623.5736" font-family="Helvetica,sans-Serif" font-size="11.00" fill="#000000">varchar[8]</text>
<polygon fill="none" stroke="#000000" points="324.5,-593.8736 324.5,-615.8736 415.5,-615.8736 415.5,-593.8736 324.5,-593.8736"/>
<text text-anchor="start" x="344.5" y="-600.9736" font-family="Helvetica,sans-Serif" font-size="11.00" fill="#000000">回収先枝番</text>
<polygon fill="none" stroke="#000000" points="415.5,-593.8736 415.5,-615.8736 499.5,-615.8736 499.5,-593.8736 415.5,-593.8736"/>
<text text-anchor="start" x="418.5" y="-601.5736" font-family="Helvetica,sans-Serif" font-size="11.00" fill="#000000">int4[10]</text>
<polygon fill="none" stroke="#000000" points="324.5,-571.8736 324.5,-593.8736 415.5,-593.8736 415.5,-571.8736 324.5,-571.8736"/>
<text text-anchor="start" x="344.5" y="-578.9736" font-family="Helvetica,sans-Serif" font-size="11.00" fill="#000000">顧客名</text>
<polygon fill="none" stroke="#000000" points="415.5,-571.8736 415.5,-593.8736 499.5,-593.8736 499.5,-571.8736 415.5,-571.8736"/>
<text text-anchor="start" x="418.5" y="-579.5736" font-family="Helvetica,sans-Serif" font-size="11.00" fill="#000000">varchar[40]</text>
<polygon fill="none" stroke="#000000" points="324.5,-549.8736 324.5,-571.8736 415.5,-571.8736 415.5,-549.8736 324.5,-549.8736"/>
<text text-anchor="start" x="344.5" y="-556.9736" font-family="Helvetica,sans-Serif" font-size="11.00" fill="#000000">顧客名カナ</text>
<polygon fill="none" stroke="#000000" points="415.5,-549.8736 415.5,-571.8736 499.5,-571.8736 499.5,-549.8736 415.5,-549.8736"/>
<text text-anchor="start" x="418.5" y="-557.5736" font-family="Helvetica,sans-Serif" font-size="11.00" fill="#000000">varchar[40]</text>
<polygon fill="none" stroke="#000000" points="324.5,-527.8736 324.5,-549.8736 415.5,-549.8736 415.5,-527.8736 324.5,-527.8736"/>
<text text-anchor="start" x="334.7205" y="-534.9736" font-family="Helvetica,sans-Serif" font-size="11.00" fill="#000000">担当社員コード</text>
<polygon fill="none" stroke="#000000" points="415.5,-527.8736 415.5,-549.8736 499.5,-549.8736 499.5,-527.8736 415.5,-527.8736"/>
<text text-anchor="start" x="418.5" y="-535.5736" font-family="Helvetica,sans-Serif" font-size="11.00" fill="#000000">varchar[10]</text>
<polygon fill="none" stroke="#000000" points="324.5,-505.8736 324.5,-527.8736 415.5,-527.8736 415.5,-505.8736 324.5,-505.8736"/>
<text text-anchor="start" x="337.1553" y="-512.9736" font-family="Helvetica,sans-Serif" font-size="11.00" fill="#000000">顧客担当者名</text>
<polygon fill="none" stroke="#000000" points="415.5,-505.8736 415.5,-527.8736 499.5,-527.8736 499.5,-505.8736 415.5,-505.8736"/>
<text text-anchor="start" x="418.5" y="-513.5736" font-family="Helvetica,sans-Serif" font-size="11.00" fill="#000000">varchar[40]</text>
<polygon fill="none" stroke="#000000" points="324.5,-483.8736 324.5,-505.8736 415.5,-505.8736 415.5,-483.8736 324.5,-483.8736"/>
<text text-anchor="start" x="324.3194" y="-490.9736" font-family="Helvetica,sans-Serif" font-size="11.00" fill="#000000">顧客担当部署名</text>
<polygon fill="none" stroke="#000000" points="415.5,-483.8736 415.5,-505.8736 499.5,-505.8736 499.5,-483.8736 415.5,-483.8736"/>
<text text-anchor="start" x="418.5" y="-491.5736" font-family="Helvetica,sans-Serif" font-size="11.00" fill="#000000">varchar[40]</text>
<polygon fill="none" stroke="#000000" points="324.5,-461.8736 324.5,-483.8736 415.5,-483.8736 415.5,-461.8736 324.5,-461.8736"/>
<text text-anchor="start" x="337.3759" y="-468.9736" font-family="Helvetica,sans-Serif" font-size="11.00" fill="#000000">顧客郵便番号</text>
<polygon fill="none" stroke="#000000" points="415.5,-461.8736 415.5,-483.8736 499.5,-483.8736 499.5,-461.8736 415.5,-461.8736"/>
<text text-anchor="start" x="418.5" y="-469.5736" font-family="Helvetica,sans-Serif" font-size="11.00" fill="#000000">bpchar[8]</text>
<polygon fill="none" stroke="#000000" points="324.5,-439.8736 324.5,-461.8736 415.5,-461.8736 415.5,-439.8736 324.5,-439.8736"/>
<text text-anchor="start" x="332.8818" y="-446.9736" font-family="Helvetica,sans-Serif" font-size="11.00" fill="#000000">顧客都道府県</text>
<polygon fill="none" stroke="#000000" points="415.5,-439.8736 415.5,-461.8736 499.5,-461.8736 499.5,-439.8736 415.5,-439.8736"/>
<text text-anchor="start" x="418.5" y="-447.5736" font-family="Helvetica,sans-Serif" font-size="11.00" fill="#000000">varchar[4]</text>
<polygon fill="none" stroke="#000000" points="324.5,-417.8736 324.5,-439.8736 415.5,-439.8736 415.5,-417.8736 324.5,-417.8736"/>
<text text-anchor="start" x="339.2981" y="-424.9736" font-family="Helvetica,sans-Serif" font-size="11.00" fill="#000000">顧客住所１</text>
<polygon fill="none" stroke="#000000" points="415.5,-417.8736 415.5,-439.8736 499.5,-439.8736 499.5,-417.8736 415.5,-417.8736"/>
<text text-anchor="start" x="418.5" y="-425.5736" font-family="Helvetica,sans-Serif" font-size="11.00" fill="#000000">varchar[40]</text>
<polygon fill="none" stroke="#000000" points="324.5,-395.8736 324.5,-417.8736 415.5,-417.8736 415.5,-395.8736 324.5,-395.8736"/>
<text text-anchor="start" x="335.0988" y="-402.9736" font-family="Helvetica,sans-Serif" font-size="11.00" fill="#000000">顧客電話番号</text>
<polygon fill="none" stroke="#000000" points="415.5,-395.8736 415.5,-417.8736 499.5,-417.8736 499.5,-395.8736 415.5,-395.8736"/>
<text text-anchor="start" x="418.5" y="-403.5736" font-family="Helvetica,sans-Serif" font-size="11.00" fill="#000000">varchar[13]</text>
<polygon fill="none" stroke="#000000" points="324.5,-373.8736 324.5,-395.8736 415.5,-395.8736 415.5,-373.8736 324.5,-373.8736"/>
<text text-anchor="start" x="317.4208" y="-380.9736" font-family="Helvetica,sans-Serif" font-size="11.00" fill="#000000">顧客メールアドレス</text>
<polygon fill="none" stroke="#000000" points="415.5,-373.8736 415.5,-395.8736 499.5,-395.8736 499.5,-373.8736 415.5,-373.8736"/>
<text text-anchor="start" x="418.5" y="-381.5736" font-family="Helvetica,sans-Serif" font-size="11.00" fill="#000000">varchar[40]</text>
<polygon fill="none" stroke="#000000" points="324.5,-351.8736 324.5,-373.8736 415.5,-373.8736 415.5,-351.8736 324.5,-351.8736"/>
<text text-anchor="start" x="341.3447" y="-358.9736" font-family="Helvetica,sans-Serif" font-size="11.00" fill="#000000">顧客締日１</text>
<polygon fill="none" stroke="#000000" points="415.5,-351.8736 415.5,-373.8736 499.5,-373.8736 499.5,-351.8736 415.5,-351.8736"/>
<text text-anchor="start" x="418.5" y="-359.5736" font-family="Helvetica,sans-Serif" font-size="11.00" fill="#000000">int4[10]</text>
<polygon fill="none" stroke="#000000" points="324.5,-329.8736 324.5,-351.8736 415.5,-351.8736 415.5,-329.8736 324.5,-329.8736"/>
<text text-anchor="start" x="332.8774" y="-336.9736" font-family="Helvetica,sans-Serif" font-size="11.00" fill="#000000">顧客支払月数１</text>
<polygon fill="none" stroke="#000000" points="415.5,-329.8736 415.5,-351.8736 499.5,-351.8736 499.5,-329.8736 415.5,-329.8736"/>
<text text-anchor="start" x="418.5" y="-337.5736" font-family="Helvetica,sans-Serif" font-size="11.00" fill="#000000">int4[10]</text>
<polygon fill="none" stroke="#000000" points="324.5,-307.8736 324.5,-329.8736 415.5,-329.8736 415.5,-307.8736 324.5,-307.8736"/>
<text text-anchor="start" x="335.9338" y="-314.9736" font-family="Helvetica,sans-Serif" font-size="11.00" fill="#000000">顧客支払日１</text>
<polygon fill="none" stroke="#000000" points="415.5,-307.8736 415.5,-329.8736 499.5,-329.8736 499.5,-307.8736 415.5,-307.8736"/>
<text text-anchor="start" x="418.5" y="-315.5736" font-family="Helvetica,sans-Serif" font-size="11.00" fill="#000000">int4[10]</text>
<polygon fill="none" stroke="#000000" points="324.5,-285.8736 324.5,-307.8736 415.5,-307.8736 415.5,-285.8736 324.5,-285.8736"/>
<text text-anchor="start" x="331.0459" y="-292.9736" font-family="Helvetica,sans-Serif" font-size="11.00" fill="#000000">顧客支払方法１</text>
<polygon fill="none" stroke="#000000" points="415.5,-285.8736 415.5,-307.8736 499.5,-307.8736 499.5,-285.8736 415.5,-285.8736"/>
<text text-anchor="start" x="418.5" y="-293.5736" font-family="Helvetica,sans-Serif" font-size="11.00" fill="#000000">int4[10]</text>
<polygon fill="none" stroke="#000000" points="324.5,-263.8736 324.5,-285.8736 415.5,-285.8736 415.5,-263.8736 324.5,-263.8736"/>
<text text-anchor="start" x="341.3447" y="-270.9736" font-family="Helvetica,sans-Serif" font-size="11.00" fill="#000000">顧客締日２</text>
<polygon fill="none" stroke="#000000" points="415.5,-263.8736 415.5,-285.8736 499.5,-285.8736 499.5,-263.8736 415.5,-263.8736"/>
<text text-anchor="start" x="418.5" y="-271.5736" font-family="Helvetica,sans-Serif" font-size="11.00" fill="#000000">int4[10]</text>
<polygon fill="none" stroke="#000000" points="324.5,-241.8736 324.5,-263.8736 415.5,-263.8736 415.5,-241.8736 324.5,-241.8736"/>
<text text-anchor="start" x="344.5" y="-248.9736" font-family="Helvetica,sans-Serif" font-size="11.00" fill="#000000">作成日時</text>
<polygon fill="none" stroke="#000000" points="415.5,-241.8736 415.5,-263.8736 499.5,-263.8736 499.5,-241.8736 415.5,-241.8736"/>
<text text-anchor="start" x="418.3807" y="-249.5736" font-family="Helvetica,sans-Serif" font-size="11.00" fill="#000000">timestamp[29,6]</text>
<polygon fill="none" stroke="#000000" points="324.5,-219.8736 324.5,-241.8736 415.5,-241.8736 415.5,-219.8736 324.5,-219.8736"/>
<text text-anchor="start" x="344.5" y="-226.9736" font-family="Helvetica,sans-Serif" font-size="11.00" fill="#000000">作成者名</text>
<polygon fill="none" stroke="#000000" points="415.5,-219.8736 415.5,-241.8736 499.5,-241.8736 499.5,-219.8736 415.5,-219.8736"/>
<text text-anchor="start" x="418.5" y="-227.5736" font-family="Helvetica,sans-Serif" font-size="11.00" fill="#000000">varchar[12]</text>
<polygon fill="none" stroke="#000000" points="324.5,-197.8736 324.5,-219.8736 415.5,-219.8736 415.5,-197.8736 324.5,-197.8736"/>
<text text-anchor="start" x="344.5" y="-204.9736" font-family="Helvetica,sans-Serif" font-size="11.00" fill="#000000">更新日時</text>
<polygon fill="none" stroke="#000000" points="415.5,-197.8736 415.5,-219.8736 499.5,-219.8736 499.5,-197.8736 415.5,-197.8736"/>
<text text-anchor="start" x="418.3807" y="-205.5736" font-family="Helvetica,sans-Serif" font-size="11.00" fill="#000000">timestamp[29,6]</text>
<polygon fill="none" stroke="#000000" points="324.5,-175.8736 324.5,-197.8736 415.5,-197.8736 415.5,-175.8736 324.5,-175.8736"/>
<text text-anchor="start" x="344.5" y="-182.9736" font-family="Helvetica,sans-Serif" font-size="11.00" fill="#000000">更新者名</text>
<polygon fill="none" stroke="#000000" points="415.5,-175.8736 415.5,-197.8736 499.5,-197.8736 499.5,-175.8736 415.5,-175.8736"/>
<text text-anchor="start" x="418.5" y="-183.5736" font-family="Helvetica,sans-Serif" font-size="11.00" fill="#000000">varchar[12]</text>
<polygon fill="#ffffff" stroke="transparent" points="324.5,-156.8736 324.5,-175.8736 499.5,-175.8736 499.5,-156.8736 324.5,-156.8736"/>
<polygon fill="none" stroke="#000000" points="324.5,-156.8736 324.5,-175.8736 499.5,-175.8736 499.5,-156.8736 324.5,-156.8736"/>
<polygon fill="#ffffff" stroke="transparent" points="325.5,-157.8736 325.5,-174.8736 386.5,-174.8736 386.5,-157.8736 325.5,-157.8736"/>
<text text-anchor="start" x="327.5" y="-162.9736" font-family="Helvetica,sans-Serif" font-size="11.00" fill="#000000">&lt; 1</text>
<polygon fill="#ffffff" stroke="transparent" points="386.5,-157.8736 386.5,-174.8736 438.5,-174.8736 438.5,-157.8736 386.5,-157.8736"/>
<text text-anchor="start" x="409.4431" y="-162.9736" font-family="Helvetica,sans-Serif" font-size="11.00" fill="#000000"> &#160;</text>
<polygon fill="#ffffff" stroke="transparent" points="438.5,-157.8736 438.5,-174.8736 498.5,-174.8736 498.5,-157.8736 438.5,-157.8736"/>
<text text-anchor="start" x="480.9053" y="-162.9736" font-family="Helvetica,sans-Serif" font-size="11.00" fill="#000000">2 &gt;</text>
<polygon fill="#000000" stroke="#000000" points="386.5,-157.8736 386.5,-174.8736 386.5,-174.8736 386.5,-157.8736 386.5,-157.8736"/>
<polygon fill="#000000" stroke="#000000" points="438.5,-157.8736 438.5,-174.8736 438.5,-174.8736 438.5,-157.8736 438.5,-157.8736"/>
<polygon fill="none" stroke="#000000" stroke-width="2" points="323,-155.8736 323,-771.8736 500,-771.8736 500,-155.8736 323,-155.8736"/>
</a>
</g>
</g>
<!-- 受注&#45;&gt;顧客マスタ -->
<g id="edge7" class="edge">
<title>受注:w&#45;&gt;顧客マスタ:e</title>
<path fill="none" stroke="#000000" d="M536.1916,-722.382C523.8373,-727.1109 517.6062,-736.8736 499.5,-736.8736"/>
<polygon fill="#000000" stroke="#000000" points="542.6202,-721.2551 551.1217,-723.4195 546.5601,-720.5643 550.5,-719.8736 550.5,-719.8736 550.5,-719.8736 546.5601,-720.5643 549.8783,-716.3277 542.6202,-721.2551 542.6202,-721.2551"/>
<ellipse fill="none" stroke="#000000" cx="539.4682" cy="-721.8077" rx="3.2" ry="3.2"/>
</g>
<!-- 受注&#45;&gt;顧客マスタ -->
<g id="edge8" class="edge">
<title>受注:w&#45;&gt;顧客マスタ:e</title>
<path fill="none" stroke="#000000" d="M536.1916,-700.382C523.8373,-705.1109 517.6062,-714.8736 499.5,-714.8736"/>
<polygon fill="#000000" stroke="#000000" points="542.6202,-699.2551 551.1217,-701.4195 546.5601,-698.5643 550.5,-697.8736 550.5,-697.8736 550.5,-697.8736 546.5601,-698.5643 549.8783,-694.3277 542.6202,-699.2551 542.6202,-699.2551"/>
<ellipse fill="none" stroke="#000000" cx="539.4682" cy="-699.8077" rx="3.2" ry="3.2"/>
</g>
<!-- 社員マスタ&#45;&gt;部門マスタ -->
<g id="edge14" class="edge">
<title>社員マスタ:w&#45;&gt;部門マスタ:e</title>
<path fill="none" stroke="#000000" d="M357.6783,-99.8736C320.4989,-99.8736 306.0417,-99.8736 262.5,-99.8736"/>
<polygon fill="#000000" stroke="#000000" points="364.5,-99.8737 372.5,-103.4736 368.5,-99.8736 372.5,-99.8736 372.5,-99.8736 372.5,-99.8736 368.5,-99.8736 372.5,-96.2736 364.5,-99.8737 364.5,-99.8737"/>
<ellipse fill="none" stroke="#000000" cx="361.3" cy="-99.8737" rx="3.2" ry="3.2"/>
</g>
<!-- 顧客マスタ&#45;&gt;取引先マスタ -->
<g id="edge15" class="edge">
<title>顧客マスタ:w&#45;&gt;取引先マスタ:e</title>
<path fill="none" stroke="#000000" d="M310.3167,-739.5813C265.3576,-760.2965 340.7456,-892.8736 273.5,-892.8736"/>
<polygon fill="#000000" stroke="#000000" points="316.6419,-738.3738 325.1751,-740.4098 320.571,-737.6237 324.5,-736.8736 324.5,-736.8736 324.5,-736.8736 320.571,-737.6237 323.8249,-733.3375 316.6419,-738.3738 316.6419,-738.3738"/>
<ellipse fill="none" stroke="#000000" cx="313.4987" cy="-738.9739" rx="3.2" ry="3.2"/>
</g>
<!-- 受注明細 -->
<g id="node9" class="node">
<title>受注明細</title>
<g id="a_node9"><a xlink:href="../../tables/_____27c23493.html" xlink:title="受注明細" target="_top">
<polygon fill="#ffffff" stroke="transparent" points="666,-780.3736 666,-841.3736 736,-841.3736 736,-780.3736 666,-780.3736"/>
<polygon fill="#f5f5f5" stroke="transparent" points="666,-817.8736 666,-840.8736 736,-840.8736 736,-817.8736 666,-817.8736"/>
<polygon fill="none" stroke="#000000" points="666,-817.8736 666,-840.8736 736,-840.8736 736,-817.8736 666,-817.8736"/>
<text text-anchor="start" x="663.1006" y="-826.4736" font-family="Helvetica,sans-Serif" font-weight="bold" font-size="11.00" fill="#000000">受注明細</text>
<text text-anchor="start" x="701.5219" y="-825.9736" font-family="Helvetica,sans-Serif" font-size="11.00" fill="#000000">[table]</text>
<polygon fill="none" stroke="#000000" points="666,-798.8736 666,-817.8736 736,-817.8736 736,-798.8736 666,-798.8736"/>
<text text-anchor="start" x="669" y="-804.9736" font-family="Helvetica,sans-Serif" font-size="11.00" fill="#000000">...</text>
<polygon fill="#ffffff" stroke="transparent" points="666,-779.8736 666,-798.8736 736,-798.8736 736,-779.8736 666,-779.8736"/>
<polygon fill="none" stroke="#000000" points="666,-779.8736 666,-798.8736 736,-798.8736 736,-779.8736 666,-779.8736"/>
<polygon fill="#ffffff" stroke="transparent" points="667,-780.8736 667,-797.8736 696,-797.8736 696,-780.8736 667,-780.8736"/>
<text text-anchor="start" x="669" y="-785.9736" font-family="Helvetica,sans-Serif" font-size="11.00" fill="#000000">&lt; 2</text>
<polygon fill="#ffffff" stroke="transparent" points="696,-780.8736 696,-797.8736 716,-797.8736 716,-780.8736 696,-780.8736"/>
<text text-anchor="start" x="702.9431" y="-785.9736" font-family="Helvetica,sans-Serif" font-size="11.00" fill="#000000"> &#160;</text>
<polygon fill="#ffffff" stroke="transparent" points="716,-780.8736 716,-797.8736 735,-797.8736 735,-780.8736 716,-780.8736"/>
<text text-anchor="start" x="726.8862" y="-785.9736" font-family="Helvetica,sans-Serif" font-size="11.00" fill="#000000"> &#160;</text>
<polygon fill="#000000" stroke="#000000" points="696,-780.8736 696,-797.8736 696,-797.8736 696,-780.8736 696,-780.8736"/>
<polygon fill="#000000" stroke="#000000" points="716,-780.8736 716,-797.8736 716,-797.8736 716,-780.8736 716,-780.8736"/>
</a>
</g>
</g>
<!-- 受注明細&#45;&gt;受注 -->
<g id="edge9" class="edge">
<title>受注明細:w&#45;&gt;受注:e</title>
<path fill="none" stroke="#000000" d="M651.2829,-807.8736C640.2886,-807.8736 633.1615,-807.8736 617.5,-807.8736"/>
<polygon fill="#000000" stroke="#000000" points="658,-807.8737 666,-811.4736 662,-807.8736 666,-807.8736 666,-807.8736 666,-807.8736 662,-807.8736 666,-804.2736 658,-807.8737 658,-807.8737"/>
<ellipse fill="none" stroke="#000000" cx="654.8" cy="-807.8737" rx="3.2" ry="3.2"/>
</g>
<!-- 売上 -->
<g id="node10" class="node">
<title>売上</title>
<g id="a_node10"><a xlink:href="../../tables/___b1358.html" xlink:title="売上" target="_top">
<polygon fill="#ffffff" stroke="transparent" points="674,-356.3736 674,-417.3736 728,-417.3736 728,-356.3736 674,-356.3736"/>
<polygon fill="#f5f5f5" stroke="transparent" points="674,-393.8736 674,-416.8736 728,-416.8736 728,-393.8736 674,-393.8736"/>
<polygon fill="none" stroke="#000000" points="674,-393.8736 674,-416.8736 728,-416.8736 728,-393.8736 674,-393.8736"/>
<text text-anchor="start" x="672.5793" y="-402.4736" font-family="Helvetica,sans-Serif" font-weight="bold" font-size="11.00" fill="#000000">売上</text>
<text text-anchor="start" x="693.5219" y="-401.9736" font-family="Helvetica,sans-Serif" font-size="11.00" fill="#000000">[table]</text>
<polygon fill="none" stroke="#000000" points="674,-374.8736 674,-393.8736 728,-393.8736 728,-374.8736 674,-374.8736"/>
<text text-anchor="start" x="677" y="-380.9736" font-family="Helvetica,sans-Serif" font-size="11.00" fill="#000000">...</text>
<polygon fill="#ffffff" stroke="transparent" points="674,-355.8736 674,-374.8736 728,-374.8736 728,-355.8736 674,-355.8736"/>
<polygon fill="none" stroke="#000000" points="674,-355.8736 674,-374.8736 728,-374.8736 728,-355.8736 674,-355.8736"/>
<polygon fill="#ffffff" stroke="transparent" points="675,-356.8736 675,-373.8736 696,-373.8736 696,-356.8736 675,-356.8736"/>
<text text-anchor="start" x="677" y="-361.9736" font-family="Helvetica,sans-Serif" font-size="11.00" fill="#000000">&lt; 4</text>
<polygon fill="#ffffff" stroke="transparent" points="696,-356.8736 696,-373.8736 707,-373.8736 707,-356.8736 696,-356.8736"/>
<text text-anchor="start" x="698.4431" y="-361.9736" font-family="Helvetica,sans-Serif" font-size="11.00" fill="#000000"> &#160;</text>
<polygon fill="#ffffff" stroke="transparent" points="707,-356.8736 707,-373.8736 727,-373.8736 727,-356.8736 707,-356.8736"/>
<text text-anchor="start" x="709.4053" y="-361.9736" font-family="Helvetica,sans-Serif" font-size="11.00" fill="#000000">1 &gt;</text>
<polygon fill="#000000" stroke="#000000" points="696,-356.8736 696,-373.8736 696,-373.8736 696,-356.8736 696,-356.8736"/>
<polygon fill="#000000" stroke="#000000" points="707,-356.8736 707,-373.8736 707,-373.8736 707,-356.8736 707,-356.8736"/>
</a>
</g>
</g>
<!-- 売上&#45;&gt;取引先マスタ -->
<g id="edge10" class="edge">
<title>売上:w&#45;&gt;取引先マスタ:e</title>
<path fill="none" stroke="#000000" d="M659.7979,-386.8389C581.927,-423.2049 695.836,-783.044 625,-852.8736 575.5836,-901.5879 382.156,-867.842 314,-880.8736 295.5605,-884.3993 292.2735,-892.8736 273.5,-892.8736"/>
<polygon fill="#000000" stroke="#000000" points="666.1689,-385.5087 674.7358,-387.3976 670.0844,-384.6912 674,-383.8736 674,-383.8736 674,-383.8736 670.0844,-384.6912 673.2642,-380.3496 666.1689,-385.5087 666.1689,-385.5087"/>
<ellipse fill="none" stroke="#000000" cx="663.0364" cy="-386.1628" rx="3.2" ry="3.2"/>
</g>
<!-- 売上&#45;&gt;受注 -->
<g id="edge11" class="edge">
<title>売上:w&#45;&gt;受注:e</title>
<path fill="none" stroke="#000000" d="M659.9657,-387.8003C593.3468,-430.5446 707.1711,-807.8736 617.5,-807.8736"/>
<polygon fill="#000000" stroke="#000000" points="666.2959,-386.0292 674.97,-387.3405 670.1479,-384.9514 674,-383.8736 674,-383.8736 674,-383.8736 670.1479,-384.9514 673.03,-380.4068 666.2959,-386.0292 666.2959,-386.0292"/>
<ellipse fill="none" stroke="#000000" cx="663.2142" cy="-386.8915" rx="3.2" ry="3.2"/>
</g>
<!-- 売上&#45;&gt;部門マスタ -->
<g id="edge12" class="edge">
<title>売上:w&#45;&gt;部門マスタ:e</title>
<path fill="none" stroke="#000000" d="M659.3499,-383.1448C521.4864,-368.6852 641.7844,-143.0344 509,-61.8736 435.0526,-16.6753 396.3256,-34.7886 314,-61.8736 286.9795,-70.7633 290.9453,-99.8736 262.5,-99.8736"/>
<polygon fill="#000000" stroke="#000000" points="666.0099,-383.4761 673.8211,-387.4692 670.0049,-383.6748 674,-383.8736 674,-383.8736 674,-383.8736 670.0049,-383.6748 674.1789,-380.2781 666.0099,-383.4761 666.0099,-383.4761"/>
<ellipse fill="none" stroke="#000000" cx="662.8138" cy="-383.3171" rx="3.2" ry="3.2"/>
</g>
<!-- 売上&#45;&gt;部門マスタ -->
<g id="edge13" class="edge">
<title>売上:w&#45;&gt;部門マスタ:e</title>
<path fill="none" stroke="#000000" d="M659.4895,-383.1535C522.8954,-368.8659 640.6838,-145.9019 509,-65.8736 434.9377,-20.8637 397.0042,-40.9455 314,-65.8736 287.7319,-73.7626 289.9271,-99.8736 262.5,-99.8736"/>
<polygon fill="#000000" stroke="#000000" points="666.0098,-383.477 673.8215,-387.4692 670.0049,-383.6753 674,-383.8736 674,-383.8736 674,-383.8736 670.0049,-383.6753 674.1785,-380.278 666.0098,-383.477 666.0098,-383.477"/>
<ellipse fill="none" stroke="#000000" cx="662.8138" cy="-383.3184" rx="3.2" ry="3.2"/>
</g>
</g>
</svg>
