<?xml version="1.0" encoding="UTF-8" standalone="no"?>
<!DOCTYPE svg PUBLIC "-//W3C//DTD SVG 1.1//EN"
 "http://www.w3.org/Graphics/SVG/1.1/DTD/svg11.dtd">
<!-- Generated by graphviz version 2.40.1 (20161225.0304)
 -->
<!-- Title: oneDegreeRelationshipsDiagramImplied Pages: 1 -->
<svg width="565pt" height="614pt"
 viewBox="0.00 0.00 565.00 613.70" xmlns="http://www.w3.org/2000/svg" xmlns:xlink="http://www.w3.org/1999/xlink">
<g id="graph0" class="graph" transform="scale(1 1) rotate(0) translate(4 609.7)">
<title>oneDegreeRelationshipsDiagramImplied</title>
<polygon fill="#ffffff" stroke="transparent" points="-4,4 -4,-609.7 561,-609.7 561,4 -4,4"/>
<text text-anchor="middle" x="72.4936" y="-7.3" font-family="Helvetica,sans-Serif" font-size="11.00" fill="#000000">Generated by SchemaSpy</text>
<!-- 受注 -->
<g id="node1" class="node">
<title>受注</title>
<g id="a_node1"><a xlink:href="../../tables/___a93f1.html" xlink:title="受注" target="_top">
<polygon fill="#ffffff" stroke="transparent" points="275,-181.7 275,-601.7 430,-601.7 430,-181.7 275,-181.7"/>
<polygon fill="#f5f5f5" stroke="transparent" points="277.5,-576.7 277.5,-599.7 428.5,-599.7 428.5,-576.7 277.5,-576.7"/>
<polygon fill="none" stroke="#000000" points="277.5,-576.7 277.5,-599.7 428.5,-599.7 428.5,-576.7 277.5,-576.7"/>
<text text-anchor="start" x="275.7713" y="-585.3" font-family="Helvetica,sans-Serif" font-weight="bold" font-size="11.00" fill="#000000">受注</text>
<text text-anchor="start" x="393.5437" y="-584.8" font-family="Helvetica,sans-Serif" font-size="11.00" fill="#000000">[table]</text>
<polygon fill="none" stroke="#000000" points="277.5,-554.7 277.5,-576.7 344.5,-576.7 344.5,-554.7 277.5,-554.7"/>
<image xlink:href="../../images/primaryKeys.png" width="11px" height="12px" preserveAspectRatio="xMinYMin meet" x="282.5" y="-571.7"/>
<text text-anchor="start" x="296.4021" y="-561.8" font-family="Helvetica,sans-Serif" font-size="11.00" fill="#000000">受注番号</text>
<polygon fill="none" stroke="#000000" points="344.5,-554.7 344.5,-576.7 428.5,-576.7 428.5,-554.7 344.5,-554.7"/>
<text text-anchor="start" x="347.5" y="-562.4" font-family="Helvetica,sans-Serif" font-size="11.00" fill="#000000">varchar[20]</text>
<polygon fill="#ffffff" stroke="transparent" points="277.5,-532.7 277.5,-554.7 344.5,-554.7 344.5,-532.7 277.5,-532.7"/>
<polygon fill="none" stroke="#000000" points="277.5,-532.7 277.5,-554.7 344.5,-554.7 344.5,-532.7 277.5,-532.7"/>
<text text-anchor="start" x="297.5" y="-539.8" font-family="Helvetica,sans-Serif" font-size="11.00" fill="#000000">受注日</text>
<polygon fill="none" stroke="#000000" points="344.5,-532.7 344.5,-554.7 428.5,-554.7 428.5,-532.7 344.5,-532.7"/>
<text text-anchor="start" x="347.3807" y="-540.4" font-family="Helvetica,sans-Serif" font-size="11.00" fill="#000000">timestamp[29,6]</text>
<polygon fill="none" stroke="#000000" points="277.5,-510.7 277.5,-532.7 344.5,-532.7 344.5,-510.7 277.5,-510.7"/>
<image xlink:href="../../images/foreignKeys.png" width="11px" height="12px" preserveAspectRatio="xMinYMin meet" x="282.5" y="-527.7"/>
<text text-anchor="start" x="281.5257" y="-517.8" font-family="Helvetica,sans-Serif" font-size="11.00" fill="#000000">部門コード</text>
<polygon fill="none" stroke="#000000" points="344.5,-510.7 344.5,-532.7 428.5,-532.7 428.5,-510.7 344.5,-510.7"/>
<text text-anchor="start" x="347.5" y="-518.4" font-family="Helvetica,sans-Serif" font-size="11.00" fill="#000000">varchar[6]</text>
<polygon fill="none" stroke="#000000" points="277.5,-488.7 277.5,-510.7 344.5,-510.7 344.5,-488.7 277.5,-488.7"/>
<image xlink:href="../../images/foreignKeys.png" width="11px" height="12px" preserveAspectRatio="xMinYMin meet" x="282.5" y="-505.7"/>
<text text-anchor="start" x="297.5" y="-495.8" font-family="Helvetica,sans-Serif" font-size="11.00" fill="#000000">開始日</text>
<polygon fill="none" stroke="#000000" points="344.5,-488.7 344.5,-510.7 428.5,-510.7 428.5,-488.7 344.5,-488.7"/>
<text text-anchor="start" x="347.3807" y="-496.4" font-family="Helvetica,sans-Serif" font-size="11.00" fill="#000000">timestamp[29,6]</text>
<polygon fill="#ffffff" stroke="transparent" points="277.5,-466.7 277.5,-488.7 344.5,-488.7 344.5,-466.7 277.5,-466.7"/>
<polygon fill="none" stroke="#000000" points="277.5,-466.7 277.5,-488.7 344.5,-488.7 344.5,-466.7 277.5,-466.7"/>
<image xlink:href="../../images/foreignKeys.png" width="11px" height="12px" preserveAspectRatio="xMinYMin meet" x="282.5" y="-483.7"/>
<text text-anchor="start" x="281.2227" y="-473.8" font-family="Helvetica,sans-Serif" font-size="11.00" fill="#000000">顧客コード</text>
<polygon fill="none" stroke="#000000" points="344.5,-466.7 344.5,-488.7 428.5,-488.7 428.5,-466.7 344.5,-466.7"/>
<text text-anchor="start" x="347.5" y="-474.4" font-family="Helvetica,sans-Serif" font-size="11.00" fill="#000000">varchar[8]</text>
<polygon fill="#ffffff" stroke="transparent" points="277.5,-444.7 277.5,-466.7 344.5,-466.7 344.5,-444.7 277.5,-444.7"/>
<polygon fill="none" stroke="#000000" points="277.5,-444.7 277.5,-466.7 344.5,-466.7 344.5,-444.7 277.5,-444.7"/>
<image xlink:href="../../images/foreignKeys.png" width="11px" height="12px" preserveAspectRatio="xMinYMin meet" x="282.5" y="-461.7"/>
<text text-anchor="start" x="292.5241" y="-451.8" font-family="Helvetica,sans-Serif" font-size="11.00" fill="#000000">顧客枝番</text>
<polygon fill="none" stroke="#000000" points="344.5,-444.7 344.5,-466.7 428.5,-466.7 428.5,-444.7 344.5,-444.7"/>
<text text-anchor="start" x="347.5" y="-452.4" font-family="Helvetica,sans-Serif" font-size="11.00" fill="#000000">int4[10]</text>
<polygon fill="#ffffff" stroke="transparent" points="277.5,-422.7 277.5,-444.7 344.5,-444.7 344.5,-422.7 277.5,-422.7"/>
<polygon fill="none" stroke="#000000" points="277.5,-422.7 277.5,-444.7 344.5,-444.7 344.5,-422.7 277.5,-422.7"/>
<image xlink:href="../../images/foreignKeys.png" width="11px" height="12px" preserveAspectRatio="xMinYMin meet" x="282.5" y="-439.7"/>
<text text-anchor="start" x="288.8627" y="-429.8" font-family="Helvetica,sans-Serif" font-size="11.00" fill="#000000">社員コード</text>
<polygon fill="none" stroke="#000000" points="344.5,-422.7 344.5,-444.7 428.5,-444.7 428.5,-422.7 344.5,-422.7"/>
<text text-anchor="start" x="347.5" y="-430.4" font-family="Helvetica,sans-Serif" font-size="11.00" fill="#000000">varchar[10]</text>
<polygon fill="none" stroke="#000000" points="277.5,-400.7 277.5,-422.7 344.5,-422.7 344.5,-400.7 277.5,-400.7"/>
<text text-anchor="start" x="297.5" y="-407.8" font-family="Helvetica,sans-Serif" font-size="11.00" fill="#000000">納期</text>
<polygon fill="none" stroke="#000000" points="344.5,-400.7 344.5,-422.7 428.5,-422.7 428.5,-400.7 344.5,-400.7"/>
<text text-anchor="start" x="347.3807" y="-408.4" font-family="Helvetica,sans-Serif" font-size="11.00" fill="#000000">timestamp[29,6]</text>
<polygon fill="none" stroke="#000000" points="277.5,-378.7 277.5,-400.7 344.5,-400.7 344.5,-378.7 277.5,-378.7"/>
<text text-anchor="start" x="279.8994" y="-385.8" font-family="Helvetica,sans-Serif" font-size="11.00" fill="#000000">顧客注文番号</text>
<polygon fill="none" stroke="#000000" points="344.5,-378.7 344.5,-400.7 428.5,-400.7 428.5,-378.7 344.5,-378.7"/>
<text text-anchor="start" x="347.5" y="-386.4" font-family="Helvetica,sans-Serif" font-size="11.00" fill="#000000">varchar[20]</text>
<polygon fill="none" stroke="#000000" points="277.5,-356.7 277.5,-378.7 344.5,-378.7 344.5,-356.7 277.5,-356.7"/>
<image xlink:href="../../images/foreignKeys.png" width="11px" height="12px" preserveAspectRatio="xMinYMin meet" x="282.5" y="-373.7"/>
<text text-anchor="start" x="286.7232" y="-363.8" font-family="Helvetica,sans-Serif" font-size="11.00" fill="#000000">倉庫コード</text>
<polygon fill="none" stroke="#000000" points="344.5,-356.7 344.5,-378.7 428.5,-378.7 428.5,-356.7 344.5,-356.7"/>
<text text-anchor="start" x="347.5" y="-364.4" font-family="Helvetica,sans-Serif" font-size="11.00" fill="#000000">varchar[3]</text>
<polygon fill="none" stroke="#000000" points="277.5,-334.7 277.5,-356.7 344.5,-356.7 344.5,-334.7 277.5,-334.7"/>
<text text-anchor="start" x="291.2981" y="-341.8" font-family="Helvetica,sans-Serif" font-size="11.00" fill="#000000">受注金額</text>
<polygon fill="none" stroke="#000000" points="344.5,-334.7 344.5,-356.7 428.5,-356.7 428.5,-334.7 344.5,-334.7"/>
<text text-anchor="start" x="347.5" y="-342.4" font-family="Helvetica,sans-Serif" font-size="11.00" fill="#000000">int4[10]</text>
<polygon fill="none" stroke="#000000" points="277.5,-312.7 277.5,-334.7 344.5,-334.7 344.5,-312.7 277.5,-312.7"/>
<text text-anchor="start" x="297.2034" y="-319.8" font-family="Helvetica,sans-Serif" font-size="11.00" fill="#000000">消費税</text>
<polygon fill="none" stroke="#000000" points="344.5,-312.7 344.5,-334.7 428.5,-334.7 428.5,-312.7 344.5,-312.7"/>
<text text-anchor="start" x="347.5" y="-320.4" font-family="Helvetica,sans-Serif" font-size="11.00" fill="#000000">int4[10]</text>
<polygon fill="none" stroke="#000000" points="277.5,-290.7 277.5,-312.7 344.5,-312.7 344.5,-290.7 277.5,-290.7"/>
<text text-anchor="start" x="278.5739" y="-297.8" font-family="Helvetica,sans-Serif" font-size="11.00" fill="#000000">伝票コメント</text>
<polygon fill="none" stroke="#000000" points="344.5,-290.7 344.5,-312.7 428.5,-312.7 428.5,-290.7 344.5,-290.7"/>
<text text-anchor="start" x="347.5" y="-298.4" font-family="Helvetica,sans-Serif" font-size="11.00" fill="#000000">varchar[1000]</text>
<polygon fill="none" stroke="#000000" points="277.5,-268.7 277.5,-290.7 344.5,-290.7 344.5,-268.7 277.5,-268.7"/>
<text text-anchor="start" x="294.6581" y="-275.8" font-family="Helvetica,sans-Serif" font-size="11.00" fill="#000000">作成日時</text>
<polygon fill="none" stroke="#000000" points="344.5,-268.7 344.5,-290.7 428.5,-290.7 428.5,-268.7 344.5,-268.7"/>
<text text-anchor="start" x="347.3807" y="-276.4" font-family="Helvetica,sans-Serif" font-size="11.00" fill="#000000">timestamp[29,6]</text>
<polygon fill="none" stroke="#000000" points="277.5,-246.7 277.5,-268.7 344.5,-268.7 344.5,-246.7 277.5,-246.7"/>
<text text-anchor="start" x="294.6581" y="-253.8" font-family="Helvetica,sans-Serif" font-size="11.00" fill="#000000">作成者名</text>
<polygon fill="none" stroke="#000000" points="344.5,-246.7 344.5,-268.7 428.5,-268.7 428.5,-246.7 344.5,-246.7"/>
<text text-anchor="start" x="347.5" y="-254.4" font-family="Helvetica,sans-Serif" font-size="11.00" fill="#000000">varchar[12]</text>
<polygon fill="none" stroke="#000000" points="277.5,-224.7 277.5,-246.7 344.5,-246.7 344.5,-224.7 277.5,-224.7"/>
<text text-anchor="start" x="297.5" y="-231.8" font-family="Helvetica,sans-Serif" font-size="11.00" fill="#000000">更新日時</text>
<polygon fill="none" stroke="#000000" points="344.5,-224.7 344.5,-246.7 428.5,-246.7 428.5,-224.7 344.5,-224.7"/>
<text text-anchor="start" x="347.3807" y="-232.4" font-family="Helvetica,sans-Serif" font-size="11.00" fill="#000000">timestamp[29,6]</text>
<polygon fill="none" stroke="#000000" points="277.5,-202.7 277.5,-224.7 344.5,-224.7 344.5,-202.7 277.5,-202.7"/>
<text text-anchor="start" x="297.5" y="-209.8" font-family="Helvetica,sans-Serif" font-size="11.00" fill="#000000">更新者名</text>
<polygon fill="none" stroke="#000000" points="344.5,-202.7 344.5,-224.7 428.5,-224.7 428.5,-202.7 344.5,-202.7"/>
<text text-anchor="start" x="347.5" y="-210.4" font-family="Helvetica,sans-Serif" font-size="11.00" fill="#000000">varchar[12]</text>
<polygon fill="#ffffff" stroke="transparent" points="277.5,-183.7 277.5,-202.7 428.5,-202.7 428.5,-183.7 277.5,-183.7"/>
<polygon fill="none" stroke="#000000" points="277.5,-183.7 277.5,-202.7 428.5,-202.7 428.5,-183.7 277.5,-183.7"/>
<polygon fill="#ffffff" stroke="transparent" points="278.5,-184.7 278.5,-201.7 331.5,-201.7 331.5,-184.7 278.5,-184.7"/>
<text text-anchor="start" x="280.5" y="-189.8" font-family="Helvetica,sans-Serif" font-size="11.00" fill="#000000">&lt; 6</text>
<polygon fill="#ffffff" stroke="transparent" points="331.5,-184.7 331.5,-201.7 375.5,-201.7 375.5,-184.7 331.5,-184.7"/>
<text text-anchor="start" x="350.4431" y="-189.8" font-family="Helvetica,sans-Serif" font-size="11.00" fill="#000000"> &#160;</text>
<polygon fill="#ffffff" stroke="transparent" points="375.5,-184.7 375.5,-201.7 427.5,-201.7 427.5,-184.7 375.5,-184.7"/>
<text text-anchor="start" x="409.9053" y="-189.8" font-family="Helvetica,sans-Serif" font-size="11.00" fill="#000000">2 &gt;</text>
<polygon fill="#000000" stroke="#000000" points="331.5,-184.7 331.5,-201.7 331.5,-201.7 331.5,-184.7 331.5,-184.7"/>
<polygon fill="#000000" stroke="#000000" points="375.5,-184.7 375.5,-201.7 375.5,-201.7 375.5,-184.7 375.5,-184.7"/>
<polygon fill="none" stroke="#000000" stroke-width="2" points="276,-182.7 276,-600.7 429,-600.7 429,-182.7 276,-182.7"/>
</a>
</g>
</g>
<!-- 倉庫マスタ -->
<g id="node2" class="node">
<title>倉庫マスタ</title>
<g id="a_node2"><a xlink:href="../../tables/______939d4982.html" xlink:title="倉庫マスタ" target="_top">
<polygon fill="#ffffff" stroke="transparent" points="141.5,-155.2 141.5,-260.2 219.5,-260.2 219.5,-155.2 141.5,-155.2"/>
<polygon fill="#f5f5f5" stroke="transparent" points="141.5,-236.7 141.5,-259.7 219.5,-259.7 219.5,-236.7 141.5,-236.7"/>
<polygon fill="none" stroke="#000000" points="141.5,-236.7 141.5,-259.7 219.5,-259.7 219.5,-236.7 141.5,-236.7"/>
<text text-anchor="start" x="135.5898" y="-245.3" font-family="Helvetica,sans-Serif" font-weight="bold" font-size="11.00" fill="#000000">倉庫マスタ</text>
<text text-anchor="start" x="185.0219" y="-244.8" font-family="Helvetica,sans-Serif" font-size="11.00" fill="#000000">[table]</text>
<polygon fill="none" stroke="#000000" points="141.5,-214.7 141.5,-236.7 219.5,-236.7 219.5,-214.7 141.5,-214.7"/>
<image xlink:href="../../images/primaryKeys.png" width="11px" height="12px" preserveAspectRatio="xMinYMin meet" x="146.5" y="-231.7"/>
<text text-anchor="start" x="156.2232" y="-221.8" font-family="Helvetica,sans-Serif" font-size="11.00" fill="#000000">倉庫コード</text>
<polygon fill="#ffffff" stroke="transparent" points="141.5,-192.7 141.5,-214.7 219.5,-214.7 219.5,-192.7 141.5,-192.7"/>
<polygon fill="none" stroke="#000000" points="141.5,-192.7 141.5,-214.7 219.5,-214.7 219.5,-192.7 141.5,-192.7"/>
<text text-anchor="start" x="170.5" y="-199.8" font-family="Helvetica,sans-Serif" font-size="11.00" fill="#000000">倉庫名</text>
<polygon fill="none" stroke="#000000" points="141.5,-173.7 141.5,-192.7 219.5,-192.7 219.5,-173.7 141.5,-173.7"/>
<text text-anchor="start" x="144.5" y="-179.8" font-family="Helvetica,sans-Serif" font-size="11.00" fill="#000000">...</text>
<polygon fill="#ffffff" stroke="transparent" points="141.5,-154.7 141.5,-173.7 219.5,-173.7 219.5,-154.7 141.5,-154.7"/>
<polygon fill="none" stroke="#000000" points="141.5,-154.7 141.5,-173.7 219.5,-173.7 219.5,-154.7 141.5,-154.7"/>
<polygon fill="#ffffff" stroke="transparent" points="142.5,-155.7 142.5,-172.7 165.5,-172.7 165.5,-155.7 142.5,-155.7"/>
<text text-anchor="start" x="144.5" y="-160.8" font-family="Helvetica,sans-Serif" font-size="11.00" fill="#000000"> &#160;</text>
<polygon fill="#ffffff" stroke="transparent" points="165.5,-155.7 165.5,-172.7 187.5,-172.7 187.5,-155.7 165.5,-155.7"/>
<text text-anchor="start" x="173.4431" y="-160.8" font-family="Helvetica,sans-Serif" font-size="11.00" fill="#000000"> &#160;</text>
<polygon fill="#ffffff" stroke="transparent" points="187.5,-155.7 187.5,-172.7 218.5,-172.7 218.5,-155.7 187.5,-155.7"/>
<text text-anchor="start" x="200.9053" y="-160.8" font-family="Helvetica,sans-Serif" font-size="11.00" fill="#000000">2 &gt;</text>
<polygon fill="#000000" stroke="#000000" points="165.5,-155.7 165.5,-172.7 165.5,-172.7 165.5,-155.7 165.5,-155.7"/>
<polygon fill="#000000" stroke="#000000" points="187.5,-155.7 187.5,-172.7 187.5,-172.7 187.5,-155.7 187.5,-155.7"/>
</a>
</g>
</g>
<!-- 受注&#45;&gt;倉庫マスタ -->
<g id="edge1" class="edge">
<title>受注:w&#45;&gt;倉庫マスタ:e</title>
<path fill="none" stroke="#000000" stroke-dasharray="5,2" d="M263.2504,-364.8635C221.4535,-344.85 281.9472,-225.7 219.5,-225.7"/>
<polygon fill="#000000" stroke="#000000" points="269.6539,-366.1381 276.7972,-371.2307 273.577,-366.9191 277.5,-367.7 277.5,-367.7 277.5,-367.7 273.577,-366.9191 278.2028,-364.1693 269.6539,-366.1381 269.6539,-366.1381"/>
<ellipse fill="none" stroke="#000000" cx="266.5155" cy="-365.5134" rx="3.2" ry="3.2"/>
</g>
<!-- 社員マスタ -->
<g id="node3" class="node">
<title>社員マスタ</title>
<g id="a_node3"><a xlink:href="../../tables/______d3d8a641.html" xlink:title="社員マスタ" target="_top">
<polygon fill="#ffffff" stroke="transparent" points="141.5,-281.2 141.5,-386.2 219.5,-386.2 219.5,-281.2 141.5,-281.2"/>
<polygon fill="#f5f5f5" stroke="transparent" points="141.5,-362.7 141.5,-385.7 219.5,-385.7 219.5,-362.7 141.5,-362.7"/>
<polygon fill="none" stroke="#000000" points="141.5,-362.7 141.5,-385.7 219.5,-385.7 219.5,-362.7 141.5,-362.7"/>
<text text-anchor="start" x="137.7293" y="-371.3" font-family="Helvetica,sans-Serif" font-weight="bold" font-size="11.00" fill="#000000">社員マスタ</text>
<text text-anchor="start" x="185.0219" y="-370.8" font-family="Helvetica,sans-Serif" font-size="11.00" fill="#000000">[table]</text>
<polygon fill="none" stroke="#000000" points="141.5,-340.7 141.5,-362.7 219.5,-362.7 219.5,-340.7 141.5,-340.7"/>
<image xlink:href="../../images/primaryKeys.png" width="11px" height="12px" preserveAspectRatio="xMinYMin meet" x="146.5" y="-357.7"/>
<text text-anchor="start" x="158.8627" y="-347.8" font-family="Helvetica,sans-Serif" font-size="11.00" fill="#000000">社員コード</text>
<polygon fill="#ffffff" stroke="transparent" points="141.5,-318.7 141.5,-340.7 219.5,-340.7 219.5,-318.7 141.5,-318.7"/>
<polygon fill="none" stroke="#000000" points="141.5,-318.7 141.5,-340.7 219.5,-340.7 219.5,-318.7 141.5,-318.7"/>
<image xlink:href="../../images/foreignKeys.png" width="11px" height="12px" preserveAspectRatio="xMinYMin meet" x="146.5" y="-335.7"/>
<text text-anchor="start" x="151.5257" y="-325.8" font-family="Helvetica,sans-Serif" font-size="11.00" fill="#000000">部門コード</text>
<polygon fill="none" stroke="#000000" points="141.5,-299.7 141.5,-318.7 219.5,-318.7 219.5,-299.7 141.5,-299.7"/>
<text text-anchor="start" x="144.5" y="-305.8" font-family="Helvetica,sans-Serif" font-size="11.00" fill="#000000">...</text>
<polygon fill="#ffffff" stroke="transparent" points="141.5,-280.7 141.5,-299.7 219.5,-299.7 219.5,-280.7 141.5,-280.7"/>
<polygon fill="none" stroke="#000000" points="141.5,-280.7 141.5,-299.7 219.5,-299.7 219.5,-280.7 141.5,-280.7"/>
<polygon fill="#ffffff" stroke="transparent" points="142.5,-281.7 142.5,-298.7 171.5,-298.7 171.5,-281.7 142.5,-281.7"/>
<text text-anchor="start" x="144.5" y="-286.8" font-family="Helvetica,sans-Serif" font-size="11.00" fill="#000000">&lt; 1</text>
<polygon fill="#ffffff" stroke="transparent" points="171.5,-281.7 171.5,-298.7 190.5,-298.7 190.5,-281.7 171.5,-281.7"/>
<text text-anchor="start" x="177.9431" y="-286.8" font-family="Helvetica,sans-Serif" font-size="11.00" fill="#000000"> &#160;</text>
<polygon fill="#ffffff" stroke="transparent" points="190.5,-281.7 190.5,-298.7 218.5,-298.7 218.5,-281.7 190.5,-281.7"/>
<text text-anchor="start" x="200.9053" y="-286.8" font-family="Helvetica,sans-Serif" font-size="11.00" fill="#000000">1 &gt;</text>
<polygon fill="#000000" stroke="#000000" points="171.5,-281.7 171.5,-298.7 171.5,-298.7 171.5,-281.7 171.5,-281.7"/>
<polygon fill="#000000" stroke="#000000" points="190.5,-281.7 190.5,-298.7 190.5,-298.7 190.5,-281.7 190.5,-281.7"/>
</a>
</g>
</g>
<!-- 受注&#45;&gt;社員マスタ -->
<g id="edge2" class="edge">
<title>受注:w&#45;&gt;社員マスタ:e</title>
<path fill="none" stroke="#000000" d="M263.3756,-429.745C239.8298,-413.3652 258.2109,-351.7 219.5,-351.7"/>
<polygon fill="#000000" stroke="#000000" points="269.7963,-431.5428 276.5293,-437.1667 273.6482,-432.6214 277.5,-433.7 277.5,-433.7 277.5,-433.7 273.6482,-432.6214 278.4707,-430.2333 269.7963,-431.5428 269.7963,-431.5428"/>
<ellipse fill="none" stroke="#000000" cx="266.7148" cy="-430.6799" rx="3.2" ry="3.2"/>
</g>
<!-- 部門マスタ -->
<g id="node4" class="node">
<title>部門マスタ</title>
<g id="a_node4"><a xlink:href="../../tables/______3eb0dfec.html" xlink:title="部門マスタ" target="_top">
<polygon fill="#ffffff" stroke="transparent" points="8,-215.2 8,-364.2 86,-364.2 86,-215.2 8,-215.2"/>
<polygon fill="#f5f5f5" stroke="transparent" points="8,-340.7 8,-363.7 86,-363.7 86,-340.7 8,-340.7"/>
<polygon fill="none" stroke="#000000" points="8,-340.7 8,-363.7 86,-363.7 86,-340.7 8,-340.7"/>
<text text-anchor="start" x="-3.1077" y="-349.3" font-family="Helvetica,sans-Serif" font-weight="bold" font-size="11.00" fill="#000000">部門マスタ</text>
<text text-anchor="start" x="51.5219" y="-348.8" font-family="Helvetica,sans-Serif" font-size="11.00" fill="#000000">[table]</text>
<polygon fill="none" stroke="#000000" points="8,-318.7 8,-340.7 86,-340.7 86,-318.7 8,-318.7"/>
<image xlink:href="../../images/primaryKeys.png" width="11px" height="12px" preserveAspectRatio="xMinYMin meet" x="13" y="-335.7"/>
<text text-anchor="start" x="18.0257" y="-325.8" font-family="Helvetica,sans-Serif" font-size="11.00" fill="#000000">部門コード</text>
<polygon fill="none" stroke="#000000" points="8,-296.7 8,-318.7 86,-318.7 86,-296.7 8,-296.7"/>
<image xlink:href="../../images/primaryKeys.png" width="11px" height="12px" preserveAspectRatio="xMinYMin meet" x="13" y="-313.7"/>
<text text-anchor="start" x="34" y="-303.8" font-family="Helvetica,sans-Serif" font-size="11.00" fill="#000000">開始日</text>
<polygon fill="#ffffff" stroke="transparent" points="8,-274.7 8,-296.7 86,-296.7 86,-274.7 8,-274.7"/>
<polygon fill="none" stroke="#000000" points="8,-274.7 8,-296.7 86,-296.7 86,-274.7 8,-274.7"/>
<text text-anchor="start" x="34" y="-281.8" font-family="Helvetica,sans-Serif" font-size="11.00" fill="#000000">部門名</text>
<polygon fill="#ffffff" stroke="transparent" points="8,-252.7 8,-274.7 86,-274.7 86,-252.7 8,-252.7"/>
<polygon fill="none" stroke="#000000" points="8,-252.7 8,-274.7 86,-274.7 86,-252.7 8,-252.7"/>
<text text-anchor="start" x="28.3151" y="-259.8" font-family="Helvetica,sans-Serif" font-size="11.00" fill="#000000">部門パス</text>
<polygon fill="none" stroke="#000000" points="8,-233.7 8,-252.7 86,-252.7 86,-233.7 8,-233.7"/>
<text text-anchor="start" x="11" y="-239.8" font-family="Helvetica,sans-Serif" font-size="11.00" fill="#000000">...</text>
<polygon fill="#ffffff" stroke="transparent" points="8,-214.7 8,-233.7 86,-233.7 86,-214.7 8,-214.7"/>
<polygon fill="none" stroke="#000000" points="8,-214.7 8,-233.7 86,-233.7 86,-214.7 8,-214.7"/>
<polygon fill="#ffffff" stroke="transparent" points="9,-215.7 9,-232.7 32,-232.7 32,-215.7 9,-215.7"/>
<text text-anchor="start" x="11" y="-220.8" font-family="Helvetica,sans-Serif" font-size="11.00" fill="#000000"> &#160;</text>
<polygon fill="#ffffff" stroke="transparent" points="32,-215.7 32,-232.7 54,-232.7 54,-215.7 32,-215.7"/>
<text text-anchor="start" x="39.9431" y="-220.8" font-family="Helvetica,sans-Serif" font-size="11.00" fill="#000000"> &#160;</text>
<polygon fill="#ffffff" stroke="transparent" points="54,-215.7 54,-232.7 85,-232.7 85,-215.7 54,-215.7"/>
<text text-anchor="start" x="67.4053" y="-220.8" font-family="Helvetica,sans-Serif" font-size="11.00" fill="#000000">5 &gt;</text>
<polygon fill="#000000" stroke="#000000" points="32,-215.7 32,-232.7 32,-232.7 32,-215.7 32,-215.7"/>
<polygon fill="#000000" stroke="#000000" points="54,-215.7 54,-232.7 54,-232.7 54,-215.7 54,-215.7"/>
</a>
</g>
</g>
<!-- 受注&#45;&gt;部門マスタ -->
<g id="edge3" class="edge">
<title>受注:w&#45;&gt;部門マスタ:e</title>
<path fill="none" stroke="#000000" d="M263.3764,-525.3483C253.7525,-531.218 249.6535,-542.5223 234,-546.7 188.0527,-558.9628 163.6155,-577.0452 127,-546.7 51.4285,-484.0699 184.1508,-329.7 86,-329.7"/>
<polygon fill="#000000" stroke="#000000" points="269.7542,-523.7009 278.4004,-525.1856 273.6271,-522.7004 277.5,-521.7 277.5,-521.7 277.5,-521.7 273.6271,-522.7004 276.5996,-518.2144 269.7542,-523.7009 269.7542,-523.7009"/>
<ellipse fill="none" stroke="#000000" cx="266.6559" cy="-524.5012" rx="3.2" ry="3.2"/>
</g>
<!-- 受注&#45;&gt;部門マスタ -->
<g id="edge4" class="edge">
<title>受注:w&#45;&gt;部門マスタ:e</title>
<path fill="none" stroke="#000000" d="M263.2006,-503.2364C253.756,-508.6891 249.2561,-518.915 234,-522.7 187.8437,-534.1512 163.6413,-553.0142 127,-522.7 52.0483,-460.6907 183.2775,-307.7 86,-307.7"/>
<polygon fill="#000000" stroke="#000000" points="269.734,-501.6207 278.3643,-503.1947 273.617,-500.6603 277.5,-499.7 277.5,-499.7 277.5,-499.7 273.617,-500.6603 276.6357,-496.2053 269.734,-501.6207 269.734,-501.6207"/>
<ellipse fill="none" stroke="#000000" cx="266.6276" cy="-502.389" rx="3.2" ry="3.2"/>
</g>
<!-- 顧客マスタ -->
<g id="node5" class="node">
<title>顧客マスタ</title>
<g id="a_node5"><a xlink:href="../../tables/______8e04fe89.html" xlink:title="顧客マスタ" target="_top">
<polygon fill="#ffffff" stroke="transparent" points="135,-407.2 135,-512.2 226,-512.2 226,-407.2 135,-407.2"/>
<polygon fill="#f5f5f5" stroke="transparent" points="135.5,-488.7 135.5,-511.7 226.5,-511.7 226.5,-488.7 135.5,-488.7"/>
<polygon fill="none" stroke="#000000" points="135.5,-488.7 135.5,-511.7 226.5,-511.7 226.5,-488.7 135.5,-488.7"/>
<text text-anchor="start" x="124.0892" y="-497.3" font-family="Helvetica,sans-Serif" font-weight="bold" font-size="11.00" fill="#000000">顧客マスタ</text>
<text text-anchor="start" x="191.5437" y="-496.8" font-family="Helvetica,sans-Serif" font-size="11.00" fill="#000000">[table]</text>
<polygon fill="none" stroke="#000000" points="135.5,-466.7 135.5,-488.7 226.5,-488.7 226.5,-466.7 135.5,-466.7"/>
<image xlink:href="../../images/primaryKeys.png" width="11px" height="12px" preserveAspectRatio="xMinYMin meet" x="140.5" y="-483.7"/>
<text text-anchor="start" x="151.2226" y="-473.8" font-family="Helvetica,sans-Serif" font-size="11.00" fill="#000000">顧客コード</text>
<polygon fill="none" stroke="#000000" points="135.5,-444.7 135.5,-466.7 226.5,-466.7 226.5,-444.7 135.5,-444.7"/>
<image xlink:href="../../images/primaryKeys.png" width="11px" height="12px" preserveAspectRatio="xMinYMin meet" x="140.5" y="-461.7"/>
<text text-anchor="start" x="155.5" y="-451.8" font-family="Helvetica,sans-Serif" font-size="11.00" fill="#000000">顧客枝番</text>
<polygon fill="none" stroke="#000000" points="135.5,-425.7 135.5,-444.7 226.5,-444.7 226.5,-425.7 135.5,-425.7"/>
<text text-anchor="start" x="138.5" y="-431.8" font-family="Helvetica,sans-Serif" font-size="11.00" fill="#000000">...</text>
<polygon fill="#ffffff" stroke="transparent" points="135.5,-406.7 135.5,-425.7 226.5,-425.7 226.5,-406.7 135.5,-406.7"/>
<polygon fill="none" stroke="#000000" points="135.5,-406.7 135.5,-425.7 226.5,-425.7 226.5,-406.7 135.5,-406.7"/>
<polygon fill="#ffffff" stroke="transparent" points="136.5,-407.7 136.5,-424.7 169.5,-424.7 169.5,-407.7 136.5,-407.7"/>
<text text-anchor="start" x="138.5" y="-412.8" font-family="Helvetica,sans-Serif" font-size="11.00" fill="#000000">&lt; 1</text>
<polygon fill="#ffffff" stroke="transparent" points="169.5,-407.7 169.5,-424.7 193.5,-424.7 193.5,-407.7 169.5,-407.7"/>
<text text-anchor="start" x="178.4431" y="-412.8" font-family="Helvetica,sans-Serif" font-size="11.00" fill="#000000"> &#160;</text>
<polygon fill="#ffffff" stroke="transparent" points="193.5,-407.7 193.5,-424.7 225.5,-424.7 225.5,-407.7 193.5,-407.7"/>
<text text-anchor="start" x="207.9053" y="-412.8" font-family="Helvetica,sans-Serif" font-size="11.00" fill="#000000">2 &gt;</text>
<polygon fill="#000000" stroke="#000000" points="169.5,-407.7 169.5,-424.7 169.5,-424.7 169.5,-407.7 169.5,-407.7"/>
<polygon fill="#000000" stroke="#000000" points="193.5,-407.7 193.5,-424.7 193.5,-424.7 193.5,-407.7 193.5,-407.7"/>
</a>
</g>
</g>
<!-- 受注&#45;&gt;顧客マスタ -->
<g id="edge5" class="edge">
<title>受注:w&#45;&gt;顧客マスタ:e</title>
<path fill="none" stroke="#000000" d="M262.776,-477.7C250.7815,-477.7 243.3229,-477.7 226.5,-477.7"/>
<polygon fill="#000000" stroke="#000000" points="269.5,-477.7001 277.5,-481.3 273.5,-477.7 277.5,-477.7 277.5,-477.7 277.5,-477.7 273.5,-477.7 277.5,-474.1 269.5,-477.7001 269.5,-477.7001"/>
<ellipse fill="none" stroke="#000000" cx="266.3" cy="-477.7001" rx="3.2" ry="3.2"/>
</g>
<!-- 受注&#45;&gt;顧客マスタ -->
<g id="edge6" class="edge">
<title>受注:w&#45;&gt;顧客マスタ:e</title>
<path fill="none" stroke="#000000" d="M262.776,-455.7C250.7815,-455.7 243.3229,-455.7 226.5,-455.7"/>
<polygon fill="#000000" stroke="#000000" points="269.5,-455.7001 277.5,-459.3 273.5,-455.7 277.5,-455.7 277.5,-455.7 277.5,-455.7 273.5,-455.7 277.5,-452.1 269.5,-455.7001 269.5,-455.7001"/>
<ellipse fill="none" stroke="#000000" cx="266.3" cy="-455.7001" rx="3.2" ry="3.2"/>
</g>
<!-- 社員マスタ&#45;&gt;部門マスタ -->
<g id="edge11" class="edge">
<title>社員マスタ:w&#45;&gt;部門マスタ:e</title>
<path fill="none" stroke="#000000" d="M126.7286,-329.7C112.9265,-329.7 104.8854,-329.7 86,-329.7"/>
<polygon fill="#000000" stroke="#000000" points="133.5,-329.7001 141.5,-333.3 137.5,-329.7 141.5,-329.7 141.5,-329.7 141.5,-329.7 137.5,-329.7 141.5,-326.1 133.5,-329.7001 133.5,-329.7001"/>
<ellipse fill="none" stroke="#000000" cx="130.3" cy="-329.7001" rx="3.2" ry="3.2"/>
</g>
<!-- 受注明細 -->
<g id="node6" class="node">
<title>受注明細</title>
<g id="a_node6"><a xlink:href="../../tables/_____27c23493.html" xlink:title="受注明細" target="_top">
<polygon fill="#ffffff" stroke="transparent" points="479,-473.2 479,-600.2 549,-600.2 549,-473.2 479,-473.2"/>
<polygon fill="#f5f5f5" stroke="transparent" points="479,-576.7 479,-599.7 549,-599.7 549,-576.7 479,-576.7"/>
<polygon fill="none" stroke="#000000" points="479,-576.7 479,-599.7 549,-599.7 549,-576.7 479,-576.7"/>
<text text-anchor="start" x="476.1006" y="-585.3" font-family="Helvetica,sans-Serif" font-weight="bold" font-size="11.00" fill="#000000">受注明細</text>
<text text-anchor="start" x="514.5219" y="-584.8" font-family="Helvetica,sans-Serif" font-size="11.00" fill="#000000">[table]</text>
<polygon fill="none" stroke="#000000" points="479,-554.7 479,-576.7 549,-576.7 549,-554.7 479,-554.7"/>
<image xlink:href="../../images/primaryKeys.png" width="11px" height="12px" preserveAspectRatio="xMinYMin meet" x="484" y="-571.7"/>
<text text-anchor="start" x="499.9021" y="-561.8" font-family="Helvetica,sans-Serif" font-size="11.00" fill="#000000">受注番号</text>
<polygon fill="none" stroke="#000000" points="479,-532.7 479,-554.7 549,-554.7 549,-532.7 479,-532.7"/>
<image xlink:href="../../images/primaryKeys.png" width="11px" height="12px" preserveAspectRatio="xMinYMin meet" x="484" y="-549.7"/>
<text text-anchor="start" x="501" y="-539.8" font-family="Helvetica,sans-Serif" font-size="11.00" fill="#000000">明細番号</text>
<polygon fill="#ffffff" stroke="transparent" points="479,-510.7 479,-532.7 549,-532.7 549,-510.7 479,-510.7"/>
<polygon fill="none" stroke="#000000" points="479,-510.7 479,-532.7 549,-532.7 549,-510.7 479,-510.7"/>
<image xlink:href="../../images/foreignKeys.png" width="11px" height="12px" preserveAspectRatio="xMinYMin meet" x="484" y="-527.7"/>
<text text-anchor="start" x="492.0547" y="-517.8" font-family="Helvetica,sans-Serif" font-size="11.00" fill="#000000">商品コード</text>
<polygon fill="none" stroke="#000000" points="479,-491.7 479,-510.7 549,-510.7 549,-491.7 479,-491.7"/>
<text text-anchor="start" x="482" y="-497.8" font-family="Helvetica,sans-Serif" font-size="11.00" fill="#000000">...</text>
<polygon fill="#ffffff" stroke="transparent" points="479,-472.7 479,-491.7 549,-491.7 549,-472.7 479,-472.7"/>
<polygon fill="none" stroke="#000000" points="479,-472.7 479,-491.7 549,-491.7 549,-472.7 479,-472.7"/>
<polygon fill="#ffffff" stroke="transparent" points="480,-473.7 480,-490.7 509,-490.7 509,-473.7 480,-473.7"/>
<text text-anchor="start" x="482" y="-478.8" font-family="Helvetica,sans-Serif" font-size="11.00" fill="#000000">&lt; 2</text>
<polygon fill="#ffffff" stroke="transparent" points="509,-473.7 509,-490.7 529,-490.7 529,-473.7 509,-473.7"/>
<text text-anchor="start" x="515.9431" y="-478.8" font-family="Helvetica,sans-Serif" font-size="11.00" fill="#000000"> &#160;</text>
<polygon fill="#ffffff" stroke="transparent" points="529,-473.7 529,-490.7 548,-490.7 548,-473.7 529,-473.7"/>
<text text-anchor="start" x="539.8862" y="-478.8" font-family="Helvetica,sans-Serif" font-size="11.00" fill="#000000"> &#160;</text>
<polygon fill="#000000" stroke="#000000" points="509,-473.7 509,-490.7 509,-490.7 509,-473.7 509,-473.7"/>
<polygon fill="#000000" stroke="#000000" points="529,-473.7 529,-490.7 529,-490.7 529,-473.7 529,-473.7"/>
</a>
</g>
</g>
<!-- 受注明細&#45;&gt;受注 -->
<g id="edge7" class="edge">
<title>受注明細:w&#45;&gt;受注:e</title>
<path fill="none" stroke="#000000" d="M464.4203,-565.7C452.5435,-565.7 445.158,-565.7 428.5,-565.7"/>
<polygon fill="#000000" stroke="#000000" points="471,-565.7001 479,-569.3 475,-565.7 479,-565.7 479,-565.7 479,-565.7 475,-565.7 479,-562.1 471,-565.7001 471,-565.7001"/>
<ellipse fill="none" stroke="#000000" cx="467.8" cy="-565.7001" rx="3.2" ry="3.2"/>
</g>
<!-- 売上 -->
<g id="node7" class="node">
<title>売上</title>
<g id="a_node7"><a xlink:href="../../tables/___b1358.html" xlink:title="売上" target="_top">
<polygon fill="#ffffff" stroke="transparent" points="480.5,-38.2 480.5,-231.2 547.5,-231.2 547.5,-38.2 480.5,-38.2"/>
<polygon fill="#f5f5f5" stroke="transparent" points="481,-207.7 481,-230.7 548,-230.7 548,-207.7 481,-207.7"/>
<polygon fill="none" stroke="#000000" points="481,-207.7 481,-230.7 548,-230.7 548,-207.7 481,-207.7"/>
<text text-anchor="start" x="479.5793" y="-216.3" font-family="Helvetica,sans-Serif" font-weight="bold" font-size="11.00" fill="#000000">売上</text>
<text text-anchor="start" x="513.0437" y="-215.8" font-family="Helvetica,sans-Serif" font-size="11.00" fill="#000000">[table]</text>
<polygon fill="none" stroke="#000000" points="481,-185.7 481,-207.7 548,-207.7 548,-185.7 481,-185.7"/>
<image xlink:href="../../images/primaryKeys.png" width="11px" height="12px" preserveAspectRatio="xMinYMin meet" x="486" y="-202.7"/>
<text text-anchor="start" x="500.2101" y="-192.8" font-family="Helvetica,sans-Serif" font-size="11.00" fill="#000000">売上番号</text>
<polygon fill="#ffffff" stroke="transparent" points="481,-163.7 481,-185.7 548,-185.7 548,-163.7 481,-163.7"/>
<polygon fill="none" stroke="#000000" points="481,-163.7 481,-185.7 548,-185.7 548,-163.7 481,-163.7"/>
<text text-anchor="start" x="501" y="-170.8" font-family="Helvetica,sans-Serif" font-size="11.00" fill="#000000">売上日</text>
<polygon fill="#ffffff" stroke="transparent" points="481,-141.7 481,-163.7 548,-163.7 548,-141.7 481,-141.7"/>
<polygon fill="none" stroke="#000000" points="481,-141.7 481,-163.7 548,-163.7 548,-141.7 481,-141.7"/>
<image xlink:href="../../images/foreignKeys.png" width="11px" height="12px" preserveAspectRatio="xMinYMin meet" x="486" y="-158.7"/>
<text text-anchor="start" x="499.9021" y="-148.8" font-family="Helvetica,sans-Serif" font-size="11.00" fill="#000000">受注番号</text>
<polygon fill="#ffffff" stroke="transparent" points="481,-119.7 481,-141.7 548,-141.7 548,-119.7 481,-119.7"/>
<polygon fill="none" stroke="#000000" points="481,-119.7 481,-141.7 548,-141.7 548,-119.7 481,-119.7"/>
<image xlink:href="../../images/foreignKeys.png" width="11px" height="12px" preserveAspectRatio="xMinYMin meet" x="486" y="-136.7"/>
<text text-anchor="start" x="485.0257" y="-126.8" font-family="Helvetica,sans-Serif" font-size="11.00" fill="#000000">部門コード</text>
<polygon fill="#ffffff" stroke="transparent" points="481,-97.7 481,-119.7 548,-119.7 548,-97.7 481,-97.7"/>
<polygon fill="none" stroke="#000000" points="481,-97.7 481,-119.7 548,-119.7 548,-97.7 481,-97.7"/>
<image xlink:href="../../images/foreignKeys.png" width="11px" height="12px" preserveAspectRatio="xMinYMin meet" x="486" y="-114.7"/>
<text text-anchor="start" x="501" y="-104.8" font-family="Helvetica,sans-Serif" font-size="11.00" fill="#000000">開始日</text>
<polygon fill="#ffffff" stroke="transparent" points="481,-75.7 481,-97.7 548,-97.7 548,-75.7 481,-75.7"/>
<polygon fill="none" stroke="#000000" points="481,-75.7 481,-97.7 548,-97.7 548,-75.7 481,-75.7"/>
<image xlink:href="../../images/foreignKeys.png" width="11px" height="12px" preserveAspectRatio="xMinYMin meet" x="486" y="-92.7"/>
<text text-anchor="start" x="483.4978" y="-82.8" font-family="Helvetica,sans-Serif" font-size="11.00" fill="#000000">取引先コード</text>
<polygon fill="none" stroke="#000000" points="481,-56.7 481,-75.7 548,-75.7 548,-56.7 481,-56.7"/>
<text text-anchor="start" x="484" y="-62.8" font-family="Helvetica,sans-Serif" font-size="11.00" fill="#000000">...</text>
<polygon fill="#ffffff" stroke="transparent" points="481,-37.7 481,-56.7 548,-56.7 548,-37.7 481,-37.7"/>
<polygon fill="none" stroke="#000000" points="481,-37.7 481,-56.7 548,-56.7 548,-37.7 481,-37.7"/>
<polygon fill="#ffffff" stroke="transparent" points="482,-38.7 482,-55.7 507,-55.7 507,-38.7 482,-38.7"/>
<text text-anchor="start" x="484" y="-43.8" font-family="Helvetica,sans-Serif" font-size="11.00" fill="#000000">&lt; 4</text>
<polygon fill="#ffffff" stroke="transparent" points="507,-38.7 507,-55.7 523,-55.7 523,-38.7 507,-38.7"/>
<text text-anchor="start" x="511.9431" y="-43.8" font-family="Helvetica,sans-Serif" font-size="11.00" fill="#000000"> &#160;</text>
<polygon fill="#ffffff" stroke="transparent" points="523,-38.7 523,-55.7 547,-55.7 547,-38.7 523,-38.7"/>
<text text-anchor="start" x="529.4053" y="-43.8" font-family="Helvetica,sans-Serif" font-size="11.00" fill="#000000">1 &gt;</text>
<polygon fill="#000000" stroke="#000000" points="507,-38.7 507,-55.7 507,-55.7 507,-38.7 507,-38.7"/>
<polygon fill="#000000" stroke="#000000" points="523,-38.7 523,-55.7 523,-55.7 523,-38.7 523,-38.7"/>
</a>
</g>
</g>
<!-- 売上&#45;&gt;受注 -->
<g id="edge8" class="edge">
<title>売上:w&#45;&gt;受注:e</title>
<path fill="none" stroke="#000000" d="M466.9648,-156.7876C403.2422,-199.6805 515.5955,-565.7 428.5,-565.7"/>
<polygon fill="#000000" stroke="#000000" points="473.3191,-154.937 482.0067,-156.1564 477.1596,-153.8185 481,-152.7 481,-152.7 481,-152.7 477.1596,-153.8185 479.9933,-149.2436 473.3191,-154.937 473.3191,-154.937"/>
<ellipse fill="none" stroke="#000000" cx="470.2468" cy="-155.8318" rx="3.2" ry="3.2"/>
</g>
<!-- 売上&#45;&gt;部門マスタ -->
<g id="edge9" class="edge">
<title>売上:w&#45;&gt;部門マスタ:e</title>
<path fill="none" stroke="#000000" d="M466.365,-130.3713C378.4277,-126.8461 183.9895,-97.0758 127,-144.7 62.3767,-198.7035 170.2172,-329.7 86,-329.7"/>
<polygon fill="#000000" stroke="#000000" points="473.002,-130.5203 480.9191,-134.2991 477.001,-130.6102 481,-130.7 481,-130.7 481,-130.7 477.001,-130.6102 481.0809,-127.1009 473.002,-130.5203 473.002,-130.5203"/>
<ellipse fill="none" stroke="#000000" cx="469.8028" cy="-130.4484" rx="3.2" ry="3.2"/>
</g>
<!-- 売上&#45;&gt;部門マスタ -->
<g id="edge10" class="edge">
<title>売上:w&#45;&gt;部門マスタ:e</title>
<path fill="none" stroke="#000000" d="M466.4846,-108.4332C318.8986,-103.0104 244.6442,-17.7601 127,-114.7 59.3239,-170.4657 173.6919,-307.7 86,-307.7"/>
<polygon fill="#000000" stroke="#000000" points="473.0014,-108.5529 480.9338,-112.2994 477.0007,-108.6265 481,-108.7 481,-108.7 481,-108.7 477.0007,-108.6265 481.0662,-105.1006 473.0014,-108.5529 473.0014,-108.5529"/>
<ellipse fill="none" stroke="#000000" cx="469.8019" cy="-108.4941" rx="3.2" ry="3.2"/>
</g>
</g>
</svg>
