<?xml version="1.0" encoding="UTF-8" standalone="no"?>
<!DOCTYPE svg PUBLIC "-//W3C//DTD SVG 1.1//EN"
 "http://www.w3.org/Graphics/SVG/1.1/DTD/svg11.dtd">
<!-- Generated by graphviz version 2.40.1 (20161225.0304)
 -->
<!-- Title: twoDegreesRelationshipsDiagramImplied Pages: 1 -->
<svg width="446pt" height="689pt"
 viewBox="0.00 0.00 446.00 689.20" xmlns="http://www.w3.org/2000/svg" xmlns:xlink="http://www.w3.org/1999/xlink">
<g id="graph0" class="graph" transform="scale(1 1) rotate(0) translate(4 685.2)">
<title>twoDegreesRelationshipsDiagramImplied</title>
<polygon fill="#ffffff" stroke="transparent" points="-4,4 -4,-685.2 442,-685.2 442,4 -4,4"/>
<text text-anchor="middle" x="72.4936" y="-7.3" font-family="Helvetica,sans-Serif" font-size="11.00" fill="#000000">Generated by SchemaSpy</text>
<!-- 代替商品 -->
<g id="node1" class="node">
<title>代替商品</title>
<g id="a_node1"><a xlink:href="../../tables/_____25696db7.html" xlink:title="代替商品" target="_top">
<polygon fill="#ffffff" stroke="transparent" points="321,-616.2 321,-677.2 391,-677.2 391,-616.2 321,-616.2"/>
<polygon fill="#f5f5f5" stroke="transparent" points="321,-653.7 321,-676.7 391,-676.7 391,-653.7 321,-653.7"/>
<polygon fill="none" stroke="#000000" points="321,-653.7 321,-676.7 391,-676.7 391,-653.7 321,-653.7"/>
<text text-anchor="start" x="316.2691" y="-662.3" font-family="Helvetica,sans-Serif" font-weight="bold" font-size="11.00" fill="#000000">代替商品</text>
<text text-anchor="start" x="356.5219" y="-661.8" font-family="Helvetica,sans-Serif" font-size="11.00" fill="#000000">[table]</text>
<polygon fill="none" stroke="#000000" points="321,-634.7 321,-653.7 391,-653.7 391,-634.7 321,-634.7"/>
<text text-anchor="start" x="324" y="-640.8" font-family="Helvetica,sans-Serif" font-size="11.00" fill="#000000">...</text>
<polygon fill="#ffffff" stroke="transparent" points="321,-615.7 321,-634.7 391,-634.7 391,-615.7 321,-615.7"/>
<polygon fill="none" stroke="#000000" points="321,-615.7 321,-634.7 391,-634.7 391,-615.7 321,-615.7"/>
<polygon fill="#ffffff" stroke="transparent" points="322,-616.7 322,-633.7 351,-633.7 351,-616.7 322,-616.7"/>
<text text-anchor="start" x="324" y="-621.8" font-family="Helvetica,sans-Serif" font-size="11.00" fill="#000000">&lt; 2</text>
<polygon fill="#ffffff" stroke="transparent" points="351,-616.7 351,-633.7 371,-633.7 371,-616.7 351,-616.7"/>
<text text-anchor="start" x="357.9431" y="-621.8" font-family="Helvetica,sans-Serif" font-size="11.00" fill="#000000"> &#160;</text>
<polygon fill="#ffffff" stroke="transparent" points="371,-616.7 371,-633.7 390,-633.7 390,-616.7 371,-616.7"/>
<text text-anchor="start" x="381.8862" y="-621.8" font-family="Helvetica,sans-Serif" font-size="11.00" fill="#000000"> &#160;</text>
<polygon fill="#000000" stroke="#000000" points="351,-616.7 351,-633.7 351,-633.7 351,-616.7 351,-616.7"/>
<polygon fill="#000000" stroke="#000000" points="371,-616.7 371,-633.7 371,-633.7 371,-616.7 371,-616.7"/>
</a>
</g>
</g>
<!-- 商品マスタ -->
<g id="node2" class="node">
<title>商品マスタ</title>
<g id="a_node2"><a xlink:href="../../tables/______d8ecb269.html" xlink:title="商品マスタ" target="_top">
<polygon fill="#ffffff" stroke="transparent" points="150,-384.2 150,-555.2 233,-555.2 233,-384.2 150,-384.2"/>
<polygon fill="#f5f5f5" stroke="transparent" points="150.5,-531.7 150.5,-554.7 233.5,-554.7 233.5,-531.7 150.5,-531.7"/>
<polygon fill="none" stroke="#000000" points="150.5,-531.7 150.5,-554.7 233.5,-554.7 233.5,-531.7 150.5,-531.7"/>
<text text-anchor="start" x="146.4212" y="-540.3" font-family="Helvetica,sans-Serif" font-weight="bold" font-size="11.00" fill="#000000">商品マスタ</text>
<text text-anchor="start" x="198.5437" y="-539.8" font-family="Helvetica,sans-Serif" font-size="11.00" fill="#000000">[table]</text>
<polygon fill="none" stroke="#000000" points="150.5,-509.7 150.5,-531.7 233.5,-531.7 233.5,-509.7 150.5,-509.7"/>
<image xlink:href="../../images/primaryKeys.png" width="11px" height="12px" preserveAspectRatio="xMinYMin meet" x="155.5" y="-526.7"/>
<text text-anchor="start" x="169.5547" y="-516.8" font-family="Helvetica,sans-Serif" font-size="11.00" fill="#000000">商品コード</text>
<polygon fill="#ffffff" stroke="transparent" points="150.5,-487.7 150.5,-509.7 233.5,-509.7 233.5,-487.7 150.5,-487.7"/>
<polygon fill="none" stroke="#000000" points="150.5,-487.7 150.5,-509.7 233.5,-509.7 233.5,-487.7 150.5,-487.7"/>
<text text-anchor="start" x="170.5" y="-494.8" font-family="Helvetica,sans-Serif" font-size="11.00" fill="#000000">商品略称</text>
<polygon fill="#ffffff" stroke="transparent" points="150.5,-465.7 150.5,-487.7 233.5,-487.7 233.5,-465.7 150.5,-465.7"/>
<polygon fill="none" stroke="#000000" points="150.5,-465.7 150.5,-487.7 233.5,-487.7 233.5,-465.7 150.5,-465.7"/>
<image xlink:href="../../images/foreignKeys.png" width="11px" height="12px" preserveAspectRatio="xMinYMin meet" x="155.5" y="-482.7"/>
<text text-anchor="start" x="157.3315" y="-472.8" font-family="Helvetica,sans-Serif" font-size="11.00" fill="#000000">商品分類コード</text>
<polygon fill="#ffffff" stroke="transparent" points="150.5,-443.7 150.5,-465.7 233.5,-465.7 233.5,-443.7 150.5,-443.7"/>
<polygon fill="none" stroke="#000000" points="150.5,-443.7 150.5,-465.7 233.5,-465.7 233.5,-443.7 150.5,-443.7"/>
<text text-anchor="start" x="161.9114" y="-450.8" font-family="Helvetica,sans-Serif" font-size="11.00" fill="#000000">仕入先コード</text>
<polygon fill="#ffffff" stroke="transparent" points="150.5,-421.7 150.5,-443.7 233.5,-443.7 233.5,-421.7 150.5,-421.7"/>
<polygon fill="none" stroke="#000000" points="150.5,-421.7 150.5,-443.7 233.5,-443.7 233.5,-421.7 150.5,-421.7"/>
<text text-anchor="start" x="170.5" y="-428.8" font-family="Helvetica,sans-Serif" font-size="11.00" fill="#000000">仕入先枝番</text>
<polygon fill="none" stroke="#000000" points="150.5,-402.7 150.5,-421.7 233.5,-421.7 233.5,-402.7 150.5,-402.7"/>
<text text-anchor="start" x="153.5" y="-408.8" font-family="Helvetica,sans-Serif" font-size="11.00" fill="#000000">...</text>
<polygon fill="#ffffff" stroke="transparent" points="150.5,-383.7 150.5,-402.7 233.5,-402.7 233.5,-383.7 150.5,-383.7"/>
<polygon fill="none" stroke="#000000" points="150.5,-383.7 150.5,-402.7 233.5,-402.7 233.5,-383.7 150.5,-383.7"/>
<polygon fill="#ffffff" stroke="transparent" points="151.5,-384.7 151.5,-401.7 181.5,-401.7 181.5,-384.7 151.5,-384.7"/>
<text text-anchor="start" x="153.5" y="-389.8" font-family="Helvetica,sans-Serif" font-size="11.00" fill="#000000">&lt; 1</text>
<polygon fill="#ffffff" stroke="transparent" points="181.5,-384.7 181.5,-401.7 202.5,-401.7 202.5,-384.7 181.5,-384.7"/>
<text text-anchor="start" x="188.9431" y="-389.8" font-family="Helvetica,sans-Serif" font-size="11.00" fill="#000000"> &#160;</text>
<polygon fill="#ffffff" stroke="transparent" points="202.5,-384.7 202.5,-401.7 232.5,-401.7 232.5,-384.7 202.5,-384.7"/>
<text text-anchor="start" x="214.9053" y="-389.8" font-family="Helvetica,sans-Serif" font-size="11.00" fill="#000000">6 &gt;</text>
<polygon fill="#000000" stroke="#000000" points="181.5,-384.7 181.5,-401.7 181.5,-401.7 181.5,-384.7 181.5,-384.7"/>
<polygon fill="#000000" stroke="#000000" points="202.5,-384.7 202.5,-401.7 202.5,-401.7 202.5,-384.7 202.5,-384.7"/>
</a>
</g>
</g>
<!-- 代替商品&#45;&gt;商品マスタ -->
<g id="edge1" class="edge">
<title>代替商品:w&#45;&gt;商品マスタ:e</title>
<path fill="none" stroke="#000000" d="M307.2163,-638.75C292.1726,-630.6586 287.2552,-616.508 274,-599.7 248.087,-566.8416 275.3469,-514.7 233.5,-520.7"/>
<polygon fill="#000000" stroke="#000000" points="313.4708,-640.9961 319.7832,-647.0881 317.2354,-642.348 321,-643.7 321,-643.7 321,-643.7 317.2354,-642.348 322.2168,-640.3119 313.4708,-640.9961 313.4708,-640.9961"/>
<ellipse fill="none" stroke="#000000" cx="310.4591" cy="-639.9145" rx="3.2" ry="3.2"/>
</g>
<!-- 代替商品&#45;&gt;商品マスタ -->
<g id="edge2" class="edge">
<title>代替商品:w&#45;&gt;商品マスタ:e</title>
<path fill="none" stroke="#000000" d="M306.3429,-645.0682C291.9766,-643.1027 286.9953,-629.1784 274,-612.7 248.087,-579.8416 275.3469,-527.7 233.5,-520.7"/>
<polygon fill="#000000" stroke="#000000" points="313.0346,-644.4436 321.3346,-647.2844 317.0173,-644.0718 321,-643.7 321,-643.7 321,-643.7 317.0173,-644.0718 320.6654,-640.1156 313.0346,-644.4436 313.0346,-644.4436"/>
<ellipse fill="none" stroke="#000000" cx="309.8485" cy="-644.741" rx="3.2" ry="3.2"/>
</g>
<!-- 商品分類マスタ -->
<g id="node6" class="node">
<title>商品分類マスタ</title>
<g id="a_node6"><a xlink:href="../../tables/________52e8cf11.html" xlink:title="商品分類マスタ" target="_top">
<polygon fill="#ffffff" stroke="transparent" points="8,-449.2 8,-510.2 101,-510.2 101,-449.2 8,-449.2"/>
<polygon fill="#f5f5f5" stroke="transparent" points="8.5,-486.7 8.5,-509.7 101.5,-509.7 101.5,-486.7 8.5,-486.7"/>
<polygon fill="none" stroke="#000000" points="8.5,-486.7 8.5,-509.7 101.5,-509.7 101.5,-486.7 8.5,-486.7"/>
<text text-anchor="start" x="-.3019" y="-495.3" font-family="Helvetica,sans-Serif" font-weight="bold" font-size="11.00" fill="#000000">商品分類マスタ</text>
<text text-anchor="start" x="67.0219" y="-494.8" font-family="Helvetica,sans-Serif" font-size="11.00" fill="#000000">[table]</text>
<polygon fill="none" stroke="#000000" points="8.5,-467.7 8.5,-486.7 101.5,-486.7 101.5,-467.7 8.5,-467.7"/>
<text text-anchor="start" x="11.5" y="-473.8" font-family="Helvetica,sans-Serif" font-size="11.00" fill="#000000">...</text>
<polygon fill="#ffffff" stroke="transparent" points="8.5,-448.7 8.5,-467.7 101.5,-467.7 101.5,-448.7 8.5,-448.7"/>
<polygon fill="none" stroke="#000000" points="8.5,-448.7 8.5,-467.7 101.5,-467.7 101.5,-448.7 8.5,-448.7"/>
<polygon fill="#ffffff" stroke="transparent" points="9.5,-449.7 9.5,-466.7 37.5,-466.7 37.5,-449.7 9.5,-449.7"/>
<text text-anchor="start" x="11.5" y="-454.8" font-family="Helvetica,sans-Serif" font-size="11.00" fill="#000000"> &#160;</text>
<polygon fill="#ffffff" stroke="transparent" points="37.5,-449.7 37.5,-466.7 64.5,-466.7 64.5,-449.7 37.5,-449.7"/>
<text text-anchor="start" x="47.9431" y="-454.8" font-family="Helvetica,sans-Serif" font-size="11.00" fill="#000000"> &#160;</text>
<polygon fill="#ffffff" stroke="transparent" points="64.5,-449.7 64.5,-466.7 100.5,-466.7 100.5,-449.7 64.5,-449.7"/>
<text text-anchor="start" x="82.9053" y="-454.8" font-family="Helvetica,sans-Serif" font-size="11.00" fill="#000000">1 &gt;</text>
<polygon fill="#000000" stroke="#000000" points="37.5,-449.7 37.5,-466.7 37.5,-466.7 37.5,-449.7 37.5,-449.7"/>
<polygon fill="#000000" stroke="#000000" points="64.5,-449.7 64.5,-466.7 64.5,-466.7 64.5,-449.7 64.5,-449.7"/>
</a>
</g>
</g>
<!-- 商品マスタ&#45;&gt;商品分類マスタ -->
<g id="edge6" class="edge">
<title>商品マスタ:w&#45;&gt;商品分類マスタ:e</title>
<path fill="none" stroke="#000000" d="M135.9909,-476.7C124.6774,-476.7 117.4931,-476.7 101.5,-476.7"/>
<polygon fill="#000000" stroke="#000000" points="142.5,-476.7001 150.5,-480.3 146.5,-476.7 150.5,-476.7 150.5,-476.7 150.5,-476.7 146.5,-476.7 150.5,-473.1 142.5,-476.7001 142.5,-476.7001"/>
<ellipse fill="none" stroke="#000000" cx="139.3" cy="-476.7001" rx="3.2" ry="3.2"/>
</g>
<!-- 受注 -->
<g id="node3" class="node">
<title>受注</title>
<g id="a_node3"><a xlink:href="../../tables/___a93f1.html" xlink:title="受注" target="_top">
<polygon fill="#ffffff" stroke="transparent" points="164.5,-108.2 164.5,-169.2 218.5,-169.2 218.5,-108.2 164.5,-108.2"/>
<polygon fill="#f5f5f5" stroke="transparent" points="164.5,-145.7 164.5,-168.7 218.5,-168.7 218.5,-145.7 164.5,-145.7"/>
<polygon fill="none" stroke="#000000" points="164.5,-145.7 164.5,-168.7 218.5,-168.7 218.5,-145.7 164.5,-145.7"/>
<text text-anchor="start" x="162.7713" y="-154.3" font-family="Helvetica,sans-Serif" font-weight="bold" font-size="11.00" fill="#000000">受注</text>
<text text-anchor="start" x="184.0219" y="-153.8" font-family="Helvetica,sans-Serif" font-size="11.00" fill="#000000">[table]</text>
<polygon fill="none" stroke="#000000" points="164.5,-126.7 164.5,-145.7 218.5,-145.7 218.5,-126.7 164.5,-126.7"/>
<text text-anchor="start" x="167.5" y="-132.8" font-family="Helvetica,sans-Serif" font-size="11.00" fill="#000000">...</text>
<polygon fill="#ffffff" stroke="transparent" points="164.5,-107.7 164.5,-126.7 218.5,-126.7 218.5,-107.7 164.5,-107.7"/>
<polygon fill="none" stroke="#000000" points="164.5,-107.7 164.5,-126.7 218.5,-126.7 218.5,-107.7 164.5,-107.7"/>
<polygon fill="#ffffff" stroke="transparent" points="165.5,-108.7 165.5,-125.7 186.5,-125.7 186.5,-108.7 165.5,-108.7"/>
<text text-anchor="start" x="167.5" y="-113.8" font-family="Helvetica,sans-Serif" font-size="11.00" fill="#000000">&lt; 6</text>
<polygon fill="#ffffff" stroke="transparent" points="186.5,-108.7 186.5,-125.7 197.5,-125.7 197.5,-108.7 186.5,-108.7"/>
<text text-anchor="start" x="188.9431" y="-113.8" font-family="Helvetica,sans-Serif" font-size="11.00" fill="#000000"> &#160;</text>
<polygon fill="#ffffff" stroke="transparent" points="197.5,-108.7 197.5,-125.7 217.5,-125.7 217.5,-108.7 197.5,-108.7"/>
<text text-anchor="start" x="199.9053" y="-113.8" font-family="Helvetica,sans-Serif" font-size="11.00" fill="#000000">2 &gt;</text>
<polygon fill="#000000" stroke="#000000" points="186.5,-108.7 186.5,-125.7 186.5,-125.7 186.5,-108.7 186.5,-108.7"/>
<polygon fill="#000000" stroke="#000000" points="197.5,-108.7 197.5,-125.7 197.5,-125.7 197.5,-108.7 197.5,-108.7"/>
</a>
</g>
</g>
<!-- 倉庫マスタ -->
<g id="node4" class="node">
<title>倉庫マスタ</title>
<g id="a_node4"><a xlink:href="../../tables/______939d4982.html" xlink:title="倉庫マスタ" target="_top">
<polygon fill="#ffffff" stroke="transparent" points="15.5,-163.2 15.5,-268.2 93.5,-268.2 93.5,-163.2 15.5,-163.2"/>
<polygon fill="#f5f5f5" stroke="transparent" points="15.5,-244.7 15.5,-267.7 93.5,-267.7 93.5,-244.7 15.5,-244.7"/>
<polygon fill="none" stroke="#000000" points="15.5,-244.7 15.5,-267.7 93.5,-267.7 93.5,-244.7 15.5,-244.7"/>
<text text-anchor="start" x="9.5898" y="-253.3" font-family="Helvetica,sans-Serif" font-weight="bold" font-size="11.00" fill="#000000">倉庫マスタ</text>
<text text-anchor="start" x="59.0219" y="-252.8" font-family="Helvetica,sans-Serif" font-size="11.00" fill="#000000">[table]</text>
<polygon fill="none" stroke="#000000" points="15.5,-222.7 15.5,-244.7 93.5,-244.7 93.5,-222.7 15.5,-222.7"/>
<image xlink:href="../../images/primaryKeys.png" width="11px" height="12px" preserveAspectRatio="xMinYMin meet" x="20.5" y="-239.7"/>
<text text-anchor="start" x="30.2232" y="-229.8" font-family="Helvetica,sans-Serif" font-size="11.00" fill="#000000">倉庫コード</text>
<polygon fill="#ffffff" stroke="transparent" points="15.5,-200.7 15.5,-222.7 93.5,-222.7 93.5,-200.7 15.5,-200.7"/>
<polygon fill="none" stroke="#000000" points="15.5,-200.7 15.5,-222.7 93.5,-222.7 93.5,-200.7 15.5,-200.7"/>
<text text-anchor="start" x="44.5" y="-207.8" font-family="Helvetica,sans-Serif" font-size="11.00" fill="#000000">倉庫名</text>
<polygon fill="none" stroke="#000000" points="15.5,-181.7 15.5,-200.7 93.5,-200.7 93.5,-181.7 15.5,-181.7"/>
<text text-anchor="start" x="18.5" y="-187.8" font-family="Helvetica,sans-Serif" font-size="11.00" fill="#000000">...</text>
<polygon fill="#ffffff" stroke="transparent" points="15.5,-162.7 15.5,-181.7 93.5,-181.7 93.5,-162.7 15.5,-162.7"/>
<polygon fill="none" stroke="#000000" points="15.5,-162.7 15.5,-181.7 93.5,-181.7 93.5,-162.7 15.5,-162.7"/>
<polygon fill="#ffffff" stroke="transparent" points="16.5,-163.7 16.5,-180.7 39.5,-180.7 39.5,-163.7 16.5,-163.7"/>
<text text-anchor="start" x="18.5" y="-168.8" font-family="Helvetica,sans-Serif" font-size="11.00" fill="#000000"> &#160;</text>
<polygon fill="#ffffff" stroke="transparent" points="39.5,-163.7 39.5,-180.7 61.5,-180.7 61.5,-163.7 39.5,-163.7"/>
<text text-anchor="start" x="47.4431" y="-168.8" font-family="Helvetica,sans-Serif" font-size="11.00" fill="#000000"> &#160;</text>
<polygon fill="#ffffff" stroke="transparent" points="61.5,-163.7 61.5,-180.7 92.5,-180.7 92.5,-163.7 61.5,-163.7"/>
<text text-anchor="start" x="74.9053" y="-168.8" font-family="Helvetica,sans-Serif" font-size="11.00" fill="#000000">2 &gt;</text>
<polygon fill="#000000" stroke="#000000" points="39.5,-163.7 39.5,-180.7 39.5,-180.7 39.5,-163.7 39.5,-163.7"/>
<polygon fill="#000000" stroke="#000000" points="61.5,-163.7 61.5,-180.7 61.5,-180.7 61.5,-163.7 61.5,-163.7"/>
</a>
</g>
</g>
<!-- 受注&#45;&gt;倉庫マスタ -->
<g id="edge3" class="edge">
<title>受注:w&#45;&gt;倉庫マスタ:e</title>
<path fill="none" stroke="#000000" stroke-dasharray="5,2" d="M150.2853,-138.7404C117.4238,-155.2818 141.6125,-233.7 93.5,-233.7"/>
<polygon fill="#000000" stroke="#000000" points="156.6769,-137.3733 165.253,-139.2204 160.5885,-136.5367 164.5,-135.7 164.5,-135.7 164.5,-135.7 160.5885,-136.5367 163.747,-132.1796 156.6769,-137.3733 156.6769,-137.3733"/>
<ellipse fill="none" stroke="#000000" cx="153.5477" cy="-138.0427" rx="3.2" ry="3.2"/>
</g>
<!-- 受注明細 -->
<g id="node5" class="node">
<title>受注明細</title>
<g id="a_node5"><a xlink:href="../../tables/_____27c23493.html" xlink:title="受注明細" target="_top">
<polygon fill="#ffffff" stroke="transparent" points="321,-38.2 321,-99.2 391,-99.2 391,-38.2 321,-38.2"/>
<polygon fill="#f5f5f5" stroke="transparent" points="321,-75.7 321,-98.7 391,-98.7 391,-75.7 321,-75.7"/>
<polygon fill="none" stroke="#000000" points="321,-75.7 321,-98.7 391,-98.7 391,-75.7 321,-75.7"/>
<text text-anchor="start" x="318.1006" y="-84.3" font-family="Helvetica,sans-Serif" font-weight="bold" font-size="11.00" fill="#000000">受注明細</text>
<text text-anchor="start" x="356.5219" y="-83.8" font-family="Helvetica,sans-Serif" font-size="11.00" fill="#000000">[table]</text>
<polygon fill="none" stroke="#000000" points="321,-56.7 321,-75.7 391,-75.7 391,-56.7 321,-56.7"/>
<text text-anchor="start" x="324" y="-62.8" font-family="Helvetica,sans-Serif" font-size="11.00" fill="#000000">...</text>
<polygon fill="#ffffff" stroke="transparent" points="321,-37.7 321,-56.7 391,-56.7 391,-37.7 321,-37.7"/>
<polygon fill="none" stroke="#000000" points="321,-37.7 321,-56.7 391,-56.7 391,-37.7 321,-37.7"/>
<polygon fill="#ffffff" stroke="transparent" points="322,-38.7 322,-55.7 351,-55.7 351,-38.7 322,-38.7"/>
<text text-anchor="start" x="324" y="-43.8" font-family="Helvetica,sans-Serif" font-size="11.00" fill="#000000">&lt; 2</text>
<polygon fill="#ffffff" stroke="transparent" points="351,-38.7 351,-55.7 371,-55.7 371,-38.7 351,-38.7"/>
<text text-anchor="start" x="357.9431" y="-43.8" font-family="Helvetica,sans-Serif" font-size="11.00" fill="#000000"> &#160;</text>
<polygon fill="#ffffff" stroke="transparent" points="371,-38.7 371,-55.7 390,-55.7 390,-38.7 371,-38.7"/>
<text text-anchor="start" x="381.8862" y="-43.8" font-family="Helvetica,sans-Serif" font-size="11.00" fill="#000000"> &#160;</text>
<polygon fill="#000000" stroke="#000000" points="351,-38.7 351,-55.7 351,-55.7 351,-38.7 351,-38.7"/>
<polygon fill="#000000" stroke="#000000" points="371,-38.7 371,-55.7 371,-55.7 371,-38.7 371,-38.7"/>
</a>
</g>
</g>
<!-- 受注明細&#45;&gt;商品マスタ -->
<g id="edge5" class="edge">
<title>受注明細:w&#45;&gt;商品マスタ:e</title>
<path fill="none" stroke="#000000" d="M306.631,-67.7166C289.8845,-73.1429 284.1867,-89.0506 274,-109.7 253.6986,-150.8527 279.3878,-520.7 233.5,-520.7"/>
<polygon fill="#000000" stroke="#000000" points="313.0776,-66.8119 321.5004,-69.2651 317.0388,-66.256 321,-65.7 321,-65.7 321,-65.7 317.0388,-66.256 320.4996,-62.1349 313.0776,-66.8119 313.0776,-66.8119"/>
<ellipse fill="none" stroke="#000000" cx="309.9087" cy="-67.2567" rx="3.2" ry="3.2"/>
</g>
<!-- 受注明細&#45;&gt;受注 -->
<g id="edge4" class="edge">
<title>受注明細:w&#45;&gt;受注:e</title>
<path fill="none" stroke="#000000" d="M306.5233,-67.5723C266.7633,-78.7043 268.2781,-135.7 218.5,-135.7"/>
<polygon fill="#000000" stroke="#000000" points="313.0661,-66.7262 321.4618,-69.2703 317.033,-66.2131 321,-65.7 321,-65.7 321,-65.7 317.033,-66.2131 320.5382,-62.1297 313.0661,-66.7262 313.0661,-66.7262"/>
<ellipse fill="none" stroke="#000000" cx="309.8925" cy="-67.1366" rx="3.2" ry="3.2"/>
</g>
<!-- 在庫 -->
<g id="node7" class="node">
<title>在庫</title>
<g id="a_node7"><a xlink:href="../../tables/___aec83.html" xlink:title="在庫" target="_top">
<polygon fill="#ffffff" stroke="transparent" points="282,-120.7 282,-430.7 430,-430.7 430,-120.7 282,-120.7"/>
<polygon fill="#f5f5f5" stroke="transparent" points="284,-405.7 284,-428.7 428,-428.7 428,-405.7 284,-405.7"/>
<polygon fill="none" stroke="#000000" points="284,-405.7 284,-428.7 428,-428.7 428,-405.7 284,-405.7"/>
<text text-anchor="start" x="281.9688" y="-414.3" font-family="Helvetica,sans-Serif" font-weight="bold" font-size="11.00" fill="#000000">在庫</text>
<text text-anchor="start" x="393.0437" y="-413.8" font-family="Helvetica,sans-Serif" font-size="11.00" fill="#000000">[table]</text>
<polygon fill="none" stroke="#000000" points="284,-383.7 284,-405.7 344,-405.7 344,-383.7 284,-383.7"/>
<image xlink:href="../../images/primaryKeys.png" width="11px" height="12px" preserveAspectRatio="xMinYMin meet" x="289" y="-400.7"/>
<text text-anchor="start" x="289.7232" y="-390.8" font-family="Helvetica,sans-Serif" font-size="11.00" fill="#000000">倉庫コード</text>
<polygon fill="none" stroke="#000000" points="344,-383.7 344,-405.7 428,-405.7 428,-383.7 344,-383.7"/>
<text text-anchor="start" x="347" y="-391.4" font-family="Helvetica,sans-Serif" font-size="11.00" fill="#000000">varchar[3]</text>
<polygon fill="none" stroke="#000000" points="284,-361.7 284,-383.7 344,-383.7 344,-361.7 284,-361.7"/>
<image xlink:href="../../images/primaryKeys.png" width="11px" height="12px" preserveAspectRatio="xMinYMin meet" x="289" y="-378.7"/>
<text text-anchor="start" x="291.5547" y="-368.8" font-family="Helvetica,sans-Serif" font-size="11.00" fill="#000000">商品コード</text>
<polygon fill="none" stroke="#000000" points="344,-361.7 344,-383.7 428,-383.7 428,-361.7 344,-361.7"/>
<text text-anchor="start" x="347" y="-369.4" font-family="Helvetica,sans-Serif" font-size="11.00" fill="#000000">varchar[16]</text>
<polygon fill="none" stroke="#000000" points="284,-339.7 284,-361.7 344,-361.7 344,-339.7 284,-339.7"/>
<image xlink:href="../../images/primaryKeys.png" width="11px" height="12px" preserveAspectRatio="xMinYMin meet" x="289" y="-356.7"/>
<text text-anchor="start" x="296.0543" y="-346.8" font-family="Helvetica,sans-Serif" font-size="11.00" fill="#000000">ロット番号</text>
<polygon fill="none" stroke="#000000" points="344,-339.7 344,-361.7 428,-361.7 428,-339.7 344,-339.7"/>
<text text-anchor="start" x="347" y="-347.4" font-family="Helvetica,sans-Serif" font-size="11.00" fill="#000000">varchar[20]</text>
<polygon fill="none" stroke="#000000" points="284,-317.7 284,-339.7 344,-339.7 344,-317.7 284,-317.7"/>
<image xlink:href="../../images/primaryKeys.png" width="11px" height="12px" preserveAspectRatio="xMinYMin meet" x="289" y="-334.7"/>
<text text-anchor="start" x="299.4956" y="-324.8" font-family="Helvetica,sans-Serif" font-size="11.00" fill="#000000">在庫区分</text>
<polygon fill="none" stroke="#000000" points="344,-317.7 344,-339.7 428,-339.7 428,-317.7 344,-317.7"/>
<text text-anchor="start" x="347" y="-325.4" font-family="Helvetica,sans-Serif" font-size="11.00" fill="#000000">varchar[1]</text>
<polygon fill="none" stroke="#000000" points="284,-295.7 284,-317.7 344,-317.7 344,-295.7 284,-295.7"/>
<image xlink:href="../../images/primaryKeys.png" width="11px" height="12px" preserveAspectRatio="xMinYMin meet" x="289" y="-312.7"/>
<text text-anchor="start" x="299.4956" y="-302.8" font-family="Helvetica,sans-Serif" font-size="11.00" fill="#000000">品質区分</text>
<polygon fill="none" stroke="#000000" points="344,-295.7 344,-317.7 428,-317.7 428,-295.7 344,-295.7"/>
<text text-anchor="start" x="347" y="-303.4" font-family="Helvetica,sans-Serif" font-size="11.00" fill="#000000">varchar[1]</text>
<polygon fill="none" stroke="#000000" points="284,-273.7 284,-295.7 344,-295.7 344,-273.7 284,-273.7"/>
<text text-anchor="start" x="298.5766" y="-280.8" font-family="Helvetica,sans-Serif" font-size="11.00" fill="#000000">実在庫数</text>
<polygon fill="none" stroke="#000000" points="344,-273.7 344,-295.7 428,-295.7 428,-273.7 344,-273.7"/>
<text text-anchor="start" x="347" y="-281.4" font-family="Helvetica,sans-Serif" font-size="11.00" fill="#000000">int4[10]</text>
<polygon fill="none" stroke="#000000" points="284,-251.7 284,-273.7 344,-273.7 344,-251.7 284,-251.7"/>
<text text-anchor="start" x="294.9103" y="-258.8" font-family="Helvetica,sans-Serif" font-size="11.00" fill="#000000">有効在庫数</text>
<polygon fill="none" stroke="#000000" points="344,-251.7 344,-273.7 428,-273.7 428,-251.7 344,-251.7"/>
<text text-anchor="start" x="347" y="-259.4" font-family="Helvetica,sans-Serif" font-size="11.00" fill="#000000">int4[10]</text>
<polygon fill="none" stroke="#000000" points="284,-229.7 284,-251.7 344,-251.7 344,-229.7 284,-229.7"/>
<text text-anchor="start" x="294.8168" y="-236.8" font-family="Helvetica,sans-Serif" font-size="11.00" fill="#000000">最終出荷日</text>
<polygon fill="none" stroke="#000000" points="344,-229.7 344,-251.7 428,-251.7 428,-229.7 344,-229.7"/>
<text text-anchor="start" x="346.8807" y="-237.4" font-family="Helvetica,sans-Serif" font-size="11.00" fill="#000000">timestamp[29,6]</text>
<polygon fill="none" stroke="#000000" points="284,-207.7 284,-229.7 344,-229.7 344,-207.7 284,-207.7"/>
<text text-anchor="start" x="297.6581" y="-214.8" font-family="Helvetica,sans-Serif" font-size="11.00" fill="#000000">作成日時</text>
<polygon fill="none" stroke="#000000" points="344,-207.7 344,-229.7 428,-229.7 428,-207.7 344,-207.7"/>
<text text-anchor="start" x="346.8807" y="-215.4" font-family="Helvetica,sans-Serif" font-size="11.00" fill="#000000">timestamp[29,6]</text>
<polygon fill="none" stroke="#000000" points="284,-185.7 284,-207.7 344,-207.7 344,-185.7 284,-185.7"/>
<text text-anchor="start" x="297.6581" y="-192.8" font-family="Helvetica,sans-Serif" font-size="11.00" fill="#000000">作成者名</text>
<polygon fill="none" stroke="#000000" points="344,-185.7 344,-207.7 428,-207.7 428,-185.7 344,-185.7"/>
<text text-anchor="start" x="347" y="-193.4" font-family="Helvetica,sans-Serif" font-size="11.00" fill="#000000">varchar[12]</text>
<polygon fill="none" stroke="#000000" points="284,-163.7 284,-185.7 344,-185.7 344,-163.7 284,-163.7"/>
<text text-anchor="start" x="301.6296" y="-170.8" font-family="Helvetica,sans-Serif" font-size="11.00" fill="#000000">更新日時</text>
<polygon fill="none" stroke="#000000" points="344,-163.7 344,-185.7 428,-185.7 428,-163.7 344,-163.7"/>
<text text-anchor="start" x="346.8807" y="-171.4" font-family="Helvetica,sans-Serif" font-size="11.00" fill="#000000">timestamp[29,6]</text>
<polygon fill="none" stroke="#000000" points="284,-141.7 284,-163.7 344,-163.7 344,-141.7 284,-141.7"/>
<text text-anchor="start" x="301.6296" y="-148.8" font-family="Helvetica,sans-Serif" font-size="11.00" fill="#000000">更新者名</text>
<polygon fill="none" stroke="#000000" points="344,-141.7 344,-163.7 428,-163.7 428,-141.7 344,-141.7"/>
<text text-anchor="start" x="347" y="-149.4" font-family="Helvetica,sans-Serif" font-size="11.00" fill="#000000">varchar[12]</text>
<polygon fill="#ffffff" stroke="transparent" points="284,-122.7 284,-141.7 428,-141.7 428,-122.7 284,-122.7"/>
<polygon fill="none" stroke="#000000" points="284,-122.7 284,-141.7 428,-141.7 428,-122.7 284,-122.7"/>
<polygon fill="#ffffff" stroke="transparent" points="285,-123.7 285,-140.7 336,-140.7 336,-123.7 285,-123.7"/>
<text text-anchor="start" x="287" y="-128.8" font-family="Helvetica,sans-Serif" font-size="11.00" fill="#000000">&lt; 2</text>
<polygon fill="#ffffff" stroke="transparent" points="336,-123.7 336,-140.7 377,-140.7 377,-123.7 336,-123.7"/>
<text text-anchor="start" x="353.4431" y="-128.8" font-family="Helvetica,sans-Serif" font-size="11.00" fill="#000000"> &#160;</text>
<polygon fill="#ffffff" stroke="transparent" points="377,-123.7 377,-140.7 427,-140.7 427,-123.7 377,-123.7"/>
<text text-anchor="start" x="409.4053" y="-128.8" font-family="Helvetica,sans-Serif" font-size="11.00" fill="#000000">0 &gt;</text>
<polygon fill="#000000" stroke="#000000" points="336,-123.7 336,-140.7 336,-140.7 336,-123.7 336,-123.7"/>
<polygon fill="#000000" stroke="#000000" points="377,-123.7 377,-140.7 377,-140.7 377,-123.7 377,-123.7"/>
<polygon fill="none" stroke="#000000" stroke-width="2" points="283,-121.7 283,-429.7 429,-429.7 429,-121.7 283,-121.7"/>
</a>
</g>
</g>
<!-- 在庫&#45;&gt;商品マスタ -->
<g id="edge8" class="edge">
<title>在庫:w&#45;&gt;商品マスタ:e</title>
<path fill="none" stroke="#000000" d="M269.6451,-375.6564C228.2497,-396.5155 297.1645,-520.7 233.5,-520.7"/>
<polygon fill="#000000" stroke="#000000" points="276.1644,-374.3138 284.7262,-376.226 280.0822,-373.5069 284,-372.7 284,-372.7 284,-372.7 280.0822,-373.5069 283.2738,-369.174 276.1644,-374.3138 276.1644,-374.3138"/>
<ellipse fill="none" stroke="#000000" cx="273.0302" cy="-374.9593" rx="3.2" ry="3.2"/>
</g>
<!-- 在庫&#45;&gt;倉庫マスタ -->
<g id="edge7" class="edge">
<title>在庫:w&#45;&gt;倉庫マスタ:e</title>
<path fill="none" stroke="#000000" d="M269.8976,-391.6276C215.669,-369.3693 144.3803,-233.7 93.5,-233.7"/>
<polygon fill="#000000" stroke="#000000" points="276.1834,-392.997 283.2336,-398.2175 280.0917,-393.8485 284,-394.7 284,-394.7 284,-394.7 280.0917,-393.8485 284.7664,-391.1825 276.1834,-392.997 276.1834,-392.997"/>
<ellipse fill="none" stroke="#000000" cx="273.0567" cy="-392.3158" rx="3.2" ry="3.2"/>
</g>
<!-- 売上明細 -->
<g id="node8" class="node">
<title>売上明細</title>
<g id="a_node8"><a xlink:href="../../tables/_____29a0763a.html" xlink:title="売上明細" target="_top">
<polygon fill="#ffffff" stroke="transparent" points="321,-534.2 321,-595.2 391,-595.2 391,-534.2 321,-534.2"/>
<polygon fill="#f5f5f5" stroke="transparent" points="321,-571.7 321,-594.7 391,-594.7 391,-571.7 321,-571.7"/>
<polygon fill="none" stroke="#000000" points="321,-571.7 321,-594.7 391,-594.7 391,-571.7 321,-571.7"/>
<text text-anchor="start" x="318.4086" y="-580.3" font-family="Helvetica,sans-Serif" font-weight="bold" font-size="11.00" fill="#000000">売上明細</text>
<text text-anchor="start" x="356.5219" y="-579.8" font-family="Helvetica,sans-Serif" font-size="11.00" fill="#000000">[table]</text>
<polygon fill="none" stroke="#000000" points="321,-552.7 321,-571.7 391,-571.7 391,-552.7 321,-552.7"/>
<text text-anchor="start" x="324" y="-558.8" font-family="Helvetica,sans-Serif" font-size="11.00" fill="#000000">...</text>
<polygon fill="#ffffff" stroke="transparent" points="321,-533.7 321,-552.7 391,-552.7 391,-533.7 321,-533.7"/>
<polygon fill="none" stroke="#000000" points="321,-533.7 321,-552.7 391,-552.7 391,-533.7 321,-533.7"/>
<polygon fill="#ffffff" stroke="transparent" points="322,-534.7 322,-551.7 351,-551.7 351,-534.7 322,-534.7"/>
<text text-anchor="start" x="324" y="-539.8" font-family="Helvetica,sans-Serif" font-size="11.00" fill="#000000">&lt; 2</text>
<polygon fill="#ffffff" stroke="transparent" points="351,-534.7 351,-551.7 371,-551.7 371,-534.7 351,-534.7"/>
<text text-anchor="start" x="357.9431" y="-539.8" font-family="Helvetica,sans-Serif" font-size="11.00" fill="#000000"> &#160;</text>
<polygon fill="#ffffff" stroke="transparent" points="371,-534.7 371,-551.7 390,-551.7 390,-534.7 371,-534.7"/>
<text text-anchor="start" x="381.8862" y="-539.8" font-family="Helvetica,sans-Serif" font-size="11.00" fill="#000000"> &#160;</text>
<polygon fill="#000000" stroke="#000000" points="351,-534.7 351,-551.7 351,-551.7 351,-534.7 351,-534.7"/>
<polygon fill="#000000" stroke="#000000" points="371,-534.7 371,-551.7 371,-551.7 371,-534.7 371,-534.7"/>
</a>
</g>
</g>
<!-- 売上明細&#45;&gt;商品マスタ -->
<g id="edge9" class="edge">
<title>売上明細:w&#45;&gt;商品マスタ:e</title>
<path fill="none" stroke="#000000" d="M306.6714,-559.9383C277.0059,-552.0906 271.0781,-520.7 233.5,-520.7"/>
<polygon fill="#000000" stroke="#000000" points="313.0598,-560.7237 320.5607,-565.2731 317.0299,-561.2118 321,-561.7 321,-561.7 321,-561.7 317.0299,-561.2118 321.4393,-558.1269 313.0598,-560.7237 313.0598,-560.7237"/>
<ellipse fill="none" stroke="#000000" cx="309.8837" cy="-560.3332" rx="3.2" ry="3.2"/>
</g>
<!-- 顧客別販売単価 -->
<g id="node9" class="node">
<title>顧客別販売単価</title>
<g id="a_node9"><a xlink:href="../../tables/________201bd2dc.html" xlink:title="顧客別販売単価" target="_top">
<polygon fill="#ffffff" stroke="transparent" points="309.5,-452.2 309.5,-513.2 402.5,-513.2 402.5,-452.2 309.5,-452.2"/>
<polygon fill="#f5f5f5" stroke="transparent" points="310,-489.7 310,-512.7 403,-512.7 403,-489.7 310,-489.7"/>
<polygon fill="none" stroke="#000000" points="310,-489.7 310,-512.7 403,-512.7 403,-489.7 310,-489.7"/>
<text text-anchor="start" x="293.1015" y="-498.3" font-family="Helvetica,sans-Serif" font-weight="bold" font-size="11.00" fill="#000000">顧客別販売単価</text>
<text text-anchor="start" x="368.5219" y="-497.8" font-family="Helvetica,sans-Serif" font-size="11.00" fill="#000000">[table]</text>
<polygon fill="none" stroke="#000000" points="310,-470.7 310,-489.7 403,-489.7 403,-470.7 310,-470.7"/>
<text text-anchor="start" x="313" y="-476.8" font-family="Helvetica,sans-Serif" font-size="11.00" fill="#000000">...</text>
<polygon fill="#ffffff" stroke="transparent" points="310,-451.7 310,-470.7 403,-470.7 403,-451.7 310,-451.7"/>
<polygon fill="none" stroke="#000000" points="310,-451.7 310,-470.7 403,-470.7 403,-451.7 310,-451.7"/>
<polygon fill="#ffffff" stroke="transparent" points="311,-452.7 311,-469.7 348,-469.7 348,-452.7 311,-452.7"/>
<text text-anchor="start" x="313" y="-457.8" font-family="Helvetica,sans-Serif" font-size="11.00" fill="#000000">&lt; 1</text>
<polygon fill="#ffffff" stroke="transparent" points="348,-452.7 348,-469.7 375,-469.7 375,-452.7 348,-452.7"/>
<text text-anchor="start" x="358.4431" y="-457.8" font-family="Helvetica,sans-Serif" font-size="11.00" fill="#000000"> &#160;</text>
<polygon fill="#ffffff" stroke="transparent" points="375,-452.7 375,-469.7 402,-469.7 402,-452.7 375,-452.7"/>
<text text-anchor="start" x="393.8862" y="-457.8" font-family="Helvetica,sans-Serif" font-size="11.00" fill="#000000"> &#160;</text>
<polygon fill="#000000" stroke="#000000" points="348,-452.7 348,-469.7 348,-469.7 348,-452.7 348,-452.7"/>
<polygon fill="#000000" stroke="#000000" points="375,-452.7 375,-469.7 375,-469.7 375,-452.7 375,-452.7"/>
</a>
</g>
</g>
<!-- 顧客別販売単価&#45;&gt;商品マスタ -->
<g id="edge10" class="edge">
<title>顧客別販売単価:w&#45;&gt;商品マスタ:e</title>
<path fill="none" stroke="#000000" d="M295.4954,-482.0218C270.7934,-490.6951 266.4999,-520.7 233.5,-520.7"/>
<polygon fill="#000000" stroke="#000000" points="302.1006,-480.9645 310.569,-483.2547 306.0503,-480.3323 310,-479.7 310,-479.7 310,-479.7 306.0503,-480.3323 309.431,-476.1453 302.1006,-480.9645 302.1006,-480.9645"/>
<ellipse fill="none" stroke="#000000" cx="298.9408" cy="-481.4704" rx="3.2" ry="3.2"/>
</g>
</g>
</svg>
