<?xml version="1.0" encoding="UTF-8" standalone="no"?>
<!DOCTYPE svg PUBLIC "-//W3C//DTD SVG 1.1//EN"
 "http://www.w3.org/Graphics/SVG/1.1/DTD/svg11.dtd">
<!-- Generated by graphviz version 2.40.1 (20161225.0304)
 -->
<!-- Title: twoDegreesRelationshipsDiagram Pages: 1 -->
<svg width="699pt" height="568pt"
 viewBox="0.00 0.00 699.00 567.63" xmlns="http://www.w3.org/2000/svg" xmlns:xlink="http://www.w3.org/1999/xlink">
<g id="graph0" class="graph" transform="scale(1 1) rotate(0) translate(4 563.6287)">
<title>twoDegreesRelationshipsDiagram</title>
<polygon fill="#ffffff" stroke="transparent" points="-4,4 -4,-563.6287 695,-563.6287 695,4 -4,4"/>
<text text-anchor="middle" x="72.4936" y="-7.3" font-family="Helvetica,sans-Serif" font-size="11.00" fill="#000000">Generated by SchemaSpy</text>
<!-- 受注 -->
<g id="node1" class="node">
<title>受注</title>
<g id="a_node1"><a xlink:href="../../tables/___a93f1.html" xlink:title="受注" target="_top">
<polygon fill="#ffffff" stroke="transparent" points="282,-75.1287 282,-495.1287 437,-495.1287 437,-75.1287 282,-75.1287"/>
<polygon fill="#f5f5f5" stroke="transparent" points="284.5,-470.1287 284.5,-493.1287 435.5,-493.1287 435.5,-470.1287 284.5,-470.1287"/>
<polygon fill="none" stroke="#000000" points="284.5,-470.1287 284.5,-493.1287 435.5,-493.1287 435.5,-470.1287 284.5,-470.1287"/>
<text text-anchor="start" x="282.7713" y="-478.7287" font-family="Helvetica,sans-Serif" font-weight="bold" font-size="11.00" fill="#000000">受注</text>
<text text-anchor="start" x="400.5437" y="-478.2287" font-family="Helvetica,sans-Serif" font-size="11.00" fill="#000000">[table]</text>
<polygon fill="none" stroke="#000000" points="284.5,-448.1287 284.5,-470.1287 351.5,-470.1287 351.5,-448.1287 284.5,-448.1287"/>
<image xlink:href="../../images/primaryKeys.png" width="11px" height="12px" preserveAspectRatio="xMinYMin meet" x="289.5" y="-465.129"/>
<text text-anchor="start" x="303.4021" y="-455.2287" font-family="Helvetica,sans-Serif" font-size="11.00" fill="#000000">受注番号</text>
<polygon fill="none" stroke="#000000" points="351.5,-448.1287 351.5,-470.1287 435.5,-470.1287 435.5,-448.1287 351.5,-448.1287"/>
<text text-anchor="start" x="354.5" y="-455.8287" font-family="Helvetica,sans-Serif" font-size="11.00" fill="#000000">varchar[20]</text>
<polygon fill="#ffffff" stroke="transparent" points="284.5,-426.1287 284.5,-448.1287 351.5,-448.1287 351.5,-426.1287 284.5,-426.1287"/>
<polygon fill="none" stroke="#000000" points="284.5,-426.1287 284.5,-448.1287 351.5,-448.1287 351.5,-426.1287 284.5,-426.1287"/>
<text text-anchor="start" x="304.5" y="-433.2287" font-family="Helvetica,sans-Serif" font-size="11.00" fill="#000000">受注日</text>
<polygon fill="none" stroke="#000000" points="351.5,-426.1287 351.5,-448.1287 435.5,-448.1287 435.5,-426.1287 351.5,-426.1287"/>
<text text-anchor="start" x="354.3807" y="-433.8287" font-family="Helvetica,sans-Serif" font-size="11.00" fill="#000000">timestamp[29,6]</text>
<polygon fill="none" stroke="#000000" points="284.5,-404.1287 284.5,-426.1287 351.5,-426.1287 351.5,-404.1287 284.5,-404.1287"/>
<image xlink:href="../../images/foreignKeys.png" width="11px" height="12px" preserveAspectRatio="xMinYMin meet" x="289.5" y="-421.129"/>
<text text-anchor="start" x="288.5257" y="-411.2287" font-family="Helvetica,sans-Serif" font-size="11.00" fill="#000000">部門コード</text>
<polygon fill="none" stroke="#000000" points="351.5,-404.1287 351.5,-426.1287 435.5,-426.1287 435.5,-404.1287 351.5,-404.1287"/>
<text text-anchor="start" x="354.5" y="-411.8287" font-family="Helvetica,sans-Serif" font-size="11.00" fill="#000000">varchar[6]</text>
<polygon fill="none" stroke="#000000" points="284.5,-382.1287 284.5,-404.1287 351.5,-404.1287 351.5,-382.1287 284.5,-382.1287"/>
<image xlink:href="../../images/foreignKeys.png" width="11px" height="12px" preserveAspectRatio="xMinYMin meet" x="289.5" y="-399.129"/>
<text text-anchor="start" x="304.5" y="-389.2287" font-family="Helvetica,sans-Serif" font-size="11.00" fill="#000000">開始日</text>
<polygon fill="none" stroke="#000000" points="351.5,-382.1287 351.5,-404.1287 435.5,-404.1287 435.5,-382.1287 351.5,-382.1287"/>
<text text-anchor="start" x="354.3807" y="-389.8287" font-family="Helvetica,sans-Serif" font-size="11.00" fill="#000000">timestamp[29,6]</text>
<polygon fill="#ffffff" stroke="transparent" points="284.5,-360.1287 284.5,-382.1287 351.5,-382.1287 351.5,-360.1287 284.5,-360.1287"/>
<polygon fill="none" stroke="#000000" points="284.5,-360.1287 284.5,-382.1287 351.5,-382.1287 351.5,-360.1287 284.5,-360.1287"/>
<image xlink:href="../../images/foreignKeys.png" width="11px" height="12px" preserveAspectRatio="xMinYMin meet" x="289.5" y="-377.129"/>
<text text-anchor="start" x="288.2227" y="-367.2287" font-family="Helvetica,sans-Serif" font-size="11.00" fill="#000000">顧客コード</text>
<polygon fill="none" stroke="#000000" points="351.5,-360.1287 351.5,-382.1287 435.5,-382.1287 435.5,-360.1287 351.5,-360.1287"/>
<text text-anchor="start" x="354.5" y="-367.8287" font-family="Helvetica,sans-Serif" font-size="11.00" fill="#000000">varchar[8]</text>
<polygon fill="#ffffff" stroke="transparent" points="284.5,-338.1287 284.5,-360.1287 351.5,-360.1287 351.5,-338.1287 284.5,-338.1287"/>
<polygon fill="none" stroke="#000000" points="284.5,-338.1287 284.5,-360.1287 351.5,-360.1287 351.5,-338.1287 284.5,-338.1287"/>
<image xlink:href="../../images/foreignKeys.png" width="11px" height="12px" preserveAspectRatio="xMinYMin meet" x="289.5" y="-355.129"/>
<text text-anchor="start" x="299.5241" y="-345.2287" font-family="Helvetica,sans-Serif" font-size="11.00" fill="#000000">顧客枝番</text>
<polygon fill="none" stroke="#000000" points="351.5,-338.1287 351.5,-360.1287 435.5,-360.1287 435.5,-338.1287 351.5,-338.1287"/>
<text text-anchor="start" x="354.5" y="-345.8287" font-family="Helvetica,sans-Serif" font-size="11.00" fill="#000000">int4[10]</text>
<polygon fill="#ffffff" stroke="transparent" points="284.5,-316.1287 284.5,-338.1287 351.5,-338.1287 351.5,-316.1287 284.5,-316.1287"/>
<polygon fill="none" stroke="#000000" points="284.5,-316.1287 284.5,-338.1287 351.5,-338.1287 351.5,-316.1287 284.5,-316.1287"/>
<image xlink:href="../../images/foreignKeys.png" width="11px" height="12px" preserveAspectRatio="xMinYMin meet" x="289.5" y="-333.129"/>
<text text-anchor="start" x="295.8627" y="-323.2287" font-family="Helvetica,sans-Serif" font-size="11.00" fill="#000000">社員コード</text>
<polygon fill="none" stroke="#000000" points="351.5,-316.1287 351.5,-338.1287 435.5,-338.1287 435.5,-316.1287 351.5,-316.1287"/>
<text text-anchor="start" x="354.5" y="-323.8287" font-family="Helvetica,sans-Serif" font-size="11.00" fill="#000000">varchar[10]</text>
<polygon fill="none" stroke="#000000" points="284.5,-294.1287 284.5,-316.1287 351.5,-316.1287 351.5,-294.1287 284.5,-294.1287"/>
<text text-anchor="start" x="304.5" y="-301.2287" font-family="Helvetica,sans-Serif" font-size="11.00" fill="#000000">納期</text>
<polygon fill="none" stroke="#000000" points="351.5,-294.1287 351.5,-316.1287 435.5,-316.1287 435.5,-294.1287 351.5,-294.1287"/>
<text text-anchor="start" x="354.3807" y="-301.8287" font-family="Helvetica,sans-Serif" font-size="11.00" fill="#000000">timestamp[29,6]</text>
<polygon fill="none" stroke="#000000" points="284.5,-272.1287 284.5,-294.1287 351.5,-294.1287 351.5,-272.1287 284.5,-272.1287"/>
<text text-anchor="start" x="286.8994" y="-279.2287" font-family="Helvetica,sans-Serif" font-size="11.00" fill="#000000">顧客注文番号</text>
<polygon fill="none" stroke="#000000" points="351.5,-272.1287 351.5,-294.1287 435.5,-294.1287 435.5,-272.1287 351.5,-272.1287"/>
<text text-anchor="start" x="354.5" y="-279.8287" font-family="Helvetica,sans-Serif" font-size="11.00" fill="#000000">varchar[20]</text>
<polygon fill="none" stroke="#000000" points="284.5,-250.1287 284.5,-272.1287 351.5,-272.1287 351.5,-250.1287 284.5,-250.1287"/>
<image xlink:href="../../images/foreignKeys.png" width="11px" height="12px" preserveAspectRatio="xMinYMin meet" x="289.5" y="-267.129"/>
<text text-anchor="start" x="293.7232" y="-257.2287" font-family="Helvetica,sans-Serif" font-size="11.00" fill="#000000">倉庫コード</text>
<polygon fill="none" stroke="#000000" points="351.5,-250.1287 351.5,-272.1287 435.5,-272.1287 435.5,-250.1287 351.5,-250.1287"/>
<text text-anchor="start" x="354.5" y="-257.8287" font-family="Helvetica,sans-Serif" font-size="11.00" fill="#000000">varchar[3]</text>
<polygon fill="none" stroke="#000000" points="284.5,-228.1287 284.5,-250.1287 351.5,-250.1287 351.5,-228.1287 284.5,-228.1287"/>
<text text-anchor="start" x="298.2981" y="-235.2287" font-family="Helvetica,sans-Serif" font-size="11.00" fill="#000000">受注金額</text>
<polygon fill="none" stroke="#000000" points="351.5,-228.1287 351.5,-250.1287 435.5,-250.1287 435.5,-228.1287 351.5,-228.1287"/>
<text text-anchor="start" x="354.5" y="-235.8287" font-family="Helvetica,sans-Serif" font-size="11.00" fill="#000000">int4[10]</text>
<polygon fill="none" stroke="#000000" points="284.5,-206.1287 284.5,-228.1287 351.5,-228.1287 351.5,-206.1287 284.5,-206.1287"/>
<text text-anchor="start" x="304.2034" y="-213.2287" font-family="Helvetica,sans-Serif" font-size="11.00" fill="#000000">消費税</text>
<polygon fill="none" stroke="#000000" points="351.5,-206.1287 351.5,-228.1287 435.5,-228.1287 435.5,-206.1287 351.5,-206.1287"/>
<text text-anchor="start" x="354.5" y="-213.8287" font-family="Helvetica,sans-Serif" font-size="11.00" fill="#000000">int4[10]</text>
<polygon fill="none" stroke="#000000" points="284.5,-184.1287 284.5,-206.1287 351.5,-206.1287 351.5,-184.1287 284.5,-184.1287"/>
<text text-anchor="start" x="285.5739" y="-191.2287" font-family="Helvetica,sans-Serif" font-size="11.00" fill="#000000">伝票コメント</text>
<polygon fill="none" stroke="#000000" points="351.5,-184.1287 351.5,-206.1287 435.5,-206.1287 435.5,-184.1287 351.5,-184.1287"/>
<text text-anchor="start" x="354.5" y="-191.8287" font-family="Helvetica,sans-Serif" font-size="11.00" fill="#000000">varchar[1000]</text>
<polygon fill="none" stroke="#000000" points="284.5,-162.1287 284.5,-184.1287 351.5,-184.1287 351.5,-162.1287 284.5,-162.1287"/>
<text text-anchor="start" x="301.6581" y="-169.2287" font-family="Helvetica,sans-Serif" font-size="11.00" fill="#000000">作成日時</text>
<polygon fill="none" stroke="#000000" points="351.5,-162.1287 351.5,-184.1287 435.5,-184.1287 435.5,-162.1287 351.5,-162.1287"/>
<text text-anchor="start" x="354.3807" y="-169.8287" font-family="Helvetica,sans-Serif" font-size="11.00" fill="#000000">timestamp[29,6]</text>
<polygon fill="none" stroke="#000000" points="284.5,-140.1287 284.5,-162.1287 351.5,-162.1287 351.5,-140.1287 284.5,-140.1287"/>
<text text-anchor="start" x="301.6581" y="-147.2287" font-family="Helvetica,sans-Serif" font-size="11.00" fill="#000000">作成者名</text>
<polygon fill="none" stroke="#000000" points="351.5,-140.1287 351.5,-162.1287 435.5,-162.1287 435.5,-140.1287 351.5,-140.1287"/>
<text text-anchor="start" x="354.5" y="-147.8287" font-family="Helvetica,sans-Serif" font-size="11.00" fill="#000000">varchar[12]</text>
<polygon fill="none" stroke="#000000" points="284.5,-118.1287 284.5,-140.1287 351.5,-140.1287 351.5,-118.1287 284.5,-118.1287"/>
<text text-anchor="start" x="304.5" y="-125.2287" font-family="Helvetica,sans-Serif" font-size="11.00" fill="#000000">更新日時</text>
<polygon fill="none" stroke="#000000" points="351.5,-118.1287 351.5,-140.1287 435.5,-140.1287 435.5,-118.1287 351.5,-118.1287"/>
<text text-anchor="start" x="354.3807" y="-125.8287" font-family="Helvetica,sans-Serif" font-size="11.00" fill="#000000">timestamp[29,6]</text>
<polygon fill="none" stroke="#000000" points="284.5,-96.1287 284.5,-118.1287 351.5,-118.1287 351.5,-96.1287 284.5,-96.1287"/>
<text text-anchor="start" x="304.5" y="-103.2287" font-family="Helvetica,sans-Serif" font-size="11.00" fill="#000000">更新者名</text>
<polygon fill="none" stroke="#000000" points="351.5,-96.1287 351.5,-118.1287 435.5,-118.1287 435.5,-96.1287 351.5,-96.1287"/>
<text text-anchor="start" x="354.5" y="-103.8287" font-family="Helvetica,sans-Serif" font-size="11.00" fill="#000000">varchar[12]</text>
<polygon fill="#ffffff" stroke="transparent" points="284.5,-77.1287 284.5,-96.1287 435.5,-96.1287 435.5,-77.1287 284.5,-77.1287"/>
<polygon fill="none" stroke="#000000" points="284.5,-77.1287 284.5,-96.1287 435.5,-96.1287 435.5,-77.1287 284.5,-77.1287"/>
<polygon fill="#ffffff" stroke="transparent" points="285.5,-78.1287 285.5,-95.1287 338.5,-95.1287 338.5,-78.1287 285.5,-78.1287"/>
<text text-anchor="start" x="287.5" y="-83.2287" font-family="Helvetica,sans-Serif" font-size="11.00" fill="#000000">&lt; 5</text>
<polygon fill="#ffffff" stroke="transparent" points="338.5,-78.1287 338.5,-95.1287 382.5,-95.1287 382.5,-78.1287 338.5,-78.1287"/>
<text text-anchor="start" x="357.4431" y="-83.2287" font-family="Helvetica,sans-Serif" font-size="11.00" fill="#000000"> &#160;</text>
<polygon fill="#ffffff" stroke="transparent" points="382.5,-78.1287 382.5,-95.1287 434.5,-95.1287 434.5,-78.1287 382.5,-78.1287"/>
<text text-anchor="start" x="416.9053" y="-83.2287" font-family="Helvetica,sans-Serif" font-size="11.00" fill="#000000">2 &gt;</text>
<polygon fill="#000000" stroke="#000000" points="338.5,-78.1287 338.5,-95.1287 338.5,-95.1287 338.5,-78.1287 338.5,-78.1287"/>
<polygon fill="#000000" stroke="#000000" points="382.5,-78.1287 382.5,-95.1287 382.5,-95.1287 382.5,-78.1287 382.5,-78.1287"/>
<polygon fill="none" stroke="#000000" stroke-width="2" points="283,-76.1287 283,-494.1287 436,-494.1287 436,-76.1287 283,-76.1287"/>
</a>
</g>
</g>
<!-- 社員マスタ -->
<g id="node2" class="node">
<title>社員マスタ</title>
<g id="a_node2"><a xlink:href="../../tables/______d3d8a641.html" xlink:title="社員マスタ" target="_top">
<polygon fill="#ffffff" stroke="transparent" points="148.5,-218.6287 148.5,-279.6287 226.5,-279.6287 226.5,-218.6287 148.5,-218.6287"/>
<polygon fill="#f5f5f5" stroke="transparent" points="148.5,-256.1287 148.5,-279.1287 226.5,-279.1287 226.5,-256.1287 148.5,-256.1287"/>
<polygon fill="none" stroke="#000000" points="148.5,-256.1287 148.5,-279.1287 226.5,-279.1287 226.5,-256.1287 148.5,-256.1287"/>
<text text-anchor="start" x="144.7293" y="-264.7287" font-family="Helvetica,sans-Serif" font-weight="bold" font-size="11.00" fill="#000000">社員マスタ</text>
<text text-anchor="start" x="192.0219" y="-264.2287" font-family="Helvetica,sans-Serif" font-size="11.00" fill="#000000">[table]</text>
<polygon fill="none" stroke="#000000" points="148.5,-237.1287 148.5,-256.1287 226.5,-256.1287 226.5,-237.1287 148.5,-237.1287"/>
<text text-anchor="start" x="151.5" y="-243.2287" font-family="Helvetica,sans-Serif" font-size="11.00" fill="#000000">...</text>
<polygon fill="#ffffff" stroke="transparent" points="148.5,-218.1287 148.5,-237.1287 226.5,-237.1287 226.5,-218.1287 148.5,-218.1287"/>
<polygon fill="none" stroke="#000000" points="148.5,-218.1287 148.5,-237.1287 226.5,-237.1287 226.5,-218.1287 148.5,-218.1287"/>
<polygon fill="#ffffff" stroke="transparent" points="149.5,-219.1287 149.5,-236.1287 178.5,-236.1287 178.5,-219.1287 149.5,-219.1287"/>
<text text-anchor="start" x="151.5" y="-224.2287" font-family="Helvetica,sans-Serif" font-size="11.00" fill="#000000">&lt; 1</text>
<polygon fill="#ffffff" stroke="transparent" points="178.5,-219.1287 178.5,-236.1287 197.5,-236.1287 197.5,-219.1287 178.5,-219.1287"/>
<text text-anchor="start" x="184.9431" y="-224.2287" font-family="Helvetica,sans-Serif" font-size="11.00" fill="#000000"> &#160;</text>
<polygon fill="#ffffff" stroke="transparent" points="197.5,-219.1287 197.5,-236.1287 225.5,-236.1287 225.5,-219.1287 197.5,-219.1287"/>
<text text-anchor="start" x="207.9053" y="-224.2287" font-family="Helvetica,sans-Serif" font-size="11.00" fill="#000000">1 &gt;</text>
<polygon fill="#000000" stroke="#000000" points="178.5,-219.1287 178.5,-236.1287 178.5,-236.1287 178.5,-219.1287 178.5,-219.1287"/>
<polygon fill="#000000" stroke="#000000" points="197.5,-219.1287 197.5,-236.1287 197.5,-236.1287 197.5,-219.1287 197.5,-219.1287"/>
</a>
</g>
</g>
<!-- 受注&#45;&gt;社員マスタ -->
<g id="edge1" class="edge">
<title>受注:w&#45;&gt;社員マスタ:e</title>
<path fill="none" stroke="#000000" d="M270.1243,-323.7957C258.6534,-317.2306 255.9637,-302.2134 241,-290.1287 238.3599,-287.9966 235.6313,-285.8213 232.8683,-283.6401"/>
<polygon fill="#000000" stroke="#000000" points="276.7067,-325.3218 283.6869,-330.6357 280.6034,-326.2253 284.5,-327.1287 284.5,-327.1287 284.5,-327.1287 280.6034,-326.2253 285.3131,-323.6218 276.7067,-325.3218 276.7067,-325.3218"/>
<ellipse fill="none" stroke="#000000" cx="273.5894" cy="-324.5991" rx="3.2" ry="3.2"/>
</g>
<!-- 部門マスタ -->
<g id="node3" class="node">
<title>部門マスタ</title>
<g id="a_node3"><a xlink:href="../../tables/______3eb0dfec.html" xlink:title="部門マスタ" target="_top">
<polygon fill="#ffffff" stroke="transparent" points="11.5,-426.6287 11.5,-487.6287 89.5,-487.6287 89.5,-426.6287 11.5,-426.6287"/>
<polygon fill="#f5f5f5" stroke="transparent" points="11.5,-464.1287 11.5,-487.1287 89.5,-487.1287 89.5,-464.1287 11.5,-464.1287"/>
<polygon fill="none" stroke="#000000" points="11.5,-464.1287 11.5,-487.1287 89.5,-487.1287 89.5,-464.1287 11.5,-464.1287"/>
<text text-anchor="start" x=".3923" y="-472.7287" font-family="Helvetica,sans-Serif" font-weight="bold" font-size="11.00" fill="#000000">部門マスタ</text>
<text text-anchor="start" x="55.0219" y="-472.2287" font-family="Helvetica,sans-Serif" font-size="11.00" fill="#000000">[table]</text>
<polygon fill="none" stroke="#000000" points="11.5,-445.1287 11.5,-464.1287 89.5,-464.1287 89.5,-445.1287 11.5,-445.1287"/>
<text text-anchor="start" x="14.5" y="-451.2287" font-family="Helvetica,sans-Serif" font-size="11.00" fill="#000000">...</text>
<polygon fill="#ffffff" stroke="transparent" points="11.5,-426.1287 11.5,-445.1287 89.5,-445.1287 89.5,-426.1287 11.5,-426.1287"/>
<polygon fill="none" stroke="#000000" points="11.5,-426.1287 11.5,-445.1287 89.5,-445.1287 89.5,-426.1287 11.5,-426.1287"/>
<polygon fill="#ffffff" stroke="transparent" points="12.5,-427.1287 12.5,-444.1287 35.5,-444.1287 35.5,-427.1287 12.5,-427.1287"/>
<text text-anchor="start" x="14.5" y="-432.2287" font-family="Helvetica,sans-Serif" font-size="11.00" fill="#000000"> &#160;</text>
<polygon fill="#ffffff" stroke="transparent" points="35.5,-427.1287 35.5,-444.1287 57.5,-444.1287 57.5,-427.1287 35.5,-427.1287"/>
<text text-anchor="start" x="43.4431" y="-432.2287" font-family="Helvetica,sans-Serif" font-size="11.00" fill="#000000"> &#160;</text>
<polygon fill="#ffffff" stroke="transparent" points="57.5,-427.1287 57.5,-444.1287 88.5,-444.1287 88.5,-427.1287 57.5,-427.1287"/>
<text text-anchor="start" x="70.9053" y="-432.2287" font-family="Helvetica,sans-Serif" font-size="11.00" fill="#000000">5 &gt;</text>
<polygon fill="#000000" stroke="#000000" points="35.5,-427.1287 35.5,-444.1287 35.5,-444.1287 35.5,-427.1287 35.5,-427.1287"/>
<polygon fill="#000000" stroke="#000000" points="57.5,-427.1287 57.5,-444.1287 57.5,-444.1287 57.5,-427.1287 57.5,-427.1287"/>
</a>
</g>
</g>
<!-- 受注&#45;&gt;部門マスタ -->
<g id="edge2" class="edge">
<title>受注:w&#45;&gt;部門マスタ:e</title>
<path fill="none" stroke="#000000" d="M270.3312,-418.6218C260.6424,-424.2681 256.4522,-435.2588 241,-440.1287 193.8135,-455.0002 137.0212,-458.3193 97.7898,-458.4958"/>
<polygon fill="#000000" stroke="#000000" points="276.7326,-417.0437 285.3617,-418.6241 280.6163,-416.0862 284.5,-415.1287 284.5,-415.1287 284.5,-415.1287 280.6163,-416.0862 283.6383,-411.6334 276.7326,-417.0437 276.7326,-417.0437"/>
<ellipse fill="none" stroke="#000000" cx="273.6256" cy="-417.8097" rx="3.2" ry="3.2"/>
</g>
<!-- 受注&#45;&gt;部門マスタ -->
<g id="edge3" class="edge">
<title>受注:w&#45;&gt;部門マスタ:e</title>
<path fill="none" stroke="#000000" d="M270.4002,-396.1279C260.5838,-401.0143 255.9306,-410.6925 241,-416.1287 227.6487,-420.9899 149.7795,-437.128 97.822,-447.6486"/>
<polygon fill="#000000" stroke="#000000" points="276.6751,-394.7932 285.249,-396.65 280.5875,-393.961 284.5,-393.1287 284.5,-393.1287 284.5,-393.1287 280.5875,-393.961 283.751,-389.6075 276.6751,-394.7932 276.6751,-394.7932"/>
<ellipse fill="none" stroke="#000000" cx="273.5451" cy="-395.459" rx="3.2" ry="3.2"/>
</g>
<!-- 顧客マスタ -->
<g id="node4" class="node">
<title>顧客マスタ</title>
<g id="a_node4"><a xlink:href="../../tables/______8e04fe89.html" xlink:title="顧客マスタ" target="_top">
<polygon fill="#ffffff" stroke="transparent" points="142,-300.6287 142,-405.6287 233,-405.6287 233,-300.6287 142,-300.6287"/>
<polygon fill="#f5f5f5" stroke="transparent" points="142.5,-382.1287 142.5,-405.1287 233.5,-405.1287 233.5,-382.1287 142.5,-382.1287"/>
<polygon fill="none" stroke="#000000" points="142.5,-382.1287 142.5,-405.1287 233.5,-405.1287 233.5,-382.1287 142.5,-382.1287"/>
<text text-anchor="start" x="131.0892" y="-390.7287" font-family="Helvetica,sans-Serif" font-weight="bold" font-size="11.00" fill="#000000">顧客マスタ</text>
<text text-anchor="start" x="198.5437" y="-390.2287" font-family="Helvetica,sans-Serif" font-size="11.00" fill="#000000">[table]</text>
<polygon fill="none" stroke="#000000" points="142.5,-360.1287 142.5,-382.1287 233.5,-382.1287 233.5,-360.1287 142.5,-360.1287"/>
<image xlink:href="../../images/primaryKeys.png" width="11px" height="12px" preserveAspectRatio="xMinYMin meet" x="147.5" y="-377.129"/>
<text text-anchor="start" x="158.2226" y="-367.2287" font-family="Helvetica,sans-Serif" font-size="11.00" fill="#000000">顧客コード</text>
<polygon fill="none" stroke="#000000" points="142.5,-338.1287 142.5,-360.1287 233.5,-360.1287 233.5,-338.1287 142.5,-338.1287"/>
<image xlink:href="../../images/primaryKeys.png" width="11px" height="12px" preserveAspectRatio="xMinYMin meet" x="147.5" y="-355.129"/>
<text text-anchor="start" x="162.5" y="-345.2287" font-family="Helvetica,sans-Serif" font-size="11.00" fill="#000000">顧客枝番</text>
<polygon fill="none" stroke="#000000" points="142.5,-319.1287 142.5,-338.1287 233.5,-338.1287 233.5,-319.1287 142.5,-319.1287"/>
<text text-anchor="start" x="145.5" y="-325.2287" font-family="Helvetica,sans-Serif" font-size="11.00" fill="#000000">...</text>
<polygon fill="#ffffff" stroke="transparent" points="142.5,-300.1287 142.5,-319.1287 233.5,-319.1287 233.5,-300.1287 142.5,-300.1287"/>
<polygon fill="none" stroke="#000000" points="142.5,-300.1287 142.5,-319.1287 233.5,-319.1287 233.5,-300.1287 142.5,-300.1287"/>
<polygon fill="#ffffff" stroke="transparent" points="143.5,-301.1287 143.5,-318.1287 176.5,-318.1287 176.5,-301.1287 143.5,-301.1287"/>
<text text-anchor="start" x="145.5" y="-306.2287" font-family="Helvetica,sans-Serif" font-size="11.00" fill="#000000">&lt; 1</text>
<polygon fill="#ffffff" stroke="transparent" points="176.5,-301.1287 176.5,-318.1287 200.5,-318.1287 200.5,-301.1287 176.5,-301.1287"/>
<text text-anchor="start" x="185.4431" y="-306.2287" font-family="Helvetica,sans-Serif" font-size="11.00" fill="#000000"> &#160;</text>
<polygon fill="#ffffff" stroke="transparent" points="200.5,-301.1287 200.5,-318.1287 232.5,-318.1287 232.5,-301.1287 200.5,-301.1287"/>
<text text-anchor="start" x="214.9053" y="-306.2287" font-family="Helvetica,sans-Serif" font-size="11.00" fill="#000000">2 &gt;</text>
<polygon fill="#000000" stroke="#000000" points="176.5,-301.1287 176.5,-318.1287 176.5,-318.1287 176.5,-301.1287 176.5,-301.1287"/>
<polygon fill="#000000" stroke="#000000" points="200.5,-301.1287 200.5,-318.1287 200.5,-318.1287 200.5,-301.1287 200.5,-301.1287"/>
</a>
</g>
</g>
<!-- 受注&#45;&gt;顧客マスタ -->
<g id="edge4" class="edge">
<title>受注:w&#45;&gt;顧客マスタ:e</title>
<path fill="none" stroke="#000000" d="M269.776,-371.1287C257.7815,-371.1287 250.3229,-371.1287 233.5,-371.1287"/>
<polygon fill="#000000" stroke="#000000" points="276.5,-371.1288 284.5,-374.7287 280.5,-371.1288 284.5,-371.1287 284.5,-371.1287 284.5,-371.1287 280.5,-371.1288 284.5,-367.5287 276.5,-371.1288 276.5,-371.1288"/>
<ellipse fill="none" stroke="#000000" cx="273.3" cy="-371.1288" rx="3.2" ry="3.2"/>
</g>
<!-- 受注&#45;&gt;顧客マスタ -->
<g id="edge5" class="edge">
<title>受注:w&#45;&gt;顧客マスタ:e</title>
<path fill="none" stroke="#000000" d="M269.776,-349.1287C257.7815,-349.1287 250.3229,-349.1287 233.5,-349.1287"/>
<polygon fill="#000000" stroke="#000000" points="276.5,-349.1288 284.5,-352.7287 280.5,-349.1288 284.5,-349.1287 284.5,-349.1287 284.5,-349.1287 280.5,-349.1288 284.5,-345.5287 276.5,-349.1288 276.5,-349.1288"/>
<ellipse fill="none" stroke="#000000" cx="273.3" cy="-349.1288" rx="3.2" ry="3.2"/>
</g>
<!-- 社員マスタ&#45;&gt;部門マスタ -->
<g id="edge14" class="edge">
<title>社員マスタ:w&#45;&gt;部門マスタ:e</title>
<path fill="none" stroke="#000000" d="M131.4109,-294.3093C96.7929,-339.264 74.95,-389.5329 62.4816,-422.4935"/>
<polygon fill="#000000" stroke="#000000" points="135.4791,-289.2452 143.2959,-285.263 137.9842,-286.1268 140.4894,-283.0084 140.4894,-283.0084 140.4894,-283.0084 137.9842,-286.1268 137.6828,-280.7538 135.4791,-289.2452 135.4791,-289.2452"/>
<ellipse fill="none" stroke="#000000" cx="133.475" cy="-291.7399" rx="3.2" ry="3.2"/>
</g>
<!-- 取引先マスタ -->
<g id="node8" class="node">
<title>取引先マスタ</title>
<g id="a_node8"><a xlink:href="../../tables/_______70f9c0bb.html" xlink:title="取引先マスタ" target="_top">
<polygon fill="#ffffff" stroke="transparent" points="8,-183.6287 8,-244.6287 93,-244.6287 93,-183.6287 8,-183.6287"/>
<polygon fill="#f5f5f5" stroke="transparent" points="8.5,-221.1287 8.5,-244.1287 93.5,-244.1287 93.5,-221.1287 8.5,-221.1287"/>
<polygon fill="none" stroke="#000000" points="8.5,-221.1287 8.5,-244.1287 93.5,-244.1287 93.5,-221.1287 8.5,-221.1287"/>
<text text-anchor="start" x="-.6356" y="-229.7287" font-family="Helvetica,sans-Serif" font-weight="bold" font-size="11.00" fill="#000000">取引先マスタ</text>
<text text-anchor="start" x="59.0219" y="-229.2287" font-family="Helvetica,sans-Serif" font-size="11.00" fill="#000000">[table]</text>
<polygon fill="none" stroke="#000000" points="8.5,-202.1287 8.5,-221.1287 93.5,-221.1287 93.5,-202.1287 8.5,-202.1287"/>
<text text-anchor="start" x="11.5" y="-208.2287" font-family="Helvetica,sans-Serif" font-size="11.00" fill="#000000">...</text>
<polygon fill="#ffffff" stroke="transparent" points="8.5,-183.1287 8.5,-202.1287 93.5,-202.1287 93.5,-183.1287 8.5,-183.1287"/>
<polygon fill="none" stroke="#000000" points="8.5,-183.1287 8.5,-202.1287 93.5,-202.1287 93.5,-183.1287 8.5,-183.1287"/>
<polygon fill="#ffffff" stroke="transparent" points="9.5,-184.1287 9.5,-201.1287 40.5,-201.1287 40.5,-184.1287 9.5,-184.1287"/>
<text text-anchor="start" x="11.5" y="-189.2287" font-family="Helvetica,sans-Serif" font-size="11.00" fill="#000000">&lt; 1</text>
<polygon fill="#ffffff" stroke="transparent" points="40.5,-184.1287 40.5,-201.1287 62.5,-201.1287 62.5,-184.1287 40.5,-184.1287"/>
<text text-anchor="start" x="48.4431" y="-189.2287" font-family="Helvetica,sans-Serif" font-size="11.00" fill="#000000"> &#160;</text>
<polygon fill="#ffffff" stroke="transparent" points="62.5,-184.1287 62.5,-201.1287 92.5,-201.1287 92.5,-184.1287 62.5,-184.1287"/>
<text text-anchor="start" x="74.9053" y="-189.2287" font-family="Helvetica,sans-Serif" font-size="11.00" fill="#000000">4 &gt;</text>
<polygon fill="#000000" stroke="#000000" points="40.5,-184.1287 40.5,-201.1287 40.5,-201.1287 40.5,-184.1287 40.5,-184.1287"/>
<polygon fill="#000000" stroke="#000000" points="62.5,-184.1287 62.5,-201.1287 62.5,-201.1287 62.5,-184.1287 62.5,-184.1287"/>
</a>
</g>
</g>
<!-- 顧客マスタ&#45;&gt;取引先マスタ -->
<g id="edge15" class="edge">
<title>顧客マスタ:w&#45;&gt;取引先マスタ:e</title>
<path fill="none" stroke="#000000" d="M128.0913,-368.3516C82.6509,-347.1053 162.0609,-211.1287 93.5,-211.1287"/>
<polygon fill="#000000" stroke="#000000" points="134.6446,-369.6146 141.8187,-374.6637 138.5723,-370.3717 142.5,-371.1287 142.5,-371.1287 142.5,-371.1287 138.5723,-370.3717 143.1813,-367.5938 134.6446,-369.6146 134.6446,-369.6146"/>
<ellipse fill="none" stroke="#000000" cx="131.5024" cy="-369.009" rx="3.2" ry="3.2"/>
</g>
<!-- 受注明細 -->
<g id="node5" class="node">
<title>受注明細</title>
<g id="a_node5"><a xlink:href="../../tables/_____27c23493.html" xlink:title="受注明細" target="_top">
<polygon fill="#ffffff" stroke="transparent" points="613,-308.6287 613,-435.6287 683,-435.6287 683,-308.6287 613,-308.6287"/>
<polygon fill="#f5f5f5" stroke="transparent" points="613,-412.1287 613,-435.1287 683,-435.1287 683,-412.1287 613,-412.1287"/>
<polygon fill="none" stroke="#000000" points="613,-412.1287 613,-435.1287 683,-435.1287 683,-412.1287 613,-412.1287"/>
<text text-anchor="start" x="610.1006" y="-420.7287" font-family="Helvetica,sans-Serif" font-weight="bold" font-size="11.00" fill="#000000">受注明細</text>
<text text-anchor="start" x="648.5219" y="-420.2287" font-family="Helvetica,sans-Serif" font-size="11.00" fill="#000000">[table]</text>
<polygon fill="none" stroke="#000000" points="613,-390.1287 613,-412.1287 683,-412.1287 683,-390.1287 613,-390.1287"/>
<image xlink:href="../../images/primaryKeys.png" width="11px" height="12px" preserveAspectRatio="xMinYMin meet" x="618" y="-407.129"/>
<text text-anchor="start" x="633.9021" y="-397.2287" font-family="Helvetica,sans-Serif" font-size="11.00" fill="#000000">受注番号</text>
<polygon fill="none" stroke="#000000" points="613,-368.1287 613,-390.1287 683,-390.1287 683,-368.1287 613,-368.1287"/>
<image xlink:href="../../images/primaryKeys.png" width="11px" height="12px" preserveAspectRatio="xMinYMin meet" x="618" y="-385.129"/>
<text text-anchor="start" x="635" y="-375.2287" font-family="Helvetica,sans-Serif" font-size="11.00" fill="#000000">明細番号</text>
<polygon fill="#ffffff" stroke="transparent" points="613,-346.1287 613,-368.1287 683,-368.1287 683,-346.1287 613,-346.1287"/>
<polygon fill="none" stroke="#000000" points="613,-346.1287 613,-368.1287 683,-368.1287 683,-346.1287 613,-346.1287"/>
<image xlink:href="../../images/foreignKeys.png" width="11px" height="12px" preserveAspectRatio="xMinYMin meet" x="618" y="-363.129"/>
<text text-anchor="start" x="626.0547" y="-353.2287" font-family="Helvetica,sans-Serif" font-size="11.00" fill="#000000">商品コード</text>
<polygon fill="none" stroke="#000000" points="613,-327.1287 613,-346.1287 683,-346.1287 683,-327.1287 613,-327.1287"/>
<text text-anchor="start" x="616" y="-333.2287" font-family="Helvetica,sans-Serif" font-size="11.00" fill="#000000">...</text>
<polygon fill="#ffffff" stroke="transparent" points="613,-308.1287 613,-327.1287 683,-327.1287 683,-308.1287 613,-308.1287"/>
<polygon fill="none" stroke="#000000" points="613,-308.1287 613,-327.1287 683,-327.1287 683,-308.1287 613,-308.1287"/>
<polygon fill="#ffffff" stroke="transparent" points="614,-309.1287 614,-326.1287 643,-326.1287 643,-309.1287 614,-309.1287"/>
<text text-anchor="start" x="616" y="-314.2287" font-family="Helvetica,sans-Serif" font-size="11.00" fill="#000000">&lt; 2</text>
<polygon fill="#ffffff" stroke="transparent" points="643,-309.1287 643,-326.1287 663,-326.1287 663,-309.1287 643,-309.1287"/>
<text text-anchor="start" x="649.9431" y="-314.2287" font-family="Helvetica,sans-Serif" font-size="11.00" fill="#000000"> &#160;</text>
<polygon fill="#ffffff" stroke="transparent" points="663,-309.1287 663,-326.1287 682,-326.1287 682,-309.1287 663,-309.1287"/>
<text text-anchor="start" x="673.8862" y="-314.2287" font-family="Helvetica,sans-Serif" font-size="11.00" fill="#000000"> &#160;</text>
<polygon fill="#000000" stroke="#000000" points="643,-309.1287 643,-326.1287 643,-326.1287 643,-309.1287 643,-309.1287"/>
<polygon fill="#000000" stroke="#000000" points="663,-309.1287 663,-326.1287 663,-326.1287 663,-309.1287 663,-309.1287"/>
</a>
</g>
</g>
<!-- 受注明細&#45;&gt;受注 -->
<g id="edge6" class="edge">
<title>受注明細:w&#45;&gt;受注:e</title>
<path fill="none" stroke="#000000" d="M598.3397,-400.6006C549.0716,-397.0345 526.9291,-377.3508 478,-402.1287 449.8086,-416.405 467.1001,-459.1287 435.5,-459.1287"/>
<polygon fill="#000000" stroke="#000000" points="605.0052,-400.8407 612.8704,-404.7264 609.0026,-400.9847 613,-401.1287 613,-401.1287 613,-401.1287 609.0026,-400.9847 613.1296,-397.5311 605.0052,-400.8407 605.0052,-400.8407"/>
<ellipse fill="none" stroke="#000000" cx="601.8073" cy="-400.7255" rx="3.2" ry="3.2"/>
</g>
<!-- 商品マスタ -->
<g id="node6" class="node">
<title>商品マスタ</title>
<g id="a_node6"><a xlink:href="../../tables/______d8ecb269.html" xlink:title="商品マスタ" target="_top">
<polygon fill="#ffffff" stroke="transparent" points="486,-412.6287 486,-473.6287 564,-473.6287 564,-412.6287 486,-412.6287"/>
<polygon fill="#f5f5f5" stroke="transparent" points="486,-450.1287 486,-473.1287 564,-473.1287 564,-450.1287 486,-450.1287"/>
<polygon fill="none" stroke="#000000" points="486,-450.1287 486,-473.1287 564,-473.1287 564,-450.1287 486,-450.1287"/>
<text text-anchor="start" x="481.9213" y="-458.7287" font-family="Helvetica,sans-Serif" font-weight="bold" font-size="11.00" fill="#000000">商品マスタ</text>
<text text-anchor="start" x="529.5219" y="-458.2287" font-family="Helvetica,sans-Serif" font-size="11.00" fill="#000000">[table]</text>
<polygon fill="none" stroke="#000000" points="486,-431.1287 486,-450.1287 564,-450.1287 564,-431.1287 486,-431.1287"/>
<text text-anchor="start" x="489" y="-437.2287" font-family="Helvetica,sans-Serif" font-size="11.00" fill="#000000">...</text>
<polygon fill="#ffffff" stroke="transparent" points="486,-412.1287 486,-431.1287 564,-431.1287 564,-412.1287 486,-412.1287"/>
<polygon fill="none" stroke="#000000" points="486,-412.1287 486,-431.1287 564,-431.1287 564,-412.1287 486,-412.1287"/>
<polygon fill="#ffffff" stroke="transparent" points="487,-413.1287 487,-430.1287 516,-430.1287 516,-413.1287 487,-413.1287"/>
<text text-anchor="start" x="489" y="-418.2287" font-family="Helvetica,sans-Serif" font-size="11.00" fill="#000000">&lt; 1</text>
<polygon fill="#ffffff" stroke="transparent" points="516,-413.1287 516,-430.1287 535,-430.1287 535,-413.1287 516,-413.1287"/>
<text text-anchor="start" x="522.4431" y="-418.2287" font-family="Helvetica,sans-Serif" font-size="11.00" fill="#000000"> &#160;</text>
<polygon fill="#ffffff" stroke="transparent" points="535,-413.1287 535,-430.1287 563,-430.1287 563,-413.1287 535,-413.1287"/>
<text text-anchor="start" x="545.4053" y="-418.2287" font-family="Helvetica,sans-Serif" font-size="11.00" fill="#000000">6 &gt;</text>
<polygon fill="#000000" stroke="#000000" points="516,-413.1287 516,-430.1287 516,-430.1287 516,-413.1287 516,-413.1287"/>
<polygon fill="#000000" stroke="#000000" points="535,-413.1287 535,-430.1287 535,-430.1287 535,-413.1287 535,-413.1287"/>
</a>
</g>
</g>
<!-- 受注明細&#45;&gt;商品マスタ -->
<g id="edge7" class="edge">
<title>受注明細:w&#45;&gt;商品マスタ:e</title>
<path fill="none" stroke="#000000" d="M599.2028,-361.5912C578.9049,-378.8311 600.8136,-440.1287 564,-440.1287"/>
<polygon fill="#000000" stroke="#000000" points="605.3882,-359.5907 614.1079,-360.554 609.1941,-358.3597 613,-357.1287 613,-357.1287 613,-357.1287 609.1941,-358.3597 611.8921,-353.7034 605.3882,-359.5907 605.3882,-359.5907"/>
<ellipse fill="none" stroke="#000000" cx="602.3435" cy="-360.5754" rx="3.2" ry="3.2"/>
</g>
<!-- 売上 -->
<g id="node7" class="node">
<title>売上</title>
<g id="a_node7"><a xlink:href="../../tables/___b1358.html" xlink:title="売上" target="_top">
<polygon fill="#ffffff" stroke="transparent" points="498,-494.6287 498,-555.6287 552,-555.6287 552,-494.6287 498,-494.6287"/>
<polygon fill="#f5f5f5" stroke="transparent" points="498,-532.1287 498,-555.1287 552,-555.1287 552,-532.1287 498,-532.1287"/>
<polygon fill="none" stroke="#000000" points="498,-532.1287 498,-555.1287 552,-555.1287 552,-532.1287 498,-532.1287"/>
<text text-anchor="start" x="496.5793" y="-540.7287" font-family="Helvetica,sans-Serif" font-weight="bold" font-size="11.00" fill="#000000">売上</text>
<text text-anchor="start" x="517.5219" y="-540.2287" font-family="Helvetica,sans-Serif" font-size="11.00" fill="#000000">[table]</text>
<polygon fill="none" stroke="#000000" points="498,-513.1287 498,-532.1287 552,-532.1287 552,-513.1287 498,-513.1287"/>
<text text-anchor="start" x="501" y="-519.2287" font-family="Helvetica,sans-Serif" font-size="11.00" fill="#000000">...</text>
<polygon fill="#ffffff" stroke="transparent" points="498,-494.1287 498,-513.1287 552,-513.1287 552,-494.1287 498,-494.1287"/>
<polygon fill="none" stroke="#000000" points="498,-494.1287 498,-513.1287 552,-513.1287 552,-494.1287 498,-494.1287"/>
<polygon fill="#ffffff" stroke="transparent" points="499,-495.1287 499,-512.1287 520,-512.1287 520,-495.1287 499,-495.1287"/>
<text text-anchor="start" x="501" y="-500.2287" font-family="Helvetica,sans-Serif" font-size="11.00" fill="#000000">&lt; 4</text>
<polygon fill="#ffffff" stroke="transparent" points="520,-495.1287 520,-512.1287 531,-512.1287 531,-495.1287 520,-495.1287"/>
<text text-anchor="start" x="522.4431" y="-500.2287" font-family="Helvetica,sans-Serif" font-size="11.00" fill="#000000"> &#160;</text>
<polygon fill="#ffffff" stroke="transparent" points="531,-495.1287 531,-512.1287 551,-512.1287 551,-495.1287 531,-495.1287"/>
<text text-anchor="start" x="533.4053" y="-500.2287" font-family="Helvetica,sans-Serif" font-size="11.00" fill="#000000">1 &gt;</text>
<polygon fill="#000000" stroke="#000000" points="520,-495.1287 520,-512.1287 520,-512.1287 520,-495.1287 520,-495.1287"/>
<polygon fill="#000000" stroke="#000000" points="531,-495.1287 531,-512.1287 531,-512.1287 531,-495.1287 531,-495.1287"/>
</a>
</g>
</g>
<!-- 売上&#45;&gt;受注 -->
<g id="edge9" class="edge">
<title>売上:w&#45;&gt;受注:e</title>
<path fill="none" stroke="#000000" d="M478.4192,-487.0499C459.617,-472.4058 441.0419,-459.1287 435.5,-459.1287"/>
<polygon fill="#000000" stroke="#000000" points="483.4524,-491.0277 487.4967,-498.8125 486.5906,-493.5079 489.7289,-495.9881 489.7289,-495.9881 489.7289,-495.9881 486.5906,-493.5079 491.9611,-493.1636 483.4524,-491.0277 483.4524,-491.0277"/>
<ellipse fill="none" stroke="#000000" cx="480.9418" cy="-489.0435" rx="3.2" ry="3.2"/>
</g>
<!-- 売上&#45;&gt;部門マスタ -->
<g id="edge10" class="edge">
<title>売上:w&#45;&gt;部門マスタ:e</title>
<path fill="none" stroke="#000000" d="M475.4825,-518.9163C424.6919,-515.2095 343.5061,-510.3273 274,-500.1287 212.4911,-491.1036 142.6595,-474.8007 97.6683,-464.862"/>
<polygon fill="#000000" stroke="#000000" points="481.9313,-519.4045 489.6367,-523.5983 485.9199,-519.7066 489.9085,-520.0086 489.9085,-520.0086 489.9085,-520.0086 485.9199,-519.7066 490.1803,-516.4189 481.9313,-519.4045 481.9313,-519.4045"/>
<ellipse fill="none" stroke="#000000" cx="478.7405" cy="-519.1629" rx="3.2" ry="3.2"/>
</g>
<!-- 売上&#45;&gt;部門マスタ -->
<g id="edge11" class="edge">
<title>売上:w&#45;&gt;部門マスタ:e</title>
<path fill="none" stroke="#000000" d="M475.4825,-528.6975C424.6919,-528.2095 343.5061,-523.3273 274,-513.1287 212.4911,-504.1036 142.6595,-487.8007 97.6683,-474.8919"/>
<polygon fill="#000000" stroke="#000000" points="481.9085,-528.7038 489.9049,-532.3118 485.9085,-528.7078 489.9085,-528.7118 489.9085,-528.7118 489.9085,-528.7118 485.9085,-528.7078 489.9121,-525.1118 481.9085,-528.7038 481.9085,-528.7038"/>
<ellipse fill="none" stroke="#000000" cx="478.7085" cy="-528.7007" rx="3.2" ry="3.2"/>
</g>
<!-- 売上&#45;&gt;取引先マスタ -->
<g id="edge8" class="edge">
<title>売上:w&#45;&gt;取引先マスタ:e</title>
<path fill="none" stroke="#000000" d="M480.5691,-488.653C479.6362,-487.1792 478.7753,-485.6705 478,-484.1287 435.9394,-400.4879 513.7439,-127.6832 445,-64.1287 389.1948,-12.5363 345.6054,-38.6597 274,-64.1287 176.5221,-98.8003 196.9604,-211.1287 93.5,-211.1287"/>
<polygon fill="#000000" stroke="#000000" points="484.6731,-493.7876 486.8559,-502.2844 487.1706,-496.9121 489.668,-500.0367 489.668,-500.0367 489.668,-500.0367 487.1706,-496.9121 492.4801,-497.789 484.6731,-493.7876 484.6731,-493.7876"/>
<ellipse fill="none" stroke="#000000" cx="482.6752" cy="-491.2879" rx="3.2" ry="3.2"/>
</g>
<!-- 売上明細 -->
<g id="node9" class="node">
<title>売上明細</title>
<g id="a_node9"><a xlink:href="../../tables/_____29a0763a.html" xlink:title="売上明細" target="_top">
<polygon fill="#ffffff" stroke="transparent" points="613,-483.6287 613,-544.6287 683,-544.6287 683,-483.6287 613,-483.6287"/>
<polygon fill="#f5f5f5" stroke="transparent" points="613,-521.1287 613,-544.1287 683,-544.1287 683,-521.1287 613,-521.1287"/>
<polygon fill="none" stroke="#000000" points="613,-521.1287 613,-544.1287 683,-544.1287 683,-521.1287 613,-521.1287"/>
<text text-anchor="start" x="610.4086" y="-529.7287" font-family="Helvetica,sans-Serif" font-weight="bold" font-size="11.00" fill="#000000">売上明細</text>
<text text-anchor="start" x="648.5219" y="-529.2287" font-family="Helvetica,sans-Serif" font-size="11.00" fill="#000000">[table]</text>
<polygon fill="none" stroke="#000000" points="613,-502.1287 613,-521.1287 683,-521.1287 683,-502.1287 613,-502.1287"/>
<text text-anchor="start" x="616" y="-508.2287" font-family="Helvetica,sans-Serif" font-size="11.00" fill="#000000">...</text>
<polygon fill="#ffffff" stroke="transparent" points="613,-483.1287 613,-502.1287 683,-502.1287 683,-483.1287 613,-483.1287"/>
<polygon fill="none" stroke="#000000" points="613,-483.1287 613,-502.1287 683,-502.1287 683,-483.1287 613,-483.1287"/>
<polygon fill="#ffffff" stroke="transparent" points="614,-484.1287 614,-501.1287 643,-501.1287 643,-484.1287 614,-484.1287"/>
<text text-anchor="start" x="616" y="-489.2287" font-family="Helvetica,sans-Serif" font-size="11.00" fill="#000000">&lt; 2</text>
<polygon fill="#ffffff" stroke="transparent" points="643,-484.1287 643,-501.1287 663,-501.1287 663,-484.1287 643,-484.1287"/>
<text text-anchor="start" x="649.9431" y="-489.2287" font-family="Helvetica,sans-Serif" font-size="11.00" fill="#000000"> &#160;</text>
<polygon fill="#ffffff" stroke="transparent" points="663,-484.1287 663,-501.1287 682,-501.1287 682,-484.1287 663,-484.1287"/>
<text text-anchor="start" x="673.8862" y="-489.2287" font-family="Helvetica,sans-Serif" font-size="11.00" fill="#000000"> &#160;</text>
<polygon fill="#000000" stroke="#000000" points="643,-484.1287 643,-501.1287 643,-501.1287 643,-484.1287 643,-484.1287"/>
<polygon fill="#000000" stroke="#000000" points="663,-484.1287 663,-501.1287 663,-501.1287 663,-484.1287 663,-484.1287"/>
</a>
</g>
</g>
<!-- 売上明細&#45;&gt;商品マスタ -->
<g id="edge12" class="edge">
<title>売上明細:w&#45;&gt;商品マスタ:e</title>
<path fill="none" stroke="#000000" d="M599.3596,-506.4702C581.6978,-490.6746 596.3501,-440.1287 564,-440.1287"/>
<polygon fill="#000000" stroke="#000000" points="605.4293,-508.5431 611.8365,-514.5355 609.2147,-509.8359 613,-511.1287 613,-511.1287 613,-511.1287 609.2147,-509.8359 614.1635,-507.7219 605.4293,-508.5431 605.4293,-508.5431"/>
<ellipse fill="none" stroke="#000000" cx="602.4011" cy="-507.5089" rx="3.2" ry="3.2"/>
</g>
<!-- 売上明細&#45;&gt;売上 -->
<g id="edge13" class="edge">
<title>売上明細:w&#45;&gt;売上:e</title>
<path fill="none" stroke="#000000" d="M598.3763,-511.6913C585.2617,-512.6444 571.9525,-514.6898 560.3353,-516.9039"/>
<polygon fill="#000000" stroke="#000000" points="605.0059,-511.4363 613.1384,-514.7261 609.003,-511.2825 613,-511.1287 613,-511.1287 613,-511.1287 609.003,-511.2825 612.8616,-507.5314 605.0059,-511.4363 605.0059,-511.4363"/>
<ellipse fill="none" stroke="#000000" cx="601.8083" cy="-511.5594" rx="3.2" ry="3.2"/>
</g>
</g>
</svg>
