<?xml version="1.0" encoding="UTF-8" standalone="no"?>
<!DOCTYPE svg PUBLIC "-//W3C//DTD SVG 1.1//EN"
 "http://www.w3.org/Graphics/SVG/1.1/DTD/svg11.dtd">
<!-- Generated by graphviz version 2.40.1 (20161225.0304)
 -->
<!-- Title: oneDegreeRelationshipsDiagramImplied Pages: 1 -->
<svg width="304pt" height="411pt"
 viewBox="0.00 0.00 304.00 410.70" xmlns="http://www.w3.org/2000/svg" xmlns:xlink="http://www.w3.org/1999/xlink">
<g id="graph0" class="graph" transform="scale(1 1) rotate(0) translate(4 406.7)">
<title>oneDegreeRelationshipsDiagramImplied</title>
<polygon fill="#ffffff" stroke="transparent" points="-4,4 -4,-406.7 300,-406.7 300,4 -4,4"/>
<text text-anchor="middle" x="72.4936" y="-7.3" font-family="Helvetica,sans-Serif" font-size="11.00" fill="#000000">Generated by SchemaSpy</text>
<!-- 在庫 -->
<g id="node1" class="node">
<title>在庫</title>
<g id="a_node1"><a xlink:href="../../tables/___aec83.html" xlink:title="在庫" target="_top">
<polygon fill="#ffffff" stroke="transparent" points="140,-38.2 140,-348.2 288,-348.2 288,-38.2 140,-38.2"/>
<polygon fill="#f5f5f5" stroke="transparent" points="142,-323.2 142,-346.2 286,-346.2 286,-323.2 142,-323.2"/>
<polygon fill="none" stroke="#000000" points="142,-323.2 142,-346.2 286,-346.2 286,-323.2 142,-323.2"/>
<text text-anchor="start" x="139.9688" y="-331.8" font-family="Helvetica,sans-Serif" font-weight="bold" font-size="11.00" fill="#000000">在庫</text>
<text text-anchor="start" x="251.0437" y="-331.3" font-family="Helvetica,sans-Serif" font-size="11.00" fill="#000000">[table]</text>
<polygon fill="none" stroke="#000000" points="142,-301.2 142,-323.2 202,-323.2 202,-301.2 142,-301.2"/>
<image xlink:href="../../images/primaryKeys.png" width="11px" height="12px" preserveAspectRatio="xMinYMin meet" x="147" y="-318.2"/>
<text text-anchor="start" x="147.7232" y="-308.3" font-family="Helvetica,sans-Serif" font-size="11.00" fill="#000000">倉庫コード</text>
<polygon fill="none" stroke="#000000" points="202,-301.2 202,-323.2 286,-323.2 286,-301.2 202,-301.2"/>
<text text-anchor="start" x="205" y="-308.9" font-family="Helvetica,sans-Serif" font-size="11.00" fill="#000000">varchar[3]</text>
<polygon fill="none" stroke="#000000" points="142,-279.2 142,-301.2 202,-301.2 202,-279.2 142,-279.2"/>
<image xlink:href="../../images/primaryKeys.png" width="11px" height="12px" preserveAspectRatio="xMinYMin meet" x="147" y="-296.2"/>
<text text-anchor="start" x="149.5547" y="-286.3" font-family="Helvetica,sans-Serif" font-size="11.00" fill="#000000">商品コード</text>
<polygon fill="none" stroke="#000000" points="202,-279.2 202,-301.2 286,-301.2 286,-279.2 202,-279.2"/>
<text text-anchor="start" x="205" y="-286.9" font-family="Helvetica,sans-Serif" font-size="11.00" fill="#000000">varchar[16]</text>
<polygon fill="none" stroke="#000000" points="142,-257.2 142,-279.2 202,-279.2 202,-257.2 142,-257.2"/>
<image xlink:href="../../images/primaryKeys.png" width="11px" height="12px" preserveAspectRatio="xMinYMin meet" x="147" y="-274.2"/>
<text text-anchor="start" x="154.0543" y="-264.3" font-family="Helvetica,sans-Serif" font-size="11.00" fill="#000000">ロット番号</text>
<polygon fill="none" stroke="#000000" points="202,-257.2 202,-279.2 286,-279.2 286,-257.2 202,-257.2"/>
<text text-anchor="start" x="205" y="-264.9" font-family="Helvetica,sans-Serif" font-size="11.00" fill="#000000">varchar[20]</text>
<polygon fill="none" stroke="#000000" points="142,-235.2 142,-257.2 202,-257.2 202,-235.2 142,-235.2"/>
<image xlink:href="../../images/primaryKeys.png" width="11px" height="12px" preserveAspectRatio="xMinYMin meet" x="147" y="-252.2"/>
<text text-anchor="start" x="157.4956" y="-242.3" font-family="Helvetica,sans-Serif" font-size="11.00" fill="#000000">在庫区分</text>
<polygon fill="none" stroke="#000000" points="202,-235.2 202,-257.2 286,-257.2 286,-235.2 202,-235.2"/>
<text text-anchor="start" x="205" y="-242.9" font-family="Helvetica,sans-Serif" font-size="11.00" fill="#000000">varchar[1]</text>
<polygon fill="none" stroke="#000000" points="142,-213.2 142,-235.2 202,-235.2 202,-213.2 142,-213.2"/>
<image xlink:href="../../images/primaryKeys.png" width="11px" height="12px" preserveAspectRatio="xMinYMin meet" x="147" y="-230.2"/>
<text text-anchor="start" x="157.4956" y="-220.3" font-family="Helvetica,sans-Serif" font-size="11.00" fill="#000000">品質区分</text>
<polygon fill="none" stroke="#000000" points="202,-213.2 202,-235.2 286,-235.2 286,-213.2 202,-213.2"/>
<text text-anchor="start" x="205" y="-220.9" font-family="Helvetica,sans-Serif" font-size="11.00" fill="#000000">varchar[1]</text>
<polygon fill="none" stroke="#000000" points="142,-191.2 142,-213.2 202,-213.2 202,-191.2 142,-191.2"/>
<text text-anchor="start" x="156.5766" y="-198.3" font-family="Helvetica,sans-Serif" font-size="11.00" fill="#000000">実在庫数</text>
<polygon fill="none" stroke="#000000" points="202,-191.2 202,-213.2 286,-213.2 286,-191.2 202,-191.2"/>
<text text-anchor="start" x="205" y="-198.9" font-family="Helvetica,sans-Serif" font-size="11.00" fill="#000000">int4[10]</text>
<polygon fill="none" stroke="#000000" points="142,-169.2 142,-191.2 202,-191.2 202,-169.2 142,-169.2"/>
<text text-anchor="start" x="152.9103" y="-176.3" font-family="Helvetica,sans-Serif" font-size="11.00" fill="#000000">有効在庫数</text>
<polygon fill="none" stroke="#000000" points="202,-169.2 202,-191.2 286,-191.2 286,-169.2 202,-169.2"/>
<text text-anchor="start" x="205" y="-176.9" font-family="Helvetica,sans-Serif" font-size="11.00" fill="#000000">int4[10]</text>
<polygon fill="none" stroke="#000000" points="142,-147.2 142,-169.2 202,-169.2 202,-147.2 142,-147.2"/>
<text text-anchor="start" x="152.8168" y="-154.3" font-family="Helvetica,sans-Serif" font-size="11.00" fill="#000000">最終出荷日</text>
<polygon fill="none" stroke="#000000" points="202,-147.2 202,-169.2 286,-169.2 286,-147.2 202,-147.2"/>
<text text-anchor="start" x="204.8807" y="-154.9" font-family="Helvetica,sans-Serif" font-size="11.00" fill="#000000">timestamp[29,6]</text>
<polygon fill="none" stroke="#000000" points="142,-125.2 142,-147.2 202,-147.2 202,-125.2 142,-125.2"/>
<text text-anchor="start" x="155.6581" y="-132.3" font-family="Helvetica,sans-Serif" font-size="11.00" fill="#000000">作成日時</text>
<polygon fill="none" stroke="#000000" points="202,-125.2 202,-147.2 286,-147.2 286,-125.2 202,-125.2"/>
<text text-anchor="start" x="204.8807" y="-132.9" font-family="Helvetica,sans-Serif" font-size="11.00" fill="#000000">timestamp[29,6]</text>
<polygon fill="none" stroke="#000000" points="142,-103.2 142,-125.2 202,-125.2 202,-103.2 142,-103.2"/>
<text text-anchor="start" x="155.6581" y="-110.3" font-family="Helvetica,sans-Serif" font-size="11.00" fill="#000000">作成者名</text>
<polygon fill="none" stroke="#000000" points="202,-103.2 202,-125.2 286,-125.2 286,-103.2 202,-103.2"/>
<text text-anchor="start" x="205" y="-110.9" font-family="Helvetica,sans-Serif" font-size="11.00" fill="#000000">varchar[12]</text>
<polygon fill="none" stroke="#000000" points="142,-81.2 142,-103.2 202,-103.2 202,-81.2 142,-81.2"/>
<text text-anchor="start" x="159.6296" y="-88.3" font-family="Helvetica,sans-Serif" font-size="11.00" fill="#000000">更新日時</text>
<polygon fill="none" stroke="#000000" points="202,-81.2 202,-103.2 286,-103.2 286,-81.2 202,-81.2"/>
<text text-anchor="start" x="204.8807" y="-88.9" font-family="Helvetica,sans-Serif" font-size="11.00" fill="#000000">timestamp[29,6]</text>
<polygon fill="none" stroke="#000000" points="142,-59.2 142,-81.2 202,-81.2 202,-59.2 142,-59.2"/>
<text text-anchor="start" x="159.6296" y="-66.3" font-family="Helvetica,sans-Serif" font-size="11.00" fill="#000000">更新者名</text>
<polygon fill="none" stroke="#000000" points="202,-59.2 202,-81.2 286,-81.2 286,-59.2 202,-59.2"/>
<text text-anchor="start" x="205" y="-66.9" font-family="Helvetica,sans-Serif" font-size="11.00" fill="#000000">varchar[12]</text>
<polygon fill="#ffffff" stroke="transparent" points="142,-40.2 142,-59.2 286,-59.2 286,-40.2 142,-40.2"/>
<polygon fill="none" stroke="#000000" points="142,-40.2 142,-59.2 286,-59.2 286,-40.2 142,-40.2"/>
<polygon fill="#ffffff" stroke="transparent" points="143,-41.2 143,-58.2 194,-58.2 194,-41.2 143,-41.2"/>
<text text-anchor="start" x="145" y="-46.3" font-family="Helvetica,sans-Serif" font-size="11.00" fill="#000000">&lt; 2</text>
<polygon fill="#ffffff" stroke="transparent" points="194,-41.2 194,-58.2 235,-58.2 235,-41.2 194,-41.2"/>
<text text-anchor="start" x="211.4431" y="-46.3" font-family="Helvetica,sans-Serif" font-size="11.00" fill="#000000"> &#160;</text>
<polygon fill="#ffffff" stroke="transparent" points="235,-41.2 235,-58.2 285,-58.2 285,-41.2 235,-41.2"/>
<text text-anchor="start" x="267.4053" y="-46.3" font-family="Helvetica,sans-Serif" font-size="11.00" fill="#000000">0 &gt;</text>
<polygon fill="#000000" stroke="#000000" points="194,-41.2 194,-58.2 194,-58.2 194,-41.2 194,-41.2"/>
<polygon fill="#000000" stroke="#000000" points="235,-41.2 235,-58.2 235,-58.2 235,-41.2 235,-41.2"/>
<polygon fill="none" stroke="#000000" stroke-width="2" points="141,-39.2 141,-347.2 287,-347.2 287,-39.2 141,-39.2"/>
</a>
</g>
</g>
<!-- 倉庫マスタ -->
<g id="node2" class="node">
<title>倉庫マスタ</title>
<g id="a_node2"><a xlink:href="../../tables/______939d4982.html" xlink:title="倉庫マスタ" target="_top">
<polygon fill="#ffffff" stroke="transparent" points="10.5,-293.7 10.5,-398.7 88.5,-398.7 88.5,-293.7 10.5,-293.7"/>
<polygon fill="#f5f5f5" stroke="transparent" points="10.5,-375.2 10.5,-398.2 88.5,-398.2 88.5,-375.2 10.5,-375.2"/>
<polygon fill="none" stroke="#000000" points="10.5,-375.2 10.5,-398.2 88.5,-398.2 88.5,-375.2 10.5,-375.2"/>
<text text-anchor="start" x="4.5898" y="-383.8" font-family="Helvetica,sans-Serif" font-weight="bold" font-size="11.00" fill="#000000">倉庫マスタ</text>
<text text-anchor="start" x="54.0219" y="-383.3" font-family="Helvetica,sans-Serif" font-size="11.00" fill="#000000">[table]</text>
<polygon fill="none" stroke="#000000" points="10.5,-353.2 10.5,-375.2 88.5,-375.2 88.5,-353.2 10.5,-353.2"/>
<image xlink:href="../../images/primaryKeys.png" width="11px" height="12px" preserveAspectRatio="xMinYMin meet" x="15.5" y="-370.2"/>
<text text-anchor="start" x="25.2232" y="-360.3" font-family="Helvetica,sans-Serif" font-size="11.00" fill="#000000">倉庫コード</text>
<polygon fill="#ffffff" stroke="transparent" points="10.5,-331.2 10.5,-353.2 88.5,-353.2 88.5,-331.2 10.5,-331.2"/>
<polygon fill="none" stroke="#000000" points="10.5,-331.2 10.5,-353.2 88.5,-353.2 88.5,-331.2 10.5,-331.2"/>
<text text-anchor="start" x="39.5" y="-338.3" font-family="Helvetica,sans-Serif" font-size="11.00" fill="#000000">倉庫名</text>
<polygon fill="none" stroke="#000000" points="10.5,-312.2 10.5,-331.2 88.5,-331.2 88.5,-312.2 10.5,-312.2"/>
<text text-anchor="start" x="13.5" y="-318.3" font-family="Helvetica,sans-Serif" font-size="11.00" fill="#000000">...</text>
<polygon fill="#ffffff" stroke="transparent" points="10.5,-293.2 10.5,-312.2 88.5,-312.2 88.5,-293.2 10.5,-293.2"/>
<polygon fill="none" stroke="#000000" points="10.5,-293.2 10.5,-312.2 88.5,-312.2 88.5,-293.2 10.5,-293.2"/>
<polygon fill="#ffffff" stroke="transparent" points="11.5,-294.2 11.5,-311.2 34.5,-311.2 34.5,-294.2 11.5,-294.2"/>
<text text-anchor="start" x="13.5" y="-299.3" font-family="Helvetica,sans-Serif" font-size="11.00" fill="#000000"> &#160;</text>
<polygon fill="#ffffff" stroke="transparent" points="34.5,-294.2 34.5,-311.2 56.5,-311.2 56.5,-294.2 34.5,-294.2"/>
<text text-anchor="start" x="42.4431" y="-299.3" font-family="Helvetica,sans-Serif" font-size="11.00" fill="#000000"> &#160;</text>
<polygon fill="#ffffff" stroke="transparent" points="56.5,-294.2 56.5,-311.2 87.5,-311.2 87.5,-294.2 56.5,-294.2"/>
<text text-anchor="start" x="69.9053" y="-299.3" font-family="Helvetica,sans-Serif" font-size="11.00" fill="#000000">1 &gt;</text>
<polygon fill="#000000" stroke="#000000" points="34.5,-294.2 34.5,-311.2 34.5,-311.2 34.5,-294.2 34.5,-294.2"/>
<polygon fill="#000000" stroke="#000000" points="56.5,-294.2 56.5,-311.2 56.5,-311.2 56.5,-294.2 56.5,-294.2"/>
</a>
</g>
</g>
<!-- 在庫&#45;&gt;倉庫マスタ -->
<g id="edge1" class="edge">
<title>在庫:w&#45;&gt;倉庫マスタ:e</title>
<path fill="none" stroke="#000000" d="M128.0453,-316.6335C111.9631,-329.2085 115.7006,-364.2 88.5,-364.2"/>
<polygon fill="#000000" stroke="#000000" points="134.3755,-314.6224 143.0901,-315.631 138.1878,-313.4112 142,-312.2 142,-312.2 142,-312.2 138.1878,-313.4112 140.9099,-308.769 134.3755,-314.6224 134.3755,-314.6224"/>
<ellipse fill="none" stroke="#000000" cx="131.3258" cy="-315.5913" rx="3.2" ry="3.2"/>
</g>
<!-- 商品マスタ -->
<g id="node3" class="node">
<title>商品マスタ</title>
<g id="a_node3"><a xlink:href="../../tables/______d8ecb269.html" xlink:title="商品マスタ" target="_top">
<polygon fill="#ffffff" stroke="transparent" points="8,-101.7 8,-272.7 91,-272.7 91,-101.7 8,-101.7"/>
<polygon fill="#f5f5f5" stroke="transparent" points="8.5,-249.2 8.5,-272.2 91.5,-272.2 91.5,-249.2 8.5,-249.2"/>
<polygon fill="none" stroke="#000000" points="8.5,-249.2 8.5,-272.2 91.5,-272.2 91.5,-249.2 8.5,-249.2"/>
<text text-anchor="start" x="4.4213" y="-257.8" font-family="Helvetica,sans-Serif" font-weight="bold" font-size="11.00" fill="#000000">商品マスタ</text>
<text text-anchor="start" x="56.5437" y="-257.3" font-family="Helvetica,sans-Serif" font-size="11.00" fill="#000000">[table]</text>
<polygon fill="none" stroke="#000000" points="8.5,-227.2 8.5,-249.2 91.5,-249.2 91.5,-227.2 8.5,-227.2"/>
<image xlink:href="../../images/primaryKeys.png" width="11px" height="12px" preserveAspectRatio="xMinYMin meet" x="13.5" y="-244.2"/>
<text text-anchor="start" x="27.5547" y="-234.3" font-family="Helvetica,sans-Serif" font-size="11.00" fill="#000000">商品コード</text>
<polygon fill="#ffffff" stroke="transparent" points="8.5,-205.2 8.5,-227.2 91.5,-227.2 91.5,-205.2 8.5,-205.2"/>
<polygon fill="none" stroke="#000000" points="8.5,-205.2 8.5,-227.2 91.5,-227.2 91.5,-205.2 8.5,-205.2"/>
<text text-anchor="start" x="28.5" y="-212.3" font-family="Helvetica,sans-Serif" font-size="11.00" fill="#000000">商品略称</text>
<polygon fill="#ffffff" stroke="transparent" points="8.5,-183.2 8.5,-205.2 91.5,-205.2 91.5,-183.2 8.5,-183.2"/>
<polygon fill="none" stroke="#000000" points="8.5,-183.2 8.5,-205.2 91.5,-205.2 91.5,-183.2 8.5,-183.2"/>
<image xlink:href="../../images/foreignKeys.png" width="11px" height="12px" preserveAspectRatio="xMinYMin meet" x="13.5" y="-200.2"/>
<text text-anchor="start" x="15.3315" y="-190.3" font-family="Helvetica,sans-Serif" font-size="11.00" fill="#000000">商品分類コード</text>
<polygon fill="#ffffff" stroke="transparent" points="8.5,-161.2 8.5,-183.2 91.5,-183.2 91.5,-161.2 8.5,-161.2"/>
<polygon fill="none" stroke="#000000" points="8.5,-161.2 8.5,-183.2 91.5,-183.2 91.5,-161.2 8.5,-161.2"/>
<text text-anchor="start" x="19.9114" y="-168.3" font-family="Helvetica,sans-Serif" font-size="11.00" fill="#000000">仕入先コード</text>
<polygon fill="#ffffff" stroke="transparent" points="8.5,-139.2 8.5,-161.2 91.5,-161.2 91.5,-139.2 8.5,-139.2"/>
<polygon fill="none" stroke="#000000" points="8.5,-139.2 8.5,-161.2 91.5,-161.2 91.5,-139.2 8.5,-139.2"/>
<text text-anchor="start" x="28.5" y="-146.3" font-family="Helvetica,sans-Serif" font-size="11.00" fill="#000000">仕入先枝番</text>
<polygon fill="none" stroke="#000000" points="8.5,-120.2 8.5,-139.2 91.5,-139.2 91.5,-120.2 8.5,-120.2"/>
<text text-anchor="start" x="11.5" y="-126.3" font-family="Helvetica,sans-Serif" font-size="11.00" fill="#000000">...</text>
<polygon fill="#ffffff" stroke="transparent" points="8.5,-101.2 8.5,-120.2 91.5,-120.2 91.5,-101.2 8.5,-101.2"/>
<polygon fill="none" stroke="#000000" points="8.5,-101.2 8.5,-120.2 91.5,-120.2 91.5,-101.2 8.5,-101.2"/>
<polygon fill="#ffffff" stroke="transparent" points="9.5,-102.2 9.5,-119.2 39.5,-119.2 39.5,-102.2 9.5,-102.2"/>
<text text-anchor="start" x="11.5" y="-107.3" font-family="Helvetica,sans-Serif" font-size="11.00" fill="#000000">&lt; 1</text>
<polygon fill="#ffffff" stroke="transparent" points="39.5,-102.2 39.5,-119.2 60.5,-119.2 60.5,-102.2 39.5,-102.2"/>
<text text-anchor="start" x="46.9431" y="-107.3" font-family="Helvetica,sans-Serif" font-size="11.00" fill="#000000"> &#160;</text>
<polygon fill="#ffffff" stroke="transparent" points="60.5,-102.2 60.5,-119.2 90.5,-119.2 90.5,-102.2 60.5,-102.2"/>
<text text-anchor="start" x="72.9053" y="-107.3" font-family="Helvetica,sans-Serif" font-size="11.00" fill="#000000">6 &gt;</text>
<polygon fill="#000000" stroke="#000000" points="39.5,-102.2 39.5,-119.2 39.5,-119.2 39.5,-102.2 39.5,-102.2"/>
<polygon fill="#000000" stroke="#000000" points="60.5,-102.2 60.5,-119.2 60.5,-119.2 60.5,-102.2 60.5,-102.2"/>
</a>
</g>
</g>
<!-- 在庫&#45;&gt;商品マスタ -->
<g id="edge2" class="edge">
<title>在庫:w&#45;&gt;商品マスタ:e</title>
<path fill="none" stroke="#000000" d="M128.1372,-285.4012C113.3861,-272.5281 117.6756,-238.2 91.5,-238.2"/>
<polygon fill="#000000" stroke="#000000" points="134.4401,-287.583 140.8223,-293.6019 138.2201,-288.8915 142,-290.2 142,-290.2 142,-290.2 138.2201,-288.8915 143.1777,-286.7981 134.4401,-287.583 134.4401,-287.583"/>
<ellipse fill="none" stroke="#000000" cx="131.4162" cy="-286.5362" rx="3.2" ry="3.2"/>
</g>
</g>
</svg>
