<?xml version="1.0" encoding="UTF-8" standalone="no"?>
<!DOCTYPE svg PUBLIC "-//W3C//DTD SVG 1.1//EN"
 "http://www.w3.org/Graphics/SVG/1.1/DTD/svg11.dtd">
<!-- Generated by graphviz version 2.40.1 (20161225.0304)
 -->
<!-- Title: twoDegreesRelationshipsDiagram Pages: 1 -->
<svg width="446pt" height="701pt"
 viewBox="0.00 0.00 446.00 700.70" xmlns="http://www.w3.org/2000/svg" xmlns:xlink="http://www.w3.org/1999/xlink">
<g id="graph0" class="graph" transform="scale(1 1) rotate(0) translate(4 696.7)">
<title>twoDegreesRelationshipsDiagram</title>
<polygon fill="#ffffff" stroke="transparent" points="-4,4 -4,-696.7 442,-696.7 442,4 -4,4"/>
<text text-anchor="middle" x="72.4936" y="-7.3" font-family="Helvetica,sans-Serif" font-size="11.00" fill="#000000">Generated by SchemaSpy</text>
<!-- 代替商品 -->
<g id="node1" class="node">
<title>代替商品</title>
<g id="a_node1"><a xlink:href="../../tables/_____25696db7.html" xlink:title="代替商品" target="_top">
<polygon fill="#ffffff" stroke="transparent" points="321,-381.7 321,-442.7 391,-442.7 391,-381.7 321,-381.7"/>
<polygon fill="#f5f5f5" stroke="transparent" points="321,-419.2 321,-442.2 391,-442.2 391,-419.2 321,-419.2"/>
<polygon fill="none" stroke="#000000" points="321,-419.2 321,-442.2 391,-442.2 391,-419.2 321,-419.2"/>
<text text-anchor="start" x="316.2691" y="-427.8" font-family="Helvetica,sans-Serif" font-weight="bold" font-size="11.00" fill="#000000">代替商品</text>
<text text-anchor="start" x="356.5219" y="-427.3" font-family="Helvetica,sans-Serif" font-size="11.00" fill="#000000">[table]</text>
<polygon fill="none" stroke="#000000" points="321,-400.2 321,-419.2 391,-419.2 391,-400.2 321,-400.2"/>
<text text-anchor="start" x="324" y="-406.3" font-family="Helvetica,sans-Serif" font-size="11.00" fill="#000000">...</text>
<polygon fill="#ffffff" stroke="transparent" points="321,-381.2 321,-400.2 391,-400.2 391,-381.2 321,-381.2"/>
<polygon fill="none" stroke="#000000" points="321,-381.2 321,-400.2 391,-400.2 391,-381.2 321,-381.2"/>
<polygon fill="#ffffff" stroke="transparent" points="322,-382.2 322,-399.2 351,-399.2 351,-382.2 322,-382.2"/>
<text text-anchor="start" x="324" y="-387.3" font-family="Helvetica,sans-Serif" font-size="11.00" fill="#000000">&lt; 2</text>
<polygon fill="#ffffff" stroke="transparent" points="351,-382.2 351,-399.2 371,-399.2 371,-382.2 351,-382.2"/>
<text text-anchor="start" x="357.9431" y="-387.3" font-family="Helvetica,sans-Serif" font-size="11.00" fill="#000000"> &#160;</text>
<polygon fill="#ffffff" stroke="transparent" points="371,-382.2 371,-399.2 390,-399.2 390,-382.2 371,-382.2"/>
<text text-anchor="start" x="381.8862" y="-387.3" font-family="Helvetica,sans-Serif" font-size="11.00" fill="#000000"> &#160;</text>
<polygon fill="#000000" stroke="#000000" points="351,-382.2 351,-399.2 351,-399.2 351,-382.2 351,-382.2"/>
<polygon fill="#000000" stroke="#000000" points="371,-382.2 371,-399.2 371,-399.2 371,-382.2 371,-382.2"/>
</a>
</g>
</g>
<!-- 商品マスタ -->
<g id="node2" class="node">
<title>商品マスタ</title>
<g id="a_node2"><a xlink:href="../../tables/______d8ecb269.html" xlink:title="商品マスタ" target="_top">
<polygon fill="#ffffff" stroke="transparent" points="150,-354.7 150,-525.7 233,-525.7 233,-354.7 150,-354.7"/>
<polygon fill="#f5f5f5" stroke="transparent" points="150.5,-502.2 150.5,-525.2 233.5,-525.2 233.5,-502.2 150.5,-502.2"/>
<polygon fill="none" stroke="#000000" points="150.5,-502.2 150.5,-525.2 233.5,-525.2 233.5,-502.2 150.5,-502.2"/>
<text text-anchor="start" x="146.4212" y="-510.8" font-family="Helvetica,sans-Serif" font-weight="bold" font-size="11.00" fill="#000000">商品マスタ</text>
<text text-anchor="start" x="198.5437" y="-510.3" font-family="Helvetica,sans-Serif" font-size="11.00" fill="#000000">[table]</text>
<polygon fill="none" stroke="#000000" points="150.5,-480.2 150.5,-502.2 233.5,-502.2 233.5,-480.2 150.5,-480.2"/>
<image xlink:href="../../images/primaryKeys.png" width="11px" height="12px" preserveAspectRatio="xMinYMin meet" x="155.5" y="-497.2"/>
<text text-anchor="start" x="169.5547" y="-487.3" font-family="Helvetica,sans-Serif" font-size="11.00" fill="#000000">商品コード</text>
<polygon fill="#ffffff" stroke="transparent" points="150.5,-458.2 150.5,-480.2 233.5,-480.2 233.5,-458.2 150.5,-458.2"/>
<polygon fill="none" stroke="#000000" points="150.5,-458.2 150.5,-480.2 233.5,-480.2 233.5,-458.2 150.5,-458.2"/>
<text text-anchor="start" x="170.5" y="-465.3" font-family="Helvetica,sans-Serif" font-size="11.00" fill="#000000">商品略称</text>
<polygon fill="#ffffff" stroke="transparent" points="150.5,-436.2 150.5,-458.2 233.5,-458.2 233.5,-436.2 150.5,-436.2"/>
<polygon fill="none" stroke="#000000" points="150.5,-436.2 150.5,-458.2 233.5,-458.2 233.5,-436.2 150.5,-436.2"/>
<image xlink:href="../../images/foreignKeys.png" width="11px" height="12px" preserveAspectRatio="xMinYMin meet" x="155.5" y="-453.2"/>
<text text-anchor="start" x="157.3315" y="-443.3" font-family="Helvetica,sans-Serif" font-size="11.00" fill="#000000">商品分類コード</text>
<polygon fill="#ffffff" stroke="transparent" points="150.5,-414.2 150.5,-436.2 233.5,-436.2 233.5,-414.2 150.5,-414.2"/>
<polygon fill="none" stroke="#000000" points="150.5,-414.2 150.5,-436.2 233.5,-436.2 233.5,-414.2 150.5,-414.2"/>
<text text-anchor="start" x="161.9114" y="-421.3" font-family="Helvetica,sans-Serif" font-size="11.00" fill="#000000">仕入先コード</text>
<polygon fill="#ffffff" stroke="transparent" points="150.5,-392.2 150.5,-414.2 233.5,-414.2 233.5,-392.2 150.5,-392.2"/>
<polygon fill="none" stroke="#000000" points="150.5,-392.2 150.5,-414.2 233.5,-414.2 233.5,-392.2 150.5,-392.2"/>
<text text-anchor="start" x="170.5" y="-399.3" font-family="Helvetica,sans-Serif" font-size="11.00" fill="#000000">仕入先枝番</text>
<polygon fill="none" stroke="#000000" points="150.5,-373.2 150.5,-392.2 233.5,-392.2 233.5,-373.2 150.5,-373.2"/>
<text text-anchor="start" x="153.5" y="-379.3" font-family="Helvetica,sans-Serif" font-size="11.00" fill="#000000">...</text>
<polygon fill="#ffffff" stroke="transparent" points="150.5,-354.2 150.5,-373.2 233.5,-373.2 233.5,-354.2 150.5,-354.2"/>
<polygon fill="none" stroke="#000000" points="150.5,-354.2 150.5,-373.2 233.5,-373.2 233.5,-354.2 150.5,-354.2"/>
<polygon fill="#ffffff" stroke="transparent" points="151.5,-355.2 151.5,-372.2 181.5,-372.2 181.5,-355.2 151.5,-355.2"/>
<text text-anchor="start" x="153.5" y="-360.3" font-family="Helvetica,sans-Serif" font-size="11.00" fill="#000000">&lt; 1</text>
<polygon fill="#ffffff" stroke="transparent" points="181.5,-355.2 181.5,-372.2 202.5,-372.2 202.5,-355.2 181.5,-355.2"/>
<text text-anchor="start" x="188.9431" y="-360.3" font-family="Helvetica,sans-Serif" font-size="11.00" fill="#000000"> &#160;</text>
<polygon fill="#ffffff" stroke="transparent" points="202.5,-355.2 202.5,-372.2 232.5,-372.2 232.5,-355.2 202.5,-355.2"/>
<text text-anchor="start" x="214.9053" y="-360.3" font-family="Helvetica,sans-Serif" font-size="11.00" fill="#000000">6 &gt;</text>
<polygon fill="#000000" stroke="#000000" points="181.5,-355.2 181.5,-372.2 181.5,-372.2 181.5,-355.2 181.5,-355.2"/>
<polygon fill="#000000" stroke="#000000" points="202.5,-355.2 202.5,-372.2 202.5,-372.2 202.5,-355.2 202.5,-355.2"/>
</a>
</g>
</g>
<!-- 代替商品&#45;&gt;商品マスタ -->
<g id="edge1" class="edge">
<title>代替商品:w&#45;&gt;商品マスタ:e</title>
<path fill="none" stroke="#000000" d="M306.5335,-409.1341C292.3974,-413.2911 290.474,-431.7602 274,-447.2 255.9906,-464.0788 258.1827,-485.2 233.5,-491.2"/>
<polygon fill="#000000" stroke="#000000" points="313.0001,-409.1635 320.9836,-412.8 317,-409.1818 321,-409.2 321,-409.2 321,-409.2 317,-409.1818 321.0164,-405.6 313.0001,-409.1635 313.0001,-409.1635"/>
<ellipse fill="none" stroke="#000000" cx="309.8001" cy="-409.1489" rx="3.2" ry="3.2"/>
</g>
<!-- 代替商品&#45;&gt;商品マスタ -->
<g id="edge2" class="edge">
<title>代替商品:w&#45;&gt;商品マスタ:e</title>
<path fill="none" stroke="#000000" d="M307.3879,-415.1304C292.4679,-425.5584 290.8002,-444.4545 274,-460.2 255.9906,-477.0788 258.1827,-498.2 233.5,-491.2"/>
<polygon fill="#000000" stroke="#000000" points="313.6658,-412.3953 322.4379,-412.5004 317.3329,-410.7977 321,-409.2 321,-409.2 321,-409.2 317.3329,-410.7977 319.5621,-405.8996 313.6658,-412.3953 313.6658,-412.3953"/>
<ellipse fill="none" stroke="#000000" cx="310.7322" cy="-413.6735" rx="3.2" ry="3.2"/>
</g>
<!-- 商品分類マスタ -->
<g id="node4" class="node">
<title>商品分類マスタ</title>
<g id="a_node4"><a xlink:href="../../tables/________52e8cf11.html" xlink:title="商品分類マスタ" target="_top">
<polygon fill="#ffffff" stroke="transparent" points="8,-419.7 8,-480.7 101,-480.7 101,-419.7 8,-419.7"/>
<polygon fill="#f5f5f5" stroke="transparent" points="8.5,-457.2 8.5,-480.2 101.5,-480.2 101.5,-457.2 8.5,-457.2"/>
<polygon fill="none" stroke="#000000" points="8.5,-457.2 8.5,-480.2 101.5,-480.2 101.5,-457.2 8.5,-457.2"/>
<text text-anchor="start" x="-.3019" y="-465.8" font-family="Helvetica,sans-Serif" font-weight="bold" font-size="11.00" fill="#000000">商品分類マスタ</text>
<text text-anchor="start" x="67.0219" y="-465.3" font-family="Helvetica,sans-Serif" font-size="11.00" fill="#000000">[table]</text>
<polygon fill="none" stroke="#000000" points="8.5,-438.2 8.5,-457.2 101.5,-457.2 101.5,-438.2 8.5,-438.2"/>
<text text-anchor="start" x="11.5" y="-444.3" font-family="Helvetica,sans-Serif" font-size="11.00" fill="#000000">...</text>
<polygon fill="#ffffff" stroke="transparent" points="8.5,-419.2 8.5,-438.2 101.5,-438.2 101.5,-419.2 8.5,-419.2"/>
<polygon fill="none" stroke="#000000" points="8.5,-419.2 8.5,-438.2 101.5,-438.2 101.5,-419.2 8.5,-419.2"/>
<polygon fill="#ffffff" stroke="transparent" points="9.5,-420.2 9.5,-437.2 37.5,-437.2 37.5,-420.2 9.5,-420.2"/>
<text text-anchor="start" x="11.5" y="-425.3" font-family="Helvetica,sans-Serif" font-size="11.00" fill="#000000"> &#160;</text>
<polygon fill="#ffffff" stroke="transparent" points="37.5,-420.2 37.5,-437.2 64.5,-437.2 64.5,-420.2 37.5,-420.2"/>
<text text-anchor="start" x="47.9431" y="-425.3" font-family="Helvetica,sans-Serif" font-size="11.00" fill="#000000"> &#160;</text>
<polygon fill="#ffffff" stroke="transparent" points="64.5,-420.2 64.5,-437.2 100.5,-437.2 100.5,-420.2 64.5,-420.2"/>
<text text-anchor="start" x="82.9053" y="-425.3" font-family="Helvetica,sans-Serif" font-size="11.00" fill="#000000">1 &gt;</text>
<polygon fill="#000000" stroke="#000000" points="37.5,-420.2 37.5,-437.2 37.5,-437.2 37.5,-420.2 37.5,-420.2"/>
<polygon fill="#000000" stroke="#000000" points="64.5,-420.2 64.5,-437.2 64.5,-437.2 64.5,-420.2 64.5,-420.2"/>
</a>
</g>
</g>
<!-- 商品マスタ&#45;&gt;商品分類マスタ -->
<g id="edge4" class="edge">
<title>商品マスタ:w&#45;&gt;商品分類マスタ:e</title>
<path fill="none" stroke="#000000" d="M135.9909,-447.2C124.6774,-447.2 117.4931,-447.2 101.5,-447.2"/>
<polygon fill="#000000" stroke="#000000" points="142.5,-447.2001 150.5,-450.8 146.5,-447.2 150.5,-447.2 150.5,-447.2 150.5,-447.2 146.5,-447.2 150.5,-443.6 142.5,-447.2001 142.5,-447.2001"/>
<ellipse fill="none" stroke="#000000" cx="139.3" cy="-447.2001" rx="3.2" ry="3.2"/>
</g>
<!-- 受注明細 -->
<g id="node3" class="node">
<title>受注明細</title>
<g id="a_node3"><a xlink:href="../../tables/_____27c23493.html" xlink:title="受注明細" target="_top">
<polygon fill="#ffffff" stroke="transparent" points="321,-627.7 321,-688.7 391,-688.7 391,-627.7 321,-627.7"/>
<polygon fill="#f5f5f5" stroke="transparent" points="321,-665.2 321,-688.2 391,-688.2 391,-665.2 321,-665.2"/>
<polygon fill="none" stroke="#000000" points="321,-665.2 321,-688.2 391,-688.2 391,-665.2 321,-665.2"/>
<text text-anchor="start" x="318.1006" y="-673.8" font-family="Helvetica,sans-Serif" font-weight="bold" font-size="11.00" fill="#000000">受注明細</text>
<text text-anchor="start" x="356.5219" y="-673.3" font-family="Helvetica,sans-Serif" font-size="11.00" fill="#000000">[table]</text>
<polygon fill="none" stroke="#000000" points="321,-646.2 321,-665.2 391,-665.2 391,-646.2 321,-646.2"/>
<text text-anchor="start" x="324" y="-652.3" font-family="Helvetica,sans-Serif" font-size="11.00" fill="#000000">...</text>
<polygon fill="#ffffff" stroke="transparent" points="321,-627.2 321,-646.2 391,-646.2 391,-627.2 321,-627.2"/>
<polygon fill="none" stroke="#000000" points="321,-627.2 321,-646.2 391,-646.2 391,-627.2 321,-627.2"/>
<polygon fill="#ffffff" stroke="transparent" points="322,-628.2 322,-645.2 351,-645.2 351,-628.2 322,-628.2"/>
<text text-anchor="start" x="324" y="-633.3" font-family="Helvetica,sans-Serif" font-size="11.00" fill="#000000">&lt; 2</text>
<polygon fill="#ffffff" stroke="transparent" points="351,-628.2 351,-645.2 371,-645.2 371,-628.2 351,-628.2"/>
<text text-anchor="start" x="357.9431" y="-633.3" font-family="Helvetica,sans-Serif" font-size="11.00" fill="#000000"> &#160;</text>
<polygon fill="#ffffff" stroke="transparent" points="371,-628.2 371,-645.2 390,-645.2 390,-628.2 371,-628.2"/>
<text text-anchor="start" x="381.8862" y="-633.3" font-family="Helvetica,sans-Serif" font-size="11.00" fill="#000000"> &#160;</text>
<polygon fill="#000000" stroke="#000000" points="351,-628.2 351,-645.2 351,-645.2 351,-628.2 351,-628.2"/>
<polygon fill="#000000" stroke="#000000" points="371,-628.2 371,-645.2 371,-645.2 371,-628.2 371,-628.2"/>
</a>
</g>
</g>
<!-- 受注明細&#45;&gt;商品マスタ -->
<g id="edge3" class="edge">
<title>受注明細:w&#45;&gt;商品マスタ:e</title>
<path fill="none" stroke="#000000" d="M306.6245,-653.1746C291.5942,-648.235 285.9846,-634.6825 274,-617.2 240.741,-568.6836 292.3218,-491.2 233.5,-491.2"/>
<polygon fill="#000000" stroke="#000000" points="313.0782,-654.0838 320.4977,-658.7648 317.0391,-654.6419 321,-655.2 321,-655.2 321,-655.2 317.0391,-654.6419 321.5023,-651.6352 313.0782,-654.0838 313.0782,-654.0838"/>
<ellipse fill="none" stroke="#000000" cx="309.9095" cy="-653.6373" rx="3.2" ry="3.2"/>
</g>
<!-- 在庫 -->
<g id="node5" class="node">
<title>在庫</title>
<g id="a_node5"><a xlink:href="../../tables/___aec83.html" xlink:title="在庫" target="_top">
<polygon fill="#ffffff" stroke="transparent" points="282,-38.2 282,-348.2 430,-348.2 430,-38.2 282,-38.2"/>
<polygon fill="#f5f5f5" stroke="transparent" points="284,-323.2 284,-346.2 428,-346.2 428,-323.2 284,-323.2"/>
<polygon fill="none" stroke="#000000" points="284,-323.2 284,-346.2 428,-346.2 428,-323.2 284,-323.2"/>
<text text-anchor="start" x="281.9688" y="-331.8" font-family="Helvetica,sans-Serif" font-weight="bold" font-size="11.00" fill="#000000">在庫</text>
<text text-anchor="start" x="393.0437" y="-331.3" font-family="Helvetica,sans-Serif" font-size="11.00" fill="#000000">[table]</text>
<polygon fill="none" stroke="#000000" points="284,-301.2 284,-323.2 344,-323.2 344,-301.2 284,-301.2"/>
<image xlink:href="../../images/primaryKeys.png" width="11px" height="12px" preserveAspectRatio="xMinYMin meet" x="289" y="-318.2"/>
<text text-anchor="start" x="289.7232" y="-308.3" font-family="Helvetica,sans-Serif" font-size="11.00" fill="#000000">倉庫コード</text>
<polygon fill="none" stroke="#000000" points="344,-301.2 344,-323.2 428,-323.2 428,-301.2 344,-301.2"/>
<text text-anchor="start" x="347" y="-308.9" font-family="Helvetica,sans-Serif" font-size="11.00" fill="#000000">varchar[3]</text>
<polygon fill="none" stroke="#000000" points="284,-279.2 284,-301.2 344,-301.2 344,-279.2 284,-279.2"/>
<image xlink:href="../../images/primaryKeys.png" width="11px" height="12px" preserveAspectRatio="xMinYMin meet" x="289" y="-296.2"/>
<text text-anchor="start" x="291.5547" y="-286.3" font-family="Helvetica,sans-Serif" font-size="11.00" fill="#000000">商品コード</text>
<polygon fill="none" stroke="#000000" points="344,-279.2 344,-301.2 428,-301.2 428,-279.2 344,-279.2"/>
<text text-anchor="start" x="347" y="-286.9" font-family="Helvetica,sans-Serif" font-size="11.00" fill="#000000">varchar[16]</text>
<polygon fill="none" stroke="#000000" points="284,-257.2 284,-279.2 344,-279.2 344,-257.2 284,-257.2"/>
<image xlink:href="../../images/primaryKeys.png" width="11px" height="12px" preserveAspectRatio="xMinYMin meet" x="289" y="-274.2"/>
<text text-anchor="start" x="296.0543" y="-264.3" font-family="Helvetica,sans-Serif" font-size="11.00" fill="#000000">ロット番号</text>
<polygon fill="none" stroke="#000000" points="344,-257.2 344,-279.2 428,-279.2 428,-257.2 344,-257.2"/>
<text text-anchor="start" x="347" y="-264.9" font-family="Helvetica,sans-Serif" font-size="11.00" fill="#000000">varchar[20]</text>
<polygon fill="none" stroke="#000000" points="284,-235.2 284,-257.2 344,-257.2 344,-235.2 284,-235.2"/>
<image xlink:href="../../images/primaryKeys.png" width="11px" height="12px" preserveAspectRatio="xMinYMin meet" x="289" y="-252.2"/>
<text text-anchor="start" x="299.4956" y="-242.3" font-family="Helvetica,sans-Serif" font-size="11.00" fill="#000000">在庫区分</text>
<polygon fill="none" stroke="#000000" points="344,-235.2 344,-257.2 428,-257.2 428,-235.2 344,-235.2"/>
<text text-anchor="start" x="347" y="-242.9" font-family="Helvetica,sans-Serif" font-size="11.00" fill="#000000">varchar[1]</text>
<polygon fill="none" stroke="#000000" points="284,-213.2 284,-235.2 344,-235.2 344,-213.2 284,-213.2"/>
<image xlink:href="../../images/primaryKeys.png" width="11px" height="12px" preserveAspectRatio="xMinYMin meet" x="289" y="-230.2"/>
<text text-anchor="start" x="299.4956" y="-220.3" font-family="Helvetica,sans-Serif" font-size="11.00" fill="#000000">品質区分</text>
<polygon fill="none" stroke="#000000" points="344,-213.2 344,-235.2 428,-235.2 428,-213.2 344,-213.2"/>
<text text-anchor="start" x="347" y="-220.9" font-family="Helvetica,sans-Serif" font-size="11.00" fill="#000000">varchar[1]</text>
<polygon fill="none" stroke="#000000" points="284,-191.2 284,-213.2 344,-213.2 344,-191.2 284,-191.2"/>
<text text-anchor="start" x="298.5766" y="-198.3" font-family="Helvetica,sans-Serif" font-size="11.00" fill="#000000">実在庫数</text>
<polygon fill="none" stroke="#000000" points="344,-191.2 344,-213.2 428,-213.2 428,-191.2 344,-191.2"/>
<text text-anchor="start" x="347" y="-198.9" font-family="Helvetica,sans-Serif" font-size="11.00" fill="#000000">int4[10]</text>
<polygon fill="none" stroke="#000000" points="284,-169.2 284,-191.2 344,-191.2 344,-169.2 284,-169.2"/>
<text text-anchor="start" x="294.9103" y="-176.3" font-family="Helvetica,sans-Serif" font-size="11.00" fill="#000000">有効在庫数</text>
<polygon fill="none" stroke="#000000" points="344,-169.2 344,-191.2 428,-191.2 428,-169.2 344,-169.2"/>
<text text-anchor="start" x="347" y="-176.9" font-family="Helvetica,sans-Serif" font-size="11.00" fill="#000000">int4[10]</text>
<polygon fill="none" stroke="#000000" points="284,-147.2 284,-169.2 344,-169.2 344,-147.2 284,-147.2"/>
<text text-anchor="start" x="294.8168" y="-154.3" font-family="Helvetica,sans-Serif" font-size="11.00" fill="#000000">最終出荷日</text>
<polygon fill="none" stroke="#000000" points="344,-147.2 344,-169.2 428,-169.2 428,-147.2 344,-147.2"/>
<text text-anchor="start" x="346.8807" y="-154.9" font-family="Helvetica,sans-Serif" font-size="11.00" fill="#000000">timestamp[29,6]</text>
<polygon fill="none" stroke="#000000" points="284,-125.2 284,-147.2 344,-147.2 344,-125.2 284,-125.2"/>
<text text-anchor="start" x="297.6581" y="-132.3" font-family="Helvetica,sans-Serif" font-size="11.00" fill="#000000">作成日時</text>
<polygon fill="none" stroke="#000000" points="344,-125.2 344,-147.2 428,-147.2 428,-125.2 344,-125.2"/>
<text text-anchor="start" x="346.8807" y="-132.9" font-family="Helvetica,sans-Serif" font-size="11.00" fill="#000000">timestamp[29,6]</text>
<polygon fill="none" stroke="#000000" points="284,-103.2 284,-125.2 344,-125.2 344,-103.2 284,-103.2"/>
<text text-anchor="start" x="297.6581" y="-110.3" font-family="Helvetica,sans-Serif" font-size="11.00" fill="#000000">作成者名</text>
<polygon fill="none" stroke="#000000" points="344,-103.2 344,-125.2 428,-125.2 428,-103.2 344,-103.2"/>
<text text-anchor="start" x="347" y="-110.9" font-family="Helvetica,sans-Serif" font-size="11.00" fill="#000000">varchar[12]</text>
<polygon fill="none" stroke="#000000" points="284,-81.2 284,-103.2 344,-103.2 344,-81.2 284,-81.2"/>
<text text-anchor="start" x="301.6296" y="-88.3" font-family="Helvetica,sans-Serif" font-size="11.00" fill="#000000">更新日時</text>
<polygon fill="none" stroke="#000000" points="344,-81.2 344,-103.2 428,-103.2 428,-81.2 344,-81.2"/>
<text text-anchor="start" x="346.8807" y="-88.9" font-family="Helvetica,sans-Serif" font-size="11.00" fill="#000000">timestamp[29,6]</text>
<polygon fill="none" stroke="#000000" points="284,-59.2 284,-81.2 344,-81.2 344,-59.2 284,-59.2"/>
<text text-anchor="start" x="301.6296" y="-66.3" font-family="Helvetica,sans-Serif" font-size="11.00" fill="#000000">更新者名</text>
<polygon fill="none" stroke="#000000" points="344,-59.2 344,-81.2 428,-81.2 428,-59.2 344,-59.2"/>
<text text-anchor="start" x="347" y="-66.9" font-family="Helvetica,sans-Serif" font-size="11.00" fill="#000000">varchar[12]</text>
<polygon fill="#ffffff" stroke="transparent" points="284,-40.2 284,-59.2 428,-59.2 428,-40.2 284,-40.2"/>
<polygon fill="none" stroke="#000000" points="284,-40.2 284,-59.2 428,-59.2 428,-40.2 284,-40.2"/>
<polygon fill="#ffffff" stroke="transparent" points="285,-41.2 285,-58.2 336,-58.2 336,-41.2 285,-41.2"/>
<text text-anchor="start" x="287" y="-46.3" font-family="Helvetica,sans-Serif" font-size="11.00" fill="#000000">&lt; 2</text>
<polygon fill="#ffffff" stroke="transparent" points="336,-41.2 336,-58.2 377,-58.2 377,-41.2 336,-41.2"/>
<text text-anchor="start" x="353.4431" y="-46.3" font-family="Helvetica,sans-Serif" font-size="11.00" fill="#000000"> &#160;</text>
<polygon fill="#ffffff" stroke="transparent" points="377,-41.2 377,-58.2 427,-58.2 427,-41.2 377,-41.2"/>
<text text-anchor="start" x="409.4053" y="-46.3" font-family="Helvetica,sans-Serif" font-size="11.00" fill="#000000">0 &gt;</text>
<polygon fill="#000000" stroke="#000000" points="336,-41.2 336,-58.2 336,-58.2 336,-41.2 336,-41.2"/>
<polygon fill="#000000" stroke="#000000" points="377,-41.2 377,-58.2 377,-58.2 377,-41.2 377,-41.2"/>
<polygon fill="none" stroke="#000000" stroke-width="2" points="283,-39.2 283,-347.2 429,-347.2 429,-39.2 283,-39.2"/>
</a>
</g>
</g>
<!-- 在庫&#45;&gt;商品マスタ -->
<g id="edge6" class="edge">
<title>在庫:w&#45;&gt;商品マスタ:e</title>
<path fill="none" stroke="#000000" d="M269.6525,-292.3213C207.255,-313.803 320.0327,-491.2 233.5,-491.2"/>
<polygon fill="#000000" stroke="#000000" points="276.086,-291.3702 284.5266,-293.7613 280.043,-290.7851 284,-290.2 284,-290.2 284,-290.2 280.043,-290.7851 283.4734,-286.6387 276.086,-291.3702 276.086,-291.3702"/>
<ellipse fill="none" stroke="#000000" cx="272.9204" cy="-291.8382" rx="3.2" ry="3.2"/>
</g>
<!-- 倉庫マスタ -->
<g id="node6" class="node">
<title>倉庫マスタ</title>
<g id="a_node6"><a xlink:href="../../tables/______939d4982.html" xlink:title="倉庫マスタ" target="_top">
<polygon fill="#ffffff" stroke="transparent" points="152.5,-228.7 152.5,-333.7 230.5,-333.7 230.5,-228.7 152.5,-228.7"/>
<polygon fill="#f5f5f5" stroke="transparent" points="152.5,-310.2 152.5,-333.2 230.5,-333.2 230.5,-310.2 152.5,-310.2"/>
<polygon fill="none" stroke="#000000" points="152.5,-310.2 152.5,-333.2 230.5,-333.2 230.5,-310.2 152.5,-310.2"/>
<text text-anchor="start" x="146.5898" y="-318.8" font-family="Helvetica,sans-Serif" font-weight="bold" font-size="11.00" fill="#000000">倉庫マスタ</text>
<text text-anchor="start" x="196.0219" y="-318.3" font-family="Helvetica,sans-Serif" font-size="11.00" fill="#000000">[table]</text>
<polygon fill="none" stroke="#000000" points="152.5,-288.2 152.5,-310.2 230.5,-310.2 230.5,-288.2 152.5,-288.2"/>
<image xlink:href="../../images/primaryKeys.png" width="11px" height="12px" preserveAspectRatio="xMinYMin meet" x="157.5" y="-305.2"/>
<text text-anchor="start" x="167.2232" y="-295.3" font-family="Helvetica,sans-Serif" font-size="11.00" fill="#000000">倉庫コード</text>
<polygon fill="#ffffff" stroke="transparent" points="152.5,-266.2 152.5,-288.2 230.5,-288.2 230.5,-266.2 152.5,-266.2"/>
<polygon fill="none" stroke="#000000" points="152.5,-266.2 152.5,-288.2 230.5,-288.2 230.5,-266.2 152.5,-266.2"/>
<text text-anchor="start" x="181.5" y="-273.3" font-family="Helvetica,sans-Serif" font-size="11.00" fill="#000000">倉庫名</text>
<polygon fill="none" stroke="#000000" points="152.5,-247.2 152.5,-266.2 230.5,-266.2 230.5,-247.2 152.5,-247.2"/>
<text text-anchor="start" x="155.5" y="-253.3" font-family="Helvetica,sans-Serif" font-size="11.00" fill="#000000">...</text>
<polygon fill="#ffffff" stroke="transparent" points="152.5,-228.2 152.5,-247.2 230.5,-247.2 230.5,-228.2 152.5,-228.2"/>
<polygon fill="none" stroke="#000000" points="152.5,-228.2 152.5,-247.2 230.5,-247.2 230.5,-228.2 152.5,-228.2"/>
<polygon fill="#ffffff" stroke="transparent" points="153.5,-229.2 153.5,-246.2 176.5,-246.2 176.5,-229.2 153.5,-229.2"/>
<text text-anchor="start" x="155.5" y="-234.3" font-family="Helvetica,sans-Serif" font-size="11.00" fill="#000000"> &#160;</text>
<polygon fill="#ffffff" stroke="transparent" points="176.5,-229.2 176.5,-246.2 198.5,-246.2 198.5,-229.2 176.5,-229.2"/>
<text text-anchor="start" x="184.4431" y="-234.3" font-family="Helvetica,sans-Serif" font-size="11.00" fill="#000000"> &#160;</text>
<polygon fill="#ffffff" stroke="transparent" points="198.5,-229.2 198.5,-246.2 229.5,-246.2 229.5,-229.2 198.5,-229.2"/>
<text text-anchor="start" x="211.9053" y="-234.3" font-family="Helvetica,sans-Serif" font-size="11.00" fill="#000000">1 &gt;</text>
<polygon fill="#000000" stroke="#000000" points="176.5,-229.2 176.5,-246.2 176.5,-246.2 176.5,-229.2 176.5,-229.2"/>
<polygon fill="#000000" stroke="#000000" points="198.5,-229.2 198.5,-246.2 198.5,-246.2 198.5,-229.2 198.5,-229.2"/>
</a>
</g>
</g>
<!-- 在庫&#45;&gt;倉庫マスタ -->
<g id="edge5" class="edge">
<title>在庫:w&#45;&gt;倉庫マスタ:e</title>
<path fill="none" stroke="#000000" d="M269.563,-310.3924C256.2989,-306.8204 249.2346,-299.2 230.5,-299.2"/>
<polygon fill="#000000" stroke="#000000" points="276.062,-311.2061 283.5527,-315.7721 280.031,-311.703 284,-312.2 284,-312.2 284,-312.2 280.031,-311.703 284.4473,-308.6279 276.062,-311.2061 276.062,-311.2061"/>
<ellipse fill="none" stroke="#000000" cx="272.8868" cy="-310.8085" rx="3.2" ry="3.2"/>
</g>
<!-- 売上明細 -->
<g id="node7" class="node">
<title>売上明細</title>
<g id="a_node7"><a xlink:href="../../tables/_____29a0763a.html" xlink:title="売上明細" target="_top">
<polygon fill="#ffffff" stroke="transparent" points="321,-545.7 321,-606.7 391,-606.7 391,-545.7 321,-545.7"/>
<polygon fill="#f5f5f5" stroke="transparent" points="321,-583.2 321,-606.2 391,-606.2 391,-583.2 321,-583.2"/>
<polygon fill="none" stroke="#000000" points="321,-583.2 321,-606.2 391,-606.2 391,-583.2 321,-583.2"/>
<text text-anchor="start" x="318.4086" y="-591.8" font-family="Helvetica,sans-Serif" font-weight="bold" font-size="11.00" fill="#000000">売上明細</text>
<text text-anchor="start" x="356.5219" y="-591.3" font-family="Helvetica,sans-Serif" font-size="11.00" fill="#000000">[table]</text>
<polygon fill="none" stroke="#000000" points="321,-564.2 321,-583.2 391,-583.2 391,-564.2 321,-564.2"/>
<text text-anchor="start" x="324" y="-570.3" font-family="Helvetica,sans-Serif" font-size="11.00" fill="#000000">...</text>
<polygon fill="#ffffff" stroke="transparent" points="321,-545.2 321,-564.2 391,-564.2 391,-545.2 321,-545.2"/>
<polygon fill="none" stroke="#000000" points="321,-545.2 321,-564.2 391,-564.2 391,-545.2 321,-545.2"/>
<polygon fill="#ffffff" stroke="transparent" points="322,-546.2 322,-563.2 351,-563.2 351,-546.2 322,-546.2"/>
<text text-anchor="start" x="324" y="-551.3" font-family="Helvetica,sans-Serif" font-size="11.00" fill="#000000">&lt; 2</text>
<polygon fill="#ffffff" stroke="transparent" points="351,-546.2 351,-563.2 371,-563.2 371,-546.2 351,-546.2"/>
<text text-anchor="start" x="357.9431" y="-551.3" font-family="Helvetica,sans-Serif" font-size="11.00" fill="#000000"> &#160;</text>
<polygon fill="#ffffff" stroke="transparent" points="371,-546.2 371,-563.2 390,-563.2 390,-546.2 371,-546.2"/>
<text text-anchor="start" x="381.8862" y="-551.3" font-family="Helvetica,sans-Serif" font-size="11.00" fill="#000000"> &#160;</text>
<polygon fill="#000000" stroke="#000000" points="351,-546.2 351,-563.2 351,-563.2 351,-546.2 351,-546.2"/>
<polygon fill="#000000" stroke="#000000" points="371,-546.2 371,-563.2 371,-563.2 371,-546.2 371,-546.2"/>
</a>
</g>
</g>
<!-- 売上明細&#45;&gt;商品マスタ -->
<g id="edge7" class="edge">
<title>売上明細:w&#45;&gt;商品マスタ:e</title>
<path fill="none" stroke="#000000" d="M306.6748,-570.6014C292.988,-564.6743 289.3073,-549.5563 274,-535.2 254.6136,-517.0179 260.0786,-491.2 233.5,-491.2"/>
<polygon fill="#000000" stroke="#000000" points="313.1285,-571.772 320.3574,-576.7422 317.0642,-572.486 321,-573.2 321,-573.2 321,-573.2 317.0642,-572.486 321.6426,-569.6578 313.1285,-571.772 313.1285,-571.772"/>
<ellipse fill="none" stroke="#000000" cx="309.9799" cy="-571.2009" rx="3.2" ry="3.2"/>
</g>
<!-- 顧客別販売単価 -->
<g id="node8" class="node">
<title>顧客別販売単価</title>
<g id="a_node8"><a xlink:href="../../tables/________201bd2dc.html" xlink:title="顧客別販売単価" target="_top">
<polygon fill="#ffffff" stroke="transparent" points="309.5,-463.7 309.5,-524.7 402.5,-524.7 402.5,-463.7 309.5,-463.7"/>
<polygon fill="#f5f5f5" stroke="transparent" points="310,-501.2 310,-524.2 403,-524.2 403,-501.2 310,-501.2"/>
<polygon fill="none" stroke="#000000" points="310,-501.2 310,-524.2 403,-524.2 403,-501.2 310,-501.2"/>
<text text-anchor="start" x="293.1015" y="-509.8" font-family="Helvetica,sans-Serif" font-weight="bold" font-size="11.00" fill="#000000">顧客別販売単価</text>
<text text-anchor="start" x="368.5219" y="-509.3" font-family="Helvetica,sans-Serif" font-size="11.00" fill="#000000">[table]</text>
<polygon fill="none" stroke="#000000" points="310,-482.2 310,-501.2 403,-501.2 403,-482.2 310,-482.2"/>
<text text-anchor="start" x="313" y="-488.3" font-family="Helvetica,sans-Serif" font-size="11.00" fill="#000000">...</text>
<polygon fill="#ffffff" stroke="transparent" points="310,-463.2 310,-482.2 403,-482.2 403,-463.2 310,-463.2"/>
<polygon fill="none" stroke="#000000" points="310,-463.2 310,-482.2 403,-482.2 403,-463.2 310,-463.2"/>
<polygon fill="#ffffff" stroke="transparent" points="311,-464.2 311,-481.2 348,-481.2 348,-464.2 311,-464.2"/>
<text text-anchor="start" x="313" y="-469.3" font-family="Helvetica,sans-Serif" font-size="11.00" fill="#000000">&lt; 1</text>
<polygon fill="#ffffff" stroke="transparent" points="348,-464.2 348,-481.2 375,-481.2 375,-464.2 348,-464.2"/>
<text text-anchor="start" x="358.4431" y="-469.3" font-family="Helvetica,sans-Serif" font-size="11.00" fill="#000000"> &#160;</text>
<polygon fill="#ffffff" stroke="transparent" points="375,-464.2 375,-481.2 402,-481.2 402,-464.2 375,-464.2"/>
<text text-anchor="start" x="393.8862" y="-469.3" font-family="Helvetica,sans-Serif" font-size="11.00" fill="#000000"> &#160;</text>
<polygon fill="#000000" stroke="#000000" points="348,-464.2 348,-481.2 348,-481.2 348,-464.2 348,-464.2"/>
<polygon fill="#000000" stroke="#000000" points="375,-464.2 375,-481.2 375,-481.2 375,-464.2 375,-464.2"/>
</a>
</g>
</g>
<!-- 顧客別販売単価&#45;&gt;商品マスタ -->
<g id="edge8" class="edge">
<title>顧客別販売単価:w&#45;&gt;商品マスタ:e</title>
<path fill="none" stroke="#000000" d="M295.4168,-491.2C272.6233,-491.2 262.0547,-491.2 233.5,-491.2"/>
<polygon fill="#000000" stroke="#000000" points="302,-491.2001 310,-494.8 306,-491.2 310,-491.2 310,-491.2 310,-491.2 306,-491.2 310,-487.6 302,-491.2001 302,-491.2001"/>
<ellipse fill="none" stroke="#000000" cx="298.8" cy="-491.2001" rx="3.2" ry="3.2"/>
</g>
</g>
</svg>
