<?xml version="1.0" encoding="UTF-8" standalone="no"?>
<!DOCTYPE svg PUBLIC "-//W3C//DTD SVG 1.1//EN"
 "http://www.w3.org/Graphics/SVG/1.1/DTD/svg11.dtd">
<!-- Generated by graphviz version 2.40.1 (20161225.0304)
 -->
<!-- Title: oneDegreeRelationshipsDiagram Pages: 1 -->
<svg width="565pt" height="587pt"
 viewBox="0.00 0.00 565.00 586.70" xmlns="http://www.w3.org/2000/svg" xmlns:xlink="http://www.w3.org/1999/xlink">
<g id="graph0" class="graph" transform="scale(1 1) rotate(0) translate(4 582.7)">
<title>oneDegreeRelationshipsDiagram</title>
<polygon fill="#ffffff" stroke="transparent" points="-4,4 -4,-582.7 561,-582.7 561,4 -4,4"/>
<text text-anchor="middle" x="72.4936" y="-7.3" font-family="Helvetica,sans-Serif" font-size="11.00" fill="#000000">Generated by SchemaSpy</text>
<!-- 受注 -->
<g id="node1" class="node">
<title>受注</title>
<g id="a_node1"><a xlink:href="../../tables/___a93f1.html" xlink:title="受注" target="_top">
<polygon fill="#ffffff" stroke="transparent" points="275,-154.7 275,-574.7 430,-574.7 430,-154.7 275,-154.7"/>
<polygon fill="#f5f5f5" stroke="transparent" points="277.5,-549.7 277.5,-572.7 428.5,-572.7 428.5,-549.7 277.5,-549.7"/>
<polygon fill="none" stroke="#000000" points="277.5,-549.7 277.5,-572.7 428.5,-572.7 428.5,-549.7 277.5,-549.7"/>
<text text-anchor="start" x="275.7713" y="-558.3" font-family="Helvetica,sans-Serif" font-weight="bold" font-size="11.00" fill="#000000">受注</text>
<text text-anchor="start" x="393.5437" y="-557.8" font-family="Helvetica,sans-Serif" font-size="11.00" fill="#000000">[table]</text>
<polygon fill="none" stroke="#000000" points="277.5,-527.7 277.5,-549.7 344.5,-549.7 344.5,-527.7 277.5,-527.7"/>
<image xlink:href="../../images/primaryKeys.png" width="11px" height="12px" preserveAspectRatio="xMinYMin meet" x="282.5" y="-544.7"/>
<text text-anchor="start" x="296.4021" y="-534.8" font-family="Helvetica,sans-Serif" font-size="11.00" fill="#000000">受注番号</text>
<polygon fill="none" stroke="#000000" points="344.5,-527.7 344.5,-549.7 428.5,-549.7 428.5,-527.7 344.5,-527.7"/>
<text text-anchor="start" x="347.5" y="-535.4" font-family="Helvetica,sans-Serif" font-size="11.00" fill="#000000">varchar[20]</text>
<polygon fill="#ffffff" stroke="transparent" points="277.5,-505.7 277.5,-527.7 344.5,-527.7 344.5,-505.7 277.5,-505.7"/>
<polygon fill="none" stroke="#000000" points="277.5,-505.7 277.5,-527.7 344.5,-527.7 344.5,-505.7 277.5,-505.7"/>
<text text-anchor="start" x="297.5" y="-512.8" font-family="Helvetica,sans-Serif" font-size="11.00" fill="#000000">受注日</text>
<polygon fill="none" stroke="#000000" points="344.5,-505.7 344.5,-527.7 428.5,-527.7 428.5,-505.7 344.5,-505.7"/>
<text text-anchor="start" x="347.3807" y="-513.4" font-family="Helvetica,sans-Serif" font-size="11.00" fill="#000000">timestamp[29,6]</text>
<polygon fill="none" stroke="#000000" points="277.5,-483.7 277.5,-505.7 344.5,-505.7 344.5,-483.7 277.5,-483.7"/>
<image xlink:href="../../images/foreignKeys.png" width="11px" height="12px" preserveAspectRatio="xMinYMin meet" x="282.5" y="-500.7"/>
<text text-anchor="start" x="281.5257" y="-490.8" font-family="Helvetica,sans-Serif" font-size="11.00" fill="#000000">部門コード</text>
<polygon fill="none" stroke="#000000" points="344.5,-483.7 344.5,-505.7 428.5,-505.7 428.5,-483.7 344.5,-483.7"/>
<text text-anchor="start" x="347.5" y="-491.4" font-family="Helvetica,sans-Serif" font-size="11.00" fill="#000000">varchar[6]</text>
<polygon fill="none" stroke="#000000" points="277.5,-461.7 277.5,-483.7 344.5,-483.7 344.5,-461.7 277.5,-461.7"/>
<image xlink:href="../../images/foreignKeys.png" width="11px" height="12px" preserveAspectRatio="xMinYMin meet" x="282.5" y="-478.7"/>
<text text-anchor="start" x="297.5" y="-468.8" font-family="Helvetica,sans-Serif" font-size="11.00" fill="#000000">開始日</text>
<polygon fill="none" stroke="#000000" points="344.5,-461.7 344.5,-483.7 428.5,-483.7 428.5,-461.7 344.5,-461.7"/>
<text text-anchor="start" x="347.3807" y="-469.4" font-family="Helvetica,sans-Serif" font-size="11.00" fill="#000000">timestamp[29,6]</text>
<polygon fill="#ffffff" stroke="transparent" points="277.5,-439.7 277.5,-461.7 344.5,-461.7 344.5,-439.7 277.5,-439.7"/>
<polygon fill="none" stroke="#000000" points="277.5,-439.7 277.5,-461.7 344.5,-461.7 344.5,-439.7 277.5,-439.7"/>
<image xlink:href="../../images/foreignKeys.png" width="11px" height="12px" preserveAspectRatio="xMinYMin meet" x="282.5" y="-456.7"/>
<text text-anchor="start" x="281.2227" y="-446.8" font-family="Helvetica,sans-Serif" font-size="11.00" fill="#000000">顧客コード</text>
<polygon fill="none" stroke="#000000" points="344.5,-439.7 344.5,-461.7 428.5,-461.7 428.5,-439.7 344.5,-439.7"/>
<text text-anchor="start" x="347.5" y="-447.4" font-family="Helvetica,sans-Serif" font-size="11.00" fill="#000000">varchar[8]</text>
<polygon fill="#ffffff" stroke="transparent" points="277.5,-417.7 277.5,-439.7 344.5,-439.7 344.5,-417.7 277.5,-417.7"/>
<polygon fill="none" stroke="#000000" points="277.5,-417.7 277.5,-439.7 344.5,-439.7 344.5,-417.7 277.5,-417.7"/>
<image xlink:href="../../images/foreignKeys.png" width="11px" height="12px" preserveAspectRatio="xMinYMin meet" x="282.5" y="-434.7"/>
<text text-anchor="start" x="292.5241" y="-424.8" font-family="Helvetica,sans-Serif" font-size="11.00" fill="#000000">顧客枝番</text>
<polygon fill="none" stroke="#000000" points="344.5,-417.7 344.5,-439.7 428.5,-439.7 428.5,-417.7 344.5,-417.7"/>
<text text-anchor="start" x="347.5" y="-425.4" font-family="Helvetica,sans-Serif" font-size="11.00" fill="#000000">int4[10]</text>
<polygon fill="#ffffff" stroke="transparent" points="277.5,-395.7 277.5,-417.7 344.5,-417.7 344.5,-395.7 277.5,-395.7"/>
<polygon fill="none" stroke="#000000" points="277.5,-395.7 277.5,-417.7 344.5,-417.7 344.5,-395.7 277.5,-395.7"/>
<image xlink:href="../../images/foreignKeys.png" width="11px" height="12px" preserveAspectRatio="xMinYMin meet" x="282.5" y="-412.7"/>
<text text-anchor="start" x="288.8627" y="-402.8" font-family="Helvetica,sans-Serif" font-size="11.00" fill="#000000">社員コード</text>
<polygon fill="none" stroke="#000000" points="344.5,-395.7 344.5,-417.7 428.5,-417.7 428.5,-395.7 344.5,-395.7"/>
<text text-anchor="start" x="347.5" y="-403.4" font-family="Helvetica,sans-Serif" font-size="11.00" fill="#000000">varchar[10]</text>
<polygon fill="none" stroke="#000000" points="277.5,-373.7 277.5,-395.7 344.5,-395.7 344.5,-373.7 277.5,-373.7"/>
<text text-anchor="start" x="297.5" y="-380.8" font-family="Helvetica,sans-Serif" font-size="11.00" fill="#000000">納期</text>
<polygon fill="none" stroke="#000000" points="344.5,-373.7 344.5,-395.7 428.5,-395.7 428.5,-373.7 344.5,-373.7"/>
<text text-anchor="start" x="347.3807" y="-381.4" font-family="Helvetica,sans-Serif" font-size="11.00" fill="#000000">timestamp[29,6]</text>
<polygon fill="none" stroke="#000000" points="277.5,-351.7 277.5,-373.7 344.5,-373.7 344.5,-351.7 277.5,-351.7"/>
<text text-anchor="start" x="279.8994" y="-358.8" font-family="Helvetica,sans-Serif" font-size="11.00" fill="#000000">顧客注文番号</text>
<polygon fill="none" stroke="#000000" points="344.5,-351.7 344.5,-373.7 428.5,-373.7 428.5,-351.7 344.5,-351.7"/>
<text text-anchor="start" x="347.5" y="-359.4" font-family="Helvetica,sans-Serif" font-size="11.00" fill="#000000">varchar[20]</text>
<polygon fill="none" stroke="#000000" points="277.5,-329.7 277.5,-351.7 344.5,-351.7 344.5,-329.7 277.5,-329.7"/>
<image xlink:href="../../images/foreignKeys.png" width="11px" height="12px" preserveAspectRatio="xMinYMin meet" x="282.5" y="-346.7"/>
<text text-anchor="start" x="286.7232" y="-336.8" font-family="Helvetica,sans-Serif" font-size="11.00" fill="#000000">倉庫コード</text>
<polygon fill="none" stroke="#000000" points="344.5,-329.7 344.5,-351.7 428.5,-351.7 428.5,-329.7 344.5,-329.7"/>
<text text-anchor="start" x="347.5" y="-337.4" font-family="Helvetica,sans-Serif" font-size="11.00" fill="#000000">varchar[3]</text>
<polygon fill="none" stroke="#000000" points="277.5,-307.7 277.5,-329.7 344.5,-329.7 344.5,-307.7 277.5,-307.7"/>
<text text-anchor="start" x="291.2981" y="-314.8" font-family="Helvetica,sans-Serif" font-size="11.00" fill="#000000">受注金額</text>
<polygon fill="none" stroke="#000000" points="344.5,-307.7 344.5,-329.7 428.5,-329.7 428.5,-307.7 344.5,-307.7"/>
<text text-anchor="start" x="347.5" y="-315.4" font-family="Helvetica,sans-Serif" font-size="11.00" fill="#000000">int4[10]</text>
<polygon fill="none" stroke="#000000" points="277.5,-285.7 277.5,-307.7 344.5,-307.7 344.5,-285.7 277.5,-285.7"/>
<text text-anchor="start" x="297.2034" y="-292.8" font-family="Helvetica,sans-Serif" font-size="11.00" fill="#000000">消費税</text>
<polygon fill="none" stroke="#000000" points="344.5,-285.7 344.5,-307.7 428.5,-307.7 428.5,-285.7 344.5,-285.7"/>
<text text-anchor="start" x="347.5" y="-293.4" font-family="Helvetica,sans-Serif" font-size="11.00" fill="#000000">int4[10]</text>
<polygon fill="none" stroke="#000000" points="277.5,-263.7 277.5,-285.7 344.5,-285.7 344.5,-263.7 277.5,-263.7"/>
<text text-anchor="start" x="278.5739" y="-270.8" font-family="Helvetica,sans-Serif" font-size="11.00" fill="#000000">伝票コメント</text>
<polygon fill="none" stroke="#000000" points="344.5,-263.7 344.5,-285.7 428.5,-285.7 428.5,-263.7 344.5,-263.7"/>
<text text-anchor="start" x="347.5" y="-271.4" font-family="Helvetica,sans-Serif" font-size="11.00" fill="#000000">varchar[1000]</text>
<polygon fill="none" stroke="#000000" points="277.5,-241.7 277.5,-263.7 344.5,-263.7 344.5,-241.7 277.5,-241.7"/>
<text text-anchor="start" x="294.6581" y="-248.8" font-family="Helvetica,sans-Serif" font-size="11.00" fill="#000000">作成日時</text>
<polygon fill="none" stroke="#000000" points="344.5,-241.7 344.5,-263.7 428.5,-263.7 428.5,-241.7 344.5,-241.7"/>
<text text-anchor="start" x="347.3807" y="-249.4" font-family="Helvetica,sans-Serif" font-size="11.00" fill="#000000">timestamp[29,6]</text>
<polygon fill="none" stroke="#000000" points="277.5,-219.7 277.5,-241.7 344.5,-241.7 344.5,-219.7 277.5,-219.7"/>
<text text-anchor="start" x="294.6581" y="-226.8" font-family="Helvetica,sans-Serif" font-size="11.00" fill="#000000">作成者名</text>
<polygon fill="none" stroke="#000000" points="344.5,-219.7 344.5,-241.7 428.5,-241.7 428.5,-219.7 344.5,-219.7"/>
<text text-anchor="start" x="347.5" y="-227.4" font-family="Helvetica,sans-Serif" font-size="11.00" fill="#000000">varchar[12]</text>
<polygon fill="none" stroke="#000000" points="277.5,-197.7 277.5,-219.7 344.5,-219.7 344.5,-197.7 277.5,-197.7"/>
<text text-anchor="start" x="297.5" y="-204.8" font-family="Helvetica,sans-Serif" font-size="11.00" fill="#000000">更新日時</text>
<polygon fill="none" stroke="#000000" points="344.5,-197.7 344.5,-219.7 428.5,-219.7 428.5,-197.7 344.5,-197.7"/>
<text text-anchor="start" x="347.3807" y="-205.4" font-family="Helvetica,sans-Serif" font-size="11.00" fill="#000000">timestamp[29,6]</text>
<polygon fill="none" stroke="#000000" points="277.5,-175.7 277.5,-197.7 344.5,-197.7 344.5,-175.7 277.5,-175.7"/>
<text text-anchor="start" x="297.5" y="-182.8" font-family="Helvetica,sans-Serif" font-size="11.00" fill="#000000">更新者名</text>
<polygon fill="none" stroke="#000000" points="344.5,-175.7 344.5,-197.7 428.5,-197.7 428.5,-175.7 344.5,-175.7"/>
<text text-anchor="start" x="347.5" y="-183.4" font-family="Helvetica,sans-Serif" font-size="11.00" fill="#000000">varchar[12]</text>
<polygon fill="#ffffff" stroke="transparent" points="277.5,-156.7 277.5,-175.7 428.5,-175.7 428.5,-156.7 277.5,-156.7"/>
<polygon fill="none" stroke="#000000" points="277.5,-156.7 277.5,-175.7 428.5,-175.7 428.5,-156.7 277.5,-156.7"/>
<polygon fill="#ffffff" stroke="transparent" points="278.5,-157.7 278.5,-174.7 331.5,-174.7 331.5,-157.7 278.5,-157.7"/>
<text text-anchor="start" x="280.5" y="-162.8" font-family="Helvetica,sans-Serif" font-size="11.00" fill="#000000">&lt; 5</text>
<polygon fill="#ffffff" stroke="transparent" points="331.5,-157.7 331.5,-174.7 375.5,-174.7 375.5,-157.7 331.5,-157.7"/>
<text text-anchor="start" x="350.4431" y="-162.8" font-family="Helvetica,sans-Serif" font-size="11.00" fill="#000000"> &#160;</text>
<polygon fill="#ffffff" stroke="transparent" points="375.5,-157.7 375.5,-174.7 427.5,-174.7 427.5,-157.7 375.5,-157.7"/>
<text text-anchor="start" x="409.9053" y="-162.8" font-family="Helvetica,sans-Serif" font-size="11.00" fill="#000000">2 &gt;</text>
<polygon fill="#000000" stroke="#000000" points="331.5,-157.7 331.5,-174.7 331.5,-174.7 331.5,-157.7 331.5,-157.7"/>
<polygon fill="#000000" stroke="#000000" points="375.5,-157.7 375.5,-174.7 375.5,-174.7 375.5,-157.7 375.5,-157.7"/>
<polygon fill="none" stroke="#000000" stroke-width="2" points="276,-155.7 276,-573.7 429,-573.7 429,-155.7 276,-155.7"/>
</a>
</g>
</g>
<!-- 社員マスタ -->
<g id="node2" class="node">
<title>社員マスタ</title>
<g id="a_node2"><a xlink:href="../../tables/______d3d8a641.html" xlink:title="社員マスタ" target="_top">
<polygon fill="#ffffff" stroke="transparent" points="141.5,-217.2 141.5,-322.2 219.5,-322.2 219.5,-217.2 141.5,-217.2"/>
<polygon fill="#f5f5f5" stroke="transparent" points="141.5,-298.7 141.5,-321.7 219.5,-321.7 219.5,-298.7 141.5,-298.7"/>
<polygon fill="none" stroke="#000000" points="141.5,-298.7 141.5,-321.7 219.5,-321.7 219.5,-298.7 141.5,-298.7"/>
<text text-anchor="start" x="137.7293" y="-307.3" font-family="Helvetica,sans-Serif" font-weight="bold" font-size="11.00" fill="#000000">社員マスタ</text>
<text text-anchor="start" x="185.0219" y="-306.8" font-family="Helvetica,sans-Serif" font-size="11.00" fill="#000000">[table]</text>
<polygon fill="none" stroke="#000000" points="141.5,-276.7 141.5,-298.7 219.5,-298.7 219.5,-276.7 141.5,-276.7"/>
<image xlink:href="../../images/primaryKeys.png" width="11px" height="12px" preserveAspectRatio="xMinYMin meet" x="146.5" y="-293.7"/>
<text text-anchor="start" x="158.8627" y="-283.8" font-family="Helvetica,sans-Serif" font-size="11.00" fill="#000000">社員コード</text>
<polygon fill="#ffffff" stroke="transparent" points="141.5,-254.7 141.5,-276.7 219.5,-276.7 219.5,-254.7 141.5,-254.7"/>
<polygon fill="none" stroke="#000000" points="141.5,-254.7 141.5,-276.7 219.5,-276.7 219.5,-254.7 141.5,-254.7"/>
<image xlink:href="../../images/foreignKeys.png" width="11px" height="12px" preserveAspectRatio="xMinYMin meet" x="146.5" y="-271.7"/>
<text text-anchor="start" x="151.5257" y="-261.8" font-family="Helvetica,sans-Serif" font-size="11.00" fill="#000000">部門コード</text>
<polygon fill="none" stroke="#000000" points="141.5,-235.7 141.5,-254.7 219.5,-254.7 219.5,-235.7 141.5,-235.7"/>
<text text-anchor="start" x="144.5" y="-241.8" font-family="Helvetica,sans-Serif" font-size="11.00" fill="#000000">...</text>
<polygon fill="#ffffff" stroke="transparent" points="141.5,-216.7 141.5,-235.7 219.5,-235.7 219.5,-216.7 141.5,-216.7"/>
<polygon fill="none" stroke="#000000" points="141.5,-216.7 141.5,-235.7 219.5,-235.7 219.5,-216.7 141.5,-216.7"/>
<polygon fill="#ffffff" stroke="transparent" points="142.5,-217.7 142.5,-234.7 171.5,-234.7 171.5,-217.7 142.5,-217.7"/>
<text text-anchor="start" x="144.5" y="-222.8" font-family="Helvetica,sans-Serif" font-size="11.00" fill="#000000">&lt; 1</text>
<polygon fill="#ffffff" stroke="transparent" points="171.5,-217.7 171.5,-234.7 190.5,-234.7 190.5,-217.7 171.5,-217.7"/>
<text text-anchor="start" x="177.9431" y="-222.8" font-family="Helvetica,sans-Serif" font-size="11.00" fill="#000000"> &#160;</text>
<polygon fill="#ffffff" stroke="transparent" points="190.5,-217.7 190.5,-234.7 218.5,-234.7 218.5,-217.7 190.5,-217.7"/>
<text text-anchor="start" x="200.9053" y="-222.8" font-family="Helvetica,sans-Serif" font-size="11.00" fill="#000000">1 &gt;</text>
<polygon fill="#000000" stroke="#000000" points="171.5,-217.7 171.5,-234.7 171.5,-234.7 171.5,-217.7 171.5,-217.7"/>
<polygon fill="#000000" stroke="#000000" points="190.5,-217.7 190.5,-234.7 190.5,-234.7 190.5,-217.7 190.5,-217.7"/>
</a>
</g>
</g>
<!-- 受注&#45;&gt;社員マスタ -->
<g id="edge1" class="edge">
<title>受注:w&#45;&gt;社員マスタ:e</title>
<path fill="none" stroke="#000000" d="M263.4326,-403.517C229.1882,-384.5927 272.5907,-287.7 219.5,-287.7"/>
<polygon fill="#000000" stroke="#000000" points="269.6972,-404.9345 276.7055,-410.2112 273.5986,-405.8172 277.5,-406.7 277.5,-406.7 277.5,-406.7 273.5986,-405.8172 278.2945,-403.1888 269.6972,-404.9345 269.6972,-404.9345"/>
<ellipse fill="none" stroke="#000000" cx="266.5761" cy="-404.2283" rx="3.2" ry="3.2"/>
</g>
<!-- 部門マスタ -->
<g id="node3" class="node">
<title>部門マスタ</title>
<g id="a_node3"><a xlink:href="../../tables/______3eb0dfec.html" xlink:title="部門マスタ" target="_top">
<polygon fill="#ffffff" stroke="transparent" points="8,-151.2 8,-300.2 86,-300.2 86,-151.2 8,-151.2"/>
<polygon fill="#f5f5f5" stroke="transparent" points="8,-276.7 8,-299.7 86,-299.7 86,-276.7 8,-276.7"/>
<polygon fill="none" stroke="#000000" points="8,-276.7 8,-299.7 86,-299.7 86,-276.7 8,-276.7"/>
<text text-anchor="start" x="-3.1077" y="-285.3" font-family="Helvetica,sans-Serif" font-weight="bold" font-size="11.00" fill="#000000">部門マスタ</text>
<text text-anchor="start" x="51.5219" y="-284.8" font-family="Helvetica,sans-Serif" font-size="11.00" fill="#000000">[table]</text>
<polygon fill="none" stroke="#000000" points="8,-254.7 8,-276.7 86,-276.7 86,-254.7 8,-254.7"/>
<image xlink:href="../../images/primaryKeys.png" width="11px" height="12px" preserveAspectRatio="xMinYMin meet" x="13" y="-271.7"/>
<text text-anchor="start" x="18.0257" y="-261.8" font-family="Helvetica,sans-Serif" font-size="11.00" fill="#000000">部門コード</text>
<polygon fill="none" stroke="#000000" points="8,-232.7 8,-254.7 86,-254.7 86,-232.7 8,-232.7"/>
<image xlink:href="../../images/primaryKeys.png" width="11px" height="12px" preserveAspectRatio="xMinYMin meet" x="13" y="-249.7"/>
<text text-anchor="start" x="34" y="-239.8" font-family="Helvetica,sans-Serif" font-size="11.00" fill="#000000">開始日</text>
<polygon fill="#ffffff" stroke="transparent" points="8,-210.7 8,-232.7 86,-232.7 86,-210.7 8,-210.7"/>
<polygon fill="none" stroke="#000000" points="8,-210.7 8,-232.7 86,-232.7 86,-210.7 8,-210.7"/>
<text text-anchor="start" x="34" y="-217.8" font-family="Helvetica,sans-Serif" font-size="11.00" fill="#000000">部門名</text>
<polygon fill="#ffffff" stroke="transparent" points="8,-188.7 8,-210.7 86,-210.7 86,-188.7 8,-188.7"/>
<polygon fill="none" stroke="#000000" points="8,-188.7 8,-210.7 86,-210.7 86,-188.7 8,-188.7"/>
<text text-anchor="start" x="28.3151" y="-195.8" font-family="Helvetica,sans-Serif" font-size="11.00" fill="#000000">部門パス</text>
<polygon fill="none" stroke="#000000" points="8,-169.7 8,-188.7 86,-188.7 86,-169.7 8,-169.7"/>
<text text-anchor="start" x="11" y="-175.8" font-family="Helvetica,sans-Serif" font-size="11.00" fill="#000000">...</text>
<polygon fill="#ffffff" stroke="transparent" points="8,-150.7 8,-169.7 86,-169.7 86,-150.7 8,-150.7"/>
<polygon fill="none" stroke="#000000" points="8,-150.7 8,-169.7 86,-169.7 86,-150.7 8,-150.7"/>
<polygon fill="#ffffff" stroke="transparent" points="9,-151.7 9,-168.7 32,-168.7 32,-151.7 9,-151.7"/>
<text text-anchor="start" x="11" y="-156.8" font-family="Helvetica,sans-Serif" font-size="11.00" fill="#000000"> &#160;</text>
<polygon fill="#ffffff" stroke="transparent" points="32,-151.7 32,-168.7 54,-168.7 54,-151.7 32,-151.7"/>
<text text-anchor="start" x="39.9431" y="-156.8" font-family="Helvetica,sans-Serif" font-size="11.00" fill="#000000"> &#160;</text>
<polygon fill="#ffffff" stroke="transparent" points="54,-151.7 54,-168.7 85,-168.7 85,-151.7 54,-151.7"/>
<text text-anchor="start" x="67.4053" y="-156.8" font-family="Helvetica,sans-Serif" font-size="11.00" fill="#000000">5 &gt;</text>
<polygon fill="#000000" stroke="#000000" points="32,-151.7 32,-168.7 32,-168.7 32,-151.7 32,-151.7"/>
<polygon fill="#000000" stroke="#000000" points="54,-151.7 54,-168.7 54,-168.7 54,-151.7 54,-151.7"/>
</a>
</g>
</g>
<!-- 受注&#45;&gt;部門マスタ -->
<g id="edge2" class="edge">
<title>受注:w&#45;&gt;部門マスタ:e</title>
<path fill="none" stroke="#000000" d="M263.0947,-495.1975C205.3389,-499.1466 173.2159,-524.2104 127,-482.7 53.9792,-417.1138 184.1508,-265.7 86,-265.7"/>
<polygon fill="#000000" stroke="#000000" points="269.5048,-494.9762 277.6243,-498.2979 273.5024,-494.8381 277.5,-494.7 277.5,-494.7 277.5,-494.7 273.5024,-494.8381 277.3757,-491.1021 269.5048,-494.9762 269.5048,-494.9762"/>
<ellipse fill="none" stroke="#000000" cx="266.3067" cy="-495.0866" rx="3.2" ry="3.2"/>
</g>
<!-- 受注&#45;&gt;部門マスタ -->
<g id="edge3" class="edge">
<title>受注:w&#45;&gt;部門マスタ:e</title>
<path fill="none" stroke="#000000" d="M263.077,-473.1712C205.2456,-476.9071 173.0289,-500.523 127,-458.7 55.0037,-393.2825 183.2775,-243.7 86,-243.7"/>
<polygon fill="#000000" stroke="#000000" points="269.5043,-472.9613 277.6176,-476.2981 273.5021,-472.8306 277.5,-472.7 277.5,-472.7 277.5,-472.7 273.5021,-472.8306 277.3824,-469.1019 269.5043,-472.9613 269.5043,-472.9613"/>
<ellipse fill="none" stroke="#000000" cx="266.306" cy="-473.0658" rx="3.2" ry="3.2"/>
</g>
<!-- 顧客マスタ -->
<g id="node4" class="node">
<title>顧客マスタ</title>
<g id="a_node4"><a xlink:href="../../tables/______8e04fe89.html" xlink:title="顧客マスタ" target="_top">
<polygon fill="#ffffff" stroke="transparent" points="135,-343.2 135,-448.2 226,-448.2 226,-343.2 135,-343.2"/>
<polygon fill="#f5f5f5" stroke="transparent" points="135.5,-424.7 135.5,-447.7 226.5,-447.7 226.5,-424.7 135.5,-424.7"/>
<polygon fill="none" stroke="#000000" points="135.5,-424.7 135.5,-447.7 226.5,-447.7 226.5,-424.7 135.5,-424.7"/>
<text text-anchor="start" x="124.0892" y="-433.3" font-family="Helvetica,sans-Serif" font-weight="bold" font-size="11.00" fill="#000000">顧客マスタ</text>
<text text-anchor="start" x="191.5437" y="-432.8" font-family="Helvetica,sans-Serif" font-size="11.00" fill="#000000">[table]</text>
<polygon fill="none" stroke="#000000" points="135.5,-402.7 135.5,-424.7 226.5,-424.7 226.5,-402.7 135.5,-402.7"/>
<image xlink:href="../../images/primaryKeys.png" width="11px" height="12px" preserveAspectRatio="xMinYMin meet" x="140.5" y="-419.7"/>
<text text-anchor="start" x="151.2226" y="-409.8" font-family="Helvetica,sans-Serif" font-size="11.00" fill="#000000">顧客コード</text>
<polygon fill="none" stroke="#000000" points="135.5,-380.7 135.5,-402.7 226.5,-402.7 226.5,-380.7 135.5,-380.7"/>
<image xlink:href="../../images/primaryKeys.png" width="11px" height="12px" preserveAspectRatio="xMinYMin meet" x="140.5" y="-397.7"/>
<text text-anchor="start" x="155.5" y="-387.8" font-family="Helvetica,sans-Serif" font-size="11.00" fill="#000000">顧客枝番</text>
<polygon fill="none" stroke="#000000" points="135.5,-361.7 135.5,-380.7 226.5,-380.7 226.5,-361.7 135.5,-361.7"/>
<text text-anchor="start" x="138.5" y="-367.8" font-family="Helvetica,sans-Serif" font-size="11.00" fill="#000000">...</text>
<polygon fill="#ffffff" stroke="transparent" points="135.5,-342.7 135.5,-361.7 226.5,-361.7 226.5,-342.7 135.5,-342.7"/>
<polygon fill="none" stroke="#000000" points="135.5,-342.7 135.5,-361.7 226.5,-361.7 226.5,-342.7 135.5,-342.7"/>
<polygon fill="#ffffff" stroke="transparent" points="136.5,-343.7 136.5,-360.7 169.5,-360.7 169.5,-343.7 136.5,-343.7"/>
<text text-anchor="start" x="138.5" y="-348.8" font-family="Helvetica,sans-Serif" font-size="11.00" fill="#000000">&lt; 1</text>
<polygon fill="#ffffff" stroke="transparent" points="169.5,-343.7 169.5,-360.7 193.5,-360.7 193.5,-343.7 169.5,-343.7"/>
<text text-anchor="start" x="178.4431" y="-348.8" font-family="Helvetica,sans-Serif" font-size="11.00" fill="#000000"> &#160;</text>
<polygon fill="#ffffff" stroke="transparent" points="193.5,-343.7 193.5,-360.7 225.5,-360.7 225.5,-343.7 193.5,-343.7"/>
<text text-anchor="start" x="207.9053" y="-348.8" font-family="Helvetica,sans-Serif" font-size="11.00" fill="#000000">2 &gt;</text>
<polygon fill="#000000" stroke="#000000" points="169.5,-343.7 169.5,-360.7 169.5,-360.7 169.5,-343.7 169.5,-343.7"/>
<polygon fill="#000000" stroke="#000000" points="193.5,-343.7 193.5,-360.7 193.5,-360.7 193.5,-343.7 193.5,-343.7"/>
</a>
</g>
</g>
<!-- 受注&#45;&gt;顧客マスタ -->
<g id="edge4" class="edge">
<title>受注:w&#45;&gt;顧客マスタ:e</title>
<path fill="none" stroke="#000000" d="M263.5658,-446.4556C250.14,-436.7369 248.5965,-413.7 226.5,-413.7"/>
<polygon fill="#000000" stroke="#000000" points="269.8471,-448.3689 276.451,-454.1438 273.6736,-449.5345 277.5,-450.7 277.5,-450.7 277.5,-450.7 273.6736,-449.5345 278.549,-447.2562 269.8471,-448.3689 269.8471,-448.3689"/>
<ellipse fill="none" stroke="#000000" cx="266.786" cy="-447.4365" rx="3.2" ry="3.2"/>
</g>
<!-- 受注&#45;&gt;顧客マスタ -->
<g id="edge5" class="edge">
<title>受注:w&#45;&gt;顧客マスタ:e</title>
<path fill="none" stroke="#000000" d="M263.5658,-424.4556C250.14,-414.7369 248.5965,-391.7 226.5,-391.7"/>
<polygon fill="#000000" stroke="#000000" points="269.8471,-426.3689 276.451,-432.1438 273.6736,-427.5345 277.5,-428.7 277.5,-428.7 277.5,-428.7 273.6736,-427.5345 278.549,-425.2562 269.8471,-426.3689 269.8471,-426.3689"/>
<ellipse fill="none" stroke="#000000" cx="266.786" cy="-425.4365" rx="3.2" ry="3.2"/>
</g>
<!-- 社員マスタ&#45;&gt;部門マスタ -->
<g id="edge10" class="edge">
<title>社員マスタ:w&#45;&gt;部門マスタ:e</title>
<path fill="none" stroke="#000000" d="M126.7286,-265.7C112.9265,-265.7 104.8854,-265.7 86,-265.7"/>
<polygon fill="#000000" stroke="#000000" points="133.5,-265.7001 141.5,-269.3 137.5,-265.7 141.5,-265.7 141.5,-265.7 141.5,-265.7 137.5,-265.7 141.5,-262.1 133.5,-265.7001 133.5,-265.7001"/>
<ellipse fill="none" stroke="#000000" cx="130.3" cy="-265.7001" rx="3.2" ry="3.2"/>
</g>
<!-- 受注明細 -->
<g id="node5" class="node">
<title>受注明細</title>
<g id="a_node5"><a xlink:href="../../tables/_____27c23493.html" xlink:title="受注明細" target="_top">
<polygon fill="#ffffff" stroke="transparent" points="479,-446.2 479,-573.2 549,-573.2 549,-446.2 479,-446.2"/>
<polygon fill="#f5f5f5" stroke="transparent" points="479,-549.7 479,-572.7 549,-572.7 549,-549.7 479,-549.7"/>
<polygon fill="none" stroke="#000000" points="479,-549.7 479,-572.7 549,-572.7 549,-549.7 479,-549.7"/>
<text text-anchor="start" x="476.1006" y="-558.3" font-family="Helvetica,sans-Serif" font-weight="bold" font-size="11.00" fill="#000000">受注明細</text>
<text text-anchor="start" x="514.5219" y="-557.8" font-family="Helvetica,sans-Serif" font-size="11.00" fill="#000000">[table]</text>
<polygon fill="none" stroke="#000000" points="479,-527.7 479,-549.7 549,-549.7 549,-527.7 479,-527.7"/>
<image xlink:href="../../images/primaryKeys.png" width="11px" height="12px" preserveAspectRatio="xMinYMin meet" x="484" y="-544.7"/>
<text text-anchor="start" x="499.9021" y="-534.8" font-family="Helvetica,sans-Serif" font-size="11.00" fill="#000000">受注番号</text>
<polygon fill="none" stroke="#000000" points="479,-505.7 479,-527.7 549,-527.7 549,-505.7 479,-505.7"/>
<image xlink:href="../../images/primaryKeys.png" width="11px" height="12px" preserveAspectRatio="xMinYMin meet" x="484" y="-522.7"/>
<text text-anchor="start" x="501" y="-512.8" font-family="Helvetica,sans-Serif" font-size="11.00" fill="#000000">明細番号</text>
<polygon fill="#ffffff" stroke="transparent" points="479,-483.7 479,-505.7 549,-505.7 549,-483.7 479,-483.7"/>
<polygon fill="none" stroke="#000000" points="479,-483.7 479,-505.7 549,-505.7 549,-483.7 479,-483.7"/>
<image xlink:href="../../images/foreignKeys.png" width="11px" height="12px" preserveAspectRatio="xMinYMin meet" x="484" y="-500.7"/>
<text text-anchor="start" x="492.0547" y="-490.8" font-family="Helvetica,sans-Serif" font-size="11.00" fill="#000000">商品コード</text>
<polygon fill="none" stroke="#000000" points="479,-464.7 479,-483.7 549,-483.7 549,-464.7 479,-464.7"/>
<text text-anchor="start" x="482" y="-470.8" font-family="Helvetica,sans-Serif" font-size="11.00" fill="#000000">...</text>
<polygon fill="#ffffff" stroke="transparent" points="479,-445.7 479,-464.7 549,-464.7 549,-445.7 479,-445.7"/>
<polygon fill="none" stroke="#000000" points="479,-445.7 479,-464.7 549,-464.7 549,-445.7 479,-445.7"/>
<polygon fill="#ffffff" stroke="transparent" points="480,-446.7 480,-463.7 509,-463.7 509,-446.7 480,-446.7"/>
<text text-anchor="start" x="482" y="-451.8" font-family="Helvetica,sans-Serif" font-size="11.00" fill="#000000">&lt; 2</text>
<polygon fill="#ffffff" stroke="transparent" points="509,-446.7 509,-463.7 529,-463.7 529,-446.7 509,-446.7"/>
<text text-anchor="start" x="515.9431" y="-451.8" font-family="Helvetica,sans-Serif" font-size="11.00" fill="#000000"> &#160;</text>
<polygon fill="#ffffff" stroke="transparent" points="529,-446.7 529,-463.7 548,-463.7 548,-446.7 529,-446.7"/>
<text text-anchor="start" x="539.8862" y="-451.8" font-family="Helvetica,sans-Serif" font-size="11.00" fill="#000000"> &#160;</text>
<polygon fill="#000000" stroke="#000000" points="509,-446.7 509,-463.7 509,-463.7 509,-446.7 509,-446.7"/>
<polygon fill="#000000" stroke="#000000" points="529,-446.7 529,-463.7 529,-463.7 529,-446.7 529,-446.7"/>
</a>
</g>
</g>
<!-- 受注明細&#45;&gt;受注 -->
<g id="edge6" class="edge">
<title>受注明細:w&#45;&gt;受注:e</title>
<path fill="none" stroke="#000000" d="M464.4203,-538.7C452.5435,-538.7 445.158,-538.7 428.5,-538.7"/>
<polygon fill="#000000" stroke="#000000" points="471,-538.7001 479,-542.3 475,-538.7 479,-538.7 479,-538.7 479,-538.7 475,-538.7 479,-535.1 471,-538.7001 471,-538.7001"/>
<ellipse fill="none" stroke="#000000" cx="467.8" cy="-538.7001" rx="3.2" ry="3.2"/>
</g>
<!-- 売上 -->
<g id="node6" class="node">
<title>売上</title>
<g id="a_node6"><a xlink:href="../../tables/___b1358.html" xlink:title="売上" target="_top">
<polygon fill="#ffffff" stroke="transparent" points="480.5,-38.2 480.5,-231.2 547.5,-231.2 547.5,-38.2 480.5,-38.2"/>
<polygon fill="#f5f5f5" stroke="transparent" points="481,-207.7 481,-230.7 548,-230.7 548,-207.7 481,-207.7"/>
<polygon fill="none" stroke="#000000" points="481,-207.7 481,-230.7 548,-230.7 548,-207.7 481,-207.7"/>
<text text-anchor="start" x="479.5793" y="-216.3" font-family="Helvetica,sans-Serif" font-weight="bold" font-size="11.00" fill="#000000">売上</text>
<text text-anchor="start" x="513.0437" y="-215.8" font-family="Helvetica,sans-Serif" font-size="11.00" fill="#000000">[table]</text>
<polygon fill="none" stroke="#000000" points="481,-185.7 481,-207.7 548,-207.7 548,-185.7 481,-185.7"/>
<image xlink:href="../../images/primaryKeys.png" width="11px" height="12px" preserveAspectRatio="xMinYMin meet" x="486" y="-202.7"/>
<text text-anchor="start" x="500.2101" y="-192.8" font-family="Helvetica,sans-Serif" font-size="11.00" fill="#000000">売上番号</text>
<polygon fill="#ffffff" stroke="transparent" points="481,-163.7 481,-185.7 548,-185.7 548,-163.7 481,-163.7"/>
<polygon fill="none" stroke="#000000" points="481,-163.7 481,-185.7 548,-185.7 548,-163.7 481,-163.7"/>
<text text-anchor="start" x="501" y="-170.8" font-family="Helvetica,sans-Serif" font-size="11.00" fill="#000000">売上日</text>
<polygon fill="#ffffff" stroke="transparent" points="481,-141.7 481,-163.7 548,-163.7 548,-141.7 481,-141.7"/>
<polygon fill="none" stroke="#000000" points="481,-141.7 481,-163.7 548,-163.7 548,-141.7 481,-141.7"/>
<image xlink:href="../../images/foreignKeys.png" width="11px" height="12px" preserveAspectRatio="xMinYMin meet" x="486" y="-158.7"/>
<text text-anchor="start" x="499.9021" y="-148.8" font-family="Helvetica,sans-Serif" font-size="11.00" fill="#000000">受注番号</text>
<polygon fill="#ffffff" stroke="transparent" points="481,-119.7 481,-141.7 548,-141.7 548,-119.7 481,-119.7"/>
<polygon fill="none" stroke="#000000" points="481,-119.7 481,-141.7 548,-141.7 548,-119.7 481,-119.7"/>
<image xlink:href="../../images/foreignKeys.png" width="11px" height="12px" preserveAspectRatio="xMinYMin meet" x="486" y="-136.7"/>
<text text-anchor="start" x="485.0257" y="-126.8" font-family="Helvetica,sans-Serif" font-size="11.00" fill="#000000">部門コード</text>
<polygon fill="#ffffff" stroke="transparent" points="481,-97.7 481,-119.7 548,-119.7 548,-97.7 481,-97.7"/>
<polygon fill="none" stroke="#000000" points="481,-97.7 481,-119.7 548,-119.7 548,-97.7 481,-97.7"/>
<image xlink:href="../../images/foreignKeys.png" width="11px" height="12px" preserveAspectRatio="xMinYMin meet" x="486" y="-114.7"/>
<text text-anchor="start" x="501" y="-104.8" font-family="Helvetica,sans-Serif" font-size="11.00" fill="#000000">開始日</text>
<polygon fill="#ffffff" stroke="transparent" points="481,-75.7 481,-97.7 548,-97.7 548,-75.7 481,-75.7"/>
<polygon fill="none" stroke="#000000" points="481,-75.7 481,-97.7 548,-97.7 548,-75.7 481,-75.7"/>
<image xlink:href="../../images/foreignKeys.png" width="11px" height="12px" preserveAspectRatio="xMinYMin meet" x="486" y="-92.7"/>
<text text-anchor="start" x="483.4978" y="-82.8" font-family="Helvetica,sans-Serif" font-size="11.00" fill="#000000">取引先コード</text>
<polygon fill="none" stroke="#000000" points="481,-56.7 481,-75.7 548,-75.7 548,-56.7 481,-56.7"/>
<text text-anchor="start" x="484" y="-62.8" font-family="Helvetica,sans-Serif" font-size="11.00" fill="#000000">...</text>
<polygon fill="#ffffff" stroke="transparent" points="481,-37.7 481,-56.7 548,-56.7 548,-37.7 481,-37.7"/>
<polygon fill="none" stroke="#000000" points="481,-37.7 481,-56.7 548,-56.7 548,-37.7 481,-37.7"/>
<polygon fill="#ffffff" stroke="transparent" points="482,-38.7 482,-55.7 507,-55.7 507,-38.7 482,-38.7"/>
<text text-anchor="start" x="484" y="-43.8" font-family="Helvetica,sans-Serif" font-size="11.00" fill="#000000">&lt; 4</text>
<polygon fill="#ffffff" stroke="transparent" points="507,-38.7 507,-55.7 523,-55.7 523,-38.7 507,-38.7"/>
<text text-anchor="start" x="511.9431" y="-43.8" font-family="Helvetica,sans-Serif" font-size="11.00" fill="#000000"> &#160;</text>
<polygon fill="#ffffff" stroke="transparent" points="523,-38.7 523,-55.7 547,-55.7 547,-38.7 523,-38.7"/>
<text text-anchor="start" x="529.4053" y="-43.8" font-family="Helvetica,sans-Serif" font-size="11.00" fill="#000000">1 &gt;</text>
<polygon fill="#000000" stroke="#000000" points="507,-38.7 507,-55.7 507,-55.7 507,-38.7 507,-38.7"/>
<polygon fill="#000000" stroke="#000000" points="523,-38.7 523,-55.7 523,-55.7 523,-38.7 523,-38.7"/>
</a>
</g>
</g>
<!-- 売上&#45;&gt;受注 -->
<g id="edge7" class="edge">
<title>売上:w&#45;&gt;受注:e</title>
<path fill="none" stroke="#000000" d="M467.0956,-157.035C408.7025,-199.4422 509.6571,-538.7 428.5,-538.7"/>
<polygon fill="#000000" stroke="#000000" points="473.3626,-155.0811 482.0715,-156.1368 477.1813,-153.8906 481,-152.7 481,-152.7 481,-152.7 477.1813,-153.8906 479.9285,-149.2632 473.3626,-155.0811 473.3626,-155.0811"/>
<ellipse fill="none" stroke="#000000" cx="470.3076" cy="-156.0336" rx="3.2" ry="3.2"/>
</g>
<!-- 売上&#45;&gt;部門マスタ -->
<g id="edge8" class="edge">
<title>売上:w&#45;&gt;部門マスタ:e</title>
<path fill="none" stroke="#000000" d="M466.4783,-130.6328C382.7451,-129.8638 354.6763,-123.1407 267,-144.7 200.9177,-160.9494 179.4755,-163.3729 127,-206.7 102.3765,-227.0307 117.932,-265.7 86,-265.7"/>
<polygon fill="#000000" stroke="#000000" points="473.0001,-130.6629 480.9833,-134.3 477,-130.6815 481,-130.7 481,-130.7 481,-130.7 477,-130.6815 481.0167,-127.1 473.0001,-130.6629 473.0001,-130.6629"/>
<ellipse fill="none" stroke="#000000" cx="469.8001" cy="-130.6481" rx="3.2" ry="3.2"/>
</g>
<!-- 売上&#45;&gt;部門マスタ -->
<g id="edge9" class="edge">
<title>売上:w&#45;&gt;部門マスタ:e</title>
<path fill="none" stroke="#000000" d="M466.4033,-108.5404C318.1285,-105.3078 247.775,-55.0646 127,-149.7 91.1231,-177.812 131.5789,-243.7 86,-243.7"/>
<polygon fill="#000000" stroke="#000000" points="473.0005,-108.6125 480.9606,-112.2998 477.0002,-108.6562 481,-108.7 481,-108.7 481,-108.7 477.0002,-108.6562 481.0394,-105.1002 473.0005,-108.6125 473.0005,-108.6125"/>
<ellipse fill="none" stroke="#000000" cx="469.8007" cy="-108.5774" rx="3.2" ry="3.2"/>
</g>
</g>
</svg>
