<?xml version="1.0" encoding="UTF-8" standalone="no"?>
<!DOCTYPE svg PUBLIC "-//W3C//DTD SVG 1.1//EN"
 "http://www.w3.org/Graphics/SVG/1.1/DTD/svg11.dtd">
<!-- Generated by graphviz version 2.40.1 (20161225.0304)
 -->
<!-- Title: twoDegreesRelationshipsDiagramImplied Pages: 1 -->
<svg width="691pt" height="683pt"
 viewBox="0.00 0.00 691.00 683.20" xmlns="http://www.w3.org/2000/svg" xmlns:xlink="http://www.w3.org/1999/xlink">
<g id="graph0" class="graph" transform="scale(1 1) rotate(0) translate(4 679.2)">
<title>twoDegreesRelationshipsDiagramImplied</title>
<polygon fill="#ffffff" stroke="transparent" points="-4,4 -4,-679.2 687,-679.2 687,4 -4,4"/>
<text text-anchor="middle" x="72.4936" y="-7.3" font-family="Helvetica,sans-Serif" font-size="11.00" fill="#000000">Generated by SchemaSpy</text>
<!-- 受注 -->
<g id="node1" class="node">
<title>受注</title>
<g id="a_node1"><a xlink:href="../../tables/___a93f1.html" xlink:title="受注" target="_top">
<polygon fill="#ffffff" stroke="transparent" points="282,-115.7 282,-535.7 437,-535.7 437,-115.7 282,-115.7"/>
<polygon fill="#f5f5f5" stroke="transparent" points="284.5,-510.7 284.5,-533.7 435.5,-533.7 435.5,-510.7 284.5,-510.7"/>
<polygon fill="none" stroke="#000000" points="284.5,-510.7 284.5,-533.7 435.5,-533.7 435.5,-510.7 284.5,-510.7"/>
<text text-anchor="start" x="282.7713" y="-519.3" font-family="Helvetica,sans-Serif" font-weight="bold" font-size="11.00" fill="#000000">受注</text>
<text text-anchor="start" x="400.5437" y="-518.8" font-family="Helvetica,sans-Serif" font-size="11.00" fill="#000000">[table]</text>
<polygon fill="none" stroke="#000000" points="284.5,-488.7 284.5,-510.7 351.5,-510.7 351.5,-488.7 284.5,-488.7"/>
<image xlink:href="../../images/primaryKeys.png" width="11px" height="12px" preserveAspectRatio="xMinYMin meet" x="289.5" y="-505.7"/>
<text text-anchor="start" x="303.4021" y="-495.8" font-family="Helvetica,sans-Serif" font-size="11.00" fill="#000000">受注番号</text>
<polygon fill="none" stroke="#000000" points="351.5,-488.7 351.5,-510.7 435.5,-510.7 435.5,-488.7 351.5,-488.7"/>
<text text-anchor="start" x="354.5" y="-496.4" font-family="Helvetica,sans-Serif" font-size="11.00" fill="#000000">varchar[20]</text>
<polygon fill="#ffffff" stroke="transparent" points="284.5,-466.7 284.5,-488.7 351.5,-488.7 351.5,-466.7 284.5,-466.7"/>
<polygon fill="none" stroke="#000000" points="284.5,-466.7 284.5,-488.7 351.5,-488.7 351.5,-466.7 284.5,-466.7"/>
<text text-anchor="start" x="304.5" y="-473.8" font-family="Helvetica,sans-Serif" font-size="11.00" fill="#000000">受注日</text>
<polygon fill="none" stroke="#000000" points="351.5,-466.7 351.5,-488.7 435.5,-488.7 435.5,-466.7 351.5,-466.7"/>
<text text-anchor="start" x="354.3807" y="-474.4" font-family="Helvetica,sans-Serif" font-size="11.00" fill="#000000">timestamp[29,6]</text>
<polygon fill="none" stroke="#000000" points="284.5,-444.7 284.5,-466.7 351.5,-466.7 351.5,-444.7 284.5,-444.7"/>
<image xlink:href="../../images/foreignKeys.png" width="11px" height="12px" preserveAspectRatio="xMinYMin meet" x="289.5" y="-461.7"/>
<text text-anchor="start" x="288.5257" y="-451.8" font-family="Helvetica,sans-Serif" font-size="11.00" fill="#000000">部門コード</text>
<polygon fill="none" stroke="#000000" points="351.5,-444.7 351.5,-466.7 435.5,-466.7 435.5,-444.7 351.5,-444.7"/>
<text text-anchor="start" x="354.5" y="-452.4" font-family="Helvetica,sans-Serif" font-size="11.00" fill="#000000">varchar[6]</text>
<polygon fill="none" stroke="#000000" points="284.5,-422.7 284.5,-444.7 351.5,-444.7 351.5,-422.7 284.5,-422.7"/>
<image xlink:href="../../images/foreignKeys.png" width="11px" height="12px" preserveAspectRatio="xMinYMin meet" x="289.5" y="-439.7"/>
<text text-anchor="start" x="304.5" y="-429.8" font-family="Helvetica,sans-Serif" font-size="11.00" fill="#000000">開始日</text>
<polygon fill="none" stroke="#000000" points="351.5,-422.7 351.5,-444.7 435.5,-444.7 435.5,-422.7 351.5,-422.7"/>
<text text-anchor="start" x="354.3807" y="-430.4" font-family="Helvetica,sans-Serif" font-size="11.00" fill="#000000">timestamp[29,6]</text>
<polygon fill="#ffffff" stroke="transparent" points="284.5,-400.7 284.5,-422.7 351.5,-422.7 351.5,-400.7 284.5,-400.7"/>
<polygon fill="none" stroke="#000000" points="284.5,-400.7 284.5,-422.7 351.5,-422.7 351.5,-400.7 284.5,-400.7"/>
<image xlink:href="../../images/foreignKeys.png" width="11px" height="12px" preserveAspectRatio="xMinYMin meet" x="289.5" y="-417.7"/>
<text text-anchor="start" x="288.2227" y="-407.8" font-family="Helvetica,sans-Serif" font-size="11.00" fill="#000000">顧客コード</text>
<polygon fill="none" stroke="#000000" points="351.5,-400.7 351.5,-422.7 435.5,-422.7 435.5,-400.7 351.5,-400.7"/>
<text text-anchor="start" x="354.5" y="-408.4" font-family="Helvetica,sans-Serif" font-size="11.00" fill="#000000">varchar[8]</text>
<polygon fill="#ffffff" stroke="transparent" points="284.5,-378.7 284.5,-400.7 351.5,-400.7 351.5,-378.7 284.5,-378.7"/>
<polygon fill="none" stroke="#000000" points="284.5,-378.7 284.5,-400.7 351.5,-400.7 351.5,-378.7 284.5,-378.7"/>
<image xlink:href="../../images/foreignKeys.png" width="11px" height="12px" preserveAspectRatio="xMinYMin meet" x="289.5" y="-395.7"/>
<text text-anchor="start" x="299.5241" y="-385.8" font-family="Helvetica,sans-Serif" font-size="11.00" fill="#000000">顧客枝番</text>
<polygon fill="none" stroke="#000000" points="351.5,-378.7 351.5,-400.7 435.5,-400.7 435.5,-378.7 351.5,-378.7"/>
<text text-anchor="start" x="354.5" y="-386.4" font-family="Helvetica,sans-Serif" font-size="11.00" fill="#000000">int4[10]</text>
<polygon fill="#ffffff" stroke="transparent" points="284.5,-356.7 284.5,-378.7 351.5,-378.7 351.5,-356.7 284.5,-356.7"/>
<polygon fill="none" stroke="#000000" points="284.5,-356.7 284.5,-378.7 351.5,-378.7 351.5,-356.7 284.5,-356.7"/>
<image xlink:href="../../images/foreignKeys.png" width="11px" height="12px" preserveAspectRatio="xMinYMin meet" x="289.5" y="-373.7"/>
<text text-anchor="start" x="295.8627" y="-363.8" font-family="Helvetica,sans-Serif" font-size="11.00" fill="#000000">社員コード</text>
<polygon fill="none" stroke="#000000" points="351.5,-356.7 351.5,-378.7 435.5,-378.7 435.5,-356.7 351.5,-356.7"/>
<text text-anchor="start" x="354.5" y="-364.4" font-family="Helvetica,sans-Serif" font-size="11.00" fill="#000000">varchar[10]</text>
<polygon fill="none" stroke="#000000" points="284.5,-334.7 284.5,-356.7 351.5,-356.7 351.5,-334.7 284.5,-334.7"/>
<text text-anchor="start" x="304.5" y="-341.8" font-family="Helvetica,sans-Serif" font-size="11.00" fill="#000000">納期</text>
<polygon fill="none" stroke="#000000" points="351.5,-334.7 351.5,-356.7 435.5,-356.7 435.5,-334.7 351.5,-334.7"/>
<text text-anchor="start" x="354.3807" y="-342.4" font-family="Helvetica,sans-Serif" font-size="11.00" fill="#000000">timestamp[29,6]</text>
<polygon fill="none" stroke="#000000" points="284.5,-312.7 284.5,-334.7 351.5,-334.7 351.5,-312.7 284.5,-312.7"/>
<text text-anchor="start" x="286.8994" y="-319.8" font-family="Helvetica,sans-Serif" font-size="11.00" fill="#000000">顧客注文番号</text>
<polygon fill="none" stroke="#000000" points="351.5,-312.7 351.5,-334.7 435.5,-334.7 435.5,-312.7 351.5,-312.7"/>
<text text-anchor="start" x="354.5" y="-320.4" font-family="Helvetica,sans-Serif" font-size="11.00" fill="#000000">varchar[20]</text>
<polygon fill="none" stroke="#000000" points="284.5,-290.7 284.5,-312.7 351.5,-312.7 351.5,-290.7 284.5,-290.7"/>
<image xlink:href="../../images/foreignKeys.png" width="11px" height="12px" preserveAspectRatio="xMinYMin meet" x="289.5" y="-307.7"/>
<text text-anchor="start" x="293.7232" y="-297.8" font-family="Helvetica,sans-Serif" font-size="11.00" fill="#000000">倉庫コード</text>
<polygon fill="none" stroke="#000000" points="351.5,-290.7 351.5,-312.7 435.5,-312.7 435.5,-290.7 351.5,-290.7"/>
<text text-anchor="start" x="354.5" y="-298.4" font-family="Helvetica,sans-Serif" font-size="11.00" fill="#000000">varchar[3]</text>
<polygon fill="none" stroke="#000000" points="284.5,-268.7 284.5,-290.7 351.5,-290.7 351.5,-268.7 284.5,-268.7"/>
<text text-anchor="start" x="298.2981" y="-275.8" font-family="Helvetica,sans-Serif" font-size="11.00" fill="#000000">受注金額</text>
<polygon fill="none" stroke="#000000" points="351.5,-268.7 351.5,-290.7 435.5,-290.7 435.5,-268.7 351.5,-268.7"/>
<text text-anchor="start" x="354.5" y="-276.4" font-family="Helvetica,sans-Serif" font-size="11.00" fill="#000000">int4[10]</text>
<polygon fill="none" stroke="#000000" points="284.5,-246.7 284.5,-268.7 351.5,-268.7 351.5,-246.7 284.5,-246.7"/>
<text text-anchor="start" x="304.2034" y="-253.8" font-family="Helvetica,sans-Serif" font-size="11.00" fill="#000000">消費税</text>
<polygon fill="none" stroke="#000000" points="351.5,-246.7 351.5,-268.7 435.5,-268.7 435.5,-246.7 351.5,-246.7"/>
<text text-anchor="start" x="354.5" y="-254.4" font-family="Helvetica,sans-Serif" font-size="11.00" fill="#000000">int4[10]</text>
<polygon fill="none" stroke="#000000" points="284.5,-224.7 284.5,-246.7 351.5,-246.7 351.5,-224.7 284.5,-224.7"/>
<text text-anchor="start" x="285.5739" y="-231.8" font-family="Helvetica,sans-Serif" font-size="11.00" fill="#000000">伝票コメント</text>
<polygon fill="none" stroke="#000000" points="351.5,-224.7 351.5,-246.7 435.5,-246.7 435.5,-224.7 351.5,-224.7"/>
<text text-anchor="start" x="354.5" y="-232.4" font-family="Helvetica,sans-Serif" font-size="11.00" fill="#000000">varchar[1000]</text>
<polygon fill="none" stroke="#000000" points="284.5,-202.7 284.5,-224.7 351.5,-224.7 351.5,-202.7 284.5,-202.7"/>
<text text-anchor="start" x="301.6581" y="-209.8" font-family="Helvetica,sans-Serif" font-size="11.00" fill="#000000">作成日時</text>
<polygon fill="none" stroke="#000000" points="351.5,-202.7 351.5,-224.7 435.5,-224.7 435.5,-202.7 351.5,-202.7"/>
<text text-anchor="start" x="354.3807" y="-210.4" font-family="Helvetica,sans-Serif" font-size="11.00" fill="#000000">timestamp[29,6]</text>
<polygon fill="none" stroke="#000000" points="284.5,-180.7 284.5,-202.7 351.5,-202.7 351.5,-180.7 284.5,-180.7"/>
<text text-anchor="start" x="301.6581" y="-187.8" font-family="Helvetica,sans-Serif" font-size="11.00" fill="#000000">作成者名</text>
<polygon fill="none" stroke="#000000" points="351.5,-180.7 351.5,-202.7 435.5,-202.7 435.5,-180.7 351.5,-180.7"/>
<text text-anchor="start" x="354.5" y="-188.4" font-family="Helvetica,sans-Serif" font-size="11.00" fill="#000000">varchar[12]</text>
<polygon fill="none" stroke="#000000" points="284.5,-158.7 284.5,-180.7 351.5,-180.7 351.5,-158.7 284.5,-158.7"/>
<text text-anchor="start" x="304.5" y="-165.8" font-family="Helvetica,sans-Serif" font-size="11.00" fill="#000000">更新日時</text>
<polygon fill="none" stroke="#000000" points="351.5,-158.7 351.5,-180.7 435.5,-180.7 435.5,-158.7 351.5,-158.7"/>
<text text-anchor="start" x="354.3807" y="-166.4" font-family="Helvetica,sans-Serif" font-size="11.00" fill="#000000">timestamp[29,6]</text>
<polygon fill="none" stroke="#000000" points="284.5,-136.7 284.5,-158.7 351.5,-158.7 351.5,-136.7 284.5,-136.7"/>
<text text-anchor="start" x="304.5" y="-143.8" font-family="Helvetica,sans-Serif" font-size="11.00" fill="#000000">更新者名</text>
<polygon fill="none" stroke="#000000" points="351.5,-136.7 351.5,-158.7 435.5,-158.7 435.5,-136.7 351.5,-136.7"/>
<text text-anchor="start" x="354.5" y="-144.4" font-family="Helvetica,sans-Serif" font-size="11.00" fill="#000000">varchar[12]</text>
<polygon fill="#ffffff" stroke="transparent" points="284.5,-117.7 284.5,-136.7 435.5,-136.7 435.5,-117.7 284.5,-117.7"/>
<polygon fill="none" stroke="#000000" points="284.5,-117.7 284.5,-136.7 435.5,-136.7 435.5,-117.7 284.5,-117.7"/>
<polygon fill="#ffffff" stroke="transparent" points="285.5,-118.7 285.5,-135.7 338.5,-135.7 338.5,-118.7 285.5,-118.7"/>
<text text-anchor="start" x="287.5" y="-123.8" font-family="Helvetica,sans-Serif" font-size="11.00" fill="#000000">&lt; 6</text>
<polygon fill="#ffffff" stroke="transparent" points="338.5,-118.7 338.5,-135.7 382.5,-135.7 382.5,-118.7 338.5,-118.7"/>
<text text-anchor="start" x="357.4431" y="-123.8" font-family="Helvetica,sans-Serif" font-size="11.00" fill="#000000"> &#160;</text>
<polygon fill="#ffffff" stroke="transparent" points="382.5,-118.7 382.5,-135.7 434.5,-135.7 434.5,-118.7 382.5,-118.7"/>
<text text-anchor="start" x="416.9053" y="-123.8" font-family="Helvetica,sans-Serif" font-size="11.00" fill="#000000">2 &gt;</text>
<polygon fill="#000000" stroke="#000000" points="338.5,-118.7 338.5,-135.7 338.5,-135.7 338.5,-118.7 338.5,-118.7"/>
<polygon fill="#000000" stroke="#000000" points="382.5,-118.7 382.5,-135.7 382.5,-135.7 382.5,-118.7 382.5,-118.7"/>
<polygon fill="none" stroke="#000000" stroke-width="2" points="283,-116.7 283,-534.7 436,-534.7 436,-116.7 283,-116.7"/>
</a>
</g>
</g>
<!-- 倉庫マスタ -->
<g id="node2" class="node">
<title>倉庫マスタ</title>
<g id="a_node2"><a xlink:href="../../tables/______939d4982.html" xlink:title="倉庫マスタ" target="_top">
<polygon fill="#ffffff" stroke="transparent" points="148.5,-206.2 148.5,-311.2 226.5,-311.2 226.5,-206.2 148.5,-206.2"/>
<polygon fill="#f5f5f5" stroke="transparent" points="148.5,-287.7 148.5,-310.7 226.5,-310.7 226.5,-287.7 148.5,-287.7"/>
<polygon fill="none" stroke="#000000" points="148.5,-287.7 148.5,-310.7 226.5,-310.7 226.5,-287.7 148.5,-287.7"/>
<text text-anchor="start" x="142.5898" y="-296.3" font-family="Helvetica,sans-Serif" font-weight="bold" font-size="11.00" fill="#000000">倉庫マスタ</text>
<text text-anchor="start" x="192.0219" y="-295.8" font-family="Helvetica,sans-Serif" font-size="11.00" fill="#000000">[table]</text>
<polygon fill="none" stroke="#000000" points="148.5,-265.7 148.5,-287.7 226.5,-287.7 226.5,-265.7 148.5,-265.7"/>
<image xlink:href="../../images/primaryKeys.png" width="11px" height="12px" preserveAspectRatio="xMinYMin meet" x="153.5" y="-282.7"/>
<text text-anchor="start" x="163.2232" y="-272.8" font-family="Helvetica,sans-Serif" font-size="11.00" fill="#000000">倉庫コード</text>
<polygon fill="#ffffff" stroke="transparent" points="148.5,-243.7 148.5,-265.7 226.5,-265.7 226.5,-243.7 148.5,-243.7"/>
<polygon fill="none" stroke="#000000" points="148.5,-243.7 148.5,-265.7 226.5,-265.7 226.5,-243.7 148.5,-243.7"/>
<text text-anchor="start" x="177.5" y="-250.8" font-family="Helvetica,sans-Serif" font-size="11.00" fill="#000000">倉庫名</text>
<polygon fill="none" stroke="#000000" points="148.5,-224.7 148.5,-243.7 226.5,-243.7 226.5,-224.7 148.5,-224.7"/>
<text text-anchor="start" x="151.5" y="-230.8" font-family="Helvetica,sans-Serif" font-size="11.00" fill="#000000">...</text>
<polygon fill="#ffffff" stroke="transparent" points="148.5,-205.7 148.5,-224.7 226.5,-224.7 226.5,-205.7 148.5,-205.7"/>
<polygon fill="none" stroke="#000000" points="148.5,-205.7 148.5,-224.7 226.5,-224.7 226.5,-205.7 148.5,-205.7"/>
<polygon fill="#ffffff" stroke="transparent" points="149.5,-206.7 149.5,-223.7 172.5,-223.7 172.5,-206.7 149.5,-206.7"/>
<text text-anchor="start" x="151.5" y="-211.8" font-family="Helvetica,sans-Serif" font-size="11.00" fill="#000000"> &#160;</text>
<polygon fill="#ffffff" stroke="transparent" points="172.5,-206.7 172.5,-223.7 194.5,-223.7 194.5,-206.7 172.5,-206.7"/>
<text text-anchor="start" x="180.4431" y="-211.8" font-family="Helvetica,sans-Serif" font-size="11.00" fill="#000000"> &#160;</text>
<polygon fill="#ffffff" stroke="transparent" points="194.5,-206.7 194.5,-223.7 225.5,-223.7 225.5,-206.7 194.5,-206.7"/>
<text text-anchor="start" x="207.9053" y="-211.8" font-family="Helvetica,sans-Serif" font-size="11.00" fill="#000000">2 &gt;</text>
<polygon fill="#000000" stroke="#000000" points="172.5,-206.7 172.5,-223.7 172.5,-223.7 172.5,-206.7 172.5,-206.7"/>
<polygon fill="#000000" stroke="#000000" points="194.5,-206.7 194.5,-223.7 194.5,-223.7 194.5,-206.7 194.5,-206.7"/>
</a>
</g>
</g>
<!-- 受注&#45;&gt;倉庫マスタ -->
<g id="edge1" class="edge">
<title>受注:w&#45;&gt;倉庫マスタ:e</title>
<path fill="none" stroke="#000000" stroke-dasharray="5,2" d="M270.1996,-299.0246C254.5928,-292.5752 248.8686,-276.7 226.5,-276.7"/>
<polygon fill="#000000" stroke="#000000" points="276.6364,-300.2288 283.8379,-305.2386 280.5682,-300.9644 284.5,-301.7 284.5,-301.7 284.5,-301.7 280.5682,-300.9644 285.1621,-298.1614 276.6364,-300.2288 276.6364,-300.2288"/>
<ellipse fill="none" stroke="#000000" cx="273.491" cy="-299.6403" rx="3.2" ry="3.2"/>
</g>
<!-- 社員マスタ -->
<g id="node3" class="node">
<title>社員マスタ</title>
<g id="a_node3"><a xlink:href="../../tables/______d3d8a641.html" xlink:title="社員マスタ" target="_top">
<polygon fill="#ffffff" stroke="transparent" points="148.5,-124.2 148.5,-185.2 226.5,-185.2 226.5,-124.2 148.5,-124.2"/>
<polygon fill="#f5f5f5" stroke="transparent" points="148.5,-161.7 148.5,-184.7 226.5,-184.7 226.5,-161.7 148.5,-161.7"/>
<polygon fill="none" stroke="#000000" points="148.5,-161.7 148.5,-184.7 226.5,-184.7 226.5,-161.7 148.5,-161.7"/>
<text text-anchor="start" x="144.7293" y="-170.3" font-family="Helvetica,sans-Serif" font-weight="bold" font-size="11.00" fill="#000000">社員マスタ</text>
<text text-anchor="start" x="192.0219" y="-169.8" font-family="Helvetica,sans-Serif" font-size="11.00" fill="#000000">[table]</text>
<polygon fill="none" stroke="#000000" points="148.5,-142.7 148.5,-161.7 226.5,-161.7 226.5,-142.7 148.5,-142.7"/>
<text text-anchor="start" x="151.5" y="-148.8" font-family="Helvetica,sans-Serif" font-size="11.00" fill="#000000">...</text>
<polygon fill="#ffffff" stroke="transparent" points="148.5,-123.7 148.5,-142.7 226.5,-142.7 226.5,-123.7 148.5,-123.7"/>
<polygon fill="none" stroke="#000000" points="148.5,-123.7 148.5,-142.7 226.5,-142.7 226.5,-123.7 148.5,-123.7"/>
<polygon fill="#ffffff" stroke="transparent" points="149.5,-124.7 149.5,-141.7 178.5,-141.7 178.5,-124.7 149.5,-124.7"/>
<text text-anchor="start" x="151.5" y="-129.8" font-family="Helvetica,sans-Serif" font-size="11.00" fill="#000000">&lt; 1</text>
<polygon fill="#ffffff" stroke="transparent" points="178.5,-124.7 178.5,-141.7 197.5,-141.7 197.5,-124.7 178.5,-124.7"/>
<text text-anchor="start" x="184.9431" y="-129.8" font-family="Helvetica,sans-Serif" font-size="11.00" fill="#000000"> &#160;</text>
<polygon fill="#ffffff" stroke="transparent" points="197.5,-124.7 197.5,-141.7 225.5,-141.7 225.5,-124.7 197.5,-124.7"/>
<text text-anchor="start" x="207.9053" y="-129.8" font-family="Helvetica,sans-Serif" font-size="11.00" fill="#000000">1 &gt;</text>
<polygon fill="#000000" stroke="#000000" points="178.5,-124.7 178.5,-141.7 178.5,-141.7 178.5,-124.7 178.5,-124.7"/>
<polygon fill="#000000" stroke="#000000" points="197.5,-124.7 197.5,-141.7 197.5,-141.7 197.5,-124.7 197.5,-124.7"/>
</a>
</g>
</g>
<!-- 受注&#45;&gt;社員マスタ -->
<g id="edge2" class="edge">
<title>受注:w&#45;&gt;社員マスタ:e</title>
<path fill="none" stroke="#000000" d="M270.1071,-366.1766C216.1146,-352.9727 281.3157,-256.9256 241,-195.7 239.1337,-192.8657 237.0036,-190.1474 234.6936,-187.5552"/>
<polygon fill="#000000" stroke="#000000" points="276.5444,-366.8579 284.1211,-371.28 280.5222,-367.279 284.5,-367.7 284.5,-367.7 284.5,-367.7 280.5222,-367.279 284.8789,-364.12 276.5444,-366.8579 276.5444,-366.8579"/>
<ellipse fill="none" stroke="#000000" cx="273.3622" cy="-366.5211" rx="3.2" ry="3.2"/>
</g>
<!-- 部門マスタ -->
<g id="node4" class="node">
<title>部門マスタ</title>
<g id="a_node4"><a xlink:href="../../tables/______3eb0dfec.html" xlink:title="部門マスタ" target="_top">
<polygon fill="#ffffff" stroke="transparent" points="11.5,-124.2 11.5,-185.2 89.5,-185.2 89.5,-124.2 11.5,-124.2"/>
<polygon fill="#f5f5f5" stroke="transparent" points="11.5,-161.7 11.5,-184.7 89.5,-184.7 89.5,-161.7 11.5,-161.7"/>
<polygon fill="none" stroke="#000000" points="11.5,-161.7 11.5,-184.7 89.5,-184.7 89.5,-161.7 11.5,-161.7"/>
<text text-anchor="start" x=".3923" y="-170.3" font-family="Helvetica,sans-Serif" font-weight="bold" font-size="11.00" fill="#000000">部門マスタ</text>
<text text-anchor="start" x="55.0219" y="-169.8" font-family="Helvetica,sans-Serif" font-size="11.00" fill="#000000">[table]</text>
<polygon fill="none" stroke="#000000" points="11.5,-142.7 11.5,-161.7 89.5,-161.7 89.5,-142.7 11.5,-142.7"/>
<text text-anchor="start" x="14.5" y="-148.8" font-family="Helvetica,sans-Serif" font-size="11.00" fill="#000000">...</text>
<polygon fill="#ffffff" stroke="transparent" points="11.5,-123.7 11.5,-142.7 89.5,-142.7 89.5,-123.7 11.5,-123.7"/>
<polygon fill="none" stroke="#000000" points="11.5,-123.7 11.5,-142.7 89.5,-142.7 89.5,-123.7 11.5,-123.7"/>
<polygon fill="#ffffff" stroke="transparent" points="12.5,-124.7 12.5,-141.7 35.5,-141.7 35.5,-124.7 12.5,-124.7"/>
<text text-anchor="start" x="14.5" y="-129.8" font-family="Helvetica,sans-Serif" font-size="11.00" fill="#000000"> &#160;</text>
<polygon fill="#ffffff" stroke="transparent" points="35.5,-124.7 35.5,-141.7 57.5,-141.7 57.5,-124.7 35.5,-124.7"/>
<text text-anchor="start" x="43.4431" y="-129.8" font-family="Helvetica,sans-Serif" font-size="11.00" fill="#000000"> &#160;</text>
<polygon fill="#ffffff" stroke="transparent" points="57.5,-124.7 57.5,-141.7 88.5,-141.7 88.5,-124.7 57.5,-124.7"/>
<text text-anchor="start" x="70.9053" y="-129.8" font-family="Helvetica,sans-Serif" font-size="11.00" fill="#000000">5 &gt;</text>
<polygon fill="#000000" stroke="#000000" points="35.5,-124.7 35.5,-141.7 35.5,-141.7 35.5,-124.7 35.5,-124.7"/>
<polygon fill="#000000" stroke="#000000" points="57.5,-124.7 57.5,-141.7 57.5,-141.7 57.5,-124.7 57.5,-124.7"/>
</a>
</g>
</g>
<!-- 受注&#45;&gt;部門マスタ -->
<g id="edge3" class="edge">
<title>受注:w&#45;&gt;部門マスタ:e</title>
<path fill="none" stroke="#000000" d="M270.2824,-458.2942C260.9101,-462.1287 255.4182,-469.1325 241,-471.7 194.181,-480.0373 171.6669,-500.73 134,-471.7 89.0914,-437.0888 63.5065,-264.3217 54.3701,-189.4247"/>
<polygon fill="#000000" stroke="#000000" points="276.6299,-457.1361 285.1462,-459.2415 280.565,-456.418 284.5,-455.7 284.5,-455.7 284.5,-455.7 280.565,-456.418 283.8538,-452.1585 276.6299,-457.1361 276.6299,-457.1361"/>
<ellipse fill="none" stroke="#000000" cx="273.4819" cy="-457.7105" rx="3.2" ry="3.2"/>
</g>
<!-- 受注&#45;&gt;部門マスタ -->
<g id="edge4" class="edge">
<title>受注:w&#45;&gt;部門マスタ:e</title>
<path fill="none" stroke="#000000" d="M270.0622,-436.0836C260.8413,-439.4639 255.1077,-445.4857 241,-447.7 194.0196,-455.0738 171.9562,-476.3506 134,-447.7 92.4167,-416.3116 65.3858,-259.7236 55.135,-189.2136"/>
<polygon fill="#000000" stroke="#000000" points="276.6068,-435.0031 285.0864,-437.2519 280.5534,-434.3516 284.5,-433.7 284.5,-433.7 284.5,-433.7 280.5534,-434.3516 283.9136,-430.1481 276.6068,-435.0031 276.6068,-435.0031"/>
<ellipse fill="none" stroke="#000000" cx="273.4496" cy="-435.5244" rx="3.2" ry="3.2"/>
</g>
<!-- 顧客マスタ -->
<g id="node5" class="node">
<title>顧客マスタ</title>
<g id="a_node5"><a xlink:href="../../tables/______8e04fe89.html" xlink:title="顧客マスタ" target="_top">
<polygon fill="#ffffff" stroke="transparent" points="142,-332.2 142,-437.2 233,-437.2 233,-332.2 142,-332.2"/>
<polygon fill="#f5f5f5" stroke="transparent" points="142.5,-413.7 142.5,-436.7 233.5,-436.7 233.5,-413.7 142.5,-413.7"/>
<polygon fill="none" stroke="#000000" points="142.5,-413.7 142.5,-436.7 233.5,-436.7 233.5,-413.7 142.5,-413.7"/>
<text text-anchor="start" x="131.0892" y="-422.3" font-family="Helvetica,sans-Serif" font-weight="bold" font-size="11.00" fill="#000000">顧客マスタ</text>
<text text-anchor="start" x="198.5437" y="-421.8" font-family="Helvetica,sans-Serif" font-size="11.00" fill="#000000">[table]</text>
<polygon fill="none" stroke="#000000" points="142.5,-391.7 142.5,-413.7 233.5,-413.7 233.5,-391.7 142.5,-391.7"/>
<image xlink:href="../../images/primaryKeys.png" width="11px" height="12px" preserveAspectRatio="xMinYMin meet" x="147.5" y="-408.7"/>
<text text-anchor="start" x="158.2226" y="-398.8" font-family="Helvetica,sans-Serif" font-size="11.00" fill="#000000">顧客コード</text>
<polygon fill="none" stroke="#000000" points="142.5,-369.7 142.5,-391.7 233.5,-391.7 233.5,-369.7 142.5,-369.7"/>
<image xlink:href="../../images/primaryKeys.png" width="11px" height="12px" preserveAspectRatio="xMinYMin meet" x="147.5" y="-386.7"/>
<text text-anchor="start" x="162.5" y="-376.8" font-family="Helvetica,sans-Serif" font-size="11.00" fill="#000000">顧客枝番</text>
<polygon fill="none" stroke="#000000" points="142.5,-350.7 142.5,-369.7 233.5,-369.7 233.5,-350.7 142.5,-350.7"/>
<text text-anchor="start" x="145.5" y="-356.8" font-family="Helvetica,sans-Serif" font-size="11.00" fill="#000000">...</text>
<polygon fill="#ffffff" stroke="transparent" points="142.5,-331.7 142.5,-350.7 233.5,-350.7 233.5,-331.7 142.5,-331.7"/>
<polygon fill="none" stroke="#000000" points="142.5,-331.7 142.5,-350.7 233.5,-350.7 233.5,-331.7 142.5,-331.7"/>
<polygon fill="#ffffff" stroke="transparent" points="143.5,-332.7 143.5,-349.7 176.5,-349.7 176.5,-332.7 143.5,-332.7"/>
<text text-anchor="start" x="145.5" y="-337.8" font-family="Helvetica,sans-Serif" font-size="11.00" fill="#000000">&lt; 1</text>
<polygon fill="#ffffff" stroke="transparent" points="176.5,-332.7 176.5,-349.7 200.5,-349.7 200.5,-332.7 176.5,-332.7"/>
<text text-anchor="start" x="185.4431" y="-337.8" font-family="Helvetica,sans-Serif" font-size="11.00" fill="#000000"> &#160;</text>
<polygon fill="#ffffff" stroke="transparent" points="200.5,-332.7 200.5,-349.7 232.5,-349.7 232.5,-332.7 200.5,-332.7"/>
<text text-anchor="start" x="214.9053" y="-337.8" font-family="Helvetica,sans-Serif" font-size="11.00" fill="#000000">2 &gt;</text>
<polygon fill="#000000" stroke="#000000" points="176.5,-332.7 176.5,-349.7 176.5,-349.7 176.5,-332.7 176.5,-332.7"/>
<polygon fill="#000000" stroke="#000000" points="200.5,-332.7 200.5,-349.7 200.5,-349.7 200.5,-332.7 200.5,-332.7"/>
</a>
</g>
</g>
<!-- 受注&#45;&gt;顧客マスタ -->
<g id="edge5" class="edge">
<title>受注:w&#45;&gt;顧客マスタ:e</title>
<path fill="none" stroke="#000000" d="M270.0577,-410.2938C257.8718,-407.7625 250.7627,-402.7 233.5,-402.7"/>
<polygon fill="#000000" stroke="#000000" points="276.5377,-410.9247 284.1511,-415.2831 280.5188,-411.3123 284.5,-411.7 284.5,-411.7 284.5,-411.7 280.5188,-411.3123 284.8489,-408.1169 276.5377,-410.9247 276.5377,-410.9247"/>
<ellipse fill="none" stroke="#000000" cx="273.3527" cy="-410.6145" rx="3.2" ry="3.2"/>
</g>
<!-- 受注&#45;&gt;顧客マスタ -->
<g id="edge6" class="edge">
<title>受注:w&#45;&gt;顧客マスタ:e</title>
<path fill="none" stroke="#000000" d="M270.0577,-388.2938C257.8718,-385.7625 250.7627,-380.7 233.5,-380.7"/>
<polygon fill="#000000" stroke="#000000" points="276.5377,-388.9247 284.1511,-393.2831 280.5188,-389.3123 284.5,-389.7 284.5,-389.7 284.5,-389.7 280.5188,-389.3123 284.8489,-386.1169 276.5377,-388.9247 276.5377,-388.9247"/>
<ellipse fill="none" stroke="#000000" cx="273.3527" cy="-388.6145" rx="3.2" ry="3.2"/>
</g>
<!-- 社員マスタ&#45;&gt;部門マスタ -->
<g id="edge17" class="edge">
<title>社員マスタ:w&#45;&gt;部門マスタ:e</title>
<path fill="none" stroke="#000000" d="M125.7944,-154.7C116.3735,-154.7 106.7794,-154.7 97.7345,-154.7"/>
<polygon fill="#000000" stroke="#000000" points="132.3524,-154.7001 140.3524,-158.3 136.3524,-154.7 140.3524,-154.7 140.3524,-154.7 140.3524,-154.7 136.3524,-154.7 140.3523,-151.1 132.3524,-154.7001 132.3524,-154.7001"/>
<ellipse fill="none" stroke="#000000" cx="129.1524" cy="-154.7001" rx="3.2" ry="3.2"/>
</g>
<!-- 取引先マスタ -->
<g id="node10" class="node">
<title>取引先マスタ</title>
<g id="a_node10"><a xlink:href="../../tables/_______70f9c0bb.html" xlink:title="取引先マスタ" target="_top">
<polygon fill="#ffffff" stroke="transparent" points="8,-38.2 8,-99.2 93,-99.2 93,-38.2 8,-38.2"/>
<polygon fill="#f5f5f5" stroke="transparent" points="8.5,-75.7 8.5,-98.7 93.5,-98.7 93.5,-75.7 8.5,-75.7"/>
<polygon fill="none" stroke="#000000" points="8.5,-75.7 8.5,-98.7 93.5,-98.7 93.5,-75.7 8.5,-75.7"/>
<text text-anchor="start" x="-.6356" y="-84.3" font-family="Helvetica,sans-Serif" font-weight="bold" font-size="11.00" fill="#000000">取引先マスタ</text>
<text text-anchor="start" x="59.0219" y="-83.8" font-family="Helvetica,sans-Serif" font-size="11.00" fill="#000000">[table]</text>
<polygon fill="none" stroke="#000000" points="8.5,-56.7 8.5,-75.7 93.5,-75.7 93.5,-56.7 8.5,-56.7"/>
<text text-anchor="start" x="11.5" y="-62.8" font-family="Helvetica,sans-Serif" font-size="11.00" fill="#000000">...</text>
<polygon fill="#ffffff" stroke="transparent" points="8.5,-37.7 8.5,-56.7 93.5,-56.7 93.5,-37.7 8.5,-37.7"/>
<polygon fill="none" stroke="#000000" points="8.5,-37.7 8.5,-56.7 93.5,-56.7 93.5,-37.7 8.5,-37.7"/>
<polygon fill="#ffffff" stroke="transparent" points="9.5,-38.7 9.5,-55.7 40.5,-55.7 40.5,-38.7 9.5,-38.7"/>
<text text-anchor="start" x="11.5" y="-43.8" font-family="Helvetica,sans-Serif" font-size="11.00" fill="#000000">&lt; 1</text>
<polygon fill="#ffffff" stroke="transparent" points="40.5,-38.7 40.5,-55.7 62.5,-55.7 62.5,-38.7 40.5,-38.7"/>
<text text-anchor="start" x="48.4431" y="-43.8" font-family="Helvetica,sans-Serif" font-size="11.00" fill="#000000"> &#160;</text>
<polygon fill="#ffffff" stroke="transparent" points="62.5,-38.7 62.5,-55.7 92.5,-55.7 92.5,-38.7 62.5,-38.7"/>
<text text-anchor="start" x="74.9053" y="-43.8" font-family="Helvetica,sans-Serif" font-size="11.00" fill="#000000">4 &gt;</text>
<polygon fill="#000000" stroke="#000000" points="40.5,-38.7 40.5,-55.7 40.5,-55.7 40.5,-38.7 40.5,-38.7"/>
<polygon fill="#000000" stroke="#000000" points="62.5,-38.7 62.5,-55.7 62.5,-55.7 62.5,-38.7 62.5,-38.7"/>
</a>
</g>
</g>
<!-- 顧客マスタ&#45;&gt;取引先マスタ -->
<g id="edge18" class="edge">
<title>顧客マスタ:w&#45;&gt;取引先マスタ:e</title>
<path fill="none" stroke="#000000" d="M128.7484,-397.6746C80.6871,-355.7529 163.7076,-65.7 93.5,-65.7"/>
<polygon fill="#000000" stroke="#000000" points="134.986,-399.954 141.2643,-406.0813 138.743,-401.327 142.5,-402.7 142.5,-402.7 142.5,-402.7 138.743,-401.327 143.7357,-399.3187 134.986,-399.954 134.986,-399.954"/>
<ellipse fill="none" stroke="#000000" cx="131.9804" cy="-398.8557" rx="3.2" ry="3.2"/>
</g>
<!-- 受注明細 -->
<g id="node6" class="node">
<title>受注明細</title>
<g id="a_node6"><a xlink:href="../../tables/_____27c23493.html" xlink:title="受注明細" target="_top">
<polygon fill="#ffffff" stroke="transparent" points="486,-412.2 486,-539.2 556,-539.2 556,-412.2 486,-412.2"/>
<polygon fill="#f5f5f5" stroke="transparent" points="486,-515.7 486,-538.7 556,-538.7 556,-515.7 486,-515.7"/>
<polygon fill="none" stroke="#000000" points="486,-515.7 486,-538.7 556,-538.7 556,-515.7 486,-515.7"/>
<text text-anchor="start" x="483.1006" y="-524.3" font-family="Helvetica,sans-Serif" font-weight="bold" font-size="11.00" fill="#000000">受注明細</text>
<text text-anchor="start" x="521.5219" y="-523.8" font-family="Helvetica,sans-Serif" font-size="11.00" fill="#000000">[table]</text>
<polygon fill="none" stroke="#000000" points="486,-493.7 486,-515.7 556,-515.7 556,-493.7 486,-493.7"/>
<image xlink:href="../../images/primaryKeys.png" width="11px" height="12px" preserveAspectRatio="xMinYMin meet" x="491" y="-510.7"/>
<text text-anchor="start" x="506.9021" y="-500.8" font-family="Helvetica,sans-Serif" font-size="11.00" fill="#000000">受注番号</text>
<polygon fill="none" stroke="#000000" points="486,-471.7 486,-493.7 556,-493.7 556,-471.7 486,-471.7"/>
<image xlink:href="../../images/primaryKeys.png" width="11px" height="12px" preserveAspectRatio="xMinYMin meet" x="491" y="-488.7"/>
<text text-anchor="start" x="508" y="-478.8" font-family="Helvetica,sans-Serif" font-size="11.00" fill="#000000">明細番号</text>
<polygon fill="#ffffff" stroke="transparent" points="486,-449.7 486,-471.7 556,-471.7 556,-449.7 486,-449.7"/>
<polygon fill="none" stroke="#000000" points="486,-449.7 486,-471.7 556,-471.7 556,-449.7 486,-449.7"/>
<image xlink:href="../../images/foreignKeys.png" width="11px" height="12px" preserveAspectRatio="xMinYMin meet" x="491" y="-466.7"/>
<text text-anchor="start" x="499.0547" y="-456.8" font-family="Helvetica,sans-Serif" font-size="11.00" fill="#000000">商品コード</text>
<polygon fill="none" stroke="#000000" points="486,-430.7 486,-449.7 556,-449.7 556,-430.7 486,-430.7"/>
<text text-anchor="start" x="489" y="-436.8" font-family="Helvetica,sans-Serif" font-size="11.00" fill="#000000">...</text>
<polygon fill="#ffffff" stroke="transparent" points="486,-411.7 486,-430.7 556,-430.7 556,-411.7 486,-411.7"/>
<polygon fill="none" stroke="#000000" points="486,-411.7 486,-430.7 556,-430.7 556,-411.7 486,-411.7"/>
<polygon fill="#ffffff" stroke="transparent" points="487,-412.7 487,-429.7 516,-429.7 516,-412.7 487,-412.7"/>
<text text-anchor="start" x="489" y="-417.8" font-family="Helvetica,sans-Serif" font-size="11.00" fill="#000000">&lt; 2</text>
<polygon fill="#ffffff" stroke="transparent" points="516,-412.7 516,-429.7 536,-429.7 536,-412.7 516,-412.7"/>
<text text-anchor="start" x="522.9431" y="-417.8" font-family="Helvetica,sans-Serif" font-size="11.00" fill="#000000"> &#160;</text>
<polygon fill="#ffffff" stroke="transparent" points="536,-412.7 536,-429.7 555,-429.7 555,-412.7 536,-412.7"/>
<text text-anchor="start" x="546.8862" y="-417.8" font-family="Helvetica,sans-Serif" font-size="11.00" fill="#000000"> &#160;</text>
<polygon fill="#000000" stroke="#000000" points="516,-412.7 516,-429.7 516,-429.7 516,-412.7 516,-412.7"/>
<polygon fill="#000000" stroke="#000000" points="536,-412.7 536,-429.7 536,-429.7 536,-412.7 536,-412.7"/>
</a>
</g>
</g>
<!-- 受注明細&#45;&gt;受注 -->
<g id="edge7" class="edge">
<title>受注明細:w&#45;&gt;受注:e</title>
<path fill="none" stroke="#000000" d="M471.3898,-503.8744C459.525,-502.4542 452.2394,-499.7 435.5,-499.7"/>
<polygon fill="#000000" stroke="#000000" points="478.0127,-504.2486 485.7969,-508.2943 482.0064,-504.4743 486,-504.7 486,-504.7 486,-504.7 482.0064,-504.4743 486.2031,-501.1057 478.0127,-504.2486 478.0127,-504.2486"/>
<ellipse fill="none" stroke="#000000" cx="474.8178" cy="-504.068" rx="3.2" ry="3.2"/>
</g>
<!-- 商品マスタ -->
<g id="node7" class="node">
<title>商品マスタ</title>
<g id="a_node7"><a xlink:href="../../tables/______d8ecb269.html" xlink:title="商品マスタ" target="_top">
<polygon fill="#ffffff" stroke="transparent" points="320.5,-557.2 320.5,-618.2 398.5,-618.2 398.5,-557.2 320.5,-557.2"/>
<polygon fill="#f5f5f5" stroke="transparent" points="320.5,-594.7 320.5,-617.7 398.5,-617.7 398.5,-594.7 320.5,-594.7"/>
<polygon fill="none" stroke="#000000" points="320.5,-594.7 320.5,-617.7 398.5,-617.7 398.5,-594.7 320.5,-594.7"/>
<text text-anchor="start" x="316.4213" y="-603.3" font-family="Helvetica,sans-Serif" font-weight="bold" font-size="11.00" fill="#000000">商品マスタ</text>
<text text-anchor="start" x="364.0219" y="-602.8" font-family="Helvetica,sans-Serif" font-size="11.00" fill="#000000">[table]</text>
<polygon fill="none" stroke="#000000" points="320.5,-575.7 320.5,-594.7 398.5,-594.7 398.5,-575.7 320.5,-575.7"/>
<text text-anchor="start" x="323.5" y="-581.8" font-family="Helvetica,sans-Serif" font-size="11.00" fill="#000000">...</text>
<polygon fill="#ffffff" stroke="transparent" points="320.5,-556.7 320.5,-575.7 398.5,-575.7 398.5,-556.7 320.5,-556.7"/>
<polygon fill="none" stroke="#000000" points="320.5,-556.7 320.5,-575.7 398.5,-575.7 398.5,-556.7 320.5,-556.7"/>
<polygon fill="#ffffff" stroke="transparent" points="321.5,-557.7 321.5,-574.7 350.5,-574.7 350.5,-557.7 321.5,-557.7"/>
<text text-anchor="start" x="323.5" y="-562.8" font-family="Helvetica,sans-Serif" font-size="11.00" fill="#000000">&lt; 1</text>
<polygon fill="#ffffff" stroke="transparent" points="350.5,-557.7 350.5,-574.7 369.5,-574.7 369.5,-557.7 350.5,-557.7"/>
<text text-anchor="start" x="356.9431" y="-562.8" font-family="Helvetica,sans-Serif" font-size="11.00" fill="#000000"> &#160;</text>
<polygon fill="#ffffff" stroke="transparent" points="369.5,-557.7 369.5,-574.7 397.5,-574.7 397.5,-557.7 369.5,-557.7"/>
<text text-anchor="start" x="379.9053" y="-562.8" font-family="Helvetica,sans-Serif" font-size="11.00" fill="#000000">6 &gt;</text>
<polygon fill="#000000" stroke="#000000" points="350.5,-557.7 350.5,-574.7 350.5,-574.7 350.5,-557.7 350.5,-557.7"/>
<polygon fill="#000000" stroke="#000000" points="369.5,-557.7 369.5,-574.7 369.5,-574.7 369.5,-557.7 369.5,-557.7"/>
</a>
</g>
</g>
<!-- 受注明細&#45;&gt;商品マスタ -->
<g id="edge8" class="edge">
<title>受注明細:w&#45;&gt;商品マスタ:e</title>
<path fill="none" stroke="#000000" d="M471.6431,-463.7842C450.48,-475.5248 467.3596,-518.2008 445,-546.7 428.5253,-567.6983 425.1898,-584.7 398.5,-584.7"/>
<polygon fill="#000000" stroke="#000000" points="478.1784,-462.3803 486.7561,-464.2197 482.0892,-461.5401 486,-460.7 486,-460.7 486,-460.7 482.0892,-461.5401 485.2439,-457.1803 478.1784,-462.3803 478.1784,-462.3803"/>
<ellipse fill="none" stroke="#000000" cx="475.0498" cy="-463.0524" rx="3.2" ry="3.2"/>
</g>
<!-- 在庫 -->
<g id="node8" class="node">
<title>在庫</title>
<g id="a_node8"><a xlink:href="../../tables/___aec83.html" xlink:title="在庫" target="_top">
<polygon fill="#ffffff" stroke="transparent" points="494,-610.2 494,-671.2 548,-671.2 548,-610.2 494,-610.2"/>
<polygon fill="#f5f5f5" stroke="transparent" points="494,-647.7 494,-670.7 548,-670.7 548,-647.7 494,-647.7"/>
<polygon fill="none" stroke="#000000" points="494,-647.7 494,-670.7 548,-670.7 548,-647.7 494,-647.7"/>
<text text-anchor="start" x="491.9688" y="-656.3" font-family="Helvetica,sans-Serif" font-weight="bold" font-size="11.00" fill="#000000">在庫</text>
<text text-anchor="start" x="513.5219" y="-655.8" font-family="Helvetica,sans-Serif" font-size="11.00" fill="#000000">[table]</text>
<polygon fill="none" stroke="#000000" points="494,-628.7 494,-647.7 548,-647.7 548,-628.7 494,-628.7"/>
<text text-anchor="start" x="497" y="-634.8" font-family="Helvetica,sans-Serif" font-size="11.00" fill="#000000">...</text>
<polygon fill="#ffffff" stroke="transparent" points="494,-609.7 494,-628.7 548,-628.7 548,-609.7 494,-609.7"/>
<polygon fill="none" stroke="#000000" points="494,-609.7 494,-628.7 548,-628.7 548,-609.7 494,-609.7"/>
<polygon fill="#ffffff" stroke="transparent" points="495,-610.7 495,-627.7 519,-627.7 519,-610.7 495,-610.7"/>
<text text-anchor="start" x="497" y="-615.8" font-family="Helvetica,sans-Serif" font-size="11.00" fill="#000000">&lt; 2</text>
<polygon fill="#ffffff" stroke="transparent" points="519,-610.7 519,-627.7 533,-627.7 533,-610.7 519,-610.7"/>
<text text-anchor="start" x="522.9431" y="-615.8" font-family="Helvetica,sans-Serif" font-size="11.00" fill="#000000"> &#160;</text>
<polygon fill="#ffffff" stroke="transparent" points="533,-610.7 533,-627.7 547,-627.7 547,-610.7 533,-610.7"/>
<text text-anchor="start" x="538.8862" y="-615.8" font-family="Helvetica,sans-Serif" font-size="11.00" fill="#000000"> &#160;</text>
<polygon fill="#000000" stroke="#000000" points="519,-610.7 519,-627.7 519,-627.7 519,-610.7 519,-610.7"/>
<polygon fill="#000000" stroke="#000000" points="533,-610.7 533,-627.7 533,-627.7 533,-610.7 533,-610.7"/>
</a>
</g>
</g>
<!-- 在庫&#45;&gt;倉庫マスタ -->
<g id="edge9" class="edge">
<title>在庫:w&#45;&gt;倉庫マスタ:e</title>
<path fill="none" stroke="#000000" d="M479.4477,-638.1238C390.9386,-643.2557 341.8208,-692.1737 274,-628.7 216.3709,-574.7647 305.4312,-276.7 226.5,-276.7"/>
<polygon fill="#000000" stroke="#000000" points="486.0034,-637.9329 494.1048,-641.2985 490.0017,-637.8165 494,-637.7 494,-637.7 494,-637.7 490.0017,-637.8165 493.8952,-634.1015 486.0034,-637.9329 486.0034,-637.9329"/>
<ellipse fill="none" stroke="#000000" cx="482.8047" cy="-638.0261" rx="3.2" ry="3.2"/>
</g>
<!-- 在庫&#45;&gt;商品マスタ -->
<g id="edge10" class="edge">
<title>在庫:w&#45;&gt;商品マスタ:e</title>
<path fill="none" stroke="#000000" d="M479.2871,-635.8137C445.1732,-626.3723 441.5437,-584.7 398.5,-584.7"/>
<polygon fill="#000000" stroke="#000000" points="486.0649,-636.6826 493.5422,-641.2708 490.0325,-637.1913 494,-637.7 494,-637.7 494,-637.7 490.0325,-637.1913 494.4578,-634.1292 486.0649,-636.6826 486.0649,-636.6826"/>
<ellipse fill="none" stroke="#000000" cx="482.8909" cy="-636.2757" rx="3.2" ry="3.2"/>
</g>
<!-- 売上 -->
<g id="node9" class="node">
<title>売上</title>
<g id="a_node9"><a xlink:href="../../tables/___b1358.html" xlink:title="売上" target="_top">
<polygon fill="#ffffff" stroke="transparent" points="494,-55.2 494,-116.2 548,-116.2 548,-55.2 494,-55.2"/>
<polygon fill="#f5f5f5" stroke="transparent" points="494,-92.7 494,-115.7 548,-115.7 548,-92.7 494,-92.7"/>
<polygon fill="none" stroke="#000000" points="494,-92.7 494,-115.7 548,-115.7 548,-92.7 494,-92.7"/>
<text text-anchor="start" x="492.5793" y="-101.3" font-family="Helvetica,sans-Serif" font-weight="bold" font-size="11.00" fill="#000000">売上</text>
<text text-anchor="start" x="513.5219" y="-100.8" font-family="Helvetica,sans-Serif" font-size="11.00" fill="#000000">[table]</text>
<polygon fill="none" stroke="#000000" points="494,-73.7 494,-92.7 548,-92.7 548,-73.7 494,-73.7"/>
<text text-anchor="start" x="497" y="-79.8" font-family="Helvetica,sans-Serif" font-size="11.00" fill="#000000">...</text>
<polygon fill="#ffffff" stroke="transparent" points="494,-54.7 494,-73.7 548,-73.7 548,-54.7 494,-54.7"/>
<polygon fill="none" stroke="#000000" points="494,-54.7 494,-73.7 548,-73.7 548,-54.7 494,-54.7"/>
<polygon fill="#ffffff" stroke="transparent" points="495,-55.7 495,-72.7 516,-72.7 516,-55.7 495,-55.7"/>
<text text-anchor="start" x="497" y="-60.8" font-family="Helvetica,sans-Serif" font-size="11.00" fill="#000000">&lt; 4</text>
<polygon fill="#ffffff" stroke="transparent" points="516,-55.7 516,-72.7 527,-72.7 527,-55.7 516,-55.7"/>
<text text-anchor="start" x="518.4431" y="-60.8" font-family="Helvetica,sans-Serif" font-size="11.00" fill="#000000"> &#160;</text>
<polygon fill="#ffffff" stroke="transparent" points="527,-55.7 527,-72.7 547,-72.7 547,-55.7 527,-55.7"/>
<text text-anchor="start" x="529.4053" y="-60.8" font-family="Helvetica,sans-Serif" font-size="11.00" fill="#000000">1 &gt;</text>
<polygon fill="#000000" stroke="#000000" points="516,-55.7 516,-72.7 516,-72.7 516,-55.7 516,-55.7"/>
<polygon fill="#000000" stroke="#000000" points="527,-55.7 527,-72.7 527,-72.7 527,-55.7 527,-55.7"/>
</a>
</g>
</g>
<!-- 売上&#45;&gt;受注 -->
<g id="edge12" class="edge">
<title>売上:w&#45;&gt;受注:e</title>
<path fill="none" stroke="#000000" d="M515.9709,-134.7451C504.0687,-244.3697 472.3874,-499.7 435.5,-499.7"/>
<polygon fill="#000000" stroke="#000000" points="516.6667,-128.24 521.0971,-120.6682 517.0921,-124.2626 517.5176,-120.2853 517.5176,-120.2853 517.5176,-120.2853 517.0921,-124.2626 513.938,-119.9024 516.6667,-128.24 516.6667,-128.24"/>
<ellipse fill="none" stroke="#000000" cx="516.3263" cy="-131.4218" rx="3.2" ry="3.2"/>
</g>
<!-- 売上&#45;&gt;部門マスタ -->
<g id="edge13" class="edge">
<title>売上:w&#45;&gt;部門マスタ:e</title>
<path fill="none" stroke="#000000" d="M471.4424,-79.4389C396.8384,-75.0356 251.8629,-75.7987 134,-107.7 121.8407,-110.9911 109.3393,-116.0829 97.833,-121.7423"/>
<polygon fill="#000000" stroke="#000000" points="477.846,-79.8729 485.5842,-84.0058 481.8369,-80.1435 485.8277,-80.414 485.8277,-80.414 485.8277,-80.414 481.8369,-80.1435 486.0712,-76.8223 477.846,-79.8729 477.846,-79.8729"/>
<ellipse fill="none" stroke="#000000" cx="474.6534" cy="-79.6565" rx="3.2" ry="3.2"/>
</g>
<!-- 売上&#45;&gt;部門マスタ -->
<g id="edge14" class="edge">
<title>売上:w&#45;&gt;部門マスタ:e</title>
<path fill="none" stroke="#000000" d="M470.9742,-87.8255C396.2332,-88.0389 251.6169,-88.8653 134,-120.7 121.8407,-123.9911 109.3393,-129.0829 97.833,-134.3746"/>
<polygon fill="#000000" stroke="#000000" points="477.8278,-87.8038 485.8392,-91.3783 481.8277,-87.7911 485.8277,-87.7783 485.8277,-87.7783 485.8277,-87.7783 481.8277,-87.7911 485.8163,-84.1783 477.8278,-87.8038 477.8278,-87.8038"/>
<ellipse fill="none" stroke="#000000" cx="474.6278" cy="-87.814" rx="3.2" ry="3.2"/>
</g>
<!-- 売上&#45;&gt;取引先マスタ -->
<g id="edge11" class="edge">
<title>売上:w&#45;&gt;取引先マスタ:e</title>
<path fill="none" stroke="#000000" d="M471.3758,-73.7954C462.6345,-72.1166 453.5863,-70.6434 445,-69.7 289.7023,-52.6364 249.7323,-65.7 93.5,-65.7"/>
<polygon fill="#000000" stroke="#000000" points="477.8279,-75.1332 484.9303,-80.2825 481.7446,-75.9453 485.6613,-76.7575 485.6613,-76.7575 485.6613,-76.7575 481.7446,-75.9453 486.3922,-73.2324 477.8279,-75.1332 477.8279,-75.1332"/>
<ellipse fill="none" stroke="#000000" cx="474.6945" cy="-74.4835" rx="3.2" ry="3.2"/>
</g>
<!-- 売上明細 -->
<g id="node11" class="node">
<title>売上明細</title>
<g id="a_node11"><a xlink:href="../../tables/_____29a0763a.html" xlink:title="売上明細" target="_top">
<polygon fill="#ffffff" stroke="transparent" points="605,-301.2 605,-362.2 675,-362.2 675,-301.2 605,-301.2"/>
<polygon fill="#f5f5f5" stroke="transparent" points="605,-338.7 605,-361.7 675,-361.7 675,-338.7 605,-338.7"/>
<polygon fill="none" stroke="#000000" points="605,-338.7 605,-361.7 675,-361.7 675,-338.7 605,-338.7"/>
<text text-anchor="start" x="602.4086" y="-347.3" font-family="Helvetica,sans-Serif" font-weight="bold" font-size="11.00" fill="#000000">売上明細</text>
<text text-anchor="start" x="640.5219" y="-346.8" font-family="Helvetica,sans-Serif" font-size="11.00" fill="#000000">[table]</text>
<polygon fill="none" stroke="#000000" points="605,-319.7 605,-338.7 675,-338.7 675,-319.7 605,-319.7"/>
<text text-anchor="start" x="608" y="-325.8" font-family="Helvetica,sans-Serif" font-size="11.00" fill="#000000">...</text>
<polygon fill="#ffffff" stroke="transparent" points="605,-300.7 605,-319.7 675,-319.7 675,-300.7 605,-300.7"/>
<polygon fill="none" stroke="#000000" points="605,-300.7 605,-319.7 675,-319.7 675,-300.7 605,-300.7"/>
<polygon fill="#ffffff" stroke="transparent" points="606,-301.7 606,-318.7 635,-318.7 635,-301.7 606,-301.7"/>
<text text-anchor="start" x="608" y="-306.8" font-family="Helvetica,sans-Serif" font-size="11.00" fill="#000000">&lt; 2</text>
<polygon fill="#ffffff" stroke="transparent" points="635,-301.7 635,-318.7 655,-318.7 655,-301.7 635,-301.7"/>
<text text-anchor="start" x="641.9431" y="-306.8" font-family="Helvetica,sans-Serif" font-size="11.00" fill="#000000"> &#160;</text>
<polygon fill="#ffffff" stroke="transparent" points="655,-301.7 655,-318.7 674,-318.7 674,-301.7 655,-301.7"/>
<text text-anchor="start" x="665.8862" y="-306.8" font-family="Helvetica,sans-Serif" font-size="11.00" fill="#000000"> &#160;</text>
<polygon fill="#000000" stroke="#000000" points="635,-301.7 635,-318.7 635,-318.7 635,-301.7 635,-301.7"/>
<polygon fill="#000000" stroke="#000000" points="655,-301.7 655,-318.7 655,-318.7 655,-301.7 655,-301.7"/>
</a>
</g>
</g>
<!-- 売上明細&#45;&gt;商品マスタ -->
<g id="edge15" class="edge">
<title>売上明細:w&#45;&gt;商品マスタ:e</title>
<path fill="none" stroke="#000000" d="M590.5912,-330.004C518.5794,-344.8167 629.9366,-482.0957 564,-549.7 511.506,-603.5217 473.6824,-584.7 398.5,-584.7"/>
<polygon fill="#000000" stroke="#000000" points="597.0326,-329.4211 605.3245,-332.2853 601.0163,-329.0606 605,-328.7 605,-328.7 605,-328.7 601.0163,-329.0606 604.6755,-325.1147 597.0326,-329.4211 597.0326,-329.4211"/>
<ellipse fill="none" stroke="#000000" cx="593.8456" cy="-329.7095" rx="3.2" ry="3.2"/>
</g>
<!-- 売上明細&#45;&gt;売上 -->
<g id="edge16" class="edge">
<title>売上明細:w&#45;&gt;売上:e</title>
<path fill="none" stroke="#000000" d="M591.3313,-323.9091C555.9352,-298.6672 534.3753,-180.0081 525.584,-120.2579"/>
<polygon fill="#000000" stroke="#000000" points="597.4503,-326.0538 603.8092,-332.0974 601.2252,-327.3769 605,-328.7 605,-328.7 605,-328.7 601.2252,-327.3769 606.1908,-325.3026 597.4503,-326.0538 597.4503,-326.0538"/>
<ellipse fill="none" stroke="#000000" cx="594.4304" cy="-324.9953" rx="3.2" ry="3.2"/>
</g>
</g>
</svg>
