<?xml version="1.0" encoding="UTF-8" standalone="no"?>
<!DOCTYPE svg PUBLIC "-//W3C//DTD SVG 1.1//EN"
 "http://www.w3.org/Graphics/SVG/1.1/DTD/svg11.dtd">
<!-- Generated by graphviz version 2.40.1 (20161225.0304)
 -->
<!-- Title: oneDegreeRelationshipsDiagramImplied Pages: 1 -->
<svg width="573pt" height="492pt"
 viewBox="0.00 0.00 573.00 491.88" xmlns="http://www.w3.org/2000/svg" xmlns:xlink="http://www.w3.org/1999/xlink">
<g id="graph0" class="graph" transform="scale(1 1) rotate(0) translate(4 487.879)">
<title>oneDegreeRelationshipsDiagramImplied</title>
<polygon fill="#ffffff" stroke="transparent" points="-4,4 -4,-487.879 569,-487.879 569,4 -4,4"/>
<text text-anchor="middle" x="72.4936" y="-7.3" font-family="Helvetica,sans-Serif" font-size="11.00" fill="#000000">Generated by SchemaSpy</text>
<!-- 受注 -->
<g id="node1" class="node">
<title>受注</title>
<g id="a_node1"><a xlink:href="../../tables/___a93f1.html" xlink:title="受注" target="_top">
<polygon fill="#ffffff" stroke="transparent" points="151,-214.2 151,-451.2 218,-451.2 218,-214.2 151,-214.2"/>
<polygon fill="#f5f5f5" stroke="transparent" points="151.5,-427.7 151.5,-450.7 218.5,-450.7 218.5,-427.7 151.5,-427.7"/>
<polygon fill="none" stroke="#000000" points="151.5,-427.7 151.5,-450.7 218.5,-450.7 218.5,-427.7 151.5,-427.7"/>
<text text-anchor="start" x="149.7713" y="-436.3" font-family="Helvetica,sans-Serif" font-weight="bold" font-size="11.00" fill="#000000">受注</text>
<text text-anchor="start" x="183.5437" y="-435.8" font-family="Helvetica,sans-Serif" font-size="11.00" fill="#000000">[table]</text>
<polygon fill="none" stroke="#000000" points="151.5,-405.7 151.5,-427.7 218.5,-427.7 218.5,-405.7 151.5,-405.7"/>
<image xlink:href="../../images/primaryKeys.png" width="11px" height="12px" preserveAspectRatio="xMinYMin meet" x="156.5" y="-422.7"/>
<text text-anchor="start" x="170.4021" y="-412.8" font-family="Helvetica,sans-Serif" font-size="11.00" fill="#000000">受注番号</text>
<polygon fill="#ffffff" stroke="transparent" points="151.5,-383.7 151.5,-405.7 218.5,-405.7 218.5,-383.7 151.5,-383.7"/>
<polygon fill="none" stroke="#000000" points="151.5,-383.7 151.5,-405.7 218.5,-405.7 218.5,-383.7 151.5,-383.7"/>
<text text-anchor="start" x="171.5" y="-390.8" font-family="Helvetica,sans-Serif" font-size="11.00" fill="#000000">受注日</text>
<polygon fill="none" stroke="#000000" points="151.5,-361.7 151.5,-383.7 218.5,-383.7 218.5,-361.7 151.5,-361.7"/>
<image xlink:href="../../images/foreignKeys.png" width="11px" height="12px" preserveAspectRatio="xMinYMin meet" x="156.5" y="-378.7"/>
<text text-anchor="start" x="155.5257" y="-368.8" font-family="Helvetica,sans-Serif" font-size="11.00" fill="#000000">部門コード</text>
<polygon fill="none" stroke="#000000" points="151.5,-339.7 151.5,-361.7 218.5,-361.7 218.5,-339.7 151.5,-339.7"/>
<image xlink:href="../../images/foreignKeys.png" width="11px" height="12px" preserveAspectRatio="xMinYMin meet" x="156.5" y="-356.7"/>
<text text-anchor="start" x="171.5" y="-346.8" font-family="Helvetica,sans-Serif" font-size="11.00" fill="#000000">開始日</text>
<polygon fill="#ffffff" stroke="transparent" points="151.5,-317.7 151.5,-339.7 218.5,-339.7 218.5,-317.7 151.5,-317.7"/>
<polygon fill="none" stroke="#000000" points="151.5,-317.7 151.5,-339.7 218.5,-339.7 218.5,-317.7 151.5,-317.7"/>
<image xlink:href="../../images/foreignKeys.png" width="11px" height="12px" preserveAspectRatio="xMinYMin meet" x="156.5" y="-334.7"/>
<text text-anchor="start" x="155.2226" y="-324.8" font-family="Helvetica,sans-Serif" font-size="11.00" fill="#000000">顧客コード</text>
<polygon fill="#ffffff" stroke="transparent" points="151.5,-295.7 151.5,-317.7 218.5,-317.7 218.5,-295.7 151.5,-295.7"/>
<polygon fill="none" stroke="#000000" points="151.5,-295.7 151.5,-317.7 218.5,-317.7 218.5,-295.7 151.5,-295.7"/>
<image xlink:href="../../images/foreignKeys.png" width="11px" height="12px" preserveAspectRatio="xMinYMin meet" x="156.5" y="-312.7"/>
<text text-anchor="start" x="166.5241" y="-302.8" font-family="Helvetica,sans-Serif" font-size="11.00" fill="#000000">顧客枝番</text>
<polygon fill="#ffffff" stroke="transparent" points="151.5,-273.7 151.5,-295.7 218.5,-295.7 218.5,-273.7 151.5,-273.7"/>
<polygon fill="none" stroke="#000000" points="151.5,-273.7 151.5,-295.7 218.5,-295.7 218.5,-273.7 151.5,-273.7"/>
<image xlink:href="../../images/foreignKeys.png" width="11px" height="12px" preserveAspectRatio="xMinYMin meet" x="156.5" y="-290.7"/>
<text text-anchor="start" x="162.8627" y="-280.8" font-family="Helvetica,sans-Serif" font-size="11.00" fill="#000000">社員コード</text>
<polygon fill="none" stroke="#000000" points="151.5,-251.7 151.5,-273.7 218.5,-273.7 218.5,-251.7 151.5,-251.7"/>
<image xlink:href="../../images/foreignKeys.png" width="11px" height="12px" preserveAspectRatio="xMinYMin meet" x="156.5" y="-268.7"/>
<text text-anchor="start" x="160.7232" y="-258.8" font-family="Helvetica,sans-Serif" font-size="11.00" fill="#000000">倉庫コード</text>
<polygon fill="none" stroke="#000000" points="151.5,-232.7 151.5,-251.7 218.5,-251.7 218.5,-232.7 151.5,-232.7"/>
<text text-anchor="start" x="154.5" y="-238.8" font-family="Helvetica,sans-Serif" font-size="11.00" fill="#000000">...</text>
<polygon fill="#ffffff" stroke="transparent" points="151.5,-213.7 151.5,-232.7 218.5,-232.7 218.5,-213.7 151.5,-213.7"/>
<polygon fill="none" stroke="#000000" points="151.5,-213.7 151.5,-232.7 218.5,-232.7 218.5,-213.7 151.5,-213.7"/>
<polygon fill="#ffffff" stroke="transparent" points="152.5,-214.7 152.5,-231.7 177.5,-231.7 177.5,-214.7 152.5,-214.7"/>
<text text-anchor="start" x="154.5" y="-219.8" font-family="Helvetica,sans-Serif" font-size="11.00" fill="#000000">&lt; 5</text>
<polygon fill="#ffffff" stroke="transparent" points="177.5,-214.7 177.5,-231.7 193.5,-231.7 193.5,-214.7 177.5,-214.7"/>
<text text-anchor="start" x="182.4431" y="-219.8" font-family="Helvetica,sans-Serif" font-size="11.00" fill="#000000"> &#160;</text>
<polygon fill="#ffffff" stroke="transparent" points="193.5,-214.7 193.5,-231.7 217.5,-231.7 217.5,-214.7 193.5,-214.7"/>
<text text-anchor="start" x="199.9053" y="-219.8" font-family="Helvetica,sans-Serif" font-size="11.00" fill="#000000">2 &gt;</text>
<polygon fill="#000000" stroke="#000000" points="177.5,-214.7 177.5,-231.7 177.5,-231.7 177.5,-214.7 177.5,-214.7"/>
<polygon fill="#000000" stroke="#000000" points="193.5,-214.7 193.5,-231.7 193.5,-231.7 193.5,-214.7 193.5,-214.7"/>
</a>
</g>
</g>
<!-- 部門マスタ -->
<g id="node2" class="node">
<title>部門マスタ</title>
<g id="a_node2"><a xlink:href="../../tables/______3eb0dfec.html" xlink:title="部門マスタ" target="_top">
<polygon fill="#ffffff" stroke="transparent" points="8,-258.2 8,-407.2 86,-407.2 86,-258.2 8,-258.2"/>
<polygon fill="#f5f5f5" stroke="transparent" points="8,-383.7 8,-406.7 86,-406.7 86,-383.7 8,-383.7"/>
<polygon fill="none" stroke="#000000" points="8,-383.7 8,-406.7 86,-406.7 86,-383.7 8,-383.7"/>
<text text-anchor="start" x="-3.1077" y="-392.3" font-family="Helvetica,sans-Serif" font-weight="bold" font-size="11.00" fill="#000000">部門マスタ</text>
<text text-anchor="start" x="51.5219" y="-391.8" font-family="Helvetica,sans-Serif" font-size="11.00" fill="#000000">[table]</text>
<polygon fill="none" stroke="#000000" points="8,-361.7 8,-383.7 86,-383.7 86,-361.7 8,-361.7"/>
<image xlink:href="../../images/primaryKeys.png" width="11px" height="12px" preserveAspectRatio="xMinYMin meet" x="13" y="-378.7"/>
<text text-anchor="start" x="18.0257" y="-368.8" font-family="Helvetica,sans-Serif" font-size="11.00" fill="#000000">部門コード</text>
<polygon fill="none" stroke="#000000" points="8,-339.7 8,-361.7 86,-361.7 86,-339.7 8,-339.7"/>
<image xlink:href="../../images/primaryKeys.png" width="11px" height="12px" preserveAspectRatio="xMinYMin meet" x="13" y="-356.7"/>
<text text-anchor="start" x="34" y="-346.8" font-family="Helvetica,sans-Serif" font-size="11.00" fill="#000000">開始日</text>
<polygon fill="#ffffff" stroke="transparent" points="8,-317.7 8,-339.7 86,-339.7 86,-317.7 8,-317.7"/>
<polygon fill="none" stroke="#000000" points="8,-317.7 8,-339.7 86,-339.7 86,-317.7 8,-317.7"/>
<text text-anchor="start" x="34" y="-324.8" font-family="Helvetica,sans-Serif" font-size="11.00" fill="#000000">部門名</text>
<polygon fill="#ffffff" stroke="transparent" points="8,-295.7 8,-317.7 86,-317.7 86,-295.7 8,-295.7"/>
<polygon fill="none" stroke="#000000" points="8,-295.7 8,-317.7 86,-317.7 86,-295.7 8,-295.7"/>
<text text-anchor="start" x="28.3151" y="-302.8" font-family="Helvetica,sans-Serif" font-size="11.00" fill="#000000">部門パス</text>
<polygon fill="none" stroke="#000000" points="8,-276.7 8,-295.7 86,-295.7 86,-276.7 8,-276.7"/>
<text text-anchor="start" x="11" y="-282.8" font-family="Helvetica,sans-Serif" font-size="11.00" fill="#000000">...</text>
<polygon fill="#ffffff" stroke="transparent" points="8,-257.7 8,-276.7 86,-276.7 86,-257.7 8,-257.7"/>
<polygon fill="none" stroke="#000000" points="8,-257.7 8,-276.7 86,-276.7 86,-257.7 8,-257.7"/>
<polygon fill="#ffffff" stroke="transparent" points="9,-258.7 9,-275.7 32,-275.7 32,-258.7 9,-258.7"/>
<text text-anchor="start" x="11" y="-263.8" font-family="Helvetica,sans-Serif" font-size="11.00" fill="#000000"> &#160;</text>
<polygon fill="#ffffff" stroke="transparent" points="32,-258.7 32,-275.7 54,-275.7 54,-258.7 32,-258.7"/>
<text text-anchor="start" x="39.9431" y="-263.8" font-family="Helvetica,sans-Serif" font-size="11.00" fill="#000000"> &#160;</text>
<polygon fill="#ffffff" stroke="transparent" points="54,-258.7 54,-275.7 85,-275.7 85,-258.7 54,-258.7"/>
<text text-anchor="start" x="67.4053" y="-263.8" font-family="Helvetica,sans-Serif" font-size="11.00" fill="#000000">5 &gt;</text>
<polygon fill="#000000" stroke="#000000" points="32,-258.7 32,-275.7 32,-275.7 32,-258.7 32,-258.7"/>
<polygon fill="#000000" stroke="#000000" points="54,-258.7 54,-275.7 54,-275.7 54,-258.7 54,-258.7"/>
</a>
</g>
</g>
<!-- 受注&#45;&gt;部門マスタ -->
<g id="edge1" class="edge">
<title>受注:w&#45;&gt;部門マスタ:e</title>
<path fill="none" stroke="#000000" d="M136.8773,-372.7C118.803,-372.7 109.5391,-372.7 86,-372.7"/>
<polygon fill="#000000" stroke="#000000" points="143.5,-372.7001 151.5,-376.3 147.5,-372.7 151.5,-372.7 151.5,-372.7 151.5,-372.7 147.5,-372.7 151.5,-369.1 143.5,-372.7001 143.5,-372.7001"/>
<ellipse fill="none" stroke="#000000" cx="140.3" cy="-372.7001" rx="3.2" ry="3.2"/>
</g>
<!-- 受注&#45;&gt;部門マスタ -->
<g id="edge2" class="edge">
<title>受注:w&#45;&gt;部門マスタ:e</title>
<path fill="none" stroke="#000000" d="M136.8773,-350.7C118.803,-350.7 109.5391,-350.7 86,-350.7"/>
<polygon fill="#000000" stroke="#000000" points="143.5,-350.7001 151.5,-354.3 147.5,-350.7 151.5,-350.7 151.5,-350.7 151.5,-350.7 147.5,-350.7 151.5,-347.1 143.5,-350.7001 143.5,-350.7001"/>
<ellipse fill="none" stroke="#000000" cx="140.3" cy="-350.7001" rx="3.2" ry="3.2"/>
</g>
<!-- 売上 -->
<g id="node3" class="node">
<title>売上</title>
<g id="a_node3"><a xlink:href="../../tables/___b1358.html" xlink:title="売上" target="_top">
<polygon fill="#ffffff" stroke="transparent" points="283,-50.7 283,-426.7 438,-426.7 438,-50.7 283,-50.7"/>
<polygon fill="#f5f5f5" stroke="transparent" points="285.5,-401.7 285.5,-424.7 436.5,-424.7 436.5,-401.7 285.5,-401.7"/>
<polygon fill="none" stroke="#000000" points="285.5,-401.7 285.5,-424.7 436.5,-424.7 436.5,-401.7 285.5,-401.7"/>
<text text-anchor="start" x="284.0793" y="-410.3" font-family="Helvetica,sans-Serif" font-weight="bold" font-size="11.00" fill="#000000">売上</text>
<text text-anchor="start" x="401.5437" y="-409.8" font-family="Helvetica,sans-Serif" font-size="11.00" fill="#000000">[table]</text>
<polygon fill="none" stroke="#000000" points="285.5,-379.7 285.5,-401.7 352.5,-401.7 352.5,-379.7 285.5,-379.7"/>
<image xlink:href="../../images/primaryKeys.png" width="11px" height="12px" preserveAspectRatio="xMinYMin meet" x="290.5" y="-396.7"/>
<text text-anchor="start" x="304.7101" y="-386.8" font-family="Helvetica,sans-Serif" font-size="11.00" fill="#000000">売上番号</text>
<polygon fill="none" stroke="#000000" points="352.5,-379.7 352.5,-401.7 436.5,-401.7 436.5,-379.7 352.5,-379.7"/>
<text text-anchor="start" x="355.5" y="-387.4" font-family="Helvetica,sans-Serif" font-size="11.00" fill="#000000">varchar[20]</text>
<polygon fill="#ffffff" stroke="transparent" points="285.5,-357.7 285.5,-379.7 352.5,-379.7 352.5,-357.7 285.5,-357.7"/>
<polygon fill="none" stroke="#000000" points="285.5,-357.7 285.5,-379.7 352.5,-379.7 352.5,-357.7 285.5,-357.7"/>
<text text-anchor="start" x="305.5" y="-364.8" font-family="Helvetica,sans-Serif" font-size="11.00" fill="#000000">売上日</text>
<polygon fill="none" stroke="#000000" points="352.5,-357.7 352.5,-379.7 436.5,-379.7 436.5,-357.7 352.5,-357.7"/>
<text text-anchor="start" x="355.3807" y="-365.4" font-family="Helvetica,sans-Serif" font-size="11.00" fill="#000000">timestamp[29,6]</text>
<polygon fill="none" stroke="#000000" points="285.5,-335.7 285.5,-357.7 352.5,-357.7 352.5,-335.7 285.5,-335.7"/>
<text text-anchor="start" x="305.1061" y="-342.8" font-family="Helvetica,sans-Serif" font-size="11.00" fill="#000000">売上区分</text>
<polygon fill="none" stroke="#000000" points="352.5,-335.7 352.5,-357.7 436.5,-357.7 436.5,-335.7 352.5,-335.7"/>
<text text-anchor="start" x="355.5" y="-343.4" font-family="Helvetica,sans-Serif" font-size="11.00" fill="#000000">int4[10]</text>
<polygon fill="#ffffff" stroke="transparent" points="285.5,-313.7 285.5,-335.7 352.5,-335.7 352.5,-313.7 285.5,-313.7"/>
<polygon fill="none" stroke="#000000" points="285.5,-313.7 285.5,-335.7 352.5,-335.7 352.5,-313.7 285.5,-313.7"/>
<image xlink:href="../../images/foreignKeys.png" width="11px" height="12px" preserveAspectRatio="xMinYMin meet" x="290.5" y="-330.7"/>
<text text-anchor="start" x="304.4021" y="-320.8" font-family="Helvetica,sans-Serif" font-size="11.00" fill="#000000">受注番号</text>
<polygon fill="none" stroke="#000000" points="352.5,-313.7 352.5,-335.7 436.5,-335.7 436.5,-313.7 352.5,-313.7"/>
<text text-anchor="start" x="355.5" y="-321.4" font-family="Helvetica,sans-Serif" font-size="11.00" fill="#000000">varchar[20]</text>
<polygon fill="#ffffff" stroke="transparent" points="285.5,-291.7 285.5,-313.7 352.5,-313.7 352.5,-291.7 285.5,-291.7"/>
<polygon fill="none" stroke="#000000" points="285.5,-291.7 285.5,-313.7 352.5,-313.7 352.5,-291.7 285.5,-291.7"/>
<image xlink:href="../../images/foreignKeys.png" width="11px" height="12px" preserveAspectRatio="xMinYMin meet" x="290.5" y="-308.7"/>
<text text-anchor="start" x="289.5257" y="-298.8" font-family="Helvetica,sans-Serif" font-size="11.00" fill="#000000">部門コード</text>
<polygon fill="none" stroke="#000000" points="352.5,-291.7 352.5,-313.7 436.5,-313.7 436.5,-291.7 352.5,-291.7"/>
<text text-anchor="start" x="355.5" y="-299.4" font-family="Helvetica,sans-Serif" font-size="11.00" fill="#000000">varchar[6]</text>
<polygon fill="#ffffff" stroke="transparent" points="285.5,-269.7 285.5,-291.7 352.5,-291.7 352.5,-269.7 285.5,-269.7"/>
<polygon fill="none" stroke="#000000" points="285.5,-269.7 285.5,-291.7 352.5,-291.7 352.5,-269.7 285.5,-269.7"/>
<image xlink:href="../../images/foreignKeys.png" width="11px" height="12px" preserveAspectRatio="xMinYMin meet" x="290.5" y="-286.7"/>
<text text-anchor="start" x="305.5" y="-276.8" font-family="Helvetica,sans-Serif" font-size="11.00" fill="#000000">開始日</text>
<polygon fill="none" stroke="#000000" points="352.5,-269.7 352.5,-291.7 436.5,-291.7 436.5,-269.7 352.5,-269.7"/>
<text text-anchor="start" x="355.3807" y="-277.4" font-family="Helvetica,sans-Serif" font-size="11.00" fill="#000000">timestamp[29,6]</text>
<polygon fill="#ffffff" stroke="transparent" points="285.5,-247.7 285.5,-269.7 352.5,-269.7 352.5,-247.7 285.5,-247.7"/>
<polygon fill="none" stroke="#000000" points="285.5,-247.7 285.5,-269.7 352.5,-269.7 352.5,-247.7 285.5,-247.7"/>
<image xlink:href="../../images/foreignKeys.png" width="11px" height="12px" preserveAspectRatio="xMinYMin meet" x="290.5" y="-264.7"/>
<text text-anchor="start" x="287.9978" y="-254.8" font-family="Helvetica,sans-Serif" font-size="11.00" fill="#000000">取引先コード</text>
<polygon fill="none" stroke="#000000" points="352.5,-247.7 352.5,-269.7 436.5,-269.7 436.5,-247.7 352.5,-247.7"/>
<text text-anchor="start" x="355.5" y="-255.4" font-family="Helvetica,sans-Serif" font-size="11.00" fill="#000000">varchar[8]</text>
<polygon fill="none" stroke="#000000" points="285.5,-225.7 285.5,-247.7 352.5,-247.7 352.5,-225.7 285.5,-225.7"/>
<text text-anchor="start" x="299.6061" y="-232.8" font-family="Helvetica,sans-Serif" font-size="11.00" fill="#000000">売上金額</text>
<polygon fill="none" stroke="#000000" points="352.5,-225.7 352.5,-247.7 436.5,-247.7 436.5,-225.7 352.5,-225.7"/>
<text text-anchor="start" x="355.5" y="-233.4" font-family="Helvetica,sans-Serif" font-size="11.00" fill="#000000">int4[10]</text>
<polygon fill="none" stroke="#000000" points="285.5,-203.7 285.5,-225.7 352.5,-225.7 352.5,-203.7 285.5,-203.7"/>
<text text-anchor="start" x="305.2034" y="-210.8" font-family="Helvetica,sans-Serif" font-size="11.00" fill="#000000">消費税</text>
<polygon fill="none" stroke="#000000" points="352.5,-203.7 352.5,-225.7 436.5,-225.7 436.5,-203.7 352.5,-203.7"/>
<text text-anchor="start" x="355.5" y="-211.4" font-family="Helvetica,sans-Serif" font-size="11.00" fill="#000000">int4[10]</text>
<polygon fill="none" stroke="#000000" points="285.5,-181.7 285.5,-203.7 352.5,-203.7 352.5,-181.7 285.5,-181.7"/>
<text text-anchor="start" x="302.5706" y="-188.8" font-family="Helvetica,sans-Serif" font-size="11.00" fill="#000000">訂正番号</text>
<polygon fill="none" stroke="#000000" points="352.5,-181.7 352.5,-203.7 436.5,-203.7 436.5,-181.7 352.5,-181.7"/>
<text text-anchor="start" x="355.5" y="-189.4" font-family="Helvetica,sans-Serif" font-size="11.00" fill="#000000">varchar[20]</text>
<polygon fill="none" stroke="#000000" points="285.5,-159.7 285.5,-181.7 352.5,-181.7 352.5,-159.7 285.5,-159.7"/>
<text text-anchor="start" x="295.8452" y="-166.8" font-family="Helvetica,sans-Serif" font-size="11.00" fill="#000000">元伝票番号</text>
<polygon fill="none" stroke="#000000" points="352.5,-159.7 352.5,-181.7 436.5,-181.7 436.5,-159.7 352.5,-159.7"/>
<text text-anchor="start" x="355.5" y="-167.4" font-family="Helvetica,sans-Serif" font-size="11.00" fill="#000000">varchar[20]</text>
<polygon fill="none" stroke="#000000" points="285.5,-137.7 285.5,-159.7 352.5,-159.7 352.5,-137.7 285.5,-137.7"/>
<text text-anchor="start" x="302.6581" y="-144.8" font-family="Helvetica,sans-Serif" font-size="11.00" fill="#000000">作成日時</text>
<polygon fill="none" stroke="#000000" points="352.5,-137.7 352.5,-159.7 436.5,-159.7 436.5,-137.7 352.5,-137.7"/>
<text text-anchor="start" x="355.3807" y="-145.4" font-family="Helvetica,sans-Serif" font-size="11.00" fill="#000000">timestamp[29,6]</text>
<polygon fill="none" stroke="#000000" points="285.5,-115.7 285.5,-137.7 352.5,-137.7 352.5,-115.7 285.5,-115.7"/>
<text text-anchor="start" x="302.6581" y="-122.8" font-family="Helvetica,sans-Serif" font-size="11.00" fill="#000000">作成者名</text>
<polygon fill="none" stroke="#000000" points="352.5,-115.7 352.5,-137.7 436.5,-137.7 436.5,-115.7 352.5,-115.7"/>
<text text-anchor="start" x="355.5" y="-123.4" font-family="Helvetica,sans-Serif" font-size="11.00" fill="#000000">varchar[12]</text>
<polygon fill="none" stroke="#000000" points="285.5,-93.7 285.5,-115.7 352.5,-115.7 352.5,-93.7 285.5,-93.7"/>
<text text-anchor="start" x="305.5" y="-100.8" font-family="Helvetica,sans-Serif" font-size="11.00" fill="#000000">更新日時</text>
<polygon fill="none" stroke="#000000" points="352.5,-93.7 352.5,-115.7 436.5,-115.7 436.5,-93.7 352.5,-93.7"/>
<text text-anchor="start" x="355.3807" y="-101.4" font-family="Helvetica,sans-Serif" font-size="11.00" fill="#000000">timestamp[29,6]</text>
<polygon fill="none" stroke="#000000" points="285.5,-71.7 285.5,-93.7 352.5,-93.7 352.5,-71.7 285.5,-71.7"/>
<text text-anchor="start" x="305.5" y="-78.8" font-family="Helvetica,sans-Serif" font-size="11.00" fill="#000000">更新者名</text>
<polygon fill="none" stroke="#000000" points="352.5,-71.7 352.5,-93.7 436.5,-93.7 436.5,-71.7 352.5,-71.7"/>
<text text-anchor="start" x="355.5" y="-79.4" font-family="Helvetica,sans-Serif" font-size="11.00" fill="#000000">varchar[12]</text>
<polygon fill="#ffffff" stroke="transparent" points="285.5,-52.7 285.5,-71.7 436.5,-71.7 436.5,-52.7 285.5,-52.7"/>
<polygon fill="none" stroke="#000000" points="285.5,-52.7 285.5,-71.7 436.5,-71.7 436.5,-52.7 285.5,-52.7"/>
<polygon fill="#ffffff" stroke="transparent" points="286.5,-53.7 286.5,-70.7 339.5,-70.7 339.5,-53.7 286.5,-53.7"/>
<text text-anchor="start" x="288.5" y="-58.8" font-family="Helvetica,sans-Serif" font-size="11.00" fill="#000000">&lt; 4</text>
<polygon fill="#ffffff" stroke="transparent" points="339.5,-53.7 339.5,-70.7 383.5,-70.7 383.5,-53.7 339.5,-53.7"/>
<text text-anchor="start" x="358.4431" y="-58.8" font-family="Helvetica,sans-Serif" font-size="11.00" fill="#000000"> &#160;</text>
<polygon fill="#ffffff" stroke="transparent" points="383.5,-53.7 383.5,-70.7 435.5,-70.7 435.5,-53.7 383.5,-53.7"/>
<text text-anchor="start" x="417.9053" y="-58.8" font-family="Helvetica,sans-Serif" font-size="11.00" fill="#000000">1 &gt;</text>
<polygon fill="#000000" stroke="#000000" points="339.5,-53.7 339.5,-70.7 339.5,-70.7 339.5,-53.7 339.5,-53.7"/>
<polygon fill="#000000" stroke="#000000" points="383.5,-53.7 383.5,-70.7 383.5,-70.7 383.5,-53.7 383.5,-53.7"/>
<polygon fill="none" stroke="#000000" stroke-width="2" points="284,-51.7 284,-425.7 437,-425.7 437,-51.7 284,-51.7"/>
</a>
</g>
</g>
<!-- 売上&#45;&gt;受注 -->
<g id="edge4" class="edge">
<title>売上:w&#45;&gt;受注:e</title>
<path fill="none" stroke="#000000" d="M271.326,-327.9743C241.5703,-344.3631 263.3527,-416.7 218.5,-416.7"/>
<polygon fill="#000000" stroke="#000000" points="277.7053,-326.5007 286.3103,-328.2076 281.6026,-325.6003 285.5,-324.7 285.5,-324.7 285.5,-324.7 281.6026,-325.6003 284.6897,-321.1924 277.7053,-326.5007 277.7053,-326.5007"/>
<ellipse fill="none" stroke="#000000" cx="274.5874" cy="-327.221" rx="3.2" ry="3.2"/>
</g>
<!-- 売上&#45;&gt;部門マスタ -->
<g id="edge5" class="edge">
<title>売上:w&#45;&gt;部門マスタ:e</title>
<path fill="none" stroke="#000000" d="M271.1351,-304.7095C225.0945,-320.171 295.6908,-420.7251 242,-461.7 201.3693,-492.7079 170.0429,-489.2619 127,-461.7 90.3238,-438.215 129.551,-372.7 86,-372.7"/>
<polygon fill="#000000" stroke="#000000" points="277.5771,-303.8084 285.9988,-306.2653 281.5386,-303.2542 285.5,-302.7 285.5,-302.7 285.5,-302.7 281.5386,-303.2542 285.0012,-299.1347 277.5771,-303.8084 277.5771,-303.8084"/>
<ellipse fill="none" stroke="#000000" cx="274.408" cy="-304.2517" rx="3.2" ry="3.2"/>
</g>
<!-- 売上&#45;&gt;部門マスタ -->
<g id="edge6" class="edge">
<title>売上:w&#45;&gt;部門マスタ:e</title>
<path fill="none" stroke="#000000" d="M271.1444,-276.4997C254.2424,-262.9412 270.3779,-220.2616 242,-203.7 197.8566,-177.9375 167.7073,-172.7927 127,-203.7 72.9794,-244.7155 153.8269,-350.7 86,-350.7"/>
<polygon fill="#000000" stroke="#000000" points="277.8219,-278.4534 284.489,-284.1551 281.661,-279.5767 285.5,-280.7 285.5,-280.7 285.5,-280.7 281.661,-279.5767 286.511,-277.2449 277.8219,-278.4534 277.8219,-278.4534"/>
<ellipse fill="none" stroke="#000000" cx="274.7507" cy="-277.5548" rx="3.2" ry="3.2"/>
</g>
<!-- 取引先マスタ -->
<g id="node4" class="node">
<title>取引先マスタ</title>
<g id="a_node4"><a xlink:href="../../tables/_______70f9c0bb.html" xlink:title="取引先マスタ" target="_top">
<polygon fill="#ffffff" stroke="transparent" points="135,-38.2 135,-165.2 234,-165.2 234,-38.2 135,-38.2"/>
<polygon fill="#f5f5f5" stroke="transparent" points="135.5,-141.7 135.5,-164.7 234.5,-164.7 234.5,-141.7 135.5,-141.7"/>
<polygon fill="none" stroke="#000000" points="135.5,-141.7 135.5,-164.7 234.5,-164.7 234.5,-141.7 135.5,-141.7"/>
<text text-anchor="start" x="126.3644" y="-150.3" font-family="Helvetica,sans-Serif" font-weight="bold" font-size="11.00" fill="#000000">取引先マスタ</text>
<text text-anchor="start" x="199.5437" y="-149.8" font-family="Helvetica,sans-Serif" font-size="11.00" fill="#000000">[table]</text>
<polygon fill="none" stroke="#000000" points="135.5,-119.7 135.5,-141.7 234.5,-141.7 234.5,-119.7 135.5,-119.7"/>
<image xlink:href="../../images/primaryKeys.png" width="11px" height="12px" preserveAspectRatio="xMinYMin meet" x="140.5" y="-136.7"/>
<text text-anchor="start" x="153.9978" y="-126.8" font-family="Helvetica,sans-Serif" font-size="11.00" fill="#000000">取引先コード</text>
<polygon fill="#ffffff" stroke="transparent" points="135.5,-97.7 135.5,-119.7 234.5,-119.7 234.5,-97.7 135.5,-97.7"/>
<polygon fill="none" stroke="#000000" points="135.5,-97.7 135.5,-119.7 234.5,-119.7 234.5,-97.7 135.5,-97.7"/>
<text text-anchor="start" x="155.5" y="-104.8" font-family="Helvetica,sans-Serif" font-size="11.00" fill="#000000">取引先名</text>
<polygon fill="#ffffff" stroke="transparent" points="135.5,-75.7 135.5,-97.7 234.5,-97.7 234.5,-75.7 135.5,-75.7"/>
<polygon fill="none" stroke="#000000" points="135.5,-75.7 135.5,-97.7 234.5,-97.7 234.5,-75.7 135.5,-75.7"/>
<image xlink:href="../../images/foreignKeys.png" width="11px" height="12px" preserveAspectRatio="xMinYMin meet" x="140.5" y="-92.7"/>
<text text-anchor="start" x="128.1318" y="-82.8" font-family="Helvetica,sans-Serif" font-size="11.00" fill="#000000">取引先グループコード</text>
<polygon fill="none" stroke="#000000" points="135.5,-56.7 135.5,-75.7 234.5,-75.7 234.5,-56.7 135.5,-56.7"/>
<text text-anchor="start" x="138.5" y="-62.8" font-family="Helvetica,sans-Serif" font-size="11.00" fill="#000000">...</text>
<polygon fill="#ffffff" stroke="transparent" points="135.5,-37.7 135.5,-56.7 234.5,-56.7 234.5,-37.7 135.5,-37.7"/>
<polygon fill="none" stroke="#000000" points="135.5,-37.7 135.5,-56.7 234.5,-56.7 234.5,-37.7 135.5,-37.7"/>
<polygon fill="#ffffff" stroke="transparent" points="136.5,-38.7 136.5,-55.7 172.5,-55.7 172.5,-38.7 136.5,-38.7"/>
<text text-anchor="start" x="138.5" y="-43.8" font-family="Helvetica,sans-Serif" font-size="11.00" fill="#000000">&lt; 1</text>
<polygon fill="#ffffff" stroke="transparent" points="172.5,-38.7 172.5,-55.7 198.5,-55.7 198.5,-38.7 172.5,-38.7"/>
<text text-anchor="start" x="182.4431" y="-43.8" font-family="Helvetica,sans-Serif" font-size="11.00" fill="#000000"> &#160;</text>
<polygon fill="#ffffff" stroke="transparent" points="198.5,-38.7 198.5,-55.7 233.5,-55.7 233.5,-38.7 198.5,-38.7"/>
<text text-anchor="start" x="215.9053" y="-43.8" font-family="Helvetica,sans-Serif" font-size="11.00" fill="#000000">4 &gt;</text>
<polygon fill="#000000" stroke="#000000" points="172.5,-38.7 172.5,-55.7 172.5,-55.7 172.5,-38.7 172.5,-38.7"/>
<polygon fill="#000000" stroke="#000000" points="198.5,-38.7 198.5,-55.7 198.5,-55.7 198.5,-38.7 198.5,-38.7"/>
</a>
</g>
</g>
<!-- 売上&#45;&gt;取引先マスタ -->
<g id="edge3" class="edge">
<title>売上:w&#45;&gt;取引先マスタ:e</title>
<path fill="none" stroke="#000000" d="M271.1089,-255.2763C236.9563,-234.9207 289.758,-130.7 234.5,-130.7"/>
<polygon fill="#000000" stroke="#000000" points="277.7172,-256.8484 284.6668,-262.2023 281.6086,-257.7742 285.5,-258.7 285.5,-258.7 285.5,-258.7 281.6086,-257.7742 286.3332,-255.1977 277.7172,-256.8484 277.7172,-256.8484"/>
<ellipse fill="none" stroke="#000000" cx="274.6041" cy="-256.1078" rx="3.2" ry="3.2"/>
</g>
<!-- 売上明細 -->
<g id="node5" class="node">
<title>売上明細</title>
<g id="a_node5"><a xlink:href="../../tables/_____29a0763a.html" xlink:title="売上明細" target="_top">
<polygon fill="#ffffff" stroke="transparent" points="487,-276.2 487,-425.2 557,-425.2 557,-276.2 487,-276.2"/>
<polygon fill="#f5f5f5" stroke="transparent" points="487,-401.7 487,-424.7 557,-424.7 557,-401.7 487,-401.7"/>
<polygon fill="none" stroke="#000000" points="487,-401.7 487,-424.7 557,-424.7 557,-401.7 487,-401.7"/>
<text text-anchor="start" x="484.4086" y="-410.3" font-family="Helvetica,sans-Serif" font-weight="bold" font-size="11.00" fill="#000000">売上明細</text>
<text text-anchor="start" x="522.5219" y="-409.8" font-family="Helvetica,sans-Serif" font-size="11.00" fill="#000000">[table]</text>
<polygon fill="none" stroke="#000000" points="487,-379.7 487,-401.7 557,-401.7 557,-379.7 487,-379.7"/>
<image xlink:href="../../images/primaryKeys.png" width="11px" height="12px" preserveAspectRatio="xMinYMin meet" x="492" y="-396.7"/>
<text text-anchor="start" x="508.2101" y="-386.8" font-family="Helvetica,sans-Serif" font-size="11.00" fill="#000000">売上番号</text>
<polygon fill="none" stroke="#000000" points="487,-357.7 487,-379.7 557,-379.7 557,-357.7 487,-357.7"/>
<image xlink:href="../../images/primaryKeys.png" width="11px" height="12px" preserveAspectRatio="xMinYMin meet" x="492" y="-374.7"/>
<text text-anchor="start" x="509" y="-364.8" font-family="Helvetica,sans-Serif" font-size="11.00" fill="#000000">明細番号</text>
<polygon fill="#ffffff" stroke="transparent" points="487,-335.7 487,-357.7 557,-357.7 557,-335.7 487,-335.7"/>
<polygon fill="none" stroke="#000000" points="487,-335.7 487,-357.7 557,-357.7 557,-335.7 487,-335.7"/>
<image xlink:href="../../images/foreignKeys.png" width="11px" height="12px" preserveAspectRatio="xMinYMin meet" x="492" y="-352.7"/>
<text text-anchor="start" x="500.0547" y="-342.8" font-family="Helvetica,sans-Serif" font-size="11.00" fill="#000000">商品コード</text>
<polygon fill="#ffffff" stroke="transparent" points="487,-313.7 487,-335.7 557,-335.7 557,-313.7 487,-313.7"/>
<polygon fill="none" stroke="#000000" points="487,-313.7 487,-335.7 557,-335.7 557,-313.7 487,-313.7"/>
<text text-anchor="start" x="506.3731" y="-320.8" font-family="Helvetica,sans-Serif" font-size="11.00" fill="#000000">請求番号</text>
<polygon fill="none" stroke="#000000" points="487,-294.7 487,-313.7 557,-313.7 557,-294.7 487,-294.7"/>
<text text-anchor="start" x="490" y="-300.8" font-family="Helvetica,sans-Serif" font-size="11.00" fill="#000000">...</text>
<polygon fill="#ffffff" stroke="transparent" points="487,-275.7 487,-294.7 557,-294.7 557,-275.7 487,-275.7"/>
<polygon fill="none" stroke="#000000" points="487,-275.7 487,-294.7 557,-294.7 557,-275.7 487,-275.7"/>
<polygon fill="#ffffff" stroke="transparent" points="488,-276.7 488,-293.7 517,-293.7 517,-276.7 488,-276.7"/>
<text text-anchor="start" x="490" y="-281.8" font-family="Helvetica,sans-Serif" font-size="11.00" fill="#000000">&lt; 2</text>
<polygon fill="#ffffff" stroke="transparent" points="517,-276.7 517,-293.7 537,-293.7 537,-276.7 517,-276.7"/>
<text text-anchor="start" x="523.9431" y="-281.8" font-family="Helvetica,sans-Serif" font-size="11.00" fill="#000000"> &#160;</text>
<polygon fill="#ffffff" stroke="transparent" points="537,-276.7 537,-293.7 556,-293.7 556,-276.7 537,-276.7"/>
<text text-anchor="start" x="547.8862" y="-281.8" font-family="Helvetica,sans-Serif" font-size="11.00" fill="#000000"> &#160;</text>
<polygon fill="#000000" stroke="#000000" points="517,-276.7 517,-293.7 517,-293.7 517,-276.7 517,-276.7"/>
<polygon fill="#000000" stroke="#000000" points="537,-276.7 537,-293.7 537,-293.7 537,-276.7 537,-276.7"/>
</a>
</g>
</g>
<!-- 売上明細&#45;&gt;売上 -->
<g id="edge7" class="edge">
<title>売上明細:w&#45;&gt;売上:e</title>
<path fill="none" stroke="#000000" d="M472.4203,-390.7C460.5435,-390.7 453.158,-390.7 436.5,-390.7"/>
<polygon fill="#000000" stroke="#000000" points="479,-390.7001 487,-394.3 483,-390.7 487,-390.7 487,-390.7 487,-390.7 483,-390.7 487,-387.1 479,-390.7001 479,-390.7001"/>
<ellipse fill="none" stroke="#000000" cx="475.8" cy="-390.7001" rx="3.2" ry="3.2"/>
</g>
</g>
</svg>
