<?xml version="1.0" encoding="UTF-8" standalone="no"?>
<!DOCTYPE svg PUBLIC "-//W3C//DTD SVG 1.1//EN"
 "http://www.w3.org/Graphics/SVG/1.1/DTD/svg11.dtd">
<!-- Generated by graphviz version 2.40.1 (20161225.0304)
 -->
<!-- Title: twoDegreesRelationshipsDiagram Pages: 1 -->
<svg width="849pt" height="701pt"
 viewBox="0.00 0.00 849.00 700.70" xmlns="http://www.w3.org/2000/svg" xmlns:xlink="http://www.w3.org/1999/xlink">
<g id="graph0" class="graph" transform="scale(1 1) rotate(0) translate(4 696.7)">
<title>twoDegreesRelationshipsDiagram</title>
<polygon fill="#ffffff" stroke="transparent" points="-4,4 -4,-696.7 845,-696.7 845,4 -4,4"/>
<text text-anchor="middle" x="72.4936" y="-7.3" font-family="Helvetica,sans-Serif" font-size="11.00" fill="#000000">Generated by SchemaSpy</text>
<!-- 与信残高 -->
<g id="node1" class="node">
<title>与信残高</title>
<g id="a_node1"><a xlink:href="../../tables/_____24b4cb80.html" xlink:title="与信残高" target="_top">
<polygon fill="#ffffff" stroke="transparent" points="329.5,-627.7 329.5,-688.7 399.5,-688.7 399.5,-627.7 329.5,-627.7"/>
<polygon fill="#f5f5f5" stroke="transparent" points="329.5,-665.2 329.5,-688.2 399.5,-688.2 399.5,-665.2 329.5,-665.2"/>
<polygon fill="none" stroke="#000000" points="329.5,-665.2 329.5,-688.2 399.5,-688.2 399.5,-665.2 329.5,-665.2"/>
<text text-anchor="start" x="322.3321" y="-673.8" font-family="Helvetica,sans-Serif" font-weight="bold" font-size="11.00" fill="#000000">与信残高</text>
<text text-anchor="start" x="365.0219" y="-673.3" font-family="Helvetica,sans-Serif" font-size="11.00" fill="#000000">[table]</text>
<polygon fill="none" stroke="#000000" points="329.5,-646.2 329.5,-665.2 399.5,-665.2 399.5,-646.2 329.5,-646.2"/>
<text text-anchor="start" x="332.5" y="-652.3" font-family="Helvetica,sans-Serif" font-size="11.00" fill="#000000">...</text>
<polygon fill="#ffffff" stroke="transparent" points="329.5,-627.2 329.5,-646.2 399.5,-646.2 399.5,-627.2 329.5,-627.2"/>
<polygon fill="none" stroke="#000000" points="329.5,-627.2 329.5,-646.2 399.5,-646.2 399.5,-627.2 329.5,-627.2"/>
<polygon fill="#ffffff" stroke="transparent" points="330.5,-628.2 330.5,-645.2 359.5,-645.2 359.5,-628.2 330.5,-628.2"/>
<text text-anchor="start" x="332.5" y="-633.3" font-family="Helvetica,sans-Serif" font-size="11.00" fill="#000000">&lt; 1</text>
<polygon fill="#ffffff" stroke="transparent" points="359.5,-628.2 359.5,-645.2 379.5,-645.2 379.5,-628.2 359.5,-628.2"/>
<text text-anchor="start" x="366.4431" y="-633.3" font-family="Helvetica,sans-Serif" font-size="11.00" fill="#000000"> &#160;</text>
<polygon fill="#ffffff" stroke="transparent" points="379.5,-628.2 379.5,-645.2 398.5,-645.2 398.5,-628.2 379.5,-628.2"/>
<text text-anchor="start" x="390.3862" y="-633.3" font-family="Helvetica,sans-Serif" font-size="11.00" fill="#000000"> &#160;</text>
<polygon fill="#000000" stroke="#000000" points="359.5,-628.2 359.5,-645.2 359.5,-645.2 359.5,-628.2 359.5,-628.2"/>
<polygon fill="#000000" stroke="#000000" points="379.5,-628.2 379.5,-645.2 379.5,-645.2 379.5,-628.2 379.5,-628.2"/>
</a>
</g>
</g>
<!-- 取引先マスタ -->
<g id="node2" class="node">
<title>取引先マスタ</title>
<g id="a_node2"><a xlink:href="../../tables/_______70f9c0bb.html" xlink:title="取引先マスタ" target="_top">
<polygon fill="#ffffff" stroke="transparent" points="174,-454.7 174,-581.7 273,-581.7 273,-454.7 174,-454.7"/>
<polygon fill="#f5f5f5" stroke="transparent" points="174.5,-558.2 174.5,-581.2 273.5,-581.2 273.5,-558.2 174.5,-558.2"/>
<polygon fill="none" stroke="#000000" points="174.5,-558.2 174.5,-581.2 273.5,-581.2 273.5,-558.2 174.5,-558.2"/>
<text text-anchor="start" x="165.3644" y="-566.8" font-family="Helvetica,sans-Serif" font-weight="bold" font-size="11.00" fill="#000000">取引先マスタ</text>
<text text-anchor="start" x="238.5437" y="-566.3" font-family="Helvetica,sans-Serif" font-size="11.00" fill="#000000">[table]</text>
<polygon fill="none" stroke="#000000" points="174.5,-536.2 174.5,-558.2 273.5,-558.2 273.5,-536.2 174.5,-536.2"/>
<image xlink:href="../../images/primaryKeys.png" width="11px" height="12px" preserveAspectRatio="xMinYMin meet" x="179.5" y="-553.2"/>
<text text-anchor="start" x="192.9978" y="-543.3" font-family="Helvetica,sans-Serif" font-size="11.00" fill="#000000">取引先コード</text>
<polygon fill="#ffffff" stroke="transparent" points="174.5,-514.2 174.5,-536.2 273.5,-536.2 273.5,-514.2 174.5,-514.2"/>
<polygon fill="none" stroke="#000000" points="174.5,-514.2 174.5,-536.2 273.5,-536.2 273.5,-514.2 174.5,-514.2"/>
<text text-anchor="start" x="194.5" y="-521.3" font-family="Helvetica,sans-Serif" font-size="11.00" fill="#000000">取引先名</text>
<polygon fill="#ffffff" stroke="transparent" points="174.5,-492.2 174.5,-514.2 273.5,-514.2 273.5,-492.2 174.5,-492.2"/>
<polygon fill="none" stroke="#000000" points="174.5,-492.2 174.5,-514.2 273.5,-514.2 273.5,-492.2 174.5,-492.2"/>
<image xlink:href="../../images/foreignKeys.png" width="11px" height="12px" preserveAspectRatio="xMinYMin meet" x="179.5" y="-509.2"/>
<text text-anchor="start" x="167.1318" y="-499.3" font-family="Helvetica,sans-Serif" font-size="11.00" fill="#000000">取引先グループコード</text>
<polygon fill="none" stroke="#000000" points="174.5,-473.2 174.5,-492.2 273.5,-492.2 273.5,-473.2 174.5,-473.2"/>
<text text-anchor="start" x="177.5" y="-479.3" font-family="Helvetica,sans-Serif" font-size="11.00" fill="#000000">...</text>
<polygon fill="#ffffff" stroke="transparent" points="174.5,-454.2 174.5,-473.2 273.5,-473.2 273.5,-454.2 174.5,-454.2"/>
<polygon fill="none" stroke="#000000" points="174.5,-454.2 174.5,-473.2 273.5,-473.2 273.5,-454.2 174.5,-454.2"/>
<polygon fill="#ffffff" stroke="transparent" points="175.5,-455.2 175.5,-472.2 211.5,-472.2 211.5,-455.2 175.5,-455.2"/>
<text text-anchor="start" x="177.5" y="-460.3" font-family="Helvetica,sans-Serif" font-size="11.00" fill="#000000">&lt; 1</text>
<polygon fill="#ffffff" stroke="transparent" points="211.5,-455.2 211.5,-472.2 237.5,-472.2 237.5,-455.2 211.5,-455.2"/>
<text text-anchor="start" x="221.4431" y="-460.3" font-family="Helvetica,sans-Serif" font-size="11.00" fill="#000000"> &#160;</text>
<polygon fill="#ffffff" stroke="transparent" points="237.5,-455.2 237.5,-472.2 272.5,-472.2 272.5,-455.2 237.5,-455.2"/>
<text text-anchor="start" x="254.9053" y="-460.3" font-family="Helvetica,sans-Serif" font-size="11.00" fill="#000000">4 &gt;</text>
<polygon fill="#000000" stroke="#000000" points="211.5,-455.2 211.5,-472.2 211.5,-472.2 211.5,-455.2 211.5,-455.2"/>
<polygon fill="#000000" stroke="#000000" points="237.5,-455.2 237.5,-472.2 237.5,-472.2 237.5,-455.2 237.5,-455.2"/>
</a>
</g>
</g>
<!-- 与信残高&#45;&gt;取引先マスタ -->
<g id="edge1" class="edge">
<title>与信残高:w&#45;&gt;取引先マスタ:e</title>
<path fill="none" stroke="#000000" d="M319.1295,-653.5036C282.5852,-639.7637 323.5561,-547.2 273.5,-547.2"/>
<polygon fill="#000000" stroke="#000000" points="329.3563,-651.1233 328.0647,-659.0184 326.4857,-658.7601 327.7773,-650.865 329.3563,-651.1233"/>
<polyline fill="none" stroke="#000000" points="329.5,-655.2 325.5525,-654.5542 "/>
<ellipse fill="none" stroke="#000000" cx="322.3944" cy="-654.0376" rx="3.2" ry="3.2"/>
</g>
<!-- 取引先グループマスタ -->
<g id="node4" class="node">
<title>取引先グループマスタ</title>
<g id="a_node4"><a xlink:href="../../tables/___________d6a542a5.html" xlink:title="取引先グループマスタ" target="_top">
<polygon fill="#ffffff" stroke="transparent" points="8,-475.7 8,-536.7 125,-536.7 125,-475.7 8,-475.7"/>
<polygon fill="#f5f5f5" stroke="transparent" points="8.5,-513.2 8.5,-536.2 125.5,-536.2 125.5,-513.2 8.5,-513.2"/>
<polygon fill="none" stroke="#000000" points="8.5,-513.2 8.5,-536.2 125.5,-536.2 125.5,-513.2 8.5,-513.2"/>
<text text-anchor="start" x="-10.5016" y="-521.8" font-family="Helvetica,sans-Serif" font-weight="bold" font-size="11.00" fill="#000000">取引先グループマスタ</text>
<text text-anchor="start" x="91.0219" y="-521.3" font-family="Helvetica,sans-Serif" font-size="11.00" fill="#000000">[table]</text>
<polygon fill="none" stroke="#000000" points="8.5,-494.2 8.5,-513.2 125.5,-513.2 125.5,-494.2 8.5,-494.2"/>
<text text-anchor="start" x="11.5" y="-500.3" font-family="Helvetica,sans-Serif" font-size="11.00" fill="#000000">...</text>
<polygon fill="#ffffff" stroke="transparent" points="8.5,-475.2 8.5,-494.2 125.5,-494.2 125.5,-475.2 8.5,-475.2"/>
<polygon fill="none" stroke="#000000" points="8.5,-475.2 8.5,-494.2 125.5,-494.2 125.5,-475.2 8.5,-475.2"/>
<polygon fill="#ffffff" stroke="transparent" points="9.5,-476.2 9.5,-493.2 45.5,-493.2 45.5,-476.2 9.5,-476.2"/>
<text text-anchor="start" x="11.5" y="-481.3" font-family="Helvetica,sans-Serif" font-size="11.00" fill="#000000"> &#160;</text>
<polygon fill="#ffffff" stroke="transparent" points="45.5,-476.2 45.5,-493.2 80.5,-493.2 80.5,-476.2 45.5,-476.2"/>
<text text-anchor="start" x="59.9431" y="-481.3" font-family="Helvetica,sans-Serif" font-size="11.00" fill="#000000"> &#160;</text>
<polygon fill="#ffffff" stroke="transparent" points="80.5,-476.2 80.5,-493.2 124.5,-493.2 124.5,-476.2 80.5,-476.2"/>
<text text-anchor="start" x="106.9053" y="-481.3" font-family="Helvetica,sans-Serif" font-size="11.00" fill="#000000">1 &gt;</text>
<polygon fill="#000000" stroke="#000000" points="45.5,-476.2 45.5,-493.2 45.5,-493.2 45.5,-476.2 45.5,-476.2"/>
<polygon fill="#000000" stroke="#000000" points="80.5,-476.2 80.5,-493.2 80.5,-493.2 80.5,-476.2 80.5,-476.2"/>
</a>
</g>
</g>
<!-- 取引先マスタ&#45;&gt;取引先グループマスタ -->
<g id="edge3" class="edge">
<title>取引先マスタ:w&#45;&gt;取引先グループマスタ:e</title>
<path fill="none" stroke="#000000" d="M159.9909,-503.2C148.6774,-503.2 141.4931,-503.2 125.5,-503.2"/>
<polygon fill="#000000" stroke="#000000" points="166.5,-503.2001 174.5,-506.8 170.5,-503.2 174.5,-503.2 174.5,-503.2 174.5,-503.2 170.5,-503.2 174.5,-499.6 166.5,-503.2001 166.5,-503.2001"/>
<ellipse fill="none" stroke="#000000" cx="163.3" cy="-503.2001" rx="3.2" ry="3.2"/>
</g>
<!-- 仕入先マスタ -->
<g id="node3" class="node">
<title>仕入先マスタ</title>
<g id="a_node3"><a xlink:href="../../tables/_______2628176c.html" xlink:title="仕入先マスタ" target="_top">
<polygon fill="#ffffff" stroke="transparent" points="322,-545.7 322,-606.7 407,-606.7 407,-545.7 322,-545.7"/>
<polygon fill="#f5f5f5" stroke="transparent" points="322.5,-583.2 322.5,-606.2 407.5,-606.2 407.5,-583.2 322.5,-583.2"/>
<polygon fill="none" stroke="#000000" points="322.5,-583.2 322.5,-606.2 407.5,-606.2 407.5,-583.2 322.5,-583.2"/>
<text text-anchor="start" x="314.2779" y="-591.8" font-family="Helvetica,sans-Serif" font-weight="bold" font-size="11.00" fill="#000000">仕入先マスタ</text>
<text text-anchor="start" x="373.0219" y="-591.3" font-family="Helvetica,sans-Serif" font-size="11.00" fill="#000000">[table]</text>
<polygon fill="none" stroke="#000000" points="322.5,-564.2 322.5,-583.2 407.5,-583.2 407.5,-564.2 322.5,-564.2"/>
<text text-anchor="start" x="325.5" y="-570.3" font-family="Helvetica,sans-Serif" font-size="11.00" fill="#000000">...</text>
<polygon fill="#ffffff" stroke="transparent" points="322.5,-545.2 322.5,-564.2 407.5,-564.2 407.5,-545.2 322.5,-545.2"/>
<polygon fill="none" stroke="#000000" points="322.5,-545.2 322.5,-564.2 407.5,-564.2 407.5,-545.2 322.5,-545.2"/>
<polygon fill="#ffffff" stroke="transparent" points="323.5,-546.2 323.5,-563.2 357.5,-563.2 357.5,-546.2 323.5,-546.2"/>
<text text-anchor="start" x="325.5" y="-551.3" font-family="Helvetica,sans-Serif" font-size="11.00" fill="#000000">&lt; 1</text>
<polygon fill="#ffffff" stroke="transparent" points="357.5,-546.2 357.5,-563.2 382.5,-563.2 382.5,-546.2 357.5,-546.2"/>
<text text-anchor="start" x="366.9431" y="-551.3" font-family="Helvetica,sans-Serif" font-size="11.00" fill="#000000"> &#160;</text>
<polygon fill="#ffffff" stroke="transparent" points="382.5,-546.2 382.5,-563.2 406.5,-563.2 406.5,-546.2 382.5,-546.2"/>
<text text-anchor="start" x="398.3862" y="-551.3" font-family="Helvetica,sans-Serif" font-size="11.00" fill="#000000"> &#160;</text>
<polygon fill="#000000" stroke="#000000" points="357.5,-546.2 357.5,-563.2 357.5,-563.2 357.5,-546.2 357.5,-546.2"/>
<polygon fill="#000000" stroke="#000000" points="382.5,-546.2 382.5,-563.2 382.5,-563.2 382.5,-546.2 382.5,-546.2"/>
</a>
</g>
</g>
<!-- 仕入先マスタ&#45;&gt;取引先マスタ -->
<g id="edge2" class="edge">
<title>仕入先マスタ:w&#45;&gt;取引先マスタ:e</title>
<path fill="none" stroke="#000000" d="M308.2707,-569.3636C296.5311,-562.1313 292.1828,-547.2 273.5,-547.2"/>
<polygon fill="#000000" stroke="#000000" points="314.7758,-571.1174 321.5628,-576.6759 318.6379,-572.1587 322.5,-573.2 322.5,-573.2 322.5,-573.2 318.6379,-572.1587 323.4372,-569.7241 314.7758,-571.1174 314.7758,-571.1174"/>
<ellipse fill="none" stroke="#000000" cx="311.6861" cy="-570.2844" rx="3.2" ry="3.2"/>
</g>
<!-- 受注 -->
<g id="node5" class="node">
<title>受注</title>
<g id="a_node5"><a xlink:href="../../tables/___a93f1.html" xlink:title="受注" target="_top">
<polygon fill="#ffffff" stroke="transparent" points="456,-350.7 456,-411.7 510,-411.7 510,-350.7 456,-350.7"/>
<polygon fill="#f5f5f5" stroke="transparent" points="456,-388.2 456,-411.2 510,-411.2 510,-388.2 456,-388.2"/>
<polygon fill="none" stroke="#000000" points="456,-388.2 456,-411.2 510,-411.2 510,-388.2 456,-388.2"/>
<text text-anchor="start" x="454.2713" y="-396.8" font-family="Helvetica,sans-Serif" font-weight="bold" font-size="11.00" fill="#000000">受注</text>
<text text-anchor="start" x="475.5219" y="-396.3" font-family="Helvetica,sans-Serif" font-size="11.00" fill="#000000">[table]</text>
<polygon fill="none" stroke="#000000" points="456,-369.2 456,-388.2 510,-388.2 510,-369.2 456,-369.2"/>
<text text-anchor="start" x="459" y="-375.3" font-family="Helvetica,sans-Serif" font-size="11.00" fill="#000000">...</text>
<polygon fill="#ffffff" stroke="transparent" points="456,-350.2 456,-369.2 510,-369.2 510,-350.2 456,-350.2"/>
<polygon fill="none" stroke="#000000" points="456,-350.2 456,-369.2 510,-369.2 510,-350.2 456,-350.2"/>
<polygon fill="#ffffff" stroke="transparent" points="457,-351.2 457,-368.2 478,-368.2 478,-351.2 457,-351.2"/>
<text text-anchor="start" x="459" y="-356.3" font-family="Helvetica,sans-Serif" font-size="11.00" fill="#000000">&lt; 5</text>
<polygon fill="#ffffff" stroke="transparent" points="478,-351.2 478,-368.2 489,-368.2 489,-351.2 478,-351.2"/>
<text text-anchor="start" x="480.4431" y="-356.3" font-family="Helvetica,sans-Serif" font-size="11.00" fill="#000000"> &#160;</text>
<polygon fill="#ffffff" stroke="transparent" points="489,-351.2 489,-368.2 509,-368.2 509,-351.2 489,-351.2"/>
<text text-anchor="start" x="491.4053" y="-356.3" font-family="Helvetica,sans-Serif" font-size="11.00" fill="#000000">2 &gt;</text>
<polygon fill="#000000" stroke="#000000" points="478,-351.2 478,-368.2 478,-368.2 478,-351.2 478,-351.2"/>
<polygon fill="#000000" stroke="#000000" points="489,-351.2 489,-368.2 489,-368.2 489,-351.2 489,-351.2"/>
</a>
</g>
</g>
<!-- 社員マスタ -->
<g id="node6" class="node">
<title>社員マスタ</title>
<g id="a_node6"><a xlink:href="../../tables/______d3d8a641.html" xlink:title="社員マスタ" target="_top">
<polygon fill="#ffffff" stroke="transparent" points="325.5,-353.7 325.5,-414.7 403.5,-414.7 403.5,-353.7 325.5,-353.7"/>
<polygon fill="#f5f5f5" stroke="transparent" points="325.5,-391.2 325.5,-414.2 403.5,-414.2 403.5,-391.2 325.5,-391.2"/>
<polygon fill="none" stroke="#000000" points="325.5,-391.2 325.5,-414.2 403.5,-414.2 403.5,-391.2 325.5,-391.2"/>
<text text-anchor="start" x="321.7293" y="-399.8" font-family="Helvetica,sans-Serif" font-weight="bold" font-size="11.00" fill="#000000">社員マスタ</text>
<text text-anchor="start" x="369.0219" y="-399.3" font-family="Helvetica,sans-Serif" font-size="11.00" fill="#000000">[table]</text>
<polygon fill="none" stroke="#000000" points="325.5,-372.2 325.5,-391.2 403.5,-391.2 403.5,-372.2 325.5,-372.2"/>
<text text-anchor="start" x="328.5" y="-378.3" font-family="Helvetica,sans-Serif" font-size="11.00" fill="#000000">...</text>
<polygon fill="#ffffff" stroke="transparent" points="325.5,-353.2 325.5,-372.2 403.5,-372.2 403.5,-353.2 325.5,-353.2"/>
<polygon fill="none" stroke="#000000" points="325.5,-353.2 325.5,-372.2 403.5,-372.2 403.5,-353.2 325.5,-353.2"/>
<polygon fill="#ffffff" stroke="transparent" points="326.5,-354.2 326.5,-371.2 355.5,-371.2 355.5,-354.2 326.5,-354.2"/>
<text text-anchor="start" x="328.5" y="-359.3" font-family="Helvetica,sans-Serif" font-size="11.00" fill="#000000">&lt; 1</text>
<polygon fill="#ffffff" stroke="transparent" points="355.5,-354.2 355.5,-371.2 374.5,-371.2 374.5,-354.2 355.5,-354.2"/>
<text text-anchor="start" x="361.9431" y="-359.3" font-family="Helvetica,sans-Serif" font-size="11.00" fill="#000000"> &#160;</text>
<polygon fill="#ffffff" stroke="transparent" points="374.5,-354.2 374.5,-371.2 402.5,-371.2 402.5,-354.2 374.5,-354.2"/>
<text text-anchor="start" x="384.9053" y="-359.3" font-family="Helvetica,sans-Serif" font-size="11.00" fill="#000000">1 &gt;</text>
<polygon fill="#000000" stroke="#000000" points="355.5,-354.2 355.5,-371.2 355.5,-371.2 355.5,-354.2 355.5,-354.2"/>
<polygon fill="#000000" stroke="#000000" points="374.5,-354.2 374.5,-371.2 374.5,-371.2 374.5,-354.2 374.5,-354.2"/>
</a>
</g>
</g>
<!-- 受注&#45;&gt;社員マスタ -->
<g id="edge4" class="edge">
<title>受注:w&#45;&gt;社員マスタ:e</title>
<path fill="none" stroke="#000000" d="M433.2662,-381.2C423.4027,-381.2 413.1237,-381.2 403.5,-381.2"/>
<polygon fill="#000000" stroke="#000000" points="439.7776,-381.2001 447.7776,-384.8 443.7776,-381.2 447.7776,-381.2 447.7776,-381.2 447.7776,-381.2 443.7776,-381.2 447.7776,-377.6 439.7776,-381.2001 439.7776,-381.2001"/>
<ellipse fill="none" stroke="#000000" cx="436.5776" cy="-381.2001" rx="3.2" ry="3.2"/>
</g>
<!-- 部門マスタ -->
<g id="node7" class="node">
<title>部門マスタ</title>
<g id="a_node7"><a xlink:href="../../tables/______3eb0dfec.html" xlink:title="部門マスタ" target="_top">
<polygon fill="#ffffff" stroke="transparent" points="184.5,-292.7 184.5,-353.7 262.5,-353.7 262.5,-292.7 184.5,-292.7"/>
<polygon fill="#f5f5f5" stroke="transparent" points="184.5,-330.2 184.5,-353.2 262.5,-353.2 262.5,-330.2 184.5,-330.2"/>
<polygon fill="none" stroke="#000000" points="184.5,-330.2 184.5,-353.2 262.5,-353.2 262.5,-330.2 184.5,-330.2"/>
<text text-anchor="start" x="173.3923" y="-338.8" font-family="Helvetica,sans-Serif" font-weight="bold" font-size="11.00" fill="#000000">部門マスタ</text>
<text text-anchor="start" x="228.0219" y="-338.3" font-family="Helvetica,sans-Serif" font-size="11.00" fill="#000000">[table]</text>
<polygon fill="none" stroke="#000000" points="184.5,-311.2 184.5,-330.2 262.5,-330.2 262.5,-311.2 184.5,-311.2"/>
<text text-anchor="start" x="187.5" y="-317.3" font-family="Helvetica,sans-Serif" font-size="11.00" fill="#000000">...</text>
<polygon fill="#ffffff" stroke="transparent" points="184.5,-292.2 184.5,-311.2 262.5,-311.2 262.5,-292.2 184.5,-292.2"/>
<polygon fill="none" stroke="#000000" points="184.5,-292.2 184.5,-311.2 262.5,-311.2 262.5,-292.2 184.5,-292.2"/>
<polygon fill="#ffffff" stroke="transparent" points="185.5,-293.2 185.5,-310.2 208.5,-310.2 208.5,-293.2 185.5,-293.2"/>
<text text-anchor="start" x="187.5" y="-298.3" font-family="Helvetica,sans-Serif" font-size="11.00" fill="#000000"> &#160;</text>
<polygon fill="#ffffff" stroke="transparent" points="208.5,-293.2 208.5,-310.2 230.5,-310.2 230.5,-293.2 208.5,-293.2"/>
<text text-anchor="start" x="216.4431" y="-298.3" font-family="Helvetica,sans-Serif" font-size="11.00" fill="#000000"> &#160;</text>
<polygon fill="#ffffff" stroke="transparent" points="230.5,-293.2 230.5,-310.2 261.5,-310.2 261.5,-293.2 230.5,-293.2"/>
<text text-anchor="start" x="243.9053" y="-298.3" font-family="Helvetica,sans-Serif" font-size="11.00" fill="#000000">5 &gt;</text>
<polygon fill="#000000" stroke="#000000" points="208.5,-293.2 208.5,-310.2 208.5,-310.2 208.5,-293.2 208.5,-293.2"/>
<polygon fill="#000000" stroke="#000000" points="230.5,-293.2 230.5,-310.2 230.5,-310.2 230.5,-293.2 230.5,-293.2"/>
</a>
</g>
</g>
<!-- 受注&#45;&gt;部門マスタ -->
<g id="edge5" class="edge">
<title>受注:w&#45;&gt;部門マスタ:e</title>
<path fill="none" stroke="#000000" d="M435.1755,-345.4256C428.5778,-342.1896 421.7473,-339.3378 415,-337.2 367.36,-322.1061 310.0533,-317.8207 270.6174,-318.0623"/>
<polygon fill="#000000" stroke="#000000" points="440.8421,-348.4744 446.1813,-355.4352 444.3646,-350.3697 447.8871,-352.2649 447.8871,-352.2649 447.8871,-352.2649 444.3646,-350.3697 449.5928,-349.0947 440.8421,-348.4744 440.8421,-348.4744"/>
<ellipse fill="none" stroke="#000000" cx="438.0241" cy="-346.9582" rx="3.2" ry="3.2"/>
</g>
<!-- 受注&#45;&gt;部門マスタ -->
<g id="edge6" class="edge">
<title>受注:w&#45;&gt;部門マスタ:e</title>
<path fill="none" stroke="#000000" d="M434.9183,-358.1929C428.4004,-355.1157 421.6596,-352.31 415,-350.2 367.36,-335.1061 310.0533,-330.8207 270.6174,-328.4732"/>
<polygon fill="#000000" stroke="#000000" points="440.7488,-361.1429 446.2618,-367.9669 444.3179,-362.9488 447.8871,-364.7547 447.8871,-364.7547 447.8871,-364.7547 444.3179,-362.9488 449.5124,-361.5425 440.7488,-361.1429 440.7488,-361.1429"/>
<ellipse fill="none" stroke="#000000" cx="437.8935" cy="-359.6982" rx="3.2" ry="3.2"/>
</g>
<!-- 顧客マスタ -->
<g id="node8" class="node">
<title>顧客マスタ</title>
<g id="a_node8"><a xlink:href="../../tables/______8e04fe89.html" xlink:title="顧客マスタ" target="_top">
<polygon fill="#ffffff" stroke="transparent" points="325.5,-435.7 325.5,-496.7 403.5,-496.7 403.5,-435.7 325.5,-435.7"/>
<polygon fill="#f5f5f5" stroke="transparent" points="325.5,-473.2 325.5,-496.2 403.5,-496.2 403.5,-473.2 325.5,-473.2"/>
<polygon fill="none" stroke="#000000" points="325.5,-473.2 325.5,-496.2 403.5,-496.2 403.5,-473.2 325.5,-473.2"/>
<text text-anchor="start" x="314.0892" y="-481.8" font-family="Helvetica,sans-Serif" font-weight="bold" font-size="11.00" fill="#000000">顧客マスタ</text>
<text text-anchor="start" x="369.0219" y="-481.3" font-family="Helvetica,sans-Serif" font-size="11.00" fill="#000000">[table]</text>
<polygon fill="none" stroke="#000000" points="325.5,-454.2 325.5,-473.2 403.5,-473.2 403.5,-454.2 325.5,-454.2"/>
<text text-anchor="start" x="328.5" y="-460.3" font-family="Helvetica,sans-Serif" font-size="11.00" fill="#000000">...</text>
<polygon fill="#ffffff" stroke="transparent" points="325.5,-435.2 325.5,-454.2 403.5,-454.2 403.5,-435.2 325.5,-435.2"/>
<polygon fill="none" stroke="#000000" points="325.5,-435.2 325.5,-454.2 403.5,-454.2 403.5,-435.2 325.5,-435.2"/>
<polygon fill="#ffffff" stroke="transparent" points="326.5,-436.2 326.5,-453.2 355.5,-453.2 355.5,-436.2 326.5,-436.2"/>
<text text-anchor="start" x="328.5" y="-441.3" font-family="Helvetica,sans-Serif" font-size="11.00" fill="#000000">&lt; 1</text>
<polygon fill="#ffffff" stroke="transparent" points="355.5,-436.2 355.5,-453.2 374.5,-453.2 374.5,-436.2 355.5,-436.2"/>
<text text-anchor="start" x="361.9431" y="-441.3" font-family="Helvetica,sans-Serif" font-size="11.00" fill="#000000"> &#160;</text>
<polygon fill="#ffffff" stroke="transparent" points="374.5,-436.2 374.5,-453.2 402.5,-453.2 402.5,-436.2 374.5,-436.2"/>
<text text-anchor="start" x="384.9053" y="-441.3" font-family="Helvetica,sans-Serif" font-size="11.00" fill="#000000">2 &gt;</text>
<polygon fill="#000000" stroke="#000000" points="355.5,-436.2 355.5,-453.2 355.5,-453.2 355.5,-436.2 355.5,-436.2"/>
<polygon fill="#000000" stroke="#000000" points="374.5,-436.2 374.5,-453.2 374.5,-453.2 374.5,-436.2 374.5,-436.2"/>
</a>
</g>
</g>
<!-- 受注&#45;&gt;顧客マスタ -->
<g id="edge7" class="edge">
<title>受注:w&#45;&gt;顧客マスタ:e</title>
<path fill="none" stroke="#000000" d="M455.2086,-427.7007C442.1668,-444.8335 424.7659,-460.6863 403.5,-463.2"/>
<polygon fill="#000000" stroke="#000000" points="458.9532,-422.3411 466.4861,-417.845 461.2441,-419.0621 463.5351,-415.7831 463.5351,-415.7831 463.5351,-415.7831 461.2441,-419.0621 460.584,-413.7213 458.9532,-422.3411 458.9532,-422.3411"/>
<ellipse fill="none" stroke="#000000" cx="457.1204" cy="-424.9643" rx="3.2" ry="3.2"/>
</g>
<!-- 受注&#45;&gt;顧客マスタ -->
<g id="edge8" class="edge">
<title>受注:w&#45;&gt;顧客マスタ:e</title>
<path fill="none" stroke="#000000" d="M461.6061,-428.4695C448.0939,-448.5664 428.459,-466.6419 403.5,-463.2"/>
<polygon fill="#000000" stroke="#000000" points="465.0832,-422.7161 472.3021,-417.7314 467.1521,-419.2927 469.2211,-415.8693 469.2211,-415.8693 469.2211,-415.8693 467.1521,-419.2927 466.14,-414.0073 465.0832,-422.7161 465.0832,-422.7161"/>
<ellipse fill="none" stroke="#000000" cx="463.428" cy="-425.4548" rx="3.2" ry="3.2"/>
</g>
<!-- 社員マスタ&#45;&gt;部門マスタ -->
<g id="edge17" class="edge">
<title>社員マスタ:w&#45;&gt;部門マスタ:e</title>
<path fill="none" stroke="#000000" d="M311.0243,-379.7838C293.5568,-376.4478 276.8692,-367.642 262.8377,-357.9434"/>
<polygon fill="#000000" stroke="#000000" points="317.538,-380.421 325.1495,-384.7829 321.519,-380.8105 325.5,-381.2 325.5,-381.2 325.5,-381.2 321.519,-380.8105 325.8505,-377.6171 317.538,-380.421 317.538,-380.421"/>
<ellipse fill="none" stroke="#000000" cx="314.3532" cy="-380.1094" rx="3.2" ry="3.2"/>
</g>
<!-- 顧客マスタ&#45;&gt;取引先マスタ -->
<g id="edge18" class="edge">
<title>顧客マスタ:w&#45;&gt;取引先マスタ:e</title>
<path fill="none" stroke="#000000" d="M311.554,-467.4811C289.8953,-484.5986 311.4048,-547.2 273.5,-547.2"/>
<polygon fill="#000000" stroke="#000000" points="317.8522,-465.5477 326.5565,-466.6415 321.6761,-464.3739 325.5,-463.2 325.5,-463.2 325.5,-463.2 321.6761,-464.3739 324.4435,-459.7585 317.8522,-465.5477 317.8522,-465.5477"/>
<ellipse fill="none" stroke="#000000" cx="314.7931" cy="-466.4868" rx="3.2" ry="3.2"/>
</g>
<!-- 受注明細 -->
<g id="node9" class="node">
<title>受注明細</title>
<g id="a_node9"><a xlink:href="../../tables/_____27c23493.html" xlink:title="受注明細" target="_top">
<polygon fill="#ffffff" stroke="transparent" points="763,-464.7 763,-525.7 833,-525.7 833,-464.7 763,-464.7"/>
<polygon fill="#f5f5f5" stroke="transparent" points="763,-502.2 763,-525.2 833,-525.2 833,-502.2 763,-502.2"/>
<polygon fill="none" stroke="#000000" points="763,-502.2 763,-525.2 833,-525.2 833,-502.2 763,-502.2"/>
<text text-anchor="start" x="760.1006" y="-510.8" font-family="Helvetica,sans-Serif" font-weight="bold" font-size="11.00" fill="#000000">受注明細</text>
<text text-anchor="start" x="798.5219" y="-510.3" font-family="Helvetica,sans-Serif" font-size="11.00" fill="#000000">[table]</text>
<polygon fill="none" stroke="#000000" points="763,-483.2 763,-502.2 833,-502.2 833,-483.2 763,-483.2"/>
<text text-anchor="start" x="766" y="-489.3" font-family="Helvetica,sans-Serif" font-size="11.00" fill="#000000">...</text>
<polygon fill="#ffffff" stroke="transparent" points="763,-464.2 763,-483.2 833,-483.2 833,-464.2 763,-464.2"/>
<polygon fill="none" stroke="#000000" points="763,-464.2 763,-483.2 833,-483.2 833,-464.2 763,-464.2"/>
<polygon fill="#ffffff" stroke="transparent" points="764,-465.2 764,-482.2 793,-482.2 793,-465.2 764,-465.2"/>
<text text-anchor="start" x="766" y="-470.3" font-family="Helvetica,sans-Serif" font-size="11.00" fill="#000000">&lt; 2</text>
<polygon fill="#ffffff" stroke="transparent" points="793,-465.2 793,-482.2 813,-482.2 813,-465.2 793,-465.2"/>
<text text-anchor="start" x="799.9431" y="-470.3" font-family="Helvetica,sans-Serif" font-size="11.00" fill="#000000"> &#160;</text>
<polygon fill="#ffffff" stroke="transparent" points="813,-465.2 813,-482.2 832,-482.2 832,-465.2 813,-465.2"/>
<text text-anchor="start" x="823.8862" y="-470.3" font-family="Helvetica,sans-Serif" font-size="11.00" fill="#000000"> &#160;</text>
<polygon fill="#000000" stroke="#000000" points="793,-465.2 793,-482.2 793,-482.2 793,-465.2 793,-465.2"/>
<polygon fill="#000000" stroke="#000000" points="813,-465.2 813,-482.2 813,-482.2 813,-465.2 813,-465.2"/>
</a>
</g>
</g>
<!-- 受注明細&#45;&gt;受注 -->
<g id="edge9" class="edge">
<title>受注明細:w&#45;&gt;受注:e</title>
<path fill="none" stroke="#000000" d="M748.741,-494.9972C740.4173,-498.6556 735.1353,-504.8726 722,-507.2 647.1656,-520.4595 616.2657,-546.1409 551,-507.2 518.1265,-487.5859 500.1962,-445.9735 491.1268,-415.9273"/>
<polygon fill="#000000" stroke="#000000" points="755.1496,-493.74 763.693,-495.7327 759.0748,-492.97 763,-492.2 763,-492.2 763,-492.2 759.0748,-492.97 762.307,-488.6673 755.1496,-493.74 755.1496,-493.74"/>
<ellipse fill="none" stroke="#000000" cx="752.0095" cy="-494.3561" rx="3.2" ry="3.2"/>
</g>
<!-- 商品マスタ -->
<g id="node10" class="node">
<title>商品マスタ</title>
<g id="a_node10"><a xlink:href="../../tables/______d8ecb269.html" xlink:title="商品マスタ" target="_top">
<polygon fill="#ffffff" stroke="transparent" points="597.5,-435.7 597.5,-496.7 675.5,-496.7 675.5,-435.7 597.5,-435.7"/>
<polygon fill="#f5f5f5" stroke="transparent" points="597.5,-473.2 597.5,-496.2 675.5,-496.2 675.5,-473.2 597.5,-473.2"/>
<polygon fill="none" stroke="#000000" points="597.5,-473.2 597.5,-496.2 675.5,-496.2 675.5,-473.2 597.5,-473.2"/>
<text text-anchor="start" x="593.4213" y="-481.8" font-family="Helvetica,sans-Serif" font-weight="bold" font-size="11.00" fill="#000000">商品マスタ</text>
<text text-anchor="start" x="641.0219" y="-481.3" font-family="Helvetica,sans-Serif" font-size="11.00" fill="#000000">[table]</text>
<polygon fill="none" stroke="#000000" points="597.5,-454.2 597.5,-473.2 675.5,-473.2 675.5,-454.2 597.5,-454.2"/>
<text text-anchor="start" x="600.5" y="-460.3" font-family="Helvetica,sans-Serif" font-size="11.00" fill="#000000">...</text>
<polygon fill="#ffffff" stroke="transparent" points="597.5,-435.2 597.5,-454.2 675.5,-454.2 675.5,-435.2 597.5,-435.2"/>
<polygon fill="none" stroke="#000000" points="597.5,-435.2 597.5,-454.2 675.5,-454.2 675.5,-435.2 597.5,-435.2"/>
<polygon fill="#ffffff" stroke="transparent" points="598.5,-436.2 598.5,-453.2 627.5,-453.2 627.5,-436.2 598.5,-436.2"/>
<text text-anchor="start" x="600.5" y="-441.3" font-family="Helvetica,sans-Serif" font-size="11.00" fill="#000000">&lt; 1</text>
<polygon fill="#ffffff" stroke="transparent" points="627.5,-436.2 627.5,-453.2 646.5,-453.2 646.5,-436.2 627.5,-436.2"/>
<text text-anchor="start" x="633.9431" y="-441.3" font-family="Helvetica,sans-Serif" font-size="11.00" fill="#000000"> &#160;</text>
<polygon fill="#ffffff" stroke="transparent" points="646.5,-436.2 646.5,-453.2 674.5,-453.2 674.5,-436.2 646.5,-436.2"/>
<text text-anchor="start" x="656.9053" y="-441.3" font-family="Helvetica,sans-Serif" font-size="11.00" fill="#000000">6 &gt;</text>
<polygon fill="#000000" stroke="#000000" points="627.5,-436.2 627.5,-453.2 627.5,-453.2 627.5,-436.2 627.5,-436.2"/>
<polygon fill="#000000" stroke="#000000" points="646.5,-436.2 646.5,-453.2 646.5,-453.2 646.5,-436.2 646.5,-436.2"/>
</a>
</g>
</g>
<!-- 受注明細&#45;&gt;商品マスタ -->
<g id="edge10" class="edge">
<title>受注明細:w&#45;&gt;商品マスタ:e</title>
<path fill="none" stroke="#000000" d="M748.3841,-490.8013C719.929,-485.0084 711.0279,-463.2 675.5,-463.2"/>
<polygon fill="#000000" stroke="#000000" points="755.0364,-491.4378 762.657,-495.7836 759.0182,-491.8189 763,-492.2 763,-492.2 763,-492.2 759.0182,-491.8189 763.343,-488.6164 755.0364,-491.4378 755.0364,-491.4378"/>
<ellipse fill="none" stroke="#000000" cx="751.8509" cy="-491.133" rx="3.2" ry="3.2"/>
</g>
<!-- 売上 -->
<g id="node11" class="node">
<title>売上</title>
<g id="a_node11"><a xlink:href="../../tables/___b1358.html" xlink:title="売上" target="_top">
<polygon fill="#ffffff" stroke="transparent" points="559,-38.2 559,-414.2 714,-414.2 714,-38.2 559,-38.2"/>
<polygon fill="#f5f5f5" stroke="transparent" points="561.5,-389.2 561.5,-412.2 712.5,-412.2 712.5,-389.2 561.5,-389.2"/>
<polygon fill="none" stroke="#000000" points="561.5,-389.2 561.5,-412.2 712.5,-412.2 712.5,-389.2 561.5,-389.2"/>
<text text-anchor="start" x="560.0793" y="-397.8" font-family="Helvetica,sans-Serif" font-weight="bold" font-size="11.00" fill="#000000">売上</text>
<text text-anchor="start" x="677.5437" y="-397.3" font-family="Helvetica,sans-Serif" font-size="11.00" fill="#000000">[table]</text>
<polygon fill="none" stroke="#000000" points="561.5,-367.2 561.5,-389.2 628.5,-389.2 628.5,-367.2 561.5,-367.2"/>
<image xlink:href="../../images/primaryKeys.png" width="11px" height="12px" preserveAspectRatio="xMinYMin meet" x="566.5" y="-384.2"/>
<text text-anchor="start" x="580.7101" y="-374.3" font-family="Helvetica,sans-Serif" font-size="11.00" fill="#000000">売上番号</text>
<polygon fill="none" stroke="#000000" points="628.5,-367.2 628.5,-389.2 712.5,-389.2 712.5,-367.2 628.5,-367.2"/>
<text text-anchor="start" x="631.5" y="-374.9" font-family="Helvetica,sans-Serif" font-size="11.00" fill="#000000">varchar[20]</text>
<polygon fill="#ffffff" stroke="transparent" points="561.5,-345.2 561.5,-367.2 628.5,-367.2 628.5,-345.2 561.5,-345.2"/>
<polygon fill="none" stroke="#000000" points="561.5,-345.2 561.5,-367.2 628.5,-367.2 628.5,-345.2 561.5,-345.2"/>
<text text-anchor="start" x="581.5" y="-352.3" font-family="Helvetica,sans-Serif" font-size="11.00" fill="#000000">売上日</text>
<polygon fill="none" stroke="#000000" points="628.5,-345.2 628.5,-367.2 712.5,-367.2 712.5,-345.2 628.5,-345.2"/>
<text text-anchor="start" x="631.3807" y="-352.9" font-family="Helvetica,sans-Serif" font-size="11.00" fill="#000000">timestamp[29,6]</text>
<polygon fill="none" stroke="#000000" points="561.5,-323.2 561.5,-345.2 628.5,-345.2 628.5,-323.2 561.5,-323.2"/>
<text text-anchor="start" x="581.1061" y="-330.3" font-family="Helvetica,sans-Serif" font-size="11.00" fill="#000000">売上区分</text>
<polygon fill="none" stroke="#000000" points="628.5,-323.2 628.5,-345.2 712.5,-345.2 712.5,-323.2 628.5,-323.2"/>
<text text-anchor="start" x="631.5" y="-330.9" font-family="Helvetica,sans-Serif" font-size="11.00" fill="#000000">int4[10]</text>
<polygon fill="#ffffff" stroke="transparent" points="561.5,-301.2 561.5,-323.2 628.5,-323.2 628.5,-301.2 561.5,-301.2"/>
<polygon fill="none" stroke="#000000" points="561.5,-301.2 561.5,-323.2 628.5,-323.2 628.5,-301.2 561.5,-301.2"/>
<image xlink:href="../../images/foreignKeys.png" width="11px" height="12px" preserveAspectRatio="xMinYMin meet" x="566.5" y="-318.2"/>
<text text-anchor="start" x="580.4021" y="-308.3" font-family="Helvetica,sans-Serif" font-size="11.00" fill="#000000">受注番号</text>
<polygon fill="none" stroke="#000000" points="628.5,-301.2 628.5,-323.2 712.5,-323.2 712.5,-301.2 628.5,-301.2"/>
<text text-anchor="start" x="631.5" y="-308.9" font-family="Helvetica,sans-Serif" font-size="11.00" fill="#000000">varchar[20]</text>
<polygon fill="#ffffff" stroke="transparent" points="561.5,-279.2 561.5,-301.2 628.5,-301.2 628.5,-279.2 561.5,-279.2"/>
<polygon fill="none" stroke="#000000" points="561.5,-279.2 561.5,-301.2 628.5,-301.2 628.5,-279.2 561.5,-279.2"/>
<image xlink:href="../../images/foreignKeys.png" width="11px" height="12px" preserveAspectRatio="xMinYMin meet" x="566.5" y="-296.2"/>
<text text-anchor="start" x="565.5257" y="-286.3" font-family="Helvetica,sans-Serif" font-size="11.00" fill="#000000">部門コード</text>
<polygon fill="none" stroke="#000000" points="628.5,-279.2 628.5,-301.2 712.5,-301.2 712.5,-279.2 628.5,-279.2"/>
<text text-anchor="start" x="631.5" y="-286.9" font-family="Helvetica,sans-Serif" font-size="11.00" fill="#000000">varchar[6]</text>
<polygon fill="#ffffff" stroke="transparent" points="561.5,-257.2 561.5,-279.2 628.5,-279.2 628.5,-257.2 561.5,-257.2"/>
<polygon fill="none" stroke="#000000" points="561.5,-257.2 561.5,-279.2 628.5,-279.2 628.5,-257.2 561.5,-257.2"/>
<image xlink:href="../../images/foreignKeys.png" width="11px" height="12px" preserveAspectRatio="xMinYMin meet" x="566.5" y="-274.2"/>
<text text-anchor="start" x="581.5" y="-264.3" font-family="Helvetica,sans-Serif" font-size="11.00" fill="#000000">開始日</text>
<polygon fill="none" stroke="#000000" points="628.5,-257.2 628.5,-279.2 712.5,-279.2 712.5,-257.2 628.5,-257.2"/>
<text text-anchor="start" x="631.3807" y="-264.9" font-family="Helvetica,sans-Serif" font-size="11.00" fill="#000000">timestamp[29,6]</text>
<polygon fill="#ffffff" stroke="transparent" points="561.5,-235.2 561.5,-257.2 628.5,-257.2 628.5,-235.2 561.5,-235.2"/>
<polygon fill="none" stroke="#000000" points="561.5,-235.2 561.5,-257.2 628.5,-257.2 628.5,-235.2 561.5,-235.2"/>
<image xlink:href="../../images/foreignKeys.png" width="11px" height="12px" preserveAspectRatio="xMinYMin meet" x="566.5" y="-252.2"/>
<text text-anchor="start" x="563.9978" y="-242.3" font-family="Helvetica,sans-Serif" font-size="11.00" fill="#000000">取引先コード</text>
<polygon fill="none" stroke="#000000" points="628.5,-235.2 628.5,-257.2 712.5,-257.2 712.5,-235.2 628.5,-235.2"/>
<text text-anchor="start" x="631.5" y="-242.9" font-family="Helvetica,sans-Serif" font-size="11.00" fill="#000000">varchar[8]</text>
<polygon fill="none" stroke="#000000" points="561.5,-213.2 561.5,-235.2 628.5,-235.2 628.5,-213.2 561.5,-213.2"/>
<text text-anchor="start" x="575.6061" y="-220.3" font-family="Helvetica,sans-Serif" font-size="11.00" fill="#000000">売上金額</text>
<polygon fill="none" stroke="#000000" points="628.5,-213.2 628.5,-235.2 712.5,-235.2 712.5,-213.2 628.5,-213.2"/>
<text text-anchor="start" x="631.5" y="-220.9" font-family="Helvetica,sans-Serif" font-size="11.00" fill="#000000">int4[10]</text>
<polygon fill="none" stroke="#000000" points="561.5,-191.2 561.5,-213.2 628.5,-213.2 628.5,-191.2 561.5,-191.2"/>
<text text-anchor="start" x="581.2035" y="-198.3" font-family="Helvetica,sans-Serif" font-size="11.00" fill="#000000">消費税</text>
<polygon fill="none" stroke="#000000" points="628.5,-191.2 628.5,-213.2 712.5,-213.2 712.5,-191.2 628.5,-191.2"/>
<text text-anchor="start" x="631.5" y="-198.9" font-family="Helvetica,sans-Serif" font-size="11.00" fill="#000000">int4[10]</text>
<polygon fill="none" stroke="#000000" points="561.5,-169.2 561.5,-191.2 628.5,-191.2 628.5,-169.2 561.5,-169.2"/>
<text text-anchor="start" x="578.5706" y="-176.3" font-family="Helvetica,sans-Serif" font-size="11.00" fill="#000000">訂正番号</text>
<polygon fill="none" stroke="#000000" points="628.5,-169.2 628.5,-191.2 712.5,-191.2 712.5,-169.2 628.5,-169.2"/>
<text text-anchor="start" x="631.5" y="-176.9" font-family="Helvetica,sans-Serif" font-size="11.00" fill="#000000">varchar[20]</text>
<polygon fill="none" stroke="#000000" points="561.5,-147.2 561.5,-169.2 628.5,-169.2 628.5,-147.2 561.5,-147.2"/>
<text text-anchor="start" x="571.8452" y="-154.3" font-family="Helvetica,sans-Serif" font-size="11.00" fill="#000000">元伝票番号</text>
<polygon fill="none" stroke="#000000" points="628.5,-147.2 628.5,-169.2 712.5,-169.2 712.5,-147.2 628.5,-147.2"/>
<text text-anchor="start" x="631.5" y="-154.9" font-family="Helvetica,sans-Serif" font-size="11.00" fill="#000000">varchar[20]</text>
<polygon fill="none" stroke="#000000" points="561.5,-125.2 561.5,-147.2 628.5,-147.2 628.5,-125.2 561.5,-125.2"/>
<text text-anchor="start" x="578.6581" y="-132.3" font-family="Helvetica,sans-Serif" font-size="11.00" fill="#000000">作成日時</text>
<polygon fill="none" stroke="#000000" points="628.5,-125.2 628.5,-147.2 712.5,-147.2 712.5,-125.2 628.5,-125.2"/>
<text text-anchor="start" x="631.3807" y="-132.9" font-family="Helvetica,sans-Serif" font-size="11.00" fill="#000000">timestamp[29,6]</text>
<polygon fill="none" stroke="#000000" points="561.5,-103.2 561.5,-125.2 628.5,-125.2 628.5,-103.2 561.5,-103.2"/>
<text text-anchor="start" x="578.6581" y="-110.3" font-family="Helvetica,sans-Serif" font-size="11.00" fill="#000000">作成者名</text>
<polygon fill="none" stroke="#000000" points="628.5,-103.2 628.5,-125.2 712.5,-125.2 712.5,-103.2 628.5,-103.2"/>
<text text-anchor="start" x="631.5" y="-110.9" font-family="Helvetica,sans-Serif" font-size="11.00" fill="#000000">varchar[12]</text>
<polygon fill="none" stroke="#000000" points="561.5,-81.2 561.5,-103.2 628.5,-103.2 628.5,-81.2 561.5,-81.2"/>
<text text-anchor="start" x="581.5" y="-88.3" font-family="Helvetica,sans-Serif" font-size="11.00" fill="#000000">更新日時</text>
<polygon fill="none" stroke="#000000" points="628.5,-81.2 628.5,-103.2 712.5,-103.2 712.5,-81.2 628.5,-81.2"/>
<text text-anchor="start" x="631.3807" y="-88.9" font-family="Helvetica,sans-Serif" font-size="11.00" fill="#000000">timestamp[29,6]</text>
<polygon fill="none" stroke="#000000" points="561.5,-59.2 561.5,-81.2 628.5,-81.2 628.5,-59.2 561.5,-59.2"/>
<text text-anchor="start" x="581.5" y="-66.3" font-family="Helvetica,sans-Serif" font-size="11.00" fill="#000000">更新者名</text>
<polygon fill="none" stroke="#000000" points="628.5,-59.2 628.5,-81.2 712.5,-81.2 712.5,-59.2 628.5,-59.2"/>
<text text-anchor="start" x="631.5" y="-66.9" font-family="Helvetica,sans-Serif" font-size="11.00" fill="#000000">varchar[12]</text>
<polygon fill="#ffffff" stroke="transparent" points="561.5,-40.2 561.5,-59.2 712.5,-59.2 712.5,-40.2 561.5,-40.2"/>
<polygon fill="none" stroke="#000000" points="561.5,-40.2 561.5,-59.2 712.5,-59.2 712.5,-40.2 561.5,-40.2"/>
<polygon fill="#ffffff" stroke="transparent" points="562.5,-41.2 562.5,-58.2 615.5,-58.2 615.5,-41.2 562.5,-41.2"/>
<text text-anchor="start" x="564.5" y="-46.3" font-family="Helvetica,sans-Serif" font-size="11.00" fill="#000000">&lt; 4</text>
<polygon fill="#ffffff" stroke="transparent" points="615.5,-41.2 615.5,-58.2 659.5,-58.2 659.5,-41.2 615.5,-41.2"/>
<text text-anchor="start" x="634.4431" y="-46.3" font-family="Helvetica,sans-Serif" font-size="11.00" fill="#000000"> &#160;</text>
<polygon fill="#ffffff" stroke="transparent" points="659.5,-41.2 659.5,-58.2 711.5,-58.2 711.5,-41.2 659.5,-41.2"/>
<text text-anchor="start" x="693.9053" y="-46.3" font-family="Helvetica,sans-Serif" font-size="11.00" fill="#000000">1 &gt;</text>
<polygon fill="#000000" stroke="#000000" points="615.5,-41.2 615.5,-58.2 615.5,-58.2 615.5,-41.2 615.5,-41.2"/>
<polygon fill="#000000" stroke="#000000" points="659.5,-41.2 659.5,-58.2 659.5,-58.2 659.5,-41.2 659.5,-41.2"/>
<polygon fill="none" stroke="#000000" stroke-width="2" points="560,-39.2 560,-413.2 713,-413.2 713,-39.2 560,-39.2"/>
</a>
</g>
</g>
<!-- 売上&#45;&gt;取引先マスタ -->
<g id="edge11" class="edge">
<title>売上:w&#45;&gt;取引先マスタ:e</title>
<path fill="none" stroke="#000000" d="M547.136,-247.6642C491.2851,-260.7531 557.9753,-358.6613 518,-422.2 486.3933,-472.4372 467.6405,-479.7821 415,-507.2 373.6862,-528.7184 358.7775,-522.3606 314,-535.2 295.9537,-540.3746 292.2735,-547.2 273.5,-547.2"/>
<polygon fill="#000000" stroke="#000000" points="553.5412,-247.0113 561.8651,-249.7814 557.5206,-246.6057 561.5,-246.2 561.5,-246.2 561.5,-246.2 557.5206,-246.6057 561.1349,-242.6186 553.5412,-247.0113 553.5412,-247.0113"/>
<ellipse fill="none" stroke="#000000" cx="550.3577" cy="-247.3358" rx="3.2" ry="3.2"/>
</g>
<!-- 売上&#45;&gt;受注 -->
<g id="edge12" class="edge">
<title>売上:w&#45;&gt;受注:e</title>
<path fill="none" stroke="#000000" d="M547.1596,-314.3844C530.3404,-319.5029 515.9915,-332.8584 505.1559,-346.2957"/>
<polygon fill="#000000" stroke="#000000" points="553.5912,-313.4048 562.0421,-315.7589 557.5456,-312.8024 561.5,-312.2 561.5,-312.2 561.5,-312.2 557.5456,-312.8024 560.9579,-308.6411 553.5912,-313.4048 553.5912,-313.4048"/>
<ellipse fill="none" stroke="#000000" cx="550.4277" cy="-313.8867" rx="3.2" ry="3.2"/>
</g>
<!-- 売上&#45;&gt;部門マスタ -->
<g id="edge13" class="edge">
<title>売上:w&#45;&gt;部門マスタ:e</title>
<path fill="none" stroke="#000000" d="M547.0489,-290.2973C446.2603,-291.6314 332.864,-306.3779 270.6595,-315.6705"/>
<polygon fill="#000000" stroke="#000000" points="553.5002,-290.2539 561.5243,-293.7999 557.5001,-290.227 561.5,-290.2 561.5,-290.2 561.5,-290.2 557.5001,-290.227 561.4757,-286.6001 553.5002,-290.2539 553.5002,-290.2539"/>
<ellipse fill="none" stroke="#000000" cx="550.3003" cy="-290.2755" rx="3.2" ry="3.2"/>
</g>
<!-- 売上&#45;&gt;部門マスタ -->
<g id="edge14" class="edge">
<title>売上:w&#45;&gt;部門マスタ:e</title>
<path fill="none" stroke="#000000" d="M547.0651,-268.2365C448.0912,-268.7599 417.594,-275.0609 314,-296.2 299.7021,-299.1176 284.4074,-303.2699 270.5372,-307.4458"/>
<polygon fill="#000000" stroke="#000000" points="553.5,-268.2203 561.5091,-271.8 557.5,-268.2101 561.5,-268.2 561.5,-268.2 561.5,-268.2 557.5,-268.2101 561.4909,-264.6 553.5,-268.2203 553.5,-268.2203"/>
<ellipse fill="none" stroke="#000000" cx="550.3" cy="-268.2284" rx="3.2" ry="3.2"/>
</g>
<!-- 売上明細 -->
<g id="node12" class="node">
<title>売上明細</title>
<g id="a_node12"><a xlink:href="../../tables/_____29a0763a.html" xlink:title="売上明細" target="_top">
<polygon fill="#ffffff" stroke="transparent" points="763,-293.7 763,-442.7 833,-442.7 833,-293.7 763,-293.7"/>
<polygon fill="#f5f5f5" stroke="transparent" points="763,-419.2 763,-442.2 833,-442.2 833,-419.2 763,-419.2"/>
<polygon fill="none" stroke="#000000" points="763,-419.2 763,-442.2 833,-442.2 833,-419.2 763,-419.2"/>
<text text-anchor="start" x="760.4086" y="-427.8" font-family="Helvetica,sans-Serif" font-weight="bold" font-size="11.00" fill="#000000">売上明細</text>
<text text-anchor="start" x="798.5219" y="-427.3" font-family="Helvetica,sans-Serif" font-size="11.00" fill="#000000">[table]</text>
<polygon fill="none" stroke="#000000" points="763,-397.2 763,-419.2 833,-419.2 833,-397.2 763,-397.2"/>
<image xlink:href="../../images/primaryKeys.png" width="11px" height="12px" preserveAspectRatio="xMinYMin meet" x="768" y="-414.2"/>
<text text-anchor="start" x="784.2101" y="-404.3" font-family="Helvetica,sans-Serif" font-size="11.00" fill="#000000">売上番号</text>
<polygon fill="none" stroke="#000000" points="763,-375.2 763,-397.2 833,-397.2 833,-375.2 763,-375.2"/>
<image xlink:href="../../images/primaryKeys.png" width="11px" height="12px" preserveAspectRatio="xMinYMin meet" x="768" y="-392.2"/>
<text text-anchor="start" x="785" y="-382.3" font-family="Helvetica,sans-Serif" font-size="11.00" fill="#000000">明細番号</text>
<polygon fill="#ffffff" stroke="transparent" points="763,-353.2 763,-375.2 833,-375.2 833,-353.2 763,-353.2"/>
<polygon fill="none" stroke="#000000" points="763,-353.2 763,-375.2 833,-375.2 833,-353.2 763,-353.2"/>
<image xlink:href="../../images/foreignKeys.png" width="11px" height="12px" preserveAspectRatio="xMinYMin meet" x="768" y="-370.2"/>
<text text-anchor="start" x="776.0547" y="-360.3" font-family="Helvetica,sans-Serif" font-size="11.00" fill="#000000">商品コード</text>
<polygon fill="#ffffff" stroke="transparent" points="763,-331.2 763,-353.2 833,-353.2 833,-331.2 763,-331.2"/>
<polygon fill="none" stroke="#000000" points="763,-331.2 763,-353.2 833,-353.2 833,-331.2 763,-331.2"/>
<text text-anchor="start" x="782.3731" y="-338.3" font-family="Helvetica,sans-Serif" font-size="11.00" fill="#000000">請求番号</text>
<polygon fill="none" stroke="#000000" points="763,-312.2 763,-331.2 833,-331.2 833,-312.2 763,-312.2"/>
<text text-anchor="start" x="766" y="-318.3" font-family="Helvetica,sans-Serif" font-size="11.00" fill="#000000">...</text>
<polygon fill="#ffffff" stroke="transparent" points="763,-293.2 763,-312.2 833,-312.2 833,-293.2 763,-293.2"/>
<polygon fill="none" stroke="#000000" points="763,-293.2 763,-312.2 833,-312.2 833,-293.2 763,-293.2"/>
<polygon fill="#ffffff" stroke="transparent" points="764,-294.2 764,-311.2 793,-311.2 793,-294.2 764,-294.2"/>
<text text-anchor="start" x="766" y="-299.3" font-family="Helvetica,sans-Serif" font-size="11.00" fill="#000000">&lt; 2</text>
<polygon fill="#ffffff" stroke="transparent" points="793,-294.2 793,-311.2 813,-311.2 813,-294.2 793,-294.2"/>
<text text-anchor="start" x="799.9431" y="-299.3" font-family="Helvetica,sans-Serif" font-size="11.00" fill="#000000"> &#160;</text>
<polygon fill="#ffffff" stroke="transparent" points="813,-294.2 813,-311.2 832,-311.2 832,-294.2 813,-294.2"/>
<text text-anchor="start" x="823.8862" y="-299.3" font-family="Helvetica,sans-Serif" font-size="11.00" fill="#000000"> &#160;</text>
<polygon fill="#000000" stroke="#000000" points="793,-294.2 793,-311.2 793,-311.2 793,-294.2 793,-294.2"/>
<polygon fill="#000000" stroke="#000000" points="813,-294.2 813,-311.2 813,-311.2 813,-294.2 813,-294.2"/>
</a>
</g>
</g>
<!-- 売上明細&#45;&gt;商品マスタ -->
<g id="edge15" class="edge">
<title>売上明細:w&#45;&gt;商品マスタ:e</title>
<path fill="none" stroke="#000000" d="M748.6619,-367.9683C734.4515,-377.8254 739.451,-404.9404 722,-424.2 703.8886,-444.1883 702.4732,-463.2 675.5,-463.2"/>
<polygon fill="#000000" stroke="#000000" points="755.2628,-366.2335 763.9151,-367.6818 759.1314,-365.2168 763,-364.2 763,-364.2 763,-364.2 759.1314,-365.2168 762.0849,-360.7182 755.2628,-366.2335 755.2628,-366.2335"/>
<ellipse fill="none" stroke="#000000" cx="752.1679" cy="-367.0469" rx="3.2" ry="3.2"/>
</g>
<!-- 売上明細&#45;&gt;売上 -->
<g id="edge16" class="edge">
<title>売上明細:w&#45;&gt;売上:e</title>
<path fill="none" stroke="#000000" d="M748.8928,-404.278C736.2418,-396.1462 732.6915,-378.2 712.5,-378.2"/>
<polygon fill="#000000" stroke="#000000" points="755.2923,-406.0571 762.0357,-411.6685 759.1462,-407.1286 763,-408.2 763,-408.2 763,-408.2 759.1462,-407.1286 763.9643,-404.7315 755.2923,-406.0571 755.2923,-406.0571"/>
<ellipse fill="none" stroke="#000000" cx="752.2092" cy="-405.2" rx="3.2" ry="3.2"/>
</g>
</g>
</svg>
